M48
;Layer_Color=9474304
;FILE_FORMAT=2:5
INCH,LZ
;TYPE=PLATED
T1F00S00C0.01181
T2F00S00C0.03543
%
T01
X0040551Y0009055
X0042126
Y001378
X0040551
X004685Y0038976
X0057874Y003937
X001811Y0037795
X0016535Y0027165
Y0025197
Y0023622
Y0021654
Y0020079
X0015748Y0012598
Y001063
Y0008661
Y0006693
T02
X00925Y0001
Y0011
Y0021
Y0031
X0Y003
Y002
Y001
Y0
M30
