G04*
G04 #@! TF.GenerationSoftware,Altium Limited,Altium NEXUS,1.1.6 (48)*
G04*
G04 Layer_Color=65535*
%FSLAX25Y25*%
%MOIN*%
G70*
G01*
G75*
%ADD10C,0.00984*%
G36*
X44898Y4219D02*
X44926D01*
X44963Y4214D01*
X45046Y4201D01*
X45138Y4173D01*
X45235Y4136D01*
X45331Y4090D01*
X45378Y4058D01*
X45424Y4021D01*
X45428D01*
X45433Y4012D01*
X45461Y3984D01*
X45498Y3938D01*
X45544Y3878D01*
X45594Y3800D01*
X45636Y3707D01*
X45677Y3597D01*
X45700Y3472D01*
X45331Y3445D01*
Y3449D01*
Y3454D01*
X45322Y3481D01*
X45309Y3518D01*
X45295Y3565D01*
X45248Y3670D01*
X45221Y3717D01*
X45189Y3758D01*
X45184Y3767D01*
X45161Y3786D01*
X45129Y3809D01*
X45087Y3841D01*
X45032Y3869D01*
X44967Y3896D01*
X44894Y3915D01*
X44815Y3919D01*
X44783D01*
X44751Y3915D01*
X44709Y3906D01*
X44658Y3896D01*
X44603Y3878D01*
X44552Y3850D01*
X44497Y3818D01*
X44488Y3813D01*
X44469Y3795D01*
X44437Y3763D01*
X44400Y3721D01*
X44354Y3670D01*
X44308Y3606D01*
X44262Y3528D01*
X44221Y3440D01*
Y3435D01*
X44216Y3431D01*
X44211Y3412D01*
X44207Y3394D01*
X44197Y3371D01*
X44188Y3339D01*
X44179Y3302D01*
X44170Y3260D01*
X44161Y3214D01*
X44151Y3163D01*
X44142Y3104D01*
X44133Y3043D01*
X44128Y2974D01*
X44124Y2901D01*
X44119Y2822D01*
Y2744D01*
X44124Y2748D01*
X44142Y2771D01*
X44170Y2808D01*
X44211Y2854D01*
X44257Y2905D01*
X44313Y2956D01*
X44377Y3002D01*
X44446Y3043D01*
X44456Y3048D01*
X44479Y3057D01*
X44520Y3076D01*
X44571Y3094D01*
X44631Y3113D01*
X44700Y3131D01*
X44774Y3140D01*
X44852Y3145D01*
X44889D01*
X44917Y3140D01*
X44949Y3136D01*
X44986Y3131D01*
X45073Y3113D01*
X45170Y3076D01*
X45226Y3057D01*
X45276Y3030D01*
X45331Y2997D01*
X45387Y2961D01*
X45437Y2919D01*
X45488Y2868D01*
X45493Y2864D01*
X45498Y2854D01*
X45511Y2841D01*
X45530Y2818D01*
X45548Y2790D01*
X45571Y2758D01*
X45594Y2721D01*
X45622Y2679D01*
X45645Y2629D01*
X45668Y2578D01*
X45691Y2518D01*
X45709Y2458D01*
X45728Y2389D01*
X45742Y2320D01*
X45746Y2241D01*
X45751Y2163D01*
Y2158D01*
Y2149D01*
Y2135D01*
Y2117D01*
X45746Y2089D01*
Y2062D01*
X45737Y1988D01*
X45719Y1909D01*
X45700Y1817D01*
X45668Y1725D01*
X45627Y1633D01*
Y1628D01*
X45622Y1624D01*
X45613Y1610D01*
X45603Y1591D01*
X45576Y1550D01*
X45539Y1495D01*
X45488Y1435D01*
X45428Y1375D01*
X45364Y1315D01*
X45285Y1259D01*
X45276Y1255D01*
X45248Y1241D01*
X45202Y1218D01*
X45147Y1195D01*
X45073Y1172D01*
X44990Y1149D01*
X44898Y1135D01*
X44801Y1130D01*
X44783D01*
X44755Y1135D01*
X44723D01*
X44686Y1140D01*
X44640Y1149D01*
X44589Y1158D01*
X44534Y1172D01*
X44474Y1190D01*
X44409Y1213D01*
X44350Y1241D01*
X44285Y1273D01*
X44221Y1315D01*
X44156Y1361D01*
X44096Y1412D01*
X44041Y1472D01*
X44036Y1476D01*
X44027Y1490D01*
X44013Y1508D01*
X43995Y1536D01*
X43972Y1573D01*
X43949Y1619D01*
X43921Y1674D01*
X43898Y1739D01*
X43870Y1813D01*
X43843Y1896D01*
X43819Y1988D01*
X43796Y2089D01*
X43778Y2200D01*
X43764Y2324D01*
X43755Y2454D01*
X43750Y2596D01*
Y2601D01*
Y2606D01*
Y2619D01*
Y2633D01*
Y2679D01*
X43755Y2739D01*
X43760Y2813D01*
X43769Y2896D01*
X43778Y2988D01*
X43792Y3085D01*
X43806Y3191D01*
X43829Y3297D01*
X43856Y3403D01*
X43889Y3505D01*
X43925Y3611D01*
X43967Y3703D01*
X44018Y3795D01*
X44073Y3873D01*
X44078Y3878D01*
X44087Y3887D01*
X44101Y3906D01*
X44124Y3929D01*
X44156Y3956D01*
X44188Y3984D01*
X44230Y4016D01*
X44276Y4048D01*
X44326Y4081D01*
X44387Y4113D01*
X44446Y4141D01*
X44515Y4168D01*
X44589Y4191D01*
X44668Y4210D01*
X44751Y4219D01*
X44838Y4224D01*
X44870D01*
X44898Y4219D01*
D02*
G37*
G36*
X39873D02*
X39933Y4210D01*
X40002Y4196D01*
X40081Y4178D01*
X40159Y4150D01*
X40238Y4113D01*
X40242D01*
X40247Y4108D01*
X40274Y4095D01*
X40311Y4072D01*
X40357Y4039D01*
X40408Y3998D01*
X40463Y3947D01*
X40514Y3887D01*
X40560Y3823D01*
X40565Y3813D01*
X40579Y3790D01*
X40597Y3754D01*
X40615Y3707D01*
X40634Y3647D01*
X40652Y3583D01*
X40666Y3514D01*
X40671Y3435D01*
Y3426D01*
Y3403D01*
X40666Y3366D01*
X40657Y3320D01*
X40643Y3265D01*
X40625Y3205D01*
X40602Y3140D01*
X40565Y3080D01*
X40560Y3071D01*
X40546Y3053D01*
X40519Y3025D01*
X40486Y2988D01*
X40440Y2947D01*
X40390Y2905D01*
X40325Y2859D01*
X40251Y2822D01*
X40256D01*
X40265Y2818D01*
X40279D01*
X40297Y2808D01*
X40343Y2795D01*
X40403Y2767D01*
X40468Y2735D01*
X40537Y2689D01*
X40606Y2633D01*
X40666Y2564D01*
X40671Y2555D01*
X40689Y2527D01*
X40712Y2486D01*
X40745Y2430D01*
X40772Y2361D01*
X40795Y2278D01*
X40814Y2182D01*
X40818Y2075D01*
Y2071D01*
Y2057D01*
Y2039D01*
X40814Y2011D01*
X40809Y1974D01*
X40804Y1937D01*
X40795Y1891D01*
X40781Y1845D01*
X40749Y1739D01*
X40726Y1679D01*
X40694Y1624D01*
X40662Y1568D01*
X40625Y1513D01*
X40579Y1458D01*
X40528Y1402D01*
X40523Y1398D01*
X40514Y1389D01*
X40500Y1379D01*
X40477Y1361D01*
X40450Y1338D01*
X40413Y1315D01*
X40371Y1292D01*
X40330Y1269D01*
X40279Y1241D01*
X40224Y1218D01*
X40164Y1195D01*
X40099Y1172D01*
X40030Y1153D01*
X39956Y1144D01*
X39878Y1135D01*
X39799Y1130D01*
X39763D01*
X39735Y1135D01*
X39698Y1140D01*
X39661Y1144D01*
X39615Y1149D01*
X39569Y1158D01*
X39463Y1186D01*
X39352Y1232D01*
X39297Y1255D01*
X39246Y1287D01*
X39191Y1324D01*
X39140Y1366D01*
X39136Y1370D01*
X39131Y1375D01*
X39117Y1389D01*
X39099Y1407D01*
X39080Y1435D01*
X39057Y1462D01*
X39030Y1495D01*
X39007Y1531D01*
X38951Y1624D01*
X38905Y1730D01*
X38864Y1850D01*
X38850Y1914D01*
X38841Y1983D01*
X39214Y2034D01*
Y2029D01*
X39219Y2020D01*
Y2002D01*
X39228Y1983D01*
X39242Y1928D01*
X39265Y1859D01*
X39292Y1785D01*
X39329Y1707D01*
X39375Y1637D01*
X39426Y1578D01*
X39435Y1573D01*
X39454Y1555D01*
X39486Y1536D01*
X39532Y1508D01*
X39583Y1485D01*
X39647Y1462D01*
X39721Y1444D01*
X39799Y1439D01*
X39827D01*
X39846Y1444D01*
X39892Y1448D01*
X39952Y1462D01*
X40025Y1485D01*
X40099Y1513D01*
X40173Y1559D01*
X40242Y1619D01*
X40251Y1628D01*
X40270Y1651D01*
X40297Y1688D01*
X40334Y1743D01*
X40367Y1808D01*
X40394Y1886D01*
X40413Y1974D01*
X40422Y2071D01*
Y2075D01*
Y2080D01*
Y2094D01*
X40417Y2112D01*
X40413Y2158D01*
X40399Y2218D01*
X40380Y2283D01*
X40348Y2357D01*
X40307Y2426D01*
X40251Y2490D01*
X40242Y2500D01*
X40224Y2518D01*
X40187Y2541D01*
X40136Y2573D01*
X40076Y2606D01*
X40002Y2629D01*
X39924Y2647D01*
X39832Y2656D01*
X39790D01*
X39758Y2652D01*
X39721Y2647D01*
X39675Y2643D01*
X39624Y2633D01*
X39569Y2619D01*
X39610Y2947D01*
X39634D01*
X39652Y2942D01*
X39712D01*
X39753Y2947D01*
X39813Y2956D01*
X39878Y2970D01*
X39947Y2993D01*
X40021Y3021D01*
X40095Y3062D01*
X40104Y3067D01*
X40127Y3085D01*
X40154Y3117D01*
X40191Y3159D01*
X40228Y3210D01*
X40256Y3274D01*
X40279Y3352D01*
X40288Y3445D01*
Y3449D01*
Y3454D01*
Y3477D01*
X40279Y3514D01*
X40270Y3565D01*
X40256Y3615D01*
X40228Y3670D01*
X40196Y3730D01*
X40150Y3781D01*
X40145Y3786D01*
X40127Y3804D01*
X40095Y3827D01*
X40053Y3850D01*
X40002Y3878D01*
X39942Y3896D01*
X39873Y3915D01*
X39795Y3919D01*
X39758D01*
X39717Y3910D01*
X39670Y3901D01*
X39610Y3887D01*
X39551Y3859D01*
X39491Y3827D01*
X39431Y3781D01*
X39426Y3777D01*
X39408Y3758D01*
X39385Y3726D01*
X39357Y3680D01*
X39325Y3624D01*
X39297Y3555D01*
X39269Y3472D01*
X39251Y3376D01*
X38877Y3440D01*
Y3445D01*
X38882Y3458D01*
X38887Y3477D01*
X38891Y3500D01*
X38901Y3532D01*
X38910Y3569D01*
X38942Y3652D01*
X38979Y3744D01*
X39034Y3841D01*
X39099Y3933D01*
X39182Y4016D01*
X39186Y4021D01*
X39191Y4025D01*
X39205Y4035D01*
X39228Y4048D01*
X39251Y4062D01*
X39279Y4081D01*
X39348Y4122D01*
X39435Y4159D01*
X39541Y4191D01*
X39657Y4214D01*
X39721Y4224D01*
X39827D01*
X39873Y4219D01*
D02*
G37*
G36*
X32382Y1181D02*
X31990D01*
X31354Y3486D01*
Y3491D01*
X31349Y3500D01*
X31345Y3514D01*
X31340Y3532D01*
X31326Y3583D01*
X31313Y3638D01*
X31294Y3703D01*
X31280Y3758D01*
X31266Y3809D01*
X31262Y3827D01*
X31257Y3841D01*
Y3832D01*
X31248Y3809D01*
X31239Y3767D01*
X31225Y3721D01*
X31211Y3661D01*
X31197Y3606D01*
X31179Y3546D01*
X31165Y3486D01*
X30529Y1181D01*
X30109D01*
X29316Y4210D01*
X29727D01*
X30183Y2218D01*
Y2214D01*
X30188Y2204D01*
X30192Y2186D01*
X30197Y2168D01*
X30202Y2135D01*
X30211Y2103D01*
X30229Y2025D01*
X30248Y1932D01*
X30271Y1826D01*
X30289Y1716D01*
X30312Y1601D01*
Y1605D01*
X30317Y1624D01*
X30321Y1647D01*
X30331Y1679D01*
X30340Y1716D01*
X30349Y1757D01*
X30377Y1854D01*
X30400Y1951D01*
X30423Y2043D01*
X30432Y2080D01*
X30441Y2117D01*
X30446Y2145D01*
X30450Y2163D01*
X31027Y4210D01*
X31511D01*
X31944Y2675D01*
Y2670D01*
X31953Y2647D01*
X31958Y2619D01*
X31972Y2578D01*
X31981Y2527D01*
X31999Y2467D01*
X32013Y2398D01*
X32032Y2324D01*
X32050Y2246D01*
X32068Y2163D01*
X32110Y1979D01*
X32147Y1790D01*
X32179Y1601D01*
Y1605D01*
X32184Y1614D01*
Y1628D01*
X32188Y1651D01*
X32198Y1679D01*
X32202Y1711D01*
X32212Y1748D01*
X32221Y1790D01*
X32244Y1886D01*
X32267Y2002D01*
X32299Y2126D01*
X32331Y2260D01*
X32801Y4210D01*
X33207D01*
X32382Y1181D01*
D02*
G37*
G36*
X52223D02*
X51850D01*
Y3551D01*
X51845Y3546D01*
X51827Y3528D01*
X51795Y3505D01*
X51753Y3472D01*
X51702Y3431D01*
X51643Y3389D01*
X51573Y3339D01*
X51495Y3292D01*
X51490D01*
X51486Y3288D01*
X51458Y3269D01*
X51417Y3246D01*
X51366Y3219D01*
X51306Y3186D01*
X51241Y3159D01*
X51172Y3127D01*
X51108Y3099D01*
Y3463D01*
X51113D01*
X51122Y3468D01*
X51140Y3477D01*
X51159Y3491D01*
X51186Y3505D01*
X51218Y3518D01*
X51292Y3560D01*
X51375Y3611D01*
X51467Y3670D01*
X51560Y3740D01*
X51647Y3813D01*
X51652Y3818D01*
X51656Y3823D01*
X51684Y3850D01*
X51726Y3892D01*
X51776Y3943D01*
X51832Y4007D01*
X51887Y4076D01*
X51938Y4150D01*
X51979Y4224D01*
X52223D01*
Y1181D01*
D02*
G37*
G36*
X43400Y3855D02*
X41759D01*
Y2910D01*
X43179D01*
Y2555D01*
X41759D01*
Y1181D01*
X41358D01*
Y4210D01*
X43400D01*
Y3855D01*
D02*
G37*
G36*
X37886Y1181D02*
X37513D01*
Y3551D01*
X37508Y3546D01*
X37490Y3528D01*
X37458Y3505D01*
X37416Y3472D01*
X37365Y3431D01*
X37306Y3389D01*
X37236Y3339D01*
X37158Y3292D01*
X37153D01*
X37149Y3288D01*
X37121Y3269D01*
X37080Y3246D01*
X37029Y3219D01*
X36969Y3186D01*
X36904Y3159D01*
X36835Y3127D01*
X36771Y3099D01*
Y3463D01*
X36775D01*
X36785Y3468D01*
X36803Y3477D01*
X36821Y3491D01*
X36849Y3505D01*
X36881Y3518D01*
X36955Y3560D01*
X37038Y3611D01*
X37130Y3670D01*
X37222Y3740D01*
X37310Y3813D01*
X37315Y3818D01*
X37319Y3823D01*
X37347Y3850D01*
X37389Y3892D01*
X37439Y3943D01*
X37495Y4007D01*
X37550Y4076D01*
X37600Y4150D01*
X37642Y4224D01*
X37886D01*
Y1181D01*
D02*
G37*
G36*
X34825Y4205D02*
X34908Y4201D01*
X35001Y4191D01*
X35088Y4178D01*
X35162Y4164D01*
X35166D01*
X35176Y4159D01*
X35185D01*
X35203Y4150D01*
X35254Y4136D01*
X35314Y4113D01*
X35383Y4085D01*
X35457Y4048D01*
X35531Y4002D01*
X35604Y3947D01*
X35609D01*
X35614Y3938D01*
X35646Y3910D01*
X35687Y3864D01*
X35738Y3804D01*
X35798Y3730D01*
X35858Y3643D01*
X35913Y3541D01*
X35964Y3426D01*
Y3422D01*
X35969Y3412D01*
X35973Y3394D01*
X35982Y3371D01*
X35992Y3343D01*
X36001Y3306D01*
X36015Y3265D01*
X36024Y3219D01*
X36033Y3168D01*
X36047Y3113D01*
X36065Y2993D01*
X36079Y2859D01*
X36084Y2712D01*
Y2707D01*
Y2698D01*
Y2679D01*
Y2652D01*
X36079Y2624D01*
Y2587D01*
X36075Y2504D01*
X36065Y2412D01*
X36047Y2306D01*
X36029Y2200D01*
X36001Y2098D01*
Y2094D01*
X35996Y2085D01*
X35992Y2071D01*
X35987Y2052D01*
X35969Y2006D01*
X35945Y1942D01*
X35918Y1873D01*
X35881Y1799D01*
X35840Y1725D01*
X35793Y1656D01*
X35789Y1647D01*
X35770Y1628D01*
X35747Y1596D01*
X35710Y1555D01*
X35674Y1513D01*
X35623Y1467D01*
X35572Y1421D01*
X35517Y1379D01*
X35512Y1375D01*
X35489Y1366D01*
X35457Y1347D01*
X35415Y1324D01*
X35365Y1301D01*
X35305Y1278D01*
X35236Y1255D01*
X35157Y1232D01*
X35148D01*
X35120Y1223D01*
X35079Y1218D01*
X35019Y1209D01*
X34950Y1199D01*
X34867Y1190D01*
X34775Y1186D01*
X34673Y1181D01*
X33585D01*
Y4210D01*
X34747D01*
X34825Y4205D01*
D02*
G37*
G36*
X28081D02*
X28155Y4201D01*
X28233Y4196D01*
X28307Y4187D01*
X28371Y4178D01*
X28381D01*
X28408Y4168D01*
X28450Y4159D01*
X28500Y4145D01*
X28560Y4127D01*
X28620Y4104D01*
X28685Y4072D01*
X28745Y4035D01*
X28749Y4030D01*
X28772Y4016D01*
X28800Y3993D01*
X28832Y3961D01*
X28869Y3919D01*
X28911Y3869D01*
X28952Y3813D01*
X28989Y3744D01*
X28994Y3735D01*
X29003Y3712D01*
X29017Y3675D01*
X29035Y3624D01*
X29054Y3565D01*
X29067Y3495D01*
X29077Y3417D01*
X29081Y3334D01*
Y3329D01*
Y3316D01*
Y3297D01*
X29077Y3269D01*
X29072Y3237D01*
X29067Y3196D01*
X29063Y3154D01*
X29049Y3108D01*
X29021Y3002D01*
X28975Y2896D01*
X28948Y2841D01*
X28915Y2785D01*
X28878Y2730D01*
X28832Y2679D01*
X28828Y2675D01*
X28819Y2670D01*
X28805Y2656D01*
X28786Y2638D01*
X28754Y2619D01*
X28722Y2596D01*
X28680Y2573D01*
X28629Y2550D01*
X28574Y2523D01*
X28510Y2500D01*
X28436Y2476D01*
X28357Y2458D01*
X28265Y2440D01*
X28168Y2426D01*
X28062Y2421D01*
X27947Y2417D01*
X27173D01*
Y1181D01*
X26772D01*
Y4210D01*
X28012D01*
X28081Y4205D01*
D02*
G37*
G36*
X47194Y4219D02*
X47249Y4210D01*
X47314Y4201D01*
X47388Y4182D01*
X47461Y4154D01*
X47530Y4122D01*
X47540Y4118D01*
X47563Y4104D01*
X47595Y4081D01*
X47641Y4053D01*
X47687Y4012D01*
X47738Y3961D01*
X47789Y3906D01*
X47835Y3841D01*
X47839Y3832D01*
X47853Y3809D01*
X47876Y3767D01*
X47904Y3717D01*
X47932Y3652D01*
X47964Y3574D01*
X47996Y3486D01*
X48024Y3389D01*
Y3385D01*
X48028Y3376D01*
Y3362D01*
X48033Y3339D01*
X48042Y3316D01*
X48047Y3283D01*
X48051Y3242D01*
X48061Y3200D01*
X48065Y3150D01*
X48070Y3099D01*
X48079Y3039D01*
X48084Y2974D01*
X48088Y2905D01*
Y2836D01*
X48093Y2675D01*
Y2670D01*
Y2652D01*
Y2624D01*
Y2587D01*
X48088Y2541D01*
Y2490D01*
X48084Y2430D01*
X48079Y2366D01*
X48065Y2228D01*
X48047Y2085D01*
X48019Y1942D01*
X48001Y1877D01*
X47982Y1813D01*
Y1808D01*
X47978Y1799D01*
X47973Y1780D01*
X47964Y1757D01*
X47950Y1730D01*
X47936Y1702D01*
X47899Y1628D01*
X47853Y1545D01*
X47798Y1462D01*
X47733Y1379D01*
X47655Y1306D01*
X47650D01*
X47646Y1296D01*
X47632Y1292D01*
X47618Y1278D01*
X47567Y1250D01*
X47507Y1218D01*
X47425Y1186D01*
X47332Y1158D01*
X47226Y1140D01*
X47106Y1130D01*
X47065D01*
X47033Y1135D01*
X46996Y1140D01*
X46954Y1149D01*
X46908Y1158D01*
X46857Y1167D01*
X46747Y1204D01*
X46687Y1232D01*
X46632Y1259D01*
X46572Y1296D01*
X46516Y1338D01*
X46466Y1384D01*
X46415Y1439D01*
X46410Y1444D01*
X46401Y1458D01*
X46387Y1481D01*
X46369Y1513D01*
X46346Y1555D01*
X46323Y1605D01*
X46295Y1665D01*
X46267Y1739D01*
X46240Y1817D01*
X46212Y1909D01*
X46189Y2011D01*
X46166Y2121D01*
X46148Y2246D01*
X46134Y2375D01*
X46124Y2523D01*
X46120Y2675D01*
Y2679D01*
Y2698D01*
Y2726D01*
Y2762D01*
X46124Y2808D01*
Y2859D01*
X46129Y2919D01*
X46134Y2984D01*
X46148Y3122D01*
X46166Y3265D01*
X46189Y3408D01*
X46207Y3472D01*
X46226Y3537D01*
Y3541D01*
X46231Y3551D01*
X46240Y3569D01*
X46249Y3592D01*
X46258Y3620D01*
X46272Y3652D01*
X46309Y3726D01*
X46355Y3809D01*
X46410Y3892D01*
X46475Y3970D01*
X46553Y4044D01*
X46558D01*
X46562Y4053D01*
X46576Y4062D01*
X46595Y4072D01*
X46641Y4099D01*
X46705Y4136D01*
X46784Y4168D01*
X46880Y4196D01*
X46986Y4214D01*
X47106Y4224D01*
X47148D01*
X47194Y4219D01*
D02*
G37*
G36*
X50693Y342D02*
X48231D01*
Y610D01*
X50693D01*
Y342D01*
D02*
G37*
G36*
X18848Y51079D02*
X18886Y51075D01*
X18932Y51067D01*
X18986Y51056D01*
X19036Y51040D01*
X19090Y51021D01*
X19097Y51017D01*
X19113Y51010D01*
X19136Y50998D01*
X19167Y50979D01*
X19201Y50956D01*
X19236Y50929D01*
X19270Y50898D01*
X19297Y50864D01*
X19301Y50860D01*
X19309Y50848D01*
X19320Y50825D01*
X19336Y50798D01*
X19351Y50768D01*
X19366Y50729D01*
X19382Y50683D01*
X19393Y50637D01*
Y50633D01*
X19397Y50622D01*
X19401Y50599D01*
X19405Y50568D01*
Y50526D01*
X19409Y50472D01*
X19412Y50411D01*
Y50334D01*
Y49213D01*
X19101D01*
Y50322D01*
Y50326D01*
Y50330D01*
Y50353D01*
Y50388D01*
X19097Y50430D01*
X19094Y50472D01*
X19086Y50522D01*
X19074Y50564D01*
X19063Y50603D01*
Y50607D01*
X19055Y50618D01*
X19048Y50637D01*
X19036Y50656D01*
X19017Y50683D01*
X18994Y50706D01*
X18967Y50733D01*
X18936Y50756D01*
X18932Y50760D01*
X18921Y50764D01*
X18902Y50775D01*
X18875Y50787D01*
X18844Y50795D01*
X18806Y50806D01*
X18767Y50810D01*
X18721Y50814D01*
X18687D01*
X18652Y50806D01*
X18602Y50798D01*
X18548Y50783D01*
X18495Y50760D01*
X18433Y50729D01*
X18379Y50687D01*
X18372Y50679D01*
X18356Y50660D01*
X18333Y50630D01*
X18322Y50607D01*
X18310Y50580D01*
X18295Y50549D01*
X18283Y50514D01*
X18272Y50476D01*
X18260Y50434D01*
X18249Y50384D01*
X18245Y50330D01*
X18237Y50272D01*
Y50211D01*
Y49213D01*
X17926D01*
Y51040D01*
X18207D01*
Y50779D01*
X18211Y50783D01*
X18214Y50791D01*
X18226Y50806D01*
X18245Y50825D01*
X18264Y50848D01*
X18291Y50875D01*
X18318Y50902D01*
X18353Y50933D01*
X18395Y50960D01*
X18437Y50987D01*
X18483Y51014D01*
X18537Y51037D01*
X18591Y51056D01*
X18652Y51071D01*
X18717Y51079D01*
X18787Y51083D01*
X18813D01*
X18848Y51079D01*
D02*
G37*
G36*
X21643Y51440D02*
X20276D01*
Y50653D01*
X21459D01*
Y50357D01*
X20276D01*
Y49213D01*
X19942D01*
Y51736D01*
X21643D01*
Y51440D01*
D02*
G37*
G36*
X13134Y49213D02*
X12823D01*
Y51186D01*
X12819Y51183D01*
X12804Y51167D01*
X12777Y51148D01*
X12742Y51121D01*
X12700Y51086D01*
X12650Y51052D01*
X12593Y51010D01*
X12527Y50971D01*
X12523D01*
X12520Y50968D01*
X12497Y50952D01*
X12462Y50933D01*
X12420Y50910D01*
X12370Y50883D01*
X12316Y50860D01*
X12258Y50833D01*
X12205Y50810D01*
Y51113D01*
X12209D01*
X12216Y51117D01*
X12232Y51125D01*
X12247Y51136D01*
X12270Y51148D01*
X12297Y51160D01*
X12358Y51194D01*
X12427Y51236D01*
X12504Y51286D01*
X12581Y51344D01*
X12654Y51405D01*
X12658Y51409D01*
X12662Y51413D01*
X12685Y51436D01*
X12719Y51471D01*
X12762Y51513D01*
X12808Y51566D01*
X12854Y51624D01*
X12896Y51686D01*
X12931Y51747D01*
X13134D01*
Y49213D01*
D02*
G37*
G36*
X16778Y51743D02*
X16824Y51736D01*
X16878Y51728D01*
X16939Y51712D01*
X17001Y51689D01*
X17059Y51662D01*
X17066Y51659D01*
X17085Y51647D01*
X17112Y51628D01*
X17151Y51605D01*
X17189Y51570D01*
X17231Y51528D01*
X17274Y51482D01*
X17312Y51428D01*
X17316Y51421D01*
X17327Y51401D01*
X17346Y51367D01*
X17369Y51325D01*
X17393Y51271D01*
X17419Y51206D01*
X17446Y51133D01*
X17469Y51052D01*
Y51048D01*
X17473Y51040D01*
Y51029D01*
X17477Y51010D01*
X17485Y50990D01*
X17489Y50964D01*
X17492Y50929D01*
X17500Y50894D01*
X17504Y50852D01*
X17508Y50810D01*
X17515Y50760D01*
X17519Y50706D01*
X17523Y50649D01*
Y50591D01*
X17527Y50457D01*
Y50453D01*
Y50438D01*
Y50415D01*
Y50384D01*
X17523Y50345D01*
Y50303D01*
X17519Y50253D01*
X17515Y50200D01*
X17504Y50084D01*
X17489Y49965D01*
X17466Y49846D01*
X17450Y49792D01*
X17435Y49739D01*
Y49735D01*
X17431Y49727D01*
X17427Y49712D01*
X17419Y49693D01*
X17408Y49670D01*
X17396Y49646D01*
X17366Y49585D01*
X17327Y49516D01*
X17281Y49447D01*
X17227Y49378D01*
X17162Y49316D01*
X17158D01*
X17154Y49309D01*
X17143Y49305D01*
X17131Y49293D01*
X17089Y49270D01*
X17039Y49243D01*
X16970Y49216D01*
X16893Y49193D01*
X16805Y49178D01*
X16705Y49170D01*
X16671D01*
X16644Y49174D01*
X16613Y49178D01*
X16578Y49186D01*
X16540Y49193D01*
X16498Y49201D01*
X16406Y49232D01*
X16356Y49255D01*
X16310Y49278D01*
X16260Y49309D01*
X16214Y49343D01*
X16171Y49382D01*
X16129Y49428D01*
X16125Y49431D01*
X16118Y49443D01*
X16106Y49462D01*
X16091Y49489D01*
X16072Y49524D01*
X16052Y49566D01*
X16029Y49616D01*
X16006Y49677D01*
X15983Y49742D01*
X15960Y49819D01*
X15941Y49904D01*
X15922Y49996D01*
X15906Y50100D01*
X15895Y50207D01*
X15887Y50330D01*
X15883Y50457D01*
Y50461D01*
Y50476D01*
Y50499D01*
Y50530D01*
X15887Y50568D01*
Y50610D01*
X15891Y50660D01*
X15895Y50714D01*
X15906Y50829D01*
X15922Y50948D01*
X15941Y51067D01*
X15956Y51121D01*
X15972Y51175D01*
Y51179D01*
X15976Y51186D01*
X15983Y51202D01*
X15991Y51221D01*
X15999Y51244D01*
X16010Y51271D01*
X16041Y51332D01*
X16079Y51401D01*
X16125Y51471D01*
X16179Y51536D01*
X16244Y51597D01*
X16248D01*
X16252Y51605D01*
X16264Y51613D01*
X16279Y51620D01*
X16317Y51643D01*
X16371Y51674D01*
X16436Y51701D01*
X16517Y51724D01*
X16605Y51739D01*
X16705Y51747D01*
X16740D01*
X16778Y51743D01*
D02*
G37*
G36*
X14820D02*
X14866Y51736D01*
X14920Y51728D01*
X14981Y51712D01*
X15043Y51689D01*
X15100Y51662D01*
X15108Y51659D01*
X15127Y51647D01*
X15154Y51628D01*
X15192Y51605D01*
X15231Y51570D01*
X15273Y51528D01*
X15315Y51482D01*
X15353Y51428D01*
X15357Y51421D01*
X15369Y51401D01*
X15388Y51367D01*
X15411Y51325D01*
X15434Y51271D01*
X15461Y51206D01*
X15488Y51133D01*
X15511Y51052D01*
Y51048D01*
X15515Y51040D01*
Y51029D01*
X15519Y51010D01*
X15526Y50990D01*
X15530Y50964D01*
X15534Y50929D01*
X15542Y50894D01*
X15545Y50852D01*
X15549Y50810D01*
X15557Y50760D01*
X15561Y50706D01*
X15565Y50649D01*
Y50591D01*
X15569Y50457D01*
Y50453D01*
Y50438D01*
Y50415D01*
Y50384D01*
X15565Y50345D01*
Y50303D01*
X15561Y50253D01*
X15557Y50200D01*
X15545Y50084D01*
X15530Y49965D01*
X15507Y49846D01*
X15492Y49792D01*
X15476Y49739D01*
Y49735D01*
X15473Y49727D01*
X15469Y49712D01*
X15461Y49693D01*
X15450Y49670D01*
X15438Y49646D01*
X15407Y49585D01*
X15369Y49516D01*
X15323Y49447D01*
X15269Y49378D01*
X15204Y49316D01*
X15200D01*
X15196Y49309D01*
X15185Y49305D01*
X15173Y49293D01*
X15131Y49270D01*
X15081Y49243D01*
X15012Y49216D01*
X14935Y49193D01*
X14847Y49178D01*
X14747Y49170D01*
X14712D01*
X14685Y49174D01*
X14655Y49178D01*
X14620Y49186D01*
X14582Y49193D01*
X14539Y49201D01*
X14447Y49232D01*
X14397Y49255D01*
X14351Y49278D01*
X14301Y49309D01*
X14255Y49343D01*
X14213Y49382D01*
X14171Y49428D01*
X14167Y49431D01*
X14159Y49443D01*
X14148Y49462D01*
X14132Y49489D01*
X14113Y49524D01*
X14094Y49566D01*
X14071Y49616D01*
X14048Y49677D01*
X14025Y49742D01*
X14002Y49819D01*
X13983Y49904D01*
X13963Y49996D01*
X13948Y50100D01*
X13937Y50207D01*
X13929Y50330D01*
X13925Y50457D01*
Y50461D01*
Y50476D01*
Y50499D01*
Y50530D01*
X13929Y50568D01*
Y50610D01*
X13933Y50660D01*
X13937Y50714D01*
X13948Y50829D01*
X13963Y50948D01*
X13983Y51067D01*
X13998Y51121D01*
X14013Y51175D01*
Y51179D01*
X14017Y51186D01*
X14025Y51202D01*
X14033Y51221D01*
X14040Y51244D01*
X14052Y51271D01*
X14083Y51332D01*
X14121Y51401D01*
X14167Y51471D01*
X14221Y51536D01*
X14286Y51597D01*
X14290D01*
X14294Y51605D01*
X14305Y51613D01*
X14321Y51620D01*
X14359Y51643D01*
X14413Y51674D01*
X14478Y51701D01*
X14559Y51724D01*
X14647Y51739D01*
X14747Y51747D01*
X14781D01*
X14820Y51743D01*
D02*
G37*
G36*
X104763Y47131D02*
X104805D01*
X104855Y47127D01*
X104906Y47122D01*
X104966Y47113D01*
X105095Y47090D01*
X105233Y47062D01*
X105376Y47016D01*
X105510Y46956D01*
X105515D01*
X105524Y46947D01*
X105542Y46938D01*
X105570Y46924D01*
X105597Y46905D01*
X105630Y46882D01*
X105708Y46822D01*
X105796Y46753D01*
X105883Y46666D01*
X105971Y46560D01*
X106045Y46444D01*
Y46440D01*
X106054Y46431D01*
X106063Y46412D01*
X106072Y46384D01*
X106086Y46357D01*
X106105Y46320D01*
X106119Y46274D01*
X106137Y46228D01*
X106155Y46177D01*
X106169Y46122D01*
X106201Y45997D01*
X106220Y45859D01*
X106229Y45711D01*
Y45665D01*
X106225Y45633D01*
X106220Y45596D01*
X106215Y45550D01*
X106211Y45499D01*
X106201Y45444D01*
X106174Y45324D01*
X106132Y45195D01*
X106105Y45131D01*
X106072Y45066D01*
X106035Y45006D01*
X105994Y44946D01*
X105989Y44941D01*
X105985Y44932D01*
X105971Y44919D01*
X105953Y44895D01*
X105929Y44872D01*
X105897Y44840D01*
X105865Y44808D01*
X105828Y44776D01*
X105782Y44739D01*
X105736Y44706D01*
X105681Y44669D01*
X105621Y44633D01*
X105561Y44600D01*
X105491Y44568D01*
X105344Y44513D01*
X105252Y44909D01*
X105256D01*
X105266Y44914D01*
X105284Y44919D01*
X105307Y44928D01*
X105335Y44941D01*
X105367Y44955D01*
X105436Y44988D01*
X105515Y45029D01*
X105597Y45084D01*
X105671Y45144D01*
X105736Y45218D01*
X105740Y45227D01*
X105759Y45255D01*
X105782Y45296D01*
X105814Y45356D01*
X105842Y45426D01*
X105865Y45513D01*
X105883Y45610D01*
X105888Y45721D01*
Y45753D01*
X105883Y45776D01*
Y45808D01*
X105879Y45840D01*
X105865Y45923D01*
X105847Y46016D01*
X105814Y46112D01*
X105773Y46209D01*
X105717Y46301D01*
Y46306D01*
X105708Y46311D01*
X105685Y46338D01*
X105648Y46380D01*
X105597Y46431D01*
X105533Y46481D01*
X105459Y46537D01*
X105367Y46587D01*
X105266Y46629D01*
X105261D01*
X105252Y46633D01*
X105238Y46638D01*
X105215Y46643D01*
X105192Y46652D01*
X105160Y46656D01*
X105086Y46675D01*
X104998Y46693D01*
X104901Y46707D01*
X104795Y46716D01*
X104685Y46721D01*
X104680D01*
X104666D01*
X104648D01*
X104620D01*
X104588Y46716D01*
X104546D01*
X104505Y46712D01*
X104459Y46707D01*
X104353Y46693D01*
X104238Y46675D01*
X104122Y46647D01*
X104012Y46610D01*
X104007D01*
X103998Y46606D01*
X103984Y46597D01*
X103966Y46587D01*
X103910Y46564D01*
X103850Y46527D01*
X103777Y46477D01*
X103707Y46417D01*
X103638Y46348D01*
X103578Y46265D01*
Y46260D01*
X103574Y46255D01*
X103565Y46242D01*
X103555Y46223D01*
X103537Y46172D01*
X103509Y46108D01*
X103486Y46034D01*
X103463Y45946D01*
X103445Y45850D01*
X103440Y45748D01*
Y45716D01*
X103445Y45693D01*
Y45665D01*
X103449Y45628D01*
X103463Y45550D01*
X103486Y45462D01*
X103523Y45366D01*
X103569Y45273D01*
X103634Y45181D01*
X103638Y45177D01*
X103643Y45172D01*
X103671Y45144D01*
X103717Y45103D01*
X103777Y45052D01*
X103859Y45001D01*
X103956Y44946D01*
X104076Y44900D01*
X104210Y44863D01*
X104109Y44462D01*
X104104D01*
X104085Y44467D01*
X104062Y44476D01*
X104025Y44485D01*
X103989Y44504D01*
X103938Y44522D01*
X103887Y44540D01*
X103832Y44568D01*
X103707Y44628D01*
X103583Y44711D01*
X103463Y44803D01*
X103408Y44859D01*
X103357Y44919D01*
X103352Y44923D01*
X103348Y44932D01*
X103334Y44951D01*
X103316Y44978D01*
X103297Y45011D01*
X103274Y45048D01*
X103251Y45089D01*
X103228Y45140D01*
X103205Y45195D01*
X103182Y45255D01*
X103159Y45324D01*
X103140Y45393D01*
X103108Y45545D01*
X103103Y45628D01*
X103099Y45716D01*
Y45762D01*
X103103Y45799D01*
Y45840D01*
X103108Y45886D01*
X103117Y45942D01*
X103122Y45997D01*
X103150Y46126D01*
X103182Y46260D01*
X103233Y46389D01*
X103260Y46454D01*
X103297Y46514D01*
X103302Y46518D01*
X103306Y46527D01*
X103320Y46541D01*
X103334Y46564D01*
X103380Y46619D01*
X103445Y46684D01*
X103523Y46762D01*
X103624Y46836D01*
X103740Y46915D01*
X103873Y46979D01*
X103878D01*
X103892Y46984D01*
X103910Y46993D01*
X103938Y47002D01*
X103975Y47016D01*
X104016Y47030D01*
X104062Y47044D01*
X104118Y47058D01*
X104173Y47071D01*
X104238Y47085D01*
X104376Y47113D01*
X104523Y47131D01*
X104685Y47136D01*
X104689D01*
X104708D01*
X104731D01*
X104763Y47131D01*
D02*
G37*
G36*
X104694Y44089D02*
X104745D01*
X104809Y44079D01*
X104883Y44070D01*
X104961Y44061D01*
X105053Y44043D01*
X105146Y44019D01*
X105243Y43996D01*
X105339Y43964D01*
X105436Y43923D01*
X105533Y43877D01*
X105630Y43826D01*
X105717Y43761D01*
X105800Y43692D01*
X105805Y43688D01*
X105819Y43674D01*
X105842Y43651D01*
X105869Y43618D01*
X105902Y43577D01*
X105934Y43531D01*
X105975Y43475D01*
X106017Y43411D01*
X106054Y43337D01*
X106095Y43259D01*
X106128Y43171D01*
X106165Y43079D01*
X106188Y42982D01*
X106211Y42876D01*
X106225Y42761D01*
X106229Y42646D01*
Y42604D01*
X106225Y42577D01*
Y42540D01*
X106220Y42494D01*
X106211Y42448D01*
X106206Y42392D01*
X106178Y42277D01*
X106141Y42148D01*
X106095Y42019D01*
X106063Y41954D01*
X106026Y41890D01*
Y41885D01*
X106017Y41876D01*
X106008Y41857D01*
X105989Y41834D01*
X105971Y41807D01*
X105943Y41774D01*
X105883Y41701D01*
X105805Y41618D01*
X105708Y41530D01*
X105597Y41452D01*
X105468Y41378D01*
X105464D01*
X105450Y41369D01*
X105432Y41359D01*
X105404Y41350D01*
X105372Y41337D01*
X105330Y41323D01*
X105284Y41304D01*
X105233Y41286D01*
X105173Y41272D01*
X105113Y41254D01*
X104975Y41226D01*
X104823Y41207D01*
X104657Y41198D01*
X104653D01*
X104639D01*
X104611D01*
X104579Y41203D01*
X104537D01*
X104491Y41207D01*
X104440Y41212D01*
X104381Y41221D01*
X104251Y41244D01*
X104113Y41276D01*
X103970Y41323D01*
X103832Y41387D01*
X103827D01*
X103818Y41396D01*
X103800Y41406D01*
X103772Y41420D01*
X103744Y41442D01*
X103707Y41466D01*
X103629Y41521D01*
X103542Y41595D01*
X103449Y41687D01*
X103362Y41793D01*
X103283Y41913D01*
Y41917D01*
X103274Y41927D01*
X103265Y41945D01*
X103256Y41973D01*
X103242Y42005D01*
X103223Y42042D01*
X103209Y42083D01*
X103191Y42134D01*
X103159Y42240D01*
X103127Y42364D01*
X103108Y42503D01*
X103099Y42646D01*
Y42687D01*
X103103Y42720D01*
Y42756D01*
X103108Y42798D01*
X103117Y42849D01*
X103127Y42904D01*
X103150Y43019D01*
X103187Y43148D01*
X103237Y43282D01*
X103265Y43346D01*
X103302Y43411D01*
X103306Y43416D01*
X103311Y43425D01*
X103325Y43443D01*
X103339Y43466D01*
X103362Y43494D01*
X103385Y43526D01*
X103449Y43600D01*
X103532Y43683D01*
X103624Y43771D01*
X103740Y43849D01*
X103864Y43923D01*
X103869D01*
X103883Y43932D01*
X103901Y43936D01*
X103929Y43950D01*
X103961Y43964D01*
X103998Y43978D01*
X104044Y43992D01*
X104095Y44006D01*
X104150Y44024D01*
X104205Y44038D01*
X104334Y44066D01*
X104473Y44084D01*
X104620Y44093D01*
X104629D01*
X104653D01*
X104694Y44089D01*
D02*
G37*
G36*
X106178Y40281D02*
X103800Y38686D01*
X106178D01*
Y38303D01*
X103150D01*
Y38713D01*
X105528Y40304D01*
X103150D01*
Y40687D01*
X106178D01*
Y40281D01*
D02*
G37*
G36*
X104431Y36685D02*
X104058D01*
Y37824D01*
X104431D01*
Y36685D01*
D02*
G37*
G36*
X106178Y35638D02*
X104035Y34919D01*
X104030D01*
X104021Y34915D01*
X104007Y34910D01*
X103984Y34905D01*
X103933Y34887D01*
X103869Y34864D01*
X103795Y34841D01*
X103721Y34818D01*
X103647Y34795D01*
X103588Y34776D01*
X103597Y34772D01*
X103620Y34767D01*
X103657Y34753D01*
X103707Y34735D01*
X103777Y34716D01*
X103859Y34689D01*
X103956Y34652D01*
X104072Y34615D01*
X106178Y33891D01*
Y33347D01*
X103150D01*
Y33735D01*
X105685D01*
X103150Y34620D01*
Y34979D01*
X105727Y35851D01*
X103150D01*
Y36238D01*
X106178D01*
Y35638D01*
D02*
G37*
G36*
X104763Y32813D02*
X104805D01*
X104855Y32808D01*
X104906Y32803D01*
X104966Y32794D01*
X105095Y32771D01*
X105233Y32743D01*
X105376Y32697D01*
X105510Y32637D01*
X105515D01*
X105524Y32628D01*
X105542Y32619D01*
X105570Y32605D01*
X105597Y32587D01*
X105630Y32564D01*
X105708Y32504D01*
X105796Y32435D01*
X105883Y32347D01*
X105971Y32241D01*
X106045Y32126D01*
Y32121D01*
X106054Y32112D01*
X106063Y32093D01*
X106072Y32066D01*
X106086Y32038D01*
X106105Y32001D01*
X106119Y31955D01*
X106137Y31909D01*
X106155Y31858D01*
X106169Y31803D01*
X106201Y31679D01*
X106220Y31540D01*
X106229Y31393D01*
Y31347D01*
X106225Y31314D01*
X106220Y31277D01*
X106215Y31231D01*
X106211Y31181D01*
X106201Y31125D01*
X106174Y31005D01*
X106132Y30876D01*
X106105Y30812D01*
X106072Y30747D01*
X106035Y30687D01*
X105994Y30627D01*
X105989Y30623D01*
X105985Y30614D01*
X105971Y30600D01*
X105953Y30577D01*
X105929Y30554D01*
X105897Y30521D01*
X105865Y30489D01*
X105828Y30457D01*
X105782Y30420D01*
X105736Y30388D01*
X105681Y30351D01*
X105621Y30314D01*
X105561Y30282D01*
X105491Y30249D01*
X105344Y30194D01*
X105252Y30591D01*
X105256D01*
X105266Y30595D01*
X105284Y30600D01*
X105307Y30609D01*
X105335Y30623D01*
X105367Y30637D01*
X105436Y30669D01*
X105515Y30710D01*
X105597Y30766D01*
X105671Y30826D01*
X105736Y30899D01*
X105740Y30909D01*
X105759Y30936D01*
X105782Y30978D01*
X105814Y31038D01*
X105842Y31107D01*
X105865Y31194D01*
X105883Y31291D01*
X105888Y31402D01*
Y31434D01*
X105883Y31457D01*
Y31490D01*
X105879Y31522D01*
X105865Y31605D01*
X105847Y31697D01*
X105814Y31794D01*
X105773Y31891D01*
X105717Y31983D01*
Y31987D01*
X105708Y31992D01*
X105685Y32020D01*
X105648Y32061D01*
X105597Y32112D01*
X105533Y32163D01*
X105459Y32218D01*
X105367Y32269D01*
X105266Y32310D01*
X105261D01*
X105252Y32315D01*
X105238Y32319D01*
X105215Y32324D01*
X105192Y32333D01*
X105160Y32338D01*
X105086Y32356D01*
X104998Y32375D01*
X104901Y32388D01*
X104795Y32398D01*
X104685Y32402D01*
X104680D01*
X104666D01*
X104648D01*
X104620D01*
X104588Y32398D01*
X104546D01*
X104505Y32393D01*
X104459Y32388D01*
X104353Y32375D01*
X104238Y32356D01*
X104122Y32329D01*
X104012Y32292D01*
X104007D01*
X103998Y32287D01*
X103984Y32278D01*
X103966Y32269D01*
X103910Y32246D01*
X103850Y32209D01*
X103777Y32158D01*
X103707Y32098D01*
X103638Y32029D01*
X103578Y31946D01*
Y31941D01*
X103574Y31937D01*
X103565Y31923D01*
X103555Y31904D01*
X103537Y31854D01*
X103509Y31789D01*
X103486Y31715D01*
X103463Y31628D01*
X103445Y31531D01*
X103440Y31430D01*
Y31397D01*
X103445Y31374D01*
Y31347D01*
X103449Y31310D01*
X103463Y31231D01*
X103486Y31144D01*
X103523Y31047D01*
X103569Y30955D01*
X103634Y30863D01*
X103638Y30858D01*
X103643Y30853D01*
X103671Y30826D01*
X103717Y30784D01*
X103777Y30733D01*
X103859Y30683D01*
X103956Y30627D01*
X104076Y30581D01*
X104210Y30544D01*
X104109Y30143D01*
X104104D01*
X104085Y30148D01*
X104062Y30157D01*
X104025Y30166D01*
X103989Y30185D01*
X103938Y30203D01*
X103887Y30222D01*
X103832Y30249D01*
X103707Y30309D01*
X103583Y30392D01*
X103463Y30485D01*
X103408Y30540D01*
X103357Y30600D01*
X103352Y30604D01*
X103348Y30614D01*
X103334Y30632D01*
X103316Y30660D01*
X103297Y30692D01*
X103274Y30729D01*
X103251Y30770D01*
X103228Y30821D01*
X103205Y30876D01*
X103182Y30936D01*
X103159Y31005D01*
X103140Y31075D01*
X103108Y31227D01*
X103103Y31310D01*
X103099Y31397D01*
Y31443D01*
X103103Y31480D01*
Y31522D01*
X103108Y31568D01*
X103117Y31623D01*
X103122Y31679D01*
X103150Y31808D01*
X103182Y31941D01*
X103233Y32070D01*
X103260Y32135D01*
X103297Y32195D01*
X103302Y32199D01*
X103306Y32209D01*
X103320Y32223D01*
X103334Y32246D01*
X103380Y32301D01*
X103445Y32365D01*
X103523Y32444D01*
X103624Y32517D01*
X103740Y32596D01*
X103873Y32660D01*
X103878D01*
X103892Y32665D01*
X103910Y32674D01*
X103938Y32684D01*
X103975Y32697D01*
X104016Y32711D01*
X104062Y32725D01*
X104118Y32739D01*
X104173Y32753D01*
X104238Y32767D01*
X104376Y32794D01*
X104523Y32813D01*
X104685Y32817D01*
X104689D01*
X104708D01*
X104731D01*
X104763Y32813D01*
D02*
G37*
G36*
X103233Y29848D02*
X103270Y29844D01*
X103311Y29839D01*
X103357Y29825D01*
X103403Y29811D01*
X103408D01*
X103412Y29807D01*
X103440Y29798D01*
X103477Y29779D01*
X103532Y29752D01*
X103592Y29719D01*
X103661Y29673D01*
X103730Y29627D01*
X103804Y29567D01*
X103809D01*
X103813Y29558D01*
X103841Y29535D01*
X103883Y29498D01*
X103938Y29443D01*
X104002Y29373D01*
X104081Y29291D01*
X104168Y29189D01*
X104265Y29079D01*
X104270Y29074D01*
X104284Y29055D01*
X104302Y29032D01*
X104334Y29000D01*
X104367Y28959D01*
X104408Y28912D01*
X104496Y28811D01*
X104602Y28701D01*
X104708Y28590D01*
X104759Y28534D01*
X104809Y28488D01*
X104860Y28447D01*
X104906Y28410D01*
X104911D01*
X104915Y28401D01*
X104929Y28392D01*
X104947Y28382D01*
X104994Y28355D01*
X105053Y28322D01*
X105123Y28290D01*
X105196Y28262D01*
X105279Y28244D01*
X105358Y28235D01*
X105362D01*
X105367D01*
X105395Y28240D01*
X105436Y28244D01*
X105487Y28253D01*
X105547Y28276D01*
X105607Y28304D01*
X105671Y28341D01*
X105731Y28396D01*
X105736Y28405D01*
X105754Y28424D01*
X105777Y28461D01*
X105810Y28507D01*
X105837Y28567D01*
X105860Y28636D01*
X105879Y28719D01*
X105883Y28811D01*
Y28839D01*
X105879Y28857D01*
X105874Y28903D01*
X105865Y28963D01*
X105842Y29032D01*
X105814Y29106D01*
X105773Y29175D01*
X105717Y29240D01*
X105708Y29245D01*
X105690Y29263D01*
X105653Y29291D01*
X105602Y29318D01*
X105538Y29351D01*
X105464Y29373D01*
X105376Y29392D01*
X105275Y29401D01*
X105316Y29784D01*
X105321D01*
X105335D01*
X105358Y29779D01*
X105385Y29775D01*
X105422Y29765D01*
X105464Y29761D01*
X105556Y29733D01*
X105662Y29696D01*
X105768Y29645D01*
X105874Y29576D01*
X105920Y29539D01*
X105966Y29493D01*
X105971Y29489D01*
X105975Y29480D01*
X105989Y29466D01*
X106003Y29447D01*
X106017Y29420D01*
X106040Y29387D01*
X106059Y29351D01*
X106082Y29309D01*
X106100Y29263D01*
X106123Y29212D01*
X106141Y29152D01*
X106155Y29092D01*
X106183Y28954D01*
X106188Y28880D01*
X106192Y28802D01*
Y28760D01*
X106188Y28728D01*
X106183Y28691D01*
X106178Y28650D01*
X106174Y28604D01*
X106160Y28553D01*
X106132Y28442D01*
X106091Y28327D01*
X106063Y28267D01*
X106031Y28212D01*
X105989Y28161D01*
X105948Y28110D01*
X105943Y28106D01*
X105939Y28101D01*
X105925Y28087D01*
X105906Y28069D01*
X105879Y28051D01*
X105851Y28027D01*
X105782Y27981D01*
X105694Y27935D01*
X105593Y27894D01*
X105478Y27861D01*
X105413Y27857D01*
X105349Y27852D01*
X105339D01*
X105316D01*
X105279Y27857D01*
X105233Y27861D01*
X105178Y27871D01*
X105118Y27885D01*
X105053Y27903D01*
X104989Y27931D01*
X104980Y27935D01*
X104957Y27944D01*
X104924Y27963D01*
X104878Y27990D01*
X104823Y28023D01*
X104759Y28064D01*
X104694Y28120D01*
X104620Y28179D01*
X104611Y28189D01*
X104583Y28212D01*
X104542Y28253D01*
X104514Y28281D01*
X104482Y28313D01*
X104445Y28350D01*
X104403Y28396D01*
X104362Y28442D01*
X104311Y28493D01*
X104261Y28548D01*
X104205Y28613D01*
X104150Y28677D01*
X104085Y28751D01*
X104081Y28756D01*
X104072Y28765D01*
X104058Y28783D01*
X104039Y28806D01*
X103993Y28862D01*
X103933Y28931D01*
X103869Y29000D01*
X103804Y29074D01*
X103749Y29134D01*
X103726Y29157D01*
X103703Y29180D01*
X103698Y29184D01*
X103684Y29194D01*
X103666Y29212D01*
X103638Y29235D01*
X103578Y29286D01*
X103505Y29337D01*
Y27848D01*
X103150D01*
Y29853D01*
X103154D01*
X103173D01*
X103200D01*
X103233Y29848D01*
D02*
G37*
G36*
X3937Y27023D02*
X1568D01*
X1572Y27018D01*
X1591Y27000D01*
X1614Y26968D01*
X1646Y26926D01*
X1687Y26875D01*
X1729Y26816D01*
X1780Y26746D01*
X1826Y26668D01*
Y26664D01*
X1830Y26659D01*
X1849Y26631D01*
X1872Y26590D01*
X1899Y26539D01*
X1932Y26479D01*
X1959Y26414D01*
X1992Y26345D01*
X2019Y26281D01*
X1655D01*
Y26285D01*
X1650Y26295D01*
X1641Y26313D01*
X1627Y26331D01*
X1614Y26359D01*
X1600Y26392D01*
X1558Y26465D01*
X1508Y26548D01*
X1448Y26640D01*
X1378Y26733D01*
X1305Y26820D01*
X1300Y26825D01*
X1295Y26829D01*
X1268Y26857D01*
X1226Y26899D01*
X1176Y26949D01*
X1111Y27005D01*
X1042Y27060D01*
X968Y27111D01*
X894Y27152D01*
Y27397D01*
X3937D01*
Y27023D01*
D02*
G37*
G36*
X3001Y25649D02*
X3024Y25640D01*
X3061Y25631D01*
X3098Y25612D01*
X3149Y25594D01*
X3199Y25576D01*
X3255Y25548D01*
X3379Y25488D01*
X3504Y25405D01*
X3624Y25313D01*
X3679Y25257D01*
X3730Y25197D01*
X3734Y25193D01*
X3739Y25184D01*
X3753Y25165D01*
X3771Y25138D01*
X3790Y25105D01*
X3813Y25068D01*
X3836Y25027D01*
X3859Y24976D01*
X3882Y24921D01*
X3905Y24861D01*
X3928Y24792D01*
X3946Y24723D01*
X3979Y24570D01*
X3983Y24487D01*
X3988Y24400D01*
Y24354D01*
X3983Y24317D01*
Y24275D01*
X3979Y24229D01*
X3969Y24174D01*
X3965Y24119D01*
X3937Y23990D01*
X3905Y23856D01*
X3854Y23727D01*
X3826Y23662D01*
X3790Y23602D01*
X3785Y23598D01*
X3780Y23589D01*
X3766Y23575D01*
X3753Y23552D01*
X3706Y23496D01*
X3642Y23432D01*
X3564Y23354D01*
X3462Y23280D01*
X3347Y23201D01*
X3213Y23137D01*
X3209D01*
X3195Y23132D01*
X3176Y23123D01*
X3149Y23114D01*
X3112Y23100D01*
X3070Y23086D01*
X3024Y23072D01*
X2969Y23058D01*
X2914Y23045D01*
X2849Y23031D01*
X2711Y23003D01*
X2563Y22985D01*
X2402Y22980D01*
X2397D01*
X2379D01*
X2356D01*
X2324Y22985D01*
X2282D01*
X2231Y22989D01*
X2181Y22994D01*
X2121Y23003D01*
X1992Y23026D01*
X1853Y23054D01*
X1710Y23100D01*
X1577Y23160D01*
X1572D01*
X1563Y23169D01*
X1544Y23178D01*
X1517Y23192D01*
X1489Y23211D01*
X1457Y23234D01*
X1378Y23294D01*
X1291Y23363D01*
X1203Y23450D01*
X1116Y23556D01*
X1042Y23672D01*
Y23676D01*
X1033Y23685D01*
X1024Y23704D01*
X1014Y23731D01*
X1000Y23759D01*
X982Y23796D01*
X968Y23842D01*
X950Y23888D01*
X931Y23939D01*
X917Y23994D01*
X885Y24119D01*
X867Y24257D01*
X857Y24405D01*
Y24451D01*
X862Y24483D01*
X867Y24520D01*
X871Y24566D01*
X876Y24617D01*
X885Y24672D01*
X913Y24792D01*
X954Y24921D01*
X982Y24985D01*
X1014Y25050D01*
X1051Y25110D01*
X1093Y25170D01*
X1097Y25174D01*
X1102Y25184D01*
X1116Y25197D01*
X1134Y25221D01*
X1157Y25244D01*
X1190Y25276D01*
X1222Y25308D01*
X1259Y25340D01*
X1305Y25377D01*
X1351Y25409D01*
X1406Y25446D01*
X1466Y25483D01*
X1526Y25516D01*
X1595Y25548D01*
X1743Y25603D01*
X1835Y25207D01*
X1830D01*
X1821Y25202D01*
X1803Y25197D01*
X1780Y25188D01*
X1752Y25174D01*
X1720Y25161D01*
X1650Y25128D01*
X1572Y25087D01*
X1489Y25032D01*
X1415Y24972D01*
X1351Y24898D01*
X1346Y24889D01*
X1328Y24861D01*
X1305Y24820D01*
X1272Y24759D01*
X1245Y24690D01*
X1222Y24603D01*
X1203Y24506D01*
X1199Y24395D01*
Y24363D01*
X1203Y24340D01*
Y24308D01*
X1208Y24275D01*
X1222Y24193D01*
X1240Y24100D01*
X1272Y24003D01*
X1314Y23907D01*
X1369Y23814D01*
Y23810D01*
X1378Y23805D01*
X1402Y23778D01*
X1438Y23736D01*
X1489Y23685D01*
X1554Y23635D01*
X1627Y23579D01*
X1720Y23529D01*
X1821Y23487D01*
X1826D01*
X1835Y23483D01*
X1849Y23478D01*
X1872Y23473D01*
X1895Y23464D01*
X1927Y23460D01*
X2001Y23441D01*
X2088Y23423D01*
X2185Y23409D01*
X2291Y23400D01*
X2402Y23395D01*
X2406D01*
X2420D01*
X2439D01*
X2466D01*
X2499Y23400D01*
X2540D01*
X2582Y23404D01*
X2628Y23409D01*
X2734Y23423D01*
X2849Y23441D01*
X2964Y23469D01*
X3075Y23506D01*
X3080D01*
X3089Y23510D01*
X3103Y23519D01*
X3121Y23529D01*
X3176Y23552D01*
X3236Y23589D01*
X3310Y23639D01*
X3379Y23699D01*
X3448Y23768D01*
X3508Y23851D01*
Y23856D01*
X3513Y23861D01*
X3522Y23874D01*
X3531Y23893D01*
X3550Y23944D01*
X3577Y24008D01*
X3601Y24082D01*
X3624Y24170D01*
X3642Y24266D01*
X3647Y24368D01*
Y24400D01*
X3642Y24423D01*
Y24451D01*
X3637Y24487D01*
X3624Y24566D01*
X3601Y24654D01*
X3564Y24750D01*
X3517Y24843D01*
X3453Y24935D01*
X3448Y24939D01*
X3444Y24944D01*
X3416Y24972D01*
X3370Y25013D01*
X3310Y25064D01*
X3227Y25115D01*
X3130Y25170D01*
X3010Y25216D01*
X2877Y25253D01*
X2978Y25654D01*
X2983D01*
X3001Y25649D01*
D02*
G37*
G36*
X3937Y22063D02*
X1402D01*
X3937Y21178D01*
Y20818D01*
X1360Y19947D01*
X3937D01*
Y19559D01*
X908D01*
Y20159D01*
X3052Y20878D01*
X3056D01*
X3066Y20883D01*
X3080Y20887D01*
X3103Y20892D01*
X3153Y20910D01*
X3218Y20933D01*
X3292Y20956D01*
X3365Y20979D01*
X3439Y21002D01*
X3499Y21021D01*
X3490Y21025D01*
X3467Y21030D01*
X3430Y21044D01*
X3379Y21062D01*
X3310Y21081D01*
X3227Y21108D01*
X3130Y21145D01*
X3015Y21182D01*
X908Y21906D01*
Y22450D01*
X3937D01*
Y22063D01*
D02*
G37*
G36*
X3029Y17974D02*
X2655D01*
Y19112D01*
X3029D01*
Y17974D01*
D02*
G37*
G36*
X3937Y17084D02*
X1558Y15493D01*
X3937D01*
Y15111D01*
X908D01*
Y15517D01*
X3287Y17111D01*
X908D01*
Y17494D01*
X3937D01*
Y17084D01*
D02*
G37*
G36*
X2508Y14594D02*
X2549D01*
X2596Y14590D01*
X2646Y14585D01*
X2706Y14576D01*
X2835Y14553D01*
X2974Y14521D01*
X3116Y14475D01*
X3255Y14410D01*
X3259D01*
X3269Y14401D01*
X3287Y14392D01*
X3315Y14378D01*
X3342Y14355D01*
X3379Y14332D01*
X3458Y14276D01*
X3545Y14203D01*
X3637Y14110D01*
X3725Y14004D01*
X3803Y13884D01*
Y13880D01*
X3813Y13871D01*
X3822Y13852D01*
X3831Y13825D01*
X3845Y13792D01*
X3863Y13756D01*
X3877Y13714D01*
X3895Y13663D01*
X3928Y13557D01*
X3960Y13433D01*
X3979Y13295D01*
X3988Y13152D01*
Y13110D01*
X3983Y13078D01*
Y13041D01*
X3979Y12999D01*
X3969Y12949D01*
X3960Y12893D01*
X3937Y12778D01*
X3900Y12649D01*
X3849Y12515D01*
X3822Y12451D01*
X3785Y12386D01*
X3780Y12382D01*
X3776Y12372D01*
X3762Y12354D01*
X3748Y12331D01*
X3725Y12303D01*
X3702Y12271D01*
X3637Y12197D01*
X3554Y12114D01*
X3462Y12027D01*
X3347Y11948D01*
X3223Y11875D01*
X3218D01*
X3204Y11865D01*
X3186Y11861D01*
X3158Y11847D01*
X3126Y11833D01*
X3089Y11819D01*
X3043Y11805D01*
X2992Y11792D01*
X2937Y11773D01*
X2881Y11759D01*
X2752Y11732D01*
X2614Y11713D01*
X2466Y11704D01*
X2457D01*
X2434D01*
X2393Y11709D01*
X2342D01*
X2277Y11718D01*
X2204Y11727D01*
X2125Y11736D01*
X2033Y11755D01*
X1941Y11778D01*
X1844Y11801D01*
X1747Y11833D01*
X1650Y11875D01*
X1554Y11921D01*
X1457Y11971D01*
X1369Y12036D01*
X1286Y12105D01*
X1282Y12110D01*
X1268Y12123D01*
X1245Y12147D01*
X1217Y12179D01*
X1185Y12220D01*
X1153Y12266D01*
X1111Y12322D01*
X1070Y12386D01*
X1033Y12460D01*
X991Y12538D01*
X959Y12626D01*
X922Y12718D01*
X899Y12815D01*
X876Y12921D01*
X862Y13036D01*
X857Y13152D01*
Y13193D01*
X862Y13221D01*
Y13258D01*
X867Y13304D01*
X876Y13350D01*
X881Y13405D01*
X908Y13520D01*
X945Y13649D01*
X991Y13779D01*
X1024Y13843D01*
X1060Y13908D01*
Y13912D01*
X1070Y13921D01*
X1079Y13940D01*
X1097Y13963D01*
X1116Y13991D01*
X1143Y14023D01*
X1203Y14097D01*
X1282Y14180D01*
X1378Y14267D01*
X1489Y14346D01*
X1618Y14419D01*
X1623D01*
X1637Y14428D01*
X1655Y14438D01*
X1683Y14447D01*
X1715Y14461D01*
X1757Y14475D01*
X1803Y14493D01*
X1853Y14512D01*
X1913Y14525D01*
X1973Y14544D01*
X2111Y14571D01*
X2264Y14590D01*
X2430Y14599D01*
X2434D01*
X2448D01*
X2476D01*
X2508Y14594D01*
D02*
G37*
G36*
X3001Y11331D02*
X3024Y11321D01*
X3061Y11312D01*
X3098Y11294D01*
X3149Y11275D01*
X3199Y11257D01*
X3255Y11229D01*
X3379Y11169D01*
X3504Y11086D01*
X3624Y10994D01*
X3679Y10939D01*
X3730Y10879D01*
X3734Y10874D01*
X3739Y10865D01*
X3753Y10847D01*
X3771Y10819D01*
X3790Y10787D01*
X3813Y10750D01*
X3836Y10708D01*
X3859Y10658D01*
X3882Y10602D01*
X3905Y10542D01*
X3928Y10473D01*
X3946Y10404D01*
X3979Y10252D01*
X3983Y10169D01*
X3988Y10081D01*
Y10035D01*
X3983Y9998D01*
Y9957D01*
X3979Y9911D01*
X3969Y9855D01*
X3965Y9800D01*
X3937Y9671D01*
X3905Y9537D01*
X3854Y9408D01*
X3826Y9344D01*
X3790Y9284D01*
X3785Y9279D01*
X3780Y9270D01*
X3766Y9256D01*
X3753Y9233D01*
X3706Y9178D01*
X3642Y9113D01*
X3564Y9035D01*
X3462Y8961D01*
X3347Y8883D01*
X3213Y8818D01*
X3209D01*
X3195Y8813D01*
X3176Y8804D01*
X3149Y8795D01*
X3112Y8781D01*
X3070Y8767D01*
X3024Y8754D01*
X2969Y8740D01*
X2914Y8726D01*
X2849Y8712D01*
X2711Y8685D01*
X2563Y8666D01*
X2402Y8661D01*
X2397D01*
X2379D01*
X2356D01*
X2324Y8666D01*
X2282D01*
X2231Y8671D01*
X2181Y8675D01*
X2121Y8685D01*
X1992Y8708D01*
X1853Y8735D01*
X1710Y8781D01*
X1577Y8841D01*
X1572D01*
X1563Y8850D01*
X1544Y8860D01*
X1517Y8873D01*
X1489Y8892D01*
X1457Y8915D01*
X1378Y8975D01*
X1291Y9044D01*
X1203Y9132D01*
X1116Y9238D01*
X1042Y9353D01*
Y9358D01*
X1033Y9367D01*
X1024Y9385D01*
X1014Y9413D01*
X1000Y9441D01*
X982Y9477D01*
X968Y9523D01*
X950Y9570D01*
X931Y9620D01*
X917Y9676D01*
X885Y9800D01*
X867Y9938D01*
X857Y10086D01*
Y10132D01*
X862Y10164D01*
X867Y10201D01*
X871Y10247D01*
X876Y10298D01*
X885Y10353D01*
X913Y10473D01*
X954Y10602D01*
X982Y10667D01*
X1014Y10731D01*
X1051Y10791D01*
X1093Y10851D01*
X1097Y10856D01*
X1102Y10865D01*
X1116Y10879D01*
X1134Y10902D01*
X1157Y10925D01*
X1190Y10957D01*
X1222Y10989D01*
X1259Y11022D01*
X1305Y11059D01*
X1351Y11091D01*
X1406Y11128D01*
X1466Y11165D01*
X1526Y11197D01*
X1595Y11229D01*
X1743Y11285D01*
X1835Y10888D01*
X1830D01*
X1821Y10883D01*
X1803Y10879D01*
X1780Y10870D01*
X1752Y10856D01*
X1720Y10842D01*
X1650Y10810D01*
X1572Y10768D01*
X1489Y10713D01*
X1415Y10653D01*
X1351Y10579D01*
X1346Y10570D01*
X1328Y10542D01*
X1305Y10501D01*
X1272Y10441D01*
X1245Y10372D01*
X1222Y10284D01*
X1203Y10187D01*
X1199Y10077D01*
Y10044D01*
X1203Y10021D01*
Y9989D01*
X1208Y9957D01*
X1222Y9874D01*
X1240Y9782D01*
X1272Y9685D01*
X1314Y9588D01*
X1369Y9496D01*
Y9491D01*
X1378Y9487D01*
X1402Y9459D01*
X1438Y9418D01*
X1489Y9367D01*
X1554Y9316D01*
X1627Y9261D01*
X1720Y9210D01*
X1821Y9168D01*
X1826D01*
X1835Y9164D01*
X1849Y9159D01*
X1872Y9155D01*
X1895Y9145D01*
X1927Y9141D01*
X2001Y9122D01*
X2088Y9104D01*
X2185Y9090D01*
X2291Y9081D01*
X2402Y9076D01*
X2406D01*
X2420D01*
X2439D01*
X2466D01*
X2499Y9081D01*
X2540D01*
X2582Y9086D01*
X2628Y9090D01*
X2734Y9104D01*
X2849Y9122D01*
X2964Y9150D01*
X3075Y9187D01*
X3080D01*
X3089Y9192D01*
X3103Y9201D01*
X3121Y9210D01*
X3176Y9233D01*
X3236Y9270D01*
X3310Y9321D01*
X3379Y9381D01*
X3448Y9450D01*
X3508Y9533D01*
Y9537D01*
X3513Y9542D01*
X3522Y9556D01*
X3531Y9574D01*
X3550Y9625D01*
X3577Y9689D01*
X3601Y9763D01*
X3624Y9851D01*
X3642Y9948D01*
X3647Y10049D01*
Y10081D01*
X3642Y10104D01*
Y10132D01*
X3637Y10169D01*
X3624Y10247D01*
X3601Y10335D01*
X3564Y10432D01*
X3517Y10524D01*
X3453Y10616D01*
X3448Y10621D01*
X3444Y10625D01*
X3416Y10653D01*
X3370Y10694D01*
X3310Y10745D01*
X3227Y10796D01*
X3130Y10851D01*
X3010Y10897D01*
X2877Y10934D01*
X2978Y11335D01*
X2983D01*
X3001Y11331D01*
D02*
G37*
G36*
X76722Y4228D02*
X76760Y4225D01*
X76806Y4217D01*
X76860Y4205D01*
X76910Y4190D01*
X76964Y4171D01*
X76972Y4167D01*
X76987Y4159D01*
X77010Y4148D01*
X77041Y4129D01*
X77075Y4106D01*
X77110Y4079D01*
X77144Y4048D01*
X77171Y4013D01*
X77175Y4010D01*
X77183Y3998D01*
X77194Y3975D01*
X77210Y3948D01*
X77225Y3917D01*
X77240Y3879D01*
X77256Y3833D01*
X77267Y3787D01*
Y3783D01*
X77271Y3771D01*
X77275Y3748D01*
X77279Y3718D01*
Y3675D01*
X77283Y3622D01*
X77286Y3560D01*
Y3483D01*
Y2362D01*
X76975D01*
Y3472D01*
Y3476D01*
Y3480D01*
Y3503D01*
Y3537D01*
X76972Y3579D01*
X76968Y3622D01*
X76960Y3672D01*
X76948Y3714D01*
X76937Y3752D01*
Y3756D01*
X76929Y3768D01*
X76922Y3787D01*
X76910Y3806D01*
X76891Y3833D01*
X76868Y3856D01*
X76841Y3883D01*
X76810Y3906D01*
X76806Y3910D01*
X76795Y3914D01*
X76776Y3925D01*
X76749Y3937D01*
X76718Y3944D01*
X76680Y3956D01*
X76641Y3960D01*
X76595Y3963D01*
X76561D01*
X76526Y3956D01*
X76476Y3948D01*
X76422Y3933D01*
X76369Y3910D01*
X76307Y3879D01*
X76253Y3837D01*
X76246Y3829D01*
X76230Y3810D01*
X76207Y3779D01*
X76196Y3756D01*
X76184Y3729D01*
X76169Y3698D01*
X76157Y3664D01*
X76146Y3626D01*
X76134Y3583D01*
X76123Y3533D01*
X76119Y3480D01*
X76111Y3422D01*
Y3361D01*
Y2362D01*
X75800D01*
Y4190D01*
X76081D01*
Y3929D01*
X76085Y3933D01*
X76088Y3940D01*
X76100Y3956D01*
X76119Y3975D01*
X76138Y3998D01*
X76165Y4025D01*
X76192Y4052D01*
X76227Y4082D01*
X76269Y4109D01*
X76311Y4136D01*
X76357Y4163D01*
X76411Y4186D01*
X76465Y4205D01*
X76526Y4221D01*
X76591Y4228D01*
X76661Y4232D01*
X76687D01*
X76722Y4228D01*
D02*
G37*
G36*
X79518Y4589D02*
X78150D01*
Y3802D01*
X79333D01*
Y3506D01*
X78150D01*
Y2362D01*
X77816D01*
Y4885D01*
X79518D01*
Y4589D01*
D02*
G37*
G36*
X71008Y2362D02*
X70697D01*
Y4336D01*
X70693Y4332D01*
X70678Y4317D01*
X70651Y4298D01*
X70616Y4271D01*
X70574Y4236D01*
X70524Y4202D01*
X70467Y4159D01*
X70401Y4121D01*
X70398D01*
X70394Y4117D01*
X70371Y4102D01*
X70336Y4082D01*
X70294Y4059D01*
X70244Y4033D01*
X70190Y4010D01*
X70132Y3983D01*
X70079Y3960D01*
Y4263D01*
X70083D01*
X70090Y4267D01*
X70106Y4275D01*
X70121Y4286D01*
X70144Y4298D01*
X70171Y4309D01*
X70232Y4344D01*
X70302Y4386D01*
X70378Y4436D01*
X70455Y4493D01*
X70528Y4555D01*
X70532Y4559D01*
X70536Y4563D01*
X70559Y4586D01*
X70593Y4620D01*
X70635Y4662D01*
X70682Y4716D01*
X70728Y4774D01*
X70770Y4835D01*
X70805Y4897D01*
X71008D01*
Y2362D01*
D02*
G37*
G36*
X74652Y4893D02*
X74698Y4885D01*
X74752Y4877D01*
X74813Y4862D01*
X74875Y4839D01*
X74932Y4812D01*
X74940Y4808D01*
X74959Y4797D01*
X74986Y4778D01*
X75025Y4755D01*
X75063Y4720D01*
X75105Y4678D01*
X75147Y4632D01*
X75186Y4578D01*
X75190Y4570D01*
X75201Y4551D01*
X75221Y4516D01*
X75244Y4474D01*
X75267Y4420D01*
X75293Y4355D01*
X75320Y4282D01*
X75343Y4202D01*
Y4198D01*
X75347Y4190D01*
Y4179D01*
X75351Y4159D01*
X75359Y4140D01*
X75363Y4113D01*
X75366Y4079D01*
X75374Y4044D01*
X75378Y4002D01*
X75382Y3960D01*
X75389Y3910D01*
X75393Y3856D01*
X75397Y3798D01*
Y3741D01*
X75401Y3606D01*
Y3602D01*
Y3587D01*
Y3564D01*
Y3533D01*
X75397Y3495D01*
Y3453D01*
X75393Y3403D01*
X75389Y3349D01*
X75378Y3234D01*
X75363Y3115D01*
X75340Y2996D01*
X75324Y2942D01*
X75309Y2888D01*
Y2884D01*
X75305Y2877D01*
X75301Y2861D01*
X75293Y2842D01*
X75282Y2819D01*
X75270Y2796D01*
X75240Y2735D01*
X75201Y2666D01*
X75155Y2596D01*
X75102Y2527D01*
X75036Y2466D01*
X75032D01*
X75029Y2458D01*
X75017Y2454D01*
X75006Y2443D01*
X74963Y2420D01*
X74913Y2393D01*
X74844Y2366D01*
X74767Y2343D01*
X74679Y2328D01*
X74579Y2320D01*
X74545D01*
X74518Y2324D01*
X74487Y2328D01*
X74453Y2335D01*
X74414Y2343D01*
X74372Y2351D01*
X74280Y2381D01*
X74230Y2404D01*
X74184Y2427D01*
X74134Y2458D01*
X74088Y2493D01*
X74045Y2531D01*
X74003Y2577D01*
X73999Y2581D01*
X73992Y2593D01*
X73980Y2612D01*
X73965Y2639D01*
X73946Y2673D01*
X73926Y2716D01*
X73903Y2765D01*
X73880Y2827D01*
X73857Y2892D01*
X73834Y2969D01*
X73815Y3053D01*
X73796Y3146D01*
X73781Y3249D01*
X73769Y3357D01*
X73761Y3480D01*
X73757Y3606D01*
Y3610D01*
Y3626D01*
Y3649D01*
Y3679D01*
X73761Y3718D01*
Y3760D01*
X73765Y3810D01*
X73769Y3864D01*
X73781Y3979D01*
X73796Y4098D01*
X73815Y4217D01*
X73830Y4271D01*
X73846Y4324D01*
Y4328D01*
X73850Y4336D01*
X73857Y4351D01*
X73865Y4371D01*
X73873Y4394D01*
X73884Y4420D01*
X73915Y4482D01*
X73953Y4551D01*
X73999Y4620D01*
X74053Y4685D01*
X74118Y4747D01*
X74122D01*
X74126Y4755D01*
X74138Y4762D01*
X74153Y4770D01*
X74191Y4793D01*
X74245Y4824D01*
X74310Y4851D01*
X74391Y4874D01*
X74479Y4889D01*
X74579Y4897D01*
X74614D01*
X74652Y4893D01*
D02*
G37*
G36*
X72694D02*
X72740Y4885D01*
X72794Y4877D01*
X72855Y4862D01*
X72917Y4839D01*
X72974Y4812D01*
X72982Y4808D01*
X73001Y4797D01*
X73028Y4778D01*
X73066Y4755D01*
X73105Y4720D01*
X73147Y4678D01*
X73189Y4632D01*
X73228Y4578D01*
X73231Y4570D01*
X73243Y4551D01*
X73262Y4516D01*
X73285Y4474D01*
X73308Y4420D01*
X73335Y4355D01*
X73362Y4282D01*
X73385Y4202D01*
Y4198D01*
X73389Y4190D01*
Y4179D01*
X73393Y4159D01*
X73400Y4140D01*
X73404Y4113D01*
X73408Y4079D01*
X73416Y4044D01*
X73419Y4002D01*
X73423Y3960D01*
X73431Y3910D01*
X73435Y3856D01*
X73439Y3798D01*
Y3741D01*
X73443Y3606D01*
Y3602D01*
Y3587D01*
Y3564D01*
Y3533D01*
X73439Y3495D01*
Y3453D01*
X73435Y3403D01*
X73431Y3349D01*
X73419Y3234D01*
X73404Y3115D01*
X73381Y2996D01*
X73366Y2942D01*
X73350Y2888D01*
Y2884D01*
X73347Y2877D01*
X73343Y2861D01*
X73335Y2842D01*
X73324Y2819D01*
X73312Y2796D01*
X73281Y2735D01*
X73243Y2666D01*
X73197Y2596D01*
X73143Y2527D01*
X73078Y2466D01*
X73074D01*
X73070Y2458D01*
X73059Y2454D01*
X73047Y2443D01*
X73005Y2420D01*
X72955Y2393D01*
X72886Y2366D01*
X72809Y2343D01*
X72721Y2328D01*
X72621Y2320D01*
X72586D01*
X72559Y2324D01*
X72529Y2328D01*
X72494Y2335D01*
X72456Y2343D01*
X72413Y2351D01*
X72321Y2381D01*
X72271Y2404D01*
X72225Y2427D01*
X72175Y2458D01*
X72129Y2493D01*
X72087Y2531D01*
X72045Y2577D01*
X72041Y2581D01*
X72033Y2593D01*
X72022Y2612D01*
X72006Y2639D01*
X71987Y2673D01*
X71968Y2716D01*
X71945Y2765D01*
X71922Y2827D01*
X71899Y2892D01*
X71876Y2969D01*
X71857Y3053D01*
X71838Y3146D01*
X71822Y3249D01*
X71811Y3357D01*
X71803Y3480D01*
X71799Y3606D01*
Y3610D01*
Y3626D01*
Y3649D01*
Y3679D01*
X71803Y3718D01*
Y3760D01*
X71807Y3810D01*
X71811Y3864D01*
X71822Y3979D01*
X71838Y4098D01*
X71857Y4217D01*
X71872Y4271D01*
X71887Y4324D01*
Y4328D01*
X71891Y4336D01*
X71899Y4351D01*
X71907Y4371D01*
X71914Y4394D01*
X71926Y4420D01*
X71956Y4482D01*
X71995Y4551D01*
X72041Y4620D01*
X72095Y4685D01*
X72160Y4747D01*
X72164D01*
X72168Y4755D01*
X72179Y4762D01*
X72195Y4770D01*
X72233Y4793D01*
X72287Y4824D01*
X72352Y4851D01*
X72433Y4874D01*
X72521Y4889D01*
X72621Y4897D01*
X72655D01*
X72694Y4893D01*
D02*
G37*
G36*
X42321Y53047D02*
X42359Y53044D01*
X42405Y53036D01*
X42459Y53024D01*
X42509Y53009D01*
X42562Y52990D01*
X42570Y52986D01*
X42586Y52978D01*
X42609Y52967D01*
X42639Y52947D01*
X42674Y52925D01*
X42708Y52898D01*
X42743Y52867D01*
X42770Y52832D01*
X42774Y52829D01*
X42781Y52817D01*
X42793Y52794D01*
X42808Y52767D01*
X42824Y52736D01*
X42839Y52698D01*
X42854Y52652D01*
X42866Y52606D01*
Y52602D01*
X42870Y52590D01*
X42874Y52567D01*
X42877Y52537D01*
Y52494D01*
X42881Y52441D01*
X42885Y52379D01*
Y52302D01*
Y51181D01*
X42574D01*
Y52291D01*
Y52295D01*
Y52298D01*
Y52322D01*
Y52356D01*
X42570Y52398D01*
X42566Y52441D01*
X42559Y52491D01*
X42547Y52533D01*
X42536Y52571D01*
Y52575D01*
X42528Y52587D01*
X42520Y52606D01*
X42509Y52625D01*
X42490Y52652D01*
X42467Y52675D01*
X42440Y52702D01*
X42409Y52725D01*
X42405Y52729D01*
X42394Y52732D01*
X42374Y52744D01*
X42347Y52755D01*
X42317Y52763D01*
X42278Y52775D01*
X42240Y52779D01*
X42194Y52782D01*
X42159D01*
X42125Y52775D01*
X42075Y52767D01*
X42021Y52752D01*
X41967Y52729D01*
X41906Y52698D01*
X41852Y52656D01*
X41844Y52648D01*
X41829Y52629D01*
X41806Y52598D01*
X41794Y52575D01*
X41783Y52548D01*
X41768Y52517D01*
X41756Y52483D01*
X41745Y52444D01*
X41733Y52402D01*
X41722Y52352D01*
X41718Y52298D01*
X41710Y52241D01*
Y52179D01*
Y51181D01*
X41399D01*
Y53009D01*
X41679D01*
Y52748D01*
X41683Y52752D01*
X41687Y52759D01*
X41699Y52775D01*
X41718Y52794D01*
X41737Y52817D01*
X41764Y52844D01*
X41791Y52871D01*
X41825Y52901D01*
X41868Y52928D01*
X41910Y52955D01*
X41956Y52982D01*
X42010Y53005D01*
X42063Y53024D01*
X42125Y53040D01*
X42190Y53047D01*
X42259Y53051D01*
X42286D01*
X42321Y53047D01*
D02*
G37*
G36*
X40220Y53712D02*
X40270Y53704D01*
X40328Y53693D01*
X40393Y53677D01*
X40458Y53654D01*
X40523Y53623D01*
X40527D01*
X40531Y53619D01*
X40554Y53608D01*
X40585Y53589D01*
X40623Y53562D01*
X40666Y53527D01*
X40712Y53485D01*
X40754Y53435D01*
X40792Y53381D01*
X40796Y53374D01*
X40808Y53355D01*
X40823Y53324D01*
X40838Y53285D01*
X40854Y53236D01*
X40869Y53182D01*
X40881Y53124D01*
X40884Y53059D01*
Y53051D01*
Y53032D01*
X40881Y53001D01*
X40873Y52963D01*
X40861Y52917D01*
X40846Y52867D01*
X40827Y52813D01*
X40796Y52763D01*
X40792Y52755D01*
X40781Y52740D01*
X40758Y52717D01*
X40731Y52686D01*
X40692Y52652D01*
X40650Y52617D01*
X40596Y52579D01*
X40535Y52548D01*
X40539D01*
X40547Y52544D01*
X40558D01*
X40573Y52537D01*
X40612Y52525D01*
X40662Y52502D01*
X40716Y52475D01*
X40773Y52437D01*
X40831Y52391D01*
X40881Y52333D01*
X40884Y52325D01*
X40900Y52302D01*
X40919Y52268D01*
X40946Y52222D01*
X40969Y52164D01*
X40988Y52095D01*
X41004Y52014D01*
X41007Y51926D01*
Y51922D01*
Y51911D01*
Y51895D01*
X41004Y51872D01*
X41000Y51842D01*
X40996Y51811D01*
X40988Y51772D01*
X40977Y51734D01*
X40950Y51646D01*
X40931Y51596D01*
X40904Y51550D01*
X40877Y51504D01*
X40846Y51458D01*
X40808Y51411D01*
X40765Y51365D01*
X40762Y51362D01*
X40754Y51354D01*
X40742Y51346D01*
X40723Y51331D01*
X40700Y51312D01*
X40669Y51293D01*
X40635Y51273D01*
X40600Y51254D01*
X40558Y51231D01*
X40512Y51212D01*
X40462Y51193D01*
X40408Y51173D01*
X40351Y51158D01*
X40289Y51150D01*
X40224Y51143D01*
X40159Y51139D01*
X40128D01*
X40105Y51143D01*
X40074Y51147D01*
X40044Y51150D01*
X40005Y51154D01*
X39967Y51162D01*
X39878Y51185D01*
X39786Y51223D01*
X39740Y51243D01*
X39698Y51269D01*
X39652Y51300D01*
X39610Y51335D01*
X39606Y51338D01*
X39602Y51342D01*
X39590Y51354D01*
X39575Y51369D01*
X39560Y51392D01*
X39540Y51415D01*
X39517Y51442D01*
X39498Y51473D01*
X39452Y51550D01*
X39414Y51638D01*
X39379Y51738D01*
X39368Y51792D01*
X39360Y51849D01*
X39671Y51891D01*
Y51888D01*
X39675Y51880D01*
Y51865D01*
X39682Y51849D01*
X39694Y51803D01*
X39713Y51746D01*
X39736Y51684D01*
X39767Y51619D01*
X39805Y51561D01*
X39848Y51511D01*
X39855Y51508D01*
X39871Y51492D01*
X39898Y51477D01*
X39936Y51454D01*
X39978Y51434D01*
X40032Y51415D01*
X40093Y51400D01*
X40159Y51396D01*
X40182D01*
X40197Y51400D01*
X40235Y51404D01*
X40285Y51415D01*
X40347Y51434D01*
X40408Y51458D01*
X40470Y51496D01*
X40527Y51546D01*
X40535Y51554D01*
X40550Y51573D01*
X40573Y51604D01*
X40604Y51650D01*
X40631Y51703D01*
X40654Y51769D01*
X40669Y51842D01*
X40677Y51922D01*
Y51926D01*
Y51930D01*
Y51941D01*
X40673Y51957D01*
X40669Y51995D01*
X40658Y52045D01*
X40642Y52099D01*
X40616Y52160D01*
X40581Y52218D01*
X40535Y52272D01*
X40527Y52279D01*
X40512Y52295D01*
X40481Y52314D01*
X40439Y52341D01*
X40389Y52368D01*
X40328Y52387D01*
X40262Y52402D01*
X40186Y52410D01*
X40151D01*
X40124Y52406D01*
X40093Y52402D01*
X40055Y52398D01*
X40013Y52391D01*
X39967Y52379D01*
X40001Y52652D01*
X40020D01*
X40036Y52648D01*
X40086D01*
X40120Y52652D01*
X40170Y52659D01*
X40224Y52671D01*
X40282Y52690D01*
X40343Y52713D01*
X40404Y52748D01*
X40412Y52752D01*
X40431Y52767D01*
X40454Y52794D01*
X40485Y52829D01*
X40516Y52871D01*
X40539Y52925D01*
X40558Y52990D01*
X40566Y53066D01*
Y53070D01*
Y53074D01*
Y53093D01*
X40558Y53124D01*
X40550Y53166D01*
X40539Y53209D01*
X40516Y53255D01*
X40489Y53305D01*
X40451Y53347D01*
X40447Y53351D01*
X40431Y53366D01*
X40404Y53385D01*
X40370Y53404D01*
X40328Y53427D01*
X40278Y53443D01*
X40220Y53458D01*
X40155Y53462D01*
X40124D01*
X40090Y53454D01*
X40051Y53447D01*
X40001Y53435D01*
X39951Y53412D01*
X39901Y53385D01*
X39851Y53347D01*
X39848Y53343D01*
X39832Y53328D01*
X39813Y53301D01*
X39790Y53262D01*
X39763Y53216D01*
X39740Y53159D01*
X39717Y53090D01*
X39702Y53009D01*
X39391Y53063D01*
Y53066D01*
X39395Y53078D01*
X39398Y53093D01*
X39402Y53113D01*
X39410Y53140D01*
X39418Y53170D01*
X39445Y53239D01*
X39475Y53316D01*
X39521Y53397D01*
X39575Y53474D01*
X39644Y53543D01*
X39648Y53547D01*
X39652Y53550D01*
X39663Y53558D01*
X39682Y53570D01*
X39702Y53581D01*
X39725Y53597D01*
X39782Y53631D01*
X39855Y53662D01*
X39944Y53689D01*
X40040Y53708D01*
X40093Y53715D01*
X40182D01*
X40220Y53712D01*
D02*
G37*
G36*
X38262D02*
X38312Y53704D01*
X38369Y53693D01*
X38434Y53677D01*
X38500Y53654D01*
X38565Y53623D01*
X38569D01*
X38573Y53619D01*
X38596Y53608D01*
X38627Y53589D01*
X38665Y53562D01*
X38707Y53527D01*
X38753Y53485D01*
X38796Y53435D01*
X38834Y53381D01*
X38838Y53374D01*
X38849Y53355D01*
X38865Y53324D01*
X38880Y53285D01*
X38895Y53236D01*
X38911Y53182D01*
X38922Y53124D01*
X38926Y53059D01*
Y53051D01*
Y53032D01*
X38922Y53001D01*
X38914Y52963D01*
X38903Y52917D01*
X38888Y52867D01*
X38868Y52813D01*
X38838Y52763D01*
X38834Y52755D01*
X38822Y52740D01*
X38799Y52717D01*
X38772Y52686D01*
X38734Y52652D01*
X38692Y52617D01*
X38638Y52579D01*
X38577Y52548D01*
X38581D01*
X38588Y52544D01*
X38600D01*
X38615Y52537D01*
X38653Y52525D01*
X38703Y52502D01*
X38757Y52475D01*
X38815Y52437D01*
X38872Y52391D01*
X38922Y52333D01*
X38926Y52325D01*
X38941Y52302D01*
X38961Y52268D01*
X38987Y52222D01*
X39011Y52164D01*
X39030Y52095D01*
X39045Y52014D01*
X39049Y51926D01*
Y51922D01*
Y51911D01*
Y51895D01*
X39045Y51872D01*
X39041Y51842D01*
X39037Y51811D01*
X39030Y51772D01*
X39018Y51734D01*
X38991Y51646D01*
X38972Y51596D01*
X38945Y51550D01*
X38918Y51504D01*
X38888Y51458D01*
X38849Y51411D01*
X38807Y51365D01*
X38803Y51362D01*
X38796Y51354D01*
X38784Y51346D01*
X38765Y51331D01*
X38742Y51312D01*
X38711Y51293D01*
X38676Y51273D01*
X38642Y51254D01*
X38600Y51231D01*
X38554Y51212D01*
X38504Y51193D01*
X38450Y51173D01*
X38392Y51158D01*
X38331Y51150D01*
X38266Y51143D01*
X38200Y51139D01*
X38170D01*
X38146Y51143D01*
X38116Y51147D01*
X38085Y51150D01*
X38047Y51154D01*
X38008Y51162D01*
X37920Y51185D01*
X37828Y51223D01*
X37782Y51243D01*
X37740Y51269D01*
X37693Y51300D01*
X37651Y51335D01*
X37647Y51338D01*
X37644Y51342D01*
X37632Y51354D01*
X37617Y51369D01*
X37601Y51392D01*
X37582Y51415D01*
X37559Y51442D01*
X37540Y51473D01*
X37494Y51550D01*
X37455Y51638D01*
X37421Y51738D01*
X37409Y51792D01*
X37402Y51849D01*
X37713Y51891D01*
Y51888D01*
X37716Y51880D01*
Y51865D01*
X37724Y51849D01*
X37736Y51803D01*
X37755Y51746D01*
X37778Y51684D01*
X37809Y51619D01*
X37847Y51561D01*
X37889Y51511D01*
X37897Y51508D01*
X37912Y51492D01*
X37939Y51477D01*
X37978Y51454D01*
X38020Y51434D01*
X38074Y51415D01*
X38135Y51400D01*
X38200Y51396D01*
X38223D01*
X38239Y51400D01*
X38277Y51404D01*
X38327Y51415D01*
X38388Y51434D01*
X38450Y51458D01*
X38511Y51496D01*
X38569Y51546D01*
X38577Y51554D01*
X38592Y51573D01*
X38615Y51604D01*
X38646Y51650D01*
X38673Y51703D01*
X38696Y51769D01*
X38711Y51842D01*
X38719Y51922D01*
Y51926D01*
Y51930D01*
Y51941D01*
X38715Y51957D01*
X38711Y51995D01*
X38699Y52045D01*
X38684Y52099D01*
X38657Y52160D01*
X38623Y52218D01*
X38577Y52272D01*
X38569Y52279D01*
X38554Y52295D01*
X38523Y52314D01*
X38481Y52341D01*
X38431Y52368D01*
X38369Y52387D01*
X38304Y52402D01*
X38227Y52410D01*
X38193D01*
X38166Y52406D01*
X38135Y52402D01*
X38097Y52398D01*
X38054Y52391D01*
X38008Y52379D01*
X38043Y52652D01*
X38062D01*
X38077Y52648D01*
X38127D01*
X38162Y52652D01*
X38212Y52659D01*
X38266Y52671D01*
X38323Y52690D01*
X38385Y52713D01*
X38446Y52748D01*
X38454Y52752D01*
X38473Y52767D01*
X38496Y52794D01*
X38527Y52829D01*
X38557Y52871D01*
X38581Y52925D01*
X38600Y52990D01*
X38607Y53066D01*
Y53070D01*
Y53074D01*
Y53093D01*
X38600Y53124D01*
X38592Y53166D01*
X38581Y53209D01*
X38557Y53255D01*
X38530Y53305D01*
X38492Y53347D01*
X38488Y53351D01*
X38473Y53366D01*
X38446Y53385D01*
X38412Y53404D01*
X38369Y53427D01*
X38319Y53443D01*
X38262Y53458D01*
X38196Y53462D01*
X38166D01*
X38131Y53454D01*
X38093Y53447D01*
X38043Y53435D01*
X37993Y53412D01*
X37943Y53385D01*
X37893Y53347D01*
X37889Y53343D01*
X37874Y53328D01*
X37855Y53301D01*
X37832Y53262D01*
X37805Y53216D01*
X37782Y53159D01*
X37759Y53090D01*
X37743Y53009D01*
X37432Y53063D01*
Y53066D01*
X37436Y53078D01*
X37440Y53093D01*
X37444Y53113D01*
X37451Y53140D01*
X37459Y53170D01*
X37486Y53239D01*
X37517Y53316D01*
X37563Y53397D01*
X37617Y53474D01*
X37686Y53543D01*
X37690Y53547D01*
X37693Y53550D01*
X37705Y53558D01*
X37724Y53570D01*
X37743Y53581D01*
X37766Y53597D01*
X37824Y53631D01*
X37897Y53662D01*
X37985Y53689D01*
X38081Y53708D01*
X38135Y53715D01*
X38223D01*
X38262Y53712D01*
D02*
G37*
G36*
X45116Y53408D02*
X43749D01*
Y52621D01*
X44932D01*
Y52325D01*
X43749D01*
Y51181D01*
X43415D01*
Y53704D01*
X45116D01*
Y53408D01*
D02*
G37*
G36*
X93148Y51473D02*
X93186Y51469D01*
X93232Y51461D01*
X93286Y51450D01*
X93336Y51434D01*
X93390Y51415D01*
X93397Y51411D01*
X93413Y51403D01*
X93436Y51392D01*
X93467Y51373D01*
X93501Y51350D01*
X93536Y51323D01*
X93570Y51292D01*
X93597Y51257D01*
X93601Y51254D01*
X93609Y51242D01*
X93620Y51219D01*
X93635Y51192D01*
X93651Y51161D01*
X93666Y51123D01*
X93682Y51077D01*
X93693Y51031D01*
Y51027D01*
X93697Y51016D01*
X93701Y50993D01*
X93705Y50962D01*
Y50920D01*
X93708Y50866D01*
X93712Y50804D01*
Y50728D01*
Y49606D01*
X93401D01*
Y50716D01*
Y50720D01*
Y50724D01*
Y50747D01*
Y50781D01*
X93397Y50824D01*
X93394Y50866D01*
X93386Y50916D01*
X93374Y50958D01*
X93363Y50996D01*
Y51000D01*
X93355Y51012D01*
X93348Y51031D01*
X93336Y51050D01*
X93317Y51077D01*
X93294Y51100D01*
X93267Y51127D01*
X93236Y51150D01*
X93232Y51154D01*
X93221Y51158D01*
X93202Y51169D01*
X93175Y51181D01*
X93144Y51188D01*
X93106Y51200D01*
X93067Y51204D01*
X93021Y51208D01*
X92987D01*
X92952Y51200D01*
X92902Y51192D01*
X92848Y51177D01*
X92795Y51154D01*
X92733Y51123D01*
X92679Y51081D01*
X92672Y51073D01*
X92656Y51054D01*
X92633Y51023D01*
X92622Y51000D01*
X92610Y50973D01*
X92595Y50943D01*
X92583Y50908D01*
X92572Y50870D01*
X92560Y50827D01*
X92549Y50778D01*
X92545Y50724D01*
X92537Y50666D01*
Y50605D01*
Y49606D01*
X92226D01*
Y51434D01*
X92507D01*
Y51173D01*
X92510Y51177D01*
X92514Y51184D01*
X92526Y51200D01*
X92545Y51219D01*
X92564Y51242D01*
X92591Y51269D01*
X92618Y51296D01*
X92652Y51327D01*
X92695Y51354D01*
X92737Y51380D01*
X92783Y51407D01*
X92837Y51430D01*
X92891Y51450D01*
X92952Y51465D01*
X93017Y51473D01*
X93086Y51476D01*
X93113D01*
X93148Y51473D01*
D02*
G37*
G36*
X95943Y51833D02*
X94576D01*
Y51046D01*
X95759D01*
Y50751D01*
X94576D01*
Y49606D01*
X94242D01*
Y52129D01*
X95943D01*
Y51833D01*
D02*
G37*
G36*
X89120Y52137D02*
X89150Y52133D01*
X89185Y52129D01*
X89223Y52125D01*
X89266Y52114D01*
X89358Y52091D01*
X89454Y52056D01*
X89504Y52033D01*
X89550Y52006D01*
X89592Y51972D01*
X89634Y51937D01*
X89638Y51933D01*
X89642Y51929D01*
X89653Y51918D01*
X89669Y51903D01*
X89684Y51880D01*
X89703Y51856D01*
X89742Y51799D01*
X89780Y51726D01*
X89815Y51641D01*
X89842Y51546D01*
X89845Y51492D01*
X89849Y51438D01*
Y51430D01*
Y51411D01*
X89845Y51380D01*
X89842Y51342D01*
X89834Y51296D01*
X89822Y51246D01*
X89807Y51192D01*
X89784Y51139D01*
X89780Y51131D01*
X89772Y51112D01*
X89757Y51085D01*
X89734Y51046D01*
X89707Y51000D01*
X89673Y50946D01*
X89626Y50893D01*
X89577Y50831D01*
X89569Y50824D01*
X89550Y50801D01*
X89515Y50766D01*
X89492Y50743D01*
X89465Y50716D01*
X89435Y50685D01*
X89396Y50651D01*
X89358Y50616D01*
X89315Y50574D01*
X89269Y50532D01*
X89216Y50486D01*
X89162Y50440D01*
X89100Y50386D01*
X89097Y50382D01*
X89089Y50374D01*
X89074Y50363D01*
X89054Y50347D01*
X89008Y50309D01*
X88951Y50259D01*
X88893Y50205D01*
X88832Y50152D01*
X88782Y50106D01*
X88762Y50086D01*
X88743Y50067D01*
X88740Y50063D01*
X88732Y50052D01*
X88717Y50036D01*
X88697Y50013D01*
X88655Y49963D01*
X88613Y49902D01*
X89853D01*
Y49606D01*
X88183D01*
Y49610D01*
Y49626D01*
Y49648D01*
X88187Y49675D01*
X88190Y49706D01*
X88194Y49741D01*
X88206Y49779D01*
X88217Y49817D01*
Y49821D01*
X88221Y49825D01*
X88229Y49848D01*
X88244Y49879D01*
X88267Y49925D01*
X88294Y49975D01*
X88332Y50033D01*
X88371Y50090D01*
X88421Y50152D01*
Y50155D01*
X88428Y50159D01*
X88448Y50182D01*
X88478Y50217D01*
X88525Y50263D01*
X88582Y50317D01*
X88651Y50382D01*
X88736Y50455D01*
X88828Y50536D01*
X88832Y50539D01*
X88847Y50551D01*
X88866Y50566D01*
X88893Y50593D01*
X88928Y50620D01*
X88966Y50655D01*
X89051Y50728D01*
X89143Y50816D01*
X89235Y50904D01*
X89281Y50946D01*
X89319Y50989D01*
X89354Y51031D01*
X89385Y51069D01*
Y51073D01*
X89392Y51077D01*
X89400Y51089D01*
X89408Y51104D01*
X89431Y51142D01*
X89458Y51192D01*
X89485Y51250D01*
X89508Y51311D01*
X89523Y51380D01*
X89531Y51446D01*
Y51450D01*
Y51453D01*
X89527Y51476D01*
X89523Y51511D01*
X89515Y51553D01*
X89496Y51603D01*
X89473Y51653D01*
X89442Y51707D01*
X89396Y51757D01*
X89389Y51761D01*
X89373Y51776D01*
X89342Y51795D01*
X89304Y51822D01*
X89254Y51845D01*
X89196Y51864D01*
X89127Y51880D01*
X89051Y51883D01*
X89028D01*
X89012Y51880D01*
X88974Y51876D01*
X88924Y51868D01*
X88866Y51849D01*
X88805Y51826D01*
X88747Y51791D01*
X88693Y51745D01*
X88690Y51737D01*
X88674Y51722D01*
X88651Y51691D01*
X88628Y51649D01*
X88601Y51595D01*
X88582Y51534D01*
X88567Y51461D01*
X88559Y51376D01*
X88240Y51411D01*
Y51415D01*
Y51427D01*
X88244Y51446D01*
X88248Y51469D01*
X88256Y51499D01*
X88260Y51534D01*
X88283Y51611D01*
X88313Y51699D01*
X88355Y51787D01*
X88413Y51876D01*
X88444Y51914D01*
X88482Y51952D01*
X88486Y51956D01*
X88494Y51960D01*
X88505Y51972D01*
X88521Y51983D01*
X88544Y51995D01*
X88571Y52014D01*
X88601Y52029D01*
X88636Y52048D01*
X88674Y52064D01*
X88717Y52083D01*
X88766Y52099D01*
X88816Y52110D01*
X88932Y52133D01*
X88993Y52137D01*
X89058Y52141D01*
X89093D01*
X89120Y52137D01*
D02*
G37*
G36*
X87161D02*
X87192Y52133D01*
X87226Y52129D01*
X87265Y52125D01*
X87307Y52114D01*
X87399Y52091D01*
X87495Y52056D01*
X87545Y52033D01*
X87591Y52006D01*
X87634Y51972D01*
X87676Y51937D01*
X87680Y51933D01*
X87683Y51929D01*
X87695Y51918D01*
X87710Y51903D01*
X87726Y51880D01*
X87745Y51856D01*
X87783Y51799D01*
X87822Y51726D01*
X87856Y51641D01*
X87883Y51546D01*
X87887Y51492D01*
X87891Y51438D01*
Y51430D01*
Y51411D01*
X87887Y51380D01*
X87883Y51342D01*
X87875Y51296D01*
X87864Y51246D01*
X87849Y51192D01*
X87826Y51139D01*
X87822Y51131D01*
X87814Y51112D01*
X87799Y51085D01*
X87776Y51046D01*
X87749Y51000D01*
X87714Y50946D01*
X87668Y50893D01*
X87618Y50831D01*
X87611Y50824D01*
X87591Y50801D01*
X87557Y50766D01*
X87534Y50743D01*
X87507Y50716D01*
X87476Y50685D01*
X87438Y50651D01*
X87399Y50616D01*
X87357Y50574D01*
X87311Y50532D01*
X87257Y50486D01*
X87204Y50440D01*
X87142Y50386D01*
X87138Y50382D01*
X87131Y50374D01*
X87115Y50363D01*
X87096Y50347D01*
X87050Y50309D01*
X86992Y50259D01*
X86935Y50205D01*
X86873Y50152D01*
X86823Y50106D01*
X86804Y50086D01*
X86785Y50067D01*
X86781Y50063D01*
X86773Y50052D01*
X86758Y50036D01*
X86739Y50013D01*
X86697Y49963D01*
X86654Y49902D01*
X87895D01*
Y49606D01*
X86224D01*
Y49610D01*
Y49626D01*
Y49648D01*
X86228Y49675D01*
X86232Y49706D01*
X86236Y49741D01*
X86247Y49779D01*
X86259Y49817D01*
Y49821D01*
X86263Y49825D01*
X86270Y49848D01*
X86286Y49879D01*
X86309Y49925D01*
X86336Y49975D01*
X86374Y50033D01*
X86413Y50090D01*
X86462Y50152D01*
Y50155D01*
X86470Y50159D01*
X86489Y50182D01*
X86520Y50217D01*
X86566Y50263D01*
X86624Y50317D01*
X86693Y50382D01*
X86777Y50455D01*
X86869Y50536D01*
X86873Y50539D01*
X86889Y50551D01*
X86908Y50566D01*
X86935Y50593D01*
X86969Y50620D01*
X87008Y50655D01*
X87092Y50728D01*
X87184Y50816D01*
X87277Y50904D01*
X87323Y50946D01*
X87361Y50989D01*
X87396Y51031D01*
X87426Y51069D01*
Y51073D01*
X87434Y51077D01*
X87442Y51089D01*
X87449Y51104D01*
X87472Y51142D01*
X87499Y51192D01*
X87526Y51250D01*
X87549Y51311D01*
X87564Y51380D01*
X87572Y51446D01*
Y51450D01*
Y51453D01*
X87568Y51476D01*
X87564Y51511D01*
X87557Y51553D01*
X87538Y51603D01*
X87515Y51653D01*
X87484Y51707D01*
X87438Y51757D01*
X87430Y51761D01*
X87415Y51776D01*
X87384Y51795D01*
X87346Y51822D01*
X87296Y51845D01*
X87238Y51864D01*
X87169Y51880D01*
X87092Y51883D01*
X87069D01*
X87054Y51880D01*
X87015Y51876D01*
X86965Y51868D01*
X86908Y51849D01*
X86846Y51826D01*
X86789Y51791D01*
X86735Y51745D01*
X86731Y51737D01*
X86716Y51722D01*
X86693Y51691D01*
X86670Y51649D01*
X86643Y51595D01*
X86624Y51534D01*
X86608Y51461D01*
X86601Y51376D01*
X86282Y51411D01*
Y51415D01*
Y51427D01*
X86286Y51446D01*
X86290Y51469D01*
X86297Y51499D01*
X86301Y51534D01*
X86324Y51611D01*
X86355Y51699D01*
X86397Y51787D01*
X86455Y51876D01*
X86485Y51914D01*
X86524Y51952D01*
X86528Y51956D01*
X86535Y51960D01*
X86547Y51972D01*
X86562Y51983D01*
X86585Y51995D01*
X86612Y52014D01*
X86643Y52029D01*
X86677Y52048D01*
X86716Y52064D01*
X86758Y52083D01*
X86808Y52099D01*
X86858Y52110D01*
X86973Y52133D01*
X87035Y52137D01*
X87100Y52141D01*
X87134D01*
X87161Y52137D01*
D02*
G37*
G36*
X91078D02*
X91124Y52129D01*
X91178Y52122D01*
X91239Y52106D01*
X91301Y52083D01*
X91358Y52056D01*
X91366Y52052D01*
X91385Y52041D01*
X91412Y52022D01*
X91451Y51999D01*
X91489Y51964D01*
X91531Y51922D01*
X91573Y51876D01*
X91612Y51822D01*
X91616Y51814D01*
X91627Y51795D01*
X91646Y51761D01*
X91669Y51718D01*
X91693Y51665D01*
X91719Y51599D01*
X91746Y51526D01*
X91769Y51446D01*
Y51442D01*
X91773Y51434D01*
Y51423D01*
X91777Y51403D01*
X91785Y51384D01*
X91789Y51357D01*
X91792Y51323D01*
X91800Y51288D01*
X91804Y51246D01*
X91808Y51204D01*
X91815Y51154D01*
X91819Y51100D01*
X91823Y51042D01*
Y50985D01*
X91827Y50850D01*
Y50847D01*
Y50831D01*
Y50808D01*
Y50778D01*
X91823Y50739D01*
Y50697D01*
X91819Y50647D01*
X91815Y50593D01*
X91804Y50478D01*
X91789Y50359D01*
X91765Y50240D01*
X91750Y50186D01*
X91735Y50132D01*
Y50129D01*
X91731Y50121D01*
X91727Y50106D01*
X91719Y50086D01*
X91708Y50063D01*
X91696Y50040D01*
X91666Y49979D01*
X91627Y49910D01*
X91581Y49841D01*
X91527Y49771D01*
X91462Y49710D01*
X91458D01*
X91454Y49702D01*
X91443Y49698D01*
X91431Y49687D01*
X91389Y49664D01*
X91339Y49637D01*
X91270Y49610D01*
X91193Y49587D01*
X91105Y49572D01*
X91005Y49564D01*
X90971D01*
X90944Y49568D01*
X90913Y49572D01*
X90878Y49579D01*
X90840Y49587D01*
X90798Y49595D01*
X90706Y49626D01*
X90656Y49648D01*
X90610Y49672D01*
X90560Y49702D01*
X90514Y49737D01*
X90471Y49775D01*
X90429Y49821D01*
X90425Y49825D01*
X90418Y49837D01*
X90406Y49856D01*
X90391Y49883D01*
X90372Y49917D01*
X90352Y49960D01*
X90329Y50010D01*
X90306Y50071D01*
X90283Y50136D01*
X90260Y50213D01*
X90241Y50297D01*
X90222Y50390D01*
X90206Y50493D01*
X90195Y50601D01*
X90187Y50724D01*
X90183Y50850D01*
Y50854D01*
Y50870D01*
Y50893D01*
Y50923D01*
X90187Y50962D01*
Y51004D01*
X90191Y51054D01*
X90195Y51108D01*
X90206Y51223D01*
X90222Y51342D01*
X90241Y51461D01*
X90256Y51515D01*
X90272Y51569D01*
Y51572D01*
X90276Y51580D01*
X90283Y51595D01*
X90291Y51615D01*
X90299Y51638D01*
X90310Y51665D01*
X90341Y51726D01*
X90379Y51795D01*
X90425Y51864D01*
X90479Y51929D01*
X90544Y51991D01*
X90548D01*
X90552Y51999D01*
X90563Y52006D01*
X90579Y52014D01*
X90617Y52037D01*
X90671Y52068D01*
X90736Y52095D01*
X90817Y52118D01*
X90905Y52133D01*
X91005Y52141D01*
X91040D01*
X91078Y52137D01*
D02*
G37*
G36*
X65744Y52673D02*
X65774Y52670D01*
X65811Y52664D01*
X65854Y52655D01*
X65894Y52642D01*
X65937Y52627D01*
X65943Y52624D01*
X65956Y52618D01*
X65974Y52609D01*
X65999Y52593D01*
X66026Y52575D01*
X66054Y52553D01*
X66081Y52529D01*
X66103Y52501D01*
X66106Y52498D01*
X66112Y52489D01*
X66121Y52470D01*
X66134Y52449D01*
X66146Y52425D01*
X66158Y52394D01*
X66170Y52357D01*
X66180Y52320D01*
Y52317D01*
X66183Y52308D01*
X66186Y52289D01*
X66189Y52265D01*
Y52231D01*
X66192Y52188D01*
X66195Y52139D01*
Y52078D01*
Y51181D01*
X65946D01*
Y52068D01*
Y52071D01*
Y52074D01*
Y52093D01*
Y52121D01*
X65943Y52154D01*
X65940Y52188D01*
X65934Y52228D01*
X65925Y52262D01*
X65916Y52292D01*
Y52296D01*
X65909Y52305D01*
X65903Y52320D01*
X65894Y52335D01*
X65879Y52357D01*
X65860Y52375D01*
X65839Y52397D01*
X65814Y52415D01*
X65811Y52418D01*
X65802Y52421D01*
X65787Y52431D01*
X65765Y52440D01*
X65741Y52446D01*
X65710Y52455D01*
X65679Y52458D01*
X65642Y52461D01*
X65615D01*
X65587Y52455D01*
X65547Y52449D01*
X65504Y52437D01*
X65461Y52418D01*
X65412Y52394D01*
X65369Y52360D01*
X65363Y52354D01*
X65351Y52338D01*
X65332Y52314D01*
X65323Y52296D01*
X65314Y52274D01*
X65302Y52249D01*
X65292Y52222D01*
X65283Y52191D01*
X65274Y52157D01*
X65265Y52117D01*
X65262Y52074D01*
X65256Y52028D01*
Y51979D01*
Y51181D01*
X65007D01*
Y52642D01*
X65231D01*
Y52434D01*
X65234Y52437D01*
X65237Y52443D01*
X65246Y52455D01*
X65262Y52470D01*
X65277Y52489D01*
X65298Y52510D01*
X65320Y52532D01*
X65348Y52557D01*
X65381Y52578D01*
X65415Y52599D01*
X65452Y52621D01*
X65495Y52639D01*
X65538Y52655D01*
X65587Y52667D01*
X65639Y52673D01*
X65695Y52676D01*
X65716D01*
X65744Y52673D01*
D02*
G37*
G36*
X64064Y53204D02*
X64104Y53198D01*
X64150Y53189D01*
X64202Y53177D01*
X64255Y53158D01*
X64307Y53134D01*
X64310D01*
X64313Y53131D01*
X64332Y53121D01*
X64356Y53106D01*
X64387Y53084D01*
X64420Y53057D01*
X64457Y53023D01*
X64491Y52983D01*
X64522Y52940D01*
X64525Y52934D01*
X64534Y52919D01*
X64546Y52894D01*
X64559Y52864D01*
X64571Y52824D01*
X64583Y52781D01*
X64592Y52735D01*
X64596Y52682D01*
Y52676D01*
Y52661D01*
X64592Y52636D01*
X64586Y52606D01*
X64577Y52569D01*
X64565Y52529D01*
X64549Y52486D01*
X64525Y52446D01*
X64522Y52440D01*
X64513Y52428D01*
X64494Y52409D01*
X64473Y52385D01*
X64442Y52357D01*
X64408Y52329D01*
X64365Y52299D01*
X64316Y52274D01*
X64319D01*
X64325Y52271D01*
X64335D01*
X64347Y52265D01*
X64377Y52256D01*
X64417Y52237D01*
X64460Y52216D01*
X64507Y52185D01*
X64552Y52148D01*
X64592Y52102D01*
X64596Y52096D01*
X64608Y52078D01*
X64623Y52050D01*
X64645Y52013D01*
X64663Y51967D01*
X64678Y51912D01*
X64691Y51847D01*
X64694Y51777D01*
Y51774D01*
Y51764D01*
Y51752D01*
X64691Y51734D01*
X64688Y51709D01*
X64684Y51685D01*
X64678Y51654D01*
X64669Y51623D01*
X64648Y51553D01*
X64632Y51513D01*
X64611Y51476D01*
X64589Y51439D01*
X64565Y51402D01*
X64534Y51365D01*
X64500Y51328D01*
X64497Y51325D01*
X64491Y51319D01*
X64482Y51313D01*
X64467Y51301D01*
X64448Y51285D01*
X64424Y51270D01*
X64396Y51255D01*
X64368Y51239D01*
X64335Y51221D01*
X64298Y51206D01*
X64258Y51190D01*
X64215Y51175D01*
X64169Y51163D01*
X64120Y51157D01*
X64068Y51150D01*
X64015Y51147D01*
X63991D01*
X63972Y51150D01*
X63948Y51153D01*
X63923Y51157D01*
X63893Y51160D01*
X63862Y51166D01*
X63791Y51184D01*
X63718Y51215D01*
X63681Y51230D01*
X63647Y51252D01*
X63610Y51276D01*
X63576Y51304D01*
X63573Y51307D01*
X63570Y51310D01*
X63561Y51319D01*
X63549Y51332D01*
X63536Y51350D01*
X63521Y51368D01*
X63503Y51390D01*
X63487Y51414D01*
X63450Y51476D01*
X63420Y51546D01*
X63392Y51626D01*
X63383Y51669D01*
X63377Y51715D01*
X63625Y51749D01*
Y51746D01*
X63629Y51740D01*
Y51728D01*
X63635Y51715D01*
X63644Y51678D01*
X63659Y51632D01*
X63678Y51583D01*
X63702Y51531D01*
X63733Y51485D01*
X63767Y51445D01*
X63773Y51442D01*
X63785Y51430D01*
X63806Y51417D01*
X63837Y51399D01*
X63871Y51384D01*
X63914Y51368D01*
X63963Y51356D01*
X64015Y51353D01*
X64034D01*
X64046Y51356D01*
X64077Y51359D01*
X64117Y51368D01*
X64166Y51384D01*
X64215Y51402D01*
X64264Y51433D01*
X64310Y51473D01*
X64316Y51479D01*
X64328Y51494D01*
X64347Y51519D01*
X64371Y51556D01*
X64393Y51599D01*
X64411Y51651D01*
X64424Y51709D01*
X64430Y51774D01*
Y51777D01*
Y51780D01*
Y51789D01*
X64427Y51801D01*
X64424Y51832D01*
X64414Y51872D01*
X64402Y51915D01*
X64381Y51964D01*
X64353Y52010D01*
X64316Y52053D01*
X64310Y52059D01*
X64298Y52071D01*
X64273Y52087D01*
X64239Y52108D01*
X64200Y52130D01*
X64150Y52145D01*
X64098Y52157D01*
X64037Y52163D01*
X64009D01*
X63988Y52160D01*
X63963Y52157D01*
X63932Y52154D01*
X63899Y52148D01*
X63862Y52139D01*
X63889Y52357D01*
X63905D01*
X63917Y52354D01*
X63957D01*
X63985Y52357D01*
X64025Y52363D01*
X64068Y52372D01*
X64113Y52388D01*
X64163Y52406D01*
X64212Y52434D01*
X64218Y52437D01*
X64233Y52449D01*
X64252Y52470D01*
X64276Y52498D01*
X64301Y52532D01*
X64319Y52575D01*
X64335Y52627D01*
X64341Y52688D01*
Y52692D01*
Y52695D01*
Y52710D01*
X64335Y52735D01*
X64328Y52768D01*
X64319Y52802D01*
X64301Y52839D01*
X64279Y52879D01*
X64249Y52913D01*
X64245Y52916D01*
X64233Y52928D01*
X64212Y52943D01*
X64184Y52959D01*
X64150Y52977D01*
X64110Y52989D01*
X64064Y53002D01*
X64012Y53005D01*
X63988D01*
X63960Y52999D01*
X63929Y52992D01*
X63889Y52983D01*
X63850Y52965D01*
X63810Y52943D01*
X63770Y52913D01*
X63767Y52909D01*
X63754Y52897D01*
X63739Y52876D01*
X63721Y52845D01*
X63699Y52808D01*
X63681Y52762D01*
X63662Y52707D01*
X63650Y52642D01*
X63401Y52685D01*
Y52688D01*
X63404Y52698D01*
X63407Y52710D01*
X63411Y52725D01*
X63417Y52747D01*
X63423Y52771D01*
X63444Y52827D01*
X63469Y52888D01*
X63506Y52952D01*
X63549Y53014D01*
X63604Y53069D01*
X63607Y53072D01*
X63610Y53075D01*
X63619Y53081D01*
X63635Y53091D01*
X63650Y53100D01*
X63668Y53112D01*
X63714Y53140D01*
X63773Y53164D01*
X63843Y53186D01*
X63920Y53201D01*
X63963Y53207D01*
X64034D01*
X64064Y53204D01*
D02*
G37*
G36*
X62499D02*
X62539Y53198D01*
X62585Y53189D01*
X62637Y53177D01*
X62689Y53158D01*
X62741Y53134D01*
X62744D01*
X62747Y53131D01*
X62766Y53121D01*
X62790Y53106D01*
X62821Y53084D01*
X62855Y53057D01*
X62892Y53023D01*
X62925Y52983D01*
X62956Y52940D01*
X62959Y52934D01*
X62968Y52919D01*
X62981Y52894D01*
X62993Y52864D01*
X63005Y52824D01*
X63017Y52781D01*
X63027Y52735D01*
X63030Y52682D01*
Y52676D01*
Y52661D01*
X63027Y52636D01*
X63021Y52606D01*
X63011Y52569D01*
X62999Y52529D01*
X62984Y52486D01*
X62959Y52446D01*
X62956Y52440D01*
X62947Y52428D01*
X62928Y52409D01*
X62907Y52385D01*
X62876Y52357D01*
X62843Y52329D01*
X62800Y52299D01*
X62750Y52274D01*
X62753D01*
X62760Y52271D01*
X62769D01*
X62781Y52265D01*
X62812Y52256D01*
X62852Y52237D01*
X62895Y52216D01*
X62941Y52185D01*
X62987Y52148D01*
X63027Y52102D01*
X63030Y52096D01*
X63042Y52078D01*
X63057Y52050D01*
X63079Y52013D01*
X63097Y51967D01*
X63113Y51912D01*
X63125Y51847D01*
X63128Y51777D01*
Y51774D01*
Y51764D01*
Y51752D01*
X63125Y51734D01*
X63122Y51709D01*
X63119Y51685D01*
X63113Y51654D01*
X63103Y51623D01*
X63082Y51553D01*
X63067Y51513D01*
X63045Y51476D01*
X63024Y51439D01*
X62999Y51402D01*
X62968Y51365D01*
X62935Y51328D01*
X62932Y51325D01*
X62925Y51319D01*
X62916Y51313D01*
X62901Y51301D01*
X62882Y51285D01*
X62858Y51270D01*
X62830Y51255D01*
X62803Y51239D01*
X62769Y51221D01*
X62732Y51206D01*
X62692Y51190D01*
X62649Y51175D01*
X62603Y51163D01*
X62554Y51157D01*
X62502Y51150D01*
X62450Y51147D01*
X62425D01*
X62407Y51150D01*
X62382Y51153D01*
X62357Y51157D01*
X62327Y51160D01*
X62296Y51166D01*
X62226Y51184D01*
X62152Y51215D01*
X62115Y51230D01*
X62081Y51252D01*
X62044Y51276D01*
X62011Y51304D01*
X62007Y51307D01*
X62004Y51310D01*
X61995Y51319D01*
X61983Y51332D01*
X61971Y51350D01*
X61955Y51368D01*
X61937Y51390D01*
X61922Y51414D01*
X61885Y51476D01*
X61854Y51546D01*
X61826Y51626D01*
X61817Y51669D01*
X61811Y51715D01*
X62060Y51749D01*
Y51746D01*
X62063Y51740D01*
Y51728D01*
X62069Y51715D01*
X62078Y51678D01*
X62094Y51632D01*
X62112Y51583D01*
X62136Y51531D01*
X62167Y51485D01*
X62201Y51445D01*
X62207Y51442D01*
X62219Y51430D01*
X62241Y51417D01*
X62271Y51399D01*
X62305Y51384D01*
X62348Y51368D01*
X62397Y51356D01*
X62450Y51353D01*
X62468D01*
X62480Y51356D01*
X62511Y51359D01*
X62551Y51368D01*
X62600Y51384D01*
X62649Y51402D01*
X62698Y51433D01*
X62744Y51473D01*
X62750Y51479D01*
X62763Y51494D01*
X62781Y51519D01*
X62806Y51556D01*
X62827Y51599D01*
X62846Y51651D01*
X62858Y51709D01*
X62864Y51774D01*
Y51777D01*
Y51780D01*
Y51789D01*
X62861Y51801D01*
X62858Y51832D01*
X62849Y51872D01*
X62836Y51915D01*
X62815Y51964D01*
X62787Y52010D01*
X62750Y52053D01*
X62744Y52059D01*
X62732Y52071D01*
X62708Y52087D01*
X62674Y52108D01*
X62634Y52130D01*
X62585Y52145D01*
X62533Y52157D01*
X62471Y52163D01*
X62443D01*
X62422Y52160D01*
X62397Y52157D01*
X62367Y52154D01*
X62333Y52148D01*
X62296Y52139D01*
X62324Y52357D01*
X62339D01*
X62351Y52354D01*
X62391D01*
X62419Y52357D01*
X62459Y52363D01*
X62502Y52372D01*
X62548Y52388D01*
X62597Y52406D01*
X62646Y52434D01*
X62652Y52437D01*
X62668Y52449D01*
X62686Y52470D01*
X62710Y52498D01*
X62735Y52532D01*
X62753Y52575D01*
X62769Y52627D01*
X62775Y52688D01*
Y52692D01*
Y52695D01*
Y52710D01*
X62769Y52735D01*
X62763Y52768D01*
X62753Y52802D01*
X62735Y52839D01*
X62714Y52879D01*
X62683Y52913D01*
X62680Y52916D01*
X62668Y52928D01*
X62646Y52943D01*
X62618Y52959D01*
X62585Y52977D01*
X62545Y52989D01*
X62499Y53002D01*
X62446Y53005D01*
X62422D01*
X62394Y52999D01*
X62364Y52992D01*
X62324Y52983D01*
X62284Y52965D01*
X62244Y52943D01*
X62204Y52913D01*
X62201Y52909D01*
X62189Y52897D01*
X62173Y52876D01*
X62155Y52845D01*
X62133Y52808D01*
X62115Y52762D01*
X62097Y52707D01*
X62084Y52642D01*
X61836Y52685D01*
Y52688D01*
X61839Y52698D01*
X61842Y52710D01*
X61845Y52725D01*
X61851Y52747D01*
X61857Y52771D01*
X61879Y52827D01*
X61903Y52888D01*
X61940Y52952D01*
X61983Y53014D01*
X62038Y53069D01*
X62041Y53072D01*
X62044Y53075D01*
X62054Y53081D01*
X62069Y53091D01*
X62084Y53100D01*
X62103Y53112D01*
X62149Y53140D01*
X62207Y53164D01*
X62278Y53186D01*
X62354Y53201D01*
X62397Y53207D01*
X62468D01*
X62499Y53204D01*
D02*
G37*
G36*
X67979Y52962D02*
X66886D01*
Y52332D01*
X67831D01*
Y52096D01*
X66886D01*
Y51181D01*
X66619D01*
Y53198D01*
X67979D01*
Y52962D01*
D02*
G37*
G36*
X90540Y28346D02*
X90208D01*
Y28665D01*
X90203Y28660D01*
X90194Y28651D01*
X90180Y28632D01*
X90162Y28609D01*
X90134Y28577D01*
X90102Y28549D01*
X90065Y28512D01*
X90024Y28480D01*
X89978Y28448D01*
X89927Y28411D01*
X89867Y28383D01*
X89807Y28356D01*
X89738Y28328D01*
X89669Y28310D01*
X89590Y28300D01*
X89512Y28296D01*
X89480D01*
X89443Y28300D01*
X89392Y28305D01*
X89337Y28314D01*
X89277Y28328D01*
X89212Y28346D01*
X89148Y28370D01*
X89139Y28374D01*
X89120Y28383D01*
X89092Y28397D01*
X89056Y28420D01*
X89014Y28448D01*
X88973Y28480D01*
X88936Y28512D01*
X88899Y28554D01*
X88894Y28558D01*
X88885Y28572D01*
X88871Y28600D01*
X88857Y28632D01*
X88834Y28674D01*
X88816Y28720D01*
X88797Y28771D01*
X88784Y28831D01*
Y28835D01*
X88779Y28854D01*
Y28877D01*
X88774Y28914D01*
X88770Y28964D01*
Y29024D01*
X88765Y29093D01*
Y29176D01*
Y30541D01*
X89139D01*
Y29319D01*
Y29315D01*
Y29305D01*
Y29291D01*
Y29273D01*
Y29222D01*
X89143Y29162D01*
Y29098D01*
X89148Y29033D01*
X89152Y28973D01*
X89157Y28927D01*
Y28923D01*
X89166Y28904D01*
X89175Y28877D01*
X89189Y28844D01*
X89208Y28808D01*
X89235Y28766D01*
X89268Y28729D01*
X89305Y28697D01*
X89309Y28692D01*
X89328Y28683D01*
X89351Y28669D01*
X89383Y28655D01*
X89424Y28642D01*
X89470Y28628D01*
X89526Y28618D01*
X89586Y28614D01*
X89613D01*
X89646Y28618D01*
X89687Y28623D01*
X89733Y28632D01*
X89784Y28651D01*
X89839Y28669D01*
X89895Y28697D01*
X89899Y28701D01*
X89918Y28715D01*
X89945Y28734D01*
X89978Y28761D01*
X90010Y28794D01*
X90047Y28835D01*
X90074Y28881D01*
X90102Y28932D01*
X90107Y28941D01*
X90111Y28960D01*
X90121Y28992D01*
X90134Y29043D01*
X90148Y29103D01*
X90157Y29176D01*
X90162Y29264D01*
X90167Y29361D01*
Y30541D01*
X90540D01*
Y28346D01*
D02*
G37*
G36*
X93232Y31020D02*
X91591D01*
Y30075D01*
X93011D01*
Y29720D01*
X91591D01*
Y28346D01*
X91190D01*
Y31375D01*
X93232D01*
Y31020D01*
D02*
G37*
G36*
X85368Y28346D02*
X84994D01*
Y30716D01*
X84990Y30711D01*
X84971Y30693D01*
X84939Y30670D01*
X84897Y30638D01*
X84847Y30596D01*
X84787Y30555D01*
X84718Y30504D01*
X84639Y30458D01*
X84635D01*
X84630Y30453D01*
X84602Y30435D01*
X84561Y30412D01*
X84510Y30384D01*
X84450Y30352D01*
X84386Y30324D01*
X84316Y30292D01*
X84252Y30264D01*
Y30628D01*
X84257D01*
X84266Y30633D01*
X84284Y30642D01*
X84303Y30656D01*
X84330Y30670D01*
X84363Y30684D01*
X84436Y30725D01*
X84519Y30776D01*
X84611Y30836D01*
X84704Y30905D01*
X84791Y30979D01*
X84796Y30983D01*
X84800Y30988D01*
X84828Y31016D01*
X84870Y31057D01*
X84920Y31108D01*
X84976Y31172D01*
X85031Y31242D01*
X85082Y31315D01*
X85123Y31389D01*
X85368D01*
Y28346D01*
D02*
G37*
G36*
X87391Y31384D02*
X87447Y31375D01*
X87511Y31366D01*
X87585Y31348D01*
X87659Y31320D01*
X87728Y31288D01*
X87737Y31283D01*
X87760Y31269D01*
X87792Y31246D01*
X87839Y31218D01*
X87885Y31177D01*
X87935Y31126D01*
X87986Y31071D01*
X88032Y31006D01*
X88037Y30997D01*
X88051Y30974D01*
X88074Y30933D01*
X88101Y30882D01*
X88129Y30817D01*
X88161Y30739D01*
X88194Y30652D01*
X88221Y30555D01*
Y30550D01*
X88226Y30541D01*
Y30527D01*
X88230Y30504D01*
X88240Y30481D01*
X88244Y30449D01*
X88249Y30407D01*
X88258Y30366D01*
X88263Y30315D01*
X88267Y30264D01*
X88276Y30204D01*
X88281Y30140D01*
X88286Y30071D01*
Y30001D01*
X88290Y29840D01*
Y29836D01*
Y29817D01*
Y29789D01*
Y29752D01*
X88286Y29706D01*
Y29656D01*
X88281Y29596D01*
X88276Y29531D01*
X88263Y29393D01*
X88244Y29250D01*
X88217Y29107D01*
X88198Y29043D01*
X88180Y28978D01*
Y28973D01*
X88175Y28964D01*
X88170Y28946D01*
X88161Y28923D01*
X88147Y28895D01*
X88134Y28867D01*
X88097Y28794D01*
X88051Y28711D01*
X87995Y28628D01*
X87931Y28545D01*
X87852Y28471D01*
X87848D01*
X87843Y28462D01*
X87829Y28457D01*
X87815Y28443D01*
X87765Y28416D01*
X87705Y28383D01*
X87622Y28351D01*
X87530Y28323D01*
X87424Y28305D01*
X87304Y28296D01*
X87262D01*
X87230Y28300D01*
X87193Y28305D01*
X87152Y28314D01*
X87106Y28323D01*
X87055Y28333D01*
X86944Y28370D01*
X86884Y28397D01*
X86829Y28425D01*
X86769Y28462D01*
X86714Y28503D01*
X86663Y28549D01*
X86612Y28605D01*
X86608Y28609D01*
X86598Y28623D01*
X86585Y28646D01*
X86566Y28678D01*
X86543Y28720D01*
X86520Y28771D01*
X86492Y28831D01*
X86465Y28904D01*
X86437Y28983D01*
X86409Y29075D01*
X86386Y29176D01*
X86363Y29287D01*
X86345Y29411D01*
X86331Y29540D01*
X86322Y29688D01*
X86317Y29840D01*
Y29845D01*
Y29863D01*
Y29891D01*
Y29928D01*
X86322Y29974D01*
Y30024D01*
X86326Y30084D01*
X86331Y30149D01*
X86345Y30287D01*
X86363Y30430D01*
X86386Y30573D01*
X86405Y30638D01*
X86423Y30702D01*
Y30707D01*
X86428Y30716D01*
X86437Y30734D01*
X86446Y30757D01*
X86456Y30785D01*
X86469Y30817D01*
X86506Y30891D01*
X86552Y30974D01*
X86608Y31057D01*
X86672Y31135D01*
X86751Y31209D01*
X86755D01*
X86760Y31218D01*
X86774Y31228D01*
X86792Y31237D01*
X86838Y31265D01*
X86903Y31302D01*
X86981Y31334D01*
X87078Y31361D01*
X87184Y31380D01*
X87304Y31389D01*
X87345D01*
X87391Y31384D01*
D02*
G37*
G36*
X93148Y37693D02*
X93186Y37689D01*
X93232Y37681D01*
X93286Y37670D01*
X93336Y37655D01*
X93390Y37635D01*
X93397Y37632D01*
X93413Y37624D01*
X93436Y37612D01*
X93467Y37593D01*
X93501Y37570D01*
X93536Y37543D01*
X93570Y37512D01*
X93597Y37478D01*
X93601Y37474D01*
X93609Y37463D01*
X93620Y37440D01*
X93635Y37413D01*
X93651Y37382D01*
X93666Y37344D01*
X93682Y37297D01*
X93693Y37251D01*
Y37248D01*
X93697Y37236D01*
X93701Y37213D01*
X93705Y37182D01*
Y37140D01*
X93708Y37086D01*
X93712Y37025D01*
Y36948D01*
Y35827D01*
X93401D01*
Y36937D01*
Y36940D01*
Y36944D01*
Y36967D01*
Y37002D01*
X93397Y37044D01*
X93394Y37086D01*
X93386Y37136D01*
X93374Y37179D01*
X93363Y37217D01*
Y37221D01*
X93355Y37232D01*
X93348Y37251D01*
X93336Y37271D01*
X93317Y37297D01*
X93294Y37321D01*
X93267Y37347D01*
X93236Y37370D01*
X93232Y37374D01*
X93221Y37378D01*
X93202Y37390D01*
X93175Y37401D01*
X93144Y37409D01*
X93106Y37420D01*
X93067Y37424D01*
X93021Y37428D01*
X92987D01*
X92952Y37420D01*
X92902Y37413D01*
X92848Y37397D01*
X92795Y37374D01*
X92733Y37344D01*
X92679Y37301D01*
X92672Y37294D01*
X92656Y37275D01*
X92633Y37244D01*
X92622Y37221D01*
X92610Y37194D01*
X92595Y37163D01*
X92583Y37128D01*
X92572Y37090D01*
X92560Y37048D01*
X92549Y36998D01*
X92545Y36944D01*
X92537Y36887D01*
Y36825D01*
Y35827D01*
X92226D01*
Y37655D01*
X92507D01*
Y37394D01*
X92510Y37397D01*
X92514Y37405D01*
X92526Y37420D01*
X92545Y37440D01*
X92564Y37463D01*
X92591Y37490D01*
X92618Y37516D01*
X92652Y37547D01*
X92695Y37574D01*
X92737Y37601D01*
X92783Y37628D01*
X92837Y37651D01*
X92891Y37670D01*
X92952Y37685D01*
X93017Y37693D01*
X93086Y37697D01*
X93113D01*
X93148Y37693D01*
D02*
G37*
G36*
X95943Y38054D02*
X94576D01*
Y37267D01*
X95759D01*
Y36971D01*
X94576D01*
Y35827D01*
X94242D01*
Y38350D01*
X95943D01*
Y38054D01*
D02*
G37*
G36*
X89120Y38357D02*
X89150Y38353D01*
X89185Y38350D01*
X89223Y38346D01*
X89266Y38334D01*
X89358Y38311D01*
X89454Y38277D01*
X89504Y38254D01*
X89550Y38227D01*
X89592Y38192D01*
X89634Y38158D01*
X89638Y38154D01*
X89642Y38150D01*
X89653Y38138D01*
X89669Y38123D01*
X89684Y38100D01*
X89703Y38077D01*
X89742Y38019D01*
X89780Y37947D01*
X89815Y37862D01*
X89842Y37766D01*
X89845Y37712D01*
X89849Y37659D01*
Y37651D01*
Y37632D01*
X89845Y37601D01*
X89842Y37563D01*
X89834Y37516D01*
X89822Y37466D01*
X89807Y37413D01*
X89784Y37359D01*
X89780Y37351D01*
X89772Y37332D01*
X89757Y37305D01*
X89734Y37267D01*
X89707Y37221D01*
X89673Y37167D01*
X89626Y37113D01*
X89577Y37052D01*
X89569Y37044D01*
X89550Y37021D01*
X89515Y36987D01*
X89492Y36963D01*
X89465Y36937D01*
X89435Y36906D01*
X89396Y36871D01*
X89358Y36837D01*
X89315Y36794D01*
X89269Y36752D01*
X89216Y36706D01*
X89162Y36660D01*
X89100Y36606D01*
X89097Y36603D01*
X89089Y36595D01*
X89074Y36583D01*
X89054Y36568D01*
X89008Y36529D01*
X88951Y36480D01*
X88893Y36426D01*
X88832Y36372D01*
X88782Y36326D01*
X88762Y36307D01*
X88743Y36288D01*
X88740Y36284D01*
X88732Y36272D01*
X88717Y36257D01*
X88697Y36234D01*
X88655Y36184D01*
X88613Y36123D01*
X89853D01*
Y35827D01*
X88183D01*
Y35831D01*
Y35846D01*
Y35869D01*
X88187Y35896D01*
X88190Y35927D01*
X88194Y35961D01*
X88206Y36000D01*
X88217Y36038D01*
Y36042D01*
X88221Y36046D01*
X88229Y36069D01*
X88244Y36099D01*
X88267Y36145D01*
X88294Y36195D01*
X88332Y36253D01*
X88371Y36311D01*
X88421Y36372D01*
Y36376D01*
X88428Y36380D01*
X88448Y36403D01*
X88478Y36437D01*
X88525Y36483D01*
X88582Y36537D01*
X88651Y36603D01*
X88736Y36675D01*
X88828Y36756D01*
X88832Y36760D01*
X88847Y36771D01*
X88866Y36787D01*
X88893Y36814D01*
X88928Y36841D01*
X88966Y36875D01*
X89051Y36948D01*
X89143Y37036D01*
X89235Y37125D01*
X89281Y37167D01*
X89319Y37209D01*
X89354Y37251D01*
X89385Y37290D01*
Y37294D01*
X89392Y37297D01*
X89400Y37309D01*
X89408Y37324D01*
X89431Y37363D01*
X89458Y37413D01*
X89485Y37470D01*
X89508Y37532D01*
X89523Y37601D01*
X89531Y37666D01*
Y37670D01*
Y37674D01*
X89527Y37697D01*
X89523Y37731D01*
X89515Y37774D01*
X89496Y37824D01*
X89473Y37874D01*
X89442Y37927D01*
X89396Y37977D01*
X89389Y37981D01*
X89373Y37996D01*
X89342Y38016D01*
X89304Y38043D01*
X89254Y38065D01*
X89196Y38085D01*
X89127Y38100D01*
X89051Y38104D01*
X89028D01*
X89012Y38100D01*
X88974Y38096D01*
X88924Y38089D01*
X88866Y38069D01*
X88805Y38046D01*
X88747Y38012D01*
X88693Y37966D01*
X88690Y37958D01*
X88674Y37943D01*
X88651Y37912D01*
X88628Y37870D01*
X88601Y37816D01*
X88582Y37754D01*
X88567Y37681D01*
X88559Y37597D01*
X88240Y37632D01*
Y37635D01*
Y37647D01*
X88244Y37666D01*
X88248Y37689D01*
X88256Y37720D01*
X88260Y37754D01*
X88283Y37831D01*
X88313Y37920D01*
X88355Y38008D01*
X88413Y38096D01*
X88444Y38135D01*
X88482Y38173D01*
X88486Y38177D01*
X88494Y38181D01*
X88505Y38192D01*
X88521Y38204D01*
X88544Y38215D01*
X88571Y38234D01*
X88601Y38250D01*
X88636Y38269D01*
X88674Y38284D01*
X88717Y38304D01*
X88766Y38319D01*
X88816Y38331D01*
X88932Y38353D01*
X88993Y38357D01*
X89058Y38361D01*
X89093D01*
X89120Y38357D01*
D02*
G37*
G36*
X87161D02*
X87192Y38353D01*
X87226Y38350D01*
X87265Y38346D01*
X87307Y38334D01*
X87399Y38311D01*
X87495Y38277D01*
X87545Y38254D01*
X87591Y38227D01*
X87634Y38192D01*
X87676Y38158D01*
X87680Y38154D01*
X87683Y38150D01*
X87695Y38138D01*
X87710Y38123D01*
X87726Y38100D01*
X87745Y38077D01*
X87783Y38019D01*
X87822Y37947D01*
X87856Y37862D01*
X87883Y37766D01*
X87887Y37712D01*
X87891Y37659D01*
Y37651D01*
Y37632D01*
X87887Y37601D01*
X87883Y37563D01*
X87875Y37516D01*
X87864Y37466D01*
X87849Y37413D01*
X87826Y37359D01*
X87822Y37351D01*
X87814Y37332D01*
X87799Y37305D01*
X87776Y37267D01*
X87749Y37221D01*
X87714Y37167D01*
X87668Y37113D01*
X87618Y37052D01*
X87611Y37044D01*
X87591Y37021D01*
X87557Y36987D01*
X87534Y36963D01*
X87507Y36937D01*
X87476Y36906D01*
X87438Y36871D01*
X87399Y36837D01*
X87357Y36794D01*
X87311Y36752D01*
X87257Y36706D01*
X87204Y36660D01*
X87142Y36606D01*
X87138Y36603D01*
X87131Y36595D01*
X87115Y36583D01*
X87096Y36568D01*
X87050Y36529D01*
X86992Y36480D01*
X86935Y36426D01*
X86873Y36372D01*
X86823Y36326D01*
X86804Y36307D01*
X86785Y36288D01*
X86781Y36284D01*
X86773Y36272D01*
X86758Y36257D01*
X86739Y36234D01*
X86697Y36184D01*
X86654Y36123D01*
X87895D01*
Y35827D01*
X86224D01*
Y35831D01*
Y35846D01*
Y35869D01*
X86228Y35896D01*
X86232Y35927D01*
X86236Y35961D01*
X86247Y36000D01*
X86259Y36038D01*
Y36042D01*
X86263Y36046D01*
X86270Y36069D01*
X86286Y36099D01*
X86309Y36145D01*
X86336Y36195D01*
X86374Y36253D01*
X86413Y36311D01*
X86462Y36372D01*
Y36376D01*
X86470Y36380D01*
X86489Y36403D01*
X86520Y36437D01*
X86566Y36483D01*
X86624Y36537D01*
X86693Y36603D01*
X86777Y36675D01*
X86869Y36756D01*
X86873Y36760D01*
X86889Y36771D01*
X86908Y36787D01*
X86935Y36814D01*
X86969Y36841D01*
X87008Y36875D01*
X87092Y36948D01*
X87184Y37036D01*
X87277Y37125D01*
X87323Y37167D01*
X87361Y37209D01*
X87396Y37251D01*
X87426Y37290D01*
Y37294D01*
X87434Y37297D01*
X87442Y37309D01*
X87449Y37324D01*
X87472Y37363D01*
X87499Y37413D01*
X87526Y37470D01*
X87549Y37532D01*
X87564Y37601D01*
X87572Y37666D01*
Y37670D01*
Y37674D01*
X87568Y37697D01*
X87564Y37731D01*
X87557Y37774D01*
X87538Y37824D01*
X87515Y37874D01*
X87484Y37927D01*
X87438Y37977D01*
X87430Y37981D01*
X87415Y37996D01*
X87384Y38016D01*
X87346Y38043D01*
X87296Y38065D01*
X87238Y38085D01*
X87169Y38100D01*
X87092Y38104D01*
X87069D01*
X87054Y38100D01*
X87015Y38096D01*
X86965Y38089D01*
X86908Y38069D01*
X86846Y38046D01*
X86789Y38012D01*
X86735Y37966D01*
X86731Y37958D01*
X86716Y37943D01*
X86693Y37912D01*
X86670Y37870D01*
X86643Y37816D01*
X86624Y37754D01*
X86608Y37681D01*
X86601Y37597D01*
X86282Y37632D01*
Y37635D01*
Y37647D01*
X86286Y37666D01*
X86290Y37689D01*
X86297Y37720D01*
X86301Y37754D01*
X86324Y37831D01*
X86355Y37920D01*
X86397Y38008D01*
X86455Y38096D01*
X86485Y38135D01*
X86524Y38173D01*
X86528Y38177D01*
X86535Y38181D01*
X86547Y38192D01*
X86562Y38204D01*
X86585Y38215D01*
X86612Y38234D01*
X86643Y38250D01*
X86677Y38269D01*
X86716Y38284D01*
X86758Y38304D01*
X86808Y38319D01*
X86858Y38331D01*
X86973Y38353D01*
X87035Y38357D01*
X87100Y38361D01*
X87134D01*
X87161Y38357D01*
D02*
G37*
G36*
X91078D02*
X91124Y38350D01*
X91178Y38342D01*
X91239Y38327D01*
X91301Y38304D01*
X91358Y38277D01*
X91366Y38273D01*
X91385Y38261D01*
X91412Y38242D01*
X91451Y38219D01*
X91489Y38184D01*
X91531Y38142D01*
X91573Y38096D01*
X91612Y38043D01*
X91616Y38035D01*
X91627Y38016D01*
X91646Y37981D01*
X91669Y37939D01*
X91693Y37885D01*
X91719Y37820D01*
X91746Y37747D01*
X91769Y37666D01*
Y37662D01*
X91773Y37655D01*
Y37643D01*
X91777Y37624D01*
X91785Y37605D01*
X91789Y37578D01*
X91792Y37543D01*
X91800Y37509D01*
X91804Y37466D01*
X91808Y37424D01*
X91815Y37374D01*
X91819Y37321D01*
X91823Y37263D01*
Y37205D01*
X91827Y37071D01*
Y37067D01*
Y37052D01*
Y37029D01*
Y36998D01*
X91823Y36960D01*
Y36917D01*
X91819Y36867D01*
X91815Y36814D01*
X91804Y36698D01*
X91789Y36579D01*
X91765Y36460D01*
X91750Y36407D01*
X91735Y36353D01*
Y36349D01*
X91731Y36341D01*
X91727Y36326D01*
X91719Y36307D01*
X91708Y36284D01*
X91696Y36261D01*
X91666Y36199D01*
X91627Y36130D01*
X91581Y36061D01*
X91527Y35992D01*
X91462Y35930D01*
X91458D01*
X91454Y35923D01*
X91443Y35919D01*
X91431Y35907D01*
X91389Y35884D01*
X91339Y35857D01*
X91270Y35831D01*
X91193Y35808D01*
X91105Y35792D01*
X91005Y35785D01*
X90971D01*
X90944Y35788D01*
X90913Y35792D01*
X90878Y35800D01*
X90840Y35808D01*
X90798Y35815D01*
X90706Y35846D01*
X90656Y35869D01*
X90610Y35892D01*
X90560Y35923D01*
X90514Y35957D01*
X90471Y35996D01*
X90429Y36042D01*
X90425Y36046D01*
X90418Y36057D01*
X90406Y36076D01*
X90391Y36103D01*
X90372Y36138D01*
X90352Y36180D01*
X90329Y36230D01*
X90306Y36291D01*
X90283Y36357D01*
X90260Y36434D01*
X90241Y36518D01*
X90222Y36610D01*
X90206Y36714D01*
X90195Y36821D01*
X90187Y36944D01*
X90183Y37071D01*
Y37075D01*
Y37090D01*
Y37113D01*
Y37144D01*
X90187Y37182D01*
Y37225D01*
X90191Y37275D01*
X90195Y37328D01*
X90206Y37443D01*
X90222Y37563D01*
X90241Y37681D01*
X90256Y37735D01*
X90272Y37789D01*
Y37793D01*
X90276Y37800D01*
X90283Y37816D01*
X90291Y37835D01*
X90299Y37858D01*
X90310Y37885D01*
X90341Y37947D01*
X90379Y38016D01*
X90425Y38085D01*
X90479Y38150D01*
X90544Y38211D01*
X90548D01*
X90552Y38219D01*
X90563Y38227D01*
X90579Y38234D01*
X90617Y38258D01*
X90671Y38288D01*
X90736Y38315D01*
X90817Y38338D01*
X90905Y38353D01*
X91005Y38361D01*
X91040D01*
X91078Y38357D01*
D02*
G37*
%LPC*%
G36*
X44778Y2818D02*
X44755D01*
X44737Y2813D01*
X44691Y2808D01*
X44631Y2795D01*
X44566Y2771D01*
X44493Y2739D01*
X44423Y2693D01*
X44354Y2633D01*
X44345Y2624D01*
X44326Y2601D01*
X44299Y2560D01*
X44267Y2509D01*
X44234Y2440D01*
X44207Y2357D01*
X44188Y2265D01*
X44179Y2158D01*
Y2149D01*
Y2126D01*
X44184Y2089D01*
X44188Y2043D01*
X44197Y1983D01*
X44211Y1923D01*
X44230Y1859D01*
X44257Y1790D01*
X44262Y1780D01*
X44271Y1762D01*
X44290Y1730D01*
X44317Y1693D01*
X44350Y1647D01*
X44387Y1605D01*
X44433Y1559D01*
X44483Y1522D01*
X44488Y1518D01*
X44511Y1508D01*
X44539Y1495D01*
X44576Y1481D01*
X44622Y1462D01*
X44677Y1448D01*
X44732Y1439D01*
X44792Y1435D01*
X44815D01*
X44834Y1439D01*
X44875Y1444D01*
X44935Y1458D01*
X44995Y1481D01*
X45064Y1513D01*
X45133Y1559D01*
X45198Y1624D01*
X45207Y1633D01*
X45226Y1660D01*
X45253Y1702D01*
X45285Y1757D01*
X45313Y1831D01*
X45341Y1923D01*
X45359Y2025D01*
X45368Y2140D01*
Y2145D01*
Y2154D01*
Y2172D01*
X45364Y2191D01*
Y2218D01*
X45359Y2251D01*
X45350Y2320D01*
X45327Y2398D01*
X45299Y2481D01*
X45258Y2560D01*
X45202Y2633D01*
X45193Y2643D01*
X45175Y2661D01*
X45138Y2693D01*
X45087Y2726D01*
X45027Y2758D01*
X44954Y2790D01*
X44870Y2808D01*
X44778Y2818D01*
D02*
G37*
G36*
X34618Y3855D02*
X33986D01*
Y1536D01*
X34678D01*
X34729Y1541D01*
X34798Y1545D01*
X34871Y1550D01*
X34950Y1559D01*
X35024Y1573D01*
X35093Y1591D01*
X35102Y1596D01*
X35120Y1601D01*
X35153Y1614D01*
X35190Y1633D01*
X35236Y1656D01*
X35282Y1679D01*
X35323Y1711D01*
X35365Y1748D01*
X35369Y1753D01*
X35388Y1776D01*
X35415Y1808D01*
X35448Y1850D01*
X35480Y1905D01*
X35517Y1969D01*
X35554Y2048D01*
X35586Y2131D01*
Y2135D01*
X35591Y2140D01*
X35595Y2154D01*
X35600Y2172D01*
X35604Y2195D01*
X35614Y2223D01*
X35627Y2292D01*
X35641Y2380D01*
X35655Y2481D01*
X35664Y2592D01*
X35669Y2716D01*
Y2721D01*
Y2739D01*
Y2762D01*
Y2795D01*
X35664Y2836D01*
X35660Y2882D01*
X35655Y2933D01*
X35651Y2984D01*
X35632Y3104D01*
X35604Y3223D01*
X35563Y3339D01*
X35540Y3394D01*
X35512Y3445D01*
Y3449D01*
X35503Y3454D01*
X35498Y3468D01*
X35485Y3486D01*
X35452Y3532D01*
X35406Y3583D01*
X35351Y3643D01*
X35286Y3698D01*
X35213Y3749D01*
X35134Y3790D01*
X35125Y3795D01*
X35102Y3800D01*
X35065Y3809D01*
X35010Y3823D01*
X34936Y3836D01*
X34848Y3846D01*
X34742Y3850D01*
X34618Y3855D01*
D02*
G37*
G36*
X28035D02*
X27173D01*
Y2771D01*
X27989D01*
X28016Y2776D01*
X28049D01*
X28081Y2781D01*
X28164Y2790D01*
X28256Y2808D01*
X28348Y2832D01*
X28431Y2868D01*
X28468Y2891D01*
X28500Y2915D01*
X28510Y2919D01*
X28528Y2942D01*
X28551Y2974D01*
X28583Y3021D01*
X28616Y3076D01*
X28639Y3145D01*
X28657Y3228D01*
X28666Y3320D01*
Y3329D01*
Y3352D01*
X28662Y3389D01*
X28653Y3435D01*
X28643Y3486D01*
X28625Y3541D01*
X28602Y3597D01*
X28569Y3647D01*
X28565Y3652D01*
X28551Y3670D01*
X28533Y3694D01*
X28500Y3721D01*
X28464Y3749D01*
X28422Y3781D01*
X28371Y3804D01*
X28316Y3827D01*
X28311D01*
X28298Y3832D01*
X28270Y3836D01*
X28233Y3841D01*
X28182Y3846D01*
X28118Y3850D01*
X28035Y3855D01*
D02*
G37*
G36*
X47102Y3915D02*
X47079D01*
X47060Y3910D01*
X47014Y3906D01*
X46954Y3887D01*
X46890Y3859D01*
X46821Y3823D01*
X46751Y3767D01*
X46719Y3730D01*
X46692Y3694D01*
Y3689D01*
X46682Y3680D01*
X46673Y3661D01*
X46664Y3638D01*
X46650Y3606D01*
X46632Y3569D01*
X46613Y3518D01*
X46599Y3463D01*
X46581Y3399D01*
X46562Y3325D01*
X46549Y3242D01*
X46530Y3145D01*
X46521Y3043D01*
X46512Y2933D01*
X46502Y2808D01*
Y2675D01*
Y2665D01*
Y2643D01*
Y2606D01*
X46507Y2555D01*
Y2495D01*
X46512Y2426D01*
X46516Y2347D01*
X46525Y2269D01*
X46544Y2103D01*
X46576Y1937D01*
X46595Y1863D01*
X46618Y1794D01*
X46645Y1730D01*
X46673Y1679D01*
Y1674D01*
X46682Y1670D01*
X46705Y1642D01*
X46742Y1601D01*
X46793Y1559D01*
X46857Y1513D01*
X46931Y1472D01*
X47014Y1444D01*
X47060Y1439D01*
X47106Y1435D01*
X47129D01*
X47148Y1439D01*
X47194Y1448D01*
X47254Y1467D01*
X47323Y1495D01*
X47392Y1536D01*
X47429Y1564D01*
X47466Y1601D01*
X47503Y1637D01*
X47535Y1679D01*
Y1684D01*
X47544Y1693D01*
X47554Y1707D01*
X47563Y1730D01*
X47577Y1757D01*
X47590Y1799D01*
X47604Y1845D01*
X47623Y1896D01*
X47641Y1960D01*
X47655Y2029D01*
X47669Y2112D01*
X47683Y2204D01*
X47696Y2306D01*
X47701Y2417D01*
X47710Y2541D01*
Y2675D01*
Y2684D01*
Y2707D01*
Y2744D01*
X47706Y2795D01*
Y2854D01*
X47701Y2924D01*
X47696Y2997D01*
X47687Y3080D01*
X47669Y3246D01*
X47637Y3408D01*
X47618Y3486D01*
X47595Y3555D01*
X47567Y3615D01*
X47535Y3666D01*
Y3670D01*
X47526Y3675D01*
X47503Y3703D01*
X47466Y3744D01*
X47415Y3790D01*
X47351Y3836D01*
X47277Y3878D01*
X47194Y3906D01*
X47148Y3910D01*
X47102Y3915D01*
D02*
G37*
G36*
X16701Y51490D02*
X16682D01*
X16667Y51486D01*
X16628Y51482D01*
X16578Y51467D01*
X16525Y51444D01*
X16467Y51413D01*
X16409Y51367D01*
X16383Y51336D01*
X16360Y51305D01*
Y51302D01*
X16352Y51294D01*
X16344Y51279D01*
X16337Y51259D01*
X16325Y51232D01*
X16310Y51202D01*
X16294Y51160D01*
X16283Y51113D01*
X16267Y51060D01*
X16252Y50998D01*
X16241Y50929D01*
X16225Y50848D01*
X16217Y50764D01*
X16210Y50672D01*
X16202Y50568D01*
Y50457D01*
Y50449D01*
Y50430D01*
Y50399D01*
X16206Y50357D01*
Y50307D01*
X16210Y50249D01*
X16214Y50184D01*
X16221Y50119D01*
X16237Y49981D01*
X16264Y49842D01*
X16279Y49781D01*
X16298Y49723D01*
X16321Y49670D01*
X16344Y49627D01*
Y49624D01*
X16352Y49620D01*
X16371Y49597D01*
X16402Y49562D01*
X16444Y49527D01*
X16498Y49489D01*
X16559Y49455D01*
X16628Y49431D01*
X16667Y49428D01*
X16705Y49424D01*
X16724D01*
X16740Y49428D01*
X16778Y49435D01*
X16828Y49451D01*
X16886Y49474D01*
X16943Y49508D01*
X16974Y49531D01*
X17005Y49562D01*
X17035Y49593D01*
X17062Y49627D01*
Y49631D01*
X17070Y49639D01*
X17078Y49650D01*
X17085Y49670D01*
X17097Y49693D01*
X17108Y49727D01*
X17120Y49766D01*
X17135Y49808D01*
X17151Y49862D01*
X17162Y49919D01*
X17174Y49988D01*
X17185Y50065D01*
X17197Y50150D01*
X17201Y50242D01*
X17208Y50345D01*
Y50457D01*
Y50464D01*
Y50484D01*
Y50514D01*
X17204Y50557D01*
Y50607D01*
X17201Y50664D01*
X17197Y50726D01*
X17189Y50795D01*
X17174Y50933D01*
X17147Y51067D01*
X17131Y51133D01*
X17112Y51190D01*
X17089Y51240D01*
X17062Y51282D01*
Y51286D01*
X17055Y51290D01*
X17035Y51313D01*
X17005Y51348D01*
X16962Y51386D01*
X16909Y51424D01*
X16847Y51459D01*
X16778Y51482D01*
X16740Y51486D01*
X16701Y51490D01*
D02*
G37*
G36*
X14743D02*
X14724D01*
X14708Y51486D01*
X14670Y51482D01*
X14620Y51467D01*
X14566Y51444D01*
X14509Y51413D01*
X14451Y51367D01*
X14424Y51336D01*
X14401Y51305D01*
Y51302D01*
X14393Y51294D01*
X14386Y51279D01*
X14378Y51259D01*
X14367Y51232D01*
X14351Y51202D01*
X14336Y51160D01*
X14324Y51113D01*
X14309Y51060D01*
X14294Y50998D01*
X14282Y50929D01*
X14267Y50848D01*
X14259Y50764D01*
X14251Y50672D01*
X14244Y50568D01*
Y50457D01*
Y50449D01*
Y50430D01*
Y50399D01*
X14248Y50357D01*
Y50307D01*
X14251Y50249D01*
X14255Y50184D01*
X14263Y50119D01*
X14278Y49981D01*
X14305Y49842D01*
X14321Y49781D01*
X14340Y49723D01*
X14363Y49670D01*
X14386Y49627D01*
Y49624D01*
X14393Y49620D01*
X14413Y49597D01*
X14443Y49562D01*
X14486Y49527D01*
X14539Y49489D01*
X14601Y49455D01*
X14670Y49431D01*
X14708Y49428D01*
X14747Y49424D01*
X14766D01*
X14781Y49428D01*
X14820Y49435D01*
X14870Y49451D01*
X14927Y49474D01*
X14985Y49508D01*
X15016Y49531D01*
X15046Y49562D01*
X15077Y49593D01*
X15104Y49627D01*
Y49631D01*
X15112Y49639D01*
X15119Y49650D01*
X15127Y49670D01*
X15138Y49693D01*
X15150Y49727D01*
X15161Y49766D01*
X15177Y49808D01*
X15192Y49862D01*
X15204Y49919D01*
X15215Y49988D01*
X15227Y50065D01*
X15238Y50150D01*
X15242Y50242D01*
X15250Y50345D01*
Y50457D01*
Y50464D01*
Y50484D01*
Y50514D01*
X15246Y50557D01*
Y50607D01*
X15242Y50664D01*
X15238Y50726D01*
X15231Y50795D01*
X15215Y50933D01*
X15188Y51067D01*
X15173Y51133D01*
X15154Y51190D01*
X15131Y51240D01*
X15104Y51282D01*
Y51286D01*
X15096Y51290D01*
X15077Y51313D01*
X15046Y51348D01*
X15004Y51386D01*
X14950Y51424D01*
X14889Y51459D01*
X14820Y51482D01*
X14781Y51486D01*
X14743Y51490D01*
D02*
G37*
G36*
X104616Y43678D02*
X104611D01*
X104593D01*
X104565D01*
X104523Y43674D01*
X104477Y43669D01*
X104427Y43665D01*
X104367Y43655D01*
X104302Y43641D01*
X104164Y43609D01*
X104095Y43582D01*
X104021Y43554D01*
X103952Y43522D01*
X103883Y43485D01*
X103813Y43439D01*
X103753Y43388D01*
X103749Y43383D01*
X103740Y43374D01*
X103726Y43356D01*
X103703Y43333D01*
X103680Y43305D01*
X103657Y43273D01*
X103624Y43231D01*
X103597Y43185D01*
X103569Y43134D01*
X103542Y43079D01*
X103514Y43019D01*
X103491Y42950D01*
X103468Y42881D01*
X103454Y42807D01*
X103445Y42733D01*
X103440Y42650D01*
Y42609D01*
X103445Y42577D01*
X103449Y42535D01*
X103458Y42494D01*
X103468Y42443D01*
X103481Y42388D01*
X103518Y42272D01*
X103542Y42208D01*
X103574Y42148D01*
X103611Y42083D01*
X103652Y42023D01*
X103698Y41963D01*
X103753Y41908D01*
X103758Y41903D01*
X103767Y41894D01*
X103786Y41881D01*
X103813Y41862D01*
X103846Y41839D01*
X103887Y41816D01*
X103933Y41788D01*
X103984Y41761D01*
X104049Y41733D01*
X104113Y41705D01*
X104187Y41682D01*
X104270Y41659D01*
X104357Y41641D01*
X104450Y41627D01*
X104551Y41618D01*
X104657Y41613D01*
X104662D01*
X104675D01*
X104694D01*
X104717D01*
X104749Y41618D01*
X104791D01*
X104878Y41627D01*
X104975Y41645D01*
X105086Y41668D01*
X105196Y41701D01*
X105303Y41742D01*
X105307D01*
X105316Y41747D01*
X105330Y41756D01*
X105349Y41765D01*
X105399Y41793D01*
X105459Y41834D01*
X105528Y41885D01*
X105602Y41950D01*
X105671Y42023D01*
X105731Y42106D01*
Y42111D01*
X105736Y42116D01*
X105745Y42129D01*
X105754Y42148D01*
X105777Y42199D01*
X105810Y42263D01*
X105837Y42342D01*
X105860Y42434D01*
X105879Y42535D01*
X105883Y42646D01*
Y42687D01*
X105879Y42715D01*
X105874Y42752D01*
X105869Y42798D01*
X105860Y42844D01*
X105847Y42895D01*
X105810Y43010D01*
X105787Y43070D01*
X105759Y43130D01*
X105727Y43194D01*
X105685Y43254D01*
X105639Y43314D01*
X105588Y43374D01*
X105584Y43379D01*
X105575Y43388D01*
X105556Y43402D01*
X105533Y43420D01*
X105501Y43443D01*
X105459Y43471D01*
X105413Y43499D01*
X105358Y43526D01*
X105293Y43554D01*
X105224Y43582D01*
X105146Y43609D01*
X105053Y43632D01*
X104957Y43651D01*
X104855Y43665D01*
X104740Y43674D01*
X104616Y43678D01*
D02*
G37*
G36*
X2430Y14184D02*
X2425D01*
X2411D01*
X2393D01*
X2370D01*
X2337Y14180D01*
X2296D01*
X2208Y14170D01*
X2111Y14152D01*
X2001Y14129D01*
X1890Y14097D01*
X1784Y14055D01*
X1780D01*
X1770Y14051D01*
X1757Y14041D01*
X1738Y14032D01*
X1687Y14004D01*
X1627Y13963D01*
X1558Y13912D01*
X1484Y13848D01*
X1415Y13774D01*
X1355Y13691D01*
Y13686D01*
X1351Y13682D01*
X1342Y13668D01*
X1332Y13649D01*
X1309Y13599D01*
X1277Y13534D01*
X1249Y13456D01*
X1226Y13364D01*
X1208Y13262D01*
X1203Y13152D01*
Y13110D01*
X1208Y13082D01*
X1213Y13046D01*
X1217Y12999D01*
X1226Y12953D01*
X1240Y12903D01*
X1277Y12787D01*
X1300Y12727D01*
X1328Y12667D01*
X1360Y12603D01*
X1402Y12543D01*
X1448Y12483D01*
X1498Y12423D01*
X1503Y12419D01*
X1512Y12409D01*
X1531Y12395D01*
X1554Y12377D01*
X1586Y12354D01*
X1627Y12326D01*
X1674Y12299D01*
X1729Y12271D01*
X1793Y12243D01*
X1863Y12216D01*
X1941Y12188D01*
X2033Y12165D01*
X2130Y12147D01*
X2231Y12133D01*
X2347Y12123D01*
X2471Y12119D01*
X2476D01*
X2494D01*
X2522D01*
X2563Y12123D01*
X2609Y12128D01*
X2660Y12133D01*
X2720Y12142D01*
X2785Y12156D01*
X2923Y12188D01*
X2992Y12216D01*
X3066Y12243D01*
X3135Y12276D01*
X3204Y12313D01*
X3273Y12359D01*
X3333Y12409D01*
X3338Y12414D01*
X3347Y12423D01*
X3361Y12442D01*
X3384Y12465D01*
X3407Y12492D01*
X3430Y12525D01*
X3462Y12566D01*
X3490Y12612D01*
X3517Y12663D01*
X3545Y12718D01*
X3573Y12778D01*
X3596Y12847D01*
X3619Y12916D01*
X3633Y12990D01*
X3642Y13064D01*
X3647Y13147D01*
Y13188D01*
X3642Y13221D01*
X3637Y13262D01*
X3628Y13304D01*
X3619Y13354D01*
X3605Y13410D01*
X3568Y13525D01*
X3545Y13589D01*
X3513Y13649D01*
X3476Y13714D01*
X3435Y13774D01*
X3388Y13834D01*
X3333Y13889D01*
X3328Y13894D01*
X3319Y13903D01*
X3301Y13917D01*
X3273Y13935D01*
X3241Y13958D01*
X3199Y13981D01*
X3153Y14009D01*
X3103Y14037D01*
X3038Y14064D01*
X2974Y14092D01*
X2900Y14115D01*
X2817Y14138D01*
X2729Y14156D01*
X2637Y14170D01*
X2536Y14180D01*
X2430Y14184D01*
D02*
G37*
G36*
X74575Y4639D02*
X74556D01*
X74541Y4636D01*
X74502Y4632D01*
X74453Y4616D01*
X74399Y4593D01*
X74341Y4563D01*
X74283Y4516D01*
X74257Y4486D01*
X74234Y4455D01*
Y4451D01*
X74226Y4443D01*
X74218Y4428D01*
X74211Y4409D01*
X74199Y4382D01*
X74184Y4351D01*
X74168Y4309D01*
X74157Y4263D01*
X74142Y4209D01*
X74126Y4148D01*
X74115Y4079D01*
X74099Y3998D01*
X74092Y3914D01*
X74084Y3821D01*
X74076Y3718D01*
Y3606D01*
Y3599D01*
Y3579D01*
Y3549D01*
X74080Y3506D01*
Y3457D01*
X74084Y3399D01*
X74088Y3334D01*
X74095Y3268D01*
X74111Y3130D01*
X74138Y2992D01*
X74153Y2930D01*
X74172Y2873D01*
X74195Y2819D01*
X74218Y2777D01*
Y2773D01*
X74226Y2769D01*
X74245Y2746D01*
X74276Y2712D01*
X74318Y2677D01*
X74372Y2639D01*
X74433Y2604D01*
X74502Y2581D01*
X74541Y2577D01*
X74579Y2573D01*
X74598D01*
X74614Y2577D01*
X74652Y2585D01*
X74702Y2600D01*
X74760Y2623D01*
X74817Y2658D01*
X74848Y2681D01*
X74879Y2712D01*
X74910Y2742D01*
X74936Y2777D01*
Y2781D01*
X74944Y2788D01*
X74952Y2800D01*
X74959Y2819D01*
X74971Y2842D01*
X74982Y2877D01*
X74994Y2915D01*
X75009Y2957D01*
X75025Y3011D01*
X75036Y3069D01*
X75048Y3138D01*
X75059Y3215D01*
X75071Y3299D01*
X75075Y3391D01*
X75082Y3495D01*
Y3606D01*
Y3614D01*
Y3633D01*
Y3664D01*
X75078Y3706D01*
Y3756D01*
X75075Y3814D01*
X75071Y3875D01*
X75063Y3944D01*
X75048Y4082D01*
X75021Y4217D01*
X75006Y4282D01*
X74986Y4340D01*
X74963Y4390D01*
X74936Y4432D01*
Y4436D01*
X74929Y4440D01*
X74910Y4463D01*
X74879Y4497D01*
X74836Y4536D01*
X74783Y4574D01*
X74721Y4609D01*
X74652Y4632D01*
X74614Y4636D01*
X74575Y4639D01*
D02*
G37*
G36*
X72617D02*
X72598D01*
X72582Y4636D01*
X72544Y4632D01*
X72494Y4616D01*
X72440Y4593D01*
X72383Y4563D01*
X72325Y4516D01*
X72298Y4486D01*
X72275Y4455D01*
Y4451D01*
X72268Y4443D01*
X72260Y4428D01*
X72252Y4409D01*
X72241Y4382D01*
X72225Y4351D01*
X72210Y4309D01*
X72198Y4263D01*
X72183Y4209D01*
X72168Y4148D01*
X72156Y4079D01*
X72141Y3998D01*
X72133Y3914D01*
X72126Y3821D01*
X72118Y3718D01*
Y3606D01*
Y3599D01*
Y3579D01*
Y3549D01*
X72122Y3506D01*
Y3457D01*
X72126Y3399D01*
X72129Y3334D01*
X72137Y3268D01*
X72152Y3130D01*
X72179Y2992D01*
X72195Y2930D01*
X72214Y2873D01*
X72237Y2819D01*
X72260Y2777D01*
Y2773D01*
X72268Y2769D01*
X72287Y2746D01*
X72317Y2712D01*
X72360Y2677D01*
X72413Y2639D01*
X72475Y2604D01*
X72544Y2581D01*
X72582Y2577D01*
X72621Y2573D01*
X72640D01*
X72655Y2577D01*
X72694Y2585D01*
X72744Y2600D01*
X72801Y2623D01*
X72859Y2658D01*
X72890Y2681D01*
X72920Y2712D01*
X72951Y2742D01*
X72978Y2777D01*
Y2781D01*
X72986Y2788D01*
X72993Y2800D01*
X73001Y2819D01*
X73013Y2842D01*
X73024Y2877D01*
X73036Y2915D01*
X73051Y2957D01*
X73066Y3011D01*
X73078Y3069D01*
X73089Y3138D01*
X73101Y3215D01*
X73112Y3299D01*
X73116Y3391D01*
X73124Y3495D01*
Y3606D01*
Y3614D01*
Y3633D01*
Y3664D01*
X73120Y3706D01*
Y3756D01*
X73116Y3814D01*
X73112Y3875D01*
X73105Y3944D01*
X73089Y4082D01*
X73062Y4217D01*
X73047Y4282D01*
X73028Y4340D01*
X73005Y4390D01*
X72978Y4432D01*
Y4436D01*
X72970Y4440D01*
X72951Y4463D01*
X72920Y4497D01*
X72878Y4536D01*
X72824Y4574D01*
X72763Y4609D01*
X72694Y4632D01*
X72655Y4636D01*
X72617Y4639D01*
D02*
G37*
G36*
X91001Y51883D02*
X90982D01*
X90967Y51880D01*
X90928Y51876D01*
X90878Y51860D01*
X90825Y51837D01*
X90767Y51807D01*
X90709Y51761D01*
X90683Y51730D01*
X90659Y51699D01*
Y51695D01*
X90652Y51688D01*
X90644Y51672D01*
X90636Y51653D01*
X90625Y51626D01*
X90610Y51595D01*
X90594Y51553D01*
X90583Y51507D01*
X90567Y51453D01*
X90552Y51392D01*
X90540Y51323D01*
X90525Y51242D01*
X90517Y51158D01*
X90510Y51065D01*
X90502Y50962D01*
Y50850D01*
Y50843D01*
Y50824D01*
Y50793D01*
X90506Y50751D01*
Y50701D01*
X90510Y50643D01*
X90514Y50578D01*
X90521Y50512D01*
X90537Y50374D01*
X90563Y50236D01*
X90579Y50175D01*
X90598Y50117D01*
X90621Y50063D01*
X90644Y50021D01*
Y50017D01*
X90652Y50013D01*
X90671Y49990D01*
X90702Y49956D01*
X90744Y49921D01*
X90798Y49883D01*
X90859Y49848D01*
X90928Y49825D01*
X90967Y49821D01*
X91005Y49817D01*
X91024D01*
X91040Y49821D01*
X91078Y49829D01*
X91128Y49844D01*
X91186Y49867D01*
X91243Y49902D01*
X91274Y49925D01*
X91305Y49956D01*
X91335Y49986D01*
X91362Y50021D01*
Y50025D01*
X91370Y50033D01*
X91378Y50044D01*
X91385Y50063D01*
X91397Y50086D01*
X91408Y50121D01*
X91420Y50159D01*
X91435Y50201D01*
X91451Y50255D01*
X91462Y50313D01*
X91474Y50382D01*
X91485Y50459D01*
X91497Y50543D01*
X91501Y50635D01*
X91508Y50739D01*
Y50850D01*
Y50858D01*
Y50877D01*
Y50908D01*
X91504Y50950D01*
Y51000D01*
X91501Y51058D01*
X91497Y51119D01*
X91489Y51188D01*
X91474Y51327D01*
X91447Y51461D01*
X91431Y51526D01*
X91412Y51584D01*
X91389Y51634D01*
X91362Y51676D01*
Y51680D01*
X91355Y51684D01*
X91335Y51707D01*
X91305Y51741D01*
X91262Y51780D01*
X91209Y51818D01*
X91147Y51853D01*
X91078Y51876D01*
X91040Y51880D01*
X91001Y51883D01*
D02*
G37*
G36*
X87299Y31080D02*
X87276D01*
X87258Y31076D01*
X87212Y31071D01*
X87152Y31053D01*
X87087Y31025D01*
X87018Y30988D01*
X86949Y30933D01*
X86917Y30896D01*
X86889Y30859D01*
Y30854D01*
X86880Y30845D01*
X86870Y30827D01*
X86861Y30804D01*
X86847Y30771D01*
X86829Y30734D01*
X86810Y30684D01*
X86797Y30628D01*
X86778Y30564D01*
X86760Y30490D01*
X86746Y30407D01*
X86727Y30310D01*
X86718Y30209D01*
X86709Y30098D01*
X86700Y29974D01*
Y29840D01*
Y29831D01*
Y29808D01*
Y29771D01*
X86704Y29720D01*
Y29660D01*
X86709Y29591D01*
X86714Y29513D01*
X86723Y29434D01*
X86741Y29269D01*
X86774Y29103D01*
X86792Y29029D01*
X86815Y28960D01*
X86843Y28895D01*
X86870Y28844D01*
Y28840D01*
X86880Y28835D01*
X86903Y28808D01*
X86940Y28766D01*
X86990Y28725D01*
X87055Y28678D01*
X87129Y28637D01*
X87212Y28609D01*
X87258Y28605D01*
X87304Y28600D01*
X87327D01*
X87345Y28605D01*
X87391Y28614D01*
X87451Y28632D01*
X87520Y28660D01*
X87590Y28701D01*
X87626Y28729D01*
X87663Y28766D01*
X87700Y28803D01*
X87732Y28844D01*
Y28849D01*
X87742Y28858D01*
X87751Y28872D01*
X87760Y28895D01*
X87774Y28923D01*
X87788Y28964D01*
X87802Y29010D01*
X87820Y29061D01*
X87839Y29125D01*
X87852Y29195D01*
X87866Y29278D01*
X87880Y29370D01*
X87894Y29471D01*
X87898Y29582D01*
X87908Y29706D01*
Y29840D01*
Y29849D01*
Y29872D01*
Y29909D01*
X87903Y29960D01*
Y30020D01*
X87898Y30089D01*
X87894Y30163D01*
X87885Y30246D01*
X87866Y30412D01*
X87834Y30573D01*
X87815Y30652D01*
X87792Y30721D01*
X87765Y30781D01*
X87732Y30831D01*
Y30836D01*
X87723Y30841D01*
X87700Y30868D01*
X87663Y30910D01*
X87613Y30956D01*
X87548Y31002D01*
X87474Y31043D01*
X87391Y31071D01*
X87345Y31076D01*
X87299Y31080D01*
D02*
G37*
G36*
X91001Y38104D02*
X90982D01*
X90967Y38100D01*
X90928Y38096D01*
X90878Y38081D01*
X90825Y38058D01*
X90767Y38027D01*
X90709Y37981D01*
X90683Y37950D01*
X90659Y37920D01*
Y37916D01*
X90652Y37908D01*
X90644Y37893D01*
X90636Y37874D01*
X90625Y37847D01*
X90610Y37816D01*
X90594Y37774D01*
X90583Y37728D01*
X90567Y37674D01*
X90552Y37612D01*
X90540Y37543D01*
X90525Y37463D01*
X90517Y37378D01*
X90510Y37286D01*
X90502Y37182D01*
Y37071D01*
Y37063D01*
Y37044D01*
Y37013D01*
X90506Y36971D01*
Y36921D01*
X90510Y36864D01*
X90514Y36798D01*
X90521Y36733D01*
X90537Y36595D01*
X90563Y36457D01*
X90579Y36395D01*
X90598Y36338D01*
X90621Y36284D01*
X90644Y36241D01*
Y36238D01*
X90652Y36234D01*
X90671Y36211D01*
X90702Y36176D01*
X90744Y36142D01*
X90798Y36103D01*
X90859Y36069D01*
X90928Y36046D01*
X90967Y36042D01*
X91005Y36038D01*
X91024D01*
X91040Y36042D01*
X91078Y36050D01*
X91128Y36065D01*
X91186Y36088D01*
X91243Y36123D01*
X91274Y36145D01*
X91305Y36176D01*
X91335Y36207D01*
X91362Y36241D01*
Y36245D01*
X91370Y36253D01*
X91378Y36265D01*
X91385Y36284D01*
X91397Y36307D01*
X91408Y36341D01*
X91420Y36380D01*
X91435Y36422D01*
X91451Y36476D01*
X91462Y36533D01*
X91474Y36603D01*
X91485Y36679D01*
X91497Y36764D01*
X91501Y36856D01*
X91508Y36960D01*
Y37071D01*
Y37079D01*
Y37098D01*
Y37128D01*
X91504Y37171D01*
Y37221D01*
X91501Y37278D01*
X91497Y37340D01*
X91489Y37409D01*
X91474Y37547D01*
X91447Y37681D01*
X91431Y37747D01*
X91412Y37804D01*
X91389Y37854D01*
X91362Y37896D01*
Y37900D01*
X91355Y37904D01*
X91335Y37927D01*
X91305Y37962D01*
X91262Y38000D01*
X91209Y38039D01*
X91147Y38073D01*
X91078Y38096D01*
X91040Y38100D01*
X91001Y38104D01*
D02*
G37*
%LPD*%
D10*
X81201Y49941D02*
G03*
X81201Y49941I-492J0D01*
G01*
X83883Y26429D02*
X84883Y27429D01*
X92083D01*
X93283Y26229D01*
X84083Y6729D02*
X93083D01*
X93283Y6929D02*
Y26229D01*
X83883Y6929D02*
Y26429D01*
M02*
