G04 Layer_Physical_Order=2*
G04 Layer_Color=16711680*
%FSLAX25Y25*%
%MOIN*%
G70*
G01*
G75*
%ADD18C,0.01000*%
%ADD19C,0.05905*%
%ADD20R,0.05905X0.05905*%
%ADD21C,0.02756*%
G36*
X100000Y7480D02*
X38976D01*
Y14961D01*
X100000D01*
Y7480D01*
D02*
G37*
G36*
X100000Y15980D02*
X98238D01*
X97859Y16480D01*
X97870Y16535D01*
X97870Y25591D01*
X97792Y25981D01*
X97571Y26311D01*
X97421Y26412D01*
Y35921D01*
X87579D01*
Y26610D01*
X26772Y26610D01*
X26381Y26533D01*
X26051Y26311D01*
X18363Y18624D01*
X18326Y18568D01*
X18275Y18523D01*
X18195Y18419D01*
X18091Y18339D01*
X18046Y18289D01*
X17990Y18251D01*
X15708Y15968D01*
X14874Y15859D01*
X14060Y15521D01*
X13361Y14985D01*
X12825Y14286D01*
X12488Y13472D01*
X12373Y12598D01*
X12488Y11725D01*
X12533Y11614D01*
X12488Y11503D01*
X12373Y10630D01*
X12488Y9756D01*
X12533Y9646D01*
X12488Y9535D01*
X12373Y8661D01*
X12488Y7788D01*
X12533Y7677D01*
X12488Y7566D01*
X12373Y6693D01*
X12488Y5819D01*
X12825Y5005D01*
X13361Y4306D01*
X14060Y3770D01*
X14874Y3433D01*
X15748Y3318D01*
X16622Y3433D01*
X17436Y3770D01*
X17864Y4098D01*
X34646D01*
X35036Y4176D01*
X35367Y4397D01*
X35588Y4728D01*
X35665Y5118D01*
X35665Y13357D01*
X36760Y14452D01*
X37234Y14219D01*
X37176Y13780D01*
X37291Y12906D01*
X37628Y12092D01*
X37957Y11664D01*
Y11171D01*
X37628Y10743D01*
X37291Y9929D01*
X37176Y9055D01*
X37291Y8181D01*
X37628Y7367D01*
X38164Y6668D01*
X38864Y6132D01*
X39678Y5795D01*
X40551Y5680D01*
X41339Y5783D01*
X42126Y5680D01*
X43000Y5795D01*
X43814Y6132D01*
X44242Y6461D01*
X90599D01*
X91215Y6205D01*
X92500Y6036D01*
X93785Y6205D01*
X94401Y6461D01*
X100000D01*
X100000Y-6693D01*
X100000Y-12146D01*
X99647Y-12500D01*
X-7000D01*
X-7000Y43500D01*
X100000D01*
X100000Y15980D01*
D02*
G37*
G36*
X96850Y16535D02*
X44032D01*
X43814Y16703D01*
X43000Y17040D01*
X42126Y17155D01*
X41339Y17051D01*
X40551Y17155D01*
X39678Y17040D01*
X38864Y16703D01*
X38646Y16535D01*
X37402D01*
X34646Y13780D01*
X34646Y5118D01*
X14961D01*
X14961Y13780D01*
X18711Y17530D01*
X18922Y17692D01*
X19084Y17903D01*
X26772Y25591D01*
X96850Y25591D01*
X96850Y16535D01*
D02*
G37*
%LPC*%
G36*
X0Y3987D02*
X-1032Y3851D01*
X-1993Y3453D01*
X-2819Y2819D01*
X-3453Y1993D01*
X-3851Y1032D01*
X-3987Y0D01*
X-3851Y-1032D01*
X-3453Y-1993D01*
X-2819Y-2819D01*
X-1993Y-3453D01*
X-1032Y-3851D01*
X0Y-3987D01*
X1032Y-3851D01*
X1993Y-3453D01*
X2819Y-2819D01*
X3453Y-1993D01*
X3851Y-1032D01*
X3987Y0D01*
X3851Y1032D01*
X3453Y1993D01*
X2819Y2819D01*
X1993Y3453D01*
X1032Y3851D01*
X0Y3987D01*
D02*
G37*
G36*
Y13987D02*
X-1032Y13851D01*
X-1993Y13453D01*
X-2819Y12819D01*
X-3453Y11993D01*
X-3851Y11032D01*
X-3987Y10000D01*
X-3851Y8968D01*
X-3453Y8007D01*
X-2819Y7181D01*
X-1993Y6547D01*
X-1032Y6149D01*
X0Y6013D01*
X1032Y6149D01*
X1993Y6547D01*
X2819Y7181D01*
X3453Y8007D01*
X3851Y8968D01*
X3987Y10000D01*
X3851Y11032D01*
X3453Y11993D01*
X2819Y12819D01*
X1993Y13453D01*
X1032Y13851D01*
X0Y13987D01*
D02*
G37*
G36*
X46850Y42352D02*
X45977Y42237D01*
X45163Y41899D01*
X44633Y41493D01*
X20866D01*
X19903Y41302D01*
X19324Y40915D01*
X18984Y41056D01*
X18110Y41171D01*
X17237Y41056D01*
X16423Y40718D01*
X15723Y40182D01*
X15187Y39483D01*
X14850Y38669D01*
X14735Y37795D01*
X14850Y36922D01*
X15187Y36108D01*
X15723Y35409D01*
X16423Y34872D01*
X17237Y34535D01*
X18110Y34420D01*
X18984Y34535D01*
X19798Y34872D01*
X20497Y35409D01*
X20525Y35446D01*
X20648Y35470D01*
X21465Y36016D01*
X21909Y36459D01*
X44633D01*
X45163Y36053D01*
X45977Y35716D01*
X46850Y35601D01*
X47724Y35716D01*
X48538Y36053D01*
X49237Y36590D01*
X49773Y37289D01*
X50111Y38103D01*
X50226Y38976D01*
X50111Y39850D01*
X49773Y40664D01*
X49237Y41363D01*
X48538Y41899D01*
X47724Y42237D01*
X46850Y42352D01*
D02*
G37*
G36*
X3953Y33953D02*
X-3953D01*
Y26047D01*
X3953D01*
Y33953D01*
D02*
G37*
G36*
X0Y23987D02*
X-1032Y23851D01*
X-1993Y23453D01*
X-2819Y22819D01*
X-3453Y21993D01*
X-3851Y21032D01*
X-3987Y20000D01*
X-3851Y18968D01*
X-3453Y18007D01*
X-2819Y17181D01*
X-1993Y16547D01*
X-1032Y16149D01*
X0Y16013D01*
X1032Y16149D01*
X1993Y16547D01*
X2819Y17181D01*
X3453Y18007D01*
X3851Y18968D01*
X3987Y20000D01*
X3851Y21032D01*
X3453Y21993D01*
X2819Y22819D01*
X1993Y23453D01*
X1032Y23851D01*
X0Y23987D01*
D02*
G37*
%LPD*%
D18*
X18110Y37795D02*
X19685D01*
X20866Y38976D01*
X46850D01*
D19*
X0Y0D02*
D03*
Y10000D02*
D03*
Y20000D02*
D03*
X92500Y1000D02*
D03*
Y11000D02*
D03*
Y21000D02*
D03*
D20*
X0Y30000D02*
D03*
X92500Y31000D02*
D03*
D21*
X18110Y37795D02*
D03*
X57874Y39370D02*
D03*
X46850Y38976D02*
D03*
X16535Y25197D02*
D03*
Y23622D02*
D03*
Y21654D02*
D03*
Y20079D02*
D03*
X15748Y10630D02*
D03*
Y8661D02*
D03*
Y12598D02*
D03*
X16535Y27165D02*
D03*
X42126Y13780D02*
D03*
Y9055D02*
D03*
X15748Y6693D02*
D03*
X40551Y9055D02*
D03*
Y13780D02*
D03*
M02*
