G04 Layer_Color=8388736*
%FSLAX25Y25*%
%MOIN*%
G70*
G01*
G75*
%ADD23R,0.02847X0.02847*%
%ADD24R,0.07296X0.06312*%
%ADD25R,0.02847X0.02847*%
%ADD26R,0.03950X0.02178*%
%ADD27R,0.06863X0.03477*%
%ADD28R,0.02178X0.03950*%
%ADD29R,0.02080X0.03950*%
%ADD30R,0.03950X0.01981*%
%ADD31C,0.06706*%
%ADD32R,0.06706X0.06706*%
%ADD33C,0.03556*%
D23*
X76772Y39764D02*
D03*
Y36614D02*
D03*
X74410Y-6299D02*
D03*
Y-9449D02*
D03*
X14173Y31890D02*
D03*
Y35039D02*
D03*
D24*
X81496Y-1673D02*
D03*
Y10335D02*
D03*
D25*
X86221Y20866D02*
D03*
X83071D02*
D03*
X40157Y39370D02*
D03*
X43307D02*
D03*
X53543D02*
D03*
X50394D02*
D03*
D26*
X71457Y29488D02*
D03*
Y19252D02*
D03*
X20315Y11457D02*
D03*
Y1221D02*
D03*
D27*
X21732Y19370D02*
D03*
X70039Y11339D02*
D03*
D28*
X22835Y35236D02*
D03*
X25394D02*
D03*
X27953D02*
D03*
X30512D02*
D03*
X43307D02*
D03*
X50807Y35236D02*
D03*
X67913Y35236D02*
D03*
X36417Y35236D02*
D03*
X55354Y-4528D02*
D03*
X23858Y-4528D02*
D03*
X40965Y-4528D02*
D03*
X48465Y-4528D02*
D03*
X61260D02*
D03*
X63819D02*
D03*
X66378D02*
D03*
X68937D02*
D03*
D29*
X57726Y35236D02*
D03*
X34045Y-4528D02*
D03*
D30*
X20276Y31890D02*
D03*
Y22835D02*
D03*
X71496Y7874D02*
D03*
Y-1181D02*
D03*
D31*
X0Y0D02*
D03*
Y10000D02*
D03*
Y20000D02*
D03*
X92500Y1000D02*
D03*
Y11000D02*
D03*
Y21000D02*
D03*
D32*
X0Y30000D02*
D03*
X92500Y31000D02*
D03*
D33*
X18110Y37795D02*
D03*
X57874Y39370D02*
D03*
X46850Y38976D02*
D03*
X16535Y25197D02*
D03*
Y23622D02*
D03*
Y21654D02*
D03*
Y20079D02*
D03*
X15748Y10630D02*
D03*
Y8661D02*
D03*
Y12598D02*
D03*
X16535Y27165D02*
D03*
X42126Y13780D02*
D03*
Y9055D02*
D03*
X15748Y6693D02*
D03*
X40551Y9055D02*
D03*
Y13780D02*
D03*
M02*
