M48
;Layer_Color=9474304
;FILE_FORMAT=2:5
INCH,LZ
;TYPE=PLATED
T1F00S00C0.01181
T2F00S00C0.03543
%
T01
X0047638Y0021654
X0049213
X0050787Y0021567
X0050842Y0026378
X0049213
X0047638
X0053937Y0051575
X0066984Y0052362
X0025984Y0050394
X0023622
X0023622Y0039764
Y0037795
Y003622
Y0034252
Y0032677
X0022835Y0025197
Y0023228
Y002126
Y0019291
T02
X0099587Y0013598
Y0023598
Y0033598
Y0043598
X0007087Y0042598
Y0032598
Y0022598
Y0012598
M30
