G04*
G04 #@! TF.GenerationSoftware,Altium Limited,Altium NEXUS,1.1.6 (48)*
G04*
G04 Layer_Physical_Order=1*
G04 Layer_Color=255*
%FSLAX25Y25*%
%MOIN*%
G70*
G01*
G75*
%ADD11R,0.03150X0.01378*%
%ADD12R,0.06063X0.02677*%
%ADD13R,0.01378X0.03150*%
%ADD14R,0.01280X0.03150*%
%ADD15R,0.03150X0.01181*%
%ADD16R,0.02047X0.02047*%
%ADD17R,0.02047X0.02047*%
%ADD18R,0.06496X0.05512*%
%ADD29C,0.01000*%
%ADD30C,0.05906*%
%ADD31R,0.05906X0.05906*%
%ADD32C,0.02756*%
G36*
X81835Y52223D02*
Y51413D01*
X68319D01*
X68220Y51394D01*
X68120D01*
X68027Y51355D01*
X67928Y51336D01*
X67845Y51280D01*
X67752Y51241D01*
X67514Y51082D01*
X66984Y50977D01*
X66454Y51083D01*
X66216Y51241D01*
X66124Y51280D01*
X66040Y51336D01*
X65942Y51355D01*
X65849Y51394D01*
X65749D01*
X65650Y51413D01*
X64173D01*
X63783Y51336D01*
X63452Y51115D01*
X63231Y50784D01*
X63165Y50449D01*
X62976D01*
Y49547D01*
X62957Y49449D01*
X62957Y30315D01*
X63034Y29925D01*
X63255Y29594D01*
X63264Y29588D01*
X63112Y29089D01*
X62598D01*
X62013Y28972D01*
X61517Y28640D01*
X60139Y27262D01*
X59731Y27562D01*
X60274Y28603D01*
X60287Y28646D01*
X60312Y28684D01*
X60342Y28836D01*
X60386Y28984D01*
X60381Y29030D01*
X60390Y29074D01*
X60390Y45871D01*
X60743Y46224D01*
X61185D01*
X61575Y46302D01*
X61906Y46523D01*
X61906Y46523D01*
X62127Y46854D01*
X62205Y47244D01*
X62205Y49591D01*
X62127Y49981D01*
X61906Y50312D01*
X61552Y50666D01*
X61222Y50887D01*
X60831Y50964D01*
X59626D01*
Y53543D01*
X59763Y53711D01*
X80347D01*
X81835Y52223D01*
D02*
G37*
G36*
X103937Y38976D02*
X88583D01*
X79921Y30315D01*
X77362D01*
Y30315D01*
X63976D01*
X63976Y49449D01*
X64173D01*
Y50394D01*
X65650D01*
X66057Y50122D01*
X66984Y49938D01*
X67912Y50122D01*
X68319Y50394D01*
X81835D01*
Y50339D01*
X85882D01*
Y50394D01*
X103937D01*
X103937Y38976D01*
D02*
G37*
G36*
X58606Y53543D02*
Y52402D01*
D01*
Y49945D01*
X60831D01*
X61185Y49591D01*
X61185Y47244D01*
X58661Y47244D01*
Y46693D01*
X59370D01*
X59370Y29074D01*
X57008Y24547D01*
X57008Y10979D01*
X57024Y10963D01*
X57024Y6630D01*
X55073Y4679D01*
X48077D01*
X46157Y6598D01*
X46158Y9291D01*
X46142D01*
Y27343D01*
X48465Y31831D01*
X48465Y45551D01*
X49508Y46595D01*
Y49449D01*
X49761Y49449D01*
Y53543D01*
X58606Y53543D01*
D02*
G37*
G36*
X28346Y50000D02*
X30595D01*
Y46457D01*
X23283D01*
Y46512D01*
X19685D01*
Y49213D01*
X20472D01*
X23002Y51742D01*
X26604D01*
X28346Y50000D01*
D02*
G37*
G36*
X43438Y55444D02*
X42423Y54428D01*
X42091Y53932D01*
X41974Y53347D01*
Y50449D01*
X41618D01*
Y45299D01*
X44996D01*
Y47647D01*
X45033Y47835D01*
Y52713D01*
X46031Y53711D01*
X48370D01*
Y49945D01*
X48370D01*
X48488Y49449D01*
Y47017D01*
X47744Y46272D01*
X47656Y46140D01*
X47523Y45941D01*
X47523Y45941D01*
X47523Y45941D01*
X47493Y45794D01*
X47445Y45551D01*
X47445Y32079D01*
X45236Y27811D01*
X45224Y27769D01*
X45200Y27733D01*
X45169Y27579D01*
X45126Y27429D01*
X45131Y27385D01*
X45122Y27343D01*
Y9291D01*
X45138Y9212D01*
X45138Y6599D01*
X45215Y6208D01*
X45436Y5878D01*
X46173Y5141D01*
X45982Y4679D01*
X25043D01*
X10924Y18798D01*
X10428Y19129D01*
X9993Y19216D01*
X9818Y19712D01*
X9906Y19779D01*
X10539Y20605D01*
X10938Y21567D01*
X11073Y22598D01*
X10938Y23630D01*
X10539Y24592D01*
X9906Y25418D01*
X9080Y26051D01*
X8118Y26449D01*
X7087Y26585D01*
X6055Y26449D01*
X5591Y26257D01*
X4163Y27685D01*
Y29229D01*
X4663Y29476D01*
X5093Y29146D01*
X6055Y28747D01*
X7087Y28612D01*
X8118Y28747D01*
X9080Y29146D01*
X9906Y29779D01*
X10539Y30605D01*
X10938Y31567D01*
X11073Y32598D01*
X10961Y33454D01*
X15648Y38142D01*
X15980Y38638D01*
X16096Y39224D01*
Y46611D01*
X18203Y48718D01*
X18665Y48526D01*
Y46512D01*
X18743Y46122D01*
X18964Y45791D01*
X19295Y45570D01*
X19685Y45492D01*
X23006D01*
X23283Y45437D01*
X28035D01*
Y45299D01*
X33972D01*
Y50449D01*
X33813D01*
Y52147D01*
X33696Y52732D01*
X33365Y53229D01*
X33313Y53280D01*
X33505Y53742D01*
X34252D01*
X35699Y52296D01*
Y48205D01*
X35713Y48136D01*
Y45299D01*
X39091D01*
Y47647D01*
X39128Y47835D01*
X39091Y48022D01*
Y50449D01*
X38758D01*
Y52929D01*
X38641Y53514D01*
X38310Y54011D01*
X36877Y55444D01*
X37068Y55905D01*
X43247D01*
X43438Y55444D01*
D02*
G37*
G36*
X107087Y27950D02*
X106937Y27823D01*
X106587Y27634D01*
X106299Y27692D01*
X85015D01*
X85009Y27690D01*
X85003Y27692D01*
X84815Y27652D01*
X84625Y27614D01*
X84620Y27610D01*
X84614Y27609D01*
X84455Y27500D01*
X84294Y27393D01*
X84291Y27388D01*
X84285Y27384D01*
X84181Y27223D01*
X84073Y27062D01*
X84072Y27056D01*
X84069Y27051D01*
X84033Y26861D01*
X83996Y26672D01*
X83997Y26666D01*
X83996Y26659D01*
X84087Y19262D01*
X84127Y19073D01*
X84165Y18884D01*
X84168Y18879D01*
X84170Y18873D01*
X84279Y18713D01*
X84386Y18553D01*
X84391Y18550D01*
X84395Y18544D01*
X84556Y18440D01*
X84717Y18332D01*
X84723Y18331D01*
X84728Y18328D01*
X84918Y18292D01*
X85107Y18255D01*
X103589D01*
Y9689D01*
X98579Y4679D01*
X83520D01*
Y5118D01*
Y5173D01*
X79472D01*
Y4697D01*
X78972Y4687D01*
X77553Y6106D01*
Y8071D01*
X77516Y8258D01*
Y10685D01*
X69020D01*
Y5536D01*
X69020Y5536D01*
X69020D01*
X68746Y5161D01*
X68264Y4679D01*
X57168D01*
X56977Y5141D01*
X57745Y5909D01*
X57966Y6240D01*
X58043Y6630D01*
X58043Y10963D01*
X58028Y11042D01*
X58027Y24297D01*
X58600Y25395D01*
X59101Y25273D01*
Y12677D01*
X59217Y12092D01*
X59548Y11596D01*
X60555Y10589D01*
Y5536D01*
X63933D01*
Y7884D01*
X63970Y8071D01*
Y10866D01*
X63854Y11451D01*
X63522Y11948D01*
X62159Y13311D01*
Y24957D01*
X63232Y26030D01*
X80709D01*
X81294Y26146D01*
X81790Y26478D01*
X87248Y31935D01*
X88134D01*
Y31441D01*
X95331D01*
Y31935D01*
X95997D01*
X96134Y31605D01*
X96767Y30779D01*
X97593Y30146D01*
X98555Y29747D01*
X99587Y29612D01*
X100619Y29747D01*
X101580Y30146D01*
X102406Y30779D01*
X103039Y31605D01*
X103438Y32567D01*
X103574Y33598D01*
X103438Y34630D01*
X103039Y35592D01*
X102406Y36418D01*
X101580Y37051D01*
X100619Y37449D01*
X100563Y37457D01*
X100595Y37957D01*
X103937D01*
X104327Y38034D01*
X104658Y38255D01*
X104879Y38586D01*
X104957Y38976D01*
X104957Y50394D01*
X104879Y50784D01*
X104658Y51115D01*
X104327Y51336D01*
X103937Y51413D01*
X85882D01*
Y54386D01*
X83997D01*
X82940Y55444D01*
X83131Y55905D01*
X107087D01*
Y27950D01*
D02*
G37*
G36*
X106299Y19274D02*
X85107D01*
X85063Y22792D01*
X85021Y26209D01*
D01*
X85015Y26672D01*
X106299D01*
Y19274D01*
D02*
G37*
%LPC*%
G36*
X41732Y28185D02*
X21260D01*
X21084Y28150D01*
X20908Y28122D01*
X20890Y28111D01*
X20870Y28107D01*
X20721Y28008D01*
X20568Y27915D01*
X20556Y27898D01*
X20539Y27886D01*
X20439Y27738D01*
X20334Y27593D01*
X20329Y27573D01*
X20318Y27556D01*
X20283Y27380D01*
X20241Y27206D01*
X19846Y17330D01*
X19848Y17320D01*
X19845Y17310D01*
X19879Y17124D01*
X19908Y16938D01*
X19913Y16929D01*
X19915Y16918D01*
X20017Y16759D01*
X20116Y16598D01*
X20124Y16592D01*
X20130Y16583D01*
X20476Y16223D01*
X20484Y16217D01*
X20490Y16208D01*
X20647Y16103D01*
X20802Y15995D01*
X20812Y15993D01*
X20821Y15987D01*
X21006Y15950D01*
X21191Y15910D01*
X21201Y15912D01*
X21211Y15910D01*
X24297D01*
X24630Y15547D01*
Y12169D01*
X27169D01*
X27169Y9130D01*
X27247Y8739D01*
X27468Y8409D01*
X27799Y8188D01*
X28189Y8110D01*
X28686D01*
X29040Y7756D01*
X29040Y6535D01*
X29059Y6437D01*
Y5535D01*
X29961D01*
X30059Y5516D01*
X31437D01*
X31536Y5535D01*
X32437D01*
Y6437D01*
X32457Y6535D01*
X32457Y8075D01*
X39276D01*
X39276Y6536D01*
X39295Y6437D01*
Y5535D01*
X40197D01*
X40295Y5516D01*
X41575D01*
X41673Y5535D01*
X42575D01*
Y6437D01*
X42595Y6536D01*
X42594Y16420D01*
X42674Y16539D01*
X42752Y16929D01*
Y27165D01*
X42674Y27556D01*
X42453Y27886D01*
X42123Y28107D01*
X41732Y28185D01*
D02*
G37*
%LPD*%
G36*
Y16929D02*
X41575D01*
X41575Y6536D01*
X40295D01*
X40295Y9094D01*
X31437D01*
X31437Y6535D01*
X30059D01*
X30059Y9130D01*
X28189D01*
X28189Y13228D01*
X25827Y13228D01*
X25827Y14508D01*
X28189D01*
Y16929D01*
X21211D01*
X20865Y17290D01*
X21260Y27165D01*
X41732D01*
Y16929D01*
D02*
G37*
D11*
X27205Y13858D02*
D03*
Y24094D02*
D03*
X78347Y31890D02*
D03*
Y42126D02*
D03*
D12*
X76929Y23976D02*
D03*
X28622Y32008D02*
D03*
D13*
X75827Y8110D02*
D03*
X73268D02*
D03*
X70709D02*
D03*
X68150D02*
D03*
X55354D02*
D03*
X47854Y8110D02*
D03*
X30748Y8110D02*
D03*
X62244Y8110D02*
D03*
X43307Y47874D02*
D03*
X74803Y47874D02*
D03*
X57697Y47874D02*
D03*
X50197Y47874D02*
D03*
X37402D02*
D03*
X34843D02*
D03*
X32283D02*
D03*
X29724D02*
D03*
D14*
X40935Y8110D02*
D03*
X64616Y47874D02*
D03*
D15*
X78386Y11457D02*
D03*
Y20512D02*
D03*
X27165Y35472D02*
D03*
Y44528D02*
D03*
D16*
X57480Y51968D02*
D03*
X60630D02*
D03*
X50394D02*
D03*
X47244D02*
D03*
X90158Y33465D02*
D03*
X93307D02*
D03*
D17*
X21260Y47638D02*
D03*
Y44488D02*
D03*
X81496Y3150D02*
D03*
Y6299D02*
D03*
X83858Y49213D02*
D03*
Y52362D02*
D03*
D18*
X88583Y22933D02*
D03*
Y10925D02*
D03*
D29*
X3594Y17717D02*
X9843D01*
X634Y20677D02*
X3594Y17717D01*
X634Y20677D02*
Y36146D01*
X61023Y52362D02*
X66984D01*
X32283Y48522D02*
X32299Y48506D01*
X32283Y48522D02*
Y52147D01*
X31159Y53272D02*
X32283Y52147D01*
X80980Y55240D02*
X83433Y52787D01*
X43504Y53347D02*
X45397Y55240D01*
X80980D01*
X60630Y51968D02*
X61023Y52362D01*
X47244Y47136D02*
Y51968D01*
X41151Y41043D02*
X47244Y47136D01*
X83433Y52362D02*
Y52787D01*
X76024Y5472D02*
Y8071D01*
X70906Y5158D02*
Y8071D01*
X73465Y3386D02*
Y8071D01*
X43504Y47835D02*
Y53347D01*
X62441Y8071D02*
Y10866D01*
X37228Y48205D02*
Y52929D01*
X81496Y3150D02*
X99213D01*
X78347D02*
X81496D01*
X37228Y48205D02*
X37598Y47835D01*
X86614Y33465D02*
X90158D01*
X60630Y12677D02*
X62441Y10866D01*
X93307Y33465D02*
X99453D01*
X99587Y33598D01*
X634Y36146D02*
X7087Y42598D01*
X2634Y27051D02*
Y34874D01*
X5906Y38146D01*
X10661D01*
X14567Y39224D02*
Y47244D01*
X10661Y38146D02*
X12567Y40052D01*
Y48394D01*
X2634Y27051D02*
X7087Y22598D01*
X7942Y32598D02*
X14567Y39224D01*
X7087Y32598D02*
X7942D01*
X9843Y17717D02*
X24409Y3150D01*
X68898D01*
X70906Y5158D01*
X7087Y12598D02*
X18535Y1150D01*
X71228D01*
X73465Y3386D01*
X76024Y5472D02*
X78347Y3150D01*
X60630Y12677D02*
Y25591D01*
X80709Y27559D02*
X86614Y33465D01*
X60630Y25591D02*
X62598Y27559D01*
X80709D01*
X19445Y55272D02*
X34886D01*
X20595Y53272D02*
X31159D01*
X14567Y47244D02*
X20595Y53272D01*
X12567Y48394D02*
X19445Y55272D01*
X34886D02*
X37228Y52929D01*
X99213Y3150D02*
X105118Y9055D01*
Y20866D01*
D30*
X99587Y13598D02*
D03*
Y23598D02*
D03*
Y33598D02*
D03*
X7087Y12598D02*
D03*
Y22598D02*
D03*
Y32598D02*
D03*
D31*
X99587Y43598D02*
D03*
X7087Y42598D02*
D03*
D32*
X50787Y26181D02*
D03*
X48819D02*
D03*
X50787Y21654D02*
D03*
X52756D02*
D03*
Y26181D02*
D03*
X23622Y50394D02*
D03*
X25984D02*
D03*
X66984Y52362D02*
D03*
X48819Y21654D02*
D03*
X22835Y19291D02*
D03*
X23622Y39764D02*
D03*
X22835Y25197D02*
D03*
Y21260D02*
D03*
Y23228D02*
D03*
X23622Y32677D02*
D03*
Y34252D02*
D03*
Y36220D02*
D03*
Y37795D02*
D03*
X53937Y51575D02*
D03*
M02*
