G04*
G04 #@! TF.GenerationSoftware,Altium Limited,Altium NEXUS,1.1.6 (48)*
G04*
G04 Layer_Physical_Order=2*
G04 Layer_Color=16711680*
%FSLAX25Y25*%
%MOIN*%
G70*
G01*
G75*
%ADD31C,0.05906*%
%ADD32R,0.05906X0.05906*%
%ADD33C,0.02756*%
%ADD34C,0.01968*%
G36*
X107087Y55905D02*
X107087D01*
Y29079D01*
X107087Y29079D01*
Y28579D01*
X105324D01*
X104946Y29079D01*
X104957Y29134D01*
X104957Y38189D01*
X104879Y38579D01*
X104658Y38910D01*
X104327Y39131D01*
X103937Y39209D01*
X103691D01*
X103539Y39709D01*
Y47551D01*
X95634D01*
Y39709D01*
X95634Y39646D01*
X95482Y39209D01*
X33858Y39209D01*
X33468Y39131D01*
X33137Y38910D01*
X21326Y27099D01*
X21266Y27009D01*
X21120Y26911D01*
X20595Y26125D01*
X20410Y25197D01*
X20595Y24269D01*
X20632Y24213D01*
X20595Y24156D01*
X20410Y23228D01*
X20595Y22300D01*
X20632Y22244D01*
X20595Y22188D01*
X20410Y21260D01*
X20595Y20332D01*
X20632Y20276D01*
X20595Y20219D01*
X20410Y19291D01*
X20595Y18363D01*
X21028Y17715D01*
X21105Y17326D01*
X21326Y16996D01*
X21657Y16774D01*
X22047Y16697D01*
X41732D01*
X42122Y16774D01*
X42453Y16996D01*
X42674Y17326D01*
X42752Y17717D01*
X42752Y25956D01*
X44578Y27782D01*
X45001Y27579D01*
X45043Y27540D01*
Y20079D01*
X45121Y19689D01*
X45342Y19358D01*
X45673Y19137D01*
X46063Y19059D01*
X107087D01*
D01*
X107087Y19059D01*
Y4845D01*
X107087Y452D01*
X107087Y452D01*
Y0D01*
X0D01*
Y55905D01*
X87D01*
Y56098D01*
X107087D01*
Y55905D01*
D02*
G37*
G36*
X103543Y27953D02*
Y27559D01*
X107087D01*
Y20079D01*
X46063D01*
Y27559D01*
X69291D01*
X69685Y27953D01*
X103543Y27953D01*
D02*
G37*
G36*
X103937Y29134D02*
X44488D01*
X41732Y26378D01*
X41732Y17717D01*
X22047D01*
X22047Y26378D01*
X33858Y38189D01*
X103937Y38189D01*
X103937Y29134D01*
D02*
G37*
%LPC*%
G36*
X53937Y53999D02*
X53009Y53815D01*
X52685Y53598D01*
X27953D01*
X27178Y53444D01*
X26522Y53005D01*
X26277Y52760D01*
X25984Y52818D01*
X25056Y52634D01*
X24803Y52464D01*
X24550Y52634D01*
X23622Y52818D01*
X22694Y52634D01*
X21908Y52108D01*
X21382Y51322D01*
X21197Y50394D01*
X21382Y49466D01*
X21908Y48679D01*
X22694Y48154D01*
X23622Y47969D01*
X24550Y48154D01*
X24803Y48323D01*
X25056Y48154D01*
X25984Y47969D01*
X26912Y48154D01*
X27434Y48502D01*
X27546Y48525D01*
X28202Y48963D01*
X28791Y49552D01*
X52685D01*
X53009Y49335D01*
X53937Y49150D01*
X54865Y49335D01*
X55651Y49860D01*
X56177Y50647D01*
X56362Y51575D01*
X56177Y52503D01*
X55651Y53289D01*
X54865Y53815D01*
X53937Y53999D01*
D02*
G37*
G36*
X11039Y46551D02*
X3134D01*
Y38646D01*
X11039D01*
Y46551D01*
D02*
G37*
G36*
X7087Y36585D02*
X6055Y36449D01*
X5093Y36051D01*
X4267Y35418D01*
X3634Y34592D01*
X3236Y33630D01*
X3100Y32598D01*
X3236Y31567D01*
X3634Y30605D01*
X4267Y29779D01*
X5093Y29146D01*
X6055Y28747D01*
X7087Y28612D01*
X8118Y28747D01*
X9080Y29146D01*
X9906Y29779D01*
X10539Y30605D01*
X10938Y31567D01*
X11073Y32598D01*
X10938Y33630D01*
X10539Y34592D01*
X9906Y35418D01*
X9080Y36051D01*
X8118Y36449D01*
X7087Y36585D01*
D02*
G37*
G36*
Y26585D02*
X6055Y26449D01*
X5093Y26051D01*
X4267Y25418D01*
X3634Y24592D01*
X3236Y23630D01*
X3100Y22598D01*
X3236Y21567D01*
X3634Y20605D01*
X4267Y19779D01*
X5093Y19146D01*
X6055Y18747D01*
X7087Y18612D01*
X8118Y18747D01*
X9080Y19146D01*
X9906Y19779D01*
X10539Y20605D01*
X10938Y21567D01*
X11073Y22598D01*
X10938Y23630D01*
X10539Y24592D01*
X9906Y25418D01*
X9080Y26051D01*
X8118Y26449D01*
X7087Y26585D01*
D02*
G37*
G36*
Y16585D02*
X6055Y16449D01*
X5093Y16051D01*
X4267Y15418D01*
X3634Y14592D01*
X3236Y13630D01*
X3100Y12598D01*
X3236Y11567D01*
X3634Y10605D01*
X4267Y9779D01*
X5093Y9146D01*
X6055Y8747D01*
X7087Y8612D01*
X8118Y8747D01*
X9080Y9146D01*
X9906Y9779D01*
X10539Y10605D01*
X10938Y11567D01*
X11073Y12598D01*
X10938Y13630D01*
X10539Y14592D01*
X9906Y15418D01*
X9080Y16051D01*
X8118Y16449D01*
X7087Y16585D01*
D02*
G37*
%LPD*%
D31*
X99587Y13598D02*
D03*
Y23598D02*
D03*
Y33598D02*
D03*
X7087Y12598D02*
D03*
Y22598D02*
D03*
Y32598D02*
D03*
D32*
X99587Y43598D02*
D03*
X7087Y42598D02*
D03*
D33*
X50787Y21567D02*
D03*
X50842Y26378D02*
D03*
X23622Y50394D02*
D03*
X25984D02*
D03*
X66984Y52362D02*
D03*
X47638Y26378D02*
D03*
Y21654D02*
D03*
X22835Y19291D02*
D03*
X49213Y21654D02*
D03*
Y26378D02*
D03*
X23622Y39764D02*
D03*
X22835Y25197D02*
D03*
Y21260D02*
D03*
Y23228D02*
D03*
X23622Y32677D02*
D03*
Y34252D02*
D03*
Y36220D02*
D03*
Y37795D02*
D03*
X53937Y51575D02*
D03*
D34*
X23622Y50394D02*
X25984D01*
X26772D02*
X27953Y51575D01*
X25984Y50394D02*
X26772D01*
X27953Y51575D02*
X53937D01*
M02*
