G04*
G04 #@! TF.GenerationSoftware,Altium Limited,Altium NEXUS,1.1.6 (48)*
G04*
G04 Layer_Color=8388736*
%FSLAX25Y25*%
%MOIN*%
G70*
G01*
G75*
%ADD19R,0.03950X0.02178*%
%ADD20R,0.06863X0.03477*%
%ADD21R,0.02178X0.03950*%
%ADD22R,0.02080X0.03950*%
%ADD23R,0.03950X0.01981*%
%ADD24R,0.02847X0.02847*%
%ADD25R,0.02847X0.02847*%
%ADD26R,0.07296X0.06312*%
%ADD27C,0.06706*%
%ADD28R,0.06706X0.06706*%
%ADD29C,0.03556*%
G36*
X75560Y50478D02*
X75612Y50468D01*
X75661Y50451D01*
X75708Y50428D01*
X75752Y50399D01*
X75791Y50364D01*
X75826Y50325D01*
X75855Y50281D01*
X75878Y50234D01*
X75895Y50184D01*
X75905Y50133D01*
X75909Y50081D01*
Y47908D01*
X77890Y45927D01*
X77890Y43789D01*
X79740Y43789D01*
X79792Y43785D01*
X79844Y43775D01*
X79861Y43769D01*
X79894Y43758D01*
X79941Y43735D01*
X79984Y43706D01*
X80024Y43671D01*
Y43671D01*
X80024D01*
X80058Y43632D01*
X80087Y43588D01*
X80111Y43541D01*
X80122Y43508D01*
X80127Y43492D01*
X80138Y43440D01*
X80141Y43388D01*
X80141Y42108D01*
X80138Y42056D01*
X80127Y42004D01*
X80111Y41955D01*
X80087Y41908D01*
X80058Y41864D01*
X80024Y41825D01*
X79984Y41790D01*
X79941Y41761D01*
X79894Y41738D01*
X79844Y41721D01*
X79792Y41711D01*
X79740Y41707D01*
X77890D01*
X77890Y33552D01*
X79740D01*
X79792Y33549D01*
X79844Y33539D01*
X79894Y33522D01*
X79941Y33499D01*
X79984Y33470D01*
X80024Y33435D01*
X80058Y33396D01*
X80087Y33352D01*
X80111Y33305D01*
X80127Y33255D01*
X80138Y33204D01*
X80141Y33152D01*
Y31872D01*
Y31872D01*
Y31872D01*
X80138Y31820D01*
X80127Y31768D01*
X80122Y31751D01*
X80111Y31719D01*
X80087Y31672D01*
X80058Y31628D01*
X80024Y31589D01*
X80024D01*
Y31589D01*
X79984Y31554D01*
X79941Y31525D01*
X79894Y31502D01*
X79861Y31490D01*
X79844Y31485D01*
X79792Y31475D01*
X79740Y31471D01*
X79740D01*
X79740D01*
X77889Y31471D01*
X77889Y30534D01*
X63598Y30514D01*
Y30876D01*
X63595Y30895D01*
X63591Y30947D01*
X63591Y50081D01*
X63595Y50133D01*
X63605Y50184D01*
X63622Y50234D01*
X63645Y50281D01*
X63674Y50325D01*
X63709Y50364D01*
X63748Y50399D01*
X63792Y50428D01*
X63839Y50451D01*
X63888Y50468D01*
X63940Y50478D01*
X63992Y50481D01*
X65272D01*
X65324Y50478D01*
X65375Y50468D01*
X65425Y50451D01*
X65472Y50428D01*
X65516Y50399D01*
X65555Y50364D01*
X65590Y50325D01*
X65619Y50281D01*
X65642Y50234D01*
X65659Y50184D01*
X65669Y50133D01*
X65672Y50081D01*
X65672Y47923D01*
X73729D01*
X73729Y50081D01*
X73733Y50133D01*
X73743Y50185D01*
X73760Y50234D01*
X73783Y50281D01*
X73812Y50325D01*
X73847Y50364D01*
X73886Y50399D01*
X73930Y50428D01*
X73977Y50451D01*
X74026Y50468D01*
X74078Y50478D01*
X74130Y50482D01*
X75508D01*
X75560Y50478D01*
D02*
G37*
G36*
X39012Y42958D02*
X42870Y41984D01*
Y31911D01*
X33027Y31911D01*
X33028Y35120D01*
X28008D01*
Y46144D01*
X39012D01*
X39012Y42958D01*
D02*
G37*
G36*
X72555Y22128D02*
X77575D01*
Y11104D01*
X66571Y11104D01*
X66571Y14276D01*
X62752Y15241D01*
X62752Y25337D01*
X72555D01*
X72555Y22128D01*
D02*
G37*
G36*
X59780Y47758D02*
X59780Y29687D01*
X57555Y25337D01*
X57555Y10708D01*
X56287Y9529D01*
X45665Y9529D01*
Y27983D01*
X48092Y32445D01*
Y46346D01*
X49504Y47758D01*
X59780Y47758D01*
D02*
G37*
G36*
X41984Y9392D02*
X27791Y9392D01*
Y26774D01*
X41984Y26794D01*
X41984Y9392D01*
D02*
G37*
D19*
X27220Y14490D02*
D03*
Y24726D02*
D03*
X78362Y32522D02*
D03*
Y42758D02*
D03*
D20*
X76945Y24608D02*
D03*
X28638Y32640D02*
D03*
D21*
X75843Y8742D02*
D03*
X73283D02*
D03*
X70724D02*
D03*
X68165D02*
D03*
X55370D02*
D03*
X47870Y8742D02*
D03*
X30764Y8742D02*
D03*
X62260Y8742D02*
D03*
X43323Y48506D02*
D03*
X74819Y48506D02*
D03*
X57713Y48506D02*
D03*
X50213Y48506D02*
D03*
X37417D02*
D03*
X34858D02*
D03*
X32299D02*
D03*
X29740D02*
D03*
D22*
X40951Y8742D02*
D03*
X64632Y48506D02*
D03*
D23*
X78402Y12088D02*
D03*
Y21144D02*
D03*
X27181Y36104D02*
D03*
Y45159D02*
D03*
D24*
X57480Y51968D02*
D03*
X60630D02*
D03*
X50394D02*
D03*
X47244D02*
D03*
X90158Y33465D02*
D03*
X93307D02*
D03*
D25*
X21260Y47638D02*
D03*
Y44488D02*
D03*
X81496Y3150D02*
D03*
Y6299D02*
D03*
X83858Y49213D02*
D03*
Y52362D02*
D03*
D26*
X88583Y22933D02*
D03*
Y10925D02*
D03*
D27*
X99587Y13598D02*
D03*
Y23598D02*
D03*
Y33598D02*
D03*
X7087Y12598D02*
D03*
Y22598D02*
D03*
Y32598D02*
D03*
D28*
X99587Y43598D02*
D03*
X7087Y42598D02*
D03*
D29*
X50787Y21567D02*
D03*
X50842Y26378D02*
D03*
X23622Y50394D02*
D03*
X25984D02*
D03*
X66984Y52362D02*
D03*
X47638Y26378D02*
D03*
Y21654D02*
D03*
X22835Y19291D02*
D03*
X49213Y21654D02*
D03*
Y26378D02*
D03*
X23622Y39764D02*
D03*
X22835Y25197D02*
D03*
Y21260D02*
D03*
Y23228D02*
D03*
X23622Y32677D02*
D03*
Y34252D02*
D03*
Y36220D02*
D03*
Y37795D02*
D03*
X53937Y51575D02*
D03*
M02*
