G04*
G04 #@! TF.GenerationSoftware,Altium Limited,Altium NEXUS,1.1.6 (48)*
G04*
G04 Layer_Color=8421504*
%FSLAX25Y25*%
%MOIN*%
G70*
G01*
G75*
%ADD11R,0.03150X0.01378*%
%ADD12R,0.06063X0.02677*%
%ADD13R,0.01378X0.03150*%
%ADD14R,0.01280X0.03150*%
%ADD15R,0.03150X0.01181*%
%ADD16R,0.02047X0.02047*%
%ADD17R,0.02047X0.02047*%
%ADD18R,0.06496X0.05512*%
G36*
X33209Y40689D02*
X28534Y40689D01*
X28534Y44902D01*
X33209Y44902D01*
X33209Y40689D01*
D02*
G37*
G36*
X69685Y39616D02*
X64173D01*
Y46624D01*
X69685D01*
Y39616D01*
D02*
G37*
G36*
X77264Y44808D02*
Y39606D01*
X71634D01*
Y46629D01*
X75443D01*
X77264Y44808D01*
D02*
G37*
G36*
X38386Y44980D02*
Y41752D01*
X42293Y40866D01*
X42293Y38051D01*
X35315Y38051D01*
X35315Y44980D01*
X38386Y44980D01*
D02*
G37*
G36*
X33287Y35039D02*
X28534Y35039D01*
X28534Y38829D01*
X33287Y38829D01*
X33287Y35039D01*
D02*
G37*
G36*
X42352Y36122D02*
X42352Y32018D01*
X35335Y32018D01*
X35335Y36122D01*
X42352Y36122D01*
D02*
G37*
G36*
X77264Y37780D02*
X77264Y30487D01*
X71614Y30487D01*
X71614Y37780D01*
X77264Y37780D01*
D02*
G37*
G36*
X69488Y30438D02*
X64193Y30438D01*
X64193Y37712D01*
X69488Y37712D01*
X69488Y30438D01*
D02*
G37*
G36*
X53071Y28676D02*
X48661Y28676D01*
X47067Y28676D01*
X48661Y31609D01*
X48662Y45379D01*
X49803Y46520D01*
X53071Y46521D01*
X53071Y28676D01*
D02*
G37*
G36*
X59095Y29255D02*
X58653Y28568D01*
X54567Y28568D01*
X54567Y46472D01*
X59095D01*
X59095Y29255D01*
D02*
G37*
G36*
X70315Y18898D02*
X63337Y18898D01*
X63337Y24026D01*
X70315Y24026D01*
X70315Y18898D01*
D02*
G37*
G36*
X33839Y18465D02*
X28327D01*
Y25443D01*
X33839D01*
Y18465D01*
D02*
G37*
G36*
X41398Y18066D02*
X35984D01*
Y25359D01*
X41398D01*
Y18066D01*
D02*
G37*
G36*
X77047Y21088D02*
X77047Y16998D01*
X72284Y16998D01*
X72284Y21088D01*
X77047Y21088D01*
D02*
G37*
G36*
X70276Y11161D02*
X67244D01*
Y14208D01*
X63307Y15103D01*
X63307Y17298D01*
X70276D01*
X70276Y11161D01*
D02*
G37*
G36*
X77057Y15256D02*
X77057Y11014D01*
X72284Y11014D01*
X72284Y15256D01*
X77057Y15256D01*
D02*
G37*
G36*
X51043Y27160D02*
X51043Y9650D01*
X46516Y9650D01*
X46516Y27161D01*
X51043Y27160D01*
D02*
G37*
G36*
X58091Y27111D02*
X56910Y24729D01*
Y10527D01*
X56004Y9621D01*
X52362Y9621D01*
X52362Y27111D01*
X58091Y27111D01*
D02*
G37*
G36*
X41388Y9291D02*
X35886D01*
Y16348D01*
X41388D01*
Y9291D01*
D02*
G37*
G36*
X33779D02*
X28346D01*
Y16378D01*
X33779D01*
Y9291D01*
D02*
G37*
D11*
X27205Y13858D02*
D03*
Y24094D02*
D03*
X78347Y31890D02*
D03*
Y42126D02*
D03*
D12*
X76929Y23976D02*
D03*
X28622Y32008D02*
D03*
D13*
X75827Y8110D02*
D03*
X73268D02*
D03*
X70709D02*
D03*
X68150D02*
D03*
X55354D02*
D03*
X47854Y8110D02*
D03*
X30748Y8110D02*
D03*
X62244Y8110D02*
D03*
X43307Y47874D02*
D03*
X74803Y47874D02*
D03*
X57697Y47874D02*
D03*
X50197Y47874D02*
D03*
X37402D02*
D03*
X34843D02*
D03*
X32283D02*
D03*
X29724D02*
D03*
D14*
X40935Y8110D02*
D03*
X64616Y47874D02*
D03*
D15*
X78386Y11457D02*
D03*
Y20512D02*
D03*
X27165Y35472D02*
D03*
Y44528D02*
D03*
D16*
X57480Y51968D02*
D03*
X60630D02*
D03*
X50394D02*
D03*
X47244D02*
D03*
X90158Y33465D02*
D03*
X93307D02*
D03*
D17*
X21260Y47638D02*
D03*
Y44488D02*
D03*
X81496Y3150D02*
D03*
Y6299D02*
D03*
X83858Y49213D02*
D03*
Y52362D02*
D03*
D18*
X88583Y22933D02*
D03*
Y10925D02*
D03*
M02*
