G04 Layer_Color=8421504*
%FSLAX25Y25*%
%MOIN*%
G70*
G01*
G75*
%ADD10R,0.02047X0.02047*%
%ADD11R,0.06496X0.05512*%
%ADD12R,0.02047X0.02047*%
%ADD13R,0.03150X0.01378*%
%ADD14R,0.06063X0.02677*%
%ADD15R,0.01378X0.03150*%
%ADD16R,0.01279X0.03150*%
%ADD17R,0.03150X0.01181*%
D10*
X76772Y39764D02*
D03*
Y36614D02*
D03*
X74410Y-6299D02*
D03*
Y-9449D02*
D03*
X14173Y31890D02*
D03*
Y35039D02*
D03*
D11*
X81496Y-1673D02*
D03*
Y10335D02*
D03*
D12*
X86221Y20866D02*
D03*
X83071D02*
D03*
X40157Y39370D02*
D03*
X43307D02*
D03*
X53543D02*
D03*
X50394D02*
D03*
D13*
X71457Y29488D02*
D03*
Y19252D02*
D03*
X20315Y11457D02*
D03*
Y1221D02*
D03*
D14*
X21732Y19370D02*
D03*
X70039Y11339D02*
D03*
D15*
X22835Y35236D02*
D03*
X25394D02*
D03*
X27953D02*
D03*
X30512D02*
D03*
X43307D02*
D03*
X50807Y35236D02*
D03*
X67913Y35236D02*
D03*
X36417Y35236D02*
D03*
X55354Y-4528D02*
D03*
X23858Y-4528D02*
D03*
X40965Y-4528D02*
D03*
X48465Y-4528D02*
D03*
X61260D02*
D03*
X63819D02*
D03*
X66378D02*
D03*
X68937D02*
D03*
D16*
X57726Y35236D02*
D03*
X34045Y-4528D02*
D03*
D17*
X20276Y31890D02*
D03*
Y22835D02*
D03*
X71496Y7874D02*
D03*
Y-1181D02*
D03*
M02*
