G04 Layer_Physical_Order=1*
G04 Layer_Color=255*
%FSLAX25Y25*%
%MOIN*%
G70*
G01*
G75*
%ADD10R,0.02165X0.01772*%
%ADD11R,0.06614X0.11614*%
%ADD12R,0.10630X0.04528*%
%ADD13R,0.02047X0.02047*%
%ADD14R,0.18504X0.09055*%
%ADD15R,0.09449X0.03937*%
%ADD16R,0.09449X0.12992*%
%ADD17R,0.08661X0.06693*%
%ADD18R,0.07480X0.05315*%
%ADD19R,0.04528X0.02362*%
%ADD20R,0.02047X0.02047*%
%ADD21R,0.07874X0.06299*%
%ADD22R,0.01968X0.02362*%
%ADD23R,0.04134X0.12795*%
%ADD24R,0.02362X0.03937*%
%ADD25O,0.03150X0.00984*%
%ADD26O,0.00984X0.03150*%
%ADD27R,0.06299X0.06299*%
%ADD28R,0.01772X0.02165*%
%ADD29R,0.06693X0.06063*%
%ADD30O,0.00787X0.02362*%
%ADD31O,0.02362X0.00787*%
%ADD32O,0.10630X0.03150*%
%ADD33C,0.01181*%
%ADD34C,0.00787*%
%ADD35C,0.01004*%
%ADD36C,0.02362*%
%ADD37C,0.23622*%
%ADD38C,0.08268*%
%ADD39C,0.05905*%
%ADD40R,0.05905X0.05905*%
%ADD41C,0.04725*%
%ADD42R,0.04725X0.04725*%
%ADD43R,0.05905X0.05905*%
%ADD44C,0.11811*%
%ADD45C,0.31823*%
%ADD46C,0.12598*%
%ADD47C,0.06000*%
%ADD48C,0.02362*%
%ADD49C,0.05000*%
%ADD50C,0.03150*%
G36*
X130804Y-6671D02*
X141404Y-11447D01*
X151829Y-16593D01*
X162067Y-22103D01*
X172104Y-27968D01*
X181930Y-34184D01*
X191530Y-40740D01*
X200894Y-47631D01*
X210010Y-54846D01*
X218867Y-62378D01*
X227453Y-70216D01*
X235758Y-78351D01*
X243772Y-86774D01*
X251485Y-95473D01*
X258888Y-104437D01*
X265970Y-113657D01*
X272724Y-123120D01*
X279141Y-132814D01*
X285213Y-142728D01*
X290933Y-152850D01*
X296294Y-163167D01*
X301288Y-173665D01*
X305910Y-184333D01*
X310154Y-195157D01*
X314015Y-206122D01*
X317488Y-217218D01*
X317775Y-218264D01*
X317343Y-218515D01*
X312652Y-213825D01*
X312117Y-213414D01*
X311495Y-213156D01*
X310827Y-213069D01*
X281919D01*
X281313Y-212603D01*
X280547Y-212286D01*
X279724Y-212178D01*
X278902Y-212286D01*
X278136Y-212603D01*
X277478Y-213108D01*
X276973Y-213766D01*
X276656Y-214532D01*
X276548Y-215354D01*
X276656Y-216177D01*
X276973Y-216943D01*
X277478Y-217601D01*
X277722Y-217788D01*
X277726Y-217844D01*
X277204Y-218625D01*
X277021Y-219547D01*
Y-221715D01*
X276776Y-222034D01*
X276459Y-222800D01*
X276351Y-223622D01*
X276459Y-224444D01*
X276776Y-225210D01*
X277281Y-225868D01*
X277939Y-226373D01*
X278705Y-226691D01*
X279528Y-226799D01*
X280350Y-226691D01*
X281116Y-226373D01*
X281774Y-225868D01*
X282279Y-225210D01*
X282596Y-224444D01*
X282704Y-223622D01*
X282693Y-223535D01*
X283316Y-223453D01*
X284083Y-223136D01*
X284703Y-222660D01*
X307395D01*
X310214Y-225479D01*
Y-251181D01*
X310302Y-251849D01*
X310560Y-252472D01*
X310970Y-253006D01*
X315135Y-257172D01*
Y-279232D01*
X315223Y-279900D01*
X315481Y-280523D01*
X315788Y-280923D01*
X315829Y-281236D01*
X316146Y-282002D01*
X316651Y-282660D01*
X317309Y-283165D01*
X318075Y-283482D01*
X318216Y-283500D01*
X318181Y-283760D01*
X318290Y-284582D01*
X318607Y-285348D01*
X319112Y-286006D01*
X319770Y-286511D01*
X320536Y-286828D01*
X321358Y-286937D01*
X322181Y-286828D01*
X322947Y-286511D01*
X323605Y-286006D01*
X324109Y-285348D01*
X324427Y-284582D01*
X324535Y-283760D01*
X324427Y-282938D01*
X324109Y-282172D01*
X324062Y-282110D01*
Y-280175D01*
X324263Y-280149D01*
X324455Y-280069D01*
X324585Y-280052D01*
X325208Y-279794D01*
X325743Y-279384D01*
X326153Y-278850D01*
X326411Y-278227D01*
X326427Y-278102D01*
X326509Y-277903D01*
X326618Y-277080D01*
X326509Y-276258D01*
X326192Y-275492D01*
X325687Y-274834D01*
X325416Y-274626D01*
Y-255368D01*
X325328Y-254700D01*
X325070Y-254078D01*
X324660Y-253543D01*
X319018Y-247902D01*
Y-224658D01*
X319514Y-224591D01*
X320568Y-228428D01*
X323252Y-239740D01*
X325537Y-251139D01*
X327420Y-262612D01*
X328898Y-274143D01*
X329970Y-285720D01*
X330634Y-297327D01*
X330889Y-308950D01*
X330736Y-320575D01*
X330174Y-332187D01*
X329204Y-343773D01*
X327826Y-355317D01*
X326045Y-366805D01*
X323860Y-378224D01*
X321274Y-389559D01*
X318292Y-400796D01*
X314917Y-411921D01*
X311153Y-422921D01*
X307004Y-433781D01*
X302476Y-444489D01*
X297573Y-455031D01*
X292304Y-465394D01*
X286673Y-475565D01*
X280688Y-485533D01*
X274356Y-495283D01*
X267686Y-504805D01*
X260684Y-514086D01*
X253361Y-523116D01*
X245724Y-531882D01*
X237784Y-540374D01*
X229551Y-548582D01*
X221033Y-556495D01*
X212243Y-564104D01*
X203191Y-571399D01*
X193888Y-578371D01*
X184345Y-585012D01*
X175065Y-590997D01*
X-174419D01*
X-183657Y-585040D01*
X-193161Y-578430D01*
X-202426Y-571491D01*
X-211444Y-564232D01*
X-220201Y-556662D01*
X-228689Y-548790D01*
X-236895Y-540625D01*
X-244810Y-532178D01*
X-252425Y-523460D01*
X-259730Y-514479D01*
X-266716Y-505249D01*
X-273374Y-495780D01*
X-279697Y-486083D01*
X-285677Y-476171D01*
X-291306Y-466056D01*
X-296577Y-455750D01*
X-301484Y-445265D01*
X-306021Y-434615D01*
X-310182Y-423813D01*
X-313963Y-412872D01*
X-317358Y-401805D01*
X-320363Y-390626D01*
X-322976Y-379349D01*
X-325192Y-367987D01*
X-327009Y-356554D01*
X-328424Y-345065D01*
X-329436Y-333534D01*
X-330044Y-321974D01*
X-330246Y-310400D01*
X-330041Y-298733D01*
X-329423Y-287081D01*
X-328395Y-275458D01*
X-326957Y-263878D01*
X-325111Y-252356D01*
X-322860Y-240907D01*
X-320205Y-229544D01*
X-317152Y-218282D01*
X-313703Y-207135D01*
X-309863Y-196116D01*
X-305637Y-185240D01*
X-301029Y-174520D01*
X-296045Y-163969D01*
X-290693Y-153600D01*
X-284978Y-143427D01*
X-278907Y-133462D01*
X-272488Y-123718D01*
X-265730Y-114206D01*
X-258640Y-104938D01*
X-251227Y-95927D01*
X-243501Y-87182D01*
X-235471Y-78716D01*
X-227148Y-70539D01*
X-218541Y-62660D01*
X-209661Y-55090D01*
X-200519Y-47838D01*
X-191127Y-40913D01*
X-181497Y-34324D01*
X-171641Y-28079D01*
X-161569Y-22186D01*
X-151297Y-16652D01*
X-140835Y-11484D01*
X-130197Y-6688D01*
X-119746Y-2414D01*
X120392D01*
X130804Y-6671D01*
D02*
G37*
%LPC*%
G36*
X95323Y-321031D02*
X94192Y-321180D01*
X93139Y-321616D01*
X92234Y-322311D01*
X91540Y-323215D01*
X91103Y-324269D01*
X90955Y-325399D01*
X91103Y-326530D01*
X91540Y-327584D01*
X92234Y-328488D01*
X93139Y-329183D01*
X94192Y-329619D01*
X95323Y-329768D01*
X96453Y-329619D01*
X97507Y-329183D01*
X98412Y-328488D01*
X99106Y-327584D01*
X99542Y-326530D01*
X99691Y-325399D01*
X99542Y-324269D01*
X99106Y-323215D01*
X98412Y-322311D01*
X97507Y-321616D01*
X96453Y-321180D01*
X95323Y-321031D01*
D02*
G37*
G36*
X-254177Y-321531D02*
X-255308Y-321680D01*
X-256361Y-322116D01*
X-257266Y-322811D01*
X-257960Y-323715D01*
X-258397Y-324769D01*
X-258545Y-325900D01*
X-258397Y-327030D01*
X-257960Y-328084D01*
X-257266Y-328988D01*
X-256361Y-329683D01*
X-255308Y-330119D01*
X-254177Y-330268D01*
X-253046Y-330119D01*
X-251993Y-329683D01*
X-251088Y-328988D01*
X-250394Y-328084D01*
X-249958Y-327030D01*
X-249809Y-325900D01*
X-249958Y-324769D01*
X-250394Y-323715D01*
X-251088Y-322811D01*
X-251993Y-322116D01*
X-253046Y-321680D01*
X-254177Y-321531D01*
D02*
G37*
G36*
X-47047Y-291804D02*
X-47870Y-291912D01*
X-48636Y-292229D01*
X-49294Y-292734D01*
X-49798Y-293392D01*
X-50116Y-294158D01*
X-50224Y-294980D01*
X-50116Y-295802D01*
X-49798Y-296569D01*
X-49653Y-296759D01*
Y-320463D01*
X-49687Y-320490D01*
X-50192Y-321148D01*
X-50510Y-321914D01*
X-50618Y-322736D01*
X-50510Y-323558D01*
X-50192Y-324325D01*
X-49687Y-324983D01*
X-49029Y-325487D01*
X-48263Y-325805D01*
X-47441Y-325913D01*
X-46619Y-325805D01*
X-45853Y-325487D01*
X-45195Y-324983D01*
X-44690Y-324325D01*
X-44372Y-323558D01*
X-44264Y-322736D01*
X-44372Y-321914D01*
X-44690Y-321148D01*
X-44836Y-320958D01*
Y-297253D01*
X-44801Y-297227D01*
X-44296Y-296569D01*
X-43979Y-295802D01*
X-43870Y-294980D01*
X-43979Y-294158D01*
X-44296Y-293392D01*
X-44801Y-292734D01*
X-45459Y-292229D01*
X-46225Y-291912D01*
X-47047Y-291804D01*
D02*
G37*
G36*
X308694Y-292176D02*
X306356Y-292330D01*
X304057Y-292787D01*
X301837Y-293540D01*
X299735Y-294577D01*
X297786Y-295879D01*
X296024Y-297425D01*
X294479Y-299187D01*
X293177Y-301135D01*
X292140Y-303238D01*
X291387Y-305457D01*
X290930Y-307756D01*
X290776Y-310094D01*
X290930Y-312433D01*
X291387Y-314732D01*
X292140Y-316951D01*
X293177Y-319054D01*
X294479Y-321002D01*
X296024Y-322764D01*
X297786Y-324310D01*
X299735Y-325612D01*
X301837Y-326649D01*
X304057Y-327402D01*
X306356Y-327859D01*
X308694Y-328013D01*
X311033Y-327859D01*
X313332Y-327402D01*
X315551Y-326649D01*
X317653Y-325612D01*
X319602Y-324310D01*
X321364Y-322764D01*
X322910Y-321002D01*
X324212Y-319054D01*
X325249Y-316951D01*
X326002Y-314732D01*
X326459Y-312433D01*
X326612Y-310094D01*
X326459Y-307756D01*
X326002Y-305457D01*
X325249Y-303238D01*
X324212Y-301135D01*
X322910Y-299187D01*
X321364Y-297425D01*
X319602Y-295879D01*
X317653Y-294577D01*
X315551Y-293540D01*
X313332Y-292787D01*
X311033Y-292330D01*
X308694Y-292176D01*
D02*
G37*
G36*
X-308694D02*
X-311033Y-292330D01*
X-313332Y-292787D01*
X-315551Y-293540D01*
X-317653Y-294577D01*
X-319602Y-295879D01*
X-321364Y-297425D01*
X-322910Y-299187D01*
X-324212Y-301135D01*
X-325249Y-303238D01*
X-326002Y-305457D01*
X-326459Y-307756D01*
X-326612Y-310094D01*
X-326459Y-312433D01*
X-326002Y-314732D01*
X-325249Y-316951D01*
X-324212Y-319054D01*
X-322910Y-321002D01*
X-321364Y-322764D01*
X-319602Y-324310D01*
X-317653Y-325612D01*
X-315551Y-326649D01*
X-313332Y-327402D01*
X-311033Y-327859D01*
X-308694Y-328013D01*
X-306356Y-327859D01*
X-304057Y-327402D01*
X-301837Y-326649D01*
X-299735Y-325612D01*
X-297787Y-324310D01*
X-296024Y-322764D01*
X-294479Y-321002D01*
X-293177Y-319054D01*
X-292140Y-316951D01*
X-291387Y-314732D01*
X-290930Y-312433D01*
X-290776Y-310094D01*
X-290930Y-307756D01*
X-291387Y-305457D01*
X-292140Y-303238D01*
X-293177Y-301135D01*
X-294479Y-299187D01*
X-296024Y-297425D01*
X-297787Y-295879D01*
X-299735Y-294577D01*
X-301837Y-293540D01*
X-304057Y-292787D01*
X-306356Y-292330D01*
X-308694Y-292176D01*
D02*
G37*
G36*
X259323Y-339031D02*
X258192Y-339180D01*
X257139Y-339616D01*
X256234Y-340311D01*
X255540Y-341215D01*
X255103Y-342269D01*
X254955Y-343400D01*
X255103Y-344530D01*
X255540Y-345584D01*
X256234Y-346488D01*
X257139Y-347183D01*
X258192Y-347619D01*
X259323Y-347768D01*
X260454Y-347619D01*
X261507Y-347183D01*
X262412Y-346488D01*
X263106Y-345584D01*
X263542Y-344530D01*
X263691Y-343400D01*
X263542Y-342269D01*
X263106Y-341215D01*
X262412Y-340311D01*
X261507Y-339616D01*
X260454Y-339180D01*
X259323Y-339031D01*
D02*
G37*
G36*
X150244Y-308478D02*
X140402D01*
Y-318321D01*
X143418D01*
X143517Y-318821D01*
X142841Y-319101D01*
X141813Y-319890D01*
X141024Y-320918D01*
X140528Y-322115D01*
X140359Y-323399D01*
X140528Y-324684D01*
X141024Y-325881D01*
X141813Y-326909D01*
X142841Y-327698D01*
X143915Y-328143D01*
X143915Y-328144D01*
Y-328655D01*
X143915Y-328656D01*
X142841Y-329101D01*
X141813Y-329890D01*
X141024Y-330918D01*
X140528Y-332115D01*
X140359Y-333400D01*
X140528Y-334684D01*
X141024Y-335881D01*
X141813Y-336909D01*
X142841Y-337698D01*
X143915Y-338143D01*
X143915Y-338144D01*
Y-338655D01*
X143915Y-338656D01*
X142841Y-339101D01*
X141813Y-339890D01*
X141024Y-340918D01*
X140528Y-342115D01*
X140359Y-343400D01*
X140528Y-344684D01*
X141024Y-345881D01*
X141813Y-346909D01*
X142841Y-347698D01*
X144038Y-348194D01*
X145323Y-348363D01*
X146608Y-348194D01*
X147805Y-347698D01*
X148833Y-346909D01*
X149622Y-345881D01*
X150118Y-344684D01*
X150287Y-343400D01*
X150118Y-342115D01*
X149622Y-340918D01*
X148833Y-339890D01*
X147805Y-339101D01*
X146731Y-338656D01*
X146731Y-338655D01*
Y-338144D01*
X146731Y-338143D01*
X147805Y-337698D01*
X148833Y-336909D01*
X149622Y-335881D01*
X150118Y-334684D01*
X150287Y-333400D01*
X150118Y-332115D01*
X149622Y-330918D01*
X148833Y-329890D01*
X147805Y-329101D01*
X146731Y-328656D01*
X146731Y-328655D01*
Y-328144D01*
X146731Y-328143D01*
X147805Y-327698D01*
X148833Y-326909D01*
X149622Y-325881D01*
X150118Y-324684D01*
X150287Y-323399D01*
X150118Y-322115D01*
X149622Y-320918D01*
X148833Y-319890D01*
X147805Y-319101D01*
X147129Y-318821D01*
X147228Y-318321D01*
X150244D01*
Y-308478D01*
D02*
G37*
G36*
X-254177Y-341531D02*
X-255308Y-341680D01*
X-256361Y-342116D01*
X-257266Y-342811D01*
X-257960Y-343715D01*
X-258397Y-344769D01*
X-258545Y-345900D01*
X-258397Y-347030D01*
X-257960Y-348084D01*
X-257266Y-348988D01*
X-256361Y-349683D01*
X-255308Y-350119D01*
X-254177Y-350268D01*
X-253046Y-350119D01*
X-251993Y-349683D01*
X-251088Y-348988D01*
X-250394Y-348084D01*
X-249958Y-347030D01*
X-249809Y-345900D01*
X-249958Y-344769D01*
X-250394Y-343715D01*
X-251088Y-342811D01*
X-251993Y-342116D01*
X-253046Y-341680D01*
X-254177Y-341531D01*
D02*
G37*
G36*
X43551Y-308522D02*
X42729Y-308630D01*
X41963Y-308947D01*
X41305Y-309452D01*
X40800Y-310110D01*
X40483Y-310876D01*
X40430Y-311280D01*
X40383Y-311341D01*
X40125Y-311964D01*
X40037Y-312632D01*
Y-315835D01*
X39335Y-315928D01*
X38569Y-316245D01*
X37911Y-316750D01*
X37406Y-317408D01*
X37089Y-318174D01*
X37026Y-318651D01*
X36776Y-318683D01*
X36010Y-319001D01*
X35352Y-319506D01*
X34847Y-320164D01*
X34530Y-320930D01*
X34422Y-321752D01*
X34530Y-322574D01*
X34847Y-323340D01*
X35352Y-323998D01*
X36002Y-324497D01*
Y-334657D01*
X33781Y-336877D01*
X31795D01*
X31691Y-336774D01*
X31541Y-336659D01*
X31394Y-336305D01*
X30889Y-335647D01*
X30231Y-335142D01*
X29465Y-334825D01*
X28643Y-334717D01*
X27821Y-334825D01*
X27055Y-335142D01*
X26397Y-335647D01*
X25892Y-336305D01*
X25575Y-337071D01*
X25466Y-337894D01*
X25575Y-338716D01*
X25892Y-339482D01*
X26077Y-339723D01*
X25892Y-339964D01*
X25575Y-340730D01*
X25466Y-341552D01*
X25575Y-342374D01*
X25892Y-343141D01*
X26112Y-343427D01*
X26051Y-343507D01*
X25733Y-344273D01*
X25625Y-345095D01*
X25733Y-345918D01*
X26051Y-346684D01*
X26317Y-347030D01*
X26087Y-347329D01*
X25770Y-348095D01*
X25662Y-348917D01*
X25770Y-349740D01*
X26087Y-350506D01*
X26592Y-351164D01*
X27250Y-351669D01*
X28016Y-351986D01*
X28839Y-352094D01*
X29661Y-351986D01*
X30427Y-351669D01*
X30649Y-351499D01*
X35925D01*
X36593Y-351411D01*
X37216Y-351153D01*
X37750Y-350743D01*
X47396Y-341097D01*
X47806Y-340562D01*
X48064Y-339940D01*
X48152Y-339272D01*
Y-317613D01*
X48322Y-317391D01*
X48639Y-316625D01*
X48748Y-315803D01*
X48639Y-314981D01*
X48322Y-314215D01*
X47817Y-313557D01*
X47159Y-313052D01*
X46511Y-312784D01*
X46620Y-312521D01*
X46728Y-311699D01*
X46620Y-310876D01*
X46302Y-310110D01*
X45798Y-309452D01*
X45140Y-308947D01*
X44374Y-308630D01*
X43551Y-308522D01*
D02*
G37*
G36*
X-254177Y-331531D02*
X-255308Y-331680D01*
X-256361Y-332116D01*
X-257266Y-332811D01*
X-257960Y-333715D01*
X-258397Y-334769D01*
X-258545Y-335899D01*
X-258397Y-337030D01*
X-257960Y-338084D01*
X-257266Y-338988D01*
X-256361Y-339683D01*
X-255308Y-340119D01*
X-254177Y-340268D01*
X-253046Y-340119D01*
X-251993Y-339683D01*
X-251088Y-338988D01*
X-250394Y-338084D01*
X-249958Y-337030D01*
X-249809Y-335899D01*
X-249958Y-334769D01*
X-250394Y-333715D01*
X-251088Y-332811D01*
X-251993Y-332116D01*
X-253046Y-331680D01*
X-254177Y-331531D01*
D02*
G37*
G36*
X-142177Y-410436D02*
X-143462Y-410605D01*
X-144659Y-411101D01*
X-145687Y-411890D01*
X-146476Y-412918D01*
X-146972Y-414115D01*
X-147141Y-415400D01*
X-146972Y-416684D01*
X-146476Y-417881D01*
X-145687Y-418909D01*
X-144659Y-419698D01*
X-143585Y-420143D01*
X-143585Y-420144D01*
Y-420655D01*
X-143585Y-420656D01*
X-144659Y-421101D01*
X-145687Y-421890D01*
X-146476Y-422918D01*
X-146972Y-424115D01*
X-147141Y-425399D01*
X-146972Y-426684D01*
X-146476Y-427881D01*
X-145687Y-428909D01*
X-144659Y-429698D01*
X-143585Y-430143D01*
X-143585Y-430144D01*
Y-430655D01*
X-143585Y-430656D01*
X-144659Y-431101D01*
X-145687Y-431890D01*
X-146476Y-432918D01*
X-146972Y-434115D01*
X-147141Y-435399D01*
X-146972Y-436684D01*
X-146476Y-437881D01*
X-145687Y-438909D01*
X-144659Y-439698D01*
X-143983Y-439978D01*
X-144082Y-440478D01*
X-147098D01*
Y-450321D01*
X-137256D01*
Y-440478D01*
X-140272D01*
X-140371Y-439978D01*
X-139695Y-439698D01*
X-138667Y-438909D01*
X-137878Y-437881D01*
X-137382Y-436684D01*
X-137213Y-435399D01*
X-137382Y-434115D01*
X-137878Y-432918D01*
X-138667Y-431890D01*
X-139695Y-431101D01*
X-140769Y-430656D01*
X-140769Y-430655D01*
Y-430144D01*
X-140769Y-430143D01*
X-139695Y-429698D01*
X-138667Y-428909D01*
X-137878Y-427881D01*
X-137382Y-426684D01*
X-137213Y-425399D01*
X-137382Y-424115D01*
X-137878Y-422918D01*
X-138667Y-421890D01*
X-139695Y-421101D01*
X-140769Y-420656D01*
X-140769Y-420655D01*
Y-420144D01*
X-140769Y-420143D01*
X-139695Y-419698D01*
X-138667Y-418909D01*
X-137878Y-417881D01*
X-137382Y-416684D01*
X-137213Y-415400D01*
X-137382Y-414115D01*
X-137878Y-412918D01*
X-138667Y-411890D01*
X-139695Y-411101D01*
X-140892Y-410605D01*
X-142177Y-410436D01*
D02*
G37*
G36*
X105323Y-291031D02*
X104192Y-291180D01*
X103139Y-291616D01*
X102234Y-292311D01*
X101540Y-293215D01*
X101103Y-294269D01*
X100954Y-295399D01*
X101103Y-296530D01*
X101540Y-297584D01*
X102234Y-298488D01*
X103139Y-299183D01*
X104192Y-299619D01*
X105323Y-299768D01*
X106454Y-299619D01*
X107507Y-299183D01*
X108412Y-298488D01*
X109106Y-297584D01*
X109542Y-296530D01*
X109691Y-295399D01*
X109542Y-294269D01*
X109106Y-293215D01*
X108412Y-292311D01*
X107507Y-291616D01*
X106454Y-291180D01*
X105323Y-291031D01*
D02*
G37*
G36*
X95323D02*
X94192Y-291180D01*
X93139Y-291616D01*
X92234Y-292311D01*
X91540Y-293215D01*
X91103Y-294269D01*
X90955Y-295399D01*
X91103Y-296530D01*
X91540Y-297584D01*
X92234Y-298488D01*
X93139Y-299183D01*
X94192Y-299619D01*
X95323Y-299768D01*
X96453Y-299619D01*
X97507Y-299183D01*
X98412Y-298488D01*
X99106Y-297584D01*
X99542Y-296530D01*
X99691Y-295399D01*
X99542Y-294269D01*
X99106Y-293215D01*
X98412Y-292311D01*
X97507Y-291616D01*
X96453Y-291180D01*
X95323Y-291031D01*
D02*
G37*
G36*
X105323Y-301031D02*
X104192Y-301180D01*
X103139Y-301616D01*
X102234Y-302311D01*
X101540Y-303215D01*
X101103Y-304269D01*
X100954Y-305399D01*
X101103Y-306530D01*
X101540Y-307584D01*
X102234Y-308488D01*
X103139Y-309183D01*
X104192Y-309619D01*
X105323Y-309768D01*
X106454Y-309619D01*
X107507Y-309183D01*
X108412Y-308488D01*
X109106Y-307584D01*
X109542Y-306530D01*
X109691Y-305399D01*
X109542Y-304269D01*
X109106Y-303215D01*
X108412Y-302311D01*
X107507Y-301616D01*
X106454Y-301180D01*
X105323Y-301031D01*
D02*
G37*
G36*
X5020Y-266902D02*
X4197Y-267010D01*
X3431Y-267328D01*
X2773Y-267832D01*
X2269Y-268490D01*
X1951Y-269256D01*
X1843Y-270079D01*
X1951Y-270901D01*
X2269Y-271667D01*
X2501Y-271970D01*
Y-282618D01*
X836Y-284283D01*
X457Y-284333D01*
X-309Y-284650D01*
X-967Y-285155D01*
X-1472Y-285813D01*
X-1789Y-286579D01*
X-1897Y-287402D01*
X-1789Y-288224D01*
X-1472Y-288990D01*
X-1043Y-289549D01*
Y-293268D01*
X-4468D01*
Y-296194D01*
X-4969Y-296401D01*
X-7919Y-293450D01*
X-8454Y-293040D01*
X-9076Y-292782D01*
X-9744Y-292694D01*
X-13231D01*
X-13899Y-292782D01*
X-14522Y-293040D01*
X-15056Y-293450D01*
X-16786Y-295180D01*
X-17196Y-295715D01*
X-17454Y-296337D01*
X-17542Y-297005D01*
Y-298832D01*
X-19376Y-300667D01*
X-19924D01*
X-20592Y-300755D01*
X-21214Y-301013D01*
X-21749Y-301423D01*
X-23479Y-303153D01*
X-23889Y-303687D01*
X-24147Y-304310D01*
X-24235Y-304978D01*
Y-307776D01*
X-24147Y-308444D01*
X-23889Y-309066D01*
X-23479Y-309601D01*
X-19412Y-313668D01*
Y-315394D01*
X-19324Y-316062D01*
X-19066Y-316684D01*
X-18656Y-317219D01*
X-16951Y-318924D01*
Y-342028D01*
X-17318Y-342506D01*
X-17636Y-343272D01*
X-17744Y-344094D01*
X-17636Y-344917D01*
X-17318Y-345683D01*
X-16813Y-346341D01*
X-16155Y-346846D01*
X-15389Y-347163D01*
X-14567Y-347271D01*
X-14312Y-347238D01*
X-13936Y-347567D01*
Y-394703D01*
X-14365Y-395262D01*
X-14683Y-396028D01*
X-14791Y-396850D01*
X-14683Y-397673D01*
X-14365Y-398439D01*
X-13860Y-399097D01*
X-13203Y-399602D01*
X-12436Y-399919D01*
X-11614Y-400027D01*
X-10792Y-399919D01*
X-10026Y-399602D01*
X-9368Y-399097D01*
X-9223Y-398908D01*
X-8577Y-399405D01*
X-7810Y-399722D01*
X-6988Y-399830D01*
X-6166Y-399722D01*
X-5400Y-399405D01*
X-4742Y-398900D01*
X-4591Y-398703D01*
X-4116D01*
X-3458Y-399208D01*
X-2692Y-399525D01*
X-1870Y-399634D01*
X-1048Y-399525D01*
X-282Y-399208D01*
X376Y-398703D01*
X881Y-398045D01*
X1199Y-397279D01*
X1307Y-396457D01*
X1199Y-395635D01*
X881Y-394868D01*
X376Y-394210D01*
X353Y-394193D01*
Y-345857D01*
X487Y-345683D01*
X805Y-344917D01*
X913Y-344094D01*
X805Y-343272D01*
X487Y-342506D01*
X353Y-342332D01*
Y-332012D01*
X5640Y-326725D01*
X6162Y-325944D01*
X6346Y-325022D01*
Y-324705D01*
X6346Y-324705D01*
Y-316444D01*
X9055D01*
X9101Y-316435D01*
X9148Y-316442D01*
X9561Y-316343D01*
X9977Y-316261D01*
X10016Y-316234D01*
X10062Y-316224D01*
X10405Y-315974D01*
X10465Y-315934D01*
X10965Y-316201D01*
Y-326455D01*
X10733Y-326758D01*
X10416Y-327524D01*
X10307Y-328346D01*
X10416Y-329169D01*
X10733Y-329935D01*
X11238Y-330593D01*
X11896Y-331098D01*
X12662Y-331415D01*
X13484Y-331523D01*
X14307Y-331415D01*
X15073Y-331098D01*
X15354Y-330882D01*
X15636Y-331098D01*
X16402Y-331415D01*
X17224Y-331523D01*
X18047Y-331415D01*
X18813Y-331098D01*
X19471Y-330593D01*
X19976Y-329935D01*
X20293Y-329169D01*
X20401Y-328346D01*
X20293Y-327524D01*
X19976Y-326758D01*
X19743Y-326455D01*
Y-298721D01*
X19552Y-297757D01*
X19005Y-296939D01*
X17184Y-295118D01*
Y-294411D01*
X17416Y-294108D01*
X17734Y-293342D01*
X17842Y-292520D01*
X17734Y-291698D01*
X17416Y-290931D01*
X16912Y-290273D01*
X16254Y-289769D01*
X15488Y-289451D01*
X14665Y-289343D01*
X13843Y-289451D01*
X13077Y-289769D01*
X12844Y-289947D01*
X12612Y-289769D01*
X11846Y-289451D01*
X11024Y-289343D01*
X10644Y-289393D01*
X10374Y-288924D01*
X10625Y-288596D01*
X10943Y-287830D01*
X11051Y-287008D01*
X10943Y-286186D01*
X10625Y-285420D01*
X10536Y-285303D01*
X10988Y-284625D01*
X11180Y-283661D01*
Y-273151D01*
X11413Y-272848D01*
X11730Y-272082D01*
X11838Y-271260D01*
X11730Y-270438D01*
X11413Y-269672D01*
X10908Y-269014D01*
X10250Y-268509D01*
X9484Y-268191D01*
X8661Y-268083D01*
X7839Y-268191D01*
X7613Y-268285D01*
X7266Y-267832D01*
X6608Y-267328D01*
X5842Y-267010D01*
X5020Y-266902D01*
D02*
G37*
G36*
X-167595Y-496591D02*
X-168892Y-496762D01*
X-170100Y-497262D01*
X-171138Y-498059D01*
X-171934Y-499097D01*
X-172435Y-500305D01*
X-172606Y-501602D01*
X-172435Y-502899D01*
X-171934Y-504108D01*
X-171138Y-505146D01*
X-170100Y-505942D01*
X-169525Y-506180D01*
Y-506722D01*
X-170222Y-507010D01*
X-171260Y-507807D01*
X-172056Y-508845D01*
X-172557Y-510053D01*
X-172728Y-511350D01*
X-172557Y-512647D01*
X-172056Y-513856D01*
X-171260Y-514894D01*
X-170222Y-515690D01*
X-169014Y-516191D01*
X-167717Y-516362D01*
X-166419Y-516191D01*
X-165211Y-515690D01*
X-164173Y-514894D01*
X-163377Y-513856D01*
X-162876Y-512647D01*
X-162705Y-511350D01*
X-162876Y-510053D01*
X-163377Y-508845D01*
X-164173Y-507807D01*
X-165211Y-507010D01*
X-165786Y-506772D01*
Y-506231D01*
X-165089Y-505942D01*
X-164051Y-505146D01*
X-163254Y-504108D01*
X-162754Y-502899D01*
X-162583Y-501602D01*
X-162754Y-500305D01*
X-163254Y-499097D01*
X-164051Y-498059D01*
X-165089Y-497262D01*
X-166297Y-496762D01*
X-167595Y-496591D01*
D02*
G37*
G36*
X259323Y-289031D02*
X258192Y-289180D01*
X257139Y-289616D01*
X256234Y-290311D01*
X255540Y-291215D01*
X255103Y-292269D01*
X254955Y-293400D01*
X255103Y-294530D01*
X255540Y-295584D01*
X256234Y-296488D01*
X257139Y-297183D01*
X258192Y-297619D01*
X259323Y-297768D01*
X260454Y-297619D01*
X261507Y-297183D01*
X262412Y-296488D01*
X263106Y-295584D01*
X263542Y-294530D01*
X263691Y-293400D01*
X263542Y-292269D01*
X263106Y-291215D01*
X262412Y-290311D01*
X261507Y-289616D01*
X260454Y-289180D01*
X259323Y-289031D01*
D02*
G37*
G36*
X105323Y-311031D02*
X104192Y-311180D01*
X103139Y-311616D01*
X102234Y-312311D01*
X101540Y-313215D01*
X101103Y-314269D01*
X100954Y-315400D01*
X101103Y-316530D01*
X101540Y-317584D01*
X102234Y-318488D01*
X103139Y-319183D01*
X104192Y-319619D01*
X105323Y-319768D01*
X106454Y-319619D01*
X107507Y-319183D01*
X108412Y-318488D01*
X109106Y-317584D01*
X109542Y-316530D01*
X109691Y-315400D01*
X109542Y-314269D01*
X109106Y-313215D01*
X108412Y-312311D01*
X107507Y-311616D01*
X106454Y-311180D01*
X105323Y-311031D01*
D02*
G37*
G36*
X95323D02*
X94192Y-311180D01*
X93139Y-311616D01*
X92234Y-312311D01*
X91540Y-313215D01*
X91103Y-314269D01*
X90955Y-315400D01*
X91103Y-316530D01*
X91540Y-317584D01*
X92234Y-318488D01*
X93139Y-319183D01*
X94192Y-319619D01*
X95323Y-319768D01*
X96453Y-319619D01*
X97507Y-319183D01*
X98412Y-318488D01*
X99106Y-317584D01*
X99542Y-316530D01*
X99691Y-315400D01*
X99542Y-314269D01*
X99106Y-313215D01*
X98412Y-312311D01*
X97507Y-311616D01*
X96453Y-311180D01*
X95323Y-311031D01*
D02*
G37*
G36*
X265323Y-306399D02*
X234323D01*
X233555Y-306552D01*
X232904Y-306987D01*
X232469Y-307639D01*
X232316Y-308406D01*
Y-316682D01*
X232469Y-317450D01*
X232583Y-317621D01*
X232383Y-317921D01*
X232230Y-318689D01*
Y-323175D01*
X231767Y-323364D01*
X228151Y-319661D01*
X228141Y-319654D01*
X228134Y-319644D01*
X227818Y-319433D01*
X227505Y-319218D01*
X227493Y-319215D01*
X227483Y-319209D01*
X227110Y-319135D01*
X226738Y-319056D01*
X226727Y-319058D01*
X226715Y-319056D01*
X220437Y-319056D01*
X220094Y-319124D01*
X219748Y-319178D01*
X219711Y-319200D01*
X219669Y-319209D01*
X219378Y-319403D01*
X219079Y-319585D01*
X218579Y-320044D01*
X218554Y-320079D01*
X218518Y-320103D01*
X218323Y-320394D01*
X218117Y-320676D01*
X218107Y-320718D01*
X218083Y-320754D01*
X218015Y-321097D01*
X217932Y-321437D01*
X217938Y-321480D01*
X217930Y-321522D01*
Y-346217D01*
X218083Y-346985D01*
X218518Y-347636D01*
X218659Y-347778D01*
X219311Y-348213D01*
X220079Y-348365D01*
X227854D01*
X228622Y-348213D01*
X229274Y-347778D01*
X229688Y-347158D01*
X234336Y-342409D01*
X234544Y-342090D01*
X234756Y-341773D01*
X234758Y-341762D01*
X234764Y-341753D01*
X234834Y-341379D01*
X234909Y-341005D01*
Y-340485D01*
X241692D01*
X241976Y-340675D01*
X242744Y-340828D01*
X246402D01*
X247170Y-340675D01*
X247821Y-340240D01*
X248256Y-339589D01*
X248409Y-338821D01*
Y-330696D01*
X265237D01*
X266005Y-330543D01*
X266656Y-330108D01*
X267091Y-329457D01*
X267244Y-328689D01*
Y-318689D01*
X267091Y-317921D01*
X266958Y-317722D01*
X267093Y-317557D01*
X267122Y-317462D01*
X267177Y-317379D01*
X267235Y-317090D01*
X267320Y-316808D01*
X267311Y-316709D01*
X267330Y-316611D01*
Y-308406D01*
X267177Y-307639D01*
X266742Y-306987D01*
X266091Y-306552D01*
X265323Y-306399D01*
D02*
G37*
G36*
X95323Y-301031D02*
X94192Y-301180D01*
X93139Y-301616D01*
X92234Y-302311D01*
X91540Y-303215D01*
X91103Y-304269D01*
X90955Y-305399D01*
X91103Y-306530D01*
X91540Y-307584D01*
X92234Y-308488D01*
X93139Y-309183D01*
X94192Y-309619D01*
X95323Y-309768D01*
X96453Y-309619D01*
X97507Y-309183D01*
X98412Y-308488D01*
X99106Y-307584D01*
X99542Y-306530D01*
X99691Y-305399D01*
X99542Y-304269D01*
X99106Y-303215D01*
X98412Y-302311D01*
X97507Y-301616D01*
X96453Y-301180D01*
X95323Y-301031D01*
D02*
G37*
G36*
X88878Y-441016D02*
X88056Y-441124D01*
X87290Y-441442D01*
X86632Y-441947D01*
X86127Y-442604D01*
X85809Y-443371D01*
X85701Y-444193D01*
X85809Y-445015D01*
X86127Y-445781D01*
X86359Y-446084D01*
Y-464901D01*
X73728Y-477533D01*
X73721Y-477532D01*
X72898Y-477640D01*
X72132Y-477957D01*
X71474Y-478462D01*
X70969Y-479120D01*
X70652Y-479886D01*
X70544Y-480709D01*
X70652Y-481531D01*
X70969Y-482297D01*
X71474Y-482955D01*
X72132Y-483460D01*
X72898Y-483777D01*
X73721Y-483885D01*
X74543Y-483777D01*
X75309Y-483460D01*
X75967Y-482955D01*
X76472Y-482297D01*
X76743Y-481642D01*
X90659Y-467726D01*
X91205Y-466909D01*
X91397Y-465945D01*
Y-446084D01*
X91629Y-445781D01*
X91947Y-445015D01*
X92055Y-444193D01*
X91947Y-443371D01*
X91629Y-442604D01*
X91124Y-441947D01*
X90466Y-441442D01*
X89700Y-441124D01*
X88878Y-441016D01*
D02*
G37*
G36*
X204213Y-308549D02*
X197914D01*
Y-316423D01*
X204213D01*
Y-314982D01*
X209374D01*
Y-314982D01*
X209612Y-314823D01*
X209953Y-314964D01*
X210776Y-315072D01*
X211598Y-314964D01*
X212364Y-314647D01*
X213022Y-314142D01*
X213527Y-313484D01*
X213844Y-312718D01*
X213952Y-311895D01*
X213844Y-311073D01*
X213527Y-310307D01*
X213022Y-309649D01*
X212364Y-309144D01*
X211598Y-308827D01*
X210776Y-308719D01*
X209953Y-308827D01*
X209187Y-309144D01*
X209019Y-309274D01*
X204213D01*
Y-308549D01*
D02*
G37*
G36*
X77016Y-223679D02*
X76194Y-223788D01*
X75427Y-224105D01*
X74770Y-224610D01*
X74265Y-225268D01*
X73947Y-226034D01*
X73839Y-226856D01*
X73947Y-227678D01*
X74265Y-228445D01*
X74770Y-229102D01*
X74927Y-229223D01*
Y-341718D01*
X75015Y-342386D01*
X75273Y-343009D01*
X75683Y-343544D01*
X79915Y-347776D01*
X79951Y-348052D01*
X80269Y-348819D01*
X80773Y-349477D01*
X81431Y-349981D01*
X82198Y-350299D01*
X83020Y-350407D01*
X83842Y-350299D01*
X84608Y-349981D01*
X85266Y-349477D01*
X85771Y-348819D01*
X86088Y-348052D01*
X86197Y-347230D01*
X86088Y-346408D01*
X85771Y-345642D01*
X85266Y-344984D01*
X84608Y-344479D01*
X83842Y-344162D01*
X83565Y-344125D01*
X80089Y-340649D01*
Y-227787D01*
X80198Y-227524D01*
X80286Y-226856D01*
X80198Y-226188D01*
X79940Y-225566D01*
X79832Y-225425D01*
X79767Y-225268D01*
X79262Y-224610D01*
X78604Y-224105D01*
X77838Y-223788D01*
X77016Y-223679D01*
D02*
G37*
G36*
X-255677Y-391031D02*
X-256808Y-391180D01*
X-257861Y-391616D01*
X-258766Y-392311D01*
X-259460Y-393215D01*
X-259897Y-394269D01*
X-260046Y-395399D01*
X-259897Y-396530D01*
X-259460Y-397584D01*
X-258766Y-398488D01*
X-257861Y-399183D01*
X-256808Y-399619D01*
X-255677Y-399768D01*
X-254546Y-399619D01*
X-253493Y-399183D01*
X-252588Y-398488D01*
X-251894Y-397584D01*
X-251458Y-396530D01*
X-251309Y-395399D01*
X-251458Y-394269D01*
X-251894Y-393215D01*
X-252588Y-392311D01*
X-253493Y-391616D01*
X-254546Y-391180D01*
X-255677Y-391031D01*
D02*
G37*
G36*
X105323Y-401031D02*
X104192Y-401180D01*
X103139Y-401616D01*
X102234Y-402311D01*
X101540Y-403215D01*
X101103Y-404269D01*
X100954Y-405400D01*
X101103Y-406530D01*
X101540Y-407584D01*
X102234Y-408488D01*
X103139Y-409183D01*
X104192Y-409619D01*
X105323Y-409768D01*
X106454Y-409619D01*
X107507Y-409183D01*
X108412Y-408488D01*
X109106Y-407584D01*
X109542Y-406530D01*
X109691Y-405400D01*
X109542Y-404269D01*
X109106Y-403215D01*
X108412Y-402311D01*
X107507Y-401616D01*
X106454Y-401180D01*
X105323Y-401031D01*
D02*
G37*
G36*
X-104677Y-391031D02*
X-105808Y-391180D01*
X-106861Y-391616D01*
X-107766Y-392311D01*
X-108460Y-393215D01*
X-108897Y-394269D01*
X-109046Y-395399D01*
X-108897Y-396530D01*
X-108460Y-397584D01*
X-107766Y-398488D01*
X-106861Y-399183D01*
X-105808Y-399619D01*
X-104677Y-399768D01*
X-103547Y-399619D01*
X-102493Y-399183D01*
X-101588Y-398488D01*
X-100894Y-397584D01*
X-100458Y-396530D01*
X-100309Y-395399D01*
X-100458Y-394269D01*
X-100894Y-393215D01*
X-101588Y-392311D01*
X-102493Y-391616D01*
X-103547Y-391180D01*
X-104677Y-391031D01*
D02*
G37*
G36*
Y-381031D02*
X-105808Y-381180D01*
X-106861Y-381616D01*
X-107766Y-382311D01*
X-108460Y-383215D01*
X-108897Y-384269D01*
X-109046Y-385400D01*
X-108897Y-386530D01*
X-108460Y-387584D01*
X-107766Y-388488D01*
X-106861Y-389183D01*
X-105808Y-389619D01*
X-104677Y-389768D01*
X-103547Y-389619D01*
X-102493Y-389183D01*
X-101588Y-388488D01*
X-100894Y-387584D01*
X-100458Y-386530D01*
X-100309Y-385400D01*
X-100458Y-384269D01*
X-100894Y-383215D01*
X-101588Y-382311D01*
X-102493Y-381616D01*
X-103547Y-381180D01*
X-104677Y-381031D01*
D02*
G37*
G36*
X105323Y-391031D02*
X104192Y-391180D01*
X103139Y-391616D01*
X102234Y-392311D01*
X101540Y-393215D01*
X101103Y-394269D01*
X100954Y-395399D01*
X101103Y-396530D01*
X101540Y-397584D01*
X102234Y-398488D01*
X103139Y-399183D01*
X104192Y-399619D01*
X105323Y-399768D01*
X106454Y-399619D01*
X107507Y-399183D01*
X108412Y-398488D01*
X109106Y-397584D01*
X109542Y-396530D01*
X109691Y-395399D01*
X109542Y-394269D01*
X109106Y-393215D01*
X108412Y-392311D01*
X107507Y-391616D01*
X106454Y-391180D01*
X105323Y-391031D01*
D02*
G37*
G36*
X-94677Y-401031D02*
X-95808Y-401180D01*
X-96861Y-401616D01*
X-97766Y-402311D01*
X-98460Y-403215D01*
X-98897Y-404269D01*
X-99045Y-405400D01*
X-98897Y-406530D01*
X-98460Y-407584D01*
X-97766Y-408488D01*
X-96861Y-409183D01*
X-95808Y-409619D01*
X-94677Y-409768D01*
X-93546Y-409619D01*
X-92493Y-409183D01*
X-91588Y-408488D01*
X-90894Y-407584D01*
X-90458Y-406530D01*
X-90309Y-405400D01*
X-90458Y-404269D01*
X-90894Y-403215D01*
X-91588Y-402311D01*
X-92493Y-401616D01*
X-93546Y-401180D01*
X-94677Y-401031D01*
D02*
G37*
G36*
X105323Y-411031D02*
X104192Y-411180D01*
X103139Y-411616D01*
X102234Y-412311D01*
X101540Y-413215D01*
X101103Y-414269D01*
X100954Y-415400D01*
X101103Y-416530D01*
X101540Y-417584D01*
X102234Y-418488D01*
X103139Y-419183D01*
X104192Y-419619D01*
X105323Y-419768D01*
X106454Y-419619D01*
X107507Y-419183D01*
X108412Y-418488D01*
X109106Y-417584D01*
X109542Y-416530D01*
X109691Y-415400D01*
X109542Y-414269D01*
X109106Y-413215D01*
X108412Y-412311D01*
X107507Y-411616D01*
X106454Y-411180D01*
X105323Y-411031D01*
D02*
G37*
G36*
X-255677D02*
X-256808Y-411180D01*
X-257861Y-411616D01*
X-258766Y-412311D01*
X-259460Y-413215D01*
X-259897Y-414269D01*
X-260046Y-415400D01*
X-259897Y-416530D01*
X-259460Y-417584D01*
X-258766Y-418488D01*
X-257861Y-419183D01*
X-256808Y-419619D01*
X-255677Y-419768D01*
X-254546Y-419619D01*
X-253493Y-419183D01*
X-252588Y-418488D01*
X-251894Y-417584D01*
X-251458Y-416530D01*
X-251309Y-415400D01*
X-251458Y-414269D01*
X-251894Y-413215D01*
X-252588Y-412311D01*
X-253493Y-411616D01*
X-254546Y-411180D01*
X-255677Y-411031D01*
D02*
G37*
G36*
X-217224Y-411213D02*
X-226020D01*
X-226231Y-411256D01*
X-226446Y-411259D01*
X-226611Y-411331D01*
X-226788Y-411366D01*
X-226967Y-411486D01*
X-227164Y-411572D01*
X-227289Y-411701D01*
X-227439Y-411801D01*
X-227559Y-411980D01*
X-227708Y-412135D01*
X-231237Y-417624D01*
X-231362D01*
Y-417818D01*
X-231444Y-417946D01*
X-231510Y-418113D01*
X-231610Y-418263D01*
X-231636Y-418392D01*
X-244677Y-418392D01*
X-245445Y-418545D01*
X-246096Y-418980D01*
X-246531Y-419631D01*
X-246684Y-420400D01*
Y-428392D01*
X-264677D01*
X-265445Y-428545D01*
X-266096Y-428980D01*
X-266531Y-429631D01*
X-266684Y-430400D01*
Y-438977D01*
X-266531Y-439745D01*
X-266418Y-439914D01*
X-266620Y-440216D01*
X-266773Y-440984D01*
X-266773Y-453144D01*
X-266620Y-453912D01*
X-266185Y-454563D01*
X-265534Y-454998D01*
X-264766Y-455151D01*
X-230561Y-455151D01*
X-229793Y-454998D01*
X-229142Y-454563D01*
X-228707Y-453912D01*
X-228554Y-453144D01*
X-228554Y-440984D01*
X-228707Y-440216D01*
X-228839Y-440018D01*
X-228702Y-439851D01*
X-228674Y-439755D01*
X-228618Y-439673D01*
X-228597Y-439565D01*
X-228077Y-439486D01*
X-228070Y-439488D01*
X-227784Y-440015D01*
X-227601Y-440235D01*
X-227442Y-440473D01*
X-227352Y-440533D01*
X-227283Y-440617D01*
X-227029Y-440750D01*
X-226792Y-440909D01*
X-226686Y-440931D01*
X-226590Y-440981D01*
X-226305Y-441007D01*
X-226024Y-441064D01*
X-217583Y-441081D01*
X-217582Y-441081D01*
X-217580Y-441081D01*
X-217199Y-441006D01*
X-216814Y-440930D01*
X-216813Y-440929D01*
X-216812Y-440929D01*
X-216485Y-440711D01*
X-216162Y-440496D01*
X-216161Y-440495D01*
X-216161Y-440495D01*
X-215807Y-440142D01*
X-215806Y-440141D01*
X-215805Y-440140D01*
X-215590Y-439818D01*
X-215371Y-439491D01*
X-215371Y-439490D01*
X-215370Y-439489D01*
X-215293Y-439099D01*
X-215217Y-438723D01*
X-215218Y-438722D01*
X-215217Y-438721D01*
X-215217Y-413221D01*
X-215370Y-412453D01*
X-215805Y-411801D01*
X-216456Y-411366D01*
X-217224Y-411213D01*
D02*
G37*
G36*
X-104677Y-401031D02*
X-105808Y-401180D01*
X-106861Y-401616D01*
X-107766Y-402311D01*
X-108460Y-403215D01*
X-108897Y-404269D01*
X-109046Y-405400D01*
X-108897Y-406530D01*
X-108460Y-407584D01*
X-107766Y-408488D01*
X-106861Y-409183D01*
X-105808Y-409619D01*
X-104677Y-409768D01*
X-103547Y-409619D01*
X-102493Y-409183D01*
X-101588Y-408488D01*
X-100894Y-407584D01*
X-100458Y-406530D01*
X-100309Y-405400D01*
X-100458Y-404269D01*
X-100894Y-403215D01*
X-101588Y-402311D01*
X-102493Y-401616D01*
X-103547Y-401180D01*
X-104677Y-401031D01*
D02*
G37*
G36*
X-255677D02*
X-256808Y-401180D01*
X-257861Y-401616D01*
X-258766Y-402311D01*
X-259460Y-403215D01*
X-259897Y-404269D01*
X-260046Y-405400D01*
X-259897Y-406530D01*
X-259460Y-407584D01*
X-258766Y-408488D01*
X-257861Y-409183D01*
X-256808Y-409619D01*
X-255677Y-409768D01*
X-254546Y-409619D01*
X-253493Y-409183D01*
X-252588Y-408488D01*
X-251894Y-407584D01*
X-251458Y-406530D01*
X-251309Y-405400D01*
X-251458Y-404269D01*
X-251894Y-403215D01*
X-252588Y-402311D01*
X-253493Y-401616D01*
X-254546Y-401180D01*
X-255677Y-401031D01*
D02*
G37*
G36*
X-94677Y-381031D02*
X-95808Y-381180D01*
X-96861Y-381616D01*
X-97766Y-382311D01*
X-98460Y-383215D01*
X-98897Y-384269D01*
X-99045Y-385400D01*
X-98897Y-386530D01*
X-98460Y-387584D01*
X-97766Y-388488D01*
X-96861Y-389183D01*
X-95808Y-389619D01*
X-94677Y-389768D01*
X-93546Y-389619D01*
X-92493Y-389183D01*
X-91588Y-388488D01*
X-90894Y-387584D01*
X-90458Y-386530D01*
X-90309Y-385400D01*
X-90458Y-384269D01*
X-90894Y-383215D01*
X-91588Y-382311D01*
X-92493Y-381616D01*
X-93546Y-381180D01*
X-94677Y-381031D01*
D02*
G37*
G36*
X-104677Y-361031D02*
X-105808Y-361180D01*
X-106861Y-361616D01*
X-107766Y-362311D01*
X-108460Y-363215D01*
X-108897Y-364269D01*
X-109046Y-365400D01*
X-108897Y-366530D01*
X-108460Y-367584D01*
X-107766Y-368488D01*
X-106861Y-369183D01*
X-105808Y-369619D01*
X-104677Y-369768D01*
X-103547Y-369619D01*
X-102493Y-369183D01*
X-101588Y-368488D01*
X-100894Y-367584D01*
X-100458Y-366530D01*
X-100309Y-365400D01*
X-100458Y-364269D01*
X-100894Y-363215D01*
X-101588Y-362311D01*
X-102493Y-361616D01*
X-103547Y-361180D01*
X-104677Y-361031D01*
D02*
G37*
G36*
Y-431031D02*
X-105808Y-431180D01*
X-106861Y-431616D01*
X-107766Y-432311D01*
X-108460Y-433215D01*
X-108897Y-434269D01*
X-109046Y-435399D01*
X-108897Y-436530D01*
X-108460Y-437584D01*
X-107766Y-438488D01*
X-106861Y-439183D01*
X-105808Y-439619D01*
X-104677Y-439768D01*
X-103547Y-439619D01*
X-102493Y-439183D01*
X-101588Y-438488D01*
X-100894Y-437584D01*
X-100458Y-436530D01*
X-100309Y-435399D01*
X-100458Y-434269D01*
X-100894Y-433215D01*
X-101588Y-432311D01*
X-102493Y-431616D01*
X-103547Y-431180D01*
X-104677Y-431031D01*
D02*
G37*
G36*
X95323Y-361031D02*
X94192Y-361180D01*
X93139Y-361616D01*
X92234Y-362311D01*
X91540Y-363215D01*
X91103Y-364269D01*
X90955Y-365400D01*
X91103Y-366530D01*
X91540Y-367584D01*
X92234Y-368488D01*
X93139Y-369183D01*
X94192Y-369619D01*
X95323Y-369768D01*
X96453Y-369619D01*
X97507Y-369183D01*
X98412Y-368488D01*
X99106Y-367584D01*
X99542Y-366530D01*
X99691Y-365400D01*
X99542Y-364269D01*
X99106Y-363215D01*
X98412Y-362311D01*
X97507Y-361616D01*
X96453Y-361180D01*
X95323Y-361031D01*
D02*
G37*
G36*
X270571Y-274087D02*
X269749Y-274195D01*
X268983Y-274513D01*
X268324Y-275017D01*
X267820Y-275675D01*
X267502Y-276442D01*
X267394Y-277264D01*
X267502Y-278086D01*
X267820Y-278852D01*
X267990Y-279074D01*
Y-292126D01*
X268078Y-292794D01*
X268336Y-293417D01*
X268746Y-293951D01*
X273994Y-299199D01*
Y-350234D01*
X274001Y-350290D01*
X273938Y-350774D01*
X274046Y-351596D01*
X274363Y-352362D01*
X274868Y-353020D01*
X275526Y-353525D01*
X275714Y-353603D01*
Y-358693D01*
X275214Y-358900D01*
X275118Y-358804D01*
X274805Y-358397D01*
X274805Y-358397D01*
X267983Y-351574D01*
X267448Y-351164D01*
X266826Y-350906D01*
X266158Y-350818D01*
X262801D01*
X262412Y-350311D01*
X261507Y-349616D01*
X260454Y-349180D01*
X259323Y-349031D01*
X258192Y-349180D01*
X257139Y-349616D01*
X256234Y-350311D01*
X255540Y-351215D01*
X255103Y-352269D01*
X254955Y-353399D01*
X255103Y-354530D01*
X255540Y-355584D01*
X256234Y-356488D01*
X257139Y-357183D01*
X258192Y-357619D01*
X259323Y-357768D01*
X260454Y-357619D01*
X261507Y-357183D01*
X262412Y-356488D01*
X262801Y-355981D01*
X265088D01*
X270796Y-361688D01*
X271108Y-362095D01*
X271139Y-362126D01*
Y-363625D01*
X270677Y-363816D01*
X268435Y-361574D01*
X267901Y-361164D01*
X267278Y-360906D01*
X266610Y-360818D01*
X262801D01*
X262412Y-360311D01*
X261507Y-359616D01*
X260454Y-359180D01*
X259323Y-359031D01*
X258192Y-359180D01*
X257139Y-359616D01*
X256234Y-360311D01*
X255540Y-361215D01*
X255103Y-362269D01*
X254955Y-363400D01*
X255103Y-364530D01*
X255540Y-365584D01*
X256234Y-366488D01*
X257139Y-367183D01*
X258192Y-367619D01*
X259323Y-367768D01*
X260454Y-367619D01*
X261507Y-367183D01*
X262412Y-366488D01*
X262801Y-365981D01*
X265541D01*
X267366Y-367806D01*
Y-398087D01*
X267196Y-398309D01*
X266879Y-399075D01*
X266771Y-399897D01*
X266879Y-400719D01*
X267196Y-401485D01*
X267701Y-402143D01*
X268359Y-402648D01*
X269125Y-402966D01*
X269948Y-403074D01*
X270770Y-402966D01*
X271536Y-402648D01*
X272194Y-402143D01*
X272699Y-401485D01*
X273016Y-400719D01*
X273116Y-399960D01*
X273200Y-399774D01*
X273472Y-399502D01*
X273721Y-399535D01*
X274543Y-399427D01*
X275309Y-399109D01*
X275967Y-398605D01*
X276472Y-397947D01*
X276789Y-397181D01*
X276897Y-396358D01*
X276789Y-395536D01*
X276472Y-394770D01*
X276302Y-394548D01*
Y-363176D01*
X276802Y-362969D01*
X278324Y-364492D01*
Y-388850D01*
X278195Y-388979D01*
X277784Y-389514D01*
X277526Y-390137D01*
X277439Y-390805D01*
Y-393251D01*
X277526Y-393919D01*
X277784Y-394541D01*
X278195Y-395076D01*
X279013Y-395895D01*
Y-419338D01*
X265598Y-432754D01*
X250727D01*
X250506Y-432584D01*
X249740Y-432266D01*
X248917Y-432158D01*
X248095Y-432266D01*
X247329Y-432584D01*
X246671Y-433088D01*
X246166Y-433746D01*
X245849Y-434512D01*
X245741Y-435335D01*
X245849Y-436157D01*
X246166Y-436923D01*
X246671Y-437581D01*
X246965Y-437806D01*
X246757Y-438077D01*
X246439Y-438843D01*
X246331Y-439665D01*
X246439Y-440488D01*
X246757Y-441254D01*
X247061Y-441650D01*
X246747Y-442408D01*
X246639Y-443230D01*
X246747Y-444053D01*
X247064Y-444819D01*
X247569Y-445477D01*
X248227Y-445982D01*
X248993Y-446299D01*
X249815Y-446407D01*
X250638Y-446299D01*
X251404Y-445982D01*
X251625Y-445811D01*
X266415D01*
X267083Y-445723D01*
X267706Y-445466D01*
X268240Y-445055D01*
X288931Y-424365D01*
X289342Y-423830D01*
X289599Y-423207D01*
X289687Y-422539D01*
Y-395922D01*
X289719Y-395891D01*
X290129Y-395357D01*
X290387Y-394734D01*
X290475Y-394066D01*
Y-389989D01*
X290387Y-389321D01*
X290129Y-388699D01*
X289719Y-388164D01*
X288998Y-387444D01*
Y-361140D01*
X288911Y-360472D01*
X288653Y-359849D01*
X288408Y-359530D01*
Y-295853D01*
X297199Y-287061D01*
X297609Y-286527D01*
X297867Y-285904D01*
X297955Y-285236D01*
Y-279337D01*
X298147Y-278873D01*
X298255Y-278051D01*
X298147Y-277229D01*
X297830Y-276463D01*
X297325Y-275805D01*
X296667Y-275300D01*
X295901Y-274983D01*
X295079Y-274874D01*
X294256Y-274983D01*
X293490Y-275300D01*
X292832Y-275805D01*
X292328Y-276463D01*
X292010Y-277229D01*
X291962Y-277592D01*
X291599Y-277640D01*
X290833Y-277958D01*
X290175Y-278462D01*
X289670Y-279120D01*
X289353Y-279887D01*
X289350Y-279904D01*
X289272Y-279894D01*
X288449Y-280002D01*
X287683Y-280320D01*
X287025Y-280824D01*
X286521Y-281483D01*
X286203Y-282249D01*
X286095Y-283071D01*
X286203Y-283893D01*
X286238Y-283978D01*
X278612Y-291604D01*
X278090Y-292385D01*
X277906Y-293307D01*
Y-295158D01*
X277445Y-295349D01*
X273152Y-291057D01*
Y-279074D01*
X273322Y-278852D01*
X273639Y-278086D01*
X273748Y-277264D01*
X273639Y-276442D01*
X273322Y-275675D01*
X272817Y-275017D01*
X272159Y-274513D01*
X271393Y-274195D01*
X270571Y-274087D01*
D02*
G37*
G36*
X-197768Y-443376D02*
X-204067D01*
Y-445317D01*
X-208228D01*
Y-445652D01*
X-210421D01*
X-210667Y-445463D01*
X-211434Y-445146D01*
X-212256Y-445038D01*
X-213078Y-445146D01*
X-213844Y-445463D01*
X-214502Y-445968D01*
X-215007Y-446626D01*
X-215324Y-447392D01*
X-215433Y-448214D01*
X-215324Y-449037D01*
X-215007Y-449803D01*
X-214502Y-450461D01*
X-213844Y-450966D01*
X-213078Y-451283D01*
X-212256Y-451391D01*
X-211434Y-451283D01*
X-210667Y-450966D01*
X-210308Y-450690D01*
X-208228D01*
Y-451025D01*
X-204067D01*
Y-451250D01*
X-197768D01*
Y-443376D01*
D02*
G37*
G36*
Y-373876D02*
X-204067D01*
Y-375817D01*
X-208228D01*
Y-376263D01*
X-209707D01*
X-210154Y-375920D01*
X-210920Y-375603D01*
X-211742Y-375494D01*
X-212564Y-375603D01*
X-213330Y-375920D01*
X-213988Y-376425D01*
X-214493Y-377083D01*
X-214810Y-377849D01*
X-214919Y-378671D01*
X-214810Y-379493D01*
X-214493Y-380259D01*
X-213988Y-380917D01*
X-213330Y-381422D01*
X-212564Y-381740D01*
X-211742Y-381848D01*
X-210920Y-381740D01*
X-210154Y-381422D01*
X-209707Y-381080D01*
X-208228D01*
Y-381525D01*
X-204067D01*
Y-381750D01*
X-197768D01*
Y-373876D01*
D02*
G37*
G36*
X-94677Y-431031D02*
X-95808Y-431180D01*
X-96861Y-431616D01*
X-97766Y-432311D01*
X-98460Y-433215D01*
X-98897Y-434269D01*
X-99045Y-435399D01*
X-98897Y-436530D01*
X-98460Y-437584D01*
X-97766Y-438488D01*
X-96861Y-439183D01*
X-95808Y-439619D01*
X-94677Y-439768D01*
X-93546Y-439619D01*
X-92493Y-439183D01*
X-91588Y-438488D01*
X-90894Y-437584D01*
X-90458Y-436530D01*
X-90309Y-435399D01*
X-90458Y-434269D01*
X-90894Y-433215D01*
X-91588Y-432311D01*
X-92493Y-431616D01*
X-93546Y-431180D01*
X-94677Y-431031D01*
D02*
G37*
G36*
X105323Y-381031D02*
X104192Y-381180D01*
X103139Y-381616D01*
X102234Y-382311D01*
X101540Y-383215D01*
X101103Y-384269D01*
X100954Y-385400D01*
X101103Y-386530D01*
X101540Y-387584D01*
X102234Y-388488D01*
X103139Y-389183D01*
X104192Y-389619D01*
X105323Y-389768D01*
X106454Y-389619D01*
X107507Y-389183D01*
X108412Y-388488D01*
X109106Y-387584D01*
X109542Y-386530D01*
X109691Y-385400D01*
X109542Y-384269D01*
X109106Y-383215D01*
X108412Y-382311D01*
X107507Y-381616D01*
X106454Y-381180D01*
X105323Y-381031D01*
D02*
G37*
G36*
X-104677Y-371031D02*
X-105808Y-371180D01*
X-106861Y-371616D01*
X-107766Y-372311D01*
X-108460Y-373215D01*
X-108897Y-374269D01*
X-109046Y-375399D01*
X-108897Y-376530D01*
X-108460Y-377584D01*
X-107766Y-378488D01*
X-106861Y-379183D01*
X-105808Y-379619D01*
X-104677Y-379768D01*
X-103547Y-379619D01*
X-102493Y-379183D01*
X-101588Y-378488D01*
X-100894Y-377584D01*
X-100458Y-376530D01*
X-100309Y-375399D01*
X-100458Y-374269D01*
X-100894Y-373215D01*
X-101588Y-372311D01*
X-102493Y-371616D01*
X-103547Y-371180D01*
X-104677Y-371031D01*
D02*
G37*
G36*
X105323D02*
X104192Y-371180D01*
X103139Y-371616D01*
X102234Y-372311D01*
X101540Y-373215D01*
X101103Y-374269D01*
X100954Y-375399D01*
X101103Y-376530D01*
X101540Y-377584D01*
X102234Y-378488D01*
X103139Y-379183D01*
X104192Y-379619D01*
X105323Y-379768D01*
X106454Y-379619D01*
X107507Y-379183D01*
X108412Y-378488D01*
X109106Y-377584D01*
X109542Y-376530D01*
X109691Y-375399D01*
X109542Y-374269D01*
X109106Y-373215D01*
X108412Y-372311D01*
X107507Y-371616D01*
X106454Y-371180D01*
X105323Y-371031D01*
D02*
G37*
G36*
X95323D02*
X94192Y-371180D01*
X93139Y-371616D01*
X92234Y-372311D01*
X91540Y-373215D01*
X91103Y-374269D01*
X90955Y-375399D01*
X91103Y-376530D01*
X91540Y-377584D01*
X92234Y-378488D01*
X93139Y-379183D01*
X94192Y-379619D01*
X95323Y-379768D01*
X96453Y-379619D01*
X97507Y-379183D01*
X98412Y-378488D01*
X99106Y-377584D01*
X99542Y-376530D01*
X99691Y-375399D01*
X99542Y-374269D01*
X99106Y-373215D01*
X98412Y-372311D01*
X97507Y-371616D01*
X96453Y-371180D01*
X95323Y-371031D01*
D02*
G37*
G36*
Y-211031D02*
X94192Y-211180D01*
X93139Y-211616D01*
X92234Y-212311D01*
X91540Y-213215D01*
X91103Y-214269D01*
X90955Y-215400D01*
X91103Y-216530D01*
X91540Y-217584D01*
X92234Y-218488D01*
X93139Y-219183D01*
X94192Y-219619D01*
X95323Y-219768D01*
X96453Y-219619D01*
X97507Y-219183D01*
X98412Y-218488D01*
X99106Y-217584D01*
X99542Y-216530D01*
X99691Y-215400D01*
X99542Y-214269D01*
X99106Y-213215D01*
X98412Y-212311D01*
X97507Y-211616D01*
X96453Y-211180D01*
X95323Y-211031D01*
D02*
G37*
G36*
X-94677D02*
X-95808Y-211180D01*
X-96861Y-211616D01*
X-97766Y-212311D01*
X-98460Y-213215D01*
X-98897Y-214269D01*
X-99045Y-215400D01*
X-98897Y-216530D01*
X-98460Y-217584D01*
X-97766Y-218488D01*
X-96861Y-219183D01*
X-95808Y-219619D01*
X-94677Y-219768D01*
X-93546Y-219619D01*
X-92493Y-219183D01*
X-91588Y-218488D01*
X-90894Y-217584D01*
X-90458Y-216530D01*
X-90309Y-215400D01*
X-90458Y-214269D01*
X-90894Y-213215D01*
X-91588Y-212311D01*
X-92493Y-211616D01*
X-93546Y-211180D01*
X-94677Y-211031D01*
D02*
G37*
G36*
X105323Y-221031D02*
X104192Y-221180D01*
X103139Y-221616D01*
X102234Y-222311D01*
X101540Y-223215D01*
X101103Y-224269D01*
X100954Y-225399D01*
X101103Y-226530D01*
X101540Y-227584D01*
X102234Y-228488D01*
X103139Y-229183D01*
X104192Y-229619D01*
X105323Y-229768D01*
X106454Y-229619D01*
X107507Y-229183D01*
X108412Y-228488D01*
X109106Y-227584D01*
X109542Y-226530D01*
X109691Y-225399D01*
X109542Y-224269D01*
X109106Y-223215D01*
X108412Y-222311D01*
X107507Y-221616D01*
X106454Y-221180D01*
X105323Y-221031D01*
D02*
G37*
G36*
X238878Y-149182D02*
X231398D01*
X230473Y-149304D01*
X229611Y-149661D01*
X228871Y-150229D01*
X228303Y-150969D01*
X227945Y-151831D01*
X227824Y-152756D01*
X227945Y-153681D01*
X228303Y-154543D01*
X228871Y-155283D01*
X229611Y-155851D01*
X230473Y-156208D01*
X231398Y-156330D01*
X238878D01*
X239803Y-156208D01*
X240665Y-155851D01*
X241405Y-155283D01*
X241973Y-154543D01*
X242330Y-153681D01*
X242452Y-152756D01*
X242330Y-151831D01*
X241973Y-150969D01*
X241405Y-150229D01*
X240665Y-149661D01*
X239803Y-149304D01*
X238878Y-149182D01*
D02*
G37*
G36*
X216437D02*
X208957D01*
X208032Y-149304D01*
X207170Y-149661D01*
X206430Y-150229D01*
X205862Y-150969D01*
X205505Y-151831D01*
X205383Y-152756D01*
X205505Y-153681D01*
X205862Y-154543D01*
X206430Y-155283D01*
X207170Y-155851D01*
X208032Y-156208D01*
X208957Y-156330D01*
X210116D01*
Y-166097D01*
X209906Y-166124D01*
X209140Y-166442D01*
X208482Y-166947D01*
X207977Y-167604D01*
X207660Y-168371D01*
X207552Y-169193D01*
X207660Y-170015D01*
X207977Y-170781D01*
X208482Y-171439D01*
X209140Y-171944D01*
X209906Y-172261D01*
X210728Y-172370D01*
X211551Y-172261D01*
X212317Y-171944D01*
X212975Y-171439D01*
X213479Y-170781D01*
X213797Y-170015D01*
X213833Y-169738D01*
X214522Y-169050D01*
X214932Y-168515D01*
X215190Y-167893D01*
X215278Y-167224D01*
Y-156330D01*
X216437D01*
X217362Y-156208D01*
X218224Y-155851D01*
X218964Y-155283D01*
X219532Y-154543D01*
X219889Y-153681D01*
X220011Y-152756D01*
X219889Y-151831D01*
X219532Y-150969D01*
X218964Y-150229D01*
X218224Y-149661D01*
X217362Y-149304D01*
X216437Y-149182D01*
D02*
G37*
G36*
X105323Y-211031D02*
X104192Y-211180D01*
X103139Y-211616D01*
X102234Y-212311D01*
X101540Y-213215D01*
X101103Y-214269D01*
X100954Y-215400D01*
X101103Y-216530D01*
X101540Y-217584D01*
X102234Y-218488D01*
X103139Y-219183D01*
X104192Y-219619D01*
X105323Y-219768D01*
X106454Y-219619D01*
X107507Y-219183D01*
X108412Y-218488D01*
X109106Y-217584D01*
X109542Y-216530D01*
X109691Y-215400D01*
X109542Y-214269D01*
X109106Y-213215D01*
X108412Y-212311D01*
X107507Y-211616D01*
X106454Y-211180D01*
X105323Y-211031D01*
D02*
G37*
G36*
X95323Y-221031D02*
X94192Y-221180D01*
X93139Y-221616D01*
X92234Y-222311D01*
X91540Y-223215D01*
X91103Y-224269D01*
X90955Y-225399D01*
X91103Y-226530D01*
X91540Y-227584D01*
X92234Y-228488D01*
X93139Y-229183D01*
X94192Y-229619D01*
X95323Y-229768D01*
X96453Y-229619D01*
X97507Y-229183D01*
X98412Y-228488D01*
X99106Y-227584D01*
X99542Y-226530D01*
X99691Y-225399D01*
X99542Y-224269D01*
X99106Y-223215D01*
X98412Y-222311D01*
X97507Y-221616D01*
X96453Y-221180D01*
X95323Y-221031D01*
D02*
G37*
G36*
X-94677Y-231031D02*
X-95808Y-231180D01*
X-96861Y-231616D01*
X-97766Y-232311D01*
X-98460Y-233215D01*
X-98897Y-234269D01*
X-99045Y-235400D01*
X-98897Y-236530D01*
X-98460Y-237584D01*
X-97766Y-238488D01*
X-96861Y-239183D01*
X-95808Y-239619D01*
X-94677Y-239768D01*
X-93546Y-239619D01*
X-92493Y-239183D01*
X-91588Y-238488D01*
X-90894Y-237584D01*
X-90458Y-236530D01*
X-90309Y-235400D01*
X-90458Y-234269D01*
X-90894Y-233215D01*
X-91588Y-232311D01*
X-92493Y-231616D01*
X-93546Y-231180D01*
X-94677Y-231031D01*
D02*
G37*
G36*
X-161614Y-553051D02*
X-173425D01*
Y-563287D01*
X-161614D01*
Y-560554D01*
X-161071D01*
X-160370Y-560844D01*
X-159547Y-560952D01*
X-158725Y-560844D01*
X-157959Y-560527D01*
X-157301Y-560022D01*
X-156796Y-559364D01*
X-156479Y-558598D01*
X-156370Y-557776D01*
X-156479Y-556953D01*
X-156796Y-556187D01*
X-157301Y-555529D01*
X-157959Y-555024D01*
X-158725Y-554707D01*
X-159547Y-554599D01*
X-160370Y-554707D01*
X-161136Y-555024D01*
X-161614Y-554761D01*
Y-553051D01*
D02*
G37*
G36*
X105323Y-241031D02*
X104192Y-241180D01*
X103139Y-241616D01*
X102234Y-242311D01*
X101540Y-243215D01*
X101103Y-244269D01*
X100954Y-245399D01*
X101103Y-246530D01*
X101540Y-247584D01*
X102234Y-248488D01*
X103139Y-249183D01*
X104192Y-249619D01*
X105323Y-249768D01*
X106454Y-249619D01*
X107507Y-249183D01*
X108412Y-248488D01*
X109106Y-247584D01*
X109542Y-246530D01*
X109691Y-245399D01*
X109542Y-244269D01*
X109106Y-243215D01*
X108412Y-242311D01*
X107507Y-241616D01*
X106454Y-241180D01*
X105323Y-241031D01*
D02*
G37*
G36*
X-94677Y-221031D02*
X-95808Y-221180D01*
X-96861Y-221616D01*
X-97766Y-222311D01*
X-98460Y-223215D01*
X-98897Y-224269D01*
X-99045Y-225399D01*
X-98897Y-226530D01*
X-98460Y-227584D01*
X-97766Y-228488D01*
X-96861Y-229183D01*
X-95808Y-229619D01*
X-94677Y-229768D01*
X-93546Y-229619D01*
X-92493Y-229183D01*
X-91588Y-228488D01*
X-90894Y-227584D01*
X-90458Y-226530D01*
X-90309Y-225399D01*
X-90458Y-224269D01*
X-90894Y-223215D01*
X-91588Y-222311D01*
X-92493Y-221616D01*
X-93546Y-221180D01*
X-94677Y-221031D01*
D02*
G37*
G36*
X105323Y-231031D02*
X104192Y-231180D01*
X103139Y-231616D01*
X102234Y-232311D01*
X101540Y-233215D01*
X101103Y-234269D01*
X100954Y-235400D01*
X101103Y-236530D01*
X101540Y-237584D01*
X102234Y-238488D01*
X103139Y-239183D01*
X104192Y-239619D01*
X105323Y-239768D01*
X106454Y-239619D01*
X107507Y-239183D01*
X108412Y-238488D01*
X109106Y-237584D01*
X109542Y-236530D01*
X109691Y-235400D01*
X109542Y-234269D01*
X109106Y-233215D01*
X108412Y-232311D01*
X107507Y-231616D01*
X106454Y-231180D01*
X105323Y-231031D01*
D02*
G37*
G36*
X87992Y-32355D02*
X87170Y-32463D01*
X86404Y-32780D01*
X85746Y-33285D01*
X85241Y-33943D01*
X84924Y-34709D01*
X84854Y-35239D01*
X82865Y-37229D01*
X82319Y-38046D01*
X82127Y-39010D01*
Y-66466D01*
X82127Y-244722D01*
X82319Y-245686D01*
X82865Y-246503D01*
X91048Y-254687D01*
X90955Y-255399D01*
X91103Y-256530D01*
X91540Y-257584D01*
X92234Y-258488D01*
X93139Y-259183D01*
X94192Y-259619D01*
X95323Y-259768D01*
X96453Y-259619D01*
X97507Y-259183D01*
X98412Y-258488D01*
X99106Y-257584D01*
X99542Y-256530D01*
X99691Y-255399D01*
X99542Y-254269D01*
X99106Y-253215D01*
X98412Y-252311D01*
X97507Y-251616D01*
X96453Y-251180D01*
X95323Y-251031D01*
X94611Y-251125D01*
X93260Y-249774D01*
X93543Y-249350D01*
X94192Y-249619D01*
X95323Y-249768D01*
X96453Y-249619D01*
X97507Y-249183D01*
X98412Y-248488D01*
X99106Y-247584D01*
X99542Y-246530D01*
X99691Y-245399D01*
X99542Y-244269D01*
X99106Y-243215D01*
X98412Y-242311D01*
X97507Y-241616D01*
X96453Y-241180D01*
X95323Y-241031D01*
X94611Y-241125D01*
X93260Y-239774D01*
X93543Y-239350D01*
X94192Y-239619D01*
X95323Y-239768D01*
X96453Y-239619D01*
X97507Y-239183D01*
X98412Y-238488D01*
X99106Y-237584D01*
X99542Y-236530D01*
X99691Y-235400D01*
X99542Y-234269D01*
X99106Y-233215D01*
X98412Y-232311D01*
X97507Y-231616D01*
X96453Y-231180D01*
X95323Y-231031D01*
X94192Y-231180D01*
X93139Y-231616D01*
X92234Y-232311D01*
X91540Y-233215D01*
X91103Y-234269D01*
X90955Y-235400D01*
X91103Y-236530D01*
X91373Y-237180D01*
X90949Y-237463D01*
X89574Y-236088D01*
Y-49407D01*
X89581Y-49405D01*
X90238Y-48900D01*
X90743Y-48242D01*
X91061Y-47476D01*
X91169Y-46654D01*
X91061Y-45831D01*
X90743Y-45065D01*
X90238Y-44407D01*
X89581Y-43902D01*
X88814Y-43585D01*
X87992Y-43477D01*
X87665Y-43520D01*
X87164Y-43081D01*
Y-40053D01*
X88588Y-38630D01*
X88814Y-38600D01*
X89581Y-38283D01*
X90238Y-37778D01*
X90743Y-37120D01*
X91061Y-36354D01*
X91169Y-35531D01*
X91061Y-34709D01*
X90743Y-33943D01*
X90238Y-33285D01*
X89581Y-32780D01*
X88814Y-32463D01*
X87992Y-32355D01*
D02*
G37*
G36*
X188976Y-63704D02*
X187692Y-63873D01*
X186495Y-64368D01*
X185467Y-65157D01*
X184678Y-66185D01*
X184182Y-67383D01*
X184013Y-68667D01*
X184182Y-69952D01*
X184678Y-71149D01*
X185467Y-72177D01*
X186395Y-72890D01*
Y-75000D01*
X182677D01*
Y-75470D01*
X178021D01*
X177671Y-75202D01*
X176905Y-74884D01*
X176083Y-74776D01*
X175260Y-74884D01*
X174494Y-75202D01*
X173836Y-75706D01*
X173331Y-76364D01*
X173014Y-77131D01*
X172978Y-77407D01*
X160970Y-89415D01*
X160560Y-89950D01*
X160302Y-90572D01*
X160214Y-91240D01*
Y-159758D01*
X155911Y-164061D01*
X155807Y-164048D01*
X154985Y-164156D01*
X154219Y-164473D01*
X153561Y-164978D01*
X153056Y-165636D01*
X152739Y-166402D01*
X152630Y-167224D01*
X152739Y-168047D01*
X153056Y-168813D01*
X153561Y-169471D01*
X154219Y-169976D01*
X154985Y-170293D01*
X155807Y-170401D01*
X156629Y-170293D01*
X157396Y-169976D01*
X158053Y-169471D01*
X158558Y-168813D01*
X158628Y-168644D01*
X158705Y-168567D01*
X159195Y-168665D01*
X159257Y-168813D01*
X159762Y-169471D01*
X159884Y-169564D01*
X159650Y-169868D01*
X159333Y-170634D01*
X159225Y-171457D01*
X159333Y-172279D01*
X159650Y-173045D01*
X160155Y-173703D01*
X160809Y-174204D01*
X160893Y-174271D01*
X160951Y-174769D01*
X158215Y-177505D01*
X157938Y-177542D01*
X157171Y-177859D01*
X156514Y-178364D01*
X156009Y-179022D01*
X155691Y-179788D01*
X155583Y-180610D01*
X155691Y-181432D01*
X156009Y-182199D01*
X156514Y-182857D01*
X157171Y-183361D01*
X157938Y-183679D01*
X158760Y-183787D01*
X159582Y-183679D01*
X160348Y-183361D01*
X161006Y-182857D01*
X161511Y-182199D01*
X161828Y-181432D01*
X161865Y-181156D01*
X172987Y-170034D01*
X173397Y-169499D01*
X173655Y-168877D01*
X173743Y-168209D01*
Y-133648D01*
X177841Y-129550D01*
X193072D01*
X193293Y-129720D01*
X194060Y-130037D01*
X194882Y-130145D01*
X195704Y-130037D01*
X196470Y-129720D01*
X196692Y-129550D01*
X202165D01*
Y-130020D01*
X211417D01*
Y-123917D01*
X211070D01*
Y-122372D01*
X211143Y-122342D01*
X212171Y-121553D01*
X212960Y-120525D01*
X213456Y-119328D01*
X213625Y-118043D01*
X213456Y-116759D01*
X212960Y-115561D01*
X212171Y-114533D01*
X211143Y-113745D01*
X209946Y-113249D01*
X208661Y-113080D01*
X207377Y-113249D01*
X206180Y-113745D01*
X205152Y-114533D01*
X204363Y-115561D01*
X203867Y-116759D01*
X203698Y-118043D01*
X203867Y-119328D01*
X204363Y-120525D01*
X205152Y-121553D01*
X206180Y-122342D01*
X206253Y-122372D01*
Y-123917D01*
X202165D01*
Y-124387D01*
X196692D01*
X196470Y-124217D01*
X195704Y-123900D01*
X194882Y-123792D01*
X194060Y-123900D01*
X193293Y-124217D01*
X193072Y-124387D01*
X176772D01*
X176104Y-124475D01*
X175481Y-124733D01*
X174946Y-125143D01*
X171350Y-128740D01*
X170888Y-128548D01*
Y-119376D01*
X175774Y-114491D01*
X188091D01*
X188759Y-114403D01*
X189381Y-114145D01*
X189916Y-113735D01*
X200939Y-102711D01*
X201216Y-102675D01*
X201982Y-102357D01*
X202204Y-102187D01*
X206398D01*
Y-102657D01*
X215650D01*
Y-96555D01*
X215105D01*
Y-94664D01*
X215179Y-94633D01*
X216207Y-93844D01*
X216996Y-92817D01*
X217491Y-91619D01*
X217661Y-90335D01*
X217491Y-89050D01*
X216996Y-87853D01*
X216207Y-86825D01*
X215179Y-86036D01*
X213982Y-85540D01*
X212697Y-85371D01*
X211412Y-85540D01*
X210215Y-86036D01*
X209187Y-86825D01*
X208398Y-87853D01*
X207902Y-89050D01*
X207733Y-90335D01*
X207902Y-91619D01*
X208398Y-92817D01*
X209187Y-93844D01*
X210215Y-94633D01*
X210288Y-94664D01*
Y-96555D01*
X206398D01*
Y-97025D01*
X202204D01*
X201982Y-96855D01*
X201216Y-96538D01*
X200394Y-96430D01*
X199572Y-96538D01*
X198805Y-96855D01*
X198147Y-97360D01*
X197643Y-98018D01*
X197325Y-98784D01*
X197289Y-99061D01*
X187906Y-108444D01*
X187814Y-108451D01*
X187402Y-108120D01*
X187402Y-107918D01*
Y-102264D01*
X187054D01*
Y-100628D01*
X187127Y-100598D01*
X188156Y-99809D01*
X188944Y-98781D01*
X189440Y-97584D01*
X189609Y-96299D01*
X189440Y-95015D01*
X188944Y-93817D01*
X188156Y-92789D01*
X187127Y-92001D01*
X185930Y-91505D01*
X184646Y-91335D01*
X183361Y-91505D01*
X182164Y-92001D01*
X181136Y-92789D01*
X180347Y-93817D01*
X179851Y-95015D01*
X179682Y-96299D01*
X179851Y-97584D01*
X180347Y-98781D01*
X181136Y-99809D01*
X182164Y-100598D01*
X182237Y-100628D01*
Y-102264D01*
X178150D01*
Y-102734D01*
X173750D01*
X173143Y-102269D01*
X172377Y-101951D01*
X171555Y-101843D01*
X170733Y-101951D01*
X169967Y-102269D01*
X169309Y-102773D01*
X168804Y-103431D01*
X168487Y-104198D01*
X168450Y-104474D01*
X165838Y-107086D01*
X165376Y-106895D01*
Y-92309D01*
X176628Y-81058D01*
X176905Y-81021D01*
X177671Y-80704D01*
X177764Y-80632D01*
X182677D01*
Y-81102D01*
X191929D01*
Y-78798D01*
X191962Y-78719D01*
X192050Y-78051D01*
X191962Y-77383D01*
X191929Y-77305D01*
Y-75000D01*
X191558D01*
Y-72890D01*
X192486Y-72177D01*
X193275Y-71149D01*
X193771Y-69952D01*
X193940Y-68667D01*
X193771Y-67383D01*
X193275Y-66185D01*
X192486Y-65157D01*
X191458Y-64368D01*
X190261Y-63873D01*
X188976Y-63704D01*
D02*
G37*
G36*
X-188976D02*
X-190261Y-63873D01*
X-191458Y-64368D01*
X-192486Y-65157D01*
X-193275Y-66185D01*
X-193771Y-67383D01*
X-193940Y-68667D01*
X-193771Y-69952D01*
X-193275Y-71149D01*
X-192486Y-72177D01*
X-191458Y-72966D01*
X-191385Y-72996D01*
Y-74606D01*
X-191732D01*
Y-80709D01*
X-182480D01*
Y-80239D01*
X-176998D01*
X-176391Y-80704D01*
X-175625Y-81021D01*
X-174803Y-81129D01*
X-173981Y-81021D01*
X-173215Y-80704D01*
X-172557Y-80199D01*
X-172052Y-79541D01*
X-171735Y-78775D01*
X-171626Y-77953D01*
X-171735Y-77131D01*
X-172052Y-76364D01*
X-172557Y-75706D01*
X-173215Y-75202D01*
X-173981Y-74884D01*
X-174803Y-74776D01*
X-175625Y-74884D01*
X-176089Y-75076D01*
X-182480D01*
Y-74606D01*
X-186568D01*
Y-72996D01*
X-186495Y-72966D01*
X-185467Y-72177D01*
X-184678Y-71149D01*
X-184182Y-69952D01*
X-184013Y-68667D01*
X-184182Y-67383D01*
X-184678Y-66185D01*
X-185467Y-65157D01*
X-186495Y-64368D01*
X-187692Y-63873D01*
X-188976Y-63704D01*
D02*
G37*
G36*
X-212697Y-85371D02*
X-213982Y-85540D01*
X-215179Y-86036D01*
X-216207Y-86825D01*
X-216996Y-87853D01*
X-217491Y-89050D01*
X-217661Y-90335D01*
X-217491Y-91619D01*
X-216996Y-92817D01*
X-216207Y-93844D01*
X-215179Y-94633D01*
X-215105Y-94664D01*
Y-96457D01*
X-215650D01*
Y-102559D01*
X-206398D01*
Y-102089D01*
X-202362D01*
X-201884Y-102456D01*
X-201117Y-102773D01*
X-200295Y-102882D01*
X-199473Y-102773D01*
X-198707Y-102456D01*
X-198049Y-101951D01*
X-197544Y-101293D01*
X-197227Y-100527D01*
X-197118Y-99705D01*
X-197227Y-98883D01*
X-197544Y-98116D01*
X-198049Y-97458D01*
X-198707Y-96953D01*
X-199473Y-96636D01*
X-200295Y-96528D01*
X-201117Y-96636D01*
X-201819Y-96927D01*
X-206398D01*
Y-96457D01*
X-210288D01*
Y-94664D01*
X-210215Y-94633D01*
X-209187Y-93844D01*
X-208398Y-92817D01*
X-207902Y-91619D01*
X-207733Y-90335D01*
X-207902Y-89050D01*
X-208398Y-87853D01*
X-209187Y-86825D01*
X-210215Y-86036D01*
X-211412Y-85540D01*
X-212697Y-85371D01*
D02*
G37*
G36*
X161417Y-38936D02*
X159797Y-39096D01*
X158238Y-39569D01*
X156802Y-40336D01*
X155543Y-41370D01*
X154510Y-42629D01*
X153742Y-44065D01*
X153269Y-45623D01*
X153110Y-47244D01*
X153269Y-48865D01*
X153742Y-50423D01*
X154510Y-51860D01*
X155543Y-53118D01*
X156802Y-54152D01*
X158238Y-54919D01*
X159797Y-55392D01*
X161417Y-55552D01*
X163038Y-55392D01*
X164596Y-54919D01*
X166033Y-54152D01*
X167292Y-53118D01*
X168325Y-51860D01*
X169093Y-50423D01*
X169565Y-48865D01*
X169725Y-47244D01*
X169565Y-45623D01*
X169093Y-44065D01*
X168325Y-42629D01*
X167292Y-41370D01*
X166033Y-40336D01*
X164596Y-39569D01*
X163038Y-39096D01*
X161417Y-38936D01*
D02*
G37*
G36*
X-161417D02*
X-163038Y-39096D01*
X-164597Y-39569D01*
X-166033Y-40336D01*
X-167292Y-41370D01*
X-168325Y-42629D01*
X-169093Y-44065D01*
X-169565Y-45623D01*
X-169725Y-47244D01*
X-169565Y-48865D01*
X-169093Y-50423D01*
X-168325Y-51860D01*
X-167292Y-53118D01*
X-166033Y-54152D01*
X-164597Y-54919D01*
X-163038Y-55392D01*
X-161417Y-55552D01*
X-159797Y-55392D01*
X-158238Y-54919D01*
X-156802Y-54152D01*
X-155543Y-53118D01*
X-154510Y-51860D01*
X-153742Y-50423D01*
X-153269Y-48865D01*
X-153110Y-47244D01*
X-153269Y-45623D01*
X-153742Y-44065D01*
X-154510Y-42629D01*
X-155543Y-41370D01*
X-156802Y-40336D01*
X-158238Y-39569D01*
X-159797Y-39096D01*
X-161417Y-38936D01*
D02*
G37*
G36*
X115323Y-30436D02*
X114038Y-30605D01*
X112841Y-31101D01*
X111813Y-31890D01*
X111024Y-32918D01*
X110528Y-34115D01*
X110359Y-35399D01*
X110528Y-36684D01*
X111024Y-37881D01*
X111813Y-38909D01*
X112841Y-39698D01*
X113915Y-40143D01*
X113915Y-40144D01*
Y-40655D01*
X113915Y-40656D01*
X112841Y-41101D01*
X111813Y-41890D01*
X111024Y-42918D01*
X110528Y-44115D01*
X110359Y-45399D01*
X110528Y-46684D01*
X111024Y-47881D01*
X111813Y-48909D01*
X112841Y-49698D01*
X113915Y-50143D01*
X113915Y-50144D01*
Y-50655D01*
X113915Y-50656D01*
X112841Y-51101D01*
X111813Y-51890D01*
X111024Y-52918D01*
X110528Y-54115D01*
X110359Y-55400D01*
X110528Y-56684D01*
X111024Y-57881D01*
X111813Y-58909D01*
X112841Y-59698D01*
X114038Y-60194D01*
X115323Y-60363D01*
X116608Y-60194D01*
X117805Y-59698D01*
X118833Y-58909D01*
X119622Y-57881D01*
X120117Y-56684D01*
X120287Y-55400D01*
X120117Y-54115D01*
X119622Y-52918D01*
X118833Y-51890D01*
X117805Y-51101D01*
X116731Y-50656D01*
X116731Y-50655D01*
Y-50144D01*
X116731Y-50143D01*
X117805Y-49698D01*
X118833Y-48909D01*
X119622Y-47881D01*
X120117Y-46684D01*
X120287Y-45399D01*
X120117Y-44115D01*
X119622Y-42918D01*
X118833Y-41890D01*
X117805Y-41101D01*
X116731Y-40656D01*
X116731Y-40655D01*
Y-40144D01*
X116731Y-40143D01*
X117805Y-39698D01*
X118833Y-38909D01*
X119622Y-37881D01*
X120117Y-36684D01*
X120287Y-35399D01*
X120117Y-34115D01*
X119622Y-32918D01*
X118833Y-31890D01*
X117805Y-31101D01*
X116608Y-30605D01*
X115323Y-30436D01*
D02*
G37*
G36*
X-184646Y-91335D02*
X-185930Y-91505D01*
X-187127Y-92001D01*
X-188155Y-92789D01*
X-188944Y-93817D01*
X-189440Y-95015D01*
X-189609Y-96299D01*
X-189440Y-97584D01*
X-188944Y-98781D01*
X-188155Y-99809D01*
X-187127Y-100598D01*
X-187054Y-100628D01*
Y-102067D01*
X-187402D01*
Y-108169D01*
X-178150D01*
Y-107699D01*
X-172942D01*
X-172848Y-107771D01*
X-172082Y-108088D01*
X-171260Y-108196D01*
X-170438Y-108088D01*
X-169671Y-107771D01*
X-169014Y-107266D01*
X-168509Y-106608D01*
X-168191Y-105842D01*
X-168083Y-105020D01*
X-168191Y-104198D01*
X-168509Y-103431D01*
X-169014Y-102773D01*
X-169671Y-102269D01*
X-170438Y-101951D01*
X-171260Y-101843D01*
X-172082Y-101951D01*
X-172848Y-102269D01*
X-173198Y-102537D01*
X-178150D01*
Y-102067D01*
X-182237D01*
Y-100628D01*
X-182164Y-100598D01*
X-181136Y-99809D01*
X-180347Y-98781D01*
X-179851Y-97584D01*
X-179682Y-96299D01*
X-179851Y-95015D01*
X-180347Y-93817D01*
X-181136Y-92789D01*
X-182164Y-92001D01*
X-183361Y-91505D01*
X-184646Y-91335D01*
D02*
G37*
G36*
X238878Y-139339D02*
X231398D01*
X230473Y-139461D01*
X229611Y-139818D01*
X228871Y-140386D01*
X228303Y-141126D01*
X227945Y-141988D01*
X227824Y-142913D01*
X227945Y-143838D01*
X228303Y-144700D01*
X228871Y-145440D01*
X229611Y-146008D01*
X230473Y-146365D01*
X231398Y-146487D01*
X238878D01*
X239803Y-146365D01*
X240665Y-146008D01*
X241405Y-145440D01*
X241973Y-144700D01*
X242330Y-143838D01*
X242452Y-142913D01*
X242330Y-141988D01*
X241973Y-141126D01*
X241405Y-140386D01*
X240665Y-139818D01*
X239803Y-139461D01*
X238878Y-139339D01*
D02*
G37*
G36*
X-121677Y-88392D02*
X-122445Y-88545D01*
X-123096Y-88980D01*
X-127096Y-92980D01*
X-127531Y-93631D01*
X-127684Y-94399D01*
X-127684Y-141198D01*
X-134958Y-148392D01*
X-164685Y-148392D01*
X-165453Y-148545D01*
X-166104Y-148980D01*
X-195696Y-178572D01*
X-195914Y-178898D01*
X-196131Y-179222D01*
X-196131Y-179223D01*
X-196131Y-179223D01*
X-196208Y-179608D01*
X-196284Y-179990D01*
X-196296Y-194601D01*
X-197043Y-195392D01*
X-217677D01*
X-218445Y-195545D01*
X-219096Y-195980D01*
X-221355Y-198239D01*
X-221790Y-198890D01*
X-221943Y-199658D01*
X-221943Y-211641D01*
X-221790Y-212409D01*
X-221355Y-213060D01*
X-219096Y-215319D01*
X-218445Y-215754D01*
X-217677Y-215907D01*
X-197622Y-215907D01*
X-196683Y-217043D01*
X-196628Y-241930D01*
X-196981Y-242284D01*
X-210927Y-242284D01*
X-211695Y-242437D01*
X-212346Y-242872D01*
X-212653D01*
X-212873Y-242760D01*
X-213504Y-242339D01*
X-214272Y-242186D01*
X-224508Y-242186D01*
X-225276Y-242339D01*
X-225927Y-242774D01*
X-231546Y-248392D01*
X-243177Y-248392D01*
X-243945Y-248545D01*
X-244596Y-248980D01*
X-245031Y-249631D01*
X-245184Y-250399D01*
Y-258392D01*
X-264677D01*
X-265445Y-258545D01*
X-266096Y-258980D01*
X-266531Y-259631D01*
X-266684Y-260400D01*
Y-269391D01*
X-266531Y-270159D01*
X-266374Y-270394D01*
X-266531Y-270630D01*
X-266684Y-271398D01*
Y-281398D01*
X-266531Y-282166D01*
X-266096Y-282817D01*
X-265445Y-283252D01*
X-264677Y-283405D01*
X-230472D01*
X-229704Y-283252D01*
X-229053Y-282817D01*
X-228618Y-282166D01*
X-228465Y-281398D01*
Y-271398D01*
X-228618Y-270630D01*
X-228776Y-270394D01*
X-228618Y-270159D01*
X-228465Y-269391D01*
Y-265857D01*
X-228002Y-265670D01*
X-225816Y-267931D01*
X-225802Y-267940D01*
X-225792Y-267955D01*
X-225481Y-268163D01*
X-225172Y-268376D01*
X-225156Y-268380D01*
X-225141Y-268390D01*
X-224774Y-268463D01*
X-224407Y-268542D01*
X-224390Y-268539D01*
X-224373Y-268543D01*
X-214272Y-268543D01*
X-213504Y-268390D01*
X-213388Y-268312D01*
X-212897Y-268586D01*
X-212781Y-269167D01*
X-212346Y-269819D01*
X-211695Y-270254D01*
X-210927Y-270407D01*
X-196566Y-270407D01*
X-196562Y-271967D01*
X-196485Y-272350D01*
X-196409Y-272730D01*
X-196408Y-272732D01*
X-196408Y-272735D01*
X-196346Y-272826D01*
Y-279356D01*
X-196392Y-279424D01*
X-196393Y-279426D01*
X-196393Y-279426D01*
X-196470Y-279817D01*
X-196544Y-280193D01*
X-196544Y-280194D01*
X-196544Y-280195D01*
X-196515Y-293570D01*
X-197860Y-294916D01*
X-222177Y-294916D01*
X-222555Y-294991D01*
X-222934Y-295063D01*
X-222939Y-295067D01*
X-222945Y-295068D01*
X-223265Y-295282D01*
X-223587Y-295495D01*
X-226095Y-297972D01*
X-226099Y-297977D01*
X-226104Y-297980D01*
X-226318Y-298300D01*
X-226535Y-298620D01*
X-226536Y-298626D01*
X-226539Y-298631D01*
X-226614Y-299009D01*
X-226692Y-299387D01*
X-226691Y-299393D01*
X-226692Y-299399D01*
X-226692Y-313400D01*
X-226692Y-313402D01*
X-226692Y-313403D01*
X-226616Y-313783D01*
X-226539Y-314167D01*
X-226538Y-314169D01*
X-226538Y-314171D01*
X-226320Y-314496D01*
X-226104Y-314819D01*
X-226103Y-314820D01*
X-226101Y-314822D01*
X-224094Y-316822D01*
X-223769Y-317038D01*
X-223445Y-317254D01*
X-223443Y-317254D01*
X-223442Y-317255D01*
X-223062Y-317330D01*
X-222677Y-317407D01*
X-197508Y-317407D01*
X-196737Y-318178D01*
X-196736Y-341320D01*
X-197090Y-341674D01*
X-211677D01*
X-212445Y-341827D01*
X-213096Y-342262D01*
X-213381Y-342687D01*
X-213645Y-342678D01*
X-213932Y-342613D01*
X-214129Y-342318D01*
X-214329Y-342019D01*
X-214329Y-342019D01*
X-214329Y-342019D01*
X-214628Y-341819D01*
X-214980Y-341583D01*
X-215072Y-341545D01*
X-215072Y-341545D01*
X-215072Y-341545D01*
X-215382Y-341484D01*
X-215840Y-341392D01*
X-215840Y-341392D01*
X-215840Y-341392D01*
X-225177Y-341392D01*
X-225268Y-341410D01*
X-225360Y-341401D01*
X-225649Y-341486D01*
X-225945Y-341545D01*
X-226022Y-341597D01*
X-226111Y-341623D01*
X-226345Y-341813D01*
X-226596Y-341980D01*
X-226648Y-342057D01*
X-226720Y-342115D01*
X-231298Y-347616D01*
X-231442Y-347881D01*
X-231610Y-348132D01*
X-231628Y-348223D01*
X-231672Y-348304D01*
X-231682Y-348392D01*
X-242177D01*
X-242945Y-348545D01*
X-243596Y-348980D01*
X-244031Y-349631D01*
X-244184Y-350399D01*
Y-359351D01*
X-262008D01*
X-262776Y-359504D01*
X-263427Y-359939D01*
X-263862Y-360590D01*
X-264015Y-361358D01*
Y-368409D01*
X-263999Y-368489D01*
X-264006Y-368531D01*
X-263976Y-368653D01*
X-263976Y-368804D01*
X-263968Y-368841D01*
X-263893Y-369022D01*
X-263862Y-369177D01*
X-263841Y-369209D01*
X-263820Y-369292D01*
X-263728Y-369419D01*
X-263667Y-369564D01*
X-263498Y-369732D01*
X-263496Y-369736D01*
X-263764Y-370138D01*
X-263916Y-370905D01*
X-263916Y-380906D01*
X-263764Y-381674D01*
X-263329Y-382325D01*
X-262678Y-382760D01*
X-261910Y-382913D01*
X-230410D01*
X-229641Y-382760D01*
X-228990Y-382325D01*
X-228555Y-381674D01*
X-228402Y-380906D01*
Y-370905D01*
X-228555Y-370137D01*
X-228762Y-369828D01*
X-228654Y-369667D01*
X-228501Y-368898D01*
Y-367838D01*
X-228023Y-367689D01*
X-226948Y-369249D01*
X-226816Y-369377D01*
X-226714Y-369530D01*
X-226538Y-369647D01*
X-226386Y-369795D01*
X-226216Y-369863D01*
X-226063Y-369965D01*
X-225855Y-370006D01*
X-225658Y-370084D01*
X-225475Y-370082D01*
X-225295Y-370117D01*
X-215748D01*
X-214980Y-369965D01*
X-214329Y-369530D01*
X-214184Y-369313D01*
X-213684Y-369465D01*
Y-369783D01*
X-213531Y-370551D01*
X-213096Y-371203D01*
X-212445Y-371638D01*
X-211677Y-371791D01*
X-197088D01*
X-196734Y-372110D01*
X-196734Y-373876D01*
X-196655Y-374276D01*
X-196587Y-374619D01*
Y-381362D01*
X-196734Y-382103D01*
X-196732Y-410860D01*
X-197086Y-411213D01*
X-212618Y-411213D01*
X-213386Y-411366D01*
X-214037Y-411801D01*
X-214472Y-412453D01*
X-214625Y-413221D01*
X-214625Y-438976D01*
X-214472Y-439745D01*
X-214037Y-440396D01*
X-213386Y-440831D01*
X-212618Y-440983D01*
X-197085D01*
X-196731Y-441303D01*
X-196731Y-443376D01*
X-196651Y-443776D01*
X-196587Y-444101D01*
Y-450880D01*
X-196730Y-451604D01*
X-196730Y-462568D01*
X-197508Y-463347D01*
X-208677D01*
X-209445Y-463500D01*
X-210096Y-463935D01*
X-212743Y-466581D01*
X-212743Y-466581D01*
X-212743Y-466581D01*
X-212959Y-466905D01*
X-213178Y-467232D01*
X-213178Y-467232D01*
X-213178Y-467233D01*
X-213255Y-467619D01*
X-213331Y-468000D01*
X-213331Y-468001D01*
X-213331Y-468001D01*
X-213330Y-480000D01*
X-213321Y-480047D01*
X-213328Y-480094D01*
X-213245Y-480429D01*
X-213177Y-480768D01*
X-213151Y-480808D01*
X-213139Y-480854D01*
X-212934Y-481132D01*
X-212742Y-481419D01*
X-212702Y-481446D01*
X-212674Y-481484D01*
X-210028Y-483892D01*
X-209732Y-484070D01*
X-209445Y-484261D01*
X-209398Y-484271D01*
X-209357Y-484296D01*
X-209016Y-484347D01*
X-208677Y-484414D01*
X-199685Y-484414D01*
X-169852Y-484414D01*
X-66001Y-484414D01*
X-61689Y-488730D01*
X-61691Y-518899D01*
X-61691Y-518899D01*
X-61691Y-518899D01*
X-61621Y-519252D01*
X-61538Y-519667D01*
X-61538Y-519667D01*
X-61538Y-519667D01*
X-61334Y-519973D01*
X-61103Y-520319D01*
X-61103Y-520319D01*
X-61103Y-520319D01*
X-55825Y-525597D01*
X-55781Y-525655D01*
X-55595Y-525933D01*
X-55546Y-525965D01*
X-55510Y-526012D01*
X-55222Y-526181D01*
X-54943Y-526367D01*
X-54886Y-526378D01*
X-54835Y-526408D01*
X-54503Y-526454D01*
X-54175Y-526519D01*
X52274Y-526409D01*
X52656Y-526332D01*
X53040Y-526256D01*
X53041Y-526255D01*
X53042Y-526255D01*
X53365Y-526038D01*
X53691Y-525821D01*
X55117Y-524394D01*
X55579Y-524586D01*
X55579Y-538791D01*
X52643Y-542306D01*
X43448Y-542269D01*
X43446Y-542270D01*
X43444Y-542269D01*
X43064Y-542344D01*
X42680Y-542419D01*
X42678Y-542420D01*
X42676Y-542421D01*
X42352Y-542636D01*
X42027Y-542852D01*
X42026Y-542853D01*
X42024Y-542854D01*
X41670Y-543207D01*
X41669Y-543209D01*
X41667Y-543210D01*
X41452Y-543532D01*
X41234Y-543858D01*
X41233Y-543860D01*
X41232Y-543861D01*
X41156Y-544243D01*
X41079Y-544625D01*
X41080Y-544627D01*
X41079Y-544629D01*
X41079Y-575002D01*
X41232Y-575770D01*
X41667Y-576421D01*
X42318Y-576856D01*
X43086Y-577009D01*
X134975Y-577009D01*
X135352Y-576934D01*
X135729Y-576862D01*
X135735Y-576858D01*
X135743Y-576857D01*
X136062Y-576643D01*
X136383Y-576432D01*
X193143Y-520511D01*
X202461Y-520511D01*
X203229Y-520358D01*
X203880Y-519923D01*
X208112Y-515691D01*
X208547Y-515040D01*
X208700Y-514272D01*
X208700Y-490176D01*
X208626Y-489803D01*
X208556Y-489430D01*
X208550Y-489420D01*
X208547Y-489408D01*
X208336Y-489092D01*
X208129Y-488774D01*
X204926Y-485495D01*
X204916Y-485488D01*
X204910Y-485478D01*
X204594Y-485267D01*
X204280Y-485052D01*
X204269Y-485050D01*
X204259Y-485043D01*
X203886Y-484969D01*
X203514Y-484891D01*
X203502Y-484893D01*
X203491Y-484891D01*
X175701Y-484891D01*
X174933Y-485043D01*
X174282Y-485478D01*
X171034Y-488727D01*
X170598Y-489378D01*
X170446Y-490146D01*
X170446Y-497680D01*
X152410Y-515716D01*
X124034Y-542586D01*
X114710Y-542549D01*
X114475Y-542108D01*
X116493Y-539081D01*
X116568Y-538899D01*
X116677Y-538736D01*
X116716Y-538541D01*
X116792Y-538357D01*
X116792Y-538161D01*
X116830Y-537968D01*
X116830Y-525341D01*
X147745Y-494323D01*
X147961Y-493997D01*
X148177Y-493674D01*
X148178Y-493672D01*
X148179Y-493671D01*
X148253Y-493291D01*
X148330Y-492906D01*
X148330Y-378731D01*
X152656Y-374405D01*
X196613Y-374406D01*
X197170Y-374857D01*
X197170Y-381982D01*
X191331D01*
Y-387966D01*
X191742D01*
Y-392515D01*
X191280Y-392706D01*
X190244Y-391670D01*
Y-385478D01*
X182628D01*
Y-385124D01*
X182541Y-384456D01*
X182283Y-383833D01*
X181872Y-383299D01*
X180134Y-381560D01*
X180287Y-380399D01*
X180117Y-379115D01*
X179622Y-377918D01*
X178833Y-376890D01*
X177805Y-376101D01*
X176608Y-375605D01*
X175323Y-375436D01*
X174038Y-375605D01*
X172841Y-376101D01*
X171813Y-376890D01*
X171024Y-377918D01*
X170580Y-378991D01*
X170579Y-378991D01*
X170067D01*
X170066Y-378991D01*
X169622Y-377918D01*
X168833Y-376890D01*
X167805Y-376101D01*
X166608Y-375605D01*
X165323Y-375436D01*
X164038Y-375605D01*
X162841Y-376101D01*
X161813Y-376890D01*
X161024Y-377918D01*
X160580Y-378991D01*
X160579Y-378991D01*
X160067D01*
X160066Y-378991D01*
X159622Y-377918D01*
X158833Y-376890D01*
X157805Y-376101D01*
X156608Y-375605D01*
X155323Y-375436D01*
X154038Y-375605D01*
X152841Y-376101D01*
X151813Y-376890D01*
X151024Y-377918D01*
X150528Y-379115D01*
X150359Y-380399D01*
X150528Y-381684D01*
X151024Y-382881D01*
X151813Y-383909D01*
X152841Y-384698D01*
X153915Y-385143D01*
X153915Y-385144D01*
Y-385655D01*
X153915Y-385656D01*
X152841Y-386101D01*
X151813Y-386890D01*
X151024Y-387918D01*
X150528Y-389115D01*
X150359Y-390400D01*
X150528Y-391684D01*
X151024Y-392881D01*
X151813Y-393909D01*
X152841Y-394698D01*
X154038Y-395194D01*
X155323Y-395363D01*
X156608Y-395194D01*
X157805Y-394698D01*
X158833Y-393909D01*
X159622Y-392881D01*
X160066Y-391808D01*
X160067Y-391808D01*
X160579D01*
X160580Y-391808D01*
X161024Y-392881D01*
X161813Y-393909D01*
X162841Y-394698D01*
X164038Y-395194D01*
X165323Y-395363D01*
X166608Y-395194D01*
X167805Y-394698D01*
X168833Y-393909D01*
X169622Y-392881D01*
X170066Y-391808D01*
X170067Y-391808D01*
X170579D01*
X170580Y-391808D01*
X171024Y-392881D01*
X171813Y-393909D01*
X172742Y-394622D01*
Y-438085D01*
X172446Y-438471D01*
X172128Y-439237D01*
X172020Y-440059D01*
X172128Y-440881D01*
X172446Y-441647D01*
X172950Y-442305D01*
X173609Y-442810D01*
X174375Y-443128D01*
X175197Y-443236D01*
X176019Y-443128D01*
X176785Y-442810D01*
X177443Y-442305D01*
X177948Y-441647D01*
X178051Y-441620D01*
X178452Y-441736D01*
X179198Y-442045D01*
X180020Y-442153D01*
X180842Y-442045D01*
X181608Y-441727D01*
X182266Y-441223D01*
X182771Y-440565D01*
X183088Y-439799D01*
X183196Y-438976D01*
X183088Y-438154D01*
X182771Y-437388D01*
X182628Y-437202D01*
Y-395321D01*
X186594D01*
X191742Y-400469D01*
Y-426984D01*
X186313Y-432413D01*
X186036Y-432449D01*
X185270Y-432766D01*
X184612Y-433271D01*
X184107Y-433929D01*
X183790Y-434695D01*
X183682Y-435518D01*
X183790Y-436340D01*
X184107Y-437106D01*
X184612Y-437764D01*
X185270Y-438269D01*
X186036Y-438586D01*
X186858Y-438694D01*
X187680Y-438586D01*
X188447Y-438269D01*
X189105Y-437764D01*
X189610Y-437106D01*
X189927Y-436340D01*
X189963Y-436063D01*
X196148Y-429878D01*
X196558Y-429344D01*
X196816Y-428721D01*
X196904Y-428053D01*
Y-399399D01*
Y-393239D01*
X196904Y-393238D01*
X197404Y-393098D01*
X197758Y-393628D01*
X201449Y-397319D01*
X202100Y-397754D01*
X202868Y-397906D01*
X223823Y-397906D01*
X224591Y-397754D01*
X225242Y-397319D01*
X226742Y-395819D01*
X227177Y-395167D01*
X227330Y-394399D01*
X227330Y-385899D01*
X227177Y-385131D01*
X226742Y-384480D01*
X225742Y-383480D01*
X225091Y-383045D01*
X224323Y-382892D01*
X217700Y-382892D01*
X217331Y-382524D01*
X217328Y-355399D01*
X217255Y-355032D01*
X217175Y-354631D01*
X217175Y-354631D01*
X217175Y-354631D01*
X216969Y-354323D01*
X216740Y-353980D01*
X216740Y-353980D01*
X216740Y-353980D01*
X216397Y-353751D01*
X216089Y-353545D01*
X216089Y-353545D01*
X216089Y-353545D01*
X215688Y-353465D01*
X215321Y-353392D01*
X199956Y-353392D01*
X196806Y-350515D01*
Y-348231D01*
X197117Y-348054D01*
X197306Y-348007D01*
X197908Y-348410D01*
X198677Y-348562D01*
X214823Y-348562D01*
X215591Y-348409D01*
X216242Y-347974D01*
X216677Y-347323D01*
X216830Y-346555D01*
X216830Y-320618D01*
X216677Y-319850D01*
X216242Y-319199D01*
X215591Y-318763D01*
X214823Y-318611D01*
X198323D01*
X197555Y-318763D01*
X197306Y-318930D01*
X196806Y-318662D01*
Y-316423D01*
X196732Y-316052D01*
Y-308921D01*
X196806Y-308549D01*
X196806Y-295399D01*
X196806Y-280553D01*
X197306Y-280170D01*
X197732Y-280255D01*
X212823Y-280255D01*
X213591Y-280102D01*
X214121Y-279749D01*
X214132Y-279766D01*
X214783Y-280201D01*
X215551Y-280353D01*
X225242Y-280353D01*
X225601Y-280282D01*
X225963Y-280219D01*
X225985Y-280206D01*
X226010Y-280201D01*
X226314Y-279997D01*
X226625Y-279801D01*
X234285Y-272515D01*
X234300Y-272494D01*
X234321Y-272480D01*
X234525Y-272175D01*
X234736Y-271875D01*
X234742Y-271850D01*
X234756Y-271829D01*
X234827Y-271469D01*
X234908Y-271111D01*
X234904Y-271086D01*
X234909Y-271060D01*
Y-270485D01*
X241155D01*
X241325Y-270740D01*
X241976Y-271175D01*
X242744Y-271328D01*
X245244D01*
X246012Y-271175D01*
X246663Y-270740D01*
X247098Y-270089D01*
X247251Y-269321D01*
Y-259907D01*
X247751Y-259907D01*
X265748Y-259907D01*
X266516Y-259754D01*
X267167Y-259319D01*
X267602Y-258667D01*
X267755Y-257899D01*
X267755Y-248423D01*
X267602Y-247655D01*
X267302Y-247206D01*
X267317Y-247184D01*
X267470Y-246416D01*
Y-237479D01*
X267317Y-236711D01*
X266882Y-236059D01*
X266231Y-235624D01*
X265463Y-235472D01*
X234463D01*
X233695Y-235624D01*
X233043Y-236059D01*
X232608Y-236711D01*
X232455Y-237479D01*
Y-246416D01*
X232608Y-247184D01*
X232635Y-247224D01*
X232347Y-247655D01*
X232194Y-248423D01*
X232194Y-253139D01*
X231728Y-253320D01*
X228196Y-249437D01*
X228172Y-249419D01*
X228156Y-249394D01*
X227858Y-249187D01*
X227566Y-248972D01*
X227537Y-248964D01*
X227513Y-248947D01*
X227158Y-248870D01*
X226806Y-248783D01*
X226777Y-248787D01*
X226748Y-248781D01*
X216201Y-248588D01*
X216190Y-248590D01*
X216179Y-248588D01*
X215805Y-248659D01*
X215430Y-248727D01*
X215421Y-248733D01*
X215410Y-248735D01*
X215092Y-248944D01*
X214771Y-249150D01*
X214596Y-249038D01*
X213945Y-248603D01*
X213176Y-248450D01*
X208874D01*
X208529Y-248518D01*
X204673D01*
X204213Y-248423D01*
X204213Y-248018D01*
Y-246982D01*
X208874D01*
Y-246982D01*
X209374Y-246827D01*
X209709Y-246966D01*
X210531Y-247074D01*
X211354Y-246966D01*
X212120Y-246649D01*
X212778Y-246144D01*
X213283Y-245486D01*
X213600Y-244720D01*
X213708Y-243898D01*
X213600Y-243075D01*
X213283Y-242309D01*
X212778Y-241651D01*
X212120Y-241146D01*
X211354Y-240829D01*
X210531Y-240721D01*
X209709Y-240829D01*
X208943Y-241146D01*
X208778Y-241273D01*
X204213D01*
Y-240549D01*
X197914D01*
Y-248015D01*
X197732Y-248450D01*
X197306Y-248534D01*
X196886Y-248441D01*
X196756Y-248173D01*
X196732Y-248052D01*
Y-240920D01*
X196806Y-240549D01*
X196806Y-215907D01*
X223323Y-215907D01*
X223323Y-215907D01*
X224091Y-215754D01*
X224091Y-215754D01*
X224091Y-215754D01*
X224443Y-215518D01*
X224742Y-215319D01*
X224742Y-215319D01*
X224742Y-215319D01*
X226742Y-213319D01*
X227009Y-212919D01*
X227177Y-212667D01*
X227177Y-212667D01*
X227177Y-212667D01*
X227254Y-212281D01*
X227330Y-211899D01*
X227330Y-198083D01*
X227177Y-197315D01*
X226742Y-196663D01*
X223742Y-193663D01*
X223091Y-193228D01*
X222323Y-193076D01*
X166874D01*
X166798Y-193091D01*
X166721Y-193081D01*
X166416Y-193167D01*
X166105Y-193228D01*
X166041Y-193271D01*
X165967Y-193292D01*
X165718Y-193488D01*
X165454Y-193663D01*
X165411Y-193728D01*
X165351Y-193775D01*
X153792Y-207241D01*
X153637Y-207517D01*
X153461Y-207780D01*
X153446Y-207856D01*
X153408Y-207923D01*
X153370Y-208237D01*
X153308Y-208548D01*
X153308Y-350391D01*
X131817Y-350398D01*
X131425Y-350476D01*
X131049Y-350551D01*
X131049Y-350551D01*
X131049Y-350551D01*
X130718Y-350772D01*
X130398Y-350986D01*
X125184Y-356200D01*
X124689Y-355988D01*
X124405Y-355301D01*
X123900Y-354643D01*
X123242Y-354139D01*
X122476Y-353821D01*
X121918Y-353748D01*
X117845Y-349675D01*
X117063Y-349153D01*
X116142Y-348970D01*
X108563D01*
X108454Y-348648D01*
X108426Y-348469D01*
X109106Y-347584D01*
X109542Y-346530D01*
X109691Y-345399D01*
X109542Y-344269D01*
X109106Y-343215D01*
X108753Y-342755D01*
X108771Y-342688D01*
X109305Y-342278D01*
X118065Y-333518D01*
X118475Y-332983D01*
X118733Y-332361D01*
X118821Y-331693D01*
Y-327198D01*
X119321Y-326989D01*
X119993Y-327267D01*
X120815Y-327376D01*
X121637Y-327267D01*
X122403Y-326950D01*
X123061Y-326445D01*
X123566Y-325787D01*
X123884Y-325021D01*
X123890Y-324971D01*
X136420Y-312441D01*
X136830Y-311907D01*
X137088Y-311284D01*
X137176Y-310616D01*
Y-284041D01*
X137088Y-283373D01*
X137082Y-283358D01*
X137082Y-283352D01*
X136974Y-282530D01*
X136657Y-281764D01*
X136152Y-281106D01*
X135494Y-280601D01*
X134728Y-280284D01*
X133906Y-280175D01*
X133083Y-280284D01*
X132317Y-280601D01*
X131659Y-281106D01*
X131154Y-281764D01*
X130837Y-282530D01*
X130729Y-283352D01*
X130837Y-284174D01*
X131154Y-284941D01*
X131659Y-285598D01*
X132013Y-285870D01*
Y-290873D01*
X131642Y-291199D01*
X130820Y-291307D01*
X130053Y-291625D01*
X129395Y-292129D01*
X128891Y-292787D01*
X128573Y-293554D01*
X128465Y-294376D01*
X128573Y-295198D01*
X128891Y-295964D01*
X129061Y-296186D01*
Y-305019D01*
X119876Y-314204D01*
X119599Y-314240D01*
X119321Y-314355D01*
X118821Y-314021D01*
Y-223608D01*
X122749Y-219681D01*
X122750Y-219680D01*
X123408Y-219176D01*
X123913Y-218517D01*
X124230Y-217751D01*
X124338Y-216929D01*
X124230Y-216107D01*
X123913Y-215341D01*
X123408Y-214683D01*
X122750Y-214178D01*
X121984Y-213861D01*
X121161Y-213752D01*
X120339Y-213861D01*
X119573Y-214178D01*
X118915Y-214683D01*
X118410Y-215341D01*
X118093Y-216107D01*
X117985Y-216929D01*
X118010Y-217120D01*
X114415Y-220714D01*
X114005Y-221249D01*
X113747Y-221871D01*
X113659Y-222539D01*
Y-255211D01*
X113197Y-255403D01*
X111413Y-253618D01*
X110596Y-253072D01*
X109632Y-252881D01*
X108849D01*
X108412Y-252311D01*
X107507Y-251616D01*
X106454Y-251180D01*
X105323Y-251031D01*
X104192Y-251180D01*
X103139Y-251616D01*
X102234Y-252311D01*
X101540Y-253215D01*
X101103Y-254269D01*
X100954Y-255399D01*
X101103Y-256530D01*
X101540Y-257584D01*
X102234Y-258488D01*
X103139Y-259183D01*
X104192Y-259619D01*
X105323Y-259768D01*
X106454Y-259619D01*
X107507Y-259183D01*
X108412Y-258488D01*
X108505Y-258367D01*
X109004Y-258334D01*
X110473Y-259803D01*
Y-326968D01*
X110223Y-327072D01*
X109690Y-327480D01*
X109279Y-327165D01*
X109542Y-326530D01*
X109691Y-325399D01*
X109542Y-324269D01*
X109106Y-323215D01*
X108412Y-322311D01*
X107507Y-321616D01*
X106454Y-321180D01*
X105323Y-321031D01*
X104192Y-321180D01*
X103139Y-321616D01*
X102234Y-322311D01*
X101540Y-323215D01*
X101103Y-324269D01*
X100954Y-325399D01*
X101103Y-326530D01*
X101540Y-327584D01*
X102234Y-328488D01*
X103139Y-329183D01*
X104192Y-329619D01*
X105323Y-329768D01*
X106454Y-329619D01*
X107507Y-329183D01*
X108412Y-328488D01*
X108415Y-328484D01*
X108852Y-328736D01*
X108742Y-329001D01*
X108634Y-329823D01*
X108742Y-330645D01*
X109060Y-331411D01*
X109565Y-332069D01*
X110223Y-332574D01*
X110774Y-332802D01*
X110930Y-333353D01*
X106411Y-337872D01*
X100270D01*
X99602Y-337960D01*
X99376Y-338053D01*
X99061Y-337642D01*
X99106Y-337584D01*
X99542Y-336530D01*
X99691Y-335400D01*
X99542Y-334269D01*
X99106Y-333215D01*
X98412Y-332311D01*
X97507Y-331616D01*
X96453Y-331180D01*
X95323Y-331031D01*
X94192Y-331180D01*
X93139Y-331616D01*
X92234Y-332311D01*
X91540Y-333215D01*
X91103Y-334269D01*
X90955Y-335400D01*
X91103Y-336530D01*
X91540Y-337584D01*
X92234Y-338488D01*
X93139Y-339183D01*
X94192Y-339619D01*
X95323Y-339768D01*
X96453Y-339619D01*
X96953Y-339412D01*
X97236Y-339836D01*
X95957Y-341115D01*
X95323Y-341031D01*
X94192Y-341180D01*
X93139Y-341616D01*
X92234Y-342311D01*
X91540Y-343215D01*
X91103Y-344269D01*
X90955Y-345399D01*
X91103Y-346530D01*
X91540Y-347584D01*
X92234Y-348488D01*
X93139Y-349183D01*
X94192Y-349619D01*
X95323Y-349768D01*
X96453Y-349619D01*
X96641Y-349541D01*
X96924Y-349965D01*
X95796Y-351093D01*
X95323Y-351031D01*
X94192Y-351180D01*
X93139Y-351616D01*
X92234Y-352311D01*
X91540Y-353215D01*
X91103Y-354269D01*
X90955Y-355399D01*
X91103Y-356530D01*
X91540Y-357584D01*
X92234Y-358488D01*
X93139Y-359183D01*
X94192Y-359619D01*
X95323Y-359768D01*
X96453Y-359619D01*
X97507Y-359183D01*
X98412Y-358488D01*
X99106Y-357584D01*
X99542Y-356530D01*
X99691Y-355399D01*
X99542Y-354269D01*
X99510Y-354191D01*
X99915Y-353786D01*
X100796D01*
X101105Y-354182D01*
X101101Y-354286D01*
X100954Y-355399D01*
X101103Y-356530D01*
X101540Y-357584D01*
X102234Y-358488D01*
X103139Y-359183D01*
X104192Y-359619D01*
X105323Y-359768D01*
X105957Y-359684D01*
X107236Y-360963D01*
X106953Y-361387D01*
X106454Y-361180D01*
X105323Y-361031D01*
X104192Y-361180D01*
X103139Y-361616D01*
X102234Y-362311D01*
X101540Y-363215D01*
X101103Y-364269D01*
X100954Y-365400D01*
X101103Y-366530D01*
X101540Y-367584D01*
X102234Y-368488D01*
X103139Y-369183D01*
X104192Y-369619D01*
X105323Y-369768D01*
X106454Y-369619D01*
X107507Y-369183D01*
X108412Y-368488D01*
X109106Y-367584D01*
X109542Y-366530D01*
X109691Y-365400D01*
X109542Y-364269D01*
X109336Y-363770D01*
X109759Y-363486D01*
X112675Y-366402D01*
Y-383918D01*
X112505Y-384140D01*
X112187Y-384906D01*
X112079Y-385728D01*
X112187Y-386551D01*
X112505Y-387317D01*
X113010Y-387975D01*
X113668Y-388479D01*
X114434Y-388797D01*
X115256Y-388905D01*
X116078Y-388797D01*
X116844Y-388479D01*
X117502Y-387975D01*
X117775Y-387619D01*
X118275Y-387789D01*
X118115Y-474865D01*
X100302Y-492678D01*
X37322Y-492678D01*
X37322Y-478626D01*
X40323D01*
X41091Y-478473D01*
X41742Y-478038D01*
X42177Y-477387D01*
X42330Y-476619D01*
X42330Y-462582D01*
X42709Y-462289D01*
X42830Y-462289D01*
X45075D01*
X45116Y-462343D01*
X46498Y-463725D01*
X47032Y-464135D01*
X47655Y-464393D01*
X48323Y-464481D01*
X60323D01*
X60991Y-464393D01*
X61614Y-464135D01*
X62148Y-463725D01*
X64648Y-461225D01*
X65058Y-460690D01*
X65316Y-460068D01*
X65404Y-459400D01*
Y-458025D01*
X65874D01*
Y-458025D01*
X70222D01*
Y-454482D01*
Y-451660D01*
X70298Y-451082D01*
Y-433858D01*
X70210Y-433190D01*
X69952Y-432568D01*
X69542Y-432033D01*
X67815Y-430307D01*
X68007Y-429845D01*
X74059D01*
X77013Y-432799D01*
X77548Y-433210D01*
X78171Y-433467D01*
X78839Y-433555D01*
X81831D01*
Y-437817D01*
X84547D01*
X84730Y-437893D01*
X85398Y-437981D01*
X91844D01*
X92234Y-438488D01*
X93139Y-439183D01*
X94192Y-439619D01*
X95323Y-439768D01*
X96453Y-439619D01*
X97507Y-439183D01*
X98412Y-438488D01*
X98801Y-437981D01*
X101844D01*
X102234Y-438488D01*
X103139Y-439183D01*
X104192Y-439619D01*
X105323Y-439768D01*
X106454Y-439619D01*
X107507Y-439183D01*
X108412Y-438488D01*
X109106Y-437584D01*
X109542Y-436530D01*
X109691Y-435399D01*
X109542Y-434269D01*
X109106Y-433215D01*
X108412Y-432311D01*
X107507Y-431616D01*
X106454Y-431180D01*
X105323Y-431031D01*
X104688Y-431115D01*
X102148Y-428574D01*
X101613Y-428164D01*
X100991Y-427906D01*
X100323Y-427818D01*
X99525D01*
X99216Y-427318D01*
X99542Y-426530D01*
X99691Y-425399D01*
X99542Y-424269D01*
X99106Y-423215D01*
X98412Y-422311D01*
X97507Y-421616D01*
X96453Y-421180D01*
X95323Y-421031D01*
X94192Y-421180D01*
X93139Y-421616D01*
X92234Y-422311D01*
X91540Y-423215D01*
X91103Y-424269D01*
X90955Y-425399D01*
X91103Y-426530D01*
X91430Y-427318D01*
X91121Y-427818D01*
X85398D01*
X84730Y-427906D01*
X84547Y-427982D01*
X81831D01*
Y-428393D01*
X79908D01*
X76953Y-425439D01*
X76419Y-425028D01*
X75796Y-424771D01*
X75128Y-424683D01*
X60373D01*
X60151Y-424513D01*
X59385Y-424195D01*
X58920Y-424134D01*
X58741Y-423606D01*
X63861Y-418486D01*
X79323D01*
X80145Y-418378D01*
X80662Y-418163D01*
X82374D01*
Y-416173D01*
X82391Y-416131D01*
X82500Y-415309D01*
X82458Y-414996D01*
X82788Y-414620D01*
X87374D01*
Y-414347D01*
X90421D01*
X91015Y-414941D01*
X90955Y-415400D01*
X91103Y-416530D01*
X91540Y-417584D01*
X92234Y-418488D01*
X93139Y-419183D01*
X94192Y-419619D01*
X95323Y-419768D01*
X96453Y-419619D01*
X97507Y-419183D01*
X98412Y-418488D01*
X99106Y-417584D01*
X99542Y-416530D01*
X99691Y-415400D01*
X99542Y-414269D01*
X99106Y-413215D01*
X98412Y-412311D01*
X97507Y-411616D01*
X96453Y-411180D01*
X95323Y-411031D01*
X94512Y-411138D01*
X93315Y-409941D01*
X92850Y-409583D01*
X93139Y-409183D01*
X93497Y-409331D01*
X94192Y-409619D01*
X95323Y-409768D01*
X96453Y-409619D01*
X97507Y-409183D01*
X98412Y-408488D01*
X99106Y-407584D01*
X99542Y-406530D01*
X99691Y-405400D01*
X99542Y-404269D01*
X99106Y-403215D01*
X98412Y-402311D01*
X97507Y-401616D01*
X96453Y-401180D01*
X95323Y-401031D01*
X94688Y-401115D01*
X93410Y-399836D01*
X93693Y-399412D01*
X94192Y-399619D01*
X95323Y-399768D01*
X96453Y-399619D01*
X97507Y-399183D01*
X98412Y-398488D01*
X99106Y-397584D01*
X99542Y-396530D01*
X99691Y-395399D01*
X99542Y-394269D01*
X99106Y-393215D01*
X98412Y-392311D01*
X97507Y-391616D01*
X96453Y-391180D01*
X95323Y-391031D01*
X94192Y-391180D01*
X93139Y-391616D01*
X92234Y-392311D01*
X91540Y-393215D01*
X91103Y-394269D01*
X90955Y-395399D01*
X91103Y-396530D01*
X91310Y-397029D01*
X90886Y-397313D01*
X84223Y-390649D01*
Y-385428D01*
X84685Y-385237D01*
X86551Y-387103D01*
X87332Y-387625D01*
X88254Y-387808D01*
X91712D01*
X92234Y-388488D01*
X93139Y-389183D01*
X94192Y-389619D01*
X95323Y-389768D01*
X96453Y-389619D01*
X97507Y-389183D01*
X98412Y-388488D01*
X99106Y-387584D01*
X99542Y-386530D01*
X99691Y-385400D01*
X99542Y-384269D01*
X99106Y-383215D01*
X98412Y-382311D01*
X97507Y-381616D01*
X96453Y-381180D01*
X95323Y-381031D01*
X94192Y-381180D01*
X93139Y-381616D01*
X92234Y-382311D01*
X91712Y-382991D01*
X89251D01*
X88235Y-381975D01*
Y-373295D01*
X88578Y-372848D01*
X88895Y-372082D01*
X89003Y-371260D01*
X88895Y-370438D01*
X88578Y-369672D01*
X88073Y-369014D01*
X87415Y-368509D01*
X86649Y-368191D01*
X85827Y-368083D01*
X85005Y-368191D01*
X84723Y-368308D01*
X84223Y-367974D01*
Y-365772D01*
X84393Y-365551D01*
X84710Y-364785D01*
X84819Y-363962D01*
X84710Y-363140D01*
X84393Y-362374D01*
X83888Y-361716D01*
X83230Y-361211D01*
X82464Y-360894D01*
X81642Y-360786D01*
X80820Y-360894D01*
X80053Y-361211D01*
X79396Y-361716D01*
X78891Y-362374D01*
X78573Y-363140D01*
X78465Y-363962D01*
X78573Y-364785D01*
X78891Y-365551D01*
X79061Y-365772D01*
Y-391718D01*
X79149Y-392386D01*
X79406Y-393009D01*
X79817Y-393544D01*
X91038Y-404765D01*
X90955Y-405400D01*
X91103Y-406530D01*
X91540Y-407584D01*
X92234Y-408488D01*
X93070Y-409130D01*
X92781Y-409530D01*
X92158Y-409273D01*
X91490Y-409185D01*
X87374D01*
Y-408912D01*
X81272D01*
Y-408912D01*
X76272D01*
Y-412132D01*
X62545D01*
X61723Y-412241D01*
X60957Y-412558D01*
X60299Y-413063D01*
X52577Y-420785D01*
X52072Y-421443D01*
X51754Y-422209D01*
X51646Y-423032D01*
Y-441713D01*
X51156Y-441942D01*
X50890Y-441751D01*
Y-440907D01*
X41756D01*
Y-441318D01*
X39633D01*
X39411Y-441148D01*
X38645Y-440831D01*
X37823Y-440723D01*
X37001Y-440831D01*
X36235Y-441148D01*
X35577Y-441653D01*
X35072Y-442311D01*
X34754Y-443077D01*
X34646Y-443899D01*
X34754Y-444722D01*
X35072Y-445488D01*
X35577Y-446146D01*
X36235Y-446651D01*
X37001Y-446968D01*
X37823Y-447076D01*
X38645Y-446968D01*
X39411Y-446651D01*
X39633Y-446481D01*
X41756D01*
Y-446892D01*
X48242D01*
Y-448510D01*
X42709D01*
Y-454150D01*
X42209Y-454200D01*
X42177Y-454041D01*
X41742Y-453390D01*
X41091Y-452955D01*
X40937Y-452924D01*
Y-452250D01*
X34450D01*
X34327Y-451631D01*
X33892Y-450980D01*
X33241Y-450545D01*
X32473Y-450392D01*
X27106Y-450392D01*
X26338Y-450545D01*
X25687Y-450980D01*
X25252Y-451631D01*
X25099Y-452399D01*
Y-452763D01*
X24969Y-452958D01*
X24816Y-453726D01*
Y-455142D01*
X14830D01*
Y-453726D01*
X14677Y-452958D01*
X14547Y-452763D01*
Y-451899D01*
X14394Y-451131D01*
X13959Y-450480D01*
X13307Y-450045D01*
X12539Y-449892D01*
X-9177D01*
X-9945Y-450045D01*
X-10596Y-450480D01*
X-11031Y-451131D01*
X-11184Y-451899D01*
X-11184Y-461900D01*
X-11031Y-462668D01*
X-10596Y-463319D01*
X-9945Y-463754D01*
X-9177Y-463906D01*
X11316D01*
X11316Y-476619D01*
X11469Y-477387D01*
X11904Y-478038D01*
X12555Y-478473D01*
X13323Y-478626D01*
X18308D01*
X18308Y-488868D01*
X17808Y-489037D01*
X17699Y-488895D01*
X17041Y-488391D01*
X16275Y-488073D01*
X15453Y-487965D01*
X14630Y-488073D01*
X13864Y-488391D01*
X13562Y-488623D01*
X-6080D01*
X-28682Y-466021D01*
X-28624Y-465881D01*
X-28516Y-465059D01*
X-28624Y-464237D01*
X-28942Y-463471D01*
X-29447Y-462813D01*
X-30105Y-462308D01*
X-30871Y-461990D01*
X-31693Y-461882D01*
X-32515Y-461990D01*
X-33281Y-462308D01*
X-33939Y-462813D01*
X-34444Y-463471D01*
X-34513Y-463637D01*
X-35003Y-463735D01*
X-44170Y-454568D01*
X-44170Y-438906D01*
X-42184D01*
Y-440400D01*
X-42031Y-441167D01*
X-41596Y-441819D01*
X-40945Y-442254D01*
X-40177Y-442407D01*
X5323Y-442407D01*
X6091Y-442254D01*
X6742Y-441819D01*
X7177Y-441167D01*
X7330Y-440400D01*
Y-437406D01*
X33823D01*
X34591Y-437254D01*
X35242Y-436819D01*
X35677Y-436167D01*
X35830Y-435399D01*
Y-431981D01*
X38138D01*
X38206Y-432069D01*
X38864Y-432574D01*
X39631Y-432891D01*
X40453Y-433000D01*
X41275Y-432891D01*
X42041Y-432574D01*
X42699Y-432069D01*
X43204Y-431411D01*
X43521Y-430645D01*
X43630Y-429823D01*
X43521Y-429001D01*
X43312Y-428494D01*
X43521Y-427988D01*
X43630Y-427165D01*
X43521Y-426343D01*
X43204Y-425577D01*
X42699Y-424919D01*
X42041Y-424414D01*
X41275Y-424097D01*
X40453Y-423989D01*
X39631Y-424097D01*
X38864Y-424414D01*
X38338Y-424818D01*
X35830D01*
Y-423399D01*
X35677Y-422631D01*
X35242Y-421980D01*
X34591Y-421545D01*
X33823Y-421392D01*
X-3211Y-421392D01*
X-3529Y-420892D01*
X-3329Y-420409D01*
X-3221Y-419587D01*
X-3329Y-418764D01*
X-3647Y-417998D01*
X-4151Y-417340D01*
X-4809Y-416835D01*
X-5575Y-416518D01*
X-6398Y-416410D01*
X-7220Y-416518D01*
X-7986Y-416835D01*
X-8644Y-417340D01*
X-8812Y-417560D01*
X-26220D01*
X-29684Y-414096D01*
X-29609Y-413913D01*
X-29500Y-413091D01*
X-29609Y-412268D01*
X-29926Y-411502D01*
X-30431Y-410844D01*
X-31089Y-410339D01*
X-31855Y-410022D01*
X-32677Y-409914D01*
X-33499Y-410022D01*
X-34266Y-410339D01*
X-34923Y-410844D01*
X-35148D01*
X-35451Y-410451D01*
X-36108Y-409946D01*
X-36775Y-409669D01*
X-37255Y-409190D01*
Y-370113D01*
X-36909Y-369811D01*
X-36087Y-369702D01*
X-35321Y-369385D01*
X-34663Y-368880D01*
X-34158Y-368222D01*
X-33841Y-367456D01*
X-33733Y-366634D01*
X-33841Y-365812D01*
X-34107Y-365169D01*
Y-327959D01*
X-33961Y-327769D01*
X-33644Y-327003D01*
X-33536Y-326181D01*
X-33644Y-325359D01*
X-33961Y-324593D01*
X-34466Y-323935D01*
X-35124Y-323430D01*
X-35890Y-323113D01*
X-36713Y-323004D01*
X-37535Y-323113D01*
X-38301Y-323430D01*
X-38959Y-323935D01*
X-39464Y-324593D01*
X-39781Y-325359D01*
X-39889Y-326181D01*
X-39781Y-327003D01*
X-39464Y-327769D01*
X-38959Y-328427D01*
X-38924Y-328454D01*
Y-338921D01*
X-39167Y-339063D01*
X-39424Y-339126D01*
X-39893Y-338766D01*
X-39997Y-338723D01*
X-40045Y-338686D01*
X-40812Y-338369D01*
X-41634Y-338260D01*
X-42456Y-338369D01*
X-43222Y-338686D01*
X-43666Y-339027D01*
X-43982Y-338784D01*
X-44749Y-338467D01*
X-45571Y-338359D01*
X-46393Y-338467D01*
X-47159Y-338784D01*
X-47817Y-339289D01*
X-48322Y-339947D01*
X-48639Y-340713D01*
X-48732Y-341419D01*
X-48889Y-341623D01*
X-49147Y-342245D01*
X-49235Y-342913D01*
Y-391648D01*
X-49697Y-391840D01*
X-65113Y-376423D01*
X-65648Y-376013D01*
X-66270Y-375755D01*
X-66938Y-375667D01*
X-71766D01*
X-74750Y-372683D01*
X-75284Y-372272D01*
X-75907Y-372015D01*
X-76575Y-371927D01*
X-92088D01*
X-92493Y-371616D01*
X-93546Y-371180D01*
X-94677Y-371031D01*
X-95808Y-371180D01*
X-96861Y-371616D01*
X-97766Y-372311D01*
X-98460Y-373215D01*
X-98897Y-374269D01*
X-99045Y-375399D01*
X-98897Y-376530D01*
X-98460Y-377584D01*
X-97766Y-378488D01*
X-96861Y-379183D01*
X-95808Y-379619D01*
X-94677Y-379768D01*
X-93546Y-379619D01*
X-92493Y-379183D01*
X-91588Y-378488D01*
X-90894Y-377584D01*
X-90689Y-377089D01*
X-89101D01*
X-88994Y-377404D01*
X-88968Y-377589D01*
X-89464Y-378234D01*
X-89781Y-379001D01*
X-89889Y-379823D01*
X-89781Y-380645D01*
X-89464Y-381411D01*
X-89294Y-381633D01*
Y-392533D01*
X-89579Y-392818D01*
X-91199D01*
X-91588Y-392311D01*
X-92493Y-391616D01*
X-93546Y-391180D01*
X-94677Y-391031D01*
X-95808Y-391180D01*
X-96861Y-391616D01*
X-97766Y-392311D01*
X-98460Y-393215D01*
X-98897Y-394269D01*
X-99045Y-395399D01*
X-98897Y-396530D01*
X-98460Y-397584D01*
X-97766Y-398488D01*
X-96861Y-399183D01*
X-95808Y-399619D01*
X-94677Y-399768D01*
X-93546Y-399619D01*
X-92493Y-399183D01*
X-91588Y-398488D01*
X-91199Y-397981D01*
X-88484D01*
X-87816Y-397893D01*
X-87194Y-397635D01*
X-86659Y-397225D01*
X-86575Y-397115D01*
X-84887Y-395427D01*
X-84477Y-394893D01*
X-84219Y-394270D01*
X-84131Y-393602D01*
Y-381633D01*
X-83961Y-381411D01*
X-83644Y-380645D01*
X-83536Y-379823D01*
X-83644Y-379001D01*
X-83961Y-378234D01*
X-84457Y-377589D01*
X-84431Y-377404D01*
X-84324Y-377089D01*
X-82944D01*
X-82666Y-377505D01*
X-82797Y-377819D01*
X-82905Y-378642D01*
X-82797Y-379464D01*
X-82480Y-380230D01*
X-81975Y-380888D01*
X-81317Y-381393D01*
X-81199Y-381442D01*
X-81166Y-381609D01*
X-80644Y-382391D01*
X-78761Y-384273D01*
X-77980Y-384795D01*
X-77058Y-384979D01*
X-70101D01*
X-57825Y-397255D01*
Y-411076D01*
X-58167Y-411522D01*
X-58485Y-412289D01*
X-58593Y-413111D01*
X-58485Y-413933D01*
X-58167Y-414699D01*
X-57662Y-415357D01*
X-57004Y-415862D01*
X-56238Y-416179D01*
X-55416Y-416288D01*
X-54594Y-416179D01*
X-53828Y-415862D01*
X-53516Y-415623D01*
X-53461Y-415665D01*
X-52695Y-415982D01*
X-51873Y-416091D01*
X-51050Y-415982D01*
X-50284Y-415665D01*
X-50101Y-415524D01*
X-49918Y-415665D01*
X-49151Y-415982D01*
X-48329Y-416091D01*
X-47507Y-415982D01*
X-46741Y-415665D01*
X-46557Y-415524D01*
X-46374Y-415665D01*
X-45608Y-415982D01*
X-44786Y-416091D01*
X-43963Y-415982D01*
X-43197Y-415665D01*
X-42950Y-415475D01*
X-42831Y-415567D01*
X-42064Y-415884D01*
X-41242Y-415992D01*
X-40420Y-415884D01*
X-39654Y-415567D01*
X-39392Y-415366D01*
X-39285Y-415448D01*
X-38519Y-415765D01*
X-37697Y-415874D01*
X-36875Y-415765D01*
X-36108Y-415448D01*
X-35706Y-415139D01*
X-35377Y-415113D01*
X-35139Y-415209D01*
X-35078Y-415261D01*
X-35004Y-415629D01*
X-34458Y-416446D01*
X-29974Y-420930D01*
X-30166Y-421392D01*
X-40177D01*
X-40945Y-421545D01*
X-41596Y-421980D01*
X-42031Y-422631D01*
X-42184Y-423399D01*
Y-425392D01*
X-47484D01*
X-48252Y-425545D01*
X-48513Y-425719D01*
X-60870D01*
X-60966Y-425738D01*
X-61063Y-425729D01*
X-61347Y-425814D01*
X-61638Y-425872D01*
X-61719Y-425926D01*
X-61813Y-425954D01*
X-62043Y-426142D01*
X-62289Y-426307D01*
X-62344Y-426388D01*
X-62419Y-426450D01*
X-62726Y-426823D01*
X-62867Y-427084D01*
X-62974Y-427245D01*
X-63450Y-427388D01*
X-63547Y-427379D01*
X-66958Y-423968D01*
X-67493Y-423558D01*
X-68115Y-423300D01*
X-68783Y-423212D01*
X-81685D01*
Y-421645D01*
X-81684Y-421642D01*
X-81596Y-420974D01*
X-81684Y-420306D01*
X-81685Y-420304D01*
Y-417982D01*
X-87669D01*
Y-418393D01*
X-90950D01*
X-91171Y-417945D01*
X-90894Y-417584D01*
X-90458Y-416530D01*
X-90309Y-415400D01*
X-90458Y-414269D01*
X-90894Y-413215D01*
X-91588Y-412311D01*
X-92493Y-411616D01*
X-93546Y-411180D01*
X-94677Y-411031D01*
X-95808Y-411180D01*
X-96861Y-411616D01*
X-97766Y-412311D01*
X-98460Y-413215D01*
X-98897Y-414269D01*
X-99045Y-415400D01*
X-98897Y-416530D01*
X-98460Y-417584D01*
X-98183Y-417945D01*
X-98404Y-418393D01*
X-100252D01*
X-100920Y-418481D01*
X-100968Y-418501D01*
X-101283Y-418090D01*
X-100894Y-417584D01*
X-100458Y-416530D01*
X-100309Y-415400D01*
X-100458Y-414269D01*
X-100894Y-413215D01*
X-101588Y-412311D01*
X-102493Y-411616D01*
X-103547Y-411180D01*
X-104677Y-411031D01*
X-105808Y-411180D01*
X-106861Y-411616D01*
X-107766Y-412311D01*
X-108460Y-413215D01*
X-108897Y-414269D01*
X-109046Y-415400D01*
X-108897Y-416530D01*
X-108460Y-417584D01*
X-107766Y-418488D01*
X-106861Y-419183D01*
X-105808Y-419619D01*
X-104677Y-419768D01*
X-103547Y-419619D01*
X-103047Y-419412D01*
X-102764Y-419836D01*
X-104042Y-421115D01*
X-104677Y-421031D01*
X-105808Y-421180D01*
X-106861Y-421616D01*
X-107766Y-422311D01*
X-108156Y-422818D01*
X-112643D01*
X-114990Y-420472D01*
Y-398857D01*
X-114490Y-398523D01*
X-114208Y-398639D01*
X-113386Y-398748D01*
X-112564Y-398639D01*
X-111797Y-398322D01*
X-111140Y-397817D01*
X-110635Y-397159D01*
X-110317Y-396393D01*
X-110261Y-395967D01*
X-110007Y-395353D01*
X-109919Y-394685D01*
Y-352644D01*
X-109849Y-352574D01*
X-109119Y-352478D01*
X-108352Y-352161D01*
X-108179Y-352027D01*
X-107822Y-352384D01*
X-108460Y-353215D01*
X-108897Y-354269D01*
X-109046Y-355399D01*
X-108897Y-356530D01*
X-108460Y-357584D01*
X-107766Y-358488D01*
X-106861Y-359183D01*
X-105808Y-359619D01*
X-104677Y-359768D01*
X-103547Y-359619D01*
X-102493Y-359183D01*
X-101588Y-358488D01*
X-100894Y-357584D01*
X-100458Y-356530D01*
X-100309Y-355399D01*
X-100392Y-354765D01*
X-99416Y-353788D01*
X-99246Y-353805D01*
X-98936Y-354216D01*
X-98906Y-354341D01*
X-99045Y-355399D01*
X-98897Y-356530D01*
X-98460Y-357584D01*
X-97766Y-358488D01*
X-96861Y-359183D01*
X-95808Y-359619D01*
X-94677Y-359768D01*
X-94042Y-359684D01*
X-92764Y-360963D01*
X-93047Y-361387D01*
X-93546Y-361180D01*
X-94677Y-361031D01*
X-95808Y-361180D01*
X-96861Y-361616D01*
X-97766Y-362311D01*
X-98460Y-363215D01*
X-98897Y-364269D01*
X-99045Y-365400D01*
X-98897Y-366530D01*
X-98460Y-367584D01*
X-97766Y-368488D01*
X-96861Y-369183D01*
X-95808Y-369619D01*
X-94677Y-369768D01*
X-93546Y-369619D01*
X-92493Y-369183D01*
X-91588Y-368488D01*
X-90894Y-367584D01*
X-90458Y-366530D01*
X-90404Y-366123D01*
X-89900D01*
X-89880Y-366275D01*
X-89562Y-367041D01*
X-89057Y-367699D01*
X-88399Y-368204D01*
X-87633Y-368521D01*
X-86811Y-368630D01*
X-85989Y-368521D01*
X-85223Y-368204D01*
X-84565Y-367699D01*
X-84444Y-367542D01*
X-79823D01*
X-79155Y-367454D01*
X-78532Y-367196D01*
X-77998Y-366786D01*
X-74651Y-363439D01*
X-74241Y-362905D01*
X-73983Y-362282D01*
X-73895Y-361614D01*
Y-354682D01*
X-73983Y-354014D01*
X-74241Y-353392D01*
X-74289Y-353329D01*
Y-348116D01*
X-68844Y-342672D01*
X-68434Y-342137D01*
X-68176Y-341514D01*
X-68088Y-340846D01*
Y-330461D01*
X-67994Y-330234D01*
X-67886Y-329412D01*
X-67994Y-328590D01*
X-68312Y-327824D01*
X-68817Y-327166D01*
X-69475Y-326661D01*
X-70241Y-326344D01*
X-71063Y-326235D01*
X-71885Y-326344D01*
X-72651Y-326661D01*
X-73309Y-327166D01*
X-73814Y-327824D01*
X-74132Y-328590D01*
X-74201Y-329121D01*
X-74679Y-329283D01*
X-75052Y-328969D01*
Y-302724D01*
X-74709Y-302277D01*
X-74392Y-301511D01*
X-74284Y-300689D01*
X-74392Y-299867D01*
X-74709Y-299101D01*
X-75214Y-298443D01*
X-75850Y-297955D01*
X-75857Y-297865D01*
X-75768Y-297440D01*
X-75162Y-297360D01*
X-74396Y-297042D01*
X-73738Y-296538D01*
X-73233Y-295880D01*
X-72916Y-295113D01*
X-72808Y-294291D01*
X-72916Y-293469D01*
X-73233Y-292703D01*
X-73576Y-292256D01*
Y-291437D01*
X-73759Y-290515D01*
X-74281Y-289734D01*
X-76725Y-287290D01*
Y-269033D01*
X-76909Y-268111D01*
X-77431Y-267330D01*
X-81065Y-263696D01*
X-81846Y-263174D01*
X-82768Y-262991D01*
X-91066D01*
X-91588Y-262311D01*
X-92493Y-261616D01*
X-93546Y-261180D01*
X-94677Y-261031D01*
X-95808Y-261180D01*
X-96861Y-261616D01*
X-97766Y-262311D01*
X-98460Y-263215D01*
X-98897Y-264269D01*
X-99045Y-265400D01*
X-98897Y-266530D01*
X-98662Y-267096D01*
X-98996Y-267596D01*
X-99521D01*
X-100496Y-266622D01*
X-100458Y-266530D01*
X-100309Y-265400D01*
X-100458Y-264269D01*
X-100894Y-263215D01*
X-101588Y-262311D01*
X-102493Y-261616D01*
X-103547Y-261180D01*
X-104677Y-261031D01*
X-105808Y-261180D01*
X-106307Y-261387D01*
X-106590Y-260963D01*
X-105312Y-259684D01*
X-104677Y-259768D01*
X-103547Y-259619D01*
X-102493Y-259183D01*
X-101588Y-258488D01*
X-100894Y-257584D01*
X-100458Y-256530D01*
X-100309Y-255399D01*
X-100458Y-254269D01*
X-100894Y-253215D01*
X-101588Y-252311D01*
X-102493Y-251616D01*
X-103547Y-251180D01*
X-104677Y-251031D01*
X-105808Y-251180D01*
X-106861Y-251616D01*
X-107766Y-252311D01*
X-108460Y-253215D01*
X-108897Y-254269D01*
X-109046Y-255399D01*
X-108962Y-256034D01*
X-113524Y-260596D01*
X-113986Y-260404D01*
Y-238358D01*
X-109114Y-233486D01*
X-108690Y-233769D01*
X-108897Y-234269D01*
X-109046Y-235400D01*
X-108897Y-236530D01*
X-108460Y-237584D01*
X-107766Y-238488D01*
X-106861Y-239183D01*
X-105808Y-239619D01*
X-104677Y-239768D01*
X-103547Y-239619D01*
X-102493Y-239183D01*
X-101588Y-238488D01*
X-100894Y-237584D01*
X-100458Y-236530D01*
X-100309Y-235400D01*
X-100458Y-234269D01*
X-100894Y-233215D01*
X-101588Y-232311D01*
X-102493Y-231616D01*
X-103547Y-231180D01*
X-104677Y-231031D01*
X-105808Y-231180D01*
X-106307Y-231387D01*
X-106590Y-230963D01*
X-105312Y-229684D01*
X-104677Y-229768D01*
X-103547Y-229619D01*
X-102493Y-229183D01*
X-101588Y-228488D01*
X-100894Y-227584D01*
X-100458Y-226530D01*
X-100309Y-225399D01*
X-100458Y-224269D01*
X-100894Y-223215D01*
X-101588Y-222311D01*
X-102493Y-221616D01*
X-103547Y-221180D01*
X-104677Y-221031D01*
X-105808Y-221180D01*
X-106307Y-221387D01*
X-106590Y-220963D01*
X-105312Y-219684D01*
X-104677Y-219768D01*
X-103547Y-219619D01*
X-102493Y-219183D01*
X-101588Y-218488D01*
X-100894Y-217584D01*
X-100458Y-216530D01*
X-100309Y-215400D01*
X-100458Y-214269D01*
X-100894Y-213215D01*
X-101588Y-212311D01*
X-102493Y-211616D01*
X-103547Y-211180D01*
X-104677Y-211031D01*
X-105808Y-211180D01*
X-106861Y-211616D01*
X-107766Y-212311D01*
X-108460Y-213215D01*
X-108897Y-214269D01*
X-109046Y-215400D01*
X-108962Y-216034D01*
X-120925Y-227997D01*
X-121387Y-227806D01*
Y-227181D01*
X-120922Y-226574D01*
X-120605Y-225808D01*
X-120496Y-224986D01*
X-120605Y-224164D01*
X-120922Y-223398D01*
X-121427Y-222740D01*
X-122085Y-222235D01*
X-122851Y-221918D01*
X-123673Y-221809D01*
X-124495Y-221918D01*
X-125261Y-222235D01*
X-125919Y-222740D01*
X-126424Y-223398D01*
X-126742Y-224164D01*
X-126850Y-224986D01*
X-126742Y-225808D01*
X-126540Y-226294D01*
X-126550Y-226364D01*
Y-230732D01*
X-127050Y-231050D01*
X-127709Y-230963D01*
X-128531Y-231071D01*
X-129297Y-231388D01*
X-129955Y-231893D01*
X-130460Y-232551D01*
X-130777Y-233317D01*
X-130885Y-234140D01*
X-130777Y-234962D01*
X-130460Y-235728D01*
X-130290Y-235950D01*
Y-246143D01*
X-130752Y-246334D01*
X-133512Y-243574D01*
X-134046Y-243164D01*
X-134669Y-242906D01*
X-135337Y-242818D01*
X-137954D01*
X-138667Y-241890D01*
X-139695Y-241101D01*
X-140892Y-240605D01*
X-142177Y-240436D01*
X-143462Y-240605D01*
X-144659Y-241101D01*
X-145687Y-241890D01*
X-146476Y-242918D01*
X-146972Y-244115D01*
X-147141Y-245399D01*
X-146972Y-246684D01*
X-146476Y-247881D01*
X-145687Y-248909D01*
X-144659Y-249698D01*
X-143462Y-250194D01*
X-142177Y-250363D01*
X-140892Y-250194D01*
X-139695Y-249698D01*
X-138667Y-248909D01*
X-137954Y-247981D01*
X-136406D01*
X-133487Y-250900D01*
Y-305061D01*
X-133841Y-305332D01*
X-134346Y-305990D01*
X-134663Y-306756D01*
X-134771Y-307579D01*
X-134663Y-308401D01*
X-134346Y-309167D01*
X-133841Y-309825D01*
X-133183Y-310330D01*
X-132417Y-310647D01*
X-131595Y-310755D01*
X-130790Y-310650D01*
X-130685Y-310646D01*
X-130290Y-310955D01*
Y-313976D01*
X-144002Y-327689D01*
X-144412Y-328223D01*
X-144670Y-328846D01*
X-144758Y-329514D01*
Y-341177D01*
X-145687Y-341890D01*
X-146476Y-342918D01*
X-146972Y-344115D01*
X-147141Y-345399D01*
X-146972Y-346684D01*
X-146476Y-347881D01*
X-145687Y-348909D01*
X-144659Y-349698D01*
X-143585Y-350143D01*
X-143585Y-350144D01*
Y-350655D01*
X-143585Y-350656D01*
X-144659Y-351101D01*
X-145687Y-351890D01*
X-146476Y-352918D01*
X-146972Y-354115D01*
X-147141Y-355399D01*
X-146972Y-356684D01*
X-146476Y-357881D01*
X-145687Y-358909D01*
X-144659Y-359698D01*
X-143585Y-360143D01*
X-143585Y-360144D01*
Y-360655D01*
X-143585Y-360656D01*
X-144659Y-361101D01*
X-145687Y-361890D01*
X-146476Y-362918D01*
X-146972Y-364115D01*
X-147141Y-365400D01*
X-146972Y-366684D01*
X-146476Y-367881D01*
X-145687Y-368909D01*
X-144659Y-369698D01*
X-143983Y-369978D01*
X-144082Y-370478D01*
X-147098D01*
Y-380321D01*
X-137256D01*
Y-370478D01*
X-140272D01*
X-140371Y-369978D01*
X-139695Y-369698D01*
X-138667Y-368909D01*
X-137878Y-367881D01*
X-137382Y-366684D01*
X-137304Y-366086D01*
X-131002Y-359784D01*
X-130591Y-359249D01*
X-130333Y-358627D01*
X-130246Y-357959D01*
Y-325591D01*
X-130199Y-325560D01*
X-129699Y-325827D01*
Y-383169D01*
X-131798Y-385267D01*
X-132208Y-385802D01*
X-132466Y-386424D01*
X-132554Y-387092D01*
Y-398214D01*
X-132466Y-398883D01*
X-132208Y-399505D01*
X-131798Y-400040D01*
X-127731Y-404106D01*
Y-404672D01*
X-127901Y-404894D01*
X-128218Y-405660D01*
X-128326Y-406482D01*
X-128218Y-407304D01*
X-127901Y-408071D01*
X-127396Y-408729D01*
X-126738Y-409233D01*
X-125972Y-409551D01*
X-125150Y-409659D01*
X-124327Y-409551D01*
X-123561Y-409233D01*
X-122903Y-408729D01*
X-122398Y-408071D01*
X-122081Y-407304D01*
X-121973Y-406482D01*
X-122081Y-405660D01*
X-122398Y-404894D01*
X-122568Y-404672D01*
Y-403037D01*
X-122656Y-402369D01*
X-122914Y-401747D01*
X-123324Y-401212D01*
X-124946Y-399591D01*
X-124913Y-399092D01*
X-124773Y-398984D01*
X-124268Y-398326D01*
X-123951Y-397560D01*
X-123843Y-396738D01*
X-123951Y-395916D01*
X-124268Y-395150D01*
X-124439Y-394928D01*
Y-388499D01*
X-122683Y-386743D01*
X-122273Y-386208D01*
X-122015Y-385586D01*
X-121991Y-385408D01*
X-121606Y-384954D01*
X-121181Y-384898D01*
X-120648Y-385301D01*
X-120640Y-385364D01*
X-120323Y-386130D01*
X-120147Y-386359D01*
X-120322Y-386587D01*
X-120639Y-387353D01*
X-120748Y-388175D01*
X-120639Y-388997D01*
X-120322Y-389763D01*
X-120152Y-389985D01*
Y-421541D01*
X-120064Y-422209D01*
X-119806Y-422832D01*
X-119396Y-423366D01*
X-115538Y-427225D01*
X-115003Y-427635D01*
X-114381Y-427893D01*
X-113713Y-427981D01*
X-108156D01*
X-107766Y-428488D01*
X-106861Y-429183D01*
X-105808Y-429619D01*
X-104677Y-429768D01*
X-103547Y-429619D01*
X-102493Y-429183D01*
X-101588Y-428488D01*
X-101199Y-427981D01*
X-98156D01*
X-97766Y-428488D01*
X-96861Y-429183D01*
X-95808Y-429619D01*
X-94677Y-429768D01*
X-93546Y-429619D01*
X-92493Y-429183D01*
X-91588Y-428488D01*
X-91501Y-428374D01*
X-87669D01*
Y-428817D01*
X-81685D01*
Y-428374D01*
X-69853D01*
X-63557Y-434669D01*
X-63184Y-434956D01*
Y-435393D01*
X-63129Y-435668D01*
X-63596Y-435980D01*
X-64031Y-436631D01*
X-64184Y-437400D01*
Y-448582D01*
X-64684Y-448829D01*
X-64947Y-448627D01*
X-65713Y-448309D01*
X-66535Y-448201D01*
X-67358Y-448309D01*
X-68124Y-448627D01*
X-68427Y-448859D01*
X-125818D01*
X-126120Y-448627D01*
X-126886Y-448309D01*
X-127709Y-448201D01*
X-128531Y-448309D01*
X-129297Y-448627D01*
X-129955Y-449132D01*
X-130460Y-449790D01*
X-130777Y-450556D01*
X-130885Y-451378D01*
X-130777Y-452200D01*
X-130490Y-452892D01*
X-130687Y-453392D01*
X-153854D01*
X-157678Y-449568D01*
X-157678Y-325399D01*
X-157678Y-183739D01*
X-149293Y-175354D01*
X-115124Y-175354D01*
X-114356Y-175201D01*
X-113705Y-174766D01*
X-101758Y-162819D01*
X-101323Y-162168D01*
X-101170Y-161399D01*
X-101170Y-94399D01*
X-101323Y-93631D01*
X-101758Y-92980D01*
X-105758Y-88980D01*
X-106409Y-88545D01*
X-107177Y-88392D01*
X-121677Y-88392D01*
D02*
G37*
G36*
X-111760Y-549920D02*
X-112582Y-550028D01*
X-113348Y-550345D01*
X-114006Y-550850D01*
X-114511Y-551508D01*
X-114828Y-552274D01*
X-114937Y-553096D01*
X-114828Y-553919D01*
X-114511Y-554685D01*
X-114341Y-554906D01*
Y-556970D01*
X-114811D01*
Y-562679D01*
Y-566222D01*
X-114341D01*
Y-572373D01*
X-114391Y-572394D01*
X-115419Y-573183D01*
X-116208Y-574211D01*
X-116704Y-575408D01*
X-116873Y-576693D01*
X-116704Y-577978D01*
X-116208Y-579175D01*
X-115419Y-580203D01*
X-114391Y-580992D01*
X-113194Y-581488D01*
X-111909Y-581657D01*
X-110625Y-581488D01*
X-109428Y-580992D01*
X-108400Y-580203D01*
X-107611Y-579175D01*
X-107115Y-577978D01*
X-106946Y-576693D01*
X-107115Y-575408D01*
X-107611Y-574211D01*
X-108400Y-573183D01*
X-109179Y-572585D01*
Y-566222D01*
X-108709D01*
Y-562679D01*
Y-556970D01*
X-109179D01*
Y-554906D01*
X-109009Y-554685D01*
X-108691Y-553919D01*
X-108583Y-553096D01*
X-108691Y-552274D01*
X-109009Y-551508D01*
X-109513Y-550850D01*
X-110171Y-550345D01*
X-110938Y-550028D01*
X-111760Y-549920D01*
D02*
G37*
G36*
X-208661Y-113081D02*
X-209946Y-113251D01*
X-211143Y-113746D01*
X-212171Y-114535D01*
X-212960Y-115563D01*
X-213456Y-116760D01*
X-213625Y-118045D01*
X-213456Y-119330D01*
X-212960Y-120527D01*
X-212171Y-121555D01*
X-211143Y-122344D01*
X-211070Y-122374D01*
Y-123819D01*
X-211319D01*
Y-129921D01*
X-202067D01*
Y-129451D01*
X-196790D01*
X-196569Y-129621D01*
X-195802Y-129939D01*
X-194980Y-130047D01*
X-194158Y-129939D01*
X-193392Y-129621D01*
X-192734Y-129116D01*
X-192229Y-128458D01*
X-191912Y-127692D01*
X-191804Y-126870D01*
X-191912Y-126048D01*
X-192229Y-125282D01*
X-192734Y-124624D01*
X-193392Y-124119D01*
X-194158Y-123802D01*
X-194980Y-123693D01*
X-195802Y-123802D01*
X-196569Y-124119D01*
X-196790Y-124289D01*
X-202067D01*
Y-123819D01*
X-206253D01*
Y-122374D01*
X-206180Y-122344D01*
X-205152Y-121555D01*
X-204363Y-120527D01*
X-203867Y-119330D01*
X-203698Y-118045D01*
X-203867Y-116760D01*
X-204363Y-115563D01*
X-205152Y-114535D01*
X-206180Y-113746D01*
X-207377Y-113251D01*
X-208661Y-113081D01*
D02*
G37*
G36*
X238878Y-129497D02*
X231398D01*
X230473Y-129619D01*
X229611Y-129976D01*
X228871Y-130544D01*
X228303Y-131284D01*
X227945Y-132146D01*
X227824Y-133071D01*
X227945Y-133996D01*
X228303Y-134858D01*
X228871Y-135598D01*
X229611Y-136166D01*
X230473Y-136523D01*
X231398Y-136645D01*
X238878D01*
X239803Y-136523D01*
X240665Y-136166D01*
X241405Y-135598D01*
X241973Y-134858D01*
X242330Y-133996D01*
X242452Y-133071D01*
X242330Y-132146D01*
X241973Y-131284D01*
X241405Y-130544D01*
X240665Y-129976D01*
X239803Y-129619D01*
X238878Y-129497D01*
D02*
G37*
G36*
X216437Y-139339D02*
X208957D01*
X208032Y-139461D01*
X207170Y-139818D01*
X206430Y-140386D01*
X205862Y-141126D01*
X205505Y-141988D01*
X205383Y-142913D01*
X205505Y-143838D01*
X205862Y-144700D01*
X206430Y-145440D01*
X207170Y-146008D01*
X208032Y-146365D01*
X208957Y-146487D01*
X216437D01*
X217362Y-146365D01*
X218224Y-146008D01*
X218964Y-145440D01*
X219149Y-145199D01*
X221320D01*
X221542Y-145369D01*
X222308Y-145687D01*
X223130Y-145795D01*
X223952Y-145687D01*
X224718Y-145369D01*
X225376Y-144864D01*
X225881Y-144207D01*
X226199Y-143440D01*
X226307Y-142618D01*
X226199Y-141796D01*
X225881Y-141030D01*
X225376Y-140372D01*
X224718Y-139867D01*
X223952Y-139550D01*
X223130Y-139441D01*
X222308Y-139550D01*
X221542Y-139867D01*
X221320Y-140037D01*
X218509D01*
X218224Y-139818D01*
X217362Y-139461D01*
X216437Y-139339D01*
D02*
G37*
G36*
X259323Y-269031D02*
X258192Y-269180D01*
X257139Y-269616D01*
X256234Y-270311D01*
X255540Y-271215D01*
X255103Y-272269D01*
X254955Y-273399D01*
X255103Y-274530D01*
X255540Y-275584D01*
X256234Y-276488D01*
X257139Y-277183D01*
X258192Y-277619D01*
X259323Y-277768D01*
X260454Y-277619D01*
X261507Y-277183D01*
X262412Y-276488D01*
X263106Y-275584D01*
X263542Y-274530D01*
X263691Y-273399D01*
X263542Y-272269D01*
X263106Y-271215D01*
X262412Y-270311D01*
X261507Y-269616D01*
X260454Y-269180D01*
X259323Y-269031D01*
D02*
G37*
G36*
X150244Y-238478D02*
X140402D01*
Y-248321D01*
X143418D01*
X143517Y-248821D01*
X142841Y-249101D01*
X141813Y-249890D01*
X141024Y-250918D01*
X140528Y-252115D01*
X140359Y-253399D01*
X140528Y-254684D01*
X141024Y-255881D01*
X141813Y-256909D01*
X142841Y-257698D01*
X143915Y-258143D01*
X143915Y-258144D01*
Y-258655D01*
X143915Y-258656D01*
X142841Y-259101D01*
X141813Y-259890D01*
X141024Y-260918D01*
X140528Y-262115D01*
X140359Y-263400D01*
X140528Y-264684D01*
X141024Y-265881D01*
X141813Y-266909D01*
X142841Y-267698D01*
X143915Y-268143D01*
X143915Y-268144D01*
Y-268655D01*
X143915Y-268656D01*
X142841Y-269101D01*
X141813Y-269890D01*
X141024Y-270918D01*
X140528Y-272115D01*
X140359Y-273399D01*
X140528Y-274684D01*
X141024Y-275881D01*
X141813Y-276909D01*
X142841Y-277698D01*
X144038Y-278194D01*
X145323Y-278363D01*
X146608Y-278194D01*
X147805Y-277698D01*
X148833Y-276909D01*
X149622Y-275881D01*
X150118Y-274684D01*
X150287Y-273399D01*
X150118Y-272115D01*
X149622Y-270918D01*
X148833Y-269890D01*
X147805Y-269101D01*
X146731Y-268656D01*
X146731Y-268655D01*
Y-268144D01*
X146731Y-268143D01*
X147805Y-267698D01*
X148833Y-266909D01*
X149622Y-265881D01*
X150118Y-264684D01*
X150287Y-263400D01*
X150118Y-262115D01*
X149622Y-260918D01*
X148833Y-259890D01*
X147805Y-259101D01*
X146731Y-258656D01*
X146731Y-258655D01*
Y-258144D01*
X146731Y-258143D01*
X147805Y-257698D01*
X148833Y-256909D01*
X149622Y-255881D01*
X150118Y-254684D01*
X150287Y-253399D01*
X150118Y-252115D01*
X149622Y-250918D01*
X148833Y-249890D01*
X147805Y-249101D01*
X147129Y-248821D01*
X147228Y-248321D01*
X150244D01*
Y-238478D01*
D02*
G37*
G36*
X-197528Y-271962D02*
X-203827D01*
Y-273817D01*
X-207728D01*
Y-274263D01*
X-208327D01*
X-208404Y-274203D01*
X-209170Y-273886D01*
X-209992Y-273778D01*
X-210814Y-273886D01*
X-211580Y-274203D01*
X-212238Y-274708D01*
X-212743Y-275366D01*
X-213061Y-276132D01*
X-213169Y-276955D01*
X-213061Y-277777D01*
X-212743Y-278543D01*
X-212238Y-279201D01*
X-211580Y-279706D01*
X-210814Y-280023D01*
X-209992Y-280131D01*
X-209170Y-280023D01*
X-208404Y-279706D01*
X-208214Y-279560D01*
X-207728Y-279525D01*
X-207728Y-279525D01*
X-207728Y-279525D01*
X-203827D01*
Y-279837D01*
X-197528D01*
Y-271962D01*
D02*
G37*
G36*
X105323Y-261031D02*
X104192Y-261180D01*
X103139Y-261616D01*
X102234Y-262311D01*
X101540Y-263215D01*
X101103Y-264269D01*
X100954Y-265400D01*
X101103Y-266530D01*
X101540Y-267584D01*
X102234Y-268488D01*
X103139Y-269183D01*
X104192Y-269619D01*
X105323Y-269768D01*
X106454Y-269619D01*
X107507Y-269183D01*
X108412Y-268488D01*
X109106Y-267584D01*
X109542Y-266530D01*
X109691Y-265400D01*
X109542Y-264269D01*
X109106Y-263215D01*
X108412Y-262311D01*
X107507Y-261616D01*
X106454Y-261180D01*
X105323Y-261031D01*
D02*
G37*
G36*
X95323D02*
X94192Y-261180D01*
X93139Y-261616D01*
X92234Y-262311D01*
X91540Y-263215D01*
X91103Y-264269D01*
X90955Y-265400D01*
X91103Y-266530D01*
X91540Y-267584D01*
X92234Y-268488D01*
X93139Y-269183D01*
X94192Y-269619D01*
X95323Y-269768D01*
X96453Y-269619D01*
X97507Y-269183D01*
X98412Y-268488D01*
X99106Y-267584D01*
X99542Y-266530D01*
X99691Y-265400D01*
X99542Y-264269D01*
X99106Y-263215D01*
X98412Y-262311D01*
X97507Y-261616D01*
X96453Y-261180D01*
X95323Y-261031D01*
D02*
G37*
G36*
X105323Y-271031D02*
X104192Y-271180D01*
X103139Y-271616D01*
X102234Y-272311D01*
X101540Y-273215D01*
X101103Y-274269D01*
X100954Y-275399D01*
X101103Y-276530D01*
X101540Y-277584D01*
X102234Y-278488D01*
X103139Y-279183D01*
X104192Y-279619D01*
X105323Y-279768D01*
X106454Y-279619D01*
X107507Y-279183D01*
X108412Y-278488D01*
X109106Y-277584D01*
X109542Y-276530D01*
X109691Y-275399D01*
X109542Y-274269D01*
X109106Y-273215D01*
X108412Y-272311D01*
X107507Y-271616D01*
X106454Y-271180D01*
X105323Y-271031D01*
D02*
G37*
G36*
Y-281031D02*
X104192Y-281180D01*
X103139Y-281616D01*
X102234Y-282311D01*
X101540Y-283215D01*
X101103Y-284269D01*
X100954Y-285400D01*
X101103Y-286530D01*
X101540Y-287584D01*
X102234Y-288488D01*
X103139Y-289183D01*
X104192Y-289619D01*
X105323Y-289768D01*
X106454Y-289619D01*
X107507Y-289183D01*
X108412Y-288488D01*
X109106Y-287584D01*
X109542Y-286530D01*
X109691Y-285400D01*
X109542Y-284269D01*
X109106Y-283215D01*
X108412Y-282311D01*
X107507Y-281616D01*
X106454Y-281180D01*
X105323Y-281031D01*
D02*
G37*
G36*
X95323D02*
X94192Y-281180D01*
X93139Y-281616D01*
X92234Y-282311D01*
X91540Y-283215D01*
X91103Y-284269D01*
X90955Y-285400D01*
X91103Y-286530D01*
X91540Y-287584D01*
X92234Y-288488D01*
X93139Y-289183D01*
X94192Y-289619D01*
X95323Y-289768D01*
X96453Y-289619D01*
X97507Y-289183D01*
X98412Y-288488D01*
X99106Y-287584D01*
X99542Y-286530D01*
X99691Y-285400D01*
X99542Y-284269D01*
X99106Y-283215D01*
X98412Y-282311D01*
X97507Y-281616D01*
X96453Y-281180D01*
X95323Y-281031D01*
D02*
G37*
G36*
X259323Y-279031D02*
X258192Y-279180D01*
X257139Y-279616D01*
X256234Y-280311D01*
X255540Y-281215D01*
X255103Y-282269D01*
X254955Y-283400D01*
X255103Y-284530D01*
X255540Y-285584D01*
X256234Y-286488D01*
X257139Y-287183D01*
X258192Y-287619D01*
X259323Y-287768D01*
X260454Y-287619D01*
X261507Y-287183D01*
X262412Y-286488D01*
X263106Y-285584D01*
X263542Y-284530D01*
X263691Y-283400D01*
X263542Y-282269D01*
X263106Y-281215D01*
X262412Y-280311D01*
X261507Y-279616D01*
X260454Y-279180D01*
X259323Y-279031D01*
D02*
G37*
G36*
X95323Y-271031D02*
X94192Y-271180D01*
X93139Y-271616D01*
X92234Y-272311D01*
X91540Y-273215D01*
X91103Y-274269D01*
X90955Y-275399D01*
X91103Y-276530D01*
X91540Y-277584D01*
X92234Y-278488D01*
X93139Y-279183D01*
X94192Y-279619D01*
X95323Y-279768D01*
X96453Y-279619D01*
X97507Y-279183D01*
X98412Y-278488D01*
X99106Y-277584D01*
X99542Y-276530D01*
X99691Y-275399D01*
X99542Y-274269D01*
X99106Y-273215D01*
X98412Y-272311D01*
X97507Y-271616D01*
X96453Y-271180D01*
X95323Y-271031D01*
D02*
G37*
G36*
X-142177Y-260436D02*
X-143462Y-260605D01*
X-144659Y-261101D01*
X-145687Y-261890D01*
X-146476Y-262918D01*
X-146972Y-264115D01*
X-147141Y-265400D01*
X-146972Y-266684D01*
X-146476Y-267881D01*
X-145687Y-268909D01*
X-144758Y-269622D01*
Y-270478D01*
X-147098D01*
Y-280321D01*
X-137256D01*
Y-270478D01*
X-139596D01*
Y-269622D01*
X-138667Y-268909D01*
X-137878Y-267881D01*
X-137382Y-266684D01*
X-137213Y-265400D01*
X-137382Y-264115D01*
X-137878Y-262918D01*
X-138667Y-261890D01*
X-139695Y-261101D01*
X-140892Y-260605D01*
X-142177Y-260436D01*
D02*
G37*
G36*
X-94677Y-251031D02*
X-95808Y-251180D01*
X-96861Y-251616D01*
X-97766Y-252311D01*
X-98460Y-253215D01*
X-98897Y-254269D01*
X-99045Y-255399D01*
X-98897Y-256530D01*
X-98460Y-257584D01*
X-97766Y-258488D01*
X-96861Y-259183D01*
X-95808Y-259619D01*
X-94677Y-259768D01*
X-93546Y-259619D01*
X-92493Y-259183D01*
X-91588Y-258488D01*
X-90894Y-257584D01*
X-90458Y-256530D01*
X-90309Y-255399D01*
X-90458Y-254269D01*
X-90894Y-253215D01*
X-91588Y-252311D01*
X-92493Y-251616D01*
X-93546Y-251180D01*
X-94677Y-251031D01*
D02*
G37*
G36*
X-63878Y-543083D02*
X-64700Y-543191D01*
X-65466Y-543509D01*
X-66124Y-544014D01*
X-66629Y-544671D01*
X-66947Y-545438D01*
X-67055Y-546260D01*
X-66947Y-547082D01*
X-66629Y-547848D01*
X-66388Y-548162D01*
Y-557256D01*
X-66300Y-557924D01*
X-66042Y-558547D01*
X-65632Y-559081D01*
X-61220Y-563493D01*
Y-565025D01*
X-60750D01*
Y-572251D01*
X-61581Y-572888D01*
X-62370Y-573916D01*
X-62866Y-575113D01*
X-63035Y-576398D01*
X-62866Y-577682D01*
X-62370Y-578879D01*
X-61581Y-579908D01*
X-60553Y-580696D01*
X-59356Y-581192D01*
X-58071Y-581361D01*
X-56786Y-581192D01*
X-55589Y-580696D01*
X-54561Y-579908D01*
X-53772Y-578879D01*
X-53276Y-577682D01*
X-53107Y-576398D01*
X-53276Y-575113D01*
X-53772Y-573916D01*
X-54561Y-572888D01*
X-55588Y-572100D01*
Y-565025D01*
X-55118D01*
Y-561482D01*
Y-557601D01*
X-19454D01*
X-19228Y-557694D01*
X-18406Y-557803D01*
X-17583Y-557694D01*
X-16817Y-557377D01*
X-16159Y-556872D01*
X-15654Y-556214D01*
X-15337Y-555448D01*
X-15229Y-554626D01*
X-15337Y-553804D01*
X-15654Y-553038D01*
X-16159Y-552380D01*
X-16817Y-551875D01*
X-17583Y-551557D01*
X-18406Y-551449D01*
X-19228Y-551557D01*
X-19994Y-551875D01*
X-20652Y-552380D01*
X-20697Y-552439D01*
X-54935D01*
X-54966Y-552408D01*
X-55002Y-552131D01*
X-55320Y-551364D01*
X-55825Y-550706D01*
X-56482Y-550202D01*
X-57249Y-549884D01*
X-58071Y-549776D01*
X-58893Y-549884D01*
X-59659Y-550202D01*
X-60317Y-550706D01*
X-60726Y-551239D01*
X-61226Y-551087D01*
Y-547977D01*
X-61127Y-547848D01*
X-60809Y-547082D01*
X-60701Y-546260D01*
X-60809Y-545438D01*
X-61127Y-544671D01*
X-61632Y-544014D01*
X-62290Y-543509D01*
X-63056Y-543191D01*
X-63878Y-543083D01*
D02*
G37*
G36*
X-193710Y-536821D02*
X-195253Y-536973D01*
X-196738Y-537423D01*
X-198106Y-538154D01*
X-199304Y-539138D01*
X-200289Y-540337D01*
X-201020Y-541705D01*
X-201470Y-543189D01*
X-201622Y-544733D01*
X-201470Y-546276D01*
X-201020Y-547761D01*
X-200289Y-549128D01*
X-199304Y-550327D01*
X-198106Y-551311D01*
X-196738Y-552043D01*
X-195253Y-552493D01*
X-193710Y-552645D01*
X-192166Y-552493D01*
X-190682Y-552043D01*
X-189314Y-551311D01*
X-188115Y-550327D01*
X-187131Y-549128D01*
X-186400Y-547761D01*
X-185950Y-546276D01*
X-185798Y-544733D01*
X-185950Y-543189D01*
X-186400Y-541705D01*
X-187131Y-540337D01*
X-188115Y-539138D01*
X-189314Y-538154D01*
X-190682Y-537423D01*
X-192166Y-536973D01*
X-193710Y-536821D01*
D02*
G37*
G36*
X193710D02*
X192166Y-536973D01*
X190682Y-537423D01*
X189314Y-538154D01*
X188115Y-539138D01*
X187131Y-540337D01*
X186400Y-541705D01*
X185950Y-543189D01*
X185798Y-544733D01*
X185950Y-546276D01*
X186400Y-547761D01*
X187131Y-549128D01*
X188115Y-550327D01*
X189314Y-551311D01*
X190682Y-552043D01*
X192166Y-552493D01*
X193710Y-552645D01*
X195253Y-552493D01*
X196738Y-552043D01*
X198105Y-551311D01*
X199304Y-550327D01*
X200288Y-549128D01*
X201020Y-547761D01*
X201470Y-546276D01*
X201622Y-544733D01*
X201470Y-543189D01*
X201020Y-541705D01*
X200288Y-540337D01*
X199304Y-539138D01*
X198105Y-538154D01*
X196738Y-537423D01*
X195253Y-536973D01*
X193710Y-536821D01*
D02*
G37*
G36*
X-104677Y-241031D02*
X-105808Y-241180D01*
X-106861Y-241616D01*
X-107766Y-242311D01*
X-108460Y-243215D01*
X-108897Y-244269D01*
X-109046Y-245399D01*
X-108897Y-246530D01*
X-108460Y-247584D01*
X-107766Y-248488D01*
X-106861Y-249183D01*
X-105808Y-249619D01*
X-104677Y-249768D01*
X-103547Y-249619D01*
X-102493Y-249183D01*
X-101588Y-248488D01*
X-100894Y-247584D01*
X-100458Y-246530D01*
X-100309Y-245399D01*
X-100458Y-244269D01*
X-100894Y-243215D01*
X-101588Y-242311D01*
X-102493Y-241616D01*
X-103547Y-241180D01*
X-104677Y-241031D01*
D02*
G37*
G36*
X-94677D02*
X-95808Y-241180D01*
X-96861Y-241616D01*
X-97766Y-242311D01*
X-98460Y-243215D01*
X-98897Y-244269D01*
X-99045Y-245399D01*
X-98897Y-246530D01*
X-98460Y-247584D01*
X-97766Y-248488D01*
X-96861Y-249183D01*
X-95808Y-249619D01*
X-94677Y-249768D01*
X-93546Y-249619D01*
X-92493Y-249183D01*
X-91588Y-248488D01*
X-90894Y-247584D01*
X-90458Y-246530D01*
X-90309Y-245399D01*
X-90458Y-244269D01*
X-90894Y-243215D01*
X-91588Y-242311D01*
X-92493Y-241616D01*
X-93546Y-241180D01*
X-94677Y-241031D01*
D02*
G37*
G36*
X-138189Y-496591D02*
X-139486Y-496762D01*
X-140695Y-497262D01*
X-141733Y-498059D01*
X-142529Y-499097D01*
X-143030Y-500305D01*
X-143200Y-501602D01*
X-143030Y-502899D01*
X-142529Y-504108D01*
X-141733Y-505146D01*
X-140695Y-505942D01*
X-140047Y-506211D01*
Y-506752D01*
X-140671Y-507010D01*
X-141709Y-507807D01*
X-142505Y-508845D01*
X-143006Y-510053D01*
X-143017Y-510134D01*
X-144935Y-512053D01*
X-145346Y-512587D01*
X-145603Y-513210D01*
X-145691Y-513878D01*
Y-533071D01*
X-145603Y-533739D01*
X-145346Y-534361D01*
X-144935Y-534896D01*
X-141954Y-537878D01*
X-142505Y-538597D01*
X-143006Y-539805D01*
X-143177Y-541102D01*
X-143006Y-542399D01*
X-142505Y-543608D01*
X-141853Y-544458D01*
X-142092Y-544958D01*
X-150336D01*
X-150662Y-544587D01*
X-150770Y-543764D01*
X-151087Y-542998D01*
X-151592Y-542340D01*
X-152250Y-541835D01*
X-153016Y-541518D01*
X-153839Y-541410D01*
X-154661Y-541518D01*
X-155427Y-541835D01*
X-155649Y-542005D01*
X-157592D01*
X-157754Y-541844D01*
Y-532480D01*
X-157842Y-531812D01*
X-158099Y-531190D01*
X-158510Y-530655D01*
X-160903Y-528262D01*
X-161438Y-527851D01*
X-162060Y-527593D01*
X-162728Y-527505D01*
X-164120D01*
X-165089Y-526762D01*
X-166297Y-526262D01*
X-167595Y-526091D01*
X-168892Y-526262D01*
X-170100Y-526762D01*
X-171138Y-527559D01*
X-171934Y-528597D01*
X-172435Y-529805D01*
X-172606Y-531102D01*
X-172435Y-532399D01*
X-171934Y-533608D01*
X-171138Y-534646D01*
X-170100Y-535442D01*
X-169160Y-535832D01*
Y-536373D01*
X-170100Y-536762D01*
X-171138Y-537559D01*
X-171934Y-538597D01*
X-172435Y-539805D01*
X-172606Y-541102D01*
X-172435Y-542399D01*
X-171934Y-543608D01*
X-171138Y-544646D01*
X-170100Y-545442D01*
X-168892Y-545943D01*
X-167595Y-546114D01*
X-166534Y-545974D01*
X-163144Y-549365D01*
X-162610Y-549775D01*
X-161987Y-550033D01*
X-161319Y-550120D01*
X-138877D01*
X-138707Y-550621D01*
X-139006Y-550850D01*
X-139511Y-551508D01*
X-139828Y-552274D01*
X-139937Y-553096D01*
X-139828Y-553919D01*
X-139511Y-554685D01*
X-139341Y-554906D01*
Y-556970D01*
X-139811D01*
Y-562679D01*
Y-566222D01*
X-139341D01*
Y-571992D01*
X-139375Y-571997D01*
X-140572Y-572493D01*
X-141600Y-573281D01*
X-142389Y-574309D01*
X-142885Y-575507D01*
X-143054Y-576791D01*
X-142885Y-578076D01*
X-142389Y-579273D01*
X-141600Y-580301D01*
X-140572Y-581090D01*
X-139375Y-581586D01*
X-138091Y-581755D01*
X-136806Y-581586D01*
X-135609Y-581090D01*
X-134581Y-580301D01*
X-133792Y-579273D01*
X-133296Y-578076D01*
X-133127Y-576791D01*
X-133296Y-575507D01*
X-133792Y-574309D01*
X-134179Y-573805D01*
Y-566222D01*
X-133709D01*
Y-562679D01*
Y-556970D01*
X-134179D01*
Y-555677D01*
X-133018D01*
X-132350Y-555589D01*
X-131727Y-555332D01*
X-131192Y-554921D01*
X-120333Y-544062D01*
X-120212Y-544112D01*
X-119390Y-544220D01*
X-118568Y-544112D01*
X-117801Y-543794D01*
X-117436Y-543514D01*
X-117305Y-543683D01*
X-116648Y-544188D01*
X-115881Y-544506D01*
X-115059Y-544614D01*
X-114237Y-544506D01*
X-113471Y-544188D01*
X-112813Y-543683D01*
X-112537Y-543324D01*
X-111923Y-543794D01*
X-111157Y-544112D01*
X-110335Y-544220D01*
X-109512Y-544112D01*
X-108746Y-543794D01*
X-108088Y-543290D01*
X-107583Y-542632D01*
X-107266Y-541865D01*
X-107158Y-541043D01*
X-107266Y-540221D01*
X-107394Y-539912D01*
X-107347Y-539554D01*
X-107435Y-538886D01*
X-107693Y-538264D01*
X-108103Y-537729D01*
X-108103Y-537729D01*
X-110275Y-535557D01*
X-110084Y-535095D01*
X-108057D01*
X-107494Y-535527D01*
X-106728Y-535844D01*
X-105905Y-535952D01*
X-105083Y-535844D01*
X-104317Y-535527D01*
X-103659Y-535022D01*
X-103154Y-534364D01*
X-102837Y-533598D01*
X-102729Y-532776D01*
X-102837Y-531953D01*
X-103154Y-531187D01*
X-103659Y-530529D01*
X-104317Y-530024D01*
X-105083Y-529707D01*
X-105219Y-529689D01*
X-105186Y-529189D01*
X-100872D01*
X-100309Y-529621D01*
X-99543Y-529939D01*
X-98721Y-530047D01*
X-97898Y-529939D01*
X-97132Y-529621D01*
X-96474Y-529116D01*
X-95969Y-528458D01*
X-95652Y-527692D01*
X-95544Y-526870D01*
X-95652Y-526048D01*
X-95969Y-525282D01*
X-96223Y-524951D01*
X-95969Y-524620D01*
X-95652Y-523854D01*
X-95544Y-523032D01*
X-95652Y-522209D01*
X-95969Y-521443D01*
X-96474Y-520785D01*
X-97132Y-520280D01*
X-97898Y-519963D01*
X-98721Y-519855D01*
X-99543Y-519963D01*
X-100309Y-520280D01*
X-100967Y-520785D01*
X-101012Y-520844D01*
X-112211D01*
X-112242Y-520799D01*
X-112967Y-520314D01*
X-112680Y-519621D01*
X-112571Y-518799D01*
X-112680Y-517977D01*
X-112997Y-517211D01*
X-113502Y-516553D01*
X-114160Y-516048D01*
X-114926Y-515731D01*
X-115748Y-515622D01*
X-116570Y-515731D01*
X-116840Y-515842D01*
X-117340Y-515508D01*
Y-510394D01*
X-117428Y-509726D01*
X-117686Y-509103D01*
X-118096Y-508569D01*
X-127903Y-498762D01*
X-128438Y-498351D01*
X-129060Y-498093D01*
X-129728Y-498005D01*
X-134715D01*
X-135683Y-497262D01*
X-136892Y-496762D01*
X-138189Y-496591D01*
D02*
G37*
G36*
X-80020Y-543083D02*
X-80842Y-543191D01*
X-81608Y-543509D01*
X-82266Y-544014D01*
X-82771Y-544671D01*
X-83088Y-545438D01*
X-83197Y-546260D01*
X-83088Y-547082D01*
X-82771Y-547848D01*
X-82601Y-548070D01*
Y-550186D01*
X-82977Y-550516D01*
X-83366Y-550465D01*
X-84188Y-550573D01*
X-84955Y-550891D01*
X-85612Y-551395D01*
X-86117Y-552053D01*
X-86435Y-552819D01*
X-86543Y-553642D01*
X-86435Y-554464D01*
X-86117Y-555230D01*
X-86084Y-555273D01*
X-86220Y-555773D01*
X-86220D01*
Y-561482D01*
Y-562712D01*
X-86314Y-562816D01*
X-86357Y-562903D01*
X-86416Y-562980D01*
X-86509Y-563202D01*
X-86617Y-563418D01*
X-86637Y-563513D01*
X-86674Y-563602D01*
X-86706Y-563841D01*
X-86755Y-564077D01*
X-86749Y-564174D01*
X-86762Y-564270D01*
Y-571948D01*
X-87128Y-572099D01*
X-88156Y-572888D01*
X-88944Y-573916D01*
X-89440Y-575113D01*
X-89609Y-576398D01*
X-89440Y-577682D01*
X-88944Y-578879D01*
X-88156Y-579908D01*
X-87128Y-580696D01*
X-85930Y-581192D01*
X-84646Y-581361D01*
X-83361Y-581192D01*
X-82164Y-580696D01*
X-81136Y-579908D01*
X-80347Y-578879D01*
X-79851Y-577682D01*
X-79682Y-576398D01*
X-79851Y-575113D01*
X-80347Y-573916D01*
X-81136Y-572888D01*
X-81600Y-572532D01*
Y-565454D01*
X-81584Y-565441D01*
X-81476Y-565320D01*
X-81354Y-565216D01*
X-81181Y-565025D01*
X-80118D01*
Y-563850D01*
X-78527Y-562092D01*
X-78430Y-561951D01*
X-78178Y-561623D01*
X-77920Y-561001D01*
X-77832Y-560332D01*
Y-553323D01*
X-77784Y-553261D01*
X-77526Y-552638D01*
X-77438Y-551970D01*
X-77439Y-551970D01*
Y-548070D01*
X-77268Y-547848D01*
X-76951Y-547082D01*
X-76843Y-546260D01*
X-76951Y-545438D01*
X-77268Y-544671D01*
X-77773Y-544014D01*
X-78431Y-543509D01*
X-79198Y-543191D01*
X-80020Y-543083D01*
D02*
G37*
%LPD*%
G36*
X-8223Y-300447D02*
X-7688Y-300857D01*
X-7484Y-300942D01*
X-6346Y-302080D01*
Y-303749D01*
X-9016D01*
Y-303012D01*
X-13767D01*
X-13959Y-302550D01*
X-13136Y-301727D01*
X-12725Y-301192D01*
X-12467Y-300570D01*
X-12380Y-299902D01*
Y-298074D01*
X-12162Y-297857D01*
X-10813D01*
X-8223Y-300447D01*
D02*
G37*
G36*
X4898Y-288053D02*
X5123Y-288596D01*
X5628Y-289254D01*
X6286Y-289759D01*
X7052Y-290076D01*
X7874Y-290185D01*
X8253Y-290135D01*
X8524Y-290603D01*
X8273Y-290931D01*
X7955Y-291698D01*
X7847Y-292520D01*
X7955Y-293342D01*
X8273Y-294108D01*
X8505Y-294411D01*
Y-296260D01*
X8614Y-296811D01*
X8297Y-297198D01*
X7323D01*
Y-296516D01*
X3995D01*
Y-289036D01*
X4031Y-288990D01*
X4348Y-288224D01*
X4355Y-288171D01*
X4831Y-288025D01*
X4898Y-288053D01*
D02*
G37*
G36*
X-1709Y-307398D02*
X-787Y-307582D01*
X0Y-307425D01*
X787Y-307582D01*
X1575Y-307425D01*
X2046Y-307519D01*
X2513Y-307732D01*
X2669Y-308520D01*
X2513Y-309307D01*
X2669Y-310094D01*
X2513Y-310882D01*
X2669Y-311669D01*
X2513Y-312457D01*
X2362Y-312607D01*
X1575Y-312764D01*
X787Y-312607D01*
X0Y-312764D01*
X-787Y-312607D01*
X-1709Y-312791D01*
X-2125Y-313068D01*
X-2575Y-312768D01*
X-2513Y-312457D01*
X-2669Y-311669D01*
X-2513Y-310882D01*
X-2669Y-310094D01*
X-2513Y-309307D01*
X-2669Y-308520D01*
X-2513Y-307732D01*
X-2575Y-307421D01*
X-2125Y-307121D01*
X-1709Y-307398D01*
D02*
G37*
G36*
X-15000Y-308996D02*
X-9352D01*
X-8923Y-309294D01*
X-8878Y-309439D01*
X-8748Y-310094D01*
X-8905Y-310882D01*
X-8748Y-311669D01*
X-8905Y-312457D01*
X-8721Y-313378D01*
X-8199Y-314160D01*
X-7418Y-314682D01*
X-6496Y-314865D01*
X-6469D01*
X-6346Y-315016D01*
Y-316590D01*
X-6162Y-317512D01*
X-5640Y-318294D01*
X-4859Y-318816D01*
X-3937Y-318999D01*
X-3015Y-318816D01*
X-2362Y-318379D01*
X-1709Y-318816D01*
X-1621Y-318833D01*
Y-321176D01*
X-1792Y-321347D01*
X-2495Y-321439D01*
X-3262Y-321757D01*
X-3920Y-322262D01*
X-4424Y-322920D01*
X-4569Y-323270D01*
X-5048Y-323415D01*
X-5122Y-323365D01*
X-6044Y-323182D01*
X-8327D01*
X-9248Y-323365D01*
X-10030Y-323887D01*
X-11327Y-325185D01*
X-11789Y-324994D01*
Y-317854D01*
X-11877Y-317186D01*
X-12135Y-316564D01*
X-12545Y-316029D01*
X-14250Y-314325D01*
Y-313612D01*
X-14200Y-313238D01*
X-14250Y-312864D01*
Y-312598D01*
X-14337Y-311930D01*
X-14595Y-311308D01*
X-15006Y-310773D01*
X-16683Y-309096D01*
X-16650Y-308597D01*
X-16454Y-308447D01*
X-16428Y-308412D01*
X-15000D01*
Y-308996D01*
D02*
G37*
G36*
X265323Y-316611D02*
X265237Y-316682D01*
X234323D01*
Y-308406D01*
X265323D01*
Y-316611D01*
D02*
G37*
G36*
X226715Y-321063D02*
X234291Y-328821D01*
X246402Y-328821D01*
Y-338821D01*
X242744D01*
Y-338478D01*
X232902D01*
Y-341005D01*
X227854Y-346161D01*
Y-346358D01*
X220079D01*
X219937Y-346217D01*
Y-321522D01*
X220437Y-321063D01*
X226715Y-321063D01*
D02*
G37*
G36*
X265237Y-328689D02*
X248382D01*
X248256Y-328053D01*
X247821Y-327401D01*
X247170Y-326966D01*
X246402Y-326814D01*
X235136Y-326814D01*
X234237Y-325893D01*
Y-318689D01*
X265237D01*
Y-328689D01*
D02*
G37*
G36*
X-230561Y-453144D02*
X-264766Y-453144D01*
X-264766Y-440984D01*
X-230561D01*
X-230561Y-453144D01*
D02*
G37*
G36*
X-231362Y-433175D02*
X-230472D01*
Y-438904D01*
X-230561Y-438977D01*
X-264677D01*
Y-430400D01*
X-231362D01*
Y-433175D01*
D02*
G37*
G36*
X-217224Y-438721D02*
X-217578Y-439074D01*
X-226020Y-439056D01*
X-228465Y-434555D01*
Y-433175D01*
X-228618Y-432407D01*
X-229053Y-431756D01*
X-229355Y-431554D01*
Y-430400D01*
X-229508Y-429631D01*
X-229943Y-428980D01*
X-230594Y-428545D01*
X-231362Y-428392D01*
X-244677D01*
Y-420400D01*
X-230636Y-420400D01*
X-230585Y-420321D01*
X-229756D01*
Y-419031D01*
X-226020Y-413221D01*
X-217224D01*
X-217224Y-438721D01*
D02*
G37*
G36*
X65135Y-434927D02*
Y-448773D01*
X64119D01*
Y-452317D01*
X59772D01*
Y-454924D01*
X59272Y-454957D01*
X59176Y-454233D01*
X58726Y-453146D01*
X58010Y-452212D01*
X58000Y-452205D01*
Y-433813D01*
X58366Y-433492D01*
X59188Y-433384D01*
X59955Y-433066D01*
X60176Y-432896D01*
X63104D01*
X65135Y-434927D01*
D02*
G37*
G36*
X32473Y-454809D02*
X40323D01*
X40323Y-455990D01*
X32473D01*
Y-458399D01*
X27106Y-458399D01*
Y-457073D01*
X26823D01*
X26823Y-453726D01*
X27106D01*
Y-452399D01*
X32473Y-452399D01*
Y-454809D01*
D02*
G37*
G36*
X203491Y-486898D02*
X206693Y-490176D01*
X206693Y-514272D01*
X202461Y-518504D01*
X193021Y-518504D01*
X192674Y-518156D01*
X134975Y-575002D01*
X43086Y-575002D01*
X43086Y-544629D01*
X43440Y-544277D01*
X53578Y-544316D01*
X57586Y-539520D01*
X57586Y-521925D01*
X62028Y-517483D01*
X76862Y-517483D01*
X81086Y-523050D01*
Y-539626D01*
X81318Y-539857D01*
X81413Y-540339D01*
X81849Y-540990D01*
X85289Y-544431D01*
X85940Y-544866D01*
X86708Y-545019D01*
X111460Y-545019D01*
X111655Y-544980D01*
X111854Y-544980D01*
X112035Y-544905D01*
X112228Y-544866D01*
X112394Y-544756D01*
X112577Y-544679D01*
X112708Y-544548D01*
X124830Y-544596D01*
X153810Y-517155D01*
X172453Y-498512D01*
X172453Y-490146D01*
X175701Y-486898D01*
X203491Y-486898D01*
D02*
G37*
G36*
X33823Y-435399D02*
X5323D01*
Y-440400D01*
X-40177Y-440400D01*
Y-436900D01*
X-44269D01*
X-44323Y-436631D01*
X-44758Y-435980D01*
X-45409Y-435545D01*
X-46177Y-435393D01*
X-61177Y-435393D01*
Y-428099D01*
X-60870Y-427726D01*
X-47484D01*
Y-427399D01*
X-40177D01*
Y-423399D01*
X33823Y-423399D01*
Y-435399D01*
D02*
G37*
G36*
X12539Y-453726D02*
X12823D01*
X12823Y-457073D01*
X12539D01*
Y-461900D01*
X-9177D01*
X-9177Y-451899D01*
X12539D01*
Y-453726D01*
D02*
G37*
G36*
X-196732Y-413221D02*
X-196731Y-438623D01*
X-197085Y-438976D01*
X-212618D01*
X-212618Y-413221D01*
X-196732Y-413221D01*
D02*
G37*
G36*
X-245031Y-261168D02*
X-244596Y-261819D01*
X-243945Y-262254D01*
X-243177Y-262406D01*
X-231156Y-262406D01*
X-230472Y-263114D01*
Y-269391D01*
X-264677D01*
Y-260400D01*
X-245184D01*
X-245031Y-261168D01*
D02*
G37*
G36*
X226711Y-250787D02*
X232194Y-256816D01*
Y-257899D01*
X232347Y-258667D01*
X232782Y-259319D01*
X233433Y-259754D01*
X234201Y-259907D01*
X245244Y-259907D01*
Y-269321D01*
X242744D01*
Y-268478D01*
X232902D01*
Y-271060D01*
X225242Y-278346D01*
X215551Y-278346D01*
Y-269514D01*
X215744Y-269321D01*
X215744Y-251009D01*
X216164Y-250595D01*
X226711Y-250787D01*
D02*
G37*
G36*
X-230472Y-281398D02*
X-264677D01*
Y-271398D01*
X-230472D01*
Y-281398D01*
D02*
G37*
G36*
X-196427Y-244291D02*
X-196427Y-268399D01*
X-210927Y-268399D01*
X-210927Y-244291D01*
X-196427Y-244291D01*
D02*
G37*
G36*
X265463Y-246416D02*
X234463Y-246416D01*
Y-237479D01*
X265463D01*
Y-246416D01*
D02*
G37*
G36*
X-107177Y-90399D02*
X-103177Y-94399D01*
X-103177Y-161399D01*
X-115124Y-173346D01*
X-150124Y-173346D01*
X-159685Y-182907D01*
X-159685Y-325399D01*
X-159685Y-450399D01*
X-154685Y-455399D01*
X-62177D01*
Y-437400D01*
X-46177Y-437400D01*
X-46177Y-455400D01*
X-34677Y-466899D01*
X-34677Y-493399D01*
X-33282Y-494685D01*
X20315Y-494685D01*
X20315Y-476619D01*
X13323D01*
X13323Y-463743D01*
X13959Y-463319D01*
X14394Y-462668D01*
X14547Y-461900D01*
Y-458036D01*
X14677Y-457841D01*
X14815Y-457150D01*
X24831D01*
X24969Y-457841D01*
X25099Y-458036D01*
Y-458399D01*
X25252Y-459167D01*
X25687Y-459819D01*
X26338Y-460254D01*
X27106Y-460406D01*
X32473Y-460406D01*
X33241Y-460254D01*
X33892Y-459819D01*
X34327Y-459167D01*
X34450Y-458549D01*
X40323D01*
X40323Y-476619D01*
X35315D01*
X35315Y-494685D01*
X101133Y-494685D01*
X120121Y-475697D01*
X120326Y-363897D01*
X131817Y-352405D01*
X155315Y-352398D01*
X155315Y-208548D01*
X166874Y-195083D01*
X222323D01*
X225323Y-198083D01*
X225323Y-211899D01*
X223323Y-213900D01*
X194799Y-213900D01*
X194799Y-240549D01*
X194173D01*
Y-248423D01*
X194799D01*
X194799Y-295399D01*
X194799Y-308549D01*
X194173D01*
Y-316423D01*
X194799D01*
X194799Y-351399D01*
X199177Y-355399D01*
X215321Y-355399D01*
X215324Y-383356D01*
X216868Y-384899D01*
X224323Y-384899D01*
X225323Y-385899D01*
X225323Y-394399D01*
X223823Y-395899D01*
X202868Y-395899D01*
X199177Y-392209D01*
X199177Y-373900D01*
X197323Y-372399D01*
X151825Y-372398D01*
X146323Y-377900D01*
X146323Y-492906D01*
X114823Y-524512D01*
X114823Y-537968D01*
X111460Y-543012D01*
X86708Y-543012D01*
X83268Y-539571D01*
X83268Y-522605D01*
X77858Y-515476D01*
X61197Y-515476D01*
X52272Y-524402D01*
X-54177Y-524512D01*
X-54184Y-524400D01*
X-59684Y-518899D01*
X-59682Y-487899D01*
X-64677Y-482900D01*
Y-482407D01*
X-169852Y-482407D01*
X-199685Y-482407D01*
X-208677Y-482407D01*
X-211323Y-480000D01*
X-211324Y-468000D01*
X-208677Y-465354D01*
X-196677D01*
X-194723Y-463400D01*
X-194723Y-451603D01*
X-194370Y-451250D01*
X-194027D01*
Y-443376D01*
X-194724D01*
X-194727Y-382103D01*
X-194373Y-381750D01*
X-194027D01*
Y-373876D01*
X-194727D01*
X-194730Y-317400D01*
X-194677Y-317400D01*
X-196677Y-315400D01*
X-222677Y-315399D01*
X-224685Y-313400D01*
X-224685Y-299399D01*
X-222177Y-296922D01*
X-197029Y-296923D01*
X-194506Y-294399D01*
X-194537Y-280190D01*
X-194184Y-279837D01*
X-193787D01*
Y-271962D01*
X-194555D01*
X-194561Y-269110D01*
X-194420Y-268399D01*
X-194420Y-244291D01*
X-194573Y-243523D01*
X-194618Y-243456D01*
X-194677Y-216319D01*
X-196677Y-213899D01*
X-217677Y-213899D01*
X-219936Y-211641D01*
X-219936Y-199658D01*
X-217677Y-197399D01*
X-196177D01*
X-194289Y-195399D01*
X-194277Y-179991D01*
X-164685Y-150399D01*
X-134133Y-150399D01*
X-125677Y-142035D01*
X-125677Y-94399D01*
X-121677Y-90399D01*
X-107177Y-90399D01*
D02*
G37*
G36*
X-214272Y-266535D02*
X-224373Y-266535D01*
X-230305Y-260400D01*
X-243177Y-260400D01*
Y-250399D01*
X-230714Y-250399D01*
X-224508Y-244193D01*
X-214272Y-244193D01*
X-214272Y-266535D01*
D02*
G37*
G36*
X265748Y-257899D02*
X234201Y-257899D01*
X234201Y-248423D01*
X265748Y-248423D01*
X265748Y-257899D01*
D02*
G37*
G36*
X213176Y-277894D02*
X212823Y-278248D01*
X197732Y-278248D01*
X197732Y-250457D01*
X202772D01*
Y-250525D01*
X208874D01*
Y-250457D01*
X213176D01*
X213176Y-277894D01*
D02*
G37*
G36*
X-230508Y-368898D02*
X-261508Y-368899D01*
X-262000Y-368446D01*
X-262008Y-368409D01*
Y-361358D01*
X-230508D01*
Y-368898D01*
D02*
G37*
G36*
X-215840Y-343400D02*
X-215748Y-343438D01*
X-215748Y-368110D01*
X-225295D01*
X-228501Y-363460D01*
Y-361358D01*
X-228654Y-360590D01*
X-229089Y-359939D01*
X-229740Y-359504D01*
X-230508Y-359351D01*
X-242177D01*
Y-350399D01*
X-231004D01*
X-230938Y-350321D01*
X-229756D01*
Y-348900D01*
X-225177Y-343399D01*
X-215840Y-343400D01*
D02*
G37*
G36*
X-196735Y-369430D02*
X-197088Y-369783D01*
X-211677D01*
X-211677Y-343681D01*
X-196736D01*
X-196735Y-369430D01*
D02*
G37*
G36*
X-230410Y-380906D02*
X-261910D01*
X-261910Y-370905D01*
X-230410Y-370905D01*
Y-380906D01*
D02*
G37*
G36*
X214823Y-346555D02*
X198677Y-346555D01*
X198323Y-346202D01*
X198323Y-327618D01*
Y-320618D01*
X214823D01*
X214823Y-346555D01*
D02*
G37*
G36*
X-118913Y-527056D02*
X-117953Y-527247D01*
X-116993Y-527056D01*
X-116968Y-527040D01*
X-116944Y-527056D01*
X-115984Y-527247D01*
X-115024Y-527056D01*
X-115000Y-527040D01*
X-114976Y-527056D01*
X-114549Y-527141D01*
X-114463Y-527568D01*
X-113920Y-528382D01*
Y-528771D01*
X-114463Y-529585D01*
X-114654Y-530545D01*
X-114463Y-531505D01*
X-114447Y-531529D01*
X-114463Y-531554D01*
X-114549Y-531981D01*
X-114976Y-532066D01*
X-115000Y-532082D01*
X-115024Y-532066D01*
X-115984Y-531875D01*
X-116944Y-532066D01*
X-116968Y-532082D01*
X-116993Y-532066D01*
X-117953Y-531875D01*
X-118913Y-532066D01*
X-118937Y-532082D01*
X-118961Y-532066D01*
X-119388Y-531981D01*
X-119473Y-531554D01*
X-119490Y-531529D01*
X-119473Y-531505D01*
X-119282Y-530545D01*
X-119473Y-529585D01*
X-120017Y-528771D01*
Y-528382D01*
X-119473Y-527568D01*
X-119388Y-527141D01*
X-118961Y-527056D01*
X-118937Y-527040D01*
X-118913Y-527056D01*
D02*
G37*
G36*
X-122502Y-511463D02*
Y-522801D01*
X-123002Y-523016D01*
X-123519Y-522802D01*
X-124187Y-522714D01*
X-124508D01*
Y-522441D01*
X-130610D01*
Y-522714D01*
X-132185D01*
X-132853Y-522802D01*
X-133476Y-523060D01*
X-134010Y-523470D01*
X-136850Y-526310D01*
X-136967Y-526262D01*
X-138264Y-526091D01*
X-139561Y-526262D01*
X-140113Y-526491D01*
X-140529Y-526213D01*
Y-516199D01*
X-140113Y-515921D01*
X-139462Y-516191D01*
X-138165Y-516362D01*
X-136868Y-516191D01*
X-135660Y-515690D01*
X-134622Y-514894D01*
X-133825Y-513856D01*
X-133325Y-512647D01*
X-133154Y-511350D01*
X-133325Y-510053D01*
X-133825Y-508845D01*
X-134622Y-507807D01*
X-135660Y-507010D01*
X-136308Y-506742D01*
Y-506201D01*
X-135683Y-505942D01*
X-134645Y-505146D01*
X-133849Y-504108D01*
X-133459Y-503168D01*
X-130798D01*
X-122502Y-511463D01*
D02*
G37*
D10*
X-83169Y-562171D02*
D03*
Y-558628D02*
D03*
X-58169Y-562171D02*
D03*
Y-558628D02*
D03*
X-111760Y-559825D02*
D03*
Y-563368D02*
D03*
X-136760Y-559825D02*
D03*
Y-563368D02*
D03*
X79323Y-415309D02*
D03*
Y-411766D02*
D03*
X84323Y-411766D02*
D03*
Y-415309D02*
D03*
X62823Y-451628D02*
D03*
Y-455171D02*
D03*
X67170Y-455171D02*
D03*
Y-451628D02*
D03*
X-204677Y-273128D02*
D03*
Y-276671D02*
D03*
X-205177Y-375128D02*
D03*
Y-378671D02*
D03*
Y-444628D02*
D03*
Y-448171D02*
D03*
X-127559Y-525295D02*
D03*
Y-521752D02*
D03*
X206323Y-315671D02*
D03*
Y-312128D02*
D03*
X205823Y-247671D02*
D03*
Y-244128D02*
D03*
D11*
X-225086Y-255399D02*
D03*
X-206268D02*
D03*
X-205768Y-355399D02*
D03*
X-224587D02*
D03*
X-226086Y-425399D02*
D03*
X-207268D02*
D03*
X227232Y-264400D02*
D03*
X208414D02*
D03*
X227732Y-333899D02*
D03*
X208913D02*
D03*
D12*
X19823Y-449494D02*
D03*
Y-461305D02*
D03*
D13*
X-84677Y-425825D02*
D03*
Y-428974D02*
D03*
Y-420974D02*
D03*
Y-417825D02*
D03*
X-79677Y-341817D02*
D03*
Y-338667D02*
D03*
X84823Y-430974D02*
D03*
Y-427825D02*
D03*
Y-437974D02*
D03*
Y-434825D02*
D03*
X194323Y-381825D02*
D03*
Y-384974D02*
D03*
X-12008Y-302854D02*
D03*
Y-306004D02*
D03*
X-1476Y-293110D02*
D03*
Y-296260D02*
D03*
X4331Y-296358D02*
D03*
Y-299508D02*
D03*
D14*
X-192028Y-474705D02*
D03*
X-228642D02*
D03*
X-207870Y-306319D02*
D03*
X-244484D02*
D03*
X212516Y-389899D02*
D03*
X249130D02*
D03*
X211016Y-203555D02*
D03*
X247630D02*
D03*
X-207870Y-205399D02*
D03*
X-244484D02*
D03*
D15*
X-54177Y-423789D02*
D03*
Y-432844D02*
D03*
Y-441899D02*
D03*
D16*
X-31342Y-432844D02*
D03*
D17*
X-3177Y-456915D02*
D03*
Y-432900D02*
D03*
D18*
X16964Y-441603D02*
D03*
Y-429005D02*
D03*
X26823Y-441603D02*
D03*
Y-429005D02*
D03*
D19*
X36705Y-451659D02*
D03*
Y-455400D02*
D03*
Y-459140D02*
D03*
X46941D02*
D03*
Y-455400D02*
D03*
Y-451659D02*
D03*
D20*
X44748Y-443899D02*
D03*
X47898D02*
D03*
D21*
X-167520Y-558169D02*
D03*
X-146260D02*
D03*
D22*
X-84106Y-345852D02*
D03*
Y-349789D02*
D03*
X-79823Y-345768D02*
D03*
Y-349705D02*
D03*
D23*
X-199094Y-254900D02*
D03*
X-176260D02*
D03*
X-199094Y-355399D02*
D03*
X-176260D02*
D03*
X-200094Y-425900D02*
D03*
X-177260D02*
D03*
X201740Y-334400D02*
D03*
X178906D02*
D03*
X201240Y-264899D02*
D03*
X178406D02*
D03*
D24*
X-200677Y-265073D02*
D03*
X-193197D02*
D03*
Y-275900D02*
D03*
X-196937D02*
D03*
X-200677D02*
D03*
X-200917Y-366986D02*
D03*
X-193437D02*
D03*
Y-377813D02*
D03*
X-197177D02*
D03*
X-200917D02*
D03*
Y-436486D02*
D03*
X-193437D02*
D03*
Y-447313D02*
D03*
X-197177D02*
D03*
X-200917D02*
D03*
X201063Y-323313D02*
D03*
X193583D02*
D03*
Y-312486D02*
D03*
X197323D02*
D03*
X201063D02*
D03*
Y-255313D02*
D03*
X193583D02*
D03*
Y-244486D02*
D03*
X197323D02*
D03*
X201063D02*
D03*
D25*
X-111063Y-532514D02*
D03*
Y-530545D02*
D03*
Y-528577D02*
D03*
Y-526608D02*
D03*
X-122874D02*
D03*
Y-528577D02*
D03*
Y-530545D02*
D03*
Y-532514D02*
D03*
D26*
X-114016Y-523655D02*
D03*
X-115984D02*
D03*
X-117953D02*
D03*
X-119921D02*
D03*
Y-535466D02*
D03*
X-117953D02*
D03*
X-115984D02*
D03*
X-114016D02*
D03*
D27*
X-116968Y-529561D02*
D03*
D28*
X-209252Y-99508D02*
D03*
X-212795D02*
D03*
X-204921Y-126870D02*
D03*
X-208465D02*
D03*
X-181004Y-105118D02*
D03*
X-184547D02*
D03*
X-185335Y-77658D02*
D03*
X-188878D02*
D03*
X185531Y-78051D02*
D03*
X189075D02*
D03*
X209252Y-99606D02*
D03*
X212795D02*
D03*
X181004Y-105315D02*
D03*
X184547D02*
D03*
X205020Y-126969D02*
D03*
X208563D02*
D03*
D29*
X0Y-310094D02*
D03*
D30*
X3937Y-315803D02*
D03*
X2362D02*
D03*
X787D02*
D03*
X-787D02*
D03*
X-2362D02*
D03*
X-3937D02*
D03*
Y-304386D02*
D03*
X-2362D02*
D03*
X-787D02*
D03*
X787D02*
D03*
X2362D02*
D03*
X3937D02*
D03*
D31*
X-5709Y-314032D02*
D03*
Y-312457D02*
D03*
Y-310882D02*
D03*
Y-309307D02*
D03*
Y-307732D02*
D03*
Y-306157D02*
D03*
X5709D02*
D03*
Y-307732D02*
D03*
Y-309307D02*
D03*
Y-310882D02*
D03*
Y-312457D02*
D03*
Y-314032D02*
D03*
D32*
X235138Y-152756D02*
D03*
Y-142913D02*
D03*
Y-133071D02*
D03*
X212697Y-152756D02*
D03*
Y-142913D02*
D03*
Y-133071D02*
D03*
D33*
X-136760Y-576596D02*
Y-563368D01*
X-111760Y-576596D02*
Y-563368D01*
X-104677Y-355399D02*
X-100177Y-350900D01*
X-104677Y-345399D02*
Y-344399D01*
X-101177Y-340899D01*
X-87677D01*
X-61732Y-432844D02*
X-54177D01*
X-68783Y-425793D02*
X-61732Y-432844D01*
X-94677Y-425399D02*
X-94283Y-425793D01*
X-104677Y-425399D02*
X-100252Y-420974D01*
X85398Y-435399D02*
X95323D01*
X84823Y-434825D02*
X85398Y-435399D01*
X100323Y-430400D02*
X105323Y-435399D01*
X85398Y-430400D02*
X100323D01*
X84823Y-430974D02*
X85398Y-430400D01*
X-104677Y-425399D02*
X-94677D01*
X95323Y-435399D02*
X105323D01*
X-111760Y-559825D02*
Y-554596D01*
X37823Y-443899D02*
X44748D01*
X49563Y-451659D02*
X50823Y-450399D01*
X46941Y-451659D02*
X49563D01*
X47898Y-443899D02*
X49323D01*
X50823Y-445400D01*
Y-450399D02*
Y-445400D01*
X62823Y-455171D02*
X67170D01*
X67170Y-455171D01*
X79323Y-411766D02*
X84323D01*
X79323Y-411766D02*
X79323Y-411766D01*
X46941Y-460518D02*
Y-459140D01*
Y-460518D02*
X48323Y-461900D01*
X60323D01*
X62823Y-459400D01*
Y-455171D01*
X-100252Y-420974D02*
X-84677D01*
X-84177D01*
X-113713Y-425399D02*
X-104677D01*
X-102965Y-329534D02*
X-98830Y-325399D01*
X-94677D01*
X-127020Y-396738D02*
Y-387430D01*
X-125150Y-406482D02*
Y-403037D01*
X-117571Y-421541D02*
X-113713Y-425399D01*
X-117571Y-421541D02*
Y-388175D01*
X-117571Y-350794D02*
X-117571Y-350793D01*
X-117571Y-384542D02*
Y-350794D01*
X-129972Y-398214D02*
Y-387092D01*
Y-398214D02*
X-125150Y-403037D01*
X-129972Y-387092D02*
X-127118Y-384238D01*
X-117571Y-388175D02*
X-117029D01*
X-84106Y-345852D02*
X-83909Y-346049D01*
X-85216Y-350900D02*
X-84106Y-349789D01*
X-100177Y-350900D02*
X-85216D01*
X-79776Y-346049D02*
X-79677Y-345951D01*
X-87677Y-340899D02*
X-86957Y-341620D01*
X-79874D02*
X-79677Y-341817D01*
X-116567Y-316600D02*
Y-237289D01*
X-104677Y-225399D01*
X-121232Y-317722D02*
Y-231955D01*
X-127118Y-323608D02*
X-121232Y-317722D01*
Y-231955D02*
X-104677Y-215400D01*
X-127118Y-384238D02*
Y-323608D01*
X-142177Y-345399D02*
Y-329514D01*
X-127709Y-315045D01*
X-142177Y-365400D02*
X-140268D01*
X-132827Y-357959D01*
Y-324100D01*
X-123968Y-315242D01*
Y-226364D01*
X-113634Y-264356D02*
X-104677Y-255399D01*
X-127709Y-315045D02*
Y-234140D01*
Y-233844D01*
X-58169Y-575900D02*
Y-562171D01*
X77508Y-341718D02*
X83020Y-347230D01*
X77508Y-341718D02*
Y-227053D01*
X77705Y-226856D01*
X81642Y-391718D02*
Y-363962D01*
Y-391718D02*
X95323Y-405400D01*
X131642Y-306088D02*
Y-294376D01*
X120520Y-317211D02*
X131642Y-306088D01*
X133906Y-283352D02*
X134595Y-284041D01*
Y-310616D02*
Y-284041D01*
X-142177Y-275399D02*
Y-265400D01*
X194323Y-399399D02*
Y-384974D01*
X185323Y-390400D02*
X194323Y-399399D01*
X259323Y-353399D02*
X266158D01*
X259323Y-363400D02*
X266610D01*
X269948Y-366737D01*
Y-399897D02*
Y-366737D01*
X175323Y-439862D02*
Y-390400D01*
Y-380399D02*
X180047Y-385124D01*
X277114Y-350970D02*
Y-350774D01*
X188976Y-77559D02*
Y-68667D01*
Y-77559D02*
X189469Y-78051D01*
X-181004Y-105118D02*
X-172736D01*
X-204921Y-126870D02*
X-194980D01*
X176575Y-78051D02*
X185531D01*
X171850Y-105315D02*
X181004D01*
X200394Y-99606D02*
X209252D01*
X194882Y-126969D02*
X205020D01*
X162795Y-91240D02*
X176083Y-77953D01*
X165847Y-110728D02*
X171555Y-105020D01*
X188091Y-111909D02*
X200394Y-99606D01*
X165847Y-163484D02*
Y-110728D01*
X156201Y-167421D02*
X162795Y-160827D01*
Y-91240D01*
X171161Y-132579D02*
X176772Y-126969D01*
X194882D01*
X168307Y-118307D02*
X174705Y-111909D01*
X188091D01*
X168307Y-165551D02*
Y-118307D01*
X162549Y-171309D02*
X168307Y-165551D01*
X171161Y-168209D02*
Y-132579D01*
X158563Y-180807D02*
X158760Y-180610D01*
X171161Y-168209D01*
X186858Y-435518D02*
X194323Y-428053D01*
Y-399399D01*
X30217Y-344193D02*
X35433D01*
X115256Y-385728D02*
Y-365333D01*
X105323Y-355399D02*
X115256Y-365333D01*
X-83169Y-558628D02*
Y-553740D01*
X-58301Y-562303D02*
X-58169Y-562171D01*
X-58760Y-562303D02*
X-58301D01*
X-124187Y-525295D02*
X-122874Y-526608D01*
X266158Y-353399D02*
X272980Y-360222D01*
X272933Y-360270D02*
X272980Y-360222D01*
X272933Y-360270D02*
X273721Y-361057D01*
Y-396358D02*
Y-361057D01*
X-115984Y-523655D02*
Y-519331D01*
X78839Y-430974D02*
X84823D01*
X79323Y-411766D02*
X91490D01*
X95223Y-415499D01*
X95223D01*
X95669Y-415945D01*
X67170Y-451628D02*
X67716Y-451082D01*
X-82776Y-341620D02*
X-79874D01*
X-88484Y-395399D02*
Y-395374D01*
X-94677Y-395399D02*
X-88484D01*
X-94677Y-375399D02*
X-93411D01*
X-104677Y-266091D02*
Y-265400D01*
Y-266091D02*
X-100591Y-270177D01*
X-83957D01*
X-209252Y-99508D02*
X-199902D01*
X-185335Y-77658D02*
X-174803D01*
X162008Y-167323D02*
X165847Y-163484D01*
X-137697Y-500587D02*
X-129728D01*
X-119921Y-510394D01*
X-137673Y-540087D02*
X-130447D01*
X-122874Y-532514D01*
X-120309Y-535466D02*
X-119921D01*
X-117953Y-535466D02*
X-117953Y-535466D01*
X-117953Y-537225D02*
Y-535466D01*
X-119193Y-538465D02*
X-117953Y-537225D01*
X-115984Y-540610D02*
Y-535466D01*
X-110335Y-539961D02*
X-109928Y-539554D01*
X-114016Y-535466D02*
X-109928Y-539554D01*
X-111063Y-532514D02*
X-106628D01*
X-110335Y-541043D02*
Y-539961D01*
X-139567Y-510335D02*
X-137673D01*
X-143110Y-513878D02*
X-139567Y-510335D01*
X-143110Y-533071D02*
Y-513878D01*
X-137772Y-530087D02*
X-136976D01*
X-132185Y-525295D01*
X-127559D01*
X-127657Y-525295D02*
X-124187D01*
X-122874Y-528577D02*
X-117953D01*
X-116968Y-529561D01*
X-115984Y-528577D02*
X-111063D01*
X-116968Y-529561D02*
X-115984Y-528577D01*
X-167102Y-541756D02*
Y-540087D01*
Y-541756D02*
X-161319Y-547539D01*
X-132382D01*
X-120309Y-535466D01*
X-162728Y-530087D02*
X-160335Y-532480D01*
Y-542913D02*
Y-532480D01*
Y-542913D02*
X-158661Y-544587D01*
X-153839D01*
X-83268Y-563484D02*
X-83169Y-562171D01*
X-80441Y-552391D02*
X-80413Y-552419D01*
X-80441Y-560360D02*
X-80413Y-560332D01*
Y-552419D01*
X-84181Y-575892D02*
Y-564270D01*
X-83268Y-563484D01*
X-136760Y-553096D02*
X-133018D01*
X-136760Y-559825D02*
Y-553096D01*
X-80441Y-552391D02*
X-80020Y-551970D01*
X-58169Y-558628D02*
Y-554134D01*
X-58169Y-554134D02*
X-58169Y-554134D01*
X-57677Y-553642D01*
X-119921Y-523655D02*
Y-510394D01*
X-113386Y-523425D02*
X-99410D01*
X-111063Y-526608D02*
X-99049D01*
X-94677Y-355399D02*
X-90037Y-360039D01*
X-82087D01*
X-79776Y-357728D01*
X-84106Y-355461D02*
Y-349789D01*
X-79776Y-357728D02*
Y-349986D01*
X-111063Y-528577D02*
X-110965Y-528675D01*
X-103510D01*
X-101772Y-530413D01*
X-139862Y-536319D02*
X-132480D01*
X-143110Y-533071D02*
X-139862Y-536319D01*
X-132480D02*
X-126707Y-530545D01*
X-122874D01*
X-167102Y-530087D02*
X-162728D01*
X-119193Y-539272D02*
Y-538465D01*
X-76772Y-380217D02*
X-67754D01*
X-68307D02*
X-68209Y-380315D01*
X248917Y-435335D02*
X266667D01*
X278295Y-360813D02*
Y-352151D01*
X277114Y-350970D02*
X278295Y-352151D01*
X285925Y-393251D02*
Y-390805D01*
X284646Y-394530D02*
X285925Y-393251D01*
X266667Y-435335D02*
X281594Y-420407D01*
Y-394825D01*
X287894Y-394066D02*
Y-389989D01*
X287106Y-394853D02*
X287894Y-394066D01*
X249815Y-443230D02*
X266415D01*
X287106Y-422539D01*
Y-394853D01*
X249508Y-439665D02*
X265650D01*
X284646Y-420669D01*
Y-394530D01*
X180047Y-438779D02*
Y-385124D01*
X121161Y-217618D02*
Y-216929D01*
X100270Y-340453D02*
X107480D01*
X95323Y-345399D02*
X100270Y-340453D01*
X-41479Y-341001D02*
X-41184D01*
X-45571Y-341831D02*
Y-341535D01*
X-79677Y-338667D02*
Y-334894D01*
X-76968Y-332982D02*
X-76823Y-333127D01*
X-86957Y-341620D02*
X-82972D01*
X-83957Y-270177D02*
X-81693Y-272441D01*
Y-290017D02*
Y-272441D01*
Y-290017D02*
X-80020Y-291690D01*
Y-294137D02*
Y-291690D01*
X-81004Y-328937D02*
X-76968Y-332972D01*
Y-332982D02*
Y-332972D01*
X-81004Y-295121D02*
X-80020Y-294137D01*
X-82972Y-341620D02*
Y-292913D01*
X-81004Y-328937D02*
Y-295121D01*
X-44786Y-412914D02*
X-44195Y-412323D01*
Y-411592D01*
X-67754Y-380217D02*
X-51873Y-396098D01*
X-93411Y-375399D02*
X-92520Y-374508D01*
X-51873Y-412914D02*
Y-396098D01*
X-92520Y-374508D02*
X-76575D01*
X-72835Y-378248D02*
X-66938D01*
X-76575Y-374508D02*
X-72835Y-378248D01*
X-66938D02*
X-48927Y-396260D01*
X-48920Y-412323D02*
X-48329Y-412914D01*
X-48920Y-412323D02*
Y-411691D01*
X-48927Y-411684D02*
X-48920Y-411691D01*
X-48927Y-411684D02*
Y-396260D01*
X-168110Y-557972D02*
X-159744D01*
X-46654Y-409134D02*
X-44195Y-411592D01*
X-43602Y-409401D02*
Y-345711D01*
X-41242Y-412815D02*
Y-411761D01*
X-43602Y-409401D02*
X-41242Y-411761D01*
X-46654Y-409134D02*
Y-342913D01*
X-45571Y-341831D01*
X-41634Y-341437D02*
X-41043D01*
X-41634Y-341156D02*
X-41479Y-341001D01*
X-41634Y-341437D02*
Y-341156D01*
X-43602Y-345711D02*
X-43504Y-345613D01*
Y-344249D01*
X4331Y-296358D02*
Y-292717D01*
X107480Y-340453D02*
X116240Y-331693D01*
Y-222539D01*
X121161Y-217618D01*
X45571Y-339272D02*
Y-315803D01*
X43110Y-336516D02*
Y-317773D01*
X35433Y-344193D02*
X43110Y-336516D01*
X29134Y-345276D02*
X30217Y-344193D01*
X28954Y-345095D02*
X29134Y-345276D01*
X28802Y-345095D02*
X28954D01*
X28839Y-348917D02*
X35925D01*
X45571Y-339272D01*
X-142177Y-245399D02*
X-135337D01*
X-130905Y-249831D01*
Y-306693D02*
Y-249831D01*
X-117571Y-350793D02*
Y-341586D01*
X-105518Y-329534D01*
X-102965D01*
X-121606Y-381777D02*
Y-341954D01*
X-105051Y-325399D01*
X-104677D01*
X-127020Y-387430D02*
X-124508Y-384918D01*
Y-383052D01*
X-124559Y-383000D02*
X-124508Y-383052D01*
X-124559Y-383000D02*
Y-380554D01*
X-124508Y-380503D01*
Y-345510D01*
X-124606Y-345411D02*
X-124508Y-345510D01*
X-124606Y-345411D02*
Y-324640D01*
X-116567Y-316600D01*
X-77067Y-340256D02*
X-75689Y-341634D01*
X-77067Y-340256D02*
Y-335818D01*
X-76823Y-335574D02*
Y-333127D01*
X-77067Y-335818D02*
X-76823Y-335574D01*
X-76870Y-347047D02*
X-70669Y-340846D01*
X-76870Y-354289D02*
Y-347047D01*
Y-354289D02*
X-76476Y-354682D01*
Y-361614D02*
Y-354682D01*
X-79823Y-364961D02*
X-76476Y-361614D01*
X-85630Y-364961D02*
X-79823D01*
X-88484Y-395374D02*
X-86713Y-393602D01*
Y-380610D01*
X-70669Y-340846D02*
X-70669Y-340846D01*
X-71063Y-329412D02*
X-70669Y-329806D01*
Y-340846D02*
Y-329806D01*
X-83268Y-563484D02*
X-82570Y-562713D01*
X-80441Y-560360D01*
X-80020Y-551970D02*
X-80020Y-551970D01*
X-80020Y-551970D02*
Y-546260D01*
X-63807Y-557256D02*
X-58760Y-562303D01*
X-63807Y-557256D02*
Y-546358D01*
X-43504Y-344249D02*
X-41043Y-341789D01*
Y-341437D01*
X-58071Y-552953D02*
X-56004Y-555020D01*
X-18799D01*
X-18406Y-554626D01*
X280020Y-393251D02*
X281594Y-394825D01*
X280020Y-393251D02*
Y-390805D01*
X280906Y-389919D01*
Y-363423D01*
X278295Y-360813D02*
X280906Y-363423D01*
X284449Y-389328D02*
X285925Y-390805D01*
X286417Y-388513D02*
X287894Y-389989D01*
X211811Y-142618D02*
X223130D01*
X212697Y-167224D02*
Y-152756D01*
X210728Y-169193D02*
X212697Y-167224D01*
X58563Y-427264D02*
X75128D01*
X78839Y-430974D01*
X58366Y-430315D02*
X64173D01*
X67716Y-433858D01*
Y-451082D02*
Y-433858D01*
X62823Y-451628D02*
Y-447610D01*
X276575Y-350234D02*
X277114Y-350774D01*
X270571Y-292126D02*
Y-277264D01*
Y-292126D02*
X276575Y-298130D01*
Y-350234D02*
Y-298130D01*
X294882Y-278051D02*
X295079D01*
X286417Y-388513D02*
Y-361140D01*
X285827Y-360549D02*
X286417Y-361140D01*
X284449Y-389328D02*
Y-361955D01*
X282972Y-360479D02*
X284449Y-361955D01*
X285827Y-360549D02*
Y-294783D01*
X295374Y-285236D02*
Y-278543D01*
X285827Y-294783D02*
X295374Y-285236D01*
X282972Y-360479D02*
Y-293799D01*
X292421Y-284350D01*
Y-280709D01*
X-93195Y-273917D02*
X-85138D01*
X-94677Y-275399D02*
X-93195Y-273917D01*
X-111344Y-345399D02*
X-104677D01*
X-117029Y-388175D02*
X-114567Y-385713D01*
Y-348622D01*
X-111344Y-345399D01*
X-112500Y-394685D02*
Y-351575D01*
X-110925Y-308760D02*
X-110531Y-308366D01*
X-110925Y-320079D02*
Y-308760D01*
X-113634Y-318612D02*
Y-264356D01*
X-117964Y-323608D02*
Y-322942D01*
X-113634Y-318612D01*
X-113091Y-325590D02*
X-111811D01*
X-107283Y-321063D01*
X-100341D01*
X-94677Y-315400D01*
X-113386Y-395571D02*
X-112500Y-394685D01*
Y-351575D02*
X-110138Y-349213D01*
X282319Y-220385D02*
X282494D01*
X317717Y-279232D02*
X318898Y-280413D01*
X317717Y-279232D02*
Y-256102D01*
X322835Y-276476D02*
Y-255368D01*
X312795Y-251181D02*
X317717Y-256102D01*
X312795Y-251181D02*
Y-224410D01*
X316437Y-248971D02*
X322835Y-255368D01*
X316437Y-248971D02*
Y-221260D01*
X279724Y-215354D02*
X280020Y-215650D01*
X310827D01*
X316437Y-221260D01*
X282013Y-220079D02*
X282319Y-220385D01*
X308465Y-220079D02*
X312795Y-224410D01*
X282013Y-220079D02*
X308465D01*
X120914Y-324297D02*
X134595Y-310616D01*
X42618Y-312632D02*
X43551Y-311699D01*
X42618Y-317281D02*
X43110Y-317773D01*
X42618Y-317281D02*
Y-312632D01*
X30725Y-339459D02*
X34850D01*
X29866Y-338599D02*
X30725Y-339459D01*
X29232Y-338599D02*
X29866D01*
X34850Y-339459D02*
X38583Y-335726D01*
Y-322736D01*
X37598Y-321752D02*
X38583Y-322736D01*
X-12008Y-302854D02*
Y-298228D01*
X-9744Y-295276D02*
X-6398Y-298622D01*
X-14567Y-344094D02*
X-14370Y-343898D01*
Y-317854D01*
X-16831Y-315394D02*
X-14370Y-317854D01*
X-16831Y-313189D02*
X-16781Y-313238D01*
X-16831Y-315394D02*
Y-313189D01*
X-21654Y-304978D02*
X-19924Y-303248D01*
X-14961Y-299902D02*
Y-297005D01*
X-13231Y-295276D01*
X-9744D01*
X-18307Y-303248D02*
X-14961Y-299902D01*
X-19924Y-303248D02*
X-18307D01*
X-21654Y-307776D02*
Y-304978D01*
Y-307776D02*
X-16831Y-312598D01*
Y-313189D02*
Y-312948D01*
Y-312598D01*
X-133018Y-553096D02*
X-119193Y-539272D01*
X-94283Y-425793D02*
X-68783D01*
X-83909Y-346049D02*
X-79776D01*
X-79677Y-345951D02*
Y-341817D01*
X-58169Y-554134D02*
Y-552756D01*
X32323Y-429399D02*
X40453D01*
X32823Y-427399D02*
X40748D01*
X-84744Y-291142D02*
X-82972Y-292913D01*
X-84744Y-291142D02*
X-84646Y-291043D01*
X294882Y-278051D02*
X295374Y-278543D01*
X322835Y-276476D02*
X323917Y-277559D01*
X-85197Y-290492D02*
X-84646Y-291043D01*
X-85197Y-290492D02*
Y-282185D01*
X-90158Y-277854D02*
X-85197D01*
X-92126Y-279823D02*
X-90158Y-277854D01*
X-100254Y-279823D02*
X-92126D01*
X-104677Y-275399D02*
X-100254Y-279823D01*
D34*
X-204677Y-276671D02*
X-201449D01*
X-200677Y-275900D01*
X-205177Y-378671D02*
X-201776D01*
X-200917Y-377813D01*
X-201776Y-448171D02*
X-200917Y-447313D01*
X201063Y-244486D02*
X205465D01*
X205823Y-244128D01*
X210232D01*
X201063Y-312486D02*
X205965D01*
X206323Y-312128D01*
X210516D01*
X-94677Y-265400D02*
X-82768D01*
X-188976Y-77559D02*
Y-68667D01*
Y-77559D02*
X-188878Y-77658D01*
X-184646Y-105020D02*
Y-96299D01*
Y-105020D02*
X-184547Y-105118D01*
X-212697Y-99409D02*
Y-90335D01*
X-212795Y-99508D02*
X-212697Y-99409D01*
X-208661Y-126673D02*
Y-118045D01*
Y-126673D02*
X-208465Y-126870D01*
X184646Y-105217D02*
Y-96299D01*
X184547Y-105315D02*
X184646Y-105217D01*
X212697Y-99508D02*
Y-90335D01*
Y-99508D02*
X212795Y-99606D01*
X208661Y-126870D02*
Y-118043D01*
X208563Y-126969D02*
X208661Y-126870D01*
X95323Y-355399D02*
Y-354972D01*
X98917Y-351378D01*
X116142D01*
X121653Y-356890D01*
X787Y-322173D02*
Y-315803D01*
X-11811Y-306157D02*
X-5906D01*
X4713Y-299606D02*
X9252D01*
X5906Y-314035D02*
X9055D01*
X11024Y-311909D01*
Y-301378D01*
X9252Y-299606D02*
X11024Y-301378D01*
X-17618Y-306004D02*
X-12008D01*
X-6398Y-298622D02*
X-3937Y-301083D01*
Y-304386D02*
Y-301083D01*
X2362Y-304386D02*
Y-301957D01*
X4713Y-299606D01*
X787Y-304386D02*
Y-297244D01*
X-787Y-304401D02*
Y-296555D01*
X-5413Y-296161D02*
X-2362Y-299213D01*
X-5413Y-296161D02*
Y-293012D01*
X-211742Y-378671D02*
X-205177D01*
X88254Y-385400D02*
X95323D01*
X85827Y-382972D02*
X88254Y-385400D01*
X85827Y-382972D02*
Y-371260D01*
X-79823Y-378445D02*
X-79728Y-378539D01*
Y-378642D02*
Y-378539D01*
X-5710Y-314171D02*
X-5512Y-314173D01*
X-13386Y-314075D02*
X-5710Y-314171D01*
X-2362Y-319685D02*
Y-310236D01*
Y-304724D02*
Y-299213D01*
X-79728Y-378642D02*
X-78941Y-379429D01*
X-77461Y-329975D02*
Y-300689D01*
Y-329975D02*
X-75051Y-332384D01*
X-78941Y-380688D02*
Y-379429D01*
X-77058Y-382570D02*
X-69103D01*
X-55416Y-396257D01*
X-78941Y-380688D02*
X-77058Y-382570D01*
X-55416Y-413111D02*
Y-396257D01*
X-79134Y-288287D02*
Y-269033D01*
X-82768Y-265400D02*
X-79134Y-269033D01*
X-75984Y-294291D02*
Y-291437D01*
X-79134Y-288287D02*
X-75984Y-291437D01*
X-47244Y-295177D02*
X-47047Y-294980D01*
X-47441Y-322736D02*
X-47244Y-322539D01*
Y-295177D01*
X-36909Y-366634D02*
X-36516Y-366240D01*
Y-326378D01*
X-36713Y-326181D02*
X-36516Y-326378D01*
X-210201Y-276671D02*
X-204677D01*
X-8327Y-325591D02*
X-6044D01*
X-11417Y-332874D02*
Y-328681D01*
X3937Y-324705D02*
X3937Y-324705D01*
Y-315803D01*
X-11417Y-328681D02*
X-8327Y-325591D01*
X-75051Y-334154D02*
Y-332384D01*
Y-336563D02*
X-73622Y-337992D01*
X-75051Y-336563D02*
Y-334350D01*
X280315Y-360327D02*
X282677Y-362689D01*
Y-391732D02*
X282972Y-392028D01*
X282677Y-391732D02*
Y-362689D01*
X289272Y-284350D02*
Y-283071D01*
X280315Y-293307D02*
X289272Y-284350D01*
X280315Y-360327D02*
Y-293307D01*
X320079Y-277697D02*
Y-255118D01*
X281347Y-217629D02*
X310149D01*
X279429Y-223524D02*
X279528Y-223622D01*
X279429Y-223524D02*
Y-219547D01*
X281347Y-217629D01*
X320079Y-277697D02*
X321654Y-279272D01*
X321358Y-283760D02*
X321654Y-283465D01*
Y-279272D01*
X314567Y-249606D02*
X320079Y-255118D01*
X314567Y-249606D02*
Y-222047D01*
X310149Y-217629D02*
X314567Y-222047D01*
X-1673Y-324508D02*
X-1547D01*
X-2165Y-331124D02*
X3937Y-325022D01*
X-4370Y-327264D02*
X-532D01*
X2362Y-324370D01*
X-1547Y-324508D02*
X787Y-322173D01*
X-6044Y-325591D02*
X-4370Y-327264D01*
X2362Y-324370D02*
Y-315803D01*
X3937Y-325022D02*
Y-324705D01*
D35*
X-205177Y-448171D02*
X-201776D01*
X87055Y-237132D02*
X95323Y-245399D01*
X-31693Y-466573D02*
Y-465059D01*
Y-466573D02*
X-7124Y-491142D01*
X15453D01*
X-32677Y-414665D02*
Y-413091D01*
Y-414665D02*
X-27264Y-420079D01*
X87055Y-237132D02*
Y-47591D01*
X87992Y-35663D02*
Y-35531D01*
X87055Y-47591D02*
X87992Y-46654D01*
X84646Y-39010D02*
X87992Y-35663D01*
X84646Y-66466D02*
Y-39010D01*
Y-66466D02*
X84646Y-244722D01*
X95323Y-255399D01*
X-38378Y-412016D02*
X-37697Y-412697D01*
X-38378Y-412016D02*
Y-411629D01*
X-39774Y-344695D02*
X-39272Y-344193D01*
X-39774Y-410233D02*
Y-344695D01*
Y-410233D02*
X-38378Y-411629D01*
X-27264Y-420079D02*
X-6791D01*
X-6496Y-419783D01*
X896Y-297244D02*
X1476Y-296663D01*
X5020Y-283661D02*
Y-270079D01*
X1280Y-287402D02*
X1476Y-287205D01*
X5020Y-283661D01*
X105323Y-255399D02*
X109632D01*
X112992Y-258760D01*
X111811Y-329823D02*
Y-329232D01*
X112992Y-328051D01*
Y-258760D01*
X29232Y-341339D02*
X35629D01*
X-6988Y-396654D02*
Y-328543D01*
X-7185Y-328346D02*
X-6988Y-328543D01*
X-11614Y-396850D02*
X-11417Y-396654D01*
Y-333071D01*
X8661Y-283661D02*
Y-271260D01*
X13484Y-328346D02*
Y-298721D01*
X11024Y-296260D02*
X13484Y-298721D01*
X11024Y-296260D02*
Y-292520D01*
X14665Y-296161D02*
Y-292520D01*
Y-296161D02*
X17224Y-298721D01*
Y-328346D02*
Y-298721D01*
X1476Y-296663D02*
Y-287205D01*
X7874Y-287008D02*
Y-284449D01*
X8661Y-283661D01*
X-88976Y-323920D02*
X-86024Y-326872D01*
X73721Y-480709D02*
X74114D01*
X88878Y-465945D02*
Y-444193D01*
X74114Y-480709D02*
X88878Y-465945D01*
X-212791Y-448171D02*
X-205177D01*
X-66634Y-451279D02*
X-66535Y-451378D01*
X-66732D02*
X-66634Y-451279D01*
X-127709Y-451378D02*
X-66732D01*
X-94677Y-295399D02*
X-93282D01*
X-88976Y-299705D01*
Y-323920D02*
Y-299705D01*
X40157Y-318996D02*
X40463Y-319301D01*
Y-336505D02*
Y-319301D01*
X35629Y-341339D02*
X40463Y-336505D01*
X-2165Y-395669D02*
Y-331124D01*
D36*
X62545Y-415309D02*
X79323D01*
X54823Y-423032D02*
X62545Y-415309D01*
X46941Y-455400D02*
X54823D01*
Y-423032D01*
D37*
X190492Y-501083D02*
D03*
X190492Y-472894D02*
D03*
D38*
X97866Y-524937D02*
D03*
X70307D02*
D03*
D39*
X115323Y-35399D02*
D03*
Y-45399D02*
D03*
Y-55400D02*
D03*
Y-65399D02*
D03*
Y-75400D02*
D03*
Y-85400D02*
D03*
Y-95399D02*
D03*
Y-105400D02*
D03*
Y-115400D02*
D03*
Y-125399D02*
D03*
Y-135399D02*
D03*
X-114677Y-35399D02*
D03*
Y-45399D02*
D03*
Y-55400D02*
D03*
Y-65399D02*
D03*
Y-75400D02*
D03*
Y-85400D02*
D03*
Y-95399D02*
D03*
Y-105400D02*
D03*
Y-115400D02*
D03*
Y-125399D02*
D03*
Y-135399D02*
D03*
X237823Y-263400D02*
D03*
Y-253399D02*
D03*
Y-243400D02*
D03*
Y-333400D02*
D03*
Y-323399D02*
D03*
Y-313400D02*
D03*
X145323Y-323399D02*
D03*
Y-333400D02*
D03*
Y-343400D02*
D03*
X-234677Y-355399D02*
D03*
Y-365400D02*
D03*
Y-375399D02*
D03*
X-142177Y-365400D02*
D03*
Y-355399D02*
D03*
Y-345399D02*
D03*
X-234677Y-425399D02*
D03*
Y-435399D02*
D03*
Y-445400D02*
D03*
X-142177Y-435399D02*
D03*
Y-425399D02*
D03*
Y-415400D02*
D03*
X145323Y-253399D02*
D03*
Y-263400D02*
D03*
Y-273399D02*
D03*
X-234677Y-245399D02*
D03*
Y-255399D02*
D03*
Y-265400D02*
D03*
X-142177Y-245399D02*
D03*
Y-255399D02*
D03*
Y-265400D02*
D03*
X-58071Y-586398D02*
D03*
Y-576398D02*
D03*
X-84646Y-586398D02*
D03*
Y-576398D02*
D03*
X-111909Y-586693D02*
D03*
Y-576693D02*
D03*
X-138091Y-586791D02*
D03*
Y-576791D02*
D03*
X-256677Y-275399D02*
D03*
Y-265400D02*
D03*
X155323Y-380399D02*
D03*
X165323D02*
D03*
X175323D02*
D03*
Y-390400D02*
D03*
X165323D02*
D03*
X155323D02*
D03*
X-188976Y-68667D02*
D03*
X-208661Y-118045D02*
D03*
X-212697Y-90335D02*
D03*
X-184646Y-96299D02*
D03*
X188976Y-68667D02*
D03*
X212697Y-90335D02*
D03*
X184646Y-96299D02*
D03*
X208661Y-118043D02*
D03*
D40*
X115323Y-145399D02*
D03*
X-114677D02*
D03*
X237823Y-273399D02*
D03*
Y-343400D02*
D03*
X145323Y-313400D02*
D03*
X-234677Y-345399D02*
D03*
X-142177Y-375399D02*
D03*
X-234677Y-415400D02*
D03*
X-142177Y-445400D02*
D03*
X145323Y-243400D02*
D03*
X-234677Y-275399D02*
D03*
X-142177D02*
D03*
X-188976Y-58667D02*
D03*
X-208661Y-108045D02*
D03*
X-212697Y-80335D02*
D03*
X-184646Y-86299D02*
D03*
X188976Y-58667D02*
D03*
X212697Y-80335D02*
D03*
X184646Y-86299D02*
D03*
X208661Y-108043D02*
D03*
D41*
X-104677Y-205399D02*
D03*
X-94677D02*
D03*
X-104677Y-215400D02*
D03*
X-94677D02*
D03*
X-104677Y-225399D02*
D03*
X-94677D02*
D03*
X-104677Y-235400D02*
D03*
X-94677D02*
D03*
X-104677Y-245399D02*
D03*
X-94677D02*
D03*
X-104677Y-255399D02*
D03*
X-94677D02*
D03*
X-104677Y-265400D02*
D03*
X-94677D02*
D03*
X-104677Y-275399D02*
D03*
X-94677D02*
D03*
X-104677Y-285400D02*
D03*
X-94677D02*
D03*
X-104677Y-295399D02*
D03*
X-94677D02*
D03*
X-104677Y-305399D02*
D03*
X-94677D02*
D03*
X-104677Y-315400D02*
D03*
X-94677D02*
D03*
X-104677Y-325399D02*
D03*
X-94677D02*
D03*
X-104677Y-335400D02*
D03*
X-94677D02*
D03*
X-104677Y-345399D02*
D03*
X-94677D02*
D03*
X-104677Y-355399D02*
D03*
X-94677D02*
D03*
X-104677Y-365400D02*
D03*
X-94677D02*
D03*
X-104677Y-375399D02*
D03*
X-94677D02*
D03*
X-104677Y-385400D02*
D03*
X-94677D02*
D03*
X-104677Y-395399D02*
D03*
X-94677D02*
D03*
X-104677Y-405400D02*
D03*
X-94677D02*
D03*
X-104677Y-415400D02*
D03*
X-94677D02*
D03*
X-104677Y-425399D02*
D03*
X-94677D02*
D03*
X-104677Y-435399D02*
D03*
X-94677D02*
D03*
X-104677Y-445400D02*
D03*
X95323Y-205399D02*
D03*
X105323D02*
D03*
X95323Y-215400D02*
D03*
X105323D02*
D03*
X95323Y-225399D02*
D03*
X105323D02*
D03*
X95323Y-235400D02*
D03*
X105323D02*
D03*
X95323Y-245399D02*
D03*
X105323D02*
D03*
X95323Y-255399D02*
D03*
X105323D02*
D03*
X95323Y-265400D02*
D03*
X105323D02*
D03*
X95323Y-275399D02*
D03*
X105323D02*
D03*
X95323Y-285400D02*
D03*
X105323D02*
D03*
X95323Y-295399D02*
D03*
X105323D02*
D03*
X95323Y-305399D02*
D03*
X105323D02*
D03*
X95323Y-315400D02*
D03*
X105323D02*
D03*
X95323Y-325399D02*
D03*
X105323D02*
D03*
X95323Y-335400D02*
D03*
X105323D02*
D03*
X95323Y-345399D02*
D03*
X105323D02*
D03*
X95323Y-355399D02*
D03*
X105323D02*
D03*
X95323Y-365400D02*
D03*
X105323D02*
D03*
X95323Y-375399D02*
D03*
X105323D02*
D03*
X95323Y-385400D02*
D03*
X105323D02*
D03*
X95323Y-395399D02*
D03*
X105323D02*
D03*
X95323Y-405400D02*
D03*
X105323D02*
D03*
X95323Y-415400D02*
D03*
X105323D02*
D03*
X95323Y-425399D02*
D03*
X105323D02*
D03*
X95323Y-435399D02*
D03*
X105323D02*
D03*
X95323Y-445400D02*
D03*
X259323Y-313400D02*
D03*
Y-323399D02*
D03*
Y-333400D02*
D03*
Y-343400D02*
D03*
Y-353399D02*
D03*
Y-363400D02*
D03*
Y-243400D02*
D03*
Y-253399D02*
D03*
Y-263400D02*
D03*
Y-273399D02*
D03*
Y-283400D02*
D03*
Y-293400D02*
D03*
X-254177Y-375900D02*
D03*
Y-365899D02*
D03*
Y-355900D02*
D03*
Y-345900D02*
D03*
Y-335899D02*
D03*
Y-325900D02*
D03*
X-255677Y-445400D02*
D03*
Y-435399D02*
D03*
Y-425399D02*
D03*
Y-415400D02*
D03*
Y-405400D02*
D03*
Y-395399D02*
D03*
D42*
X-94677Y-445400D02*
D03*
X105323D02*
D03*
D43*
X185323Y-380399D02*
D03*
Y-390400D02*
D03*
D44*
X-193710Y-544733D02*
D03*
X193710D02*
D03*
D45*
X-308694Y-310094D02*
D03*
X308694D02*
D03*
D46*
X-161417Y-47244D02*
D03*
X161417D02*
D03*
D47*
X-138165Y-541102D02*
D03*
X-138264Y-531102D02*
D03*
X-138067Y-521102D02*
D03*
X-138165Y-511350D02*
D03*
X-138189Y-501602D02*
D03*
X-167595Y-521102D02*
D03*
Y-541102D02*
D03*
Y-531102D02*
D03*
X-167717Y-511350D02*
D03*
X-167595Y-501602D02*
D03*
D48*
X-136760Y-553096D02*
D03*
X-111760D02*
D03*
X37823Y-443899D02*
D03*
X-27177Y-426899D02*
D03*
X-17177D02*
D03*
X-25177Y-435899D02*
D03*
X-18177Y-436400D02*
D03*
X8323Y-456899D02*
D03*
X29823Y-455899D02*
D03*
X-212256Y-448214D02*
D03*
X-125150Y-406482D02*
D03*
X-127020Y-396738D02*
D03*
X-121606Y-381777D02*
D03*
X-117571Y-388175D02*
D03*
X-117571Y-384542D02*
D03*
X83020Y-347230D02*
D03*
X81642Y-363962D02*
D03*
X77016Y-226856D02*
D03*
X-117964Y-323608D02*
D03*
X-123673Y-224986D02*
D03*
X-127709Y-234140D02*
D03*
X186858Y-435518D02*
D03*
X133906Y-283352D02*
D03*
X131642Y-294376D02*
D03*
X120421Y-317309D02*
D03*
X120815Y-324199D02*
D03*
X43551Y-311699D02*
D03*
X269948Y-399897D02*
D03*
X277114Y-350774D02*
D03*
X-209992Y-276955D02*
D03*
X210776Y-311895D02*
D03*
X-174803Y-77953D02*
D03*
X-171260Y-105020D02*
D03*
X-200295Y-99705D02*
D03*
X-194980Y-126870D02*
D03*
X176083Y-77953D02*
D03*
X171555Y-105020D02*
D03*
X200394Y-99606D02*
D03*
X194882Y-126969D02*
D03*
X155807Y-167224D02*
D03*
X162402Y-171457D02*
D03*
X158760Y-180610D02*
D03*
X162008Y-167224D02*
D03*
X180020Y-438976D02*
D03*
X175197Y-440059D02*
D03*
X115256Y-385728D02*
D03*
X121653Y-356890D02*
D03*
X-58071Y-552953D02*
D03*
X273721Y-396358D02*
D03*
X-115748Y-518799D02*
D03*
X40453Y-429823D02*
D03*
X3740Y-555807D02*
D03*
X5020Y-270079D02*
D03*
X-18701Y-306201D02*
D03*
X1280Y-287402D02*
D03*
X-82972Y-292913D02*
D03*
X-119390Y-541043D02*
D03*
X-105905Y-532776D02*
D03*
X-110335Y-541043D02*
D03*
X-115059Y-541437D02*
D03*
X-153839Y-544587D02*
D03*
X-83366Y-553642D02*
D03*
X-31693Y-465059D02*
D03*
X15453Y-491142D02*
D03*
X-211742Y-378671D02*
D03*
X85827Y-371260D02*
D03*
X-11614Y-396850D02*
D03*
X-6988Y-396654D02*
D03*
X-32677Y-413091D02*
D03*
X-1870Y-396457D02*
D03*
X-6398Y-419587D02*
D03*
X-98721Y-523032D02*
D03*
Y-526870D02*
D03*
X-84055Y-355906D02*
D03*
X-79429D02*
D03*
X-79728Y-378642D02*
D03*
X210531Y-243898D02*
D03*
X87992Y-35531D02*
D03*
Y-46654D02*
D03*
X-159547Y-557776D02*
D03*
X-76185Y-379546D02*
D03*
X248917Y-435335D02*
D03*
X249508Y-439665D02*
D03*
X249815Y-443230D02*
D03*
X282972Y-392028D02*
D03*
X121161Y-216929D02*
D03*
X-37697Y-412697D02*
D03*
X-41242Y-412815D02*
D03*
X-44786Y-412914D02*
D03*
X-48329D02*
D03*
X-51873D02*
D03*
X-55416Y-413111D02*
D03*
X-45571Y-341535D02*
D03*
X-79776Y-334350D02*
D03*
X-86713Y-326872D02*
D03*
X-77461Y-300689D02*
D03*
X-75984Y-294291D02*
D03*
X-47047Y-294980D02*
D03*
X-47441Y-322736D02*
D03*
X-41634Y-341437D02*
D03*
X-39272Y-344193D02*
D03*
X-36909Y-366634D02*
D03*
X-36713Y-326181D02*
D03*
X111811Y-329823D02*
D03*
X45571Y-315803D02*
D03*
X40157Y-318996D02*
D03*
X-2264Y-344094D02*
D03*
X-7185Y-328346D02*
D03*
X13484D02*
D03*
X17224D02*
D03*
X8661Y-271260D02*
D03*
X11024Y-292520D02*
D03*
X14665D02*
D03*
X7874Y-287008D02*
D03*
X4528Y-292632D02*
D03*
X28643Y-341552D02*
D03*
X28802Y-345095D02*
D03*
X28839Y-348917D02*
D03*
X-131595Y-307579D02*
D03*
X-110531Y-308366D02*
D03*
X-75689Y-341634D02*
D03*
X-73622Y-337992D02*
D03*
X-86713Y-379823D02*
D03*
X-86811Y-365453D02*
D03*
X-71063Y-329412D02*
D03*
X-63878Y-546260D02*
D03*
X-80020D02*
D03*
X-18406Y-554626D02*
D03*
X321358Y-283760D02*
D03*
X223130Y-142618D02*
D03*
X210728Y-169193D02*
D03*
X73721Y-480709D02*
D03*
X58366Y-430315D02*
D03*
X58563Y-427264D02*
D03*
X40453Y-427165D02*
D03*
X72047Y-422047D02*
D03*
X62500Y-447736D02*
D03*
X88878Y-444193D02*
D03*
X-80512Y-442126D02*
D03*
X-66535Y-451378D02*
D03*
X-127709D02*
D03*
X270571Y-277264D02*
D03*
X295079Y-278051D02*
D03*
X292421Y-280709D02*
D03*
X289272Y-283071D02*
D03*
X279724Y-215354D02*
D03*
X-85138Y-273917D02*
D03*
X-110925Y-320079D02*
D03*
X-113091Y-325590D02*
D03*
X-113386Y-395571D02*
D03*
X-109941Y-349410D02*
D03*
X318898Y-280413D02*
D03*
X282494Y-220385D02*
D03*
X279528Y-223622D02*
D03*
X323441Y-277080D02*
D03*
X37598Y-321752D02*
D03*
X28643Y-337894D02*
D03*
X-12008Y-298228D02*
D03*
X-13878Y-314171D02*
D03*
X-14567Y-344094D02*
D03*
X-10925Y-329134D02*
D03*
X-2264Y-320079D02*
D03*
X-1673Y-324508D02*
D03*
X-85197Y-277854D02*
D03*
Y-282185D02*
D03*
X271555Y-301772D02*
D03*
X268701Y-230906D02*
D03*
D49*
X54823Y-455400D02*
D03*
X31791Y-467506D02*
D03*
X29921Y-537894D02*
D03*
X37402Y-538161D02*
D03*
D50*
X-303177Y-427750D02*
D03*
Y-364758D02*
D03*
X-318925Y-333262D02*
D03*
X-303177Y-238773D02*
D03*
X-271681Y-427750D02*
D03*
X-287429Y-396254D02*
D03*
X-271681Y-364758D02*
D03*
Y-301766D02*
D03*
Y-238773D02*
D03*
Y-175781D02*
D03*
X-255933Y-459246D02*
D03*
Y-207277D02*
D03*
Y-144285D02*
D03*
X-224437Y-459246D02*
D03*
Y-333262D02*
D03*
Y-270270D02*
D03*
X-208689Y-238773D02*
D03*
X-224437Y-207277D02*
D03*
Y-81293D02*
D03*
X-177193Y-553734D02*
D03*
Y-490742D02*
D03*
X-192941Y-144285D02*
D03*
X-177193Y-49797D02*
D03*
X-161445Y-522238D02*
D03*
X-145697Y-490742D02*
D03*
Y-301766D02*
D03*
Y-238773D02*
D03*
Y-112789D02*
D03*
Y-49797D02*
D03*
X-114201Y-490742D02*
D03*
X-129949Y-207277D02*
D03*
Y-81293D02*
D03*
X-98453Y-585230D02*
D03*
X-82705Y-490742D02*
D03*
X-98453Y-144285D02*
D03*
X-82705Y-112789D02*
D03*
X-98453Y-81293D02*
D03*
X-82705Y-49797D02*
D03*
X-66957Y-585230D02*
D03*
Y-396254D02*
D03*
Y-333262D02*
D03*
Y-207277D02*
D03*
Y-144285D02*
D03*
X-51209Y-112789D02*
D03*
X-66957Y-81293D02*
D03*
X-35461Y-396254D02*
D03*
Y-270270D02*
D03*
Y-207277D02*
D03*
X-19713Y-175781D02*
D03*
X-35461Y-144285D02*
D03*
X-19713Y-112789D02*
D03*
Y-49797D02*
D03*
X11784Y-364758D02*
D03*
X-3965Y-270270D02*
D03*
X11784Y-175781D02*
D03*
Y-112789D02*
D03*
X27531Y-585230D02*
D03*
Y-270270D02*
D03*
Y-207277D02*
D03*
Y-144285D02*
D03*
Y-81293D02*
D03*
X43279Y-49797D02*
D03*
X74776Y-490742D02*
D03*
X59028Y-396254D02*
D03*
Y-270270D02*
D03*
X74776Y-112789D02*
D03*
X59028Y-81293D02*
D03*
X106272Y-112789D02*
D03*
Y-49797D02*
D03*
X122020Y-585230D02*
D03*
Y-144285D02*
D03*
X137768Y-112789D02*
D03*
X122020Y-81293D02*
D03*
X153516Y-585230D02*
D03*
Y-459246D02*
D03*
Y-144285D02*
D03*
X200760Y-301766D02*
D03*
Y-238773D02*
D03*
Y-112789D02*
D03*
Y-49797D02*
D03*
X216508Y-522238D02*
D03*
X232256Y-427750D02*
D03*
Y-364758D02*
D03*
Y-175781D02*
D03*
Y-112789D02*
D03*
X248004Y-522238D02*
D03*
X263752Y-427750D02*
D03*
Y-301766D02*
D03*
X295248Y-238773D02*
D03*
X326744Y-301766D02*
D03*
X310996Y-207277D02*
D03*
X90162Y-270683D02*
D03*
X200760Y-175781D02*
D03*
X-318925Y-270270D02*
D03*
X-271681Y-490742D02*
D03*
X-287429Y-459246D02*
D03*
Y-333262D02*
D03*
Y-270270D02*
D03*
Y-207277D02*
D03*
X-240185Y-490742D02*
D03*
Y-238773D02*
D03*
Y-175781D02*
D03*
Y-112789D02*
D03*
X-208689Y-553734D02*
D03*
X-224437Y-522238D02*
D03*
X-208689Y-490742D02*
D03*
Y-175781D02*
D03*
X-224437Y-144285D02*
D03*
X-192941Y-522238D02*
D03*
X-161445Y-585230D02*
D03*
Y-144285D02*
D03*
X-129949Y-585230D02*
D03*
X-82705Y-175781D02*
D03*
X-66957Y-270270D02*
D03*
X-51209Y-175781D02*
D03*
Y-49797D02*
D03*
X-35461Y-81293D02*
D03*
X-3965Y-207277D02*
D03*
Y-144285D02*
D03*
Y-81293D02*
D03*
X11784Y-49797D02*
D03*
X27531Y-396254D02*
D03*
X43279Y-364758D02*
D03*
X27531Y-333262D02*
D03*
X43279Y-301766D02*
D03*
Y-175781D02*
D03*
Y-112789D02*
D03*
X59028Y-585230D02*
D03*
X74776Y-364758D02*
D03*
X59028Y-333262D02*
D03*
Y-207277D02*
D03*
X74776Y-175781D02*
D03*
X59028Y-144285D02*
D03*
X74776Y-49797D02*
D03*
X90524Y-585230D02*
D03*
X106272Y-175781D02*
D03*
X137768Y-238773D02*
D03*
X169264Y-553734D02*
D03*
Y-427750D02*
D03*
X200760Y-553734D02*
D03*
X185012Y-459246D02*
D03*
X200760Y-427750D02*
D03*
X185012Y-144285D02*
D03*
X232256Y-490742D02*
D03*
X216508Y-459246D02*
D03*
X232256Y-301766D02*
D03*
X263752Y-490742D02*
D03*
X248004Y-459246D02*
D03*
X263752Y-175781D02*
D03*
X248004Y-144285D02*
D03*
X279500Y-459246D02*
D03*
X295248Y-427750D02*
D03*
Y-364758D02*
D03*
X279500Y-270270D02*
D03*
Y-207277D02*
D03*
X295248Y-175781D02*
D03*
X279500Y-144285D02*
D03*
X310996Y-396254D02*
D03*
Y-333262D02*
D03*
Y-270270D02*
D03*
M02*
