M48
;Layer_Color=9474304
;FILE_FORMAT=2:5
INCH,LZ
;TYPE=PLATED
T1F00S00C0.01181
T2F00S00C0.02362
T3F00S00C0.02800
T4F00S00C0.03000
T5F00S00C0.03150
T6F00S00C0.03543
T7F00S00C0.03937
T8F00S00C0.05906
T9F00S00C0.11811
T10F00S00C0.12598
T11F00S00C0.18189
T12F00S00C0.31822
%
T01
X-0212256Y-0448214
X-0127709Y-0451378
X-0080512Y-0442126
X-0066535Y-0451378
X-0063878Y-054626
X-0058071Y-0552953
X-0083366Y-0553642
X-008002Y-054626
X-0110335Y-0541043
X-0115059Y-0541437
X-011939Y-0541043
X-011176Y-0553096
X-013676
X-0153839Y-0544587
X-0159547Y-0557776
X-0105905Y-0532776
X-0098721Y-052687
Y-0523032
X-0115748Y-0518799
X-0018406Y-0554626
X000374Y-0555807
X0015453Y-0491142
X0008323Y-0456899
X0029823Y-0455899
X0037823Y-0443899
X00625Y-0447736
X0088878Y-0444193
X0073721Y-0480709
X-0031693Y-0465059
X-0025177Y-0435899
X-0018177Y-04364
X0175197Y-0440059
X018002Y-0438976
X0186858Y-0435518
X0248917Y-0435335
X0249508Y-0439665
X0249815Y-044323
X0273721Y-0396358
X0282972Y-0392028
X0277114Y-0350774
X0289272Y-0283071
X0292421Y-0280709
X0295079Y-0278051
X0318898Y-0280413
X0321358Y-028376
X0323441Y-027708
X0270571Y-0277264
X0271555Y-0301772
X0210776Y-0311895
X0120421Y-0317309
X0120815Y-0324199
X0121653Y-035689
X0131642Y-0294376
X0133906Y-0283352
X0269948Y-0399897
X0115256Y-0385728
X0085827Y-037126
X0081642Y-0363962
X008302Y-034723
X0111811Y-0329823
X0045571Y-0315803
X0043551Y-0311699
X0040157Y-0318996
X0037598Y-0321752
X0028643Y-0337894
Y-0341552
X0028802Y-0345095
X0028839Y-0348917
X0017224Y-0328346
X0013484
X-0001673Y-0324508
X-0002264Y-0320079
X-0007185Y-0328346
X-0010925Y-0329134
X-0013878Y-0314171
X-0018701Y-0306201
X-0012008Y-0298228
X0004528Y-0292632
X0011024Y-029252
X0014665
X0007874Y-0287008
X000128Y-0287402
X-0002264Y-0344094
X-0014567
X-0039272Y-0344193
X-0036713Y-0326181
X-0036909Y-0366634
X-0037697Y-0412697
X-0032677Y-0413091
X-0027177Y-0426899
X-0017177
X-0006398Y-0419587
X-0006988Y-0396654
X-0011614Y-039685
X-000187Y-0396457
X0040453Y-0427165
Y-0429823
X0058366Y-0430315
X0058563Y-0427264
X0072047Y-0422047
X-0041242Y-0412815
X-0044786Y-0412914
X-0048329
X-0051873
X-0055416Y-0413111
X-0076185Y-0379546
X-0079728Y-0378642
X-0086713Y-0379823
X-0086811Y-0365453
X-0084055Y-0355906
X-0079429
X-0075689Y-0341634
X-0073622Y-0337992
X-0079776Y-033435
X-0071063Y-0329412
X-0086713Y-0326872
X-0113091Y-032559
X-0117964Y-0323608
X-0110925Y-0320079
X-0110531Y-0308366
X-0131595Y-0307579
X-0077461Y-0300689
X-0075984Y-0294291
X-0082972Y-0292913
X-0085197Y-0282185
Y-0277854
X-0047047Y-029498
X-0047441Y-0322736
X-0045571Y-0341535
X-0041634Y-0341437
X-0109941Y-034941
X-0117571Y-0384542
X-0117571Y-0388175
X-0121606Y-0381777
X-012702Y-0396738
X-012515Y-0406482
X-0113386Y-0395571
X-0211742Y-0378671
X-0209992Y-0276955
X-0127709Y-023414
X-0123673Y-0224986
X-0085138Y-0273917
X-019498Y-012687
X000502Y-0270079
X0008661Y-027126
X0077016Y-0226856
X0121161Y-0216929
X015876Y-018061
X0162402Y-0171457
X0162008Y-0167224
X0155807
X0210728Y-0169193
X022313Y-0142618
X0194882Y-0126969
X0210531Y-0243898
X0268701Y-0230906
X0279528Y-0223622
X0282494Y-0220385
X0279724Y-0215354
X0200394Y-0099606
X0171555Y-010502
X0176083Y-0077953
X0087992Y-0046654
Y-0035531
X-0174803Y-0077953
X-017126Y-010502
X-0200295Y-0099705
T02
X-0271681Y-0490742
X-0240185
X-0208689
X-0224437Y-0459246
X-0255933
X-0287429
X-0224437Y-0522238
X-0208689Y-0553734
X-0177193
X-0161445Y-0522238
X-0192941
X-0177193Y-0490742
X-0145697
X-0114201
X-0082705
X-0098453Y-058523
X-0066957
X-0129949
X-0161445
X0027531
X0059028
X0090524
X0074776Y-0490742
X0153516Y-0459246
X0185012
X0216508
X0248004
X0232256Y-0490742
X0263752
X0248004Y-0522238
X0216508
X020076Y-0553734
X0169264
X0153516Y-058523
X012202
X02795Y-0459246
X0295248Y-042775
X0310996Y-0396254
X0295248Y-0364758
X0310996Y-0333262
X0326744Y-0301766
X0263752
X0232256
X020076
X0232256Y-0364758
Y-042775
X0263752
X020076
X0169264
X0059028Y-0396254
X0027531
X0011784Y-0364758
X0043279
X0074776
X0059028Y-0333262
X0027531
X0043279Y-0301766
X-0035461Y-0396254
X-0066957
Y-0333262
X-0145697Y-0301766
X-0224437Y-0333262
X-0287429
X-0318925
X-0303177Y-0364758
X-0271681
X-0287429Y-0396254
X-0303177Y-042775
X-0271681
Y-0301766
X-0287429Y-027027
X-0318925
X-0303177Y-0238773
X-0271681
X-0240185
X-0208689
X-0224437Y-027027
Y-0207277
X-0255933
X-0287429
X-0271681Y-0175781
X-0240185
X-0208689
X-0224437Y-0144285
X-0255933
X-0192941
X-0161445
X-0098453
X-0066957
X-0082705Y-0175781
X-0051209
X-0066957Y-0207277
X-0129949
X-0145697Y-0238773
X-0066957Y-027027
X-0035461
X-0003965
X0027531
X0059028
X0090162Y-0270683
X0059028Y-0207277
X0027531
X-0003965
X-0035461
X-0019713Y-0175781
X0011784
X0043279
X0074776
X0106272
X0059028Y-0144285
X0027531
X-0003965
X-0035461
X012202
X0153516
X0185012
X020076Y-0175781
X0232256
X0263752
X0248004Y-0144285
X020076Y-0238773
X0137768
X0295248
X0310996Y-0207277
X02795
X0295248Y-0175781
X02795Y-0144285
Y-027027
X0310996
X0232256Y-0112789
X020076
X0137768
X012202Y-0081293
X020076Y-0049797
X0106272
X0074776
X0043279
X0011784
X-0019713
X-0035461Y-0081293
X-0003965
X0027531
X0059028
X0074776Y-0112789
X0106272
X0043279
X0011784
X-0019713
X-0051209
X-0082705
X-0098453Y-0081293
X-0129949
X-0145697Y-0112789
Y-0049797
X-0177193
X-0082705
X-0051209
X-0066957Y-0081293
X-0224437
X-0240185Y-0112789
T03
X0029921Y-0537894
X0037402Y-0538161
X0031791Y-0467506
X0054823Y-04554
T04
X-0167595Y-0541102
Y-0531102
Y-0521102
X-0167717Y-051135
X-0167595Y-0501602
X-0138189
X-0138165Y-051135
X-0138067Y-0521102
X-0138264Y-0531102
X-0138165Y-0541102
T05
X-0255677Y-04454
Y-0435399
X-0104677
X-0094677
Y-04454
X-0104677
X0095323
Y-0435399
X0105323
Y-04454
X0259323Y-03634
Y-0353399
Y-03434
Y-03334
Y-0323399
Y-03134
Y-02934
Y-02834
X0105323Y-02854
Y-0275399
X0095323
Y-02854
Y-0295399
X0105323
Y-0305399
X0095323
Y-03154
X0105323
Y-0325399
X0095323
Y-03354
X0105323
Y-0345399
X0095323
Y-0355399
X0105323
Y-03654
X0095323
Y-0375399
X0105323
Y-03854
X0095323
Y-0395399
X0105323
Y-04054
X0095323
Y-04154
X0105323
Y-0425399
X0095323
X-0094677
Y-04154
Y-04054
Y-0395399
Y-03854
Y-0375399
Y-03654
Y-0355399
Y-0345399
Y-03354
Y-0325399
Y-03154
Y-0305399
Y-0295399
Y-02854
Y-0275399
X-0104677
Y-02854
Y-0295399
Y-0305399
Y-03154
Y-0325399
Y-03354
Y-0345399
Y-0355399
Y-03654
Y-0375399
Y-03854
Y-0395399
Y-04054
Y-04154
Y-0425399
X-0255677
Y-04154
Y-04054
Y-0395399
X-0254177Y-03759
Y-0365899
Y-03559
Y-03459
Y-0335899
Y-03259
X-0104677Y-02654
Y-0255399
Y-0245399
Y-02354
Y-0225399
Y-02154
Y-0205399
X-0094677
Y-02154
Y-0225399
Y-02354
Y-0245399
Y-0255399
Y-02654
X0095323
Y-0255399
Y-0245399
Y-02354
Y-0225399
Y-02154
Y-0205399
X0105323
Y-02154
Y-0225399
Y-02354
Y-0245399
Y-0255399
Y-02654
X0259323Y-02634
Y-0253399
Y-02434
Y-0273399
T06
X-0234677Y-04454
Y-0435399
X-0142177
Y-04454
X-0138091Y-0576791
Y-0586791
X-0111909Y-0586693
Y-0576693
X-0084646Y-0576398
Y-0586398
X-0058071
Y-0576398
X0155323Y-03904
Y-0380399
X0165323
X0175323
X0185323
Y-03904
X0175323
X0165323
X0145323Y-03434
Y-03334
Y-0323399
Y-03134
X0237823
Y-0323399
Y-03334
Y-03434
X-0142177Y-0345399
Y-0355399
Y-03654
Y-0375399
Y-04154
Y-0425399
Y-0275399
X-0234677
X-0256677
X-0234677Y-0345399
Y-0355399
Y-03654
Y-0375399
Y-04154
Y-0425399
Y-02654
Y-0255399
Y-0245399
X-0256677Y-02654
X-0142177
Y-0255399
Y-0245399
X-0114677Y-0145399
Y-0135399
Y-0125399
X0115323
Y-0135399
Y-0145399
X0145323Y-02434
Y-0253399
Y-02634
Y-0273399
X0237823
Y-02634
Y-0253399
Y-02434
X0115323Y-01154
Y-01054
Y-0095399
Y-00854
Y-00754
Y-0065399
Y-00554
Y-0045399
Y-0035399
X-0114677
Y-0045399
Y-00554
Y-0065399
Y-00754
Y-00854
Y-0095399
Y-01054
Y-01154
T07
X0184646Y-0096299
Y-0086299
X0188976Y-0068667
Y-0058667
X0212697Y-0080335
Y-0090335
X0208661Y-0108043
Y-0118043
X-0184646Y-0096299
Y-0086299
X-0188976Y-0068667
Y-0058667
X-0212697Y-0080335
Y-0090335
X-0208661Y-0108045
Y-0118045
T08
X0070307Y-0524937
X0097866
T09
X-019371Y-0544733
X019371
T10
X0161417Y-0047244
X-0161417
T11
X0190492Y-0501083
X0190492Y-0472894
T12
X0308694Y-0310094
X-0308694
M30
