G04 Layer_Color=8421504*
%FSLAX25Y25*%
%MOIN*%
G70*
G01*
G75*
%ADD10R,0.02165X0.01772*%
%ADD11R,0.06614X0.11614*%
%ADD12R,0.10630X0.04528*%
%ADD13R,0.02047X0.02047*%
%ADD14R,0.18504X0.09055*%
%ADD15R,0.09449X0.03937*%
%ADD16R,0.09449X0.12992*%
%ADD17R,0.08661X0.06693*%
%ADD18R,0.07480X0.05315*%
%ADD19R,0.04528X0.02362*%
%ADD20R,0.02047X0.02047*%
%ADD21R,0.07874X0.06299*%
%ADD22R,0.01968X0.02362*%
%ADD23R,0.04134X0.12795*%
%ADD24R,0.02362X0.03937*%
%ADD25O,0.03150X0.00984*%
%ADD26O,0.00984X0.03150*%
%ADD27R,0.06299X0.06299*%
%ADD28R,0.01772X0.02165*%
%ADD29R,0.06693X0.06063*%
%ADD30O,0.00787X0.02362*%
%ADD31O,0.02362X0.00787*%
%ADD32O,0.10630X0.03150*%
D10*
X-83169Y-562171D02*
D03*
Y-558628D02*
D03*
X-58169Y-562171D02*
D03*
Y-558628D02*
D03*
X-111760Y-559825D02*
D03*
Y-563368D02*
D03*
X-136760Y-559825D02*
D03*
Y-563368D02*
D03*
X79323Y-415309D02*
D03*
Y-411766D02*
D03*
X84323Y-411766D02*
D03*
Y-415309D02*
D03*
X62823Y-451628D02*
D03*
Y-455171D02*
D03*
X67170Y-455171D02*
D03*
Y-451628D02*
D03*
X-204677Y-273128D02*
D03*
Y-276671D02*
D03*
X-205177Y-375128D02*
D03*
Y-378671D02*
D03*
Y-444628D02*
D03*
Y-448171D02*
D03*
X-127559Y-525295D02*
D03*
Y-521752D02*
D03*
X206323Y-315671D02*
D03*
Y-312128D02*
D03*
X205823Y-247671D02*
D03*
Y-244128D02*
D03*
D11*
X-225086Y-255399D02*
D03*
X-206268D02*
D03*
X-205768Y-355399D02*
D03*
X-224587D02*
D03*
X-226086Y-425399D02*
D03*
X-207268D02*
D03*
X227232Y-264400D02*
D03*
X208414D02*
D03*
X227732Y-333899D02*
D03*
X208913D02*
D03*
D12*
X19823Y-449494D02*
D03*
Y-461305D02*
D03*
D13*
X-84677Y-425825D02*
D03*
Y-428974D02*
D03*
Y-420974D02*
D03*
Y-417825D02*
D03*
X-79677Y-341817D02*
D03*
Y-338667D02*
D03*
X84823Y-430974D02*
D03*
Y-427825D02*
D03*
Y-437974D02*
D03*
Y-434825D02*
D03*
X194323Y-381825D02*
D03*
Y-384974D02*
D03*
X-12008Y-302854D02*
D03*
Y-306004D02*
D03*
X-1476Y-293110D02*
D03*
Y-296260D02*
D03*
X4331Y-296358D02*
D03*
Y-299508D02*
D03*
D14*
X-192028Y-474705D02*
D03*
X-228642D02*
D03*
X-207870Y-306319D02*
D03*
X-244484D02*
D03*
X212516Y-389899D02*
D03*
X249130D02*
D03*
X211016Y-203555D02*
D03*
X247630D02*
D03*
X-207870Y-205399D02*
D03*
X-244484D02*
D03*
D15*
X-54177Y-423789D02*
D03*
Y-432844D02*
D03*
Y-441899D02*
D03*
D16*
X-31342Y-432844D02*
D03*
D17*
X-3177Y-456915D02*
D03*
Y-432900D02*
D03*
D18*
X16964Y-441603D02*
D03*
Y-429005D02*
D03*
X26823Y-441603D02*
D03*
Y-429005D02*
D03*
D19*
X36705Y-451659D02*
D03*
Y-455400D02*
D03*
Y-459140D02*
D03*
X46941D02*
D03*
Y-455400D02*
D03*
Y-451659D02*
D03*
D20*
X44748Y-443899D02*
D03*
X47898D02*
D03*
D21*
X-167520Y-558169D02*
D03*
X-146260D02*
D03*
D22*
X-84106Y-345852D02*
D03*
Y-349789D02*
D03*
X-79823Y-345768D02*
D03*
Y-349705D02*
D03*
D23*
X-199094Y-254900D02*
D03*
X-176260D02*
D03*
X-199094Y-355399D02*
D03*
X-176260D02*
D03*
X-200094Y-425900D02*
D03*
X-177260D02*
D03*
X201740Y-334400D02*
D03*
X178906D02*
D03*
X201240Y-264899D02*
D03*
X178406D02*
D03*
D24*
X-200677Y-265073D02*
D03*
X-193197D02*
D03*
Y-275900D02*
D03*
X-196937D02*
D03*
X-200677D02*
D03*
X-200917Y-366986D02*
D03*
X-193437D02*
D03*
Y-377813D02*
D03*
X-197177D02*
D03*
X-200917D02*
D03*
Y-436486D02*
D03*
X-193437D02*
D03*
Y-447313D02*
D03*
X-197177D02*
D03*
X-200917D02*
D03*
X201063Y-323313D02*
D03*
X193583D02*
D03*
Y-312486D02*
D03*
X197323D02*
D03*
X201063D02*
D03*
Y-255313D02*
D03*
X193583D02*
D03*
Y-244486D02*
D03*
X197323D02*
D03*
X201063D02*
D03*
D25*
X-111063Y-532514D02*
D03*
Y-530545D02*
D03*
Y-528577D02*
D03*
Y-526608D02*
D03*
X-122874D02*
D03*
Y-528577D02*
D03*
Y-530545D02*
D03*
Y-532514D02*
D03*
D26*
X-114016Y-523655D02*
D03*
X-115984D02*
D03*
X-117953D02*
D03*
X-119921D02*
D03*
Y-535466D02*
D03*
X-117953D02*
D03*
X-115984D02*
D03*
X-114016D02*
D03*
D27*
X-116968Y-529561D02*
D03*
D28*
X-209252Y-99508D02*
D03*
X-212795D02*
D03*
X-204921Y-126870D02*
D03*
X-208465D02*
D03*
X-181004Y-105118D02*
D03*
X-184547D02*
D03*
X-185335Y-77658D02*
D03*
X-188878D02*
D03*
X185531Y-78051D02*
D03*
X189075D02*
D03*
X209252Y-99606D02*
D03*
X212795D02*
D03*
X181004Y-105315D02*
D03*
X184547D02*
D03*
X205020Y-126969D02*
D03*
X208563D02*
D03*
D29*
X0Y-310094D02*
D03*
D30*
X3937Y-315803D02*
D03*
X2362D02*
D03*
X787D02*
D03*
X-787D02*
D03*
X-2362D02*
D03*
X-3937D02*
D03*
Y-304386D02*
D03*
X-2362D02*
D03*
X-787D02*
D03*
X787D02*
D03*
X2362D02*
D03*
X3937D02*
D03*
D31*
X-5709Y-314032D02*
D03*
Y-312457D02*
D03*
Y-310882D02*
D03*
Y-309307D02*
D03*
Y-307732D02*
D03*
Y-306157D02*
D03*
X5709D02*
D03*
Y-307732D02*
D03*
Y-309307D02*
D03*
Y-310882D02*
D03*
Y-312457D02*
D03*
Y-314032D02*
D03*
D32*
X235138Y-152756D02*
D03*
Y-142913D02*
D03*
Y-133071D02*
D03*
X212697Y-152756D02*
D03*
Y-142913D02*
D03*
Y-133071D02*
D03*
M02*
