G04 Layer_Color=32896*
%FSLAX25Y25*%
%MOIN*%
G70*
G01*
G75*
%ADD56C,0.01000*%
D56*
X-38488Y-576655D02*
Y-524490D01*
X16630Y-572718D02*
Y-524490D01*
X-19787Y-579608D02*
X11709D01*
X-38488Y-524490D02*
X-18803D01*
X-8961D02*
X3835D01*
X13677D02*
X16630D01*
X-34551Y-584529D02*
X-22740D01*
X-19787Y-581577D01*
Y-579608D01*
X-93678Y-74190D02*
X-94678Y-75190D01*
X-96677D01*
X-97677Y-74190D01*
Y-73190D01*
X-96677Y-72191D01*
X-94678D01*
X-93678Y-71191D01*
Y-70192D01*
X-94678Y-69192D01*
X-96677D01*
X-97677Y-70192D01*
X-91679Y-67193D02*
Y-73190D01*
X-88680D01*
X-87680Y-72191D01*
Y-70192D01*
X-88680Y-69192D01*
X-91679D01*
X-82682D02*
X-84681D01*
X-85681Y-70192D01*
Y-72191D01*
X-84681Y-73190D01*
X-82682D01*
X-81682Y-72191D01*
Y-71191D01*
X-85681D01*
X-78683Y-73190D02*
X-76684D01*
X-75684Y-72191D01*
Y-69192D01*
X-78683D01*
X-79683Y-70192D01*
X-78683Y-71191D01*
X-75684D01*
X-69686Y-73190D02*
X-72685D01*
X-73685Y-72191D01*
Y-70192D01*
X-72685Y-69192D01*
X-69686D01*
X-67687D02*
X-65687D01*
X-66687D01*
Y-73190D01*
X-67687D01*
X-61689D02*
X-59689D01*
X-58690Y-72191D01*
Y-69192D01*
X-61689D01*
X-62688Y-70192D01*
X-61689Y-71191D01*
X-58690D01*
X-56690Y-69192D02*
X-54691D01*
X-55691D01*
Y-75190D01*
X-56690D01*
X-44694Y-74190D02*
Y-73190D01*
X-45694D01*
X-43695D01*
X-44694D01*
Y-70192D01*
X-43695Y-69192D01*
X-40696Y-75190D02*
Y-69192D01*
Y-72191D01*
X-39696Y-73190D01*
X-37696D01*
X-36697Y-72191D01*
Y-69192D01*
X-33698Y-73190D02*
X-31698D01*
X-30699Y-72191D01*
Y-69192D01*
X-33698D01*
X-34697Y-70192D01*
X-33698Y-71191D01*
X-30699D01*
X-28699Y-69192D02*
Y-73190D01*
X-25700D01*
X-24701Y-72191D01*
Y-69192D01*
X-22701D02*
Y-75190D01*
Y-71191D02*
X-19702Y-73190D01*
X-22701Y-71191D02*
X-19702Y-69192D01*
X-16703D02*
X-13704D01*
X-12705Y-70192D01*
X-13704Y-71191D01*
X-15704D01*
X-16703Y-72191D01*
X-15704Y-73190D01*
X-12705D01*
X-3708Y-74190D02*
Y-73190D01*
X-4707D01*
X-2708D01*
X-3708D01*
Y-70192D01*
X-2708Y-69192D01*
X1291D02*
X3290D01*
X4290Y-70192D01*
Y-72191D01*
X3290Y-73190D01*
X1291D01*
X291Y-72191D01*
Y-70192D01*
X1291Y-69192D01*
X6289Y-73190D02*
X7289D01*
Y-72191D01*
X6289D01*
Y-73190D01*
Y-70192D02*
X7289D01*
Y-69192D01*
X6289D01*
Y-70192D01*
X-97677Y-57595D02*
Y-63593D01*
X-94678D01*
X-93678Y-62593D01*
Y-60594D01*
X-94678Y-59594D01*
X-97677D01*
X-91679Y-61594D02*
Y-57595D01*
Y-59594D01*
X-90679Y-60594D01*
X-89680Y-61594D01*
X-88680D01*
X-84681Y-57595D02*
X-82682D01*
X-81682Y-58595D01*
Y-60594D01*
X-82682Y-61594D01*
X-84681D01*
X-85681Y-60594D01*
Y-58595D01*
X-84681Y-57595D01*
X-78683D02*
Y-62593D01*
Y-60594D01*
X-79683D01*
X-77684D01*
X-78683D01*
Y-62593D01*
X-77684Y-63593D01*
X-68686Y-57595D02*
Y-63593D01*
X-65687D01*
X-64688Y-62593D01*
Y-60594D01*
X-65687Y-59594D01*
X-68686D01*
X-61689Y-61594D02*
X-59689D01*
X-58690Y-60594D01*
Y-57595D01*
X-61689D01*
X-62688Y-58595D01*
X-61689Y-59594D01*
X-58690D01*
X-56690Y-61594D02*
Y-58595D01*
X-55691Y-57595D01*
X-52692D01*
Y-61594D01*
X-50692Y-57595D02*
X-48693D01*
X-49693D01*
Y-63593D01*
X-50692D01*
X-44694Y-57595D02*
X-42695D01*
X-41695Y-58595D01*
Y-60594D01*
X-42695Y-61594D01*
X-44694D01*
X-45694Y-60594D01*
Y-58595D01*
X-44694Y-57595D01*
X-33698D02*
Y-63593D01*
X-30699D01*
X-29699Y-62593D01*
Y-60594D01*
X-30699Y-59594D01*
X-33698D01*
X-31698D02*
X-29699Y-57595D01*
X-26700D02*
X-24701D01*
X-23701Y-58595D01*
Y-60594D01*
X-24701Y-61594D01*
X-26700D01*
X-27700Y-60594D01*
Y-58595D01*
X-26700Y-57595D01*
X-21702D02*
X-18703D01*
X-17703Y-58595D01*
X-18703Y-59594D01*
X-20702D01*
X-21702Y-60594D01*
X-20702Y-61594D01*
X-17703D01*
X-14704D02*
X-12705D01*
X-11705Y-60594D01*
Y-57595D01*
X-14704D01*
X-15704Y-58595D01*
X-14704Y-59594D01*
X-11705D01*
X-95678Y-47997D02*
X-97677Y-49997D01*
Y-51996D01*
X-95678Y-53995D01*
X-92679D02*
Y-47997D01*
X-88680D01*
X-86681D02*
Y-53995D01*
X-83682D01*
X-82682Y-52996D01*
Y-50996D01*
X-83682Y-49997D01*
X-86681D01*
X-84681D02*
X-82682Y-47997D01*
X-80683D02*
X-78683Y-49997D01*
Y-51996D01*
X-80683Y-53995D01*
X-75684Y-50996D02*
X-73685Y-52996D01*
X-71685Y-50996D01*
X-65687Y-47997D02*
X-69686D01*
X-65687Y-51996D01*
Y-52996D01*
X-66687Y-53995D01*
X-68686D01*
X-69686Y-52996D01*
X-97677Y-44398D02*
Y-38399D01*
X-94678D01*
X-93678Y-39399D01*
Y-43398D01*
X-94678Y-44398D01*
X-97677D01*
X-88680Y-38399D02*
X-90679D01*
X-91679Y-39399D01*
Y-41399D01*
X-90679Y-42398D01*
X-88680D01*
X-87680Y-41399D01*
Y-40399D01*
X-91679D01*
X-79683Y-44398D02*
Y-38399D01*
X-75684D01*
X-73685D02*
X-71685D01*
X-72685D01*
Y-42398D01*
X-73685D01*
X-68686Y-38399D02*
Y-42398D01*
X-67687D01*
X-66687Y-41399D01*
Y-38399D01*
Y-41399D01*
X-65687Y-42398D01*
X-64688Y-41399D01*
Y-38399D01*
X-61689Y-42398D02*
X-59689D01*
X-58690Y-41399D01*
Y-38399D01*
X-61689D01*
X-62688Y-39399D01*
X-61689Y-40399D01*
X-58690D01*
X-73083Y-102343D02*
X-74395Y-103655D01*
X-77019D01*
X-78331Y-102343D01*
Y-97095D01*
X-77019Y-95784D01*
X-74395D01*
X-73083Y-97095D01*
Y-99719D01*
X-75707D01*
X-70459Y-103655D02*
Y-95784D01*
Y-98407D01*
X-65212Y-103655D01*
X-69147Y-99719D01*
X-65212Y-95784D01*
X-50780Y-103655D02*
X-53404D01*
X-54716Y-102343D01*
Y-97095D01*
X-53404Y-95784D01*
X-50780D01*
X-49469Y-97095D01*
Y-102343D01*
X-50780Y-103655D01*
X-41597Y-102343D02*
X-42909Y-103655D01*
X-45533D01*
X-46845Y-102343D01*
Y-97095D01*
X-45533Y-95784D01*
X-42909D01*
X-41597Y-97095D01*
X-99689Y-115564D02*
X-97065D01*
X-98377D01*
Y-107693D01*
X-99689D01*
X-97065D01*
X-93129D02*
Y-115564D01*
X-90506Y-112941D01*
X-87882Y-115564D01*
Y-107693D01*
X-80010Y-115564D02*
X-85258D01*
Y-107693D01*
X-80010D01*
X-85258Y-111629D02*
X-82634D01*
X-77386Y-107693D02*
X-74763D01*
X-76074D01*
Y-115564D01*
X-77386Y-114252D01*
X-70827D02*
X-69515Y-115564D01*
X-66891D01*
X-65579Y-114252D01*
Y-112941D01*
X-66891Y-111629D01*
X-65579Y-110317D01*
Y-109005D01*
X-66891Y-107693D01*
X-69515D01*
X-70827Y-109005D01*
Y-110317D01*
X-69515Y-111629D01*
X-70827Y-112941D01*
Y-114252D01*
X-69515Y-111629D02*
X-66891D01*
X-55084Y-115564D02*
X-52460D01*
X-53772D01*
Y-107693D01*
X-55084D01*
X-52460D01*
X-48524D02*
Y-115564D01*
X-45901Y-112941D01*
X-43277Y-115564D01*
Y-107693D01*
X-35405Y-115564D02*
X-40653D01*
Y-107693D01*
X-35405D01*
X-40653Y-111629D02*
X-38029D01*
X-32781Y-107693D02*
X-30158D01*
X-31470D01*
Y-115564D01*
X-32781Y-114252D01*
X-26222Y-109005D02*
X-24910Y-107693D01*
X-22286D01*
X-20974Y-109005D01*
Y-114252D01*
X-22286Y-115564D01*
X-24910D01*
X-26222Y-114252D01*
Y-112941D01*
X-24910Y-111629D01*
X-20974D01*
X-249426Y-251651D02*
X-248426Y-250651D01*
X-246427D01*
X-245427Y-251651D01*
Y-255650D01*
X-246427Y-256649D01*
X-248426D01*
X-249426Y-255650D01*
X-254424Y-250651D02*
X-252425D01*
X-251425Y-251651D01*
Y-255650D01*
X-252425Y-256649D01*
X-254424D01*
X-255424Y-255650D01*
Y-251651D01*
X-254424Y-250651D01*
X-257423Y-256649D02*
Y-250651D01*
X-261422Y-256649D01*
Y-250651D01*
X-263421Y-257649D02*
X-267420D01*
X-269419Y-250651D02*
Y-256649D01*
X-272418D01*
X-273418Y-255650D01*
Y-251651D01*
X-272418Y-250651D01*
X-269419D01*
X-275417Y-256649D02*
Y-250651D01*
X-278416D01*
X-279416Y-251651D01*
Y-253650D01*
X-278416Y-254650D01*
X-275417D01*
X-277417D02*
X-279416Y-256649D01*
X-281416Y-250651D02*
X-283415D01*
X-282415D01*
Y-256649D01*
X-281416D01*
X-283415D01*
X-286414Y-250651D02*
Y-256649D01*
X-289413D01*
X-290412Y-255650D01*
Y-254650D01*
X-289413Y-253650D01*
X-286414D01*
X-289413D01*
X-290412Y-252651D01*
Y-251651D01*
X-289413Y-250651D01*
X-286414D01*
X-292412D02*
Y-256649D01*
X-296411D01*
X-302409Y-250651D02*
X-298410D01*
Y-256649D01*
X-302409D01*
X-298410Y-253650D02*
X-300409D01*
X-33403Y-516458D02*
X-34402Y-515459D01*
X-36402D01*
X-37402Y-516458D01*
Y-517458D01*
X-36402Y-518458D01*
X-34402D01*
X-33403Y-519457D01*
Y-520457D01*
X-34402Y-521457D01*
X-36402D01*
X-37402Y-520457D01*
X-31403Y-515459D02*
Y-521457D01*
X-28405D01*
X-27405Y-520457D01*
Y-516458D01*
X-28405Y-515459D01*
X-31403D01*
X-25405Y-521457D02*
X-23406D01*
X-24406D01*
Y-515459D01*
X-25405Y-516458D01*
X-94429Y-90459D02*
X-95741Y-91771D01*
X-98365D01*
X-99677Y-90459D01*
Y-89147D01*
X-98365Y-87835D01*
X-95741D01*
X-94429Y-86523D01*
Y-85211D01*
X-95741Y-83899D01*
X-98365D01*
X-99677Y-85211D01*
X-86558Y-91771D02*
X-91806D01*
Y-83899D01*
X-86558D01*
X-91806Y-87835D02*
X-89182D01*
X-83934Y-83899D02*
X-78686Y-89147D01*
X-76063Y-90459D02*
X-74751Y-91771D01*
X-72127D01*
X-70815Y-90459D01*
Y-89147D01*
X-72127Y-87835D01*
X-73439D01*
X-72127D01*
X-70815Y-86523D01*
Y-85211D01*
X-72127Y-83899D01*
X-74751D01*
X-76063Y-85211D01*
X-60320Y-91771D02*
X-57696D01*
X-59008D01*
Y-83899D01*
X-60320D01*
X-57696D01*
X-53760D02*
Y-91771D01*
X-51136Y-89147D01*
X-48513Y-91771D01*
Y-83899D01*
X-40641Y-91771D02*
X-45889D01*
Y-83899D01*
X-40641D01*
X-45889Y-87835D02*
X-43265D01*
M02*
