M48
;Layer_Color=9474304
;FILE_FORMAT=2:5
INCH,LZ
;TYPE=PLATED
T1F00S00C0.01181
T2F00S00C0.02362
T3F00S00C0.02800
T4F00S00C0.03000
T5F00S00C0.03150
T6F00S00C0.03543
T7F00S00C0.03937
T8F00S00C0.05906
T9F00S00C0.11811
T10F00S00C0.12598
T11F00S00C0.18189
T12F00S00C0.31822
%
T01
X-0227118Y0142435
X-0142571Y0139272
X-0095374Y0148524
X-0081398Y0139272
X-007874Y004439
X-0072933Y0037697
X-0098228Y0037008
X-0094882Y004439
X-0125197Y0049606
X-0129921Y0049213
X-0134252Y0049606
X-0126622Y0037553
X-0151622
X-0168701Y0046063
X-0174409Y0032874
X-0120768Y0057874
X-0113583Y0063779
Y0067618
X-013061Y007185
X-0033268Y0036024
X-0011122Y0034843
X0000591Y0099508
X-0006539Y013375
X0014961Y013475
X0022961Y014675
X0047638Y0142913
X0074016Y0146457
X0058858Y0109941
X-0046555Y0125591
X-0040039Y015475
X-0033039Y015425
X0160335Y0150591
X0165157Y0151673
X0171996Y0155132
X0234055Y0155315
X0234646Y0150984
X0234953Y0147419
X0258858Y0194291
X026811Y0198622
X0262252Y0239876
X027441Y0307579
X0277559Y0309941
X0280217Y0312598
X0304035Y0310236
X0306496Y030689
X0308579Y0313569
X0255709Y0313386
X0256693Y0288878
X0195914Y0278754
X0105559Y0273341
X0105953Y0266451
X0106791Y023376
X011678Y0296274
X0119043Y0307297
X0255085Y0190752
X0100394Y0204921
X0070965Y021939
X006678Y0226687
X0068158Y0243419
X0096949Y0260827
X0030709Y0274847
X0028689Y0278951
X0025295Y0271654
X0022736Y0268898
X0013781Y0252756
Y0249097
X001394Y0245554
X0013976Y0241732
X0002362Y0262303
X-0001378
X-0016535Y0266142
X-0017126Y0270571
X-0022047Y0262303
X-0025787Y0261516
X-002874Y0276479
X-0033563Y0284449
X-002687Y0292421
X-0010334Y0298017
X-0003839Y029813
X-0000197
X-0006988Y0303642
X-0013583Y0303248
X-0017126Y0246555
X-0029429
X-0054134Y0246457
X-0051575Y0264469
X-0051772Y0224016
X-0052559Y0177953
X-0047539Y0177559
X-0042039Y016375
X-0032039
X-002126Y0171063
X-002185Y0193996
X-0026476Y0193799
X-0016732Y0194193
X0025591Y0163484
Y0160827
X0043504Y0160335
X0043701Y0163386
X0057185Y0168602
X-0056104Y0177834
X-0059648Y0177736
X-0063191
X-0066735
X-0070278Y0177539
X-0091047Y0211104
X-0094591Y0212008
X-0101575Y0210827
X-0101673Y0225197
X-0098917Y0234744
X-0094291
X-0090551Y0249016
X-0088484Y0252658
X-0094638Y0256299
X-0085925Y0261237
X-0101575Y0263777
X-0127953Y0265059
X-0132827Y0267041
X-0125787Y0270571
X-0125394Y0282283
X-0146457Y0283071
X-0092323Y0289961
X-0090847Y0296358
X-0097835Y0297736
X-0100059Y0308465
Y0312795
X-0061909Y0295669
X-0062303Y0267913
X-0060433Y0249114
X-0056496Y0249213
X-0124803Y024124
X-0132434Y0206107
X-0132433Y0202474
X-0136468Y0208872
X-0141882Y0193912
X-0140012Y0184168
X-0128248Y0195079
X-0226604Y0211979
X-0224854Y0313695
X-0142571Y035651
X-0138535Y0365664
X-01Y0316732
X-0209842Y0463779
X-0009843Y0320571
X-0006201Y031939
X0062154Y0363793
X0106299Y0373721
X0143898Y0410039
X0147539Y0419193
X0147146Y0423425
X0140945
X0195866Y0421457
X0208268Y0448032
X018002Y0463681
X0195669Y0346752
X0253839Y0359744
X0264665Y0367028
X0267632Y0370265
X0264862Y0375295
X0185531Y0491043
X0156693Y048563
X0161221Y0512697
X007313Y0543996
Y0555118
X-0189665Y0512697
X-0186122Y048563
X-0215158Y0490945
T02
X-0223551Y0036915
X-0239299Y0068411
X-0223551Y0099908
X-0255047
X-0286543
X-0302291Y0131404
X-0270795
X-0239299
X-0192055Y0099908
X-0160559
X-0129063
X-0097567
X-0081819Y0005419
X-0113315
X-0144811
X-0176307
X-0192055Y0036915
X-0207803Y0068411
X-0176307
X0012669Y0005419
X0044165
X0075661
X0059913Y0099908
X0138654Y0131404
X017015
X0201646
X0233142
X024889Y0099908
X0217394
X0233142Y0068411
X0201646
X0185898Y0036915
X0154402
X0138654Y0005419
X0107158
X0264638Y0131404
X0280386Y01629
X0296134Y0194396
X0280386Y0225892
X0296134Y0257388
X0311882Y0288884
X024889
X0217394
X0185898
X0217394Y0225892
Y01629
X0185898
X0154402
X024889
X0044165Y0194396
X0012669
X0028417Y0225892
X0059913
X0044165Y0257388
X0012669
X0028417Y0288884
X-0003079Y0225892
X-0050323Y0194396
X-0081819
Y0257388
X-0160559Y0288884
X-0239299Y0257388
X-0302291
X-0333787
X-0318039Y0225892
X-0286543
X-0302291Y0194396
X-0286543Y01629
X-0318039
X-0286543Y0288884
X-0302291Y032038
X-0333787
X-0318039Y0351876
X-0286543
X-0255047
X-0223551
X-0239299Y0383372
X-0270795
X-0302291
X-0286543Y0414868
X-0255047
X-0223551
X-0239299Y0446364
X-0270795
X-0239299Y032038
X-0160559Y0351876
X-0144811Y0383372
X-0081819
X-0066071Y0414868
X-0097567
X-0081819Y0446364
X-0113315
X-0176307
X-0207803
X-0081819Y032038
X-0050323
X-0018827
X0012669
X0044165
X00753Y0319967
X0044165Y0383372
X0012669
X-0018827
X-0050323
X-0034575Y0414868
X-0003079
X0028417
X0059913
X0091409
X0044165Y0446364
X0012669
X-0018827
X-0050323
X0107158
X0138654
X017015
X0185898Y0414868
X0217394
X024889
X0233142Y0446364
X0185898Y0351876
X0122906
X0280386
X0296134Y032038
X0264638
Y0383372
X0296134
X0280386Y0414868
X0264638Y0446364
X0217394Y047786
X0185898
Y0540852
X0107158Y0509356
X0122906Y047786
X0091409
X0059913
X0028417
X-0003079
X-0034575
X-0018827Y0509356
X-0050323
X-0034575Y0540852
X-0003079
X0028417
X0059913
X0091409
X0044165Y0509356
X0012669
X-0081819
X-0113315
X-0144811
X-0160559Y0540852
X-0192055
X-0097567
X-0066071
Y047786
X-0097567
X-0160559
X-0255047
X-0239299Y0509356
T03
X0015059Y0052756
X0022539Y0052489
X0016929Y0123144
X0039961Y013525
T04
X-0182457Y0049547
Y0059547
Y0069547
X-0182579Y0079299
X-0182457Y0089047
X-0153051
X-0153028Y0079299
X-0152929Y0069547
X-0153126Y0059547
X-0153028Y0049547
T05
X-0270795Y0144803
Y0154803
X-0119539Y015525
Y014525
X-0109539
Y015525
X0080461
Y014525
X0090461
Y015525
X0243701Y0227539
Y0237539
Y0247539
Y0257539
Y0267539
Y0277539
X0244882Y0297362
Y0307362
X0090461Y030525
Y029525
Y028525
Y027525
Y026525
Y025525
Y024525
Y023525
Y022525
Y021525
Y020525
Y019525
Y018525
Y017525
Y016525
X0080461
Y017525
Y018525
Y019525
Y020525
Y021525
Y022525
Y023525
Y024525
Y025525
Y026525
Y027525
Y028525
Y029525
Y030525
Y031525
X0090461
X-0109539
Y030525
Y029525
Y028525
Y027525
Y026525
Y025525
Y024525
Y023525
Y022525
Y021525
Y020525
Y019525
Y018525
Y017525
Y016525
X-0119539
Y017525
Y018525
Y019525
Y020525
Y021525
Y022525
Y023525
Y024525
Y025525
Y026525
Y027525
Y028525
Y029525
Y030525
Y031525
X-0269587Y026525
Y025525
Y024525
Y023525
Y022525
Y021525
X-0270795Y0194803
Y0184803
Y0174803
Y0164803
X-0119539Y032525
X-0109539
Y033525
X-0119539
Y034525
X-0109539
Y035525
X-0119539
Y036525
X-0109539
Y037525
X-0119539
Y038525
X-0109539
X0080461
Y037525
Y036525
Y035525
Y034525
Y033525
Y032525
X0090461
Y033525
Y034525
Y035525
Y036525
Y037525
Y038525
X0244882Y0347362
Y0337362
Y0327362
Y0317362
T06
X-0249539Y014525
Y015525
X-0157039
Y014525
X-0152953Y0013858
Y0003858
X-0126772Y0003957
Y0013957
X-0099508Y0014252
Y0004252
X-0072933
Y0014252
X0140461Y020025
X0150461
X0160461
X0170461
Y021025
X0160461
X0150461
X0140461
X0130461Y024725
Y025725
Y026725
Y027725
X0222961
Y026725
Y025725
Y024725
X-0157039Y024525
Y023525
Y022525
Y021525
Y017525
Y016525
Y031525
X-0249539
X-0269882Y0315177
X-0249539Y024525
Y023525
Y022525
Y021525
Y017525
Y016525
Y032525
Y033525
Y034525
X-0269882Y0325177
X-0157039Y032525
Y033525
Y034525
X-0129539Y044525
Y045525
Y046525
X0100461
Y045525
Y044525
X0130461Y034725
Y033725
Y032725
Y031725
X0222961
Y032725
Y033725
Y034725
X0100461Y047525
Y048525
Y049525
Y050525
Y051525
Y052525
Y053525
Y054525
Y055525
X-0129539
Y054525
Y053525
Y052525
Y051525
Y050525
Y049525
Y048525
Y047525
T07
X0169783Y049435
Y050435
X0174114Y0521982
Y0531982
X0197835Y0510315
Y0500315
X0193799Y0482606
Y0472606
X-0199508Y049435
Y050435
X-0203839Y0521982
Y0531982
X-0227559Y0510315
Y0500315
X-0223524Y0482605
Y0472605
T08
X0055445Y0065713
X0083004
T09
X-0208572Y0045917
X0178848
T10
X0146555Y0543405
X-0176279
T11
X017563Y0089567
X017563Y0117756
T12
X0293832Y0280555
X-0323557
M30
