G04 Layer_Color=16711935*
%FSLAX25Y25*%
%MOIN*%
G70*
G01*
G75*
%ADD82C,0.24422*%
%ADD83C,0.09068*%
%ADD84C,0.06706*%
%ADD85R,0.06706X0.06706*%
%ADD86C,0.05525*%
%ADD87R,0.05525X0.05525*%
%ADD88R,0.06706X0.06706*%
%ADD89C,0.12611*%
%ADD90C,0.32623*%
%ADD91C,0.13398*%
%ADD92C,0.06800*%
%ADD93C,0.03162*%
%ADD94C,0.05800*%
%ADD95C,0.03950*%
%ADD96R,0.07887X0.06312*%
%ADD97R,0.06312X0.08280*%
%ADD98R,0.03950X0.06706*%
D82*
X190492Y-501083D02*
D03*
X190492Y-472894D02*
D03*
D83*
X97866Y-524937D02*
D03*
X70307D02*
D03*
D84*
X115323Y-35399D02*
D03*
Y-45399D02*
D03*
Y-55400D02*
D03*
Y-65399D02*
D03*
Y-75400D02*
D03*
Y-85400D02*
D03*
Y-95399D02*
D03*
Y-105400D02*
D03*
Y-115400D02*
D03*
Y-125399D02*
D03*
Y-135399D02*
D03*
X-114677Y-35399D02*
D03*
Y-45399D02*
D03*
Y-55400D02*
D03*
Y-65399D02*
D03*
Y-75400D02*
D03*
Y-85400D02*
D03*
Y-95399D02*
D03*
Y-105400D02*
D03*
Y-115400D02*
D03*
Y-125399D02*
D03*
Y-135399D02*
D03*
X237823Y-263400D02*
D03*
Y-253399D02*
D03*
Y-243400D02*
D03*
Y-333400D02*
D03*
Y-323399D02*
D03*
Y-313400D02*
D03*
X145323Y-323399D02*
D03*
Y-333400D02*
D03*
Y-343400D02*
D03*
X-234677Y-355399D02*
D03*
Y-365400D02*
D03*
Y-375399D02*
D03*
X-142177Y-365400D02*
D03*
Y-355399D02*
D03*
Y-345399D02*
D03*
X-234677Y-425399D02*
D03*
Y-435399D02*
D03*
Y-445400D02*
D03*
X-142177Y-435399D02*
D03*
Y-425399D02*
D03*
Y-415400D02*
D03*
X145323Y-253399D02*
D03*
Y-263400D02*
D03*
Y-273399D02*
D03*
X-234677Y-245399D02*
D03*
Y-255399D02*
D03*
Y-265400D02*
D03*
X-142177Y-245399D02*
D03*
Y-255399D02*
D03*
Y-265400D02*
D03*
X-58071Y-586398D02*
D03*
Y-576398D02*
D03*
X-84646Y-586398D02*
D03*
Y-576398D02*
D03*
X-111909Y-586693D02*
D03*
Y-576693D02*
D03*
X-138091Y-586791D02*
D03*
Y-576791D02*
D03*
X-256677Y-275399D02*
D03*
Y-265400D02*
D03*
X155323Y-380399D02*
D03*
X165323D02*
D03*
X175323D02*
D03*
Y-390400D02*
D03*
X165323D02*
D03*
X155323D02*
D03*
X-188976Y-68667D02*
D03*
X-208661Y-118045D02*
D03*
X-212697Y-90335D02*
D03*
X-184646Y-96299D02*
D03*
X188976Y-68667D02*
D03*
X212697Y-90335D02*
D03*
X184646Y-96299D02*
D03*
X208661Y-118043D02*
D03*
D85*
X115323Y-145399D02*
D03*
X-114677D02*
D03*
X237823Y-273399D02*
D03*
Y-343400D02*
D03*
X145323Y-313400D02*
D03*
X-234677Y-345399D02*
D03*
X-142177Y-375399D02*
D03*
X-234677Y-415400D02*
D03*
X-142177Y-445400D02*
D03*
X145323Y-243400D02*
D03*
X-234677Y-275399D02*
D03*
X-142177D02*
D03*
X-188976Y-58667D02*
D03*
X-208661Y-108045D02*
D03*
X-212697Y-80335D02*
D03*
X-184646Y-86299D02*
D03*
X188976Y-58667D02*
D03*
X212697Y-80335D02*
D03*
X184646Y-86299D02*
D03*
X208661Y-108043D02*
D03*
D86*
X-104677Y-205399D02*
D03*
X-94677D02*
D03*
X-104677Y-215400D02*
D03*
X-94677D02*
D03*
X-104677Y-225399D02*
D03*
X-94677D02*
D03*
X-104677Y-235400D02*
D03*
X-94677D02*
D03*
X-104677Y-245399D02*
D03*
X-94677D02*
D03*
X-104677Y-255399D02*
D03*
X-94677D02*
D03*
X-104677Y-265400D02*
D03*
X-94677D02*
D03*
X-104677Y-275399D02*
D03*
X-94677D02*
D03*
X-104677Y-285400D02*
D03*
X-94677D02*
D03*
X-104677Y-295399D02*
D03*
X-94677D02*
D03*
X-104677Y-305399D02*
D03*
X-94677D02*
D03*
X-104677Y-315400D02*
D03*
X-94677D02*
D03*
X-104677Y-325399D02*
D03*
X-94677D02*
D03*
X-104677Y-335400D02*
D03*
X-94677D02*
D03*
X-104677Y-345399D02*
D03*
X-94677D02*
D03*
X-104677Y-355399D02*
D03*
X-94677D02*
D03*
X-104677Y-365400D02*
D03*
X-94677D02*
D03*
X-104677Y-375399D02*
D03*
X-94677D02*
D03*
X-104677Y-385400D02*
D03*
X-94677D02*
D03*
X-104677Y-395399D02*
D03*
X-94677D02*
D03*
X-104677Y-405400D02*
D03*
X-94677D02*
D03*
X-104677Y-415400D02*
D03*
X-94677D02*
D03*
X-104677Y-425399D02*
D03*
X-94677D02*
D03*
X-104677Y-435399D02*
D03*
X-94677D02*
D03*
X-104677Y-445400D02*
D03*
X95323Y-205399D02*
D03*
X105323D02*
D03*
X95323Y-215400D02*
D03*
X105323D02*
D03*
X95323Y-225399D02*
D03*
X105323D02*
D03*
X95323Y-235400D02*
D03*
X105323D02*
D03*
X95323Y-245399D02*
D03*
X105323D02*
D03*
X95323Y-255399D02*
D03*
X105323D02*
D03*
X95323Y-265400D02*
D03*
X105323D02*
D03*
X95323Y-275399D02*
D03*
X105323D02*
D03*
X95323Y-285400D02*
D03*
X105323D02*
D03*
X95323Y-295399D02*
D03*
X105323D02*
D03*
X95323Y-305399D02*
D03*
X105323D02*
D03*
X95323Y-315400D02*
D03*
X105323D02*
D03*
X95323Y-325399D02*
D03*
X105323D02*
D03*
X95323Y-335400D02*
D03*
X105323D02*
D03*
X95323Y-345399D02*
D03*
X105323D02*
D03*
X95323Y-355399D02*
D03*
X105323D02*
D03*
X95323Y-365400D02*
D03*
X105323D02*
D03*
X95323Y-375399D02*
D03*
X105323D02*
D03*
X95323Y-385400D02*
D03*
X105323D02*
D03*
X95323Y-395399D02*
D03*
X105323D02*
D03*
X95323Y-405400D02*
D03*
X105323D02*
D03*
X95323Y-415400D02*
D03*
X105323D02*
D03*
X95323Y-425399D02*
D03*
X105323D02*
D03*
X95323Y-435399D02*
D03*
X105323D02*
D03*
X95323Y-445400D02*
D03*
X259323Y-313400D02*
D03*
Y-323399D02*
D03*
Y-333400D02*
D03*
Y-343400D02*
D03*
Y-353399D02*
D03*
Y-363400D02*
D03*
Y-243400D02*
D03*
Y-253399D02*
D03*
Y-263400D02*
D03*
Y-273399D02*
D03*
Y-283400D02*
D03*
Y-293400D02*
D03*
X-254177Y-375900D02*
D03*
Y-365899D02*
D03*
Y-355900D02*
D03*
Y-345900D02*
D03*
Y-335899D02*
D03*
Y-325900D02*
D03*
X-255677Y-445400D02*
D03*
Y-435399D02*
D03*
Y-425399D02*
D03*
Y-415400D02*
D03*
Y-405400D02*
D03*
Y-395399D02*
D03*
D87*
X-94677Y-445400D02*
D03*
X105323D02*
D03*
D88*
X185323Y-380399D02*
D03*
Y-390400D02*
D03*
D89*
X-193710Y-544733D02*
D03*
X193710D02*
D03*
D90*
X-308694Y-310094D02*
D03*
X308694D02*
D03*
D91*
X-161417Y-47244D02*
D03*
X161417D02*
D03*
D92*
X-138165Y-541102D02*
D03*
X-138264Y-531102D02*
D03*
X-138067Y-521102D02*
D03*
X-138165Y-511350D02*
D03*
X-138189Y-501602D02*
D03*
X-167595Y-521102D02*
D03*
Y-541102D02*
D03*
Y-531102D02*
D03*
X-167717Y-511350D02*
D03*
X-167595Y-501602D02*
D03*
D93*
X-136760Y-553096D02*
D03*
X-111760D02*
D03*
X37823Y-443899D02*
D03*
X-27177Y-426899D02*
D03*
X-17177D02*
D03*
X-25177Y-435899D02*
D03*
X-18177Y-436400D02*
D03*
X8323Y-456899D02*
D03*
X29823Y-455899D02*
D03*
X-212256Y-448214D02*
D03*
X-125150Y-406482D02*
D03*
X-127020Y-396738D02*
D03*
X-121606Y-381777D02*
D03*
X-117571Y-388175D02*
D03*
X-117571Y-384542D02*
D03*
X83020Y-347230D02*
D03*
X81642Y-363962D02*
D03*
X77016Y-226856D02*
D03*
X-117964Y-323608D02*
D03*
X-123673Y-224986D02*
D03*
X-127709Y-234140D02*
D03*
X186858Y-435518D02*
D03*
X133906Y-283352D02*
D03*
X131642Y-294376D02*
D03*
X120421Y-317309D02*
D03*
X120815Y-324199D02*
D03*
X43551Y-311699D02*
D03*
X269948Y-399897D02*
D03*
X277114Y-350774D02*
D03*
X-209992Y-276955D02*
D03*
X210776Y-311895D02*
D03*
X-174803Y-77953D02*
D03*
X-171260Y-105020D02*
D03*
X-200295Y-99705D02*
D03*
X-194980Y-126870D02*
D03*
X176083Y-77953D02*
D03*
X171555Y-105020D02*
D03*
X200394Y-99606D02*
D03*
X194882Y-126969D02*
D03*
X155807Y-167224D02*
D03*
X162402Y-171457D02*
D03*
X158760Y-180610D02*
D03*
X162008Y-167224D02*
D03*
X180020Y-438976D02*
D03*
X175197Y-440059D02*
D03*
X115256Y-385728D02*
D03*
X121653Y-356890D02*
D03*
X-58071Y-552953D02*
D03*
X273721Y-396358D02*
D03*
X-115748Y-518799D02*
D03*
X40453Y-429823D02*
D03*
X3740Y-555807D02*
D03*
X5020Y-270079D02*
D03*
X-18701Y-306201D02*
D03*
X1280Y-287402D02*
D03*
X-82972Y-292913D02*
D03*
X-119390Y-541043D02*
D03*
X-105905Y-532776D02*
D03*
X-110335Y-541043D02*
D03*
X-115059Y-541437D02*
D03*
X-153839Y-544587D02*
D03*
X-83366Y-553642D02*
D03*
X-31693Y-465059D02*
D03*
X15453Y-491142D02*
D03*
X-211742Y-378671D02*
D03*
X85827Y-371260D02*
D03*
X-11614Y-396850D02*
D03*
X-6988Y-396654D02*
D03*
X-32677Y-413091D02*
D03*
X-1870Y-396457D02*
D03*
X-6398Y-419587D02*
D03*
X-98721Y-523032D02*
D03*
Y-526870D02*
D03*
X-84055Y-355906D02*
D03*
X-79429D02*
D03*
X-79728Y-378642D02*
D03*
X210531Y-243898D02*
D03*
X87992Y-35531D02*
D03*
Y-46654D02*
D03*
X-159547Y-557776D02*
D03*
X-76185Y-379546D02*
D03*
X248917Y-435335D02*
D03*
X249508Y-439665D02*
D03*
X249815Y-443230D02*
D03*
X282972Y-392028D02*
D03*
X121161Y-216929D02*
D03*
X-37697Y-412697D02*
D03*
X-41242Y-412815D02*
D03*
X-44786Y-412914D02*
D03*
X-48329D02*
D03*
X-51873D02*
D03*
X-55416Y-413111D02*
D03*
X-45571Y-341535D02*
D03*
X-79776Y-334350D02*
D03*
X-86713Y-326872D02*
D03*
X-77461Y-300689D02*
D03*
X-75984Y-294291D02*
D03*
X-47047Y-294980D02*
D03*
X-47441Y-322736D02*
D03*
X-41634Y-341437D02*
D03*
X-39272Y-344193D02*
D03*
X-36909Y-366634D02*
D03*
X-36713Y-326181D02*
D03*
X111811Y-329823D02*
D03*
X45571Y-315803D02*
D03*
X40157Y-318996D02*
D03*
X-2264Y-344094D02*
D03*
X-7185Y-328346D02*
D03*
X13484D02*
D03*
X17224D02*
D03*
X8661Y-271260D02*
D03*
X11024Y-292520D02*
D03*
X14665D02*
D03*
X7874Y-287008D02*
D03*
X4528Y-292632D02*
D03*
X28643Y-341552D02*
D03*
X28802Y-345095D02*
D03*
X28839Y-348917D02*
D03*
X-131595Y-307579D02*
D03*
X-110531Y-308366D02*
D03*
X-75689Y-341634D02*
D03*
X-73622Y-337992D02*
D03*
X-86713Y-379823D02*
D03*
X-86811Y-365453D02*
D03*
X-71063Y-329412D02*
D03*
X-63878Y-546260D02*
D03*
X-80020D02*
D03*
X-18406Y-554626D02*
D03*
X321358Y-283760D02*
D03*
X223130Y-142618D02*
D03*
X210728Y-169193D02*
D03*
X73721Y-480709D02*
D03*
X58366Y-430315D02*
D03*
X58563Y-427264D02*
D03*
X40453Y-427165D02*
D03*
X72047Y-422047D02*
D03*
X62500Y-447736D02*
D03*
X88878Y-444193D02*
D03*
X-80512Y-442126D02*
D03*
X-66535Y-451378D02*
D03*
X-127709D02*
D03*
X270571Y-277264D02*
D03*
X295079Y-278051D02*
D03*
X292421Y-280709D02*
D03*
X289272Y-283071D02*
D03*
X279724Y-215354D02*
D03*
X-85138Y-273917D02*
D03*
X-110925Y-320079D02*
D03*
X-113091Y-325590D02*
D03*
X-113386Y-395571D02*
D03*
X-109941Y-349410D02*
D03*
X318898Y-280413D02*
D03*
X282494Y-220385D02*
D03*
X279528Y-223622D02*
D03*
X323441Y-277080D02*
D03*
X37598Y-321752D02*
D03*
X28643Y-337894D02*
D03*
X-12008Y-298228D02*
D03*
X-13878Y-314171D02*
D03*
X-14567Y-344094D02*
D03*
X-10925Y-329134D02*
D03*
X-2264Y-320079D02*
D03*
X-1673Y-324508D02*
D03*
X-85197Y-277854D02*
D03*
Y-282185D02*
D03*
X271555Y-301772D02*
D03*
X268701Y-230906D02*
D03*
D94*
X54823Y-455400D02*
D03*
X31791Y-467506D02*
D03*
X29921Y-537894D02*
D03*
X37402Y-538161D02*
D03*
D95*
X-303177Y-427750D02*
D03*
Y-364758D02*
D03*
X-318925Y-333262D02*
D03*
X-303177Y-238773D02*
D03*
X-271681Y-427750D02*
D03*
X-287429Y-396254D02*
D03*
X-271681Y-364758D02*
D03*
Y-301766D02*
D03*
Y-238773D02*
D03*
Y-175781D02*
D03*
X-255933Y-459246D02*
D03*
Y-207277D02*
D03*
Y-144285D02*
D03*
X-224437Y-459246D02*
D03*
Y-333262D02*
D03*
Y-270270D02*
D03*
X-208689Y-238773D02*
D03*
X-224437Y-207277D02*
D03*
Y-81293D02*
D03*
X-177193Y-553734D02*
D03*
Y-490742D02*
D03*
X-192941Y-144285D02*
D03*
X-177193Y-49797D02*
D03*
X-161445Y-522238D02*
D03*
X-145697Y-490742D02*
D03*
Y-301766D02*
D03*
Y-238773D02*
D03*
Y-112789D02*
D03*
Y-49797D02*
D03*
X-114201Y-490742D02*
D03*
X-129949Y-207277D02*
D03*
Y-81293D02*
D03*
X-98453Y-585230D02*
D03*
X-82705Y-490742D02*
D03*
X-98453Y-144285D02*
D03*
X-82705Y-112789D02*
D03*
X-98453Y-81293D02*
D03*
X-82705Y-49797D02*
D03*
X-66957Y-585230D02*
D03*
Y-396254D02*
D03*
Y-333262D02*
D03*
Y-207277D02*
D03*
Y-144285D02*
D03*
X-51209Y-112789D02*
D03*
X-66957Y-81293D02*
D03*
X-35461Y-396254D02*
D03*
Y-270270D02*
D03*
Y-207277D02*
D03*
X-19713Y-175781D02*
D03*
X-35461Y-144285D02*
D03*
X-19713Y-112789D02*
D03*
Y-49797D02*
D03*
X11784Y-364758D02*
D03*
X-3965Y-270270D02*
D03*
X11784Y-175781D02*
D03*
Y-112789D02*
D03*
X27531Y-585230D02*
D03*
Y-270270D02*
D03*
Y-207277D02*
D03*
Y-144285D02*
D03*
Y-81293D02*
D03*
X43279Y-49797D02*
D03*
X74776Y-490742D02*
D03*
X59028Y-396254D02*
D03*
Y-270270D02*
D03*
X74776Y-112789D02*
D03*
X59028Y-81293D02*
D03*
X106272Y-112789D02*
D03*
Y-49797D02*
D03*
X122020Y-585230D02*
D03*
Y-144285D02*
D03*
X137768Y-112789D02*
D03*
X122020Y-81293D02*
D03*
X153516Y-585230D02*
D03*
Y-459246D02*
D03*
Y-144285D02*
D03*
X200760Y-301766D02*
D03*
Y-238773D02*
D03*
Y-112789D02*
D03*
Y-49797D02*
D03*
X216508Y-522238D02*
D03*
X232256Y-427750D02*
D03*
Y-364758D02*
D03*
Y-175781D02*
D03*
Y-112789D02*
D03*
X248004Y-522238D02*
D03*
X263752Y-427750D02*
D03*
Y-301766D02*
D03*
X295248Y-238773D02*
D03*
X326744Y-301766D02*
D03*
X310996Y-207277D02*
D03*
X90162Y-270683D02*
D03*
X200760Y-175781D02*
D03*
X-318925Y-270270D02*
D03*
X-271681Y-490742D02*
D03*
X-287429Y-459246D02*
D03*
Y-333262D02*
D03*
Y-270270D02*
D03*
Y-207277D02*
D03*
X-240185Y-490742D02*
D03*
Y-238773D02*
D03*
Y-175781D02*
D03*
Y-112789D02*
D03*
X-208689Y-553734D02*
D03*
X-224437Y-522238D02*
D03*
X-208689Y-490742D02*
D03*
Y-175781D02*
D03*
X-224437Y-144285D02*
D03*
X-192941Y-522238D02*
D03*
X-161445Y-585230D02*
D03*
Y-144285D02*
D03*
X-129949Y-585230D02*
D03*
X-82705Y-175781D02*
D03*
X-66957Y-270270D02*
D03*
X-51209Y-175781D02*
D03*
Y-49797D02*
D03*
X-35461Y-81293D02*
D03*
X-3965Y-207277D02*
D03*
Y-144285D02*
D03*
Y-81293D02*
D03*
X11784Y-49797D02*
D03*
X27531Y-396254D02*
D03*
X43279Y-364758D02*
D03*
X27531Y-333262D02*
D03*
X43279Y-301766D02*
D03*
Y-175781D02*
D03*
Y-112789D02*
D03*
X59028Y-585230D02*
D03*
X74776Y-364758D02*
D03*
X59028Y-333262D02*
D03*
Y-207277D02*
D03*
X74776Y-175781D02*
D03*
X59028Y-144285D02*
D03*
X74776Y-49797D02*
D03*
X90524Y-585230D02*
D03*
X106272Y-175781D02*
D03*
X137768Y-238773D02*
D03*
X169264Y-553734D02*
D03*
Y-427750D02*
D03*
X200760Y-553734D02*
D03*
X185012Y-459246D02*
D03*
X200760Y-427750D02*
D03*
X185012Y-144285D02*
D03*
X232256Y-490742D02*
D03*
X216508Y-459246D02*
D03*
X232256Y-301766D02*
D03*
X263752Y-490742D02*
D03*
X248004Y-459246D02*
D03*
X263752Y-175781D02*
D03*
X248004Y-144285D02*
D03*
X279500Y-459246D02*
D03*
X295248Y-427750D02*
D03*
Y-364758D02*
D03*
X279500Y-270270D02*
D03*
Y-207277D02*
D03*
X295248Y-175781D02*
D03*
X279500Y-144285D02*
D03*
X310996Y-396254D02*
D03*
Y-333262D02*
D03*
Y-270270D02*
D03*
D96*
X-13606Y-524529D02*
D03*
X8835D02*
D03*
D97*
X15567Y-578388D02*
D03*
X-38291Y-582876D02*
D03*
D98*
X-13882Y-565632D02*
D03*
X-9551Y-567206D02*
D03*
X-5220Y-567994D02*
D03*
X-890Y-567206D02*
D03*
X3441Y-567994D02*
D03*
X7772Y-567206D02*
D03*
X12102D02*
D03*
X-18213D02*
D03*
M02*
