M48
;Layer_Color=9474304
;FILE_FORMAT=2:5
INCH,LZ
;TYPE=PLATED
T1F00S00C0.01181
T2F00S00C0.02953
T3F00S00C0.03543
T4F00S00C0.05512
T5F00S00C0.05906
%
T01
X0005263Y0002671
X0003294Y0006608
Y0014482
X0015105
X0013137Y0010545
X0015105Y0006608
Y0022356
Y003023
X0011168
X0021011Y0026293
X0019042Y0022356
X0017074Y0018419
X0021011
X0019042Y0014482
X0017074Y0010545
X0021011
X0022979Y0006608
X0019042
X0026916
X0030853
X003479
X0038727
X0042664
X0046601
X0050538
X0054475
X0058412
X0062349
X0066286
X0070223
X007416
X0078097
X0082034
X0085971
X0089908
X0093845
X0097782
X0101719
X0105656
X0109593
X011353
X0117467
X0141089Y0022356
X0139121Y0026293
X0143058
X0146995
X0150932
X0154869
X0156837Y003023
X01529
X0148963
X0145026
X0141089
X0137152
X0139121Y0034167
X0143058
X0146995
X0150932
X0154869
X0158806
X0162743
X0164711Y0038104
X0160774
X0156837
X01529
X0148963
X0145026
X0141089
X0137152
X0186365Y0018419
X0190302
X0194239
X0198176
X0202113
X020605
X0209987
X0213924
X0217861
X0221798
X0225735
X0229672
X0233609
X0237546
X0241483
X024542
X0249357
X0247389Y0014482
X0243452
X0239515
X0235578
X0231641
X0227704
X0223767
X021983
X0215893
X0211956
X0208019
X0204082
X0200145
X0196207
X0192271
X0188333
X0184397
X0182428Y0010545
X0186365
X0184397Y0006608
X0180459
X0176523
X0178491Y0010545
X0194239
X0198176
X0202113
X020605
X0209987
X0243452Y003023
Y0038104
X024542Y0049915
X0249357
X0241483Y0057789
X0237546
X0233609
X0229672
X0225735
X0221798
X0217861
X0213924
X0209987
X020605
X0208018Y0061726
X0208019Y0061726
X0211956
X0209987Y0065663
X020605
X0208019Y00696
X0204082
X0200145
X0196207
X0194239Y0073537
X0198176
X0202113
X020605
X0204082Y0077474
X0200145
X0196207
X0198176Y0081411
X0198176Y0081411
X0194239
X0202113
X020605
X0198176Y0065663
X0196207Y0061726
X0198176Y0057789
X0180459Y0053852
X0176523
X0172585
X0174554Y0049915
X0178491
X0172585Y0045978
X0173789Y0088675
X0176289
X0178789
X0184397Y0093222
X0182428Y0097159
X0186365
X0190302
X0188333Y0101096
X0188333Y0101096
X0184397Y0101096
X0180459
X0176523
Y0132592
X0180459
X0184397
X0188333
X0192271
X0196207
X0194239Y0136529
X0190302
X0186365
X0182428
X0178491
X0174554
Y0144404
Y0152278
X0176523Y0156214
X0180459
X0184397
X0188333
X0192271
X0196207
X0200145
X0204082
X0208019
X0211956
X0215893
X0213924Y0160152
X0209987
X020605
X0202113
X0198176
X0194239
X0190302
X0186365
X0182428
X0178491
X0174554
X0176523Y0164088
X0172585
X0180459
X0184397
X0188333
X0192271
X0196207
X0200145
X0204082
X0208019
X0211956
X0215893
X021983
X0217861Y0160152
X0223701Y0158976
X0225197Y0160551
X0226732Y0162087
X0228268Y0163622
X0229803Y0165157
X0213924Y0152278
X0209987
X0211956Y014834
X0208019
X0192271
X0190302Y0152278
X0194239
Y0144404
X0190302
X0192271Y0140466
X0188333
X0188333Y0140466
X0198176Y0136529
X0172585Y0156214
X0243452Y00696
X0247389
X0243452Y0061726
X0168649Y0053852
X0164711
X0160774
X0156837
X01529
X0148963
X0145026
X0141089
X0137152
X0139121Y0057789
X0143058
X0146995
X0148963Y0061726
X0148963Y0061726
X0145026
X0141089
X0137152
X0139121Y0065663
X0143058
X0146995
X0150932
X0154869
X0158806
X0162743
X0160774Y00696
X0156837
X01529
X0148963
X0145026
X0141089
X0137152
X0133215
X0129278
X0125341
X0121404
X0117467
X011353
X0109593
X0111562Y0073537
X0115499
X0119436
X0123373
X012731
X0131247
X0135184
X0139121
X0143058
X0146995
X0150932
X0154869
X0158806
X0162743
X0160774Y0077474
X0156837
X01529
X0148963
X0150932Y0081411
X0154869
X0158806Y0081411
X0158806Y0081411
X0162743
X0160774Y0085348
X0156837
X01529
X0148963
X0150932Y0089285
X0154869
X0158806
X0166289Y0088675
X0168789
X0171189
X0148963Y0093222
X0137152
X0133215
X0131247Y0089285
X0135184
X0137152Y0085348
X0133215
X0129278
X012731Y0081411
X0131247
X0135184
X0137152Y0077474
X0133215
X0129278
X0125341
X0121404
X0117467
X011353
X0109593
X0105656
X0111562Y0081411
X0115499
X0119436Y0081411
X0119436Y0081411
X0123373
X011353Y0085348
X0115499Y0089285
Y0097159
X0117467Y0101096
X0121404
X0125341
X0129278Y0101096
X0129278Y0101096
X0133215
X0135184Y0097159
X011353Y0101096
X0111562Y0105033
X0115499
X011353Y010897
X0109593
X0107625Y0105033
X0103688
X0099751
X0095814Y0112907
X0091877
X008794
X0084003
X0085971Y0116844
X0089908
X0093845
X0091877Y0120781
X0095814
X009975Y0120781
X0099751Y0120781
X0103688
X0109593Y0116844
X011353
X0111562Y0112907
X0115499
X008794Y0120781
X0084003
X0082034Y0116844
X0058412
X0054475
X0050538
X0046601
X0042664
X0038727
X0040695Y0120781
X0040696Y0120781
X0036759
X0032822
X0028885
X0024948
X0021011
X002101Y0120781
X0022979Y0116844
X0024948Y0112907
X0022979Y010897
X0024948Y0105033
X0038727Y010897
X0042664
X0046601
X0050538
X0054475
X0060381Y0105033
Y0097159
X0062349Y0093222
X0066286
X0064318Y0089285
X0066286Y0085348
X0064318Y0081411
X0066286Y0077474
X0064318Y0073537
X0066286Y00696
X0028885Y0065663
X0024948
X0022979Y0061726
Y00696
X0019042
X0024948Y0073537
X0026916Y0077474
X0030853
X0022979
X0017074Y0089285
X0022979Y0124718
X0026916
X0030853
X003479
X0038727
X0042664
X0046601
X0050538
X0054475
X0058412
X0056444Y0120781
X0052507
X004857
X0044633
Y0128655
X0040696
X0036759
X0032822
X0028885
X0024948
X0021011
X0022979Y0132592
X0026916
X0030853
X003479
X0038727
X0042664
X0046601
X0050538
X0054475
X0058412
X0056444Y0136529
X0052507
X0054475Y0140466
X0050538
X0050538Y0140466
X0052507Y0144404
X0056444
X0058412Y014834
X0054475
X0050538
X0046601
X0042664
X0038727
X003479
X0030853
X0026916
X0022979
X0021011Y0152278
X0017074
X0019042Y0156214
X0022979
X0026916
X0030853
X003479
X0038727
X0042664
X0046601
X0050538
X0054475
X0058412
X0062349
X0066286
X0070223
X007416
X0078097
X0082034
X0085971
X0089908
X0093845
X0097782
X0101719
X0099751Y0152278
X0095814
X0091877
X008794
X0084003
X0080066
X0076129
X0072192
X0068255
X0064318
X0060381
X0056444
X0052507
X004857
X0044633
X0040696
X0036759
X0032822
X0028885
X0024948
Y0160152
X0021011
X0017074
X0019042Y0164088
X0022979
X0026916
X0030853
X003479
X0038727
X0042664
X0046601
X0050538
X0054475
X0058412
X0062349
X0066286
X0070223
X007416
X0078097
X0082034
X0085971
X0089908
X0093845
X0097782
X0101719
X0105656
X0109593
X011353
X0117467
X0121404
X0125341
X0129278
X0133215
X0137152
X0141089
X0145026
X0148963
X01529
X0156837
X0160774
X0164711
X0168649
X016668Y0160152
X0162743
X0158806
X0154869
X0150932
X0146995
X0143058
X0139121
X0135184
X0137152Y0156214
X0141089
X0145026
X0148963
X01529
X0156837
X0160774
X0164711
X0168649
X016668Y0152278
X0162743
X0158806
X0154869
X0150932
X0146995
X0143058
X0139121
X0135184
X0111562
X011353Y0156214
X0111562Y0160152
X0107625
X0103688
X0099751
X0095814
X0091877
X008794
X0084003
X0080066
X0076129
X0072192
X0068255
X0064318
X0060381
X0056444
X0052507
X004857
X0044633
X0040696
X0036759
X0032822
X0028885
Y0144404
X0032822
X003479Y0140466
X0030853
X0030853Y0140466
X0026916Y0140466
X0022979
X0024948Y0136529
X0028885
X0032822
X0024948Y0144404
X0058412Y0140466
X0056444Y0128655
X0052507
X004857
X0021011Y0049915
X0139121
X0143058
X0146995
X0150932
X0154869
X0158806
X0162743
X016668
X0170617
X0168649Y0045978
X0164711
X0160774
X0156837
X01529
X0148963
X0145026
X0141089
X0137152
X013912Y0042041
X0139121Y0042041
X0143058
X0146995
X0150932
X0154869
X0158806Y0042041
X0158806Y0042041
X0162743
X016668
X0170617
Y0152278
Y0160152
X0013137
X00092
X0005263
X0007231Y0164088
X0011168
X0015105
Y0156214
X0011168
X0007231
X0003294
X0005263Y0152278
X00092
X0013137
X0011168Y014834
X0007231
X0003294
X0005263Y0144404
X00092
X0013137
X0011168Y0140466
X0011168Y0140466
X0007231Y0140466
X0003294
X0005263Y0136529
X00092
X0013137
X0011168Y0132592
X0007231
X0003294
X0005263Y0128655
X00092
X0013137
X0011168Y0124718
X0007231
X0003294
X0005263Y0120781
X00092
X0013137
X0011168Y0116844
X0007231
X0003294
X0005263Y0112907
X00092
X0013137
X0015105Y010897
X0011168
X0007231
X0003294
X0005263Y0105033
X00092
X0013137
X0011168Y0101096
X0011168Y0101096
X0007231Y0101096
X0003294
X0005263Y0097159
X0003294Y0093222
X0013137Y0089285
X0011168Y0085348
X0013137Y0081411
X0011168Y0077474
X0013137Y0073537
X0015105Y00696
X0011168
X0013137Y0065663
X0007231Y0061726
X00092Y0057789
X0011168Y0053852
X0007231
X00092Y0049915
X0013137
X0011168Y0045978
X0007231
X00092Y0042041
X0003294Y0164088
T02
X0189503Y0007245
Y0025355
X0216275
X0229703Y0025355
Y0007245
X0216275Y0007245
X0256475Y0007245
Y0025355
T03
X0017798Y0034647
X0247798
Y0044647
Y0054647
Y0064647
Y0074647
Y0084647
Y0094647
Y0104647
Y0114647
Y0124647
Y0134647
Y0144647
X0017798
Y0134647
Y0124647
Y0114647
Y0104647
Y0094647
Y0084647
Y0074647
Y0064647
Y0054647
Y0044647
T04
X0032402Y007122
Y0092638
Y0114055
X0102913Y0113347
Y0091929
Y0070512
T05
X0040489Y0019
X0060489
X0082089Y00193
X0102089
X0125889
X0145889
M30
