G04*
G04 #@! TF.GenerationSoftware,Altium Limited,Altium Designer,19.0.12 (326)*
G04*
G04 Layer_Color=8388736*
%FSLAX25Y25*%
%MOIN*%
G70*
G01*
G75*
%ADD18R,0.07414X0.12414*%
%ADD19R,0.08800X0.14800*%
%ADD20O,0.13792X0.05800*%
%ADD21R,0.14186X0.04737*%
%ADD22R,0.14800X0.08800*%
%ADD23C,0.09068*%
%ADD24R,0.09068X0.09068*%
%ADD25C,0.05524*%
%ADD26C,0.08280*%
%ADD27C,0.06706*%
%ADD28R,0.06706X0.06706*%
%ADD29C,0.03162*%
D18*
X239331Y160472D02*
D03*
X258150D02*
D03*
D19*
X102400Y50300D02*
D03*
X75400D02*
D03*
X59200Y50500D02*
D03*
X32200D02*
D03*
D20*
X226584Y95067D02*
D03*
Y106878D02*
D03*
Y118689D02*
D03*
Y130500D02*
D03*
Y142311D02*
D03*
Y154122D02*
D03*
X120600Y95067D02*
D03*
Y106878D02*
D03*
Y118689D02*
D03*
Y130500D02*
D03*
Y142311D02*
D03*
Y154122D02*
D03*
D21*
X120709Y59961D02*
D03*
X155709D02*
D03*
D22*
X223600Y72300D02*
D03*
Y45300D02*
D03*
D23*
X29213Y71220D02*
D03*
Y92638D02*
D03*
X99724Y70512D02*
D03*
Y91929D02*
D03*
D24*
X29213Y114055D02*
D03*
X99724Y113347D02*
D03*
D25*
X213086Y7245D02*
D03*
Y25355D02*
D03*
X186314D02*
D03*
Y7245D02*
D03*
X253286Y7245D02*
D03*
Y25355D02*
D03*
X226514D02*
D03*
Y7245D02*
D03*
D26*
X142700Y19300D02*
D03*
X122700D02*
D03*
X57300Y19000D02*
D03*
X37300D02*
D03*
X98900Y19300D02*
D03*
X78900D02*
D03*
D27*
X244609Y34647D02*
D03*
Y44647D02*
D03*
Y54647D02*
D03*
Y64647D02*
D03*
Y74647D02*
D03*
Y84647D02*
D03*
Y94647D02*
D03*
Y104647D02*
D03*
Y114647D02*
D03*
Y124647D02*
D03*
Y134647D02*
D03*
X14609Y34647D02*
D03*
Y44647D02*
D03*
Y54647D02*
D03*
Y64647D02*
D03*
Y74647D02*
D03*
Y84647D02*
D03*
Y94647D02*
D03*
Y104647D02*
D03*
Y114647D02*
D03*
Y124647D02*
D03*
Y134647D02*
D03*
D28*
X244609Y144647D02*
D03*
X14609D02*
D03*
D29*
X226614Y165157D02*
D03*
X225079Y163622D02*
D03*
X223543Y162087D02*
D03*
X222008Y160551D02*
D03*
X220512Y158976D02*
D03*
X170600Y88675D02*
D03*
X175600D02*
D03*
X173100D02*
D03*
X168000D02*
D03*
X165600D02*
D03*
X163100D02*
D03*
M02*
