M48
;Layer_Color=9474304
;FILE_FORMAT=2:5
INCH,LZ
;TYPE=PLATED
T1F00S00C0.01181
T2F00S00C0.02362
T3F00S00C0.02756
T4F00S00C0.02800
T5F00S00C0.02953
T6F00S00C0.03543
T7F00S00C0.04331
T8F00S00C0.05906
%
T01
X02165Y01605
X00871Y01626
X00872Y01374
X00986Y01387
T02
X0002073Y0018419
X0017821Y0010545
X0238294
X0238294Y0018419
X019105Y0042041
X0179239Y0042041
X0159554Y0042041
X0155617Y0042041
X0143806Y0065663
X0143805Y0073537
X0112309
X0061128Y0089285
X0065065Y0105033
X0072939Y0112907
X0049317Y0136529
X0159554Y0105033
X0002073Y0112907
T03
X02298Y0158313
Y01654
T04
X02441Y01615
X02567Y01614
T05
X0226514Y0007245
Y0025355
X0253286
Y0007245
T06
X0014609Y0034647
X0244609
Y0044647
Y0054647
Y0064647
Y0074647
Y0084647
Y0094647
Y0104647
Y0114647
Y0124647
Y0134647
Y0144647
X0014609
Y0134647
Y0124647
Y0114647
Y0104647
Y0094647
Y0084647
Y0074647
Y0064647
Y0054647
Y0044647
T07
X00373Y0019
X00573
X00789Y00193
X00989
X01227
X01427
X00774Y01407
T08
X00274Y00703
Y00918
Y01133
X00984Y01119
Y00904
Y00689
M30
