G04*
G04 #@! TF.GenerationSoftware,Altium Limited,Altium NEXUS,1.1.6 (48)*
G04*
G04 Layer_Physical_Order=2*
G04 Layer_Color=16711680*
%FSLAX25Y25*%
%MOIN*%
G70*
G01*
G75*
%ADD10C,0.00787*%
%ADD11C,0.01000*%
%ADD26C,0.01968*%
%ADD27C,0.04724*%
%ADD28C,0.07480*%
%ADD29C,0.06000*%
%ADD30C,0.05906*%
%ADD31R,0.05906X0.05906*%
%ADD32C,0.02362*%
%ADD33C,0.02756*%
%ADD34R,0.09000X0.05500*%
%ADD35R,0.03000X0.06500*%
%ADD36R,0.02362X0.05984*%
%ADD37O,0.02362X0.05984*%
%ADD38R,0.03740X0.01200*%
%ADD39O,0.03740X0.01200*%
%ADD40O,0.05984X0.02362*%
%ADD41R,0.05984X0.02362*%
%ADD42R,0.09449X0.10236*%
%ADD43R,0.10236X0.09449*%
%ADD44R,0.02800X0.05400*%
%ADD45R,0.05512X0.08268*%
%ADD46R,0.02165X0.01772*%
%ADD47R,0.03543X0.02756*%
%ADD48R,0.01772X0.02165*%
%ADD49R,0.05118X0.03347*%
%ADD50R,0.01575X0.01968*%
%ADD51C,0.02362*%
%ADD52C,0.02756*%
G36*
X229200Y169460D02*
Y166403D01*
X192301Y129504D01*
X169004D01*
Y148800D01*
X168913Y149261D01*
X168651Y149652D01*
X168261Y149913D01*
X167800Y150004D01*
X137400D01*
X136939Y149913D01*
X136548Y149652D01*
X136287Y149261D01*
X136196Y148800D01*
Y146168D01*
X135696Y145961D01*
X132628Y149028D01*
X132202Y149313D01*
X131700Y149413D01*
X106345D01*
Y149970D01*
X106256D01*
Y151830D01*
X106616D01*
Y155570D01*
X103270D01*
Y151830D01*
X103631D01*
Y151133D01*
X103131Y150866D01*
X103061Y150913D01*
X102600Y151004D01*
X58700Y151004D01*
X58239Y150913D01*
X57848Y150652D01*
X57587Y150261D01*
X57496Y149800D01*
X57496Y113358D01*
X57034Y113166D01*
X56123Y114077D01*
X55537Y114469D01*
X54845Y114606D01*
X40945D01*
Y114670D01*
X37598D01*
Y114670D01*
X37402D01*
Y114670D01*
X34055D01*
Y114606D01*
X30958D01*
X30708Y115210D01*
X30101Y116001D01*
X29310Y116608D01*
X28389Y116990D01*
X27400Y117120D01*
X26411Y116990D01*
X25490Y116608D01*
X24699Y116001D01*
X24092Y115210D01*
X23710Y114289D01*
X23580Y113300D01*
X23710Y112311D01*
X24092Y111390D01*
X24699Y110599D01*
X25490Y109992D01*
X26411Y109610D01*
X27400Y109480D01*
X28389Y109610D01*
X29310Y109992D01*
X30101Y110599D01*
X30404Y110994D01*
X34055D01*
Y110930D01*
X37402D01*
Y110930D01*
X37598D01*
Y110930D01*
X40945D01*
Y110994D01*
X54097D01*
X59487Y105604D01*
Y100706D01*
X59625Y100015D01*
X60016Y99429D01*
X66623Y92823D01*
X67209Y92431D01*
X67900Y92294D01*
X70449D01*
X70521Y92246D01*
X71289Y92093D01*
X74911D01*
X75679Y92246D01*
X76330Y92681D01*
X76765Y93332D01*
X76918Y94100D01*
X76765Y94868D01*
X76330Y95519D01*
X75899Y95807D01*
X75995Y96233D01*
X76042Y96313D01*
X76226Y96350D01*
X76441Y96387D01*
X76456Y96396D01*
X76473Y96399D01*
X76654Y96521D01*
X76839Y96637D01*
X76849Y96651D01*
X76863Y96660D01*
X76985Y96842D01*
X77020Y96892D01*
X77674D01*
X77709Y96865D01*
X78332Y96607D01*
X79000Y96519D01*
X79668Y96607D01*
X80291Y96865D01*
X80825Y97275D01*
X81235Y97809D01*
X81493Y98432D01*
X81581Y99100D01*
X81493Y99768D01*
X81235Y100391D01*
X80825Y100925D01*
X80291Y101335D01*
X79668Y101593D01*
X79000Y101681D01*
X78332Y101593D01*
X77824Y101383D01*
X77667Y101413D01*
X77356Y101564D01*
X77307Y101596D01*
X77303Y101618D01*
X77302Y101759D01*
X77264Y101848D01*
X77248Y101943D01*
X77173Y102062D01*
X77118Y102191D01*
X77049Y102259D01*
X76998Y102341D01*
X76883Y102422D01*
X76783Y102520D01*
X76691Y102581D01*
X76591Y103071D01*
X76765Y103332D01*
X76918Y104100D01*
X76897Y104207D01*
X77214Y104594D01*
X85855D01*
Y104530D01*
X89201D01*
Y104530D01*
X89398D01*
Y104530D01*
X92745D01*
Y104594D01*
X92900D01*
X93591Y104731D01*
X94177Y105123D01*
X97308Y108253D01*
X97411Y108210D01*
X98400Y108080D01*
X99389Y108210D01*
X100310Y108592D01*
X101101Y109199D01*
X101708Y109990D01*
X102090Y110911D01*
X102220Y111900D01*
X102090Y112889D01*
X101708Y113810D01*
X101101Y114601D01*
X100310Y115208D01*
X99389Y115590D01*
X98400Y115720D01*
X97411Y115590D01*
X96490Y115208D01*
X95699Y114601D01*
X95092Y113810D01*
X94710Y112889D01*
X94580Y111900D01*
X94710Y110911D01*
X94753Y110808D01*
X92216Y108270D01*
X89398D01*
Y108270D01*
X89201D01*
Y108270D01*
X85855D01*
Y108206D01*
X77670D01*
X77582Y108273D01*
X77309Y108706D01*
X77315Y108740D01*
X77359Y108969D01*
X77359Y108972D01*
X77359Y108975D01*
X77231Y122351D01*
X77581Y122707D01*
X100705Y122881D01*
X100744Y122855D01*
X100787Y122639D01*
X101049Y122248D01*
X101439Y121987D01*
X101900Y121896D01*
X124691Y121896D01*
Y110047D01*
X124875Y109125D01*
X125397Y108344D01*
X129840Y103901D01*
X130622Y103378D01*
X131543Y103195D01*
X144299D01*
X147591Y99902D01*
Y97440D01*
X147638Y97207D01*
Y93767D01*
X152362D01*
Y97207D01*
X152409Y97440D01*
Y100900D01*
X152362Y101133D01*
Y102113D01*
X152053D01*
X151779Y102509D01*
X151947Y102996D01*
X189896Y102996D01*
Y100754D01*
X189919Y100637D01*
Y100519D01*
X189964Y100409D01*
X189987Y100293D01*
X190053Y100194D01*
X190099Y100085D01*
X190183Y100001D01*
X190249Y99902D01*
X190347Y99836D01*
X190431Y99752D01*
X190520Y99693D01*
X190776Y99310D01*
X190866Y98858D01*
X190776Y98406D01*
X190520Y98023D01*
X190431Y97964D01*
X190347Y97880D01*
X190249Y97814D01*
X190183Y97716D01*
X190099Y97632D01*
X190053Y97522D01*
X189987Y97424D01*
X189964Y97307D01*
X189919Y97198D01*
X189919Y97079D01*
X189896Y96963D01*
X189896Y92917D01*
X189899Y92902D01*
X189582Y92516D01*
X184309D01*
X183618Y92378D01*
X183032Y91987D01*
X181527Y90481D01*
X180303D01*
Y90500D01*
X180242Y90807D01*
X180068Y91068D01*
X179807Y91242D01*
X179500Y91303D01*
X161700D01*
X161393Y91242D01*
X161132Y91068D01*
X160958Y90807D01*
X160897Y90500D01*
Y85600D01*
Y80500D01*
Y68100D01*
X160958Y67793D01*
X161132Y67532D01*
X161393Y67358D01*
X161700Y67297D01*
X163174D01*
X163329Y66929D01*
X163341Y66797D01*
X162172Y65628D01*
X161887Y65202D01*
X161787Y64700D01*
Y64587D01*
X160913D01*
Y62336D01*
X159995D01*
X159829Y62585D01*
X159113Y63063D01*
X158268Y63231D01*
X157423Y63063D01*
X156707Y62585D01*
X156228Y61869D01*
X156060Y61024D01*
X156228Y60179D01*
X156707Y59462D01*
X157423Y58984D01*
X158268Y58816D01*
X159113Y58984D01*
X159829Y59462D01*
X159995Y59711D01*
X160913D01*
Y57613D01*
X165287D01*
Y57613D01*
X165711Y57429D01*
X165758Y57193D01*
X165932Y56932D01*
X166193Y56758D01*
X166500Y56697D01*
X189787Y56697D01*
X190095Y56758D01*
X190355Y56932D01*
X190529Y57193D01*
X190590Y57500D01*
X190590Y64587D01*
X190529Y64895D01*
X190355Y65155D01*
X190095Y65329D01*
X189787Y65390D01*
X188704D01*
Y83151D01*
X210469D01*
X210929Y83243D01*
X211320Y83504D01*
X211581Y83894D01*
X211673Y84355D01*
Y84858D01*
X211739D01*
X212280Y84965D01*
X212739Y85272D01*
X212987Y85644D01*
X213400Y85594D01*
X213487Y85561D01*
Y80731D01*
X211110D01*
Y79894D01*
X209139D01*
Y80254D01*
X205399D01*
Y76908D01*
X209139D01*
Y77268D01*
X211110D01*
Y76400D01*
X215547D01*
Y76006D01*
X218332D01*
X218500Y75984D01*
X218668Y76006D01*
X231553D01*
Y81124D01*
X221081D01*
Y83396D01*
X224711D01*
X224744Y83402D01*
X224777Y83398D01*
X224974Y83448D01*
X225172Y83487D01*
X225200Y83506D01*
X225232Y83514D01*
X225395Y83636D01*
X225563Y83748D01*
X225581Y83776D01*
X225608Y83796D01*
X225711Y83971D01*
X225824Y84139D01*
X225830Y84172D01*
X225847Y84201D01*
X226023Y84701D01*
X226035Y84786D01*
X226068Y84865D01*
Y85016D01*
X226090Y85166D01*
X226068Y85249D01*
Y85335D01*
X226010Y85474D01*
X225973Y85621D01*
X225921Y85690D01*
X225888Y85769D01*
X225721Y86019D01*
X225739Y86085D01*
X226091Y86456D01*
X226246Y86425D01*
X228786D01*
X228814Y86430D01*
X229200Y86113D01*
Y84000D01*
X234796D01*
Y81345D01*
X234130D01*
Y77998D01*
X237870D01*
Y78467D01*
X242751D01*
X242851Y77967D01*
X242722Y77914D01*
X241941Y77315D01*
X241342Y76534D01*
X240965Y75624D01*
X240836Y74647D01*
X240965Y73671D01*
X241342Y72761D01*
X241941Y71980D01*
X242722Y71380D01*
X243632Y71003D01*
X244609Y70875D01*
X245585Y71003D01*
X246495Y71380D01*
X247276Y71980D01*
X247876Y72761D01*
X248253Y73671D01*
X248381Y74647D01*
X248253Y75624D01*
X247876Y76534D01*
X247276Y77315D01*
X246495Y77914D01*
X246367Y77967D01*
X246466Y78467D01*
X249071D01*
X249200Y68500D01*
Y12604D01*
X217241D01*
X216780Y12513D01*
X216389Y12252D01*
X216389Y12252D01*
X214292Y10155D01*
X213908Y10314D01*
X213086Y10422D01*
X212264Y10314D01*
X211497Y9996D01*
X210840Y9492D01*
X210335Y8834D01*
X210175Y8450D01*
X189224D01*
X189065Y8834D01*
X188560Y9492D01*
X187902Y9996D01*
X187136Y10314D01*
X186314Y10422D01*
X185492Y10314D01*
X184726Y9996D01*
X184068Y9492D01*
X183563Y8834D01*
X183246Y8067D01*
X183137Y7245D01*
X183246Y6423D01*
X183405Y6039D01*
X181145Y3779D01*
X11529D01*
X8404Y6904D01*
Y16269D01*
X8775D01*
Y19813D01*
X5625D01*
Y19813D01*
X5475D01*
Y19813D01*
X3831D01*
X2757Y20887D01*
X2892Y21387D01*
X5125D01*
X5475Y21387D01*
X5975Y21387D01*
X8775D01*
Y21605D01*
X9082Y21956D01*
X9543Y22047D01*
X9934Y22308D01*
X15460Y27835D01*
X15460Y27835D01*
X15721Y28225D01*
X15813Y28686D01*
X15813Y28686D01*
Y31098D01*
X16495Y31380D01*
X17276Y31980D01*
X17876Y32761D01*
X18252Y33671D01*
X18381Y34647D01*
X18252Y35624D01*
X17876Y36533D01*
X17276Y37315D01*
X16495Y37914D01*
X15585Y38291D01*
X14609Y38420D01*
X13632Y38291D01*
X12722Y37914D01*
X11941Y37315D01*
X11342Y36533D01*
X10965Y35624D01*
X10836Y34647D01*
X10965Y33671D01*
X11342Y32761D01*
X11941Y31980D01*
X12722Y31380D01*
X13404Y31098D01*
Y29185D01*
X9260Y25040D01*
X8775Y24931D01*
Y24931D01*
X8775Y24931D01*
X5458Y24931D01*
X5104Y25284D01*
Y34083D01*
X12541Y41520D01*
X12722Y41380D01*
X13632Y41003D01*
X14609Y40875D01*
X15585Y41003D01*
X16495Y41380D01*
X17276Y41980D01*
X17876Y42761D01*
X18252Y43671D01*
X18381Y44647D01*
X18252Y45624D01*
X17876Y46533D01*
X17276Y47315D01*
X16495Y47914D01*
X15585Y48291D01*
X14609Y48420D01*
X13632Y48291D01*
X12722Y47914D01*
X11941Y47315D01*
X11342Y46533D01*
X10965Y45624D01*
X10836Y44647D01*
X10965Y43671D01*
X11059Y43444D01*
X3161Y35546D01*
X2717Y35687D01*
X2661Y35730D01*
Y64185D01*
X3161Y64392D01*
X11247Y56306D01*
X10965Y55624D01*
X10836Y54647D01*
X10965Y53671D01*
X11342Y52761D01*
X11941Y51980D01*
X12722Y51380D01*
X13632Y51003D01*
X14609Y50875D01*
X15585Y51003D01*
X16495Y51380D01*
X17276Y51980D01*
X17876Y52761D01*
X18252Y53671D01*
X18381Y54647D01*
X18252Y55624D01*
X17876Y56533D01*
X17276Y57315D01*
X16495Y57914D01*
X15585Y58291D01*
X14609Y58420D01*
X13632Y58291D01*
X12950Y58009D01*
X5004Y65955D01*
Y90701D01*
X11899Y97596D01*
X21262D01*
X21374Y97466D01*
X21525Y97128D01*
X20782Y96222D01*
X20046Y94846D01*
X19593Y93353D01*
X19440Y91800D01*
X19593Y90247D01*
X20046Y88754D01*
X20782Y87378D01*
X21772Y86172D01*
X22978Y85182D01*
X24354Y84446D01*
X25847Y83993D01*
X27400Y83840D01*
X28953Y83993D01*
X30446Y84446D01*
X31822Y85182D01*
X33028Y86172D01*
X34018Y87378D01*
X34754Y88754D01*
X35207Y90247D01*
X35360Y91800D01*
X35207Y93353D01*
X34754Y94846D01*
X34439Y95436D01*
X34845Y95737D01*
X35714Y94867D01*
X35800Y94738D01*
X37290Y93248D01*
X37680Y92987D01*
X38141Y92896D01*
X48726D01*
X48870Y92681D01*
X49521Y92246D01*
X50289Y92093D01*
X53911D01*
X54679Y92246D01*
X55330Y92681D01*
X55765Y93332D01*
X55918Y94100D01*
X55765Y94868D01*
X55330Y95519D01*
X54679Y95954D01*
X53911Y96107D01*
X50289D01*
X49521Y95954D01*
X48870Y95519D01*
X48726Y95304D01*
X38640D01*
X37590Y96354D01*
X37503Y96484D01*
X37503Y96484D01*
X33027Y100961D01*
X33218Y101423D01*
X46640D01*
X46640Y101423D01*
X47101Y101514D01*
X47491Y101775D01*
X48320Y102604D01*
X48870Y102681D01*
X49521Y102246D01*
X50289Y102093D01*
X53911D01*
X54679Y102246D01*
X55330Y102681D01*
X55765Y103332D01*
X55918Y104100D01*
X55765Y104868D01*
X55330Y105519D01*
X54679Y105954D01*
X53911Y106107D01*
X50289D01*
X49521Y105954D01*
X48870Y105519D01*
X48726Y105304D01*
X48113D01*
X47652Y105213D01*
X47262Y104952D01*
X47262Y104952D01*
X46141Y103831D01*
X22916D01*
X22915Y103831D01*
X22455Y103739D01*
X22064Y103478D01*
X22064Y103478D01*
X20165Y101579D01*
X10748D01*
X10287Y101487D01*
X9896Y101226D01*
X9896Y101226D01*
X605Y91935D01*
X344Y91545D01*
X300Y91323D01*
X-200Y91372D01*
Y169646D01*
X154Y169999D01*
X229200Y169460D01*
D02*
G37*
G36*
X130200Y145400D02*
X130200Y123100D01*
X101900Y123100D01*
X101900Y145046D01*
X102253Y145400D01*
X130200Y145400D01*
D02*
G37*
G36*
X167800Y119708D02*
X161460D01*
Y119708D01*
X161440D01*
Y119708D01*
X153960D01*
Y119061D01*
X152409D01*
Y120751D01*
X152225Y121673D01*
X151703Y122454D01*
X150922Y122976D01*
X150000Y123160D01*
X149078Y122976D01*
X148297Y122454D01*
X147775Y121673D01*
X147591Y120751D01*
Y117129D01*
X147775Y116207D01*
X148297Y115426D01*
X149078Y114904D01*
X149098Y114900D01*
X149049Y114400D01*
X140951D01*
X140902Y114900D01*
X140922Y114904D01*
X141703Y115426D01*
X142225Y116207D01*
X142409Y117129D01*
Y120751D01*
X142225Y121673D01*
X141703Y122454D01*
X140922Y122976D01*
X140000Y123160D01*
X139078Y122976D01*
X138297Y122454D01*
X137900Y121860D01*
X137400Y122012D01*
Y148800D01*
X167800D01*
Y119708D01*
D02*
G37*
G36*
X260700Y84600D02*
X248820D01*
X248778Y84647D01*
X248636Y85726D01*
X248220Y86732D01*
X247557Y87595D01*
X246693Y88258D01*
X245688Y88675D01*
X244609Y88817D01*
X243530Y88675D01*
X242524Y88258D01*
X241660Y87595D01*
X240998Y86732D01*
X240581Y85726D01*
X240439Y84647D01*
X240398Y84600D01*
X238374D01*
X238127Y85100D01*
X238235Y85241D01*
X238493Y85864D01*
X238581Y86532D01*
X238493Y87200D01*
X238235Y87822D01*
X237825Y88357D01*
X237291Y88767D01*
X236668Y89025D01*
X236000Y89113D01*
X235726Y89077D01*
X233841Y90961D01*
X234048Y91461D01*
X235653D01*
X235909Y91265D01*
X236532Y91007D01*
X237200Y90919D01*
X237868Y91007D01*
X238491Y91265D01*
X239025Y91675D01*
X239435Y92209D01*
X239693Y92832D01*
X239781Y93500D01*
X239693Y94168D01*
X239435Y94791D01*
X239025Y95325D01*
X238491Y95735D01*
X237868Y95993D01*
X237200Y96081D01*
X236532Y95993D01*
X235909Y95735D01*
X235850Y95690D01*
X235664Y95595D01*
X231136D01*
Y93892D01*
X229299D01*
X228786Y93994D01*
X226246D01*
X225551Y93856D01*
X224962Y93462D01*
X224568Y92873D01*
X224430Y92178D01*
X224568Y91483D01*
X224761Y91194D01*
X224568Y90904D01*
X224430Y90209D01*
X224568Y89514D01*
X224962Y88925D01*
X225551Y88532D01*
X225731Y88496D01*
Y87986D01*
X225551Y87950D01*
X224962Y87556D01*
X224568Y86967D01*
X224430Y86272D01*
X224568Y85577D01*
X224887Y85100D01*
X224711Y84600D01*
X216514D01*
Y93353D01*
X216384Y94009D01*
X216012Y94565D01*
X215300Y95277D01*
X214744Y95649D01*
X214088Y95779D01*
X212501D01*
X212434Y95824D01*
X211739Y95962D01*
X209199D01*
X208504Y95824D01*
X207914Y95430D01*
X207676Y95407D01*
X207062Y96021D01*
X206506Y96393D01*
X205850Y96523D01*
X205257D01*
X205172Y96634D01*
X204637Y97045D01*
X204014Y97303D01*
X203346Y97390D01*
X202678Y97303D01*
X202056Y97045D01*
X201521Y96634D01*
X201436Y96523D01*
X200023D01*
Y97158D01*
X192346D01*
Y92949D01*
X192277D01*
Y92917D01*
X191100D01*
X191100Y96963D01*
X191388Y97155D01*
X191910Y97937D01*
X192094Y98858D01*
X191910Y99780D01*
X191388Y100561D01*
X191100Y100754D01*
Y104200D01*
X150106Y104200D01*
X147000Y107307D01*
X146218Y107829D01*
X145296Y108012D01*
X132541D01*
X132500Y108053D01*
X132500Y114814D01*
X132599Y114896D01*
X133267Y114797D01*
X133439Y114539D01*
X134155Y114060D01*
X135000Y113892D01*
X135845Y114060D01*
X136561Y114539D01*
X137040Y115255D01*
X137208Y116100D01*
Y116181D01*
X137225Y116207D01*
X137408Y117129D01*
Y120250D01*
X137455Y120327D01*
X137796Y120638D01*
X137908Y120673D01*
X138018Y120662D01*
X138075Y120679D01*
X138135D01*
X138298Y120747D01*
X138468Y120798D01*
X138514Y120836D01*
X138569Y120859D01*
X138694Y120984D01*
X138831Y121096D01*
X138859Y121149D01*
X138901Y121191D01*
X139165Y121586D01*
X139548Y121842D01*
X140000Y121932D01*
X140452Y121842D01*
X140835Y121586D01*
X141091Y121203D01*
X141204Y120633D01*
Y117248D01*
X141091Y116677D01*
X140835Y116294D01*
X140341Y115964D01*
X140334Y115962D01*
X140318Y115949D01*
X140270Y115917D01*
X140233Y115901D01*
X140108Y115776D01*
X139971Y115664D01*
X139943Y115611D01*
X139900Y115569D01*
X139833Y115405D01*
X139749Y115250D01*
X139743Y115190D01*
X139720Y115135D01*
X139720Y114958D01*
X139703Y114782D01*
X139752Y114282D01*
X139804Y114113D01*
X139838Y113939D01*
X139872Y113890D01*
X139889Y113832D01*
X140001Y113696D01*
X140099Y113549D01*
X140149Y113515D01*
X140187Y113469D01*
X140343Y113386D01*
X140490Y113287D01*
X140549Y113276D01*
X140601Y113248D01*
X140777Y113230D01*
X140951Y113196D01*
X149049D01*
X149223Y113230D01*
X149399Y113248D01*
X149451Y113276D01*
X149510Y113287D01*
X149657Y113386D01*
X149813Y113469D01*
X149851Y113515D01*
X149901Y113549D01*
X149999Y113696D01*
X150111Y113832D01*
X150128Y113890D01*
X150162Y113939D01*
X150196Y114113D01*
X150248Y114282D01*
X150258Y114391D01*
X150282Y114433D01*
X150786Y114757D01*
X151347Y114646D01*
X153960D01*
Y113999D01*
X161440D01*
Y118029D01*
X161460Y118504D01*
X167800D01*
X168261Y118595D01*
X168651Y118856D01*
X168913Y119247D01*
X169004Y119708D01*
Y128300D01*
X192800D01*
X234100Y169600D01*
X260700Y169600D01*
Y84600D01*
D02*
G37*
G36*
X102600Y149800D02*
X102600Y146951D01*
X102254Y146605D01*
X102253Y146604D01*
X101793Y146513D01*
X101402Y146252D01*
X101048Y145898D01*
X100787Y145507D01*
X100696Y145046D01*
X100696Y145046D01*
X100696Y124086D01*
X76012Y123900D01*
X76155Y108963D01*
X75803Y108608D01*
X75400D01*
X74555Y108440D01*
X73839Y107961D01*
X72386Y106509D01*
X71289D01*
X70367Y106325D01*
X69586Y105803D01*
X69064Y105022D01*
X68880Y104100D01*
X69064Y103178D01*
X69586Y102397D01*
X70367Y101875D01*
X71289Y101691D01*
X74911D01*
X75631Y101835D01*
X76123Y101513D01*
X76012Y97512D01*
X67611D01*
X63501Y101621D01*
Y106352D01*
X63333Y107197D01*
X62855Y107913D01*
X58700Y112068D01*
X58700Y149800D01*
X102600Y149800D01*
D02*
G37*
G36*
X179500Y80500D02*
Y68100D01*
X161700D01*
Y80500D01*
Y90500D01*
X179500D01*
Y80500D01*
D02*
G37*
G36*
X189787Y57500D02*
X166500Y57500D01*
Y64587D01*
X181400D01*
X181400Y64587D01*
X189787D01*
X189787Y57500D01*
D02*
G37*
%LPC*%
G36*
X55879Y91069D02*
X48320D01*
Y87132D01*
X55879D01*
Y91069D01*
D02*
G37*
G36*
X74911Y91107D02*
X71289D01*
X70521Y90954D01*
X69870Y90519D01*
X69435Y89868D01*
X69282Y89100D01*
X69435Y88332D01*
X69870Y87681D01*
X70521Y87246D01*
X71289Y87093D01*
X74911D01*
X75679Y87246D01*
X76330Y87681D01*
X76765Y88332D01*
X76918Y89100D01*
X76765Y89868D01*
X76330Y90519D01*
X75679Y90954D01*
X74911Y91107D01*
D02*
G37*
G36*
X140000Y101758D02*
X139232Y101605D01*
X138581Y101170D01*
X138146Y100519D01*
X137993Y99751D01*
Y96129D01*
X138146Y95361D01*
X138187Y95299D01*
Y89961D01*
X136647D01*
Y85039D01*
X143340D01*
Y89961D01*
X141800D01*
Y95280D01*
X141854Y95361D01*
X142007Y96129D01*
Y99751D01*
X141854Y100519D01*
X141419Y101170D01*
X140768Y101605D01*
X140000Y101758D01*
D02*
G37*
G36*
X98400Y98360D02*
X96847Y98207D01*
X95354Y97754D01*
X93978Y97018D01*
X92772Y96028D01*
X91782Y94822D01*
X91046Y93446D01*
X90593Y91953D01*
X90440Y90400D01*
X90593Y88847D01*
X91046Y87354D01*
X91782Y85978D01*
X92772Y84772D01*
X93978Y83782D01*
X95354Y83046D01*
X96847Y82593D01*
X98400Y82440D01*
X99953Y82593D01*
X101446Y83046D01*
X102822Y83782D01*
X104028Y84772D01*
X105018Y85978D01*
X105754Y87354D01*
X106207Y88847D01*
X106360Y90400D01*
X106207Y91953D01*
X105754Y93446D01*
X105018Y94822D01*
X104028Y96028D01*
X102822Y97018D01*
X101446Y97754D01*
X99953Y98207D01*
X98400Y98360D01*
D02*
G37*
G36*
X117300Y50464D02*
X49900Y50464D01*
X48615Y50295D01*
X47418Y49799D01*
X46390Y49010D01*
X45601Y47982D01*
X45105Y46785D01*
X44936Y45500D01*
X44936Y24109D01*
X44436Y23958D01*
X43454Y25154D01*
X42135Y26237D01*
X40631Y27041D01*
X38998Y27536D01*
X37300Y27703D01*
X35602Y27536D01*
X33969Y27041D01*
X32465Y26237D01*
X31146Y25154D01*
X30064Y23835D01*
X29259Y22331D01*
X28764Y20698D01*
X28597Y19000D01*
X28764Y17302D01*
X29259Y15669D01*
X30064Y14165D01*
X31146Y12846D01*
X32465Y11763D01*
X33969Y10959D01*
X35602Y10464D01*
X37300Y10297D01*
X38998Y10464D01*
X40631Y10959D01*
X42135Y11763D01*
X43454Y12846D01*
X44537Y14165D01*
X44573Y14232D01*
X45089Y14138D01*
X45105Y14017D01*
X45105Y14017D01*
X45105Y14017D01*
X45354Y13417D01*
X45601Y12820D01*
X45601Y12820D01*
X45601Y12820D01*
X45970Y12338D01*
X46390Y11792D01*
X46390Y11792D01*
X46390Y11792D01*
X46936Y11373D01*
X47418Y11003D01*
X47418Y11003D01*
X47418Y11003D01*
X48015Y10756D01*
X48615Y10507D01*
X48615Y10507D01*
X48615Y10507D01*
X49234Y10425D01*
X49900Y10338D01*
X56888Y10337D01*
X57300Y10297D01*
X57712Y10337D01*
X70730Y10336D01*
X71333Y10416D01*
X71937Y10485D01*
X71974Y10500D01*
X72015Y10505D01*
X72576Y10738D01*
X73142Y10961D01*
X73175Y10986D01*
X73212Y11001D01*
X73694Y11371D01*
X74182Y11733D01*
X74208Y11765D01*
X74240Y11790D01*
X74338Y11917D01*
X75569Y11259D01*
X77202Y10764D01*
X78900Y10597D01*
X80598Y10764D01*
X82231Y11259D01*
X83461Y11917D01*
X83559Y11789D01*
X83591Y11764D01*
X83617Y11732D01*
X84105Y11370D01*
X84587Y11000D01*
X84624Y10985D01*
X84657Y10960D01*
X85222Y10737D01*
X85784Y10504D01*
X85824Y10499D01*
X85862Y10484D01*
X86466Y10414D01*
X87068Y10335D01*
X124128Y10333D01*
X124660Y10402D01*
X125194Y10448D01*
X125301Y10487D01*
X125413Y10502D01*
X125909Y10707D01*
X126413Y10889D01*
X126506Y10954D01*
X126611Y10997D01*
X127036Y11324D01*
X127476Y11631D01*
X131047Y14891D01*
X131120Y14978D01*
X131210Y15047D01*
X131536Y15472D01*
X131881Y15882D01*
X131930Y15985D01*
X131999Y16075D01*
X132204Y16570D01*
X132431Y17055D01*
X132451Y17167D01*
X132495Y17272D01*
X132565Y17803D01*
X132659Y18331D01*
X132649Y18444D01*
X132664Y18557D01*
Y35100D01*
X132664Y35100D01*
X132495Y36385D01*
X131999Y37582D01*
X131210Y38610D01*
X131210Y38610D01*
X120810Y49010D01*
X120810Y49010D01*
X119782Y49799D01*
X118585Y50295D01*
X117300Y50464D01*
D02*
G37*
G36*
X213086Y28929D02*
X212161Y28808D01*
X211299Y28451D01*
X210559Y27883D01*
X209991Y27142D01*
X209634Y26281D01*
X209512Y25355D01*
X209634Y24430D01*
X209991Y23569D01*
X210559Y22828D01*
X211299Y22260D01*
X212161Y21903D01*
X213086Y21782D01*
X214011Y21903D01*
X214873Y22260D01*
X215613Y22828D01*
X216181Y23569D01*
X216538Y24430D01*
X216660Y25355D01*
X216538Y26281D01*
X216181Y27142D01*
X215613Y27883D01*
X214873Y28451D01*
X214011Y28808D01*
X213086Y28929D01*
D02*
G37*
G36*
X186314D02*
X185389Y28808D01*
X184527Y28451D01*
X183787Y27883D01*
X183219Y27142D01*
X182862Y26281D01*
X182740Y25355D01*
X182862Y24430D01*
X183219Y23569D01*
X183787Y22828D01*
X184527Y22260D01*
X185389Y21903D01*
X186314Y21782D01*
X187239Y21903D01*
X188101Y22260D01*
X188841Y22828D01*
X189409Y23569D01*
X189766Y24430D01*
X189888Y25355D01*
X189766Y26281D01*
X189409Y27142D01*
X188841Y27883D01*
X188101Y28451D01*
X187239Y28808D01*
X186314Y28929D01*
D02*
G37*
G36*
X226514Y28929D02*
X225589Y28807D01*
X224727Y28450D01*
X223987Y27882D01*
X223419Y27142D01*
X223062Y26280D01*
X222940Y25355D01*
X223062Y24430D01*
X223419Y23568D01*
X223987Y22828D01*
X224727Y22260D01*
X225589Y21903D01*
X226514Y21781D01*
X227439Y21903D01*
X228301Y22260D01*
X229041Y22828D01*
X229609Y23568D01*
X229966Y24430D01*
X230088Y25355D01*
X229966Y26280D01*
X229609Y27142D01*
X229041Y27882D01*
X228301Y28450D01*
X227439Y28807D01*
X226514Y28929D01*
D02*
G37*
%LPD*%
G36*
X127700Y35100D02*
Y18557D01*
X124129Y15296D01*
X87069Y15299D01*
X86812Y15728D01*
X86941Y15969D01*
X87436Y17602D01*
X87603Y19300D01*
X87436Y20998D01*
X86941Y22631D01*
X86137Y24135D01*
X85054Y25454D01*
X83735Y26537D01*
X82231Y27341D01*
X80598Y27836D01*
X78900Y28003D01*
X77202Y27836D01*
X75569Y27341D01*
X74065Y26537D01*
X72746Y25454D01*
X71663Y24135D01*
X70859Y22631D01*
X70364Y20998D01*
X70197Y19300D01*
X70364Y17602D01*
X70859Y15969D01*
X70988Y15729D01*
X70731Y15300D01*
X49900Y15302D01*
X49900Y45500D01*
X117300Y45500D01*
X127700Y35100D01*
D02*
G37*
D10*
X197887Y90397D02*
X210281D01*
X210469Y90209D01*
X197887Y90397D02*
Y90685D01*
X194073Y90709D02*
X194413Y91049D01*
Y94894D01*
X187500Y84355D02*
X210469D01*
X187500Y61100D02*
Y84355D01*
X210469D02*
Y86272D01*
X232322Y90209D02*
X236000Y86532D01*
Y79672D02*
Y86532D01*
X1457Y20484D02*
X3900Y18041D01*
X1457Y20484D02*
Y91084D01*
X10748Y100375D01*
X3900Y34582D02*
X13965Y44647D01*
X3900Y23159D02*
Y34582D01*
X11031Y2575D02*
X181644D01*
X7200Y6405D02*
X11031Y2575D01*
X7200Y6405D02*
Y18041D01*
X3900Y7200D02*
X10100Y1000D01*
X3900Y7200D02*
Y18041D01*
X181644Y2575D02*
X186314Y7245D01*
X220269Y1000D02*
X226514Y7245D01*
X10100Y1000D02*
X220269D01*
X255728Y79672D02*
X259100Y76300D01*
Y14300D02*
Y76300D01*
X256200Y11400D02*
X259100Y14300D01*
X14609Y28686D02*
Y34647D01*
X9082Y23160D02*
X14609Y28686D01*
X13965Y44647D02*
X14609D01*
X3800Y91200D02*
X11400Y98800D01*
X3800Y65456D02*
Y91200D01*
Y65456D02*
X14609Y54647D01*
X217241Y11400D02*
X256200D01*
X213086Y7245D02*
X217241Y11400D01*
X186314Y7245D02*
X213086D01*
X236000Y79672D02*
X255728D01*
X227516Y90209D02*
X232322D01*
X226514Y7245D02*
X253286D01*
X48113Y104100D02*
X52100D01*
X46640Y102627D02*
X48113Y104100D01*
X22915Y102627D02*
X46640D01*
X23568Y101052D02*
X31232D01*
X36652Y95589D02*
X38141Y94100D01*
X36652Y95589D02*
Y95632D01*
X31232Y101052D02*
X36652Y95632D01*
X38141Y94100D02*
X52100D01*
X20663Y100375D02*
X22915Y102627D01*
X10748Y100375D02*
X20663D01*
X21316Y98800D02*
X23568Y101052D01*
X11400Y98800D02*
X21316D01*
X7159Y23160D02*
X9082D01*
D11*
X197956Y94809D02*
X205850D01*
X206144Y86036D02*
X208338Y88230D01*
X186804Y86036D02*
X206144D01*
X205850Y94809D02*
X208481Y92178D01*
X210469D01*
X208338Y88230D02*
X210458D01*
X185819Y85051D02*
X186804Y86036D01*
X185819Y70319D02*
Y85051D01*
X210458Y88230D02*
X210469Y88241D01*
X158268Y61024D02*
X163024D01*
X163100Y61100D01*
X135000Y118200D02*
Y144800D01*
X131700Y148100D02*
X135000Y144800D01*
X104672Y148100D02*
X131700D01*
X104672D02*
X104943Y148372D01*
Y153700D01*
X181400Y65900D02*
X185819Y70319D01*
X164300Y65900D02*
X181400D01*
X163100Y64700D02*
X164300Y65900D01*
X163100Y61100D02*
Y64700D01*
X237172Y93528D02*
X237200Y93500D01*
X233400Y93528D02*
X237172D01*
X224304Y88241D02*
X227516D01*
X214088Y94065D02*
X214800Y93353D01*
Y79697D02*
Y93353D01*
X213669Y78565D02*
X214800Y79697D01*
X14609Y94647D02*
X16847D01*
X232049Y92178D02*
X233400Y93528D01*
X227516Y92178D02*
X232049D01*
X150000Y118200D02*
X151347Y116853D01*
X240772Y68694D02*
X243218D01*
X210550Y94065D02*
X214088D01*
X213653Y78581D02*
X213669Y78565D01*
X207269Y78581D02*
X213653D01*
X210469Y94146D02*
X210550Y94065D01*
D26*
X184309Y90709D02*
X194073D01*
X73100Y99100D02*
X79000D01*
X182275Y88675D02*
X184309Y90709D01*
X175600Y88675D02*
X182275D01*
X219241Y88241D02*
X224304D01*
X218500Y87500D02*
X219241Y88241D01*
X223500Y78565D02*
X228600D01*
X218500D02*
X223500D01*
X151347Y116853D02*
X157700D01*
X135000Y116100D02*
Y118200D01*
X139994Y87500D02*
Y98594D01*
X92900Y106400D02*
X98400Y111900D01*
X91072Y106400D02*
X92900D01*
X73100Y104100D02*
X75400Y106400D01*
X87528D01*
X27900Y112800D02*
X35728D01*
X27400Y113300D02*
X27900Y112800D01*
X61294Y100706D02*
Y106352D01*
X54845Y112800D02*
X61294Y106352D01*
X39272Y112800D02*
X54845D01*
X61294Y100706D02*
X67900Y94100D01*
X73100D01*
D27*
X213086Y7245D02*
D03*
Y25355D02*
D03*
X186314D02*
D03*
Y7245D02*
D03*
X253286Y7245D02*
D03*
Y25355D02*
D03*
X226514D02*
D03*
Y7245D02*
D03*
D28*
X142700Y19300D02*
D03*
X122700D02*
D03*
X57300Y19000D02*
D03*
X37300D02*
D03*
X98900Y19300D02*
D03*
X78900D02*
D03*
D29*
X27400Y70300D02*
D03*
Y91800D02*
D03*
Y113300D02*
D03*
X98400Y68900D02*
D03*
Y90400D02*
D03*
Y111900D02*
D03*
D30*
X244609Y34647D02*
D03*
Y44647D02*
D03*
Y54647D02*
D03*
Y64647D02*
D03*
Y74647D02*
D03*
Y84647D02*
D03*
Y94647D02*
D03*
Y104647D02*
D03*
Y114647D02*
D03*
Y124647D02*
D03*
Y134647D02*
D03*
X14609Y34647D02*
D03*
Y44647D02*
D03*
Y54647D02*
D03*
Y64647D02*
D03*
Y74647D02*
D03*
Y84647D02*
D03*
Y94647D02*
D03*
Y104647D02*
D03*
Y114647D02*
D03*
Y124647D02*
D03*
Y134647D02*
D03*
D31*
X244609Y144647D02*
D03*
X14609D02*
D03*
D32*
X196772Y75236D02*
D03*
X203858Y79961D02*
D03*
X199134D02*
D03*
X194409Y70512D02*
D03*
X241653D02*
D03*
Y61063D02*
D03*
X239291Y56339D02*
D03*
X241653Y51614D02*
D03*
Y42165D02*
D03*
X222756Y165000D02*
D03*
X220394Y160276D02*
D03*
X218032Y165000D02*
D03*
X215669Y160276D02*
D03*
X213307Y165000D02*
D03*
X210945Y160276D02*
D03*
X213307Y155551D02*
D03*
X210945Y150827D02*
D03*
X208583Y165000D02*
D03*
X206221Y160276D02*
D03*
X208583Y155551D02*
D03*
X206221Y150827D02*
D03*
Y65787D02*
D03*
X208583Y61063D02*
D03*
X203858Y165000D02*
D03*
X201496Y160276D02*
D03*
X203858Y155551D02*
D03*
X201496Y75236D02*
D03*
X203858Y70512D02*
D03*
Y61063D02*
D03*
X199134Y165000D02*
D03*
X196772Y160276D02*
D03*
X199134Y155551D02*
D03*
Y70512D02*
D03*
X196772Y65787D02*
D03*
X194409Y165000D02*
D03*
X192047Y160276D02*
D03*
X194409Y155551D02*
D03*
X192047Y150827D02*
D03*
Y141378D02*
D03*
X194409Y136653D02*
D03*
X192047Y131929D02*
D03*
X194409Y79961D02*
D03*
X192047Y75236D02*
D03*
X194409Y61063D02*
D03*
X189685Y165000D02*
D03*
X187323Y160276D02*
D03*
X189685Y155551D02*
D03*
X187323Y150827D02*
D03*
X189685Y146102D02*
D03*
X187323Y141378D02*
D03*
X189685Y136653D02*
D03*
X187323Y131929D02*
D03*
X189685Y98858D02*
D03*
X187323Y94134D02*
D03*
X184961Y165000D02*
D03*
X182598Y160276D02*
D03*
X184961Y155551D02*
D03*
Y136653D02*
D03*
X182598Y131929D02*
D03*
X184961Y98858D02*
D03*
X182598Y94134D02*
D03*
X180236Y165000D02*
D03*
X177874Y160276D02*
D03*
X180236Y155551D02*
D03*
Y136653D02*
D03*
X177874Y131929D02*
D03*
X180236Y98858D02*
D03*
X175512Y165000D02*
D03*
X173150Y160276D02*
D03*
X175512Y155551D02*
D03*
X173150Y150827D02*
D03*
Y141378D02*
D03*
X175512Y136653D02*
D03*
X173150Y131929D02*
D03*
X175512Y98858D02*
D03*
Y51614D02*
D03*
X173150Y46890D02*
D03*
X170787Y165000D02*
D03*
X168425Y160276D02*
D03*
X170787Y155551D02*
D03*
Y51614D02*
D03*
X168425Y46890D02*
D03*
X166063Y165000D02*
D03*
X163701Y160276D02*
D03*
X166063Y155551D02*
D03*
X163701Y56339D02*
D03*
X166063Y51614D02*
D03*
X163701Y46890D02*
D03*
X166063Y42165D02*
D03*
X163701Y37441D02*
D03*
X161339Y165000D02*
D03*
X158976Y160276D02*
D03*
X161339Y155551D02*
D03*
X158976Y84685D02*
D03*
Y75236D02*
D03*
Y65787D02*
D03*
Y56339D02*
D03*
X161339Y51614D02*
D03*
X158976Y46890D02*
D03*
X161339Y42165D02*
D03*
X158976Y37441D02*
D03*
X156614Y165000D02*
D03*
X154252Y160276D02*
D03*
X156614Y155551D02*
D03*
Y89410D02*
D03*
X154252Y84685D02*
D03*
X156614Y79961D02*
D03*
X154252Y75236D02*
D03*
X156614Y70512D02*
D03*
X154252Y65787D02*
D03*
X156614Y51614D02*
D03*
X154252Y46890D02*
D03*
X156614Y42165D02*
D03*
X154252Y37441D02*
D03*
X156614Y32717D02*
D03*
X154252Y27992D02*
D03*
X151890Y165000D02*
D03*
X149528Y160276D02*
D03*
X151890Y155551D02*
D03*
Y89410D02*
D03*
X149528Y84685D02*
D03*
X151890Y79961D02*
D03*
X149528Y75236D02*
D03*
X151890Y70512D02*
D03*
X149528Y65787D02*
D03*
X151890Y51614D02*
D03*
X149528Y46890D02*
D03*
X151890Y42165D02*
D03*
X149528Y37441D02*
D03*
X151890Y32717D02*
D03*
X149528Y27992D02*
D03*
X147165Y165000D02*
D03*
X144803Y160276D02*
D03*
X147165Y155551D02*
D03*
Y89410D02*
D03*
Y79961D02*
D03*
X144803Y75236D02*
D03*
X147165Y70512D02*
D03*
X144803Y65787D02*
D03*
X147165Y51614D02*
D03*
X144803Y46890D02*
D03*
X147165Y42165D02*
D03*
X144803Y37441D02*
D03*
X147165Y32717D02*
D03*
X144803Y27992D02*
D03*
X147165Y23268D02*
D03*
X142441Y165000D02*
D03*
X140079Y160276D02*
D03*
X142441Y155551D02*
D03*
X140079Y75236D02*
D03*
X142441Y70512D02*
D03*
X140079Y65787D02*
D03*
Y56339D02*
D03*
X142441Y51614D02*
D03*
X140079Y46890D02*
D03*
X142441Y42165D02*
D03*
X140079Y37441D02*
D03*
X142441Y32717D02*
D03*
X140079Y27992D02*
D03*
X137716Y165000D02*
D03*
X135354Y160276D02*
D03*
X137716Y155551D02*
D03*
X135354Y150827D02*
D03*
Y84685D02*
D03*
Y75236D02*
D03*
X137716Y70512D02*
D03*
X135354Y65787D02*
D03*
X137716Y61063D02*
D03*
X135354Y56339D02*
D03*
X137716Y51614D02*
D03*
X135354Y46890D02*
D03*
X137716Y42165D02*
D03*
X135354Y37441D02*
D03*
X137716Y32717D02*
D03*
Y23268D02*
D03*
X132992Y165000D02*
D03*
Y155551D02*
D03*
Y98858D02*
D03*
X130630Y94134D02*
D03*
X132992Y89410D02*
D03*
X130630Y84685D02*
D03*
X132992Y79961D02*
D03*
X130630Y75236D02*
D03*
X132992Y70512D02*
D03*
X128268Y165000D02*
D03*
Y98858D02*
D03*
Y89410D02*
D03*
X125906Y84685D02*
D03*
X128268Y79961D02*
D03*
X125906Y75236D02*
D03*
X128268Y70512D02*
D03*
X123543Y165000D02*
D03*
Y89410D02*
D03*
X121181Y84685D02*
D03*
X123543Y79961D02*
D03*
X121181Y75236D02*
D03*
X123543Y70512D02*
D03*
X118819Y165000D02*
D03*
Y89410D02*
D03*
X116457Y84685D02*
D03*
X118819Y79961D02*
D03*
X116457Y75236D02*
D03*
X118819Y70512D02*
D03*
X114094Y165000D02*
D03*
X111732Y160276D02*
D03*
Y150827D02*
D03*
Y113031D02*
D03*
Y103583D02*
D03*
X114094Y98858D02*
D03*
Y89410D02*
D03*
X111732Y84685D02*
D03*
X114094Y79961D02*
D03*
X111732Y75236D02*
D03*
X114094Y70512D02*
D03*
X109370Y165000D02*
D03*
X107008Y160276D02*
D03*
X109370Y155551D02*
D03*
Y117756D02*
D03*
X107008Y113031D02*
D03*
X109370Y108307D02*
D03*
X107008Y103583D02*
D03*
X109370Y79961D02*
D03*
X107008Y75236D02*
D03*
X109370Y70512D02*
D03*
X104646Y165000D02*
D03*
X102284Y160276D02*
D03*
X104646Y117756D02*
D03*
Y108307D02*
D03*
X102284Y103583D02*
D03*
Y75236D02*
D03*
X104646Y70512D02*
D03*
X99921Y165000D02*
D03*
X97559Y160276D02*
D03*
X99921Y155551D02*
D03*
Y117756D02*
D03*
X97559Y103583D02*
D03*
X95197Y165000D02*
D03*
X92835Y160276D02*
D03*
X95197Y155551D02*
D03*
Y117756D02*
D03*
X92835Y113031D02*
D03*
X90472Y165000D02*
D03*
X88110Y160276D02*
D03*
X90472Y155551D02*
D03*
Y117756D02*
D03*
X88110Y113031D02*
D03*
Y9094D02*
D03*
X85748Y165000D02*
D03*
X83386Y160276D02*
D03*
X85748Y155551D02*
D03*
Y117756D02*
D03*
X83386Y113031D02*
D03*
Y9094D02*
D03*
X81024Y165000D02*
D03*
X78661Y160276D02*
D03*
X81024Y155551D02*
D03*
Y117756D02*
D03*
X78661Y9094D02*
D03*
X76299Y165000D02*
D03*
X73937Y160276D02*
D03*
X76299Y155551D02*
D03*
X73937Y9094D02*
D03*
X71575Y165000D02*
D03*
X69213Y160276D02*
D03*
X71575Y155551D02*
D03*
X69213Y9094D02*
D03*
X66850Y165000D02*
D03*
X64488Y160276D02*
D03*
X66850Y155551D02*
D03*
X64488Y94134D02*
D03*
Y84685D02*
D03*
Y75236D02*
D03*
X62126Y165000D02*
D03*
X59764Y160276D02*
D03*
X62126Y155551D02*
D03*
X59764Y94134D02*
D03*
X62126Y89410D02*
D03*
Y79961D02*
D03*
Y70512D02*
D03*
X57402Y165000D02*
D03*
X55039Y160276D02*
D03*
X57402Y155551D02*
D03*
X55039Y150827D02*
D03*
Y141378D02*
D03*
Y131929D02*
D03*
Y122480D02*
D03*
X52677Y165000D02*
D03*
X50315Y160276D02*
D03*
X52677Y155551D02*
D03*
X50315Y150827D02*
D03*
X52677Y146102D02*
D03*
X50315Y141378D02*
D03*
X52677Y136653D02*
D03*
X50315Y131929D02*
D03*
X52677Y127205D02*
D03*
X50315Y122480D02*
D03*
X52677Y117756D02*
D03*
Y108307D02*
D03*
X47953Y165000D02*
D03*
X45590Y160276D02*
D03*
X47953Y155551D02*
D03*
X45590Y150827D02*
D03*
X47953Y146102D02*
D03*
Y136653D02*
D03*
X45590Y131929D02*
D03*
X47953Y127205D02*
D03*
X45590Y122480D02*
D03*
X47953Y117756D02*
D03*
Y108307D02*
D03*
X43228Y165000D02*
D03*
X40866Y160276D02*
D03*
X43228Y155551D02*
D03*
X40866Y150827D02*
D03*
Y131929D02*
D03*
X43228Y127205D02*
D03*
X40866Y122480D02*
D03*
X43228Y117756D02*
D03*
Y108307D02*
D03*
X38504Y165000D02*
D03*
X36142Y160276D02*
D03*
X38504Y155551D02*
D03*
X36142Y150827D02*
D03*
Y131929D02*
D03*
X38504Y127205D02*
D03*
X36142Y122480D02*
D03*
X38504Y117756D02*
D03*
Y108307D02*
D03*
X33779Y165000D02*
D03*
X31417Y160276D02*
D03*
X33779Y155551D02*
D03*
X31417Y150827D02*
D03*
X33779Y146102D02*
D03*
X31417Y141378D02*
D03*
X33779Y136653D02*
D03*
X31417Y131929D02*
D03*
X33779Y127205D02*
D03*
X31417Y122480D02*
D03*
X33779Y117756D02*
D03*
Y108307D02*
D03*
X29055Y165000D02*
D03*
X26693Y160276D02*
D03*
X29055Y155551D02*
D03*
X26693Y150827D02*
D03*
X29055Y146102D02*
D03*
X26693Y141378D02*
D03*
X29055Y136653D02*
D03*
X26693Y131929D02*
D03*
X29055Y127205D02*
D03*
X26693Y122480D02*
D03*
X29055Y108307D02*
D03*
X26693Y75236D02*
D03*
Y65787D02*
D03*
X24331Y165000D02*
D03*
X21969Y160276D02*
D03*
X24331Y155551D02*
D03*
X21969Y150827D02*
D03*
X24331Y146102D02*
D03*
X21969Y141378D02*
D03*
X24331Y136653D02*
D03*
X21969Y131929D02*
D03*
X24331Y127205D02*
D03*
X21969Y122480D02*
D03*
X24331Y117756D02*
D03*
X21969Y113031D02*
D03*
X24331Y108307D02*
D03*
Y79961D02*
D03*
X21969Y75236D02*
D03*
Y65787D02*
D03*
Y9094D02*
D03*
X19606Y165000D02*
D03*
X17244Y160276D02*
D03*
X19606Y155551D02*
D03*
X17244Y150827D02*
D03*
X19606Y127205D02*
D03*
Y117756D02*
D03*
Y108307D02*
D03*
Y79961D02*
D03*
Y70512D02*
D03*
Y61063D02*
D03*
Y51614D02*
D03*
Y23268D02*
D03*
X17244Y18543D02*
D03*
X19606Y13819D02*
D03*
X17244Y9094D02*
D03*
X14882Y165000D02*
D03*
X12520Y160276D02*
D03*
X14882Y155551D02*
D03*
X12520Y150827D02*
D03*
X14882Y89410D02*
D03*
Y79961D02*
D03*
Y23268D02*
D03*
X12520Y18543D02*
D03*
X14882Y13819D02*
D03*
X12520Y9094D02*
D03*
X10158Y165000D02*
D03*
X7795Y160276D02*
D03*
X10158Y155551D02*
D03*
X7795Y150827D02*
D03*
X10158Y146102D02*
D03*
X7795Y141378D02*
D03*
X10158Y136653D02*
D03*
X7795Y131929D02*
D03*
X10158Y127205D02*
D03*
X7795Y122480D02*
D03*
X10158Y117756D02*
D03*
X7795Y113031D02*
D03*
X10158Y108307D02*
D03*
X7795Y103583D02*
D03*
X10158Y89410D02*
D03*
X7795Y84685D02*
D03*
X10158Y79961D02*
D03*
X7795Y75236D02*
D03*
X10158Y70512D02*
D03*
X7795Y56339D02*
D03*
X10158Y51614D02*
D03*
X7795Y46890D02*
D03*
X10158Y32717D02*
D03*
X7795Y27992D02*
D03*
X5433Y165000D02*
D03*
X3071Y160276D02*
D03*
X5433Y155551D02*
D03*
X3071Y150827D02*
D03*
X5433Y146102D02*
D03*
X3071Y141378D02*
D03*
X5433Y136653D02*
D03*
X3071Y131929D02*
D03*
X5433Y127205D02*
D03*
X3071Y122480D02*
D03*
X5433Y117756D02*
D03*
X3071Y113031D02*
D03*
X5433Y108307D02*
D03*
X3071Y103583D02*
D03*
X5433Y98858D02*
D03*
Y61063D02*
D03*
Y51614D02*
D03*
Y42165D02*
D03*
X170600Y88675D02*
D03*
X175600D02*
D03*
X173100D02*
D03*
X168000D02*
D03*
X165600D02*
D03*
X163100D02*
D03*
D33*
X236000Y86532D02*
D03*
X203307Y90500D02*
D03*
X203346Y94809D02*
D03*
X158268Y61024D02*
D03*
X237200Y93500D02*
D03*
X79000Y99100D02*
D03*
D34*
X147900Y139200D02*
D03*
X123900D02*
D03*
D35*
X198500Y61100D02*
D03*
X187500D02*
D03*
D36*
X150000Y97940D02*
D03*
D37*
X145000D02*
D03*
X140000D02*
D03*
X135000D02*
D03*
X150000Y118940D02*
D03*
X145000D02*
D03*
X140000D02*
D03*
X135000D02*
D03*
D38*
X227516Y94146D02*
D03*
D39*
Y92178D02*
D03*
Y90209D02*
D03*
Y88241D02*
D03*
Y86272D02*
D03*
X210469Y94146D02*
D03*
Y92178D02*
D03*
Y90209D02*
D03*
Y88241D02*
D03*
Y86272D02*
D03*
D40*
X73100Y104100D02*
D03*
Y99100D02*
D03*
Y94100D02*
D03*
Y89100D02*
D03*
X52100Y104100D02*
D03*
Y99100D02*
D03*
Y94100D02*
D03*
D41*
Y89100D02*
D03*
D42*
X197900Y121294D02*
D03*
Y146491D02*
D03*
X178828D02*
D03*
Y121294D02*
D03*
D43*
X64906Y140528D02*
D03*
X39709D02*
D03*
D44*
X178100Y82900D02*
D03*
X173100D02*
D03*
X168100D02*
D03*
X163100D02*
D03*
Y61100D02*
D03*
X168100D02*
D03*
X173100D02*
D03*
X178100D02*
D03*
D45*
X94132Y131100D02*
D03*
X110668D02*
D03*
D46*
X236000Y76128D02*
D03*
Y79672D02*
D03*
X233400Y93528D02*
D03*
Y97072D02*
D03*
X207269Y75038D02*
D03*
Y78581D02*
D03*
D47*
X218500Y73053D02*
D03*
Y78565D02*
D03*
X223500Y73053D02*
D03*
Y78565D02*
D03*
X228600Y73053D02*
D03*
Y78565D02*
D03*
X213669D02*
D03*
Y73053D02*
D03*
D48*
X35728Y112800D02*
D03*
X39272D02*
D03*
X91072Y106400D02*
D03*
X87528D02*
D03*
X194344Y90685D02*
D03*
X197887D02*
D03*
X194413Y94894D02*
D03*
X197956D02*
D03*
X104672Y148100D02*
D03*
X101128D02*
D03*
X104943Y153700D02*
D03*
X101400D02*
D03*
D49*
X165200Y123547D02*
D03*
Y116853D02*
D03*
X157700Y123547D02*
D03*
Y116853D02*
D03*
X139994Y87500D02*
D03*
Y80807D02*
D03*
D50*
X3900Y18041D02*
D03*
Y23159D02*
D03*
X7200D02*
D03*
Y18041D02*
D03*
D51*
X125400Y139200D02*
X127100Y137500D01*
Y110047D02*
Y137500D01*
Y110047D02*
X131543Y105604D01*
X145296D01*
X150000Y100900D01*
Y97940D02*
Y100900D01*
Y97440D02*
Y97940D01*
D52*
X218500Y78565D02*
Y87500D01*
M02*
