G04 Layer_Physical_Order=1*
G04 Layer_Color=255*
%FSLAX25Y25*%
%MOIN*%
G70*
G01*
G75*
%ADD10R,0.08000X0.14000*%
%ADD11R,0.06500X0.03000*%
%ADD12R,0.15748X0.09842*%
%ADD13R,0.05400X0.02800*%
%ADD14R,0.13386X0.03937*%
%ADD15R,0.14000X0.08000*%
%ADD16O,0.03543X0.18504*%
%ADD17O,0.12992X0.05000*%
%ADD18C,0.01000*%
%ADD19C,0.03937*%
%ADD20C,0.01968*%
%ADD21C,0.05905*%
%ADD22R,0.05905X0.05905*%
%ADD23C,0.06693*%
%ADD24C,0.04724*%
%ADD25C,0.07874*%
%ADD26C,0.02362*%
%ADD27C,0.05000*%
%ADD28C,0.03150*%
G36*
X127500Y26700D02*
X129400Y24800D01*
X129300Y24700D01*
X129300Y15700D01*
X131981Y13019D01*
X137313Y13025D01*
X138084Y12392D01*
X139521Y11625D01*
X141079Y11152D01*
X142700Y10992D01*
X144321Y11152D01*
X145879Y11625D01*
X147316Y12392D01*
X148104Y13039D01*
X181782Y13082D01*
X213800Y45100D01*
X213800Y50500D01*
X232600Y50500D01*
X232600Y42500D01*
X195100Y5000D01*
X127100Y5000D01*
X117500Y14600D01*
Y14717D01*
X92300D01*
X92300Y52500D01*
X99952Y60152D01*
X100136Y60170D01*
X101806Y60676D01*
X103345Y61499D01*
X104443Y62400D01*
X127500Y62400D01*
X127500Y26700D01*
D02*
G37*
G36*
X54900Y86900D02*
X54900Y65500D01*
X51821Y62421D01*
X50279D01*
Y60879D01*
X44900Y55500D01*
X44900Y14200D01*
X25400D01*
Y54200D01*
X36500Y65300D01*
X36500Y79500D01*
X29100Y86900D01*
X23700D01*
X23533Y96543D01*
X23883Y96900D01*
X44900D01*
X54900Y86900D01*
D02*
G37*
G36*
X260700Y0D02*
X197195D01*
X197086Y496D01*
X197582Y701D01*
X198610Y1490D01*
X221785Y24665D01*
X222258Y24504D01*
X222295Y24225D01*
X222731Y23171D01*
X223426Y22266D01*
X224330Y21572D01*
X225384Y21136D01*
X226514Y20987D01*
X227645Y21136D01*
X228698Y21572D01*
X229603Y22266D01*
X230297Y23171D01*
X230733Y24225D01*
X230882Y25355D01*
X230733Y26486D01*
X230297Y27539D01*
X229603Y28444D01*
X228698Y29138D01*
X227645Y29574D01*
X227365Y29611D01*
X227204Y30085D01*
X233499Y36379D01*
X235521D01*
Y38401D01*
X236110Y38990D01*
X236899Y40018D01*
X237395Y41215D01*
X237564Y42500D01*
X237564Y50500D01*
X237395Y51785D01*
X236899Y52982D01*
X236110Y54010D01*
X235082Y54799D01*
X233885Y55295D01*
X232600Y55464D01*
X213800Y55464D01*
X212515Y55295D01*
X211318Y54799D01*
X210290Y54010D01*
X210290Y54010D01*
X209501Y52982D01*
X209005Y51785D01*
X208836Y50500D01*
X208836Y47156D01*
X179724Y18043D01*
X148097Y18003D01*
X147698Y17950D01*
X147295Y17937D01*
X147058Y17865D01*
X146813Y17832D01*
X146441Y17677D01*
X146055Y17560D01*
X145845Y17430D01*
X145616Y17335D01*
X145297Y17089D01*
X144955Y16876D01*
X144544Y16540D01*
X143971Y16233D01*
X143348Y16044D01*
X142700Y15980D01*
X142052Y16044D01*
X141429Y16233D01*
X140856Y16540D01*
X140462Y16862D01*
X140114Y17079D01*
X139789Y17327D01*
X139567Y17419D01*
X139362Y17547D01*
X138970Y17665D01*
X138592Y17822D01*
X138353Y17853D01*
X138122Y17923D01*
X137713Y17936D01*
X137307Y17989D01*
X134617Y17986D01*
X134264Y18339D01*
X134264Y24040D01*
X134364Y24800D01*
X134195Y26085D01*
X133699Y27282D01*
X132910Y28310D01*
X132910Y28310D01*
X132464Y28756D01*
X132464Y62400D01*
X132295Y63685D01*
X131799Y64882D01*
X131010Y65910D01*
X129982Y66699D01*
X128785Y67195D01*
X127500Y67364D01*
X104443Y67364D01*
X104040Y67311D01*
X103635Y67297D01*
X103401Y67226D01*
X103158Y67195D01*
X102783Y67039D01*
X102394Y66921D01*
X102187Y66792D01*
X101961Y66699D01*
X101639Y66452D01*
X101294Y66237D01*
X100574Y65646D01*
X99898Y65285D01*
X98871Y64973D01*
X98667Y64946D01*
X98441Y64853D01*
X98203Y64797D01*
X97845Y64606D01*
X97470Y64450D01*
X97276Y64302D01*
X97061Y64187D01*
X96764Y63909D01*
X96442Y63662D01*
X95002Y62221D01*
X93479D01*
Y60698D01*
X92226Y59446D01*
X91764Y59637D01*
Y69544D01*
X108558Y86338D01*
X108589Y86379D01*
X108629Y86410D01*
X108983Y86892D01*
X109347Y87366D01*
X109366Y87413D01*
X109397Y87454D01*
X109614Y88011D01*
X109843Y88563D01*
X109849Y88614D01*
X109868Y88661D01*
X109934Y89256D01*
X110012Y89848D01*
X110005Y89899D01*
X110011Y89949D01*
X109893Y95701D01*
X109803Y96292D01*
X109725Y96885D01*
X109706Y96932D01*
X109698Y96982D01*
X109458Y97530D01*
X109229Y98082D01*
X109198Y98122D01*
X109178Y98169D01*
X108804Y98636D01*
X108440Y99110D01*
X108400Y99141D01*
X108368Y99181D01*
X107887Y99535D01*
X107413Y99899D01*
X107365Y99918D01*
X107324Y99949D01*
X106767Y100166D01*
X106215Y100395D01*
X106165Y100401D01*
X106117Y100420D01*
X105523Y100486D01*
X104931Y100564D01*
X70600D01*
X69315Y100395D01*
X68118Y99899D01*
X67090Y99110D01*
X66301Y98082D01*
X65805Y96885D01*
X65636Y95600D01*
Y64799D01*
X65368Y64564D01*
X60120D01*
X59790Y64940D01*
X59864Y65500D01*
X59864Y86900D01*
X59864Y86900D01*
X59695Y88185D01*
X59199Y89382D01*
X58410Y90410D01*
X48410Y100410D01*
X48410Y100410D01*
X47382Y101199D01*
X46185Y101695D01*
X44900Y101864D01*
X23883D01*
X23862Y101861D01*
X23840Y101864D01*
X23219Y101776D01*
X22599Y101695D01*
X22579Y101686D01*
X22557Y101683D01*
X21980Y101438D01*
X21401Y101199D01*
X21384Y101186D01*
X21364Y101177D01*
X20870Y100791D01*
X20373Y100410D01*
X20360Y100393D01*
X20343Y100379D01*
X19993Y100023D01*
X19979Y100005D01*
X19963Y99992D01*
X19590Y99489D01*
X19213Y98988D01*
X19205Y98968D01*
X19192Y98950D01*
X18962Y98367D01*
X18727Y97786D01*
X18725Y97765D01*
X18717Y97745D01*
X18646Y97122D01*
X18569Y96500D01*
X18572Y96479D01*
X18570Y96457D01*
X18628Y93110D01*
X18499Y91800D01*
X18670Y90064D01*
X18681Y90026D01*
X18737Y86814D01*
X18826Y86216D01*
X18905Y85615D01*
X18922Y85575D01*
X18928Y85532D01*
X19170Y84977D01*
X19401Y84418D01*
X19428Y84384D01*
X19445Y84344D01*
X19822Y83870D01*
X20190Y83390D01*
X20224Y83364D01*
X20252Y83330D01*
X20738Y82970D01*
X21218Y82601D01*
X21258Y82585D01*
X21293Y82559D01*
X21856Y82337D01*
X22415Y82105D01*
X22458Y82100D01*
X22499Y82084D01*
X23100Y82015D01*
X23700Y81936D01*
X27044D01*
X31536Y77444D01*
X31536Y67356D01*
X26601Y62421D01*
X23279D01*
Y59099D01*
X21890Y57710D01*
X21890Y57710D01*
X21101Y56682D01*
X20605Y55485D01*
X20436Y54200D01*
Y14200D01*
X20605Y12915D01*
X21101Y11718D01*
X21890Y10690D01*
X22918Y9901D01*
X24115Y9405D01*
X25400Y9236D01*
X44900D01*
X46185Y9405D01*
X47382Y9901D01*
X47914Y10310D01*
X48335Y10137D01*
X48937Y9888D01*
X48939Y9888D01*
X48941Y9887D01*
X49578Y9804D01*
X50222Y9720D01*
X50224Y9720D01*
X50226Y9720D01*
X65377Y9747D01*
X66015Y9832D01*
X66653Y9916D01*
X66657Y9917D01*
X66662Y9918D01*
X67256Y10166D01*
X67850Y10412D01*
X67854Y10414D01*
X67858Y10416D01*
X68368Y10809D01*
X68443Y10867D01*
X69315Y10505D01*
X70600Y10336D01*
X86800D01*
X88085Y10505D01*
X89137Y10941D01*
X89818Y10419D01*
X91015Y9923D01*
X92300Y9753D01*
X115327D01*
X123590Y1490D01*
X124618Y701D01*
X125104Y500D01*
X125005Y0D01*
X0Y-0D01*
X-0Y169600D01*
X260700D01*
X260700Y0D01*
D02*
G37*
G36*
X65368Y14710D02*
X50218Y14684D01*
X49864Y15037D01*
X49864Y53444D01*
X53789Y57369D01*
X53789Y57369D01*
X54458Y58242D01*
X55331Y58911D01*
X55331Y58911D01*
X56020Y59600D01*
X65368D01*
X65368Y14710D01*
D02*
G37*
G36*
X105048Y89848D02*
X86800Y71600D01*
Y15300D01*
X70600D01*
Y95600D01*
X104931D01*
X105048Y89848D01*
D02*
G37*
%LPC*%
G36*
X253286Y29723D02*
X252155Y29574D01*
X251102Y29138D01*
X250197Y28444D01*
X249503Y27539D01*
X249067Y26486D01*
X248918Y25355D01*
X249067Y24225D01*
X249503Y23171D01*
X250197Y22266D01*
X251102Y21572D01*
X252155Y21136D01*
X253286Y20987D01*
X254416Y21136D01*
X255470Y21572D01*
X256375Y22266D01*
X257069Y23171D01*
X257505Y24225D01*
X257654Y25355D01*
X257505Y26486D01*
X257069Y27539D01*
X256375Y28444D01*
X255470Y29138D01*
X254416Y29574D01*
X253286Y29723D01*
D02*
G37*
G36*
X98400Y117834D02*
X97242Y117720D01*
X96129Y117382D01*
X95103Y116834D01*
X94204Y116096D01*
X93466Y115197D01*
X92918Y114171D01*
X92580Y113058D01*
X92466Y111900D01*
X92580Y110742D01*
X92918Y109629D01*
X93466Y108603D01*
X94204Y107704D01*
X95103Y106966D01*
X96129Y106418D01*
X97242Y106080D01*
X98400Y105966D01*
X99558Y106080D01*
X100671Y106418D01*
X101697Y106966D01*
X102596Y107704D01*
X103334Y108603D01*
X103882Y109629D01*
X104220Y110742D01*
X104334Y111900D01*
X104220Y113058D01*
X103882Y114171D01*
X103334Y115197D01*
X102596Y116096D01*
X101697Y116834D01*
X100671Y117382D01*
X99558Y117720D01*
X98400Y117834D01*
D02*
G37*
G36*
X226514Y11613D02*
X225384Y11464D01*
X224330Y11028D01*
X223426Y10334D01*
X222731Y9429D01*
X222295Y8375D01*
X222146Y7245D01*
X222295Y6114D01*
X222731Y5061D01*
X223426Y4156D01*
X224330Y3462D01*
X225384Y3026D01*
X226514Y2877D01*
X227645Y3026D01*
X228698Y3462D01*
X229603Y4156D01*
X230297Y5061D01*
X230733Y6114D01*
X230882Y7245D01*
X230733Y8375D01*
X230297Y9429D01*
X229603Y10334D01*
X228698Y11028D01*
X227645Y11464D01*
X226514Y11613D01*
D02*
G37*
G36*
X229800Y168775D02*
X228926Y168660D01*
X228112Y168323D01*
X227413Y167787D01*
X226877Y167088D01*
X226540Y166274D01*
X226425Y165400D01*
X226540Y164526D01*
X226877Y163712D01*
X227413Y163013D01*
X228112Y162477D01*
X228926Y162140D01*
X229161Y162109D01*
Y161604D01*
X228926Y161574D01*
X228112Y161237D01*
X227413Y160700D01*
X226877Y160001D01*
X226540Y159187D01*
X226516Y159007D01*
X218471D01*
X218204Y159507D01*
X218354Y159732D01*
X218507Y160500D01*
X218354Y161268D01*
X217919Y161919D01*
X217268Y162354D01*
X216500Y162507D01*
X216374Y162482D01*
X211679Y167178D01*
X211253Y167462D01*
X210750Y167562D01*
X13150D01*
X12647Y167462D01*
X12221Y167178D01*
X5972Y160928D01*
X5687Y160502D01*
X5587Y160000D01*
Y42356D01*
X5687Y41854D01*
X5972Y41428D01*
X10298Y37101D01*
X9814Y35932D01*
X9645Y34647D01*
X9814Y33362D01*
X10310Y32165D01*
X11099Y31137D01*
X12127Y30349D01*
X13324Y29853D01*
X14609Y29684D01*
X15893Y29853D01*
X17090Y30349D01*
X18119Y31137D01*
X18907Y32165D01*
X19403Y33362D01*
X19572Y34647D01*
X19403Y35932D01*
X18907Y37129D01*
X18119Y38157D01*
X17090Y38946D01*
X16017Y39391D01*
X16017Y39391D01*
Y39903D01*
X16017Y39904D01*
X17090Y40349D01*
X18119Y41137D01*
X18907Y42165D01*
X19403Y43363D01*
X19572Y44647D01*
X19403Y45932D01*
X18907Y47129D01*
X18119Y48157D01*
X17090Y48946D01*
X16017Y49391D01*
X16017Y49391D01*
Y49903D01*
X16017Y49904D01*
X17090Y50349D01*
X18119Y51137D01*
X18907Y52165D01*
X19403Y53363D01*
X19572Y54647D01*
X19403Y55932D01*
X18907Y57129D01*
X18119Y58157D01*
X17090Y58946D01*
X15893Y59442D01*
X14609Y59611D01*
X13324Y59442D01*
X12127Y58946D01*
X11099Y58157D01*
X10310Y57129D01*
X9814Y55932D01*
X9645Y54647D01*
X9814Y53363D01*
X10310Y52165D01*
X11099Y51137D01*
X12127Y50349D01*
X13200Y49904D01*
X13201Y49903D01*
Y49391D01*
X13200Y49391D01*
X12127Y48946D01*
X11099Y48157D01*
X10310Y47129D01*
X9814Y45932D01*
X9645Y44647D01*
X9814Y43363D01*
X10310Y42165D01*
X11099Y41137D01*
X12127Y40349D01*
X13200Y39904D01*
X13201Y39903D01*
Y39391D01*
X13200Y39391D01*
X12155Y38958D01*
X8213Y42900D01*
Y159456D01*
X13693Y164937D01*
X84293D01*
X84540Y164437D01*
X84349Y164188D01*
X84031Y163422D01*
X83923Y162600D01*
X83926Y162579D01*
X83600Y162207D01*
X82832Y162054D01*
X82181Y161619D01*
X81746Y160968D01*
X81593Y160200D01*
Y158031D01*
X77769Y154207D01*
X74100D01*
X73332Y154054D01*
X72755Y153668D01*
X72382D01*
Y153171D01*
X72246Y152968D01*
X72093Y152200D01*
Y147990D01*
X55006D01*
Y134210D01*
X74691D01*
Y134966D01*
X74779Y135019D01*
X75191Y135199D01*
X76242Y134880D01*
X77400Y134766D01*
X78558Y134880D01*
X79671Y135218D01*
X80697Y135766D01*
X81596Y136504D01*
X82334Y137403D01*
X82882Y138429D01*
X83220Y139542D01*
X83249Y139831D01*
X85887D01*
Y138890D01*
X85781Y138819D01*
X85346Y138168D01*
X85193Y137400D01*
X85346Y136632D01*
X85781Y135981D01*
X86432Y135546D01*
X87200Y135393D01*
X87968Y135546D01*
X88619Y135981D01*
X89054Y136632D01*
X89207Y137400D01*
X89054Y138168D01*
X88619Y138819D01*
X88513Y138890D01*
Y139831D01*
X91869D01*
Y145180D01*
X92019Y145281D01*
X92454Y145932D01*
X92607Y146700D01*
Y160200D01*
X92454Y160968D01*
X92019Y161619D01*
X91368Y162054D01*
X90600Y162207D01*
X90274Y162579D01*
X90277Y162600D01*
X90168Y163422D01*
X89851Y164188D01*
X89660Y164437D01*
X89907Y164937D01*
X210207D01*
X214518Y160626D01*
X214493Y160500D01*
X214646Y159732D01*
X214796Y159507D01*
X214529Y159007D01*
X212100D01*
X211332Y158854D01*
X210681Y158419D01*
X177281Y125019D01*
X176846Y124368D01*
X176693Y123600D01*
X176693Y61200D01*
X176846Y60432D01*
X177281Y59781D01*
X177932Y59346D01*
X178700Y59193D01*
X199000Y59193D01*
X199768Y59346D01*
X200419Y59781D01*
X200854Y60432D01*
X201007Y61200D01*
X201007Y92769D01*
X218531Y110293D01*
X221294Y110293D01*
X221526Y109845D01*
X221523Y109793D01*
X220617Y109098D01*
X219901Y108165D01*
X219450Y107078D01*
X219297Y105911D01*
X219450Y104745D01*
X219901Y103657D01*
X220292Y103147D01*
X220101Y102685D01*
X219415Y102595D01*
X218218Y102099D01*
X217190Y101310D01*
X217190Y101310D01*
X209690Y93810D01*
X209690Y93810D01*
X209339Y93352D01*
X208901Y92782D01*
X208405Y91585D01*
X208236Y90300D01*
X208236Y66109D01*
X208405Y64825D01*
X208901Y63628D01*
X209690Y62599D01*
X210718Y61811D01*
X211915Y61315D01*
X213200Y61146D01*
X233881Y61146D01*
X235166Y61315D01*
X236363Y61811D01*
X237391Y62599D01*
X238180Y63628D01*
X238676Y64825D01*
X238845Y66109D01*
Y82338D01*
X238886Y82622D01*
X238881Y82660D01*
X238886Y82698D01*
X238868Y88740D01*
X238975Y88840D01*
X239367Y88992D01*
X239885Y88646D01*
X240653Y88493D01*
X240757D01*
X240973Y87993D01*
X240310Y87129D01*
X239814Y85932D01*
X239645Y84647D01*
X239814Y83363D01*
X240310Y82165D01*
X241099Y81137D01*
X242127Y80348D01*
X243200Y79904D01*
X243200Y79903D01*
Y79391D01*
X243200Y79391D01*
X242127Y78946D01*
X241099Y78157D01*
X240310Y77129D01*
X239814Y75932D01*
X239645Y74647D01*
X239814Y73362D01*
X240310Y72165D01*
X241099Y71137D01*
X242127Y70349D01*
X243324Y69853D01*
X244609Y69683D01*
X245893Y69853D01*
X247091Y70349D01*
X248118Y71137D01*
X248907Y72165D01*
X249403Y73362D01*
X249572Y74647D01*
X249403Y75932D01*
X248907Y77129D01*
X248118Y78157D01*
X247091Y78946D01*
X246017Y79391D01*
X246017Y79391D01*
Y79903D01*
X246017Y79904D01*
X247091Y80348D01*
X248118Y81137D01*
X248907Y82165D01*
X249403Y83363D01*
X249572Y84647D01*
X249403Y85932D01*
X248907Y87129D01*
X248245Y87993D01*
X248461Y88493D01*
X250400D01*
X251168Y88646D01*
X251819Y89081D01*
X252254Y89732D01*
X252407Y90500D01*
X252407Y157000D01*
X252254Y157768D01*
X251819Y158419D01*
X251168Y158854D01*
X250400Y159007D01*
X248417D01*
X248111Y159507D01*
X248453Y160334D01*
X248607Y161500D01*
X248453Y162666D01*
X248003Y163753D01*
X247287Y164687D01*
X246354Y165403D01*
X245267Y165854D01*
X244100Y166007D01*
X242934Y165854D01*
X241846Y165403D01*
X240913Y164687D01*
X240197Y163753D01*
X239746Y162666D01*
X239593Y161500D01*
X239746Y160334D01*
X240089Y159507D01*
X239783Y159007D01*
X233084D01*
X233060Y159187D01*
X232723Y160001D01*
X232187Y160700D01*
X231488Y161237D01*
X230674Y161574D01*
X230439Y161604D01*
Y162109D01*
X230674Y162140D01*
X231488Y162477D01*
X232187Y163013D01*
X232723Y163712D01*
X233060Y164526D01*
X233175Y165400D01*
X233060Y166274D01*
X232723Y167088D01*
X232187Y167787D01*
X231488Y168323D01*
X230674Y168660D01*
X229800Y168775D01*
D02*
G37*
G36*
X253286Y11613D02*
X252155Y11464D01*
X251102Y11028D01*
X250197Y10334D01*
X249503Y9429D01*
X249067Y8375D01*
X248918Y7245D01*
X249067Y6114D01*
X249503Y5061D01*
X250197Y4156D01*
X251102Y3462D01*
X252155Y3026D01*
X253286Y2877D01*
X254416Y3026D01*
X255470Y3462D01*
X256375Y4156D01*
X257069Y5061D01*
X257505Y6114D01*
X257654Y7245D01*
X257505Y8375D01*
X257069Y9429D01*
X256375Y10334D01*
X255470Y11028D01*
X254416Y11464D01*
X253286Y11613D01*
D02*
G37*
G36*
X27400Y119234D02*
X26242Y119120D01*
X25129Y118782D01*
X24103Y118234D01*
X23204Y117496D01*
X22466Y116597D01*
X21918Y115571D01*
X21580Y114458D01*
X21466Y113300D01*
X21580Y112142D01*
X21918Y111029D01*
X22466Y110003D01*
X23204Y109104D01*
X24103Y108366D01*
X25129Y107818D01*
X26242Y107480D01*
X27400Y107366D01*
X28558Y107480D01*
X29671Y107818D01*
X30697Y108366D01*
X31596Y109104D01*
X32334Y110003D01*
X32882Y111029D01*
X33220Y112142D01*
X33334Y113300D01*
X33220Y114458D01*
X32882Y115571D01*
X32334Y116597D01*
X31596Y117496D01*
X30697Y118234D01*
X29671Y118782D01*
X28558Y119120D01*
X27400Y119234D01*
D02*
G37*
G36*
X113669Y161568D02*
X104332D01*
Y160403D01*
X94200D01*
X93893Y160342D01*
X93632Y160168D01*
X93458Y159907D01*
X93397Y159600D01*
Y141800D01*
X93458Y141493D01*
X93632Y141232D01*
X93893Y141058D01*
X94200Y140997D01*
X96794D01*
Y139540D01*
X96746Y139468D01*
X96593Y138700D01*
X96746Y137932D01*
X97181Y137281D01*
X97832Y136846D01*
X98600Y136693D01*
X99368Y136846D01*
X100019Y137281D01*
X100454Y137932D01*
X100607Y138700D01*
X100454Y139468D01*
X100406Y139540D01*
Y140997D01*
X104332D01*
Y139831D01*
X105899D01*
X113297Y133739D01*
X113297Y113500D01*
X113358Y113193D01*
X113532Y112932D01*
X113793Y112758D01*
X114100Y112697D01*
X128600Y112697D01*
X128907Y112758D01*
X129168Y112932D01*
X129342Y113193D01*
X129403Y113500D01*
Y115062D01*
X129715Y115469D01*
X130165Y116556D01*
X130319Y117722D01*
X130165Y118889D01*
X129715Y119976D01*
X129403Y120382D01*
Y126873D01*
X129715Y127279D01*
X130165Y128367D01*
X130319Y129533D01*
X130165Y130700D01*
X129715Y131787D01*
X129403Y132194D01*
X129403Y138684D01*
X129715Y139091D01*
X130165Y140178D01*
X130319Y141344D01*
X130165Y142511D01*
X129715Y143598D01*
X129403Y144004D01*
Y150495D01*
X129715Y150902D01*
X130165Y151989D01*
X130319Y153155D01*
X130165Y154322D01*
X129715Y155409D01*
X129403Y155815D01*
Y158500D01*
X129342Y158807D01*
X129168Y159068D01*
X128907Y159242D01*
X128600Y159303D01*
X113669D01*
Y161568D01*
D02*
G37*
%LPD*%
G36*
X90600Y146700D02*
X74691D01*
Y147990D01*
X74100D01*
Y152200D01*
X78600D01*
X83600Y157200D01*
Y160200D01*
X90600D01*
Y146700D01*
D02*
G37*
G36*
X250400Y90500D02*
X240653Y90500D01*
X240300Y90854D01*
X240300Y107500D01*
X235500Y112300D01*
X217700Y112300D01*
X199000Y93600D01*
X199000Y61200D01*
X178700Y61200D01*
X178700Y123600D01*
X212100Y157000D01*
X226722D01*
X226877Y156626D01*
X227413Y155927D01*
X228112Y155390D01*
X228926Y155053D01*
X229800Y154938D01*
X230674Y155053D01*
X231488Y155390D01*
X232187Y155927D01*
X232723Y156626D01*
X232878Y157000D01*
X250400D01*
X250400Y90500D01*
D02*
G37*
G36*
X233877Y97800D02*
X233922Y82683D01*
X233881Y82642D01*
Y66109D01*
X213200Y66109D01*
X213200Y90300D01*
X220700Y97800D01*
X233877Y97800D01*
D02*
G37*
G36*
X111700Y158500D02*
X128600D01*
X128600Y113500D01*
X114100Y113500D01*
X114100Y134118D01*
X104771Y141800D01*
X94200D01*
Y159600D01*
X111700D01*
Y158500D01*
D02*
G37*
D10*
X32200Y50500D02*
D03*
X59200D02*
D03*
X75400Y50300D02*
D03*
X102400D02*
D03*
D11*
X77600Y161200D02*
D03*
Y150200D02*
D03*
D12*
X64848Y141100D02*
D03*
X33352D02*
D03*
D13*
X87200Y158200D02*
D03*
Y153200D02*
D03*
Y148200D02*
D03*
Y143200D02*
D03*
X109000D02*
D03*
Y148200D02*
D03*
Y153200D02*
D03*
Y158200D02*
D03*
D14*
X150800Y58500D02*
D03*
X115800D02*
D03*
D15*
X223600Y72300D02*
D03*
Y45300D02*
D03*
D16*
X184600Y35900D02*
D03*
Y71727D02*
D03*
D17*
X227900Y94689D02*
D03*
Y106500D02*
D03*
Y118311D02*
D03*
Y130122D02*
D03*
Y141933D02*
D03*
Y153744D02*
D03*
X121916Y94689D02*
D03*
Y106500D02*
D03*
Y118311D02*
D03*
Y130122D02*
D03*
Y141933D02*
D03*
Y153744D02*
D03*
D18*
X86600Y158800D02*
X87100Y159300D01*
X210750Y166250D02*
X216500Y160500D01*
X6900Y160000D02*
X13150Y166250D01*
X210750D01*
X6900Y42356D02*
Y160000D01*
X87100Y159300D02*
Y162600D01*
X87200Y137400D02*
Y143200D01*
X6900Y42356D02*
X14609Y34647D01*
X86600Y158800D02*
X87200Y158200D01*
D19*
X77000Y141100D02*
X77400Y140700D01*
X64848Y141100D02*
X77000D01*
D20*
X100700Y148200D02*
X109000D01*
X98600Y146100D02*
X100700Y148200D01*
X98600Y138700D02*
Y146100D01*
X244100Y155800D02*
Y161500D01*
D21*
X244609Y34647D02*
D03*
Y44647D02*
D03*
Y54647D02*
D03*
Y64647D02*
D03*
Y74647D02*
D03*
Y84647D02*
D03*
Y94647D02*
D03*
Y104647D02*
D03*
Y114647D02*
D03*
Y124647D02*
D03*
Y134647D02*
D03*
X14609Y34647D02*
D03*
Y44647D02*
D03*
Y54647D02*
D03*
Y64647D02*
D03*
Y74647D02*
D03*
Y84647D02*
D03*
Y94647D02*
D03*
Y104647D02*
D03*
Y114647D02*
D03*
Y124647D02*
D03*
Y134647D02*
D03*
D22*
X244609Y144647D02*
D03*
X14609D02*
D03*
D23*
X37300Y19000D02*
D03*
X57300D02*
D03*
X78900Y19300D02*
D03*
X98900D02*
D03*
X142700D02*
D03*
X122700D02*
D03*
D24*
X226514Y7245D02*
D03*
Y25355D02*
D03*
X253286D02*
D03*
Y7245D02*
D03*
D25*
X98400Y68900D02*
D03*
Y90400D02*
D03*
Y111900D02*
D03*
X27400Y113300D02*
D03*
Y91800D02*
D03*
Y70300D02*
D03*
X77400Y140700D02*
D03*
D26*
X98600Y138700D02*
D03*
X87100Y162600D02*
D03*
X216500Y160500D02*
D03*
X87200Y137400D02*
D03*
D27*
X256700Y161400D02*
D03*
X244100Y161500D02*
D03*
D28*
X17821Y10545D02*
D03*
X65065Y105033D02*
D03*
X49317Y136529D02*
D03*
X112309Y73537D02*
D03*
X159554Y42041D02*
D03*
X143805Y73537D02*
D03*
X159554Y105033D02*
D03*
X191050Y42041D02*
D03*
X238294Y10545D02*
D03*
X2073Y18419D02*
D03*
Y112907D02*
D03*
X61128Y89285D02*
D03*
X72939Y112907D02*
D03*
X155617Y42041D02*
D03*
X143806Y65663D02*
D03*
X179239Y42041D02*
D03*
X238294Y18419D02*
D03*
M02*
