M48
;Layer_Color=9474304
;FILE_FORMAT=2:5
INCH,LZ
;TYPE=PLATED
T1F00S00C0.01181
T2F00S00C0.02953
T3F00S00C0.03543
T4F00S00C0.05512
T5F00S00C0.05906
%
T01
X-0001864Y0002671
X-0001863Y0002671
X0002074
X0000105Y0006608
X-0001863Y0010545
X0000105Y0014482
X-0001863Y0018419
Y0026293
Y0034167
X0007979Y003023
X0011916
Y0022356
Y0014482
X0009948Y0010545
X0011916Y0006608
X0015853
X001979
X0023727
X0027664
X0031601
X0035538
X0039475
X0043412
X0047349
X0051286
X0055223
X005916
X0063097
X0067034
X0070971
X0074908
X0078845
X0082782
X0086719
X0090656
X0094593
X009853
X0102467
X0106404
X0110341
X0114278
X01379Y0022356
X0135932Y0026293
X0139869
X0143806
X0147743
X015168
X0153648Y003023
X0149711
X0145774
X0141837
X01379
X0133963
X0135932Y0034167
X0139869
X0143806
X0147743
X015168
X0155617
X0159554
X0161522Y0038104
X0157585
X0153648
X0149711
X0145774
X0141837
X01379
X0133963
X0017822Y0026293
X0015853Y0022356
X0013885Y0018419
X0017822
X0015853Y0014482
X0013885Y0010545
X0017822
X0175302
X0179239
X0183176
X0185144Y0014482
X0189082
X0193018
X0196956
X0200893
X020483
X0208767
X0212704
X0216641
X0220578
X0224515
X0228452
X0232389
X0236326
X0240263
X02442
X0242231Y0018419
X0246168
X0238294
X0234357
X023042
X0226483
X0222546
X0218609
X0214672
X0210735
X0206798
X0202861
X0198924
X0194987
X019105
X0187113
X0183176
X0181208Y0014482
Y0006608
X017727
X0173334
X019105Y0010545
X0194987
X0198924
X0202861
X0206798
X0240263Y003023
Y0038104
X0242231Y0049915
X0246168
X0238294Y0057789
X0234357
X023042
X0226483
X0222546
X0218609
X0214672
X0210735
X0206798
X0202861
X0204829Y0061726
X020483Y0061726
X0208767
X0206798Y0065663
X0202861
X020483Y00696
X0200893
X0196956
X0193018
X019105Y0073537
X0194987
X0198924
X0202861
X0200893Y0077474
X0196956
X0193018
X0194987Y0081411
X0194987Y0081411
X019105
X0198924
X0202861
X0194987Y0065663
X0193018Y0061726
X0194987Y0057789
X017727Y0053852
X0173334
X0169396
X0171365Y0049915
X0175302
X0169396Y0045978
X01706Y0088675
X01731
X01756
X0181208Y0093222
X0179239Y0097159
X0183176
X0187113
X0185144Y0101096
X0185144Y0101096
X0181208Y0101096
X017727
X0173334
Y0132592
X017727
X0181208
X0185144
X0189082
X0193018
X019105Y0136529
X0187113
X0183176
X0179239
X0175302
X0171365
Y0144404
Y0152278
X0173334Y0156214
X017727
X0181208
X0185144
X0189082
X0193018
X0196956
X0200893
X020483
X0208767
X0212704
X0210735Y0160152
X0206798
X0202861
X0198924
X0194987
X019105
X0187113
X0183176
X0179239
X0175302
X0171365
X0173334Y0164088
X0169396
X017727
X0181208
X0185144
X0189082
X0193018
X0196956
X0200893
X020483
X0208767
X0212704
X0216641
X0214672Y0160152
X0220512Y0158976
X0222008Y0160551
X0223543Y0162087
X0225079Y0163622
X0226614Y0165157
X0210735Y0152278
X0206798
X0208767Y014834
X020483
X0189082
X0187113Y0152278
X019105
Y0144404
X0187113
X0189082Y0140466
X0185144
X0185144Y0140466
X0194987Y0136529
X0169396Y0156214
X0240263Y00696
X02442
X0240263Y0061726
X016546Y0053852
X0161522
X0157585
X0153648
X0149711
X0145774
X0141837
X01379
X0133963
X0135932Y0057789
X0139869
X0143806
X0145774Y0061726
X0145774Y0061726
X0141837
X01379
X0133963
X0135932Y0065663
X0139869
X0143806
X0147743
X015168
X0155617
X0159554
X0157585Y00696
X0153648
X0149711
X0145774
X0141837
X01379
X0133963
X0130026
X0126089
X0122152
X0118215
X0114278
X0110341
X0106404
X0108373Y0073537
X011231
X0116247
X0120184
X0124121
X0128058
X0131995
X0135932
X0139869
X0143806
X0147743
X015168
X0155617
X0159554
X0157585Y0077474
X0153648
X0149711
X0145774
X0147743Y0081411
X015168
X0155617Y0081411
X0155617Y0081411
X0159554
X0157585Y0085348
X0153648
X0149711
X0145774
X0147743Y0089285
X015168
X0155617
X01631Y0088675
X01656
X0168
X0145774Y0093222
X0133963
X0130026
X0128058Y0089285
X0131995
X0133963Y0085348
X0130026
X0126089
X0124121Y0081411
X0128058
X0131995
X0133963Y0077474
X0130026
X0126089
X0122152
X0118215
X0114278
X0110341
X0106404
X0102467
X0108373Y0081411
X011231
X0116246Y0081411
X0116247Y0081411
X0120184
X0110341Y0085348
X011231Y0089285
Y0097159
X0114278Y0101096
X0118215
X0122152
X0126089Y0101096
X0126089Y0101096
X0130026
X0131995Y0097159
X0110341Y0101096
X0108373Y0105033
X011231
X0110341Y010897
X0106404
X0104436Y0105033
X0100499
X0096562
X0092625Y0112907
X0088688
X0084751
X0080814
X0082782Y0116844
X0086719
X0090656
X0088688Y0120781
X0092625
X0096561Y0120781
X0096562Y0120781
X0100499
X0106404Y0116844
X0110341
X0108373Y0112907
X011231
X0084751Y0120781
X0080814
X0078845Y0116844
X0055223
X0051286
X0047349
X0043412
X0039475
X0035538
X0037506Y0120781
X0037507Y0120781
X003357
X0029633
X0025696
X0021759
X0017822
X0017821Y0120781
X001979Y0116844
X0021759Y0112907
X001979Y010897
X0021759Y0105033
X0035538Y010897
X0039475
X0043412
X0047349
X0051286
X0057192Y0105033
Y0097159
X005916Y0093222
X0063097
X0061129Y0089285
X0063097Y0085348
X0061129Y0081411
X0063097Y0077474
X0061129Y0073537
X0063097Y00696
X0025696Y0065663
X0021759
X001979Y0061726
Y00696
X0015853
X0021759Y0073537
X0023727Y0077474
X0027664
X001979
X0013885Y0089285
X001979Y0124718
X0023727
X0027664
X0031601
X0035538
X0039475
X0043412
X0047349
X0051286
X0055223
X0053255Y0120781
X0049318
X0045381
X0041444
Y0128655
X0037507
X003357
X0029633
X0025696
X0021759
X0017822
X001979Y0132592
X0023727
X0027664
X0031601
X0035538
X0039475
X0043412
X0047349
X0051286
X0055223
X0053255Y0136529
X0049318
X0051286Y0140466
X0047349
X0047349Y0140466
X0049318Y0144404
X0053255
X0055223Y014834
X0051286
X0047349
X0043412
X0039475
X0035538
X0031601
X0027664
X0023727
X001979
X0017822Y0152278
X0013885
X0015853Y0156214
X001979
X0023727
X0027664
X0031601
X0035538
X0039475
X0043412
X0047349
X0051286
X0055223
X005916
X0063097
X0067034
X0070971
X0074908
X0078845
X0082782
X0086719
X0090656
X0094593
X009853
X0096562Y0152278
X0092625
X0088688
X0084751
X0080814
X0076877
X007294
X0069003
X0065066
X0061129
X0057192
X0053255
X0049318
X0045381
X0041444
X0037507
X003357
X0029633
X0025696
X0021759
Y0160152
X0017822
X0013885
X0015853Y0164088
X001979
X0023727
X0027664
X0031601
X0035538
X0039475
X0043412
X0047349
X0051286
X0055223
X005916
X0063097
X0067034
X0070971
X0074908
X0078845
X0082782
X0086719
X0090656
X0094593
X009853
X0102467
X0106404
X0110341
X0114278
X0118215
X0122152
X0126089
X0130026
X0133963
X01379
X0141837
X0145774
X0149711
X0153648
X0157585
X0161522
X016546
X0163491Y0160152
X0159554
X0155617
X015168
X0147743
X0143806
X0139869
X0135932
X0131995
X0133963Y0156214
X01379
X0141837
X0145774
X0149711
X0153648
X0157585
X0161522
X016546
X0163491Y0152278
X0159554
X0155617
X015168
X0147743
X0143806
X0139869
X0135932
X0131995
X0108373
X0110341Y0156214
X0108373Y0160152
X0104436
X0100499
X0096562
X0092625
X0088688
X0084751
X0080814
X0076877
X007294
X0069003
X0065066
X0061129
X0057192
X0053255
X0049318
X0045381
X0041444
X0037507
X003357
X0029633
X0025696
Y0144404
X0029633
X0031601Y0140466
X0027664
X0027664Y0140466
X0023727Y0140466
X001979
X0021759Y0136529
X0025696
X0029633
X0021759Y0144404
X0055223Y0140466
X0053255Y0128655
X0049318
X0045381
X0017822Y0049915
X0135932
X0139869
X0143806
X0147743
X015168
X0155617
X0159554
X0163491
X0167428
X016546Y0045978
X0161522
X0157585
X0153648
X0149711
X0145774
X0141837
X01379
X0133963
X0135932Y0042041
X0135932Y0042041
X0139869
X0143806
X0147743
X015168
X0155617Y0042041
X0155617Y0042041
X0159554
X0163491
X0167428
Y0152278
Y0160152
X0009948
X0006011
X0002074
X-0001863
X0000105Y0156214
X0004042
X0007979
X0011916
X0009948Y0152278
X0006011
X0002074
X-0001863
X0000105Y014834
X0004042
X0007979
X0006011Y0144404
X0009948
X0007979Y0140466
X0007979Y0140466
X0004042Y0140466
X0000105
X-0001863Y0136529
X0002074
X0006011
X0009948
X0007979Y0132592
X0004042
X0000105
X-0001863Y0128655
X0002074
X0006011
X0009948
X0007979Y0124718
X0004042
X0000105
X-0001863Y0120781
X-0001864Y0120781
X0002074Y0120781
X0006011
X0009948
X0007979Y0116844
X0004042
X0000105
X-0001863Y0112907
X0002074
X0006011
X0009948
X0011916Y010897
X0007979
X0004042
X0000105
X-0001863Y0105033
X0002074
X0006011
X0009948
X0007979Y0101096
X0007979Y0101096
X0004042Y0101096
X0000105
X-0001863Y0097159
X0002074
X0000105Y0093222
X-0001863Y0089285
Y0081411
X-0001864Y0081411
X-0001863Y0073537
Y0065663
Y0057789
Y0049915
X0006011
X0009948
X0007979Y0053852
X0004042
X0006011Y0057789
X0004042Y0061726
X0009948Y0065663
X0011916Y00696
X0007979
X0009948Y0073537
X0007979Y0077474
X0009948Y0081411
X0007979Y0085348
X0009948Y0089285
X0007979Y0045978
X0004042
X0006011Y0042041
X-0001863
X-0001864Y0042041
X-0001863Y0144404
X0002074
X0004042Y0164088
X0007979
X0011916
X0000105
T02
X0186314Y0007245
Y0025355
X0213086
X0226514Y0025355
Y0007245
X0213086Y0007245
X0253286Y0007245
Y0025355
T03
X0014609Y0034647
X0244609
Y0044647
Y0054647
Y0064647
Y0074647
Y0084647
Y0094647
Y0104647
Y0114647
Y0124647
Y0134647
Y0144647
X0014609
Y0134647
Y0124647
Y0114647
Y0104647
Y0094647
Y0084647
Y0074647
Y0064647
Y0054647
Y0044647
T04
X0029213Y007122
Y0092638
Y0114055
X0099724Y0113347
Y0091929
Y0070512
T05
X00373Y0019
X00573
X00789Y00193
X00989
X01227
X01427
M30
