G04*
G04 #@! TF.GenerationSoftware,Altium Limited,Altium Designer,19.0.12 (326)*
G04*
G04 Layer_Physical_Order=1*
G04 Layer_Color=255*
%FSLAX25Y25*%
%MOIN*%
G70*
G01*
G75*
%ADD13R,0.06614X0.11614*%
%ADD14R,0.08000X0.14000*%
%ADD15O,0.12992X0.05000*%
%ADD16R,0.13386X0.03937*%
%ADD17R,0.14000X0.08000*%
%ADD30C,0.01968*%
%ADD31C,0.08268*%
%ADD32R,0.08268X0.08268*%
%ADD33C,0.04724*%
%ADD34C,0.07480*%
%ADD35C,0.05906*%
%ADD36R,0.05906X0.05906*%
%ADD37C,0.02362*%
G36*
X238445Y167047D02*
X245804D01*
X245804Y167047D01*
Y154819D01*
X245673Y154689D01*
X243819D01*
X243358Y154597D01*
X242968Y154336D01*
X242706Y153945D01*
X242615Y153484D01*
X242615Y151630D01*
X238445Y147461D01*
X238445Y115486D01*
X222461Y115486D01*
X222461Y159509D01*
X230044Y167091D01*
X238445Y167047D01*
D02*
G37*
G36*
X264606Y90500D02*
X244172Y90500D01*
X243819Y90854D01*
X243819Y153484D01*
X247008D01*
Y167047D01*
X264606Y167047D01*
X264606Y90500D01*
D02*
G37*
G36*
X228925Y167676D02*
X228131Y166881D01*
X228100Y166860D01*
X228080Y166830D01*
X226595Y165346D01*
X226565Y165325D01*
X226544Y165295D01*
X225060Y163810D01*
X225029Y163790D01*
X225009Y163759D01*
X223524Y162275D01*
X223494Y162254D01*
X223473Y162224D01*
X221610Y160360D01*
X221349Y159969D01*
X221257Y159509D01*
X221257Y159509D01*
X221257Y115486D01*
X221349Y115025D01*
X221610Y114635D01*
X222001Y114374D01*
X222461Y114282D01*
X238445Y114282D01*
X238906Y114374D01*
X239297Y114635D01*
X239558Y115025D01*
X239649Y115486D01*
X239649Y146962D01*
X242153Y149466D01*
X242615Y149274D01*
X242615Y90854D01*
X242615Y90854D01*
X242706Y90393D01*
X242967Y90002D01*
X243321Y89648D01*
X243711Y89387D01*
X244172Y89296D01*
X244172Y89296D01*
X259681Y89296D01*
Y28665D01*
X258944Y27927D01*
X258262Y28450D01*
X257400Y28807D01*
X256475Y28929D01*
X255550Y28807D01*
X254688Y28450D01*
X253948Y27882D01*
X253703Y27563D01*
X239908D01*
X239661Y28063D01*
X240088Y28618D01*
X240353Y29260D01*
X240584Y29816D01*
X240584Y29816D01*
X240584Y29816D01*
X240664Y30424D01*
X240753Y31100D01*
X240753Y50500D01*
X240584Y51785D01*
X240088Y52982D01*
X239299Y54010D01*
X238271Y54799D01*
X237074Y55295D01*
X235789Y55464D01*
X188089Y55464D01*
X186804Y55295D01*
X185607Y54799D01*
X184579Y54010D01*
X150582Y20012D01*
X150236Y19562D01*
X149876Y19124D01*
X149843Y19049D01*
X149793Y18984D01*
X149576Y18460D01*
X149342Y17943D01*
X149322Y17878D01*
X148978Y17236D01*
X148516Y16673D01*
X147953Y16211D01*
X147311Y15867D01*
X146614Y15656D01*
X145889Y15584D01*
X145164Y15656D01*
X144467Y15867D01*
X143825Y16211D01*
X143039Y16856D01*
X142694Y17070D01*
X142372Y17317D01*
X142146Y17411D01*
X141938Y17540D01*
X141550Y17658D01*
X141174Y17813D01*
X140932Y17845D01*
X140698Y17916D01*
X140292Y17929D01*
X139890Y17982D01*
X137453Y17982D01*
X137453Y24040D01*
X137553Y24800D01*
X137384Y26085D01*
X136888Y27282D01*
X136099Y28310D01*
X136099Y28310D01*
X135653Y28756D01*
X135653Y62400D01*
X135512Y63470D01*
Y66850D01*
X132805D01*
X131974Y67195D01*
X130689Y67364D01*
X106946Y67364D01*
X106384Y67290D01*
X105819Y67234D01*
X105743Y67205D01*
X105662Y67195D01*
X105138Y66978D01*
X104606Y66778D01*
X104487Y66714D01*
X103412Y66387D01*
X103280Y66370D01*
X103054Y66277D01*
X102816Y66221D01*
X102458Y66030D01*
X102083Y65874D01*
X101889Y65725D01*
X101673Y65610D01*
X101377Y65333D01*
X101055Y65085D01*
X98190Y62221D01*
X96668D01*
Y60698D01*
X95415Y59446D01*
X94953Y59637D01*
Y69544D01*
X111747Y86338D01*
X111778Y86379D01*
X111818Y86410D01*
X112172Y86892D01*
X112536Y87366D01*
X112555Y87413D01*
X112585Y87454D01*
X112803Y88011D01*
X113032Y88563D01*
X113038Y88614D01*
X113057Y88661D01*
X113123Y89256D01*
X113201Y89848D01*
X113194Y89899D01*
X113200Y89949D01*
X113082Y95701D01*
X112992Y96292D01*
X112914Y96885D01*
X112895Y96932D01*
X112887Y96982D01*
X112647Y97530D01*
X112418Y98082D01*
X112387Y98122D01*
X112367Y98169D01*
X111993Y98636D01*
X111629Y99110D01*
X111589Y99141D01*
X111557Y99181D01*
X111075Y99535D01*
X110601Y99899D01*
X110554Y99918D01*
X110513Y99949D01*
X109956Y100166D01*
X109404Y100395D01*
X109354Y100401D01*
X109306Y100420D01*
X108712Y100486D01*
X108120Y100564D01*
X105643D01*
X104689Y100853D01*
X102913Y101028D01*
X101138Y100853D01*
X100184Y100564D01*
X73789D01*
X72504Y100395D01*
X71307Y99899D01*
X70279Y99110D01*
X69490Y98082D01*
X68994Y96885D01*
X68825Y95600D01*
Y64799D01*
X68558Y64564D01*
X63309D01*
X62979Y64940D01*
X63053Y65500D01*
X63053Y86900D01*
X63053Y86900D01*
X62884Y88185D01*
X62388Y89382D01*
X61599Y90410D01*
X51599Y100410D01*
X51599Y100410D01*
X50571Y101199D01*
X49374Y101695D01*
X48089Y101864D01*
X27072D01*
X27051Y101861D01*
X27029Y101864D01*
X26408Y101776D01*
X25787Y101695D01*
X25767Y101686D01*
X25746Y101683D01*
X25168Y101438D01*
X24590Y101199D01*
X24573Y101186D01*
X24553Y101177D01*
X24059Y100791D01*
X23562Y100410D01*
X23549Y100393D01*
X23532Y100379D01*
X23182Y100023D01*
X23168Y100005D01*
X23152Y99992D01*
X22779Y99489D01*
X22402Y98988D01*
X22393Y98968D01*
X22381Y98950D01*
X22151Y98367D01*
X21916Y97786D01*
X21914Y97765D01*
X21906Y97745D01*
X21835Y97122D01*
X21758Y96500D01*
X21761Y96479D01*
X21759Y96457D01*
X21926Y86814D01*
X22015Y86216D01*
X22094Y85615D01*
X22111Y85575D01*
X22117Y85532D01*
X22359Y84977D01*
X22590Y84418D01*
X22617Y84384D01*
X22634Y84344D01*
X23011Y83870D01*
X23379Y83390D01*
X23414Y83364D01*
X23440Y83330D01*
X23927Y82970D01*
X24407Y82601D01*
X24447Y82585D01*
X24482Y82559D01*
X25045Y82337D01*
X25604Y82105D01*
X25647Y82100D01*
X25688Y82084D01*
X26289Y82015D01*
X26889Y81936D01*
X30233D01*
X34725Y77444D01*
X34725Y76614D01*
X34778Y76212D01*
X34791Y75806D01*
X34863Y75572D01*
X34894Y75330D01*
X35050Y74954D01*
X35168Y74566D01*
X35297Y74358D01*
X35390Y74133D01*
X35638Y73810D01*
X35772Y73593D01*
X36200Y72794D01*
X36434Y72022D01*
X36513Y71220D01*
X36434Y70418D01*
X36200Y69647D01*
X35772Y68847D01*
X35638Y68631D01*
X35390Y68309D01*
X35297Y68083D01*
X35168Y67875D01*
X35134Y67765D01*
X29790Y62421D01*
X26468D01*
Y59099D01*
X25079Y57710D01*
X25079Y57710D01*
X24290Y56682D01*
X23794Y55485D01*
X23625Y54200D01*
Y14200D01*
X23794Y12915D01*
X24290Y11718D01*
X25079Y10690D01*
X26107Y9901D01*
X27304Y9405D01*
X28589Y9236D01*
X48089D01*
X49374Y9405D01*
X50571Y9901D01*
X51104Y10310D01*
X51524Y10137D01*
X52126Y9888D01*
X52128Y9888D01*
X52130Y9887D01*
X52767Y9804D01*
X53411Y9720D01*
X53413Y9720D01*
X53415Y9720D01*
X68566Y9747D01*
X69204Y9832D01*
X69842Y9916D01*
X69846Y9917D01*
X69851Y9918D01*
X70445Y10166D01*
X71039Y10412D01*
X71043Y10414D01*
X71047Y10416D01*
X71557Y10809D01*
X71632Y10867D01*
X72504Y10505D01*
X73789Y10336D01*
X89989D01*
X91274Y10505D01*
X92326Y10941D01*
X93007Y10419D01*
X94204Y9923D01*
X95489Y9753D01*
X118516D01*
X126211Y2058D01*
X126401Y1913D01*
X126254Y1413D01*
X1431D01*
X1431Y168176D01*
X228718D01*
X228925Y167676D01*
D02*
G37*
G36*
X265380Y89041D02*
Y1413D01*
X166578D01*
X166418Y1886D01*
X166642Y2058D01*
X187223Y22639D01*
X187716Y22260D01*
X188578Y21903D01*
X189503Y21782D01*
X190428Y21903D01*
X191290Y22260D01*
X192030Y22828D01*
X192275Y23147D01*
X213503D01*
X213748Y22828D01*
X214488Y22260D01*
X215350Y21903D01*
X216275Y21782D01*
X217200Y21903D01*
X218062Y22260D01*
X218802Y22828D01*
X219047Y23147D01*
X226931D01*
X227176Y22828D01*
X227916Y22260D01*
X228778Y21903D01*
X229703Y21781D01*
X230628Y21903D01*
X231490Y22260D01*
X232230Y22828D01*
X232475Y23147D01*
X253703D01*
X253948Y22828D01*
X254688Y22260D01*
X255550Y21903D01*
X256475Y21781D01*
X257400Y21903D01*
X258262Y22260D01*
X259002Y22828D01*
X259247Y23147D01*
X259494D01*
X260339Y23315D01*
X261055Y23794D01*
X263450Y26189D01*
X263929Y26905D01*
X264097Y27750D01*
Y89296D01*
X264606D01*
X264880Y89350D01*
X265380Y89041D01*
D02*
G37*
G36*
X108237Y89848D02*
X89989Y71600D01*
Y15300D01*
X73789D01*
Y95600D01*
X108120D01*
X108237Y89848D01*
D02*
G37*
G36*
X68558Y14710D02*
X53407Y14684D01*
X53053Y15037D01*
X53053Y53444D01*
X56978Y57369D01*
X56978Y57369D01*
X57647Y58242D01*
X58520Y58911D01*
X58520Y58911D01*
X59209Y59600D01*
X68558D01*
X68558Y14710D01*
D02*
G37*
G36*
X58089Y86900D02*
X58089Y65500D01*
X55010Y62421D01*
X53468D01*
Y60879D01*
X48089Y55500D01*
X48089Y14200D01*
X28589D01*
Y54200D01*
X39689Y65300D01*
Y65827D01*
X39967Y66165D01*
X40808Y67738D01*
X41326Y69445D01*
X41500Y71220D01*
X41326Y72996D01*
X40808Y74703D01*
X39967Y76276D01*
X39689Y76614D01*
X39689Y79500D01*
X32289Y86900D01*
X26889D01*
X26722Y96543D01*
X27072Y96900D01*
X48089D01*
X58089Y86900D01*
D02*
G37*
G36*
X130689Y26700D02*
X132589Y24800D01*
X132489Y24700D01*
X132489Y15700D01*
X135170Y13019D01*
X139890Y13019D01*
X141054Y12064D01*
X142558Y11259D01*
X144191Y10764D01*
X145889Y10597D01*
X147587Y10764D01*
X149220Y11259D01*
X150724Y12064D01*
X152043Y13146D01*
X153126Y14465D01*
X153930Y15969D01*
X154092Y16503D01*
X188089Y50500D01*
X235789Y50500D01*
X235789Y31100D01*
X188664Y31100D01*
X163132Y5568D01*
X129721D01*
X120689Y14600D01*
Y14717D01*
X95489D01*
X95489Y52500D01*
X104564Y61576D01*
X104689Y61588D01*
X106395Y62106D01*
X106946Y62400D01*
X130689Y62400D01*
X130689Y26700D01*
D02*
G37*
%LPC*%
G36*
X37323Y118976D02*
X27480D01*
Y109134D01*
X37323D01*
Y118976D01*
D02*
G37*
G36*
X107835Y118268D02*
X97992D01*
Y108425D01*
X107835D01*
Y118268D01*
D02*
G37*
G36*
X233769Y110194D02*
X225777D01*
X224919Y110081D01*
X224119Y109749D01*
X223433Y109223D01*
X222906Y108536D01*
X222574Y107736D01*
X222461Y106878D01*
X222574Y106020D01*
X222906Y105220D01*
X223433Y104533D01*
X224119Y104006D01*
X224919Y103675D01*
X225777Y103562D01*
X233769D01*
X234628Y103675D01*
X235427Y104006D01*
X236114Y104533D01*
X236641Y105220D01*
X236972Y106020D01*
X237085Y106878D01*
X236972Y107736D01*
X236641Y108536D01*
X236114Y109223D01*
X235427Y109749D01*
X234628Y110081D01*
X233769Y110194D01*
D02*
G37*
G36*
X131389Y160450D02*
X116889Y160450D01*
X116582Y160389D01*
X116321Y160215D01*
X116147Y159955D01*
X116086Y159647D01*
X116086Y114647D01*
X116116Y114496D01*
X116146Y114342D01*
X116147Y114341D01*
X116147Y114340D01*
X116233Y114212D01*
X116319Y114081D01*
X116321Y114081D01*
X116321Y114079D01*
X116450Y113994D01*
X116579Y113907D01*
X116581Y113906D01*
X116582Y113906D01*
X116734Y113875D01*
X116886Y113844D01*
X136829Y113779D01*
X164550Y86132D01*
X164550Y86132D01*
X164550Y86132D01*
X164551Y86132D01*
X164678Y86047D01*
X164811Y85958D01*
X164811Y85958D01*
X164812Y85958D01*
X164964Y85928D01*
X165118Y85897D01*
X180189D01*
X180496Y85958D01*
X180757Y86132D01*
X180931Y86393D01*
X180992Y86700D01*
Y93100D01*
X180992Y93100D01*
X180931Y93407D01*
X180757Y93668D01*
X180757Y93668D01*
X132192Y142233D01*
X132192Y159647D01*
X132131Y159955D01*
X131957Y160215D01*
X131696Y160389D01*
X131389Y160450D01*
D02*
G37*
G36*
X247798Y88420D02*
X246821Y88291D01*
X245911Y87914D01*
X245130Y87315D01*
X244531Y86533D01*
X244154Y85624D01*
X244025Y84647D01*
X244154Y83671D01*
X244531Y82761D01*
X245130Y81980D01*
X245911Y81380D01*
X246821Y81003D01*
X247798Y80875D01*
X248774Y81003D01*
X249684Y81380D01*
X250465Y81980D01*
X251065Y82761D01*
X251442Y83671D01*
X251570Y84647D01*
X251442Y85624D01*
X251065Y86533D01*
X250465Y87315D01*
X249684Y87914D01*
X248774Y88291D01*
X247798Y88420D01*
D02*
G37*
G36*
Y78420D02*
X246821Y78291D01*
X245911Y77914D01*
X245130Y77315D01*
X244531Y76534D01*
X244154Y75624D01*
X244025Y74647D01*
X244154Y73671D01*
X244531Y72761D01*
X245130Y71980D01*
X245911Y71380D01*
X246821Y71003D01*
X247798Y70875D01*
X248774Y71003D01*
X249684Y71380D01*
X250465Y71980D01*
X251065Y72761D01*
X251442Y73671D01*
X251570Y74647D01*
X251442Y75624D01*
X251065Y76534D01*
X250465Y77315D01*
X249684Y77914D01*
X248774Y78291D01*
X247798Y78420D01*
D02*
G37*
G36*
X223889Y102764D02*
X222604Y102595D01*
X221407Y102099D01*
X220379Y101310D01*
X220379Y101310D01*
X212879Y93810D01*
X212879Y93810D01*
X212528Y93352D01*
X212090Y92782D01*
X211594Y91585D01*
X211425Y90300D01*
X211425Y66109D01*
X211594Y64825D01*
X212090Y63628D01*
X212879Y62599D01*
X213907Y61811D01*
X215104Y61315D01*
X216389Y61146D01*
X237070Y61146D01*
X238355Y61315D01*
X239552Y61811D01*
X240580Y62599D01*
X241369Y63628D01*
X241865Y64825D01*
X242034Y66109D01*
Y82338D01*
X242075Y82622D01*
X242070Y82660D01*
X242075Y82698D01*
X242030Y97815D01*
X241944Y98451D01*
X241860Y99085D01*
X241858Y99092D01*
X241857Y99099D01*
X241609Y99691D01*
X241365Y100282D01*
X241360Y100288D01*
X241357Y100295D01*
X240966Y100801D01*
X240576Y101310D01*
X240570Y101314D01*
X240565Y101320D01*
X240057Y101708D01*
X239548Y102099D01*
X239541Y102102D01*
X239535Y102106D01*
X238943Y102349D01*
X238351Y102595D01*
X238343Y102596D01*
X238336Y102598D01*
X237701Y102680D01*
X237066Y102764D01*
X223889Y102764D01*
D02*
G37*
G36*
X17798Y58420D02*
X16821Y58291D01*
X15911Y57914D01*
X15130Y57315D01*
X14531Y56533D01*
X14154Y55624D01*
X14025Y54647D01*
X14154Y53671D01*
X14531Y52761D01*
X15130Y51980D01*
X15911Y51380D01*
X16821Y51003D01*
X17798Y50875D01*
X18774Y51003D01*
X19684Y51380D01*
X20465Y51980D01*
X21065Y52761D01*
X21441Y53671D01*
X21570Y54647D01*
X21441Y55624D01*
X21065Y56533D01*
X20465Y57315D01*
X19684Y57914D01*
X18774Y58291D01*
X17798Y58420D01*
D02*
G37*
G36*
Y48420D02*
X16821Y48291D01*
X15911Y47914D01*
X15130Y47315D01*
X14531Y46533D01*
X14154Y45624D01*
X14025Y44647D01*
X14154Y43671D01*
X14531Y42761D01*
X15130Y41980D01*
X15911Y41380D01*
X16821Y41003D01*
X17798Y40875D01*
X18774Y41003D01*
X19684Y41380D01*
X20465Y41980D01*
X21065Y42761D01*
X21441Y43671D01*
X21570Y44647D01*
X21441Y45624D01*
X21065Y46533D01*
X20465Y47315D01*
X19684Y47914D01*
X18774Y48291D01*
X17798Y48420D01*
D02*
G37*
G36*
Y38420D02*
X16821Y38291D01*
X15911Y37914D01*
X15130Y37315D01*
X14531Y36533D01*
X14154Y35624D01*
X14025Y34647D01*
X14154Y33671D01*
X14531Y32761D01*
X15130Y31980D01*
X15911Y31380D01*
X16821Y31003D01*
X17798Y30875D01*
X18774Y31003D01*
X19684Y31380D01*
X20465Y31980D01*
X21065Y32761D01*
X21441Y33671D01*
X21570Y34647D01*
X21441Y35624D01*
X21065Y36533D01*
X20465Y37315D01*
X19684Y37914D01*
X18774Y38291D01*
X17798Y38420D01*
D02*
G37*
%LPD*%
G36*
X131389Y141900D02*
X180189Y93100D01*
Y86700D01*
X165118D01*
X137162Y114581D01*
X116889Y114647D01*
X116889Y159647D01*
X131389Y159647D01*
X131389Y141900D01*
D02*
G37*
G36*
X237066Y97800D02*
X237111Y82683D01*
X237070Y82642D01*
Y66109D01*
X216389Y66109D01*
X216389Y90300D01*
X223889Y97800D01*
X237066Y97800D01*
D02*
G37*
%LPC*%
G36*
X216275Y10422D02*
X215453Y10314D01*
X214686Y9996D01*
X214029Y9492D01*
X213524Y8834D01*
X213206Y8067D01*
X213098Y7245D01*
X213206Y6423D01*
X213524Y5657D01*
X214029Y4999D01*
X214686Y4494D01*
X215453Y4177D01*
X216275Y4069D01*
X217097Y4177D01*
X217863Y4494D01*
X218521Y4999D01*
X219026Y5657D01*
X219343Y6423D01*
X219452Y7245D01*
X219343Y8067D01*
X219026Y8834D01*
X218521Y9492D01*
X217863Y9996D01*
X217097Y10314D01*
X216275Y10422D01*
D02*
G37*
G36*
X189503D02*
X188681Y10314D01*
X187915Y9996D01*
X187257Y9492D01*
X186752Y8834D01*
X186435Y8067D01*
X186326Y7245D01*
X186435Y6423D01*
X186752Y5657D01*
X187257Y4999D01*
X187915Y4494D01*
X188681Y4177D01*
X189503Y4069D01*
X190325Y4177D01*
X191092Y4494D01*
X191750Y4999D01*
X192254Y5657D01*
X192572Y6423D01*
X192680Y7245D01*
X192572Y8067D01*
X192254Y8834D01*
X191750Y9492D01*
X191092Y9996D01*
X190325Y10314D01*
X189503Y10422D01*
D02*
G37*
G36*
X256475Y10422D02*
X255653Y10313D01*
X254886Y9996D01*
X254228Y9491D01*
X253724Y8833D01*
X253406Y8067D01*
X253298Y7245D01*
X253406Y6423D01*
X253724Y5657D01*
X254228Y4999D01*
X254886Y4494D01*
X255653Y4176D01*
X256475Y4068D01*
X257297Y4176D01*
X258063Y4494D01*
X258721Y4999D01*
X259226Y5657D01*
X259543Y6423D01*
X259652Y7245D01*
X259543Y8067D01*
X259226Y8833D01*
X258721Y9491D01*
X258063Y9996D01*
X257297Y10313D01*
X256475Y10422D01*
D02*
G37*
G36*
X229703D02*
X228881Y10313D01*
X228115Y9996D01*
X227457Y9491D01*
X226952Y8833D01*
X226635Y8067D01*
X226526Y7245D01*
X226635Y6423D01*
X226952Y5657D01*
X227457Y4999D01*
X228115Y4494D01*
X228881Y4176D01*
X229703Y4068D01*
X230525Y4176D01*
X231292Y4494D01*
X231949Y4999D01*
X232454Y5657D01*
X232772Y6423D01*
X232880Y7245D01*
X232772Y8067D01*
X232454Y8833D01*
X231949Y9491D01*
X231292Y9996D01*
X230525Y10313D01*
X229703Y10422D01*
D02*
G37*
%LPD*%
D13*
X242520Y160472D02*
D03*
X261339D02*
D03*
D14*
X105589Y50300D02*
D03*
X78589D02*
D03*
X62389Y50500D02*
D03*
X35389D02*
D03*
D15*
X229773Y95067D02*
D03*
Y106878D02*
D03*
Y118689D02*
D03*
Y130500D02*
D03*
Y142311D02*
D03*
Y154122D02*
D03*
X123789Y95067D02*
D03*
Y106878D02*
D03*
Y118689D02*
D03*
Y130500D02*
D03*
Y142311D02*
D03*
Y154122D02*
D03*
D16*
X123898Y59961D02*
D03*
X158898D02*
D03*
D17*
X226789Y72300D02*
D03*
Y45300D02*
D03*
D30*
X189504Y25355D02*
X229703D01*
X259042Y94647D02*
X261889Y91800D01*
Y27750D02*
Y91800D01*
X259494Y25355D02*
X261889Y27750D01*
X256475Y25355D02*
X259494D01*
X229703D02*
X256475D01*
X189503Y25355D02*
X189504Y25355D01*
X247798Y94647D02*
Y104647D01*
Y94647D02*
X259042D01*
D31*
X32402Y71220D02*
D03*
Y92638D02*
D03*
X102913Y70512D02*
D03*
Y91929D02*
D03*
D32*
X32402Y114055D02*
D03*
X102913Y113347D02*
D03*
D33*
X216275Y7245D02*
D03*
Y25355D02*
D03*
X189503D02*
D03*
Y7245D02*
D03*
X256475Y7245D02*
D03*
Y25355D02*
D03*
X229703D02*
D03*
Y7245D02*
D03*
D34*
X145889Y19300D02*
D03*
X125889D02*
D03*
X60489Y19000D02*
D03*
X40489D02*
D03*
X102089Y19300D02*
D03*
X82089D02*
D03*
D35*
X247798Y34647D02*
D03*
Y44647D02*
D03*
Y54647D02*
D03*
Y64647D02*
D03*
Y74647D02*
D03*
Y84647D02*
D03*
Y94647D02*
D03*
Y104647D02*
D03*
Y114647D02*
D03*
Y124647D02*
D03*
Y134647D02*
D03*
X17798Y34647D02*
D03*
Y44647D02*
D03*
Y54647D02*
D03*
Y64647D02*
D03*
Y74647D02*
D03*
Y84647D02*
D03*
Y94647D02*
D03*
Y104647D02*
D03*
Y114647D02*
D03*
Y124647D02*
D03*
Y134647D02*
D03*
D36*
X247798Y144647D02*
D03*
X17798D02*
D03*
D37*
X198176Y81411D02*
D03*
X208018Y61726D02*
D03*
X188333Y140466D02*
D03*
Y101096D02*
D03*
X158806Y81411D02*
D03*
Y42041D02*
D03*
X148963Y61726D02*
D03*
X139120Y42041D02*
D03*
X129278Y101096D02*
D03*
X119436Y81411D02*
D03*
X99750Y120781D02*
D03*
X50538Y140466D02*
D03*
X40695Y120781D02*
D03*
X30853Y140466D02*
D03*
X21010Y120781D02*
D03*
X11168Y140466D02*
D03*
Y101096D02*
D03*
X152900Y164088D02*
D03*
X103688Y120781D02*
D03*
X9200Y136529D02*
D03*
X11168Y140466D02*
D03*
X129278Y69600D02*
D03*
X188333Y132592D02*
D03*
X38727Y164088D02*
D03*
X15105Y14482D02*
D03*
X44633Y160152D02*
D03*
X66286Y6608D02*
D03*
Y93222D02*
D03*
X78097Y6608D02*
D03*
X89908D02*
D03*
X152900Y85348D02*
D03*
X143058Y42041D02*
D03*
X19042Y164088D02*
D03*
X158806Y160152D02*
D03*
X176523Y132592D02*
D03*
X229672Y57789D02*
D03*
X145026Y69600D02*
D03*
X135184Y97159D02*
D03*
X204082Y69600D02*
D03*
X237546Y18419D02*
D03*
X52507Y152278D02*
D03*
X162743Y81411D02*
D03*
X137152Y156214D02*
D03*
X141089Y61726D02*
D03*
X143058Y73537D02*
D03*
X150932Y34167D02*
D03*
X24948Y160152D02*
D03*
X170617Y42041D02*
D03*
X141089Y38104D02*
D03*
X174554Y144404D02*
D03*
X188333Y156214D02*
D03*
X198176Y73537D02*
D03*
X115499Y89285D02*
D03*
X139121Y42041D02*
D03*
X143058Y57789D02*
D03*
X180459Y132592D02*
D03*
X143058Y49915D02*
D03*
X9200Y42041D02*
D03*
X115499Y112907D02*
D03*
X19042Y6608D02*
D03*
X89908Y164088D02*
D03*
X17074Y89285D02*
D03*
X154869D02*
D03*
X24948Y105033D02*
D03*
X213924Y18419D02*
D03*
X13137Y81411D02*
D03*
X62349Y164088D02*
D03*
X13137Y10545D02*
D03*
X56444Y136529D02*
D03*
X97782Y164088D02*
D03*
X162743Y34167D02*
D03*
X194239Y136529D02*
D03*
X174554D02*
D03*
X3294Y14482D02*
D03*
Y156214D02*
D03*
Y132592D02*
D03*
X137152Y30230D02*
D03*
X19042Y22356D02*
D03*
X211956Y148340D02*
D03*
X70223Y156214D02*
D03*
X74160Y6608D02*
D03*
X26916Y140466D02*
D03*
X11168Y101096D02*
D03*
X184397Y132592D02*
D03*
X9200Y128655D02*
D03*
X172585Y45978D02*
D03*
X64318Y160152D02*
D03*
X200145Y14482D02*
D03*
X58412Y6608D02*
D03*
X209987Y65663D02*
D03*
X5263Y105033D02*
D03*
X62349Y6608D02*
D03*
X121404Y69600D02*
D03*
X113530Y116844D02*
D03*
X141089Y22356D02*
D03*
X11168Y164088D02*
D03*
X21011Y128655D02*
D03*
X30853Y77474D02*
D03*
X103688Y105033D02*
D03*
X178491Y160152D02*
D03*
X66286Y164088D02*
D03*
X99751Y152278D02*
D03*
X24948Y120781D02*
D03*
X156837Y53852D02*
D03*
X176523Y156214D02*
D03*
X28885Y128655D02*
D03*
X117467Y69600D02*
D03*
X208019Y156214D02*
D03*
X194239Y160152D02*
D03*
X148963Y38104D02*
D03*
X26916Y6608D02*
D03*
X148963Y45978D02*
D03*
X28885Y152278D02*
D03*
X204082Y77474D02*
D03*
X209987Y57789D02*
D03*
X188333Y164088D02*
D03*
X211956Y61726D02*
D03*
X95814Y152278D02*
D03*
X208019Y148340D02*
D03*
X198176Y160152D02*
D03*
X150932Y152278D02*
D03*
X135184Y73537D02*
D03*
X42664Y164088D02*
D03*
X160774Y77474D02*
D03*
X164711Y38104D02*
D03*
X143058Y26293D02*
D03*
X158806Y34167D02*
D03*
X204082Y14482D02*
D03*
X111562Y73537D02*
D03*
X21011Y152278D02*
D03*
X91877D02*
D03*
X146995Y65663D02*
D03*
X80066Y160152D02*
D03*
X182428D02*
D03*
X196207Y132592D02*
D03*
X217861Y57789D02*
D03*
X174554Y160152D02*
D03*
X5263Y120781D02*
D03*
X146995Y42041D02*
D03*
X152900Y53852D02*
D03*
X54475Y6608D02*
D03*
X178491Y49915D02*
D03*
X7231Y45978D02*
D03*
X34790Y148340D02*
D03*
X95814Y120781D02*
D03*
X247389Y69600D02*
D03*
X5263Y152278D02*
D03*
X168649Y45978D02*
D03*
X243452Y38104D02*
D03*
X42664Y116844D02*
D03*
X154869Y160152D02*
D03*
X115499Y81411D02*
D03*
X13137Y65663D02*
D03*
X225735Y18419D02*
D03*
X22979Y164088D02*
D03*
X109593D02*
D03*
X194239Y81411D02*
D03*
X182428Y136529D02*
D03*
X22979Y140466D02*
D03*
X215893Y164088D02*
D03*
X34790D02*
D03*
Y140466D02*
D03*
X36759Y120781D02*
D03*
X141089Y45978D02*
D03*
X172585Y164088D02*
D03*
X186365Y10545D02*
D03*
X198176Y57789D02*
D03*
X139121Y26293D02*
D03*
X56444Y144404D02*
D03*
X168649Y164088D02*
D03*
X30853Y132592D02*
D03*
X200145Y156214D02*
D03*
X7231Y140466D02*
D03*
X162743Y160152D02*
D03*
X50538Y108970D02*
D03*
X64318Y81411D02*
D03*
X3294Y108970D02*
D03*
X58412Y156214D02*
D03*
X125341Y101096D02*
D03*
X48570Y152278D02*
D03*
X176523Y53852D02*
D03*
X36759Y152278D02*
D03*
X50538Y140466D02*
D03*
X3294Y148340D02*
D03*
X42664Y132592D02*
D03*
X5263Y112907D02*
D03*
X107625Y160152D02*
D03*
X38727Y6608D02*
D03*
X156837Y85348D02*
D03*
X192271Y132592D02*
D03*
X198176Y65663D02*
D03*
X225735Y57789D02*
D03*
X24948Y136529D02*
D03*
X229672Y18419D02*
D03*
X22979Y108970D02*
D03*
X66286Y77474D02*
D03*
X145026Y61726D02*
D03*
X150932Y42041D02*
D03*
X152900Y69600D02*
D03*
X44633Y152278D02*
D03*
X186365Y136529D02*
D03*
X109593Y77474D02*
D03*
X30853Y164088D02*
D03*
X213924Y57789D02*
D03*
Y160152D02*
D03*
X202113Y81411D02*
D03*
X146995Y152278D02*
D03*
X164711Y164088D02*
D03*
X11168Y148340D02*
D03*
X105656Y6608D02*
D03*
X70223D02*
D03*
X38727Y148340D02*
D03*
X133215Y77474D02*
D03*
X50538Y124718D02*
D03*
X196207Y77474D02*
D03*
X40696Y160152D02*
D03*
X105656Y164088D02*
D03*
X84003Y120781D02*
D03*
X154869Y81411D02*
D03*
X7231Y164088D02*
D03*
X190302Y136529D02*
D03*
X115499Y73537D02*
D03*
X58412Y148340D02*
D03*
X46601Y124718D02*
D03*
X66286Y85348D02*
D03*
X215893Y14482D02*
D03*
Y156214D02*
D03*
X99751Y120781D02*
D03*
X143058Y152278D02*
D03*
X40696Y128655D02*
D03*
X121404Y101096D02*
D03*
X19042Y69600D02*
D03*
X145026Y45978D02*
D03*
X146995Y57789D02*
D03*
X78097Y164088D02*
D03*
X40696Y152278D02*
D03*
X60381Y97159D02*
D03*
X44633Y120781D02*
D03*
X11168Y85348D02*
D03*
X180459Y164088D02*
D03*
X11168Y124718D02*
D03*
X7231Y148340D02*
D03*
X156837Y30230D02*
D03*
X180459Y156214D02*
D03*
X166680Y49915D02*
D03*
X42664Y124718D02*
D03*
X129278Y164088D02*
D03*
X32822Y120781D02*
D03*
X148963Y164088D02*
D03*
X13137Y89285D02*
D03*
X131247Y81411D02*
D03*
X135184D02*
D03*
X156837Y38104D02*
D03*
X209987Y10545D02*
D03*
X21011Y26293D02*
D03*
X54475Y140466D02*
D03*
X97782Y6608D02*
D03*
X146995Y34167D02*
D03*
X93845Y116844D02*
D03*
X91877Y160152D02*
D03*
X170617D02*
D03*
X235578Y14482D02*
D03*
X38727Y132592D02*
D03*
X172585Y156214D02*
D03*
X30853D02*
D03*
X119436Y73537D02*
D03*
X133215Y93222D02*
D03*
X170617Y49915D02*
D03*
X206050Y10545D02*
D03*
X46601Y132592D02*
D03*
X158806Y42041D02*
D03*
X9200Y160152D02*
D03*
X200145Y77474D02*
D03*
X13137Y152278D02*
D03*
X34790Y6608D02*
D03*
X135184Y160152D02*
D03*
X198176Y18419D02*
D03*
X127310Y73537D02*
D03*
X160774Y38104D02*
D03*
X36759Y128655D02*
D03*
X85971Y116844D02*
D03*
X129278Y77474D02*
D03*
X158806Y89285D02*
D03*
X196207Y156214D02*
D03*
X119436Y81411D02*
D03*
X21011Y49915D02*
D03*
X186365Y160152D02*
D03*
X190302Y152278D02*
D03*
X154869Y65663D02*
D03*
X127310Y81411D02*
D03*
X54475Y132592D02*
D03*
X164711Y156214D02*
D03*
X156837Y45978D02*
D03*
X46601Y164088D02*
D03*
X137152Y45978D02*
D03*
X209987Y18419D02*
D03*
X50538Y156214D02*
D03*
X13137Y128655D02*
D03*
X17074Y10545D02*
D03*
X196207Y14482D02*
D03*
X22979Y6608D02*
D03*
X32822Y144404D02*
D03*
X141089Y69600D02*
D03*
X139121Y73537D02*
D03*
X24948Y65663D02*
D03*
X113530Y101096D02*
D03*
X125341Y69600D02*
D03*
X148963Y30230D02*
D03*
X162743Y73537D02*
D03*
X117467Y101096D02*
D03*
X121404Y77474D02*
D03*
X22979Y61726D02*
D03*
X145026Y164088D02*
D03*
X156837Y77474D02*
D03*
X160774Y156214D02*
D03*
X54475Y116844D02*
D03*
X5263Y2671D02*
D03*
X34790Y124718D02*
D03*
X32822Y136529D02*
D03*
X123373Y81411D02*
D03*
X137152Y93222D02*
D03*
X190302Y18419D02*
D03*
X11168Y77474D02*
D03*
X19042Y14482D02*
D03*
X168649Y53852D02*
D03*
X160774D02*
D03*
X11168Y108970D02*
D03*
X154869Y152278D02*
D03*
X54475Y148340D02*
D03*
X190302Y97159D02*
D03*
X26916Y148340D02*
D03*
X9200Y112907D02*
D03*
X70223Y164088D02*
D03*
X113530Y69600D02*
D03*
X152900Y77474D02*
D03*
X192271Y148340D02*
D03*
X24948Y112907D02*
D03*
X97782Y156214D02*
D03*
X200145Y69600D02*
D03*
X247389Y14482D02*
D03*
X87940Y152278D02*
D03*
X166680D02*
D03*
X148963Y77474D02*
D03*
X204082Y156214D02*
D03*
X93845D02*
D03*
X172585Y53852D02*
D03*
X46601Y156214D02*
D03*
X93845Y6608D02*
D03*
X202113Y73537D02*
D03*
X209987Y152278D02*
D03*
X58412Y116844D02*
D03*
X249357Y49915D02*
D03*
X17074Y152278D02*
D03*
X82034Y6608D02*
D03*
X9200Y105033D02*
D03*
X22979Y156214D02*
D03*
X217861Y18419D02*
D03*
X5263Y160152D02*
D03*
X9200Y120781D02*
D03*
X141089Y164088D02*
D03*
X145026Y38104D02*
D03*
X56444Y120781D02*
D03*
X141089Y156214D02*
D03*
X22979Y124718D02*
D03*
X162743Y65663D02*
D03*
X32822Y152278D02*
D03*
X99751Y105033D02*
D03*
X15105Y108970D02*
D03*
X141089Y53852D02*
D03*
X139121Y65663D02*
D03*
X180459Y101096D02*
D03*
X129278D02*
D03*
X148963Y85348D02*
D03*
X206050Y65663D02*
D03*
X17074Y160152D02*
D03*
X60381D02*
D03*
X154869Y42041D02*
D03*
X7231Y132592D02*
D03*
X87940Y120781D02*
D03*
X111562Y81411D02*
D03*
X13137Y112907D02*
D03*
X243452Y69600D02*
D03*
X133215D02*
D03*
X42664Y6608D02*
D03*
X123373Y73537D02*
D03*
X103688Y160152D02*
D03*
X30853Y140466D02*
D03*
X46601Y6608D02*
D03*
X13137Y73537D02*
D03*
X117467Y77474D02*
D03*
X13137Y105033D02*
D03*
X50538Y148340D02*
D03*
X137152Y38104D02*
D03*
X139121Y152278D02*
D03*
Y160152D02*
D03*
X162743Y152278D02*
D03*
X36759Y160152D02*
D03*
X206050Y73537D02*
D03*
X85971Y156214D02*
D03*
X206050Y81411D02*
D03*
X211956Y156214D02*
D03*
X109593Y116844D02*
D03*
X34790Y132592D02*
D03*
X164711Y53852D02*
D03*
X221798Y18419D02*
D03*
X194239D02*
D03*
X52507Y136529D02*
D03*
X117467Y6608D02*
D03*
X152900Y30230D02*
D03*
X245420Y49915D02*
D03*
X192271Y164088D02*
D03*
X64318Y89285D02*
D03*
X38727Y124718D02*
D03*
X46601Y116844D02*
D03*
X68255Y152278D02*
D03*
X84003Y160152D02*
D03*
X54475Y164088D02*
D03*
X133215D02*
D03*
X28885Y144404D02*
D03*
X52507D02*
D03*
X74160Y164088D02*
D03*
X137152Y69600D02*
D03*
X150932Y49915D02*
D03*
X66286Y69600D02*
D03*
X196207D02*
D03*
X204082Y164088D02*
D03*
X84003Y152278D02*
D03*
X21011Y160152D02*
D03*
X26916Y164088D02*
D03*
X58412Y140466D02*
D03*
X26916Y156214D02*
D03*
X101719Y6608D02*
D03*
X166680Y42041D02*
D03*
X62349Y93222D02*
D03*
X158806Y73537D02*
D03*
X174554Y49915D02*
D03*
X42664Y108970D02*
D03*
X206050Y18419D02*
D03*
X30853Y148340D02*
D03*
X219830Y14482D02*
D03*
X239515D02*
D03*
X7231Y61726D02*
D03*
X176523Y101096D02*
D03*
X48570Y120781D02*
D03*
X50538Y132592D02*
D03*
X137152Y85348D02*
D03*
X146995Y26293D02*
D03*
X178491Y136529D02*
D03*
X237546Y57789D02*
D03*
X13137Y144404D02*
D03*
X11168Y69600D02*
D03*
X50538Y164088D02*
D03*
X5263Y136529D02*
D03*
X192271Y14482D02*
D03*
X24948Y152278D02*
D03*
X243452Y61726D02*
D03*
X24948Y128655D02*
D03*
X208019Y69600D02*
D03*
X156837Y156214D02*
D03*
X76129Y152278D02*
D03*
X188333Y14482D02*
D03*
X46601Y108970D02*
D03*
X202113Y10545D02*
D03*
X87940Y112907D02*
D03*
X154869Y26293D02*
D03*
X184397Y6608D02*
D03*
X22979Y77474D02*
D03*
X148963Y53852D02*
D03*
X5263Y97159D02*
D03*
X13137Y136529D02*
D03*
X56444Y152278D02*
D03*
X111562Y112907D02*
D03*
X150932Y81411D02*
D03*
X211956Y164088D02*
D03*
X146995Y73537D02*
D03*
X148963Y93222D02*
D03*
X139121Y57789D02*
D03*
X158806Y65663D02*
D03*
X5263Y144404D02*
D03*
X3294Y6608D02*
D03*
X28885Y160152D02*
D03*
X87940D02*
D03*
X137152Y61726D02*
D03*
X145026Y30230D02*
D03*
X182428Y10545D02*
D03*
X164711Y45978D02*
D03*
X160774Y164088D02*
D03*
X196207D02*
D03*
X9200Y49915D02*
D03*
X198176Y10545D02*
D03*
X3294Y124718D02*
D03*
X194239Y152278D02*
D03*
X11168Y116844D02*
D03*
X245420Y18419D02*
D03*
X50538Y6608D02*
D03*
X72192Y160152D02*
D03*
X139121Y34167D02*
D03*
X180459Y53852D02*
D03*
X113530Y6608D02*
D03*
X42664Y156214D02*
D03*
X113530D02*
D03*
X137152Y77474D02*
D03*
X19042Y156214D02*
D03*
X52507Y160152D02*
D03*
X184397Y164088D02*
D03*
X170617Y152278D02*
D03*
X152900Y38104D02*
D03*
X141089Y30230D02*
D03*
X21011Y18419D02*
D03*
X62349Y156214D02*
D03*
X150932Y160152D02*
D03*
X56444Y128655D02*
D03*
X101719Y164088D02*
D03*
X211956Y14482D02*
D03*
X58412Y164088D02*
D03*
X72192Y152278D02*
D03*
X125341Y77474D02*
D03*
X11168Y53852D02*
D03*
X22979Y69600D02*
D03*
X137152Y53852D02*
D03*
X85971Y6608D02*
D03*
X22979Y148340D02*
D03*
X145026Y156214D02*
D03*
X13137Y49915D02*
D03*
X150932Y26293D02*
D03*
X160774Y45978D02*
D03*
X186365Y18419D02*
D03*
X135184Y89285D02*
D03*
X249357Y18419D02*
D03*
X113530Y164088D02*
D03*
X131247Y89285D02*
D03*
X3294Y164088D02*
D03*
X56444Y160152D02*
D03*
X150932Y73537D02*
D03*
X152900Y156214D02*
D03*
X7231Y101096D02*
D03*
X176523Y164088D02*
D03*
X109593Y6608D02*
D03*
X5263Y128655D02*
D03*
X219830Y164088D02*
D03*
X7231Y156214D02*
D03*
X13137Y120781D02*
D03*
X21011Y10545D02*
D03*
X111562Y105033D02*
D03*
X105656Y77474D02*
D03*
X28885Y136529D02*
D03*
X32822Y128655D02*
D03*
X133215Y85348D02*
D03*
X194239Y10545D02*
D03*
X198176Y136529D02*
D03*
X143058Y65663D02*
D03*
X202113Y18419D02*
D03*
X21011Y120781D02*
D03*
X28885D02*
D03*
X192271Y140466D02*
D03*
X113530Y77474D02*
D03*
X148963Y156214D02*
D03*
X44633Y128655D02*
D03*
X38727Y156214D02*
D03*
X129278Y85348D02*
D03*
X160774Y69600D02*
D03*
X180459Y6608D02*
D03*
X154869Y34167D02*
D03*
X182428Y97159D02*
D03*
X11168Y45978D02*
D03*
X13137Y160152D02*
D03*
X48570D02*
D03*
X113530Y85348D02*
D03*
X158806Y49915D02*
D03*
X200145Y164088D02*
D03*
X194239Y73537D02*
D03*
X22979Y132592D02*
D03*
X15105Y30230D02*
D03*
X101719Y156214D02*
D03*
X162743Y42041D02*
D03*
X60381Y105033D02*
D03*
X38727Y108970D02*
D03*
X32822Y160152D02*
D03*
X76129D02*
D03*
X168649Y156214D02*
D03*
X188333Y101096D02*
D03*
X148963Y69600D02*
D03*
X7231Y53852D02*
D03*
X52507Y128655D02*
D03*
X91877Y112907D02*
D03*
X154869Y49915D02*
D03*
X111562Y152278D02*
D03*
X208019Y61726D02*
D03*
X213924Y152278D02*
D03*
X15105Y6608D02*
D03*
X133215Y101096D02*
D03*
X7231Y108970D02*
D03*
X148963Y61726D02*
D03*
X34790Y156214D02*
D03*
X231641Y14482D02*
D03*
X233609Y18419D02*
D03*
X95814Y160152D02*
D03*
X26916Y124718D02*
D03*
X54475Y156214D02*
D03*
X22979Y116844D02*
D03*
X24948Y73537D02*
D03*
X9200Y152278D02*
D03*
X26916Y77474D02*
D03*
X91877Y120781D02*
D03*
X113530Y108970D02*
D03*
X158806Y81411D02*
D03*
X202113Y160152D02*
D03*
X227704Y14482D02*
D03*
X7231Y124718D02*
D03*
X89908Y116844D02*
D03*
X82034Y156214D02*
D03*
X93845Y164088D02*
D03*
X109593Y108970D02*
D03*
X166680Y160152D02*
D03*
X209987D02*
D03*
X221798Y57789D02*
D03*
X241483Y18419D02*
D03*
X60381Y152278D02*
D03*
X99751Y160152D02*
D03*
X111562D02*
D03*
X162743Y49915D02*
D03*
X137152Y164088D02*
D03*
X139121Y49915D02*
D03*
X3294Y101096D02*
D03*
X30853Y124718D02*
D03*
X9200Y57789D02*
D03*
X184397Y156214D02*
D03*
X3294Y140466D02*
D03*
X64318Y73537D02*
D03*
X143058Y160152D02*
D03*
X146995D02*
D03*
X186365Y97159D02*
D03*
X9200Y144404D02*
D03*
X24948D02*
D03*
X38727Y116844D02*
D03*
X158806Y152278D02*
D03*
X17074Y18419D02*
D03*
X54475Y108970D02*
D03*
X30853Y6608D02*
D03*
X26916Y132592D02*
D03*
X54475Y124718D02*
D03*
X150932Y89285D02*
D03*
X190302Y144404D02*
D03*
X206050Y57789D02*
D03*
X184397Y101096D02*
D03*
X121404Y164088D02*
D03*
X176523Y6608D02*
D03*
X40696Y120781D02*
D03*
X125341Y164088D02*
D03*
X160774Y85348D02*
D03*
X89908Y156214D02*
D03*
X145026Y53852D02*
D03*
X7231Y116844D02*
D03*
X95814Y112907D02*
D03*
X217861Y160152D02*
D03*
X243452Y30230D02*
D03*
X11168D02*
D03*
X15105Y156214D02*
D03*
X78097D02*
D03*
X52507Y120781D02*
D03*
X82034Y116844D02*
D03*
X143058Y34167D02*
D03*
X206050Y160152D02*
D03*
X64318Y152278D02*
D03*
X233609Y57789D02*
D03*
X84003Y112907D02*
D03*
X196207Y61726D02*
D03*
X115499Y97159D02*
D03*
X146995Y49915D02*
D03*
X42664Y148340D02*
D03*
X178491Y10545D02*
D03*
X11168Y132592D02*
D03*
X174554Y152278D02*
D03*
X15105Y22356D02*
D03*
X58412Y132592D02*
D03*
X11168Y156214D02*
D03*
X208019Y14482D02*
D03*
X150932Y65663D02*
D03*
X115499Y105033D02*
D03*
X66286Y156214D02*
D03*
X135184Y152278D02*
D03*
X156837Y69600D02*
D03*
X85971Y164088D02*
D03*
X80066Y152278D02*
D03*
X3294Y93222D02*
D03*
X109593Y69600D02*
D03*
X46601Y148340D02*
D03*
X154869Y73537D02*
D03*
X184397Y93222D02*
D03*
X190302Y160152D02*
D03*
X28885Y65663D02*
D03*
X50538Y116844D02*
D03*
X74160Y156214D02*
D03*
X156837Y164088D02*
D03*
X184397Y14482D02*
D03*
X192271Y156214D02*
D03*
X243452Y14482D02*
D03*
X241483Y57789D02*
D03*
X15105Y164088D02*
D03*
X107625Y105033D02*
D03*
X152900Y45978D02*
D03*
X82034Y164088D02*
D03*
X15105Y69600D02*
D03*
X58412Y124718D02*
D03*
X223767Y14482D02*
D03*
X131247Y73537D02*
D03*
X117467Y164088D02*
D03*
X188333Y140466D02*
D03*
X194239Y144404D02*
D03*
X3294Y116844D02*
D03*
X198176Y81411D02*
D03*
X68255Y160152D02*
D03*
X208019Y164088D02*
D03*
X48570Y128655D02*
D03*
X229803Y165157D02*
D03*
X228268Y163622D02*
D03*
X226732Y162087D02*
D03*
X225197Y160551D02*
D03*
X223701Y158976D02*
D03*
X173789Y88675D02*
D03*
X178789D02*
D03*
X176289D02*
D03*
X171189D02*
D03*
X168789D02*
D03*
X166289D02*
D03*
M02*
