G04*
G04 #@! TF.GenerationSoftware,Altium Limited,Altium Designer,19.0.12 (326)*
G04*
G04 Layer_Color=16711935*
%FSLAX25Y25*%
%MOIN*%
G70*
G01*
G75*
%ADD23C,0.09068*%
%ADD24R,0.09068X0.09068*%
%ADD25C,0.05524*%
%ADD26C,0.08280*%
%ADD27C,0.06706*%
%ADD28R,0.06706X0.06706*%
%ADD29C,0.03162*%
%ADD60C,0.03556*%
%ADD61R,0.09800X0.06300*%
%ADD62R,0.03800X0.07300*%
%ADD63R,0.03162X0.06784*%
%ADD64O,0.03162X0.06784*%
%ADD65R,0.04540X0.02000*%
%ADD66O,0.04540X0.02000*%
%ADD67O,0.06784X0.03162*%
%ADD68R,0.06784X0.03162*%
%ADD69R,0.10249X0.11036*%
%ADD70R,0.11036X0.10249*%
%ADD71R,0.03600X0.06200*%
%ADD72R,0.06312X0.09068*%
%ADD73R,0.02965X0.02572*%
%ADD74R,0.04343X0.03556*%
%ADD75R,0.02572X0.02965*%
%ADD76R,0.05918X0.04147*%
%ADD77R,0.01968X0.02362*%
G36*
X182741Y85997D02*
X182793Y85987D01*
X182842Y85970D01*
X182889Y85947D01*
X182933Y85918D01*
X182972Y85883D01*
X183007Y85844D01*
X183036Y85800D01*
X183059Y85753D01*
X183076Y85704D01*
X183086Y85652D01*
X183090Y85600D01*
Y68100D01*
X183086Y68048D01*
X183076Y67996D01*
X183059Y67947D01*
X183036Y67900D01*
X183007Y67856D01*
X182972Y67817D01*
X182933Y67782D01*
X182889Y67753D01*
X182842Y67730D01*
X182793Y67713D01*
X182741Y67703D01*
X182689Y67699D01*
X164889D01*
X164837Y67703D01*
X164785Y67713D01*
X164736Y67730D01*
X164689Y67753D01*
X164645Y67782D01*
X164605Y67817D01*
X164571Y67856D01*
X164542Y67900D01*
X164519Y67947D01*
X164502Y67996D01*
X164492Y68048D01*
X164488Y68100D01*
Y85600D01*
X164492Y85652D01*
X164502Y85704D01*
X164519Y85753D01*
X164542Y85800D01*
X164571Y85844D01*
X164605Y85883D01*
X164645Y85918D01*
X164689Y85947D01*
X164736Y85970D01*
X164785Y85987D01*
X164837Y85997D01*
X164889Y86001D01*
X167689D01*
X167741Y85997D01*
X167793Y85987D01*
X167842Y85970D01*
X167889Y85947D01*
X167933Y85918D01*
X167972Y85883D01*
X168007Y85844D01*
X168036Y85800D01*
X168059Y85753D01*
X168076Y85704D01*
X168086Y85652D01*
X168090Y85600D01*
Y83701D01*
X169488D01*
Y85600D01*
X169492Y85652D01*
X169502Y85704D01*
X169519Y85753D01*
X169542Y85800D01*
X169571Y85844D01*
X169606Y85883D01*
X169645Y85918D01*
X169689Y85947D01*
X169736Y85970D01*
X169785Y85987D01*
X169837Y85997D01*
X169889Y86001D01*
X172689D01*
X172741Y85997D01*
X172793Y85987D01*
X172842Y85970D01*
X172889Y85947D01*
X172933Y85918D01*
X172972Y85883D01*
X173007Y85844D01*
X173036Y85800D01*
X173059Y85753D01*
X173076Y85704D01*
X173086Y85652D01*
X173090Y85600D01*
Y83701D01*
X174488D01*
Y85600D01*
X174492Y85652D01*
X174502Y85704D01*
X174519Y85753D01*
X174542Y85800D01*
X174571Y85844D01*
X174606Y85883D01*
X174645Y85918D01*
X174689Y85947D01*
X174736Y85970D01*
X174785Y85987D01*
X174837Y85997D01*
X174889Y86001D01*
X177689D01*
X177741Y85997D01*
X177793Y85987D01*
X177842Y85970D01*
X177889Y85947D01*
X177933Y85918D01*
X177972Y85883D01*
X178007Y85844D01*
X178036Y85800D01*
X178059Y85753D01*
X178076Y85704D01*
X178086Y85652D01*
X178090Y85600D01*
Y83701D01*
X179488D01*
Y85600D01*
X179492Y85652D01*
X179502Y85704D01*
X179519Y85753D01*
X179542Y85800D01*
X179571Y85844D01*
X179605Y85883D01*
X179645Y85918D01*
X179689Y85947D01*
X179736Y85970D01*
X179785Y85987D01*
X179837Y85997D01*
X179889Y86001D01*
X182689D01*
X182741Y85997D01*
D02*
G37*
D23*
X32402Y71220D02*
D03*
Y92638D02*
D03*
X102913Y70512D02*
D03*
Y91929D02*
D03*
D24*
X32402Y114055D02*
D03*
X102913Y113347D02*
D03*
D25*
X216275Y7245D02*
D03*
Y25355D02*
D03*
X189503D02*
D03*
Y7245D02*
D03*
X256475Y7245D02*
D03*
Y25355D02*
D03*
X229703D02*
D03*
Y7245D02*
D03*
D26*
X145889Y19300D02*
D03*
X125889D02*
D03*
X60489Y19000D02*
D03*
X40489D02*
D03*
X102089Y19300D02*
D03*
X82089D02*
D03*
D27*
X247798Y34647D02*
D03*
Y44647D02*
D03*
Y54647D02*
D03*
Y64647D02*
D03*
Y74647D02*
D03*
Y84647D02*
D03*
Y94647D02*
D03*
Y104647D02*
D03*
Y114647D02*
D03*
Y124647D02*
D03*
Y134647D02*
D03*
X17798Y34647D02*
D03*
Y44647D02*
D03*
Y54647D02*
D03*
Y64647D02*
D03*
Y74647D02*
D03*
Y84647D02*
D03*
Y94647D02*
D03*
Y104647D02*
D03*
Y114647D02*
D03*
Y124647D02*
D03*
Y134647D02*
D03*
D28*
X247798Y144647D02*
D03*
X17798D02*
D03*
D29*
X229803Y165157D02*
D03*
X228268Y163622D02*
D03*
X226732Y162087D02*
D03*
X225197Y160551D02*
D03*
X223701Y158976D02*
D03*
X173789Y88675D02*
D03*
X178789D02*
D03*
X176289D02*
D03*
X171189D02*
D03*
X168789D02*
D03*
X166289D02*
D03*
D60*
X239189Y86532D02*
D03*
X206496Y90500D02*
D03*
X206535Y94809D02*
D03*
X161457Y61024D02*
D03*
X240389Y93500D02*
D03*
X82189Y99100D02*
D03*
D61*
X151089Y139200D02*
D03*
X127089D02*
D03*
D62*
X201689Y61100D02*
D03*
X190689D02*
D03*
D63*
X153189Y97940D02*
D03*
D64*
X148189D02*
D03*
X143189D02*
D03*
X138189D02*
D03*
X153189Y118940D02*
D03*
X148189D02*
D03*
X143189D02*
D03*
X138189D02*
D03*
D65*
X230705Y94146D02*
D03*
D66*
Y92178D02*
D03*
Y90209D02*
D03*
Y88241D02*
D03*
Y86272D02*
D03*
X213658Y94146D02*
D03*
Y92178D02*
D03*
Y90209D02*
D03*
Y88241D02*
D03*
Y86272D02*
D03*
D67*
X76289Y104100D02*
D03*
Y99100D02*
D03*
Y94100D02*
D03*
Y89100D02*
D03*
X55289Y104100D02*
D03*
Y99100D02*
D03*
Y94100D02*
D03*
D68*
Y89100D02*
D03*
D69*
X201089Y121294D02*
D03*
Y146491D02*
D03*
X182017D02*
D03*
Y121294D02*
D03*
D70*
X68095Y140528D02*
D03*
X42898D02*
D03*
D71*
X181289Y82900D02*
D03*
X176289D02*
D03*
X171289D02*
D03*
X166289D02*
D03*
Y61100D02*
D03*
X171289D02*
D03*
X176289D02*
D03*
X181289D02*
D03*
D72*
X97321Y131100D02*
D03*
X113857D02*
D03*
D73*
X239189Y76128D02*
D03*
Y79672D02*
D03*
X236589Y93528D02*
D03*
Y97072D02*
D03*
X210458Y75038D02*
D03*
Y78581D02*
D03*
D74*
X221689Y73053D02*
D03*
Y78565D02*
D03*
X226689Y73053D02*
D03*
Y78565D02*
D03*
X231789Y73053D02*
D03*
Y78565D02*
D03*
X216858D02*
D03*
Y73053D02*
D03*
D75*
X38917Y112800D02*
D03*
X42461D02*
D03*
X94261Y106400D02*
D03*
X90717D02*
D03*
X197533Y90685D02*
D03*
X201076D02*
D03*
X197602Y94894D02*
D03*
X201145D02*
D03*
X107861Y148100D02*
D03*
X104317D02*
D03*
X108132Y153700D02*
D03*
X104589D02*
D03*
D76*
X168389Y123547D02*
D03*
Y116853D02*
D03*
X160889Y123547D02*
D03*
Y116853D02*
D03*
X143183Y87500D02*
D03*
Y80807D02*
D03*
D77*
X7089Y18041D02*
D03*
Y23159D02*
D03*
X10389D02*
D03*
Y18041D02*
D03*
M02*
