G04 Layer_Color=8421504*
%FSLAX25Y25*%
%MOIN*%
G70*
G01*
G75*
%ADD10R,0.08000X0.14000*%
%ADD11R,0.06500X0.03000*%
%ADD12R,0.15748X0.09842*%
%ADD13R,0.05400X0.02800*%
%ADD14R,0.13386X0.03937*%
%ADD15R,0.14000X0.08000*%
%ADD16O,0.03543X0.18504*%
%ADD17O,0.12992X0.05000*%
G36*
X111700Y156800D02*
X109400D01*
Y154600D01*
X111700D01*
Y151800D01*
X109400D01*
Y149600D01*
X111700D01*
Y146800D01*
X109400D01*
Y144600D01*
X111700D01*
Y141800D01*
X94200D01*
Y159600D01*
X111700D01*
Y156800D01*
D02*
G37*
D10*
X32200Y50500D02*
D03*
X59200D02*
D03*
X75400Y50300D02*
D03*
X102400D02*
D03*
D11*
X77600Y161200D02*
D03*
Y150200D02*
D03*
D12*
X64848Y141100D02*
D03*
X33352D02*
D03*
D13*
X87200Y158200D02*
D03*
Y153200D02*
D03*
Y148200D02*
D03*
Y143200D02*
D03*
X109000D02*
D03*
Y148200D02*
D03*
Y153200D02*
D03*
Y158200D02*
D03*
D14*
X150800Y58500D02*
D03*
X115800D02*
D03*
D15*
X223600Y72300D02*
D03*
Y45300D02*
D03*
D16*
X184600Y35900D02*
D03*
Y71727D02*
D03*
D17*
X227900Y94689D02*
D03*
Y106500D02*
D03*
Y118311D02*
D03*
Y130122D02*
D03*
Y141933D02*
D03*
Y153744D02*
D03*
X121916Y94689D02*
D03*
Y106500D02*
D03*
Y118311D02*
D03*
Y130122D02*
D03*
Y141933D02*
D03*
Y153744D02*
D03*
M02*
