G04*
G04 #@! TF.GenerationSoftware,Altium Limited,Altium Designer,19.0.12 (326)*
G04*
G04 Layer_Physical_Order=2*
G04 Layer_Color=16711680*
%FSLAX25Y25*%
%MOIN*%
G70*
G01*
G75*
%ADD11C,0.00787*%
%ADD12C,0.01000*%
%ADD30C,0.01968*%
%ADD31C,0.08268*%
%ADD32R,0.08268X0.08268*%
%ADD33C,0.04724*%
%ADD34C,0.07480*%
%ADD35C,0.05906*%
%ADD36R,0.05906X0.05906*%
%ADD37C,0.02362*%
%ADD38C,0.02756*%
%ADD39R,0.09000X0.05500*%
%ADD40R,0.03000X0.06500*%
%ADD41R,0.02362X0.05984*%
%ADD42O,0.02362X0.05984*%
%ADD43R,0.03740X0.01200*%
%ADD44O,0.03740X0.01200*%
%ADD45O,0.05984X0.02362*%
%ADD46R,0.05984X0.02362*%
%ADD47R,0.09449X0.10236*%
%ADD48R,0.10236X0.09449*%
%ADD49R,0.02800X0.05400*%
%ADD50R,0.05512X0.08268*%
%ADD51R,0.02165X0.01772*%
%ADD52R,0.03543X0.02756*%
%ADD53R,0.01772X0.02165*%
%ADD54R,0.05118X0.03347*%
%ADD55R,0.01575X0.01968*%
%ADD56C,0.03150*%
%ADD57C,0.01181*%
%ADD58C,0.02362*%
%ADD59C,0.02756*%
G36*
X227940Y167714D02*
X220487Y160261D01*
X220226Y159870D01*
X220134Y159409D01*
X220134Y159409D01*
Y154247D01*
X195045Y129158D01*
X194531Y129151D01*
X194428Y129220D01*
X194340Y129307D01*
X194235Y129350D01*
X194141Y129413D01*
X194019Y129437D01*
X193904Y129483D01*
X193791Y129482D01*
X193680Y129504D01*
X172193D01*
Y148800D01*
X172101Y149261D01*
X171841Y149652D01*
X171450Y149913D01*
X170989Y150004D01*
X140589D01*
X140128Y149913D01*
X139737Y149652D01*
X139476Y149261D01*
X139385Y148800D01*
Y146168D01*
X138885Y145961D01*
X135817Y149028D01*
X135391Y149313D01*
X134889Y149413D01*
X109534D01*
Y149970D01*
X109445D01*
Y151830D01*
X109806D01*
Y155570D01*
X106459D01*
Y151830D01*
X106820D01*
Y151133D01*
X106320Y150866D01*
X106250Y150913D01*
X105789Y151004D01*
X61889Y151004D01*
X61428Y150913D01*
X61037Y150652D01*
X60776Y150261D01*
X60685Y149800D01*
X60685Y113358D01*
X60223Y113166D01*
X59312Y114077D01*
X58726Y114469D01*
X58034Y114606D01*
X44134D01*
Y114670D01*
X40787D01*
Y114670D01*
X40591D01*
Y114670D01*
X37323D01*
Y118976D01*
X27480D01*
Y109134D01*
X37323D01*
Y110930D01*
X40591D01*
Y110930D01*
X40787D01*
Y110930D01*
X44134D01*
Y110994D01*
X57286D01*
X62676Y105604D01*
Y100706D01*
X62814Y100015D01*
X63205Y99429D01*
X69812Y92823D01*
X70398Y92431D01*
X71089Y92294D01*
X73638D01*
X73710Y92246D01*
X74478Y92093D01*
X78100D01*
X78868Y92246D01*
X79519Y92681D01*
X79954Y93332D01*
X80107Y94100D01*
X79954Y94868D01*
X79519Y95519D01*
X79088Y95807D01*
X79184Y96233D01*
X79231Y96313D01*
X79415Y96350D01*
X79630Y96387D01*
X79645Y96396D01*
X79662Y96399D01*
X79843Y96521D01*
X80028Y96637D01*
X80038Y96651D01*
X80052Y96660D01*
X80174Y96842D01*
X80209Y96892D01*
X80862D01*
X80898Y96865D01*
X81521Y96607D01*
X82189Y96519D01*
X82857Y96607D01*
X83479Y96865D01*
X84014Y97275D01*
X84424Y97809D01*
X84682Y98432D01*
X84770Y99100D01*
X84682Y99768D01*
X84424Y100391D01*
X84014Y100925D01*
X83479Y101335D01*
X82857Y101593D01*
X82189Y101681D01*
X81521Y101593D01*
X81013Y101383D01*
X80856Y101413D01*
X80545Y101564D01*
X80496Y101596D01*
X80492Y101618D01*
X80490Y101759D01*
X80453Y101848D01*
X80437Y101943D01*
X80362Y102062D01*
X80307Y102191D01*
X80238Y102259D01*
X80186Y102341D01*
X80072Y102422D01*
X79971Y102520D01*
X79879Y102581D01*
X79780Y103071D01*
X79954Y103332D01*
X80107Y104100D01*
X80086Y104207D01*
X80403Y104594D01*
X89044D01*
Y104530D01*
X92391D01*
Y104530D01*
X92587D01*
Y104530D01*
X95934D01*
Y104594D01*
X96089D01*
X96780Y104731D01*
X97366Y105123D01*
X100669Y108425D01*
X107835D01*
Y118268D01*
X97992D01*
Y110858D01*
X95404Y108270D01*
X92587D01*
Y108270D01*
X92391D01*
Y108270D01*
X89044D01*
Y108206D01*
X80859D01*
X80771Y108273D01*
X80498Y108706D01*
X80504Y108740D01*
X80548Y108969D01*
X80548Y108972D01*
X80548Y108975D01*
X80420Y122351D01*
X80770Y122707D01*
X103894Y122881D01*
X103934Y122855D01*
X103977Y122639D01*
X104237Y122248D01*
X104628Y121987D01*
X105089Y121896D01*
X127881Y121896D01*
Y110047D01*
X128064Y109125D01*
X128586Y108344D01*
X133029Y103901D01*
X133810Y103378D01*
X134732Y103195D01*
X147488D01*
X150780Y99902D01*
Y97440D01*
X150827Y97207D01*
Y93767D01*
X155551D01*
Y97207D01*
X155597Y97440D01*
Y100900D01*
X155551Y101133D01*
Y102113D01*
X155242D01*
X154969Y102509D01*
X155136Y102996D01*
X193085Y102996D01*
X193085Y92917D01*
X193088Y92902D01*
X192771Y92516D01*
X187498D01*
X186807Y92378D01*
X186221Y91987D01*
X184715Y90481D01*
X183492D01*
Y90500D01*
X183431Y90807D01*
X183257Y91068D01*
X182996Y91242D01*
X182689Y91303D01*
X164889D01*
X164582Y91242D01*
X164321Y91068D01*
X164147Y90807D01*
X164086Y90500D01*
Y85600D01*
Y80500D01*
Y68100D01*
X164147Y67793D01*
X164321Y67532D01*
X164582Y67358D01*
X164889Y67297D01*
X166363D01*
X166518Y66929D01*
X166530Y66797D01*
X165361Y65628D01*
X165076Y65202D01*
X164976Y64700D01*
Y64587D01*
X164102D01*
Y62336D01*
X163184D01*
X163018Y62585D01*
X162302Y63063D01*
X161457Y63231D01*
X160612Y63063D01*
X159896Y62585D01*
X159417Y61869D01*
X159249Y61024D01*
X159417Y60179D01*
X159896Y59462D01*
X160612Y58984D01*
X161457Y58816D01*
X162302Y58984D01*
X163018Y59462D01*
X163184Y59711D01*
X164102D01*
Y57613D01*
X168476D01*
Y57613D01*
X168900Y57429D01*
X168947Y57193D01*
X169121Y56932D01*
X169382Y56758D01*
X169689Y56697D01*
X192976Y56697D01*
X193284Y56758D01*
X193544Y56932D01*
X193718Y57193D01*
X193779Y57500D01*
X193779Y64587D01*
X193718Y64895D01*
X193544Y65155D01*
X193284Y65329D01*
X192976Y65390D01*
X191893D01*
Y83151D01*
X213658D01*
X214119Y83243D01*
X214509Y83504D01*
X214770Y83894D01*
X214862Y84355D01*
Y84858D01*
X214928D01*
X215469Y84965D01*
X215928Y85272D01*
X216176Y85644D01*
X216589Y85594D01*
X216676Y85561D01*
Y80731D01*
X214299D01*
Y79894D01*
X212328D01*
Y80254D01*
X208588D01*
Y76908D01*
X212328D01*
Y77268D01*
X214299D01*
Y76400D01*
X218736D01*
Y76006D01*
X221521D01*
X221689Y75984D01*
X221857Y76006D01*
X234742D01*
Y81124D01*
X224270D01*
Y86033D01*
X227492D01*
X228337Y86201D01*
X228825Y86527D01*
X228922D01*
X229435Y86425D01*
X231975D01*
X232002Y86430D01*
X232389Y86113D01*
Y84000D01*
X237985D01*
Y81345D01*
X237319D01*
Y77998D01*
X241059D01*
Y78467D01*
X245940D01*
X246040Y77967D01*
X245911Y77914D01*
X245130Y77315D01*
X244531Y76534D01*
X244154Y75624D01*
X244025Y74647D01*
X244154Y73671D01*
X244531Y72761D01*
X245130Y71980D01*
X245911Y71380D01*
X246821Y71003D01*
X247798Y70875D01*
X248774Y71003D01*
X249684Y71380D01*
X250465Y71980D01*
X251065Y72761D01*
X251442Y73671D01*
X251570Y74647D01*
X251442Y75624D01*
X251065Y76534D01*
X250465Y77315D01*
X249684Y77914D01*
X249555Y77967D01*
X249655Y78467D01*
X252260D01*
X252389Y68500D01*
Y12604D01*
X220429D01*
X219969Y12513D01*
X219578Y12252D01*
X219578Y12252D01*
X217481Y10155D01*
X217097Y10314D01*
X216275Y10422D01*
X215453Y10314D01*
X214686Y9996D01*
X214029Y9492D01*
X213524Y8834D01*
X213365Y8450D01*
X192413D01*
X192254Y8834D01*
X191750Y9492D01*
X191092Y9996D01*
X190325Y10314D01*
X189503Y10422D01*
X188681Y10314D01*
X187915Y9996D01*
X187257Y9492D01*
X186752Y8834D01*
X186435Y8067D01*
X186326Y7245D01*
X186435Y6423D01*
X186594Y6039D01*
X186005Y5450D01*
X13047D01*
X11593Y6904D01*
Y16269D01*
X11964D01*
Y19813D01*
X8814D01*
Y19813D01*
X8664D01*
Y19813D01*
X7020D01*
X5946Y20887D01*
X6081Y21387D01*
X8314D01*
X8664Y21387D01*
X9164Y21387D01*
X11964D01*
Y21605D01*
X12271Y21956D01*
X12732Y22047D01*
X13123Y22308D01*
X18649Y27835D01*
X18649Y27835D01*
X18910Y28225D01*
X19002Y28686D01*
X19002Y28686D01*
Y31098D01*
X19684Y31380D01*
X20465Y31980D01*
X21065Y32761D01*
X21441Y33671D01*
X21570Y34647D01*
X21441Y35624D01*
X21065Y36533D01*
X20465Y37315D01*
X19684Y37914D01*
X18774Y38291D01*
X17798Y38420D01*
X16821Y38291D01*
X15911Y37914D01*
X15130Y37315D01*
X14531Y36533D01*
X14154Y35624D01*
X14025Y34647D01*
X14154Y33671D01*
X14531Y32761D01*
X15130Y31980D01*
X15911Y31380D01*
X16593Y31098D01*
Y29185D01*
X12449Y25040D01*
X11964Y24931D01*
Y24931D01*
X11964Y24931D01*
X8647Y24931D01*
X8293Y25284D01*
Y34083D01*
X15730Y41520D01*
X15911Y41380D01*
X16821Y41003D01*
X17798Y40875D01*
X18774Y41003D01*
X19684Y41380D01*
X20465Y41980D01*
X21065Y42761D01*
X21441Y43671D01*
X21570Y44647D01*
X21441Y45624D01*
X21065Y46533D01*
X20465Y47315D01*
X19684Y47914D01*
X18774Y48291D01*
X17798Y48420D01*
X16821Y48291D01*
X15911Y47914D01*
X15130Y47315D01*
X14531Y46533D01*
X14154Y45624D01*
X14025Y44647D01*
X14154Y43671D01*
X14248Y43444D01*
X6350Y35546D01*
X5906Y35687D01*
X5850Y35730D01*
Y64185D01*
X6350Y64392D01*
X14436Y56306D01*
X14154Y55624D01*
X14025Y54647D01*
X14154Y53671D01*
X14531Y52761D01*
X15130Y51980D01*
X15911Y51380D01*
X16821Y51003D01*
X17798Y50875D01*
X18774Y51003D01*
X19684Y51380D01*
X20465Y51980D01*
X21065Y52761D01*
X21441Y53671D01*
X21570Y54647D01*
X21441Y55624D01*
X21065Y56533D01*
X20465Y57315D01*
X19684Y57914D01*
X18774Y58291D01*
X17798Y58420D01*
X16821Y58291D01*
X16139Y58009D01*
X8193Y65955D01*
Y90701D01*
X15088Y97596D01*
X24217D01*
X24520Y97102D01*
X23995Y96120D01*
X23478Y94413D01*
X23303Y92638D01*
X23478Y90863D01*
X23995Y89156D01*
X24836Y87583D01*
X25968Y86204D01*
X27347Y85072D01*
X28920Y84232D01*
X30626Y83714D01*
X32402Y83539D01*
X34177Y83714D01*
X35884Y84232D01*
X37457Y85072D01*
X38835Y86204D01*
X39967Y87583D01*
X40808Y89156D01*
X41326Y90863D01*
X41500Y92638D01*
X41734Y92896D01*
X51915D01*
X52059Y92681D01*
X52710Y92246D01*
X53478Y92093D01*
X57100D01*
X57868Y92246D01*
X58519Y92681D01*
X58954Y93332D01*
X59107Y94100D01*
X58954Y94868D01*
X58519Y95519D01*
X57868Y95954D01*
X57100Y96107D01*
X53478D01*
X52710Y95954D01*
X52059Y95519D01*
X51915Y95304D01*
X41829D01*
X40779Y96354D01*
X40692Y96484D01*
X40692Y96484D01*
X40522Y96654D01*
X39967Y97693D01*
X38835Y99072D01*
X37457Y100203D01*
X36418Y100759D01*
X36216Y100961D01*
X36407Y101423D01*
X49829D01*
X49829Y101423D01*
X50290Y101514D01*
X50680Y101775D01*
X51509Y102604D01*
X52059Y102681D01*
X52710Y102246D01*
X53478Y102093D01*
X57100D01*
X57868Y102246D01*
X58519Y102681D01*
X58954Y103332D01*
X59107Y104100D01*
X58954Y104868D01*
X58519Y105519D01*
X57868Y105954D01*
X57100Y106107D01*
X53478D01*
X52710Y105954D01*
X52059Y105519D01*
X51915Y105304D01*
X51302D01*
X50841Y105213D01*
X50451Y104952D01*
X50450Y104952D01*
X49330Y103831D01*
X26104D01*
X26104Y103831D01*
X25644Y103739D01*
X25253Y103478D01*
X25253Y103478D01*
X23354Y101579D01*
X13937D01*
X13476Y101487D01*
X13085Y101226D01*
X13085Y101226D01*
X3794Y91935D01*
X3533Y91545D01*
X3441Y91084D01*
X3441Y91084D01*
Y20484D01*
X3441Y20484D01*
X3533Y20023D01*
X3794Y19633D01*
X5514Y17913D01*
Y16269D01*
X5885D01*
Y7200D01*
X5885Y7200D01*
X5976Y6739D01*
X6237Y6348D01*
X10734Y1852D01*
X10721Y1715D01*
X10566Y1352D01*
X1431D01*
X1431Y168176D01*
X227748D01*
X227940Y167714D01*
D02*
G37*
G36*
X133389Y145400D02*
X133389Y123100D01*
X105089Y123100D01*
X105089Y145046D01*
X105443Y145400D01*
X133389Y145400D01*
D02*
G37*
G36*
X170989Y119708D02*
X164649D01*
Y119708D01*
X164629D01*
Y119708D01*
X157149D01*
Y119061D01*
X155597D01*
Y120751D01*
X155414Y121673D01*
X154892Y122454D01*
X154111Y122976D01*
X153189Y123160D01*
X152267Y122976D01*
X151486Y122454D01*
X150964Y121673D01*
X150780Y120751D01*
Y117129D01*
X150964Y116207D01*
X151486Y115426D01*
X152267Y114904D01*
X152287Y114900D01*
X152238Y114400D01*
X144140D01*
X144091Y114900D01*
X144111Y114904D01*
X144892Y115426D01*
X145414Y116207D01*
X145598Y117129D01*
Y120751D01*
X145414Y121673D01*
X144892Y122454D01*
X144111Y122976D01*
X143189Y123160D01*
X142267Y122976D01*
X141486Y122454D01*
X141089Y121860D01*
X140589Y122012D01*
Y148800D01*
X170989D01*
Y119708D01*
D02*
G37*
G36*
X243917Y167441D02*
X244062Y167064D01*
X244087Y166941D01*
X243753Y166441D01*
X243631Y165827D01*
X243753Y165212D01*
X244101Y164691D01*
X244622Y164343D01*
X245236Y164221D01*
X245339D01*
X245531Y163759D01*
X208346Y126575D01*
X208347Y114995D01*
X195184D01*
Y127593D01*
X221339Y153748D01*
Y159409D01*
X229370Y167441D01*
X243917Y167441D01*
D02*
G37*
G36*
X260055Y158140D02*
Y102386D01*
X239320D01*
X238601Y102291D01*
X237931Y102014D01*
X237355Y101572D01*
X235474Y99691D01*
X235199Y99577D01*
X234627Y99139D01*
X234325D01*
Y98747D01*
X234182Y98560D01*
X234083Y98321D01*
X233717Y98248D01*
X233131Y97857D01*
X231227Y95953D01*
X223438D01*
X222746Y95815D01*
X222160Y95424D01*
X220337Y93600D01*
X220191Y93382D01*
X220109Y93377D01*
X219673Y93506D01*
X219572Y94009D01*
X219201Y94565D01*
X218489Y95277D01*
X217933Y95649D01*
X217277Y95779D01*
X215690D01*
X215623Y95824D01*
X214928Y95962D01*
X212388D01*
X211693Y95824D01*
X211104Y95430D01*
X210865Y95407D01*
X210251Y96021D01*
X209695Y96393D01*
X209039Y96523D01*
X208446D01*
X208361Y96634D01*
X207826Y97045D01*
X207204Y97303D01*
X206535Y97390D01*
X205867Y97303D01*
X205245Y97045D01*
X204710Y96634D01*
X204625Y96523D01*
X203212D01*
Y97158D01*
X195535D01*
Y92949D01*
X195466D01*
Y92917D01*
X194289D01*
X194289Y104200D01*
X153295Y104200D01*
X150189Y107307D01*
X149407Y107829D01*
X148485Y108012D01*
X135730D01*
X135689Y108053D01*
X135689Y114814D01*
X135788Y114896D01*
X136456Y114797D01*
X136628Y114539D01*
X137344Y114060D01*
X138189Y113892D01*
X139034Y114060D01*
X139750Y114539D01*
X140229Y115255D01*
X140397Y116100D01*
Y116181D01*
X140414Y116207D01*
X140597Y117129D01*
Y120250D01*
X140644Y120327D01*
X140985Y120638D01*
X141097Y120673D01*
X141207Y120662D01*
X141264Y120679D01*
X141324D01*
X141487Y120747D01*
X141657Y120798D01*
X141703Y120836D01*
X141758Y120859D01*
X141883Y120984D01*
X142020Y121096D01*
X142048Y121149D01*
X142090Y121191D01*
X142354Y121586D01*
X142737Y121842D01*
X143189Y121932D01*
X143641Y121842D01*
X144024Y121586D01*
X144280Y121203D01*
X144393Y120633D01*
Y117248D01*
X144280Y116677D01*
X144024Y116294D01*
X143530Y115964D01*
X143523Y115962D01*
X143507Y115949D01*
X143458Y115917D01*
X143421Y115901D01*
X143297Y115776D01*
X143160Y115664D01*
X143131Y115611D01*
X143089Y115569D01*
X143022Y115405D01*
X142938Y115250D01*
X142932Y115190D01*
X142910Y115135D01*
X142910Y114958D01*
X142892Y114782D01*
X142941Y114282D01*
X142993Y114113D01*
X143027Y113939D01*
X143061Y113890D01*
X143078Y113832D01*
X143190Y113696D01*
X143288Y113549D01*
X143338Y113515D01*
X143376Y113469D01*
X143532Y113386D01*
X143679Y113287D01*
X143738Y113276D01*
X143790Y113248D01*
X143966Y113230D01*
X144140Y113196D01*
X152238D01*
X152412Y113230D01*
X152588Y113248D01*
X152640Y113276D01*
X152699Y113287D01*
X152846Y113386D01*
X153002Y113469D01*
X153040Y113515D01*
X153090Y113549D01*
X153188Y113696D01*
X153300Y113832D01*
X153317Y113890D01*
X153351Y113939D01*
X153385Y114113D01*
X153437Y114282D01*
X153447Y114391D01*
X153471Y114433D01*
X153975Y114757D01*
X154535Y114646D01*
X157149D01*
Y113999D01*
X164629D01*
Y118029D01*
X164649Y118504D01*
X170989D01*
X171450Y118595D01*
X171841Y118856D01*
X172101Y119247D01*
X172193Y119708D01*
Y128300D01*
X193680D01*
X194020Y127800D01*
X193979Y127593D01*
X193979Y127593D01*
Y114995D01*
X194071Y114534D01*
X194332Y114143D01*
X194723Y113882D01*
X195184Y113790D01*
X208347D01*
X208807Y113882D01*
X209198Y114143D01*
X209459Y114534D01*
X209551Y114995D01*
X209551Y126076D01*
X246382Y162908D01*
X246476Y163047D01*
X255148D01*
X260055Y158140D01*
D02*
G37*
G36*
X105789Y149800D02*
X105789Y146951D01*
X105444Y146605D01*
X105443Y146604D01*
X104982Y146513D01*
X104591Y146252D01*
X104237Y145898D01*
X103976Y145507D01*
X103885Y145046D01*
X103885Y145046D01*
X103885Y124086D01*
X79201Y123900D01*
X79344Y108963D01*
X78992Y108608D01*
X78589D01*
X77744Y108440D01*
X77028Y107961D01*
X75575Y106509D01*
X74478D01*
X73556Y106325D01*
X72775Y105803D01*
X72253Y105022D01*
X72070Y104100D01*
X72253Y103178D01*
X72775Y102397D01*
X73556Y101875D01*
X74478Y101691D01*
X78100D01*
X78820Y101835D01*
X79312Y101513D01*
X79201Y97512D01*
X70800D01*
X66690Y101621D01*
Y106352D01*
X66522Y107197D01*
X66044Y107913D01*
X61889Y112068D01*
X61889Y149800D01*
X105789Y149800D01*
D02*
G37*
G36*
X264979Y98451D02*
Y84600D01*
X252009D01*
X251967Y84647D01*
X251825Y85726D01*
X251409Y86732D01*
X250746Y87595D01*
X249882Y88258D01*
X248877Y88675D01*
X247798Y88817D01*
X246719Y88675D01*
X245713Y88258D01*
X244849Y87595D01*
X244187Y86732D01*
X243770Y85726D01*
X243628Y84647D01*
X243587Y84600D01*
X241563D01*
X241316Y85100D01*
X241424Y85241D01*
X241682Y85864D01*
X241770Y86532D01*
X241682Y87200D01*
X241424Y87822D01*
X241014Y88357D01*
X240480Y88767D01*
X239857Y89025D01*
X239189Y89113D01*
X238915Y89077D01*
X237030Y90961D01*
X237237Y91461D01*
X238842D01*
X239098Y91265D01*
X239721Y91007D01*
X240389Y90919D01*
X241057Y91007D01*
X241680Y91265D01*
X242214Y91675D01*
X242624Y92209D01*
X242882Y92832D01*
X242970Y93500D01*
X242882Y94168D01*
X242624Y94791D01*
X242214Y95325D01*
X241680Y95735D01*
X241057Y95993D01*
X240573Y96057D01*
X240361Y96536D01*
X240592Y96827D01*
X261496D01*
X262215Y96921D01*
X262886Y97199D01*
X263462Y97641D01*
X264479Y98658D01*
X264979Y98451D01*
D02*
G37*
G36*
X182689Y80500D02*
Y68100D01*
X164889D01*
Y80500D01*
Y90500D01*
X182689D01*
Y80500D01*
D02*
G37*
G36*
X192976Y57500D02*
X169689Y57500D01*
Y64587D01*
X184589D01*
X184589Y64587D01*
X192976D01*
X192976Y57500D01*
D02*
G37*
%LPC*%
G36*
X59069Y91069D02*
X51509D01*
Y87132D01*
X59069D01*
Y91069D01*
D02*
G37*
G36*
X78100Y91107D02*
X74478D01*
X73710Y90954D01*
X73059Y90519D01*
X72624Y89868D01*
X72471Y89100D01*
X72624Y88332D01*
X73059Y87681D01*
X73710Y87246D01*
X74478Y87093D01*
X78100D01*
X78868Y87246D01*
X79519Y87681D01*
X79954Y88332D01*
X80107Y89100D01*
X79954Y89868D01*
X79519Y90519D01*
X78868Y90954D01*
X78100Y91107D01*
D02*
G37*
G36*
X143189Y101758D02*
X142421Y101605D01*
X141770Y101170D01*
X141335Y100519D01*
X141182Y99751D01*
Y96129D01*
X141335Y95361D01*
X141376Y95299D01*
Y89961D01*
X139836D01*
Y85039D01*
X146529D01*
Y89961D01*
X144989D01*
Y95280D01*
X145043Y95361D01*
X145196Y96129D01*
Y99751D01*
X145043Y100519D01*
X144608Y101170D01*
X143957Y101605D01*
X143189Y101758D01*
D02*
G37*
G36*
X102913Y101028D02*
X101138Y100853D01*
X99431Y100336D01*
X97858Y99495D01*
X96479Y98363D01*
X95348Y96984D01*
X94507Y95411D01*
X93989Y93704D01*
X93814Y91929D01*
X93989Y90154D01*
X94507Y88447D01*
X95348Y86874D01*
X96479Y85495D01*
X97858Y84364D01*
X99431Y83523D01*
X101138Y83005D01*
X102913Y82830D01*
X104689Y83005D01*
X106395Y83523D01*
X107968Y84364D01*
X109347Y85495D01*
X110479Y86874D01*
X111320Y88447D01*
X111837Y90154D01*
X112012Y91929D01*
X111837Y93704D01*
X111320Y95411D01*
X110479Y96984D01*
X109347Y98363D01*
X107968Y99495D01*
X106395Y100336D01*
X104689Y100853D01*
X102913Y101028D01*
D02*
G37*
G36*
X120489Y50464D02*
X53089Y50464D01*
X51804Y50295D01*
X50607Y49799D01*
X49579Y49010D01*
X48790Y47982D01*
X48294Y46785D01*
X48125Y45500D01*
X48125Y24109D01*
X47625Y23958D01*
X46643Y25154D01*
X45324Y26237D01*
X43820Y27041D01*
X42187Y27536D01*
X40489Y27703D01*
X38791Y27536D01*
X37158Y27041D01*
X35654Y26237D01*
X34335Y25154D01*
X33252Y23835D01*
X32448Y22331D01*
X31953Y20698D01*
X31786Y19000D01*
X31953Y17302D01*
X32448Y15669D01*
X33252Y14165D01*
X34335Y12846D01*
X35654Y11763D01*
X37158Y10959D01*
X38791Y10464D01*
X40489Y10297D01*
X42187Y10464D01*
X43820Y10959D01*
X45324Y11763D01*
X46643Y12846D01*
X47725Y14165D01*
X47762Y14232D01*
X48278Y14138D01*
X48294Y14017D01*
X48294Y14017D01*
X48294Y14017D01*
X48543Y13417D01*
X48790Y12820D01*
X48790Y12820D01*
X48790Y12820D01*
X49160Y12338D01*
X49579Y11792D01*
X49579Y11792D01*
X49579Y11792D01*
X50125Y11373D01*
X50607Y11003D01*
X50607Y11003D01*
X50607Y11003D01*
X51204Y10756D01*
X51804Y10507D01*
X51804Y10507D01*
X51804Y10507D01*
X52423Y10425D01*
X53088Y10338D01*
X60076Y10337D01*
X60489Y10297D01*
X60901Y10337D01*
X73919Y10336D01*
X74522Y10416D01*
X75125Y10485D01*
X75164Y10500D01*
X75204Y10505D01*
X75765Y10738D01*
X76331Y10961D01*
X76363Y10986D01*
X76401Y11001D01*
X76883Y11371D01*
X77372Y11733D01*
X77397Y11765D01*
X77429Y11790D01*
X77527Y11917D01*
X78758Y11259D01*
X80391Y10764D01*
X82089Y10597D01*
X83787Y10764D01*
X85420Y11259D01*
X86650Y11917D01*
X86748Y11789D01*
X86780Y11764D01*
X86806Y11732D01*
X87294Y11370D01*
X87775Y11000D01*
X87813Y10985D01*
X87846Y10960D01*
X88411Y10737D01*
X88973Y10504D01*
X89013Y10499D01*
X89051Y10484D01*
X89655Y10414D01*
X90257Y10335D01*
X127318Y10333D01*
X127849Y10402D01*
X128383Y10448D01*
X128490Y10487D01*
X128602Y10502D01*
X129098Y10707D01*
X129602Y10889D01*
X129695Y10954D01*
X129799Y10997D01*
X130225Y11324D01*
X130665Y11631D01*
X134236Y14891D01*
X134309Y14978D01*
X134399Y15047D01*
X134725Y15472D01*
X135071Y15882D01*
X135119Y15985D01*
X135188Y16075D01*
X135393Y16570D01*
X135620Y17055D01*
X135640Y17167D01*
X135684Y17272D01*
X135754Y17803D01*
X135848Y18331D01*
X135838Y18444D01*
X135853Y18557D01*
Y35100D01*
X135853Y35100D01*
X135684Y36385D01*
X135188Y37582D01*
X134399Y38610D01*
X134399Y38610D01*
X123999Y49010D01*
X123999Y49010D01*
X122971Y49799D01*
X121774Y50295D01*
X120489Y50464D01*
D02*
G37*
G36*
X216275Y28929D02*
X215350Y28808D01*
X214488Y28451D01*
X213748Y27883D01*
X213180Y27142D01*
X212823Y26281D01*
X212701Y25355D01*
X212823Y24430D01*
X213180Y23569D01*
X213748Y22828D01*
X214488Y22260D01*
X215350Y21903D01*
X216275Y21782D01*
X217200Y21903D01*
X218062Y22260D01*
X218802Y22828D01*
X219370Y23569D01*
X219727Y24430D01*
X219849Y25355D01*
X219727Y26281D01*
X219370Y27142D01*
X218802Y27883D01*
X218062Y28451D01*
X217200Y28808D01*
X216275Y28929D01*
D02*
G37*
G36*
X189503D02*
X188578Y28808D01*
X187716Y28451D01*
X186976Y27883D01*
X186408Y27142D01*
X186051Y26281D01*
X185929Y25355D01*
X186051Y24430D01*
X186408Y23569D01*
X186976Y22828D01*
X187716Y22260D01*
X188578Y21903D01*
X189503Y21782D01*
X190428Y21903D01*
X191290Y22260D01*
X192030Y22828D01*
X192598Y23569D01*
X192955Y24430D01*
X193077Y25355D01*
X192955Y26281D01*
X192598Y27142D01*
X192030Y27883D01*
X191290Y28451D01*
X190428Y28808D01*
X189503Y28929D01*
D02*
G37*
G36*
X229703Y28929D02*
X228778Y28807D01*
X227916Y28450D01*
X227176Y27882D01*
X226608Y27142D01*
X226251Y26280D01*
X226129Y25355D01*
X226251Y24430D01*
X226608Y23568D01*
X227176Y22828D01*
X227916Y22260D01*
X228778Y21903D01*
X229703Y21781D01*
X230628Y21903D01*
X231490Y22260D01*
X232230Y22828D01*
X232798Y23568D01*
X233155Y24430D01*
X233277Y25355D01*
X233155Y26280D01*
X232798Y27142D01*
X232230Y27882D01*
X231490Y28450D01*
X230628Y28807D01*
X229703Y28929D01*
D02*
G37*
%LPD*%
G36*
X130889Y35100D02*
Y18557D01*
X127318Y15296D01*
X90258Y15299D01*
X90001Y15728D01*
X90130Y15969D01*
X90625Y17602D01*
X90792Y19300D01*
X90625Y20998D01*
X90130Y22631D01*
X89325Y24135D01*
X88243Y25454D01*
X86924Y26537D01*
X85420Y27341D01*
X83787Y27836D01*
X82089Y28003D01*
X80391Y27836D01*
X78758Y27341D01*
X77254Y26537D01*
X75935Y25454D01*
X74852Y24135D01*
X74048Y22631D01*
X73553Y20998D01*
X73386Y19300D01*
X73553Y17602D01*
X74048Y15969D01*
X74177Y15729D01*
X73920Y15300D01*
X53089Y15302D01*
X53089Y45500D01*
X120489Y45500D01*
X130889Y35100D01*
D02*
G37*
D11*
X225129Y2671D02*
X229703Y7245D01*
X11618Y2671D02*
X225129D01*
X7089Y7200D02*
X11618Y2671D01*
X186504Y4246D02*
X189503Y7245D01*
X12549Y4246D02*
X186504D01*
X10389Y6405D02*
X12549Y4246D01*
X4646Y20484D02*
Y91084D01*
Y20484D02*
X7089Y18041D01*
X4646Y91084D02*
X13937Y100375D01*
X236097Y96579D02*
X236589Y97072D01*
X236786D01*
X221614Y87575D02*
X221689Y87500D01*
X201076Y90397D02*
X213470D01*
X213658Y90209D01*
X201076Y90397D02*
Y90685D01*
X197262Y90709D02*
X197602Y91049D01*
Y94894D01*
X190689Y84355D02*
X213658D01*
X190689Y61100D02*
Y84355D01*
X213658D02*
Y86272D01*
X235511Y90209D02*
X239189Y86532D01*
Y79672D02*
Y86532D01*
X7089Y34582D02*
X17154Y44647D01*
X7089Y23159D02*
Y34582D01*
X10389Y6405D02*
Y18041D01*
X7089Y7200D02*
Y18041D01*
X258917Y79672D02*
X262289Y76300D01*
Y14300D02*
Y76300D01*
X259389Y11400D02*
X262289Y14300D01*
X17798Y28686D02*
Y34647D01*
X12271Y23160D02*
X17798Y28686D01*
X17154Y44647D02*
X17798D01*
X6989Y91200D02*
X14589Y98800D01*
X6989Y65456D02*
Y91200D01*
Y65456D02*
X17798Y54647D01*
X220429Y11400D02*
X259389D01*
X216275Y7245D02*
X220429Y11400D01*
X189503Y7245D02*
X216275D01*
X239189Y79672D02*
X258917D01*
X230705Y90209D02*
X235511D01*
X229703Y7245D02*
X256475D01*
X51302Y104100D02*
X55289D01*
X49829Y102627D02*
X51302Y104100D01*
X26104Y102627D02*
X49829D01*
X26757Y101052D02*
X34421D01*
X39841Y95589D02*
X41330Y94100D01*
X39841Y95589D02*
Y95632D01*
X34421Y101052D02*
X39841Y95632D01*
X41330Y94100D02*
X55289D01*
X23852Y100375D02*
X26104Y102627D01*
X13937Y100375D02*
X23852D01*
X24505Y98800D02*
X26757Y101052D01*
X14589Y98800D02*
X24505D01*
X10348Y23160D02*
X12271D01*
D12*
X230705Y92178D02*
X235239D01*
X201145Y94809D02*
X209039D01*
X209333Y86036D02*
X211527Y88230D01*
X189993Y86036D02*
X209333D01*
X209039Y94809D02*
X211670Y92178D01*
X213658D01*
X211527Y88230D02*
X213647D01*
X189008Y85051D02*
X189993Y86036D01*
X189008Y70319D02*
Y85051D01*
X213647Y88230D02*
X213658Y88241D01*
X161457Y61024D02*
X166213D01*
X166289Y61100D01*
X138189Y118200D02*
Y144800D01*
X134889Y148100D02*
X138189Y144800D01*
X107861Y148100D02*
X134889D01*
X107861D02*
X108132Y148372D01*
Y153700D01*
X184589Y65900D02*
X189008Y70319D01*
X167489Y65900D02*
X184589D01*
X166289Y64700D02*
X167489Y65900D01*
X166289Y61100D02*
Y64700D01*
X240361Y93528D02*
X240389Y93500D01*
X236589Y93528D02*
X240361D01*
X227492Y88241D02*
X230705D01*
X217277Y94065D02*
X217989Y93353D01*
Y79697D02*
Y93353D01*
X216858Y78565D02*
X217989Y79697D01*
X17798Y94647D02*
X20036D01*
X235239Y92178D02*
X236589Y93528D01*
X153189Y118200D02*
X154535Y116853D01*
X243961Y68694D02*
X246407D01*
X213739Y94065D02*
X217277D01*
X216842Y78581D02*
X216858Y78565D01*
X210458Y78581D02*
X216842D01*
X213658Y94146D02*
X213739Y94065D01*
D30*
X221689Y87500D02*
X222430Y88241D01*
X187498Y90709D02*
X197262D01*
X76289Y99100D02*
X82189D01*
X185464Y88675D02*
X187498Y90709D01*
X178789Y88675D02*
X185464D01*
X222430Y88241D02*
X227492D01*
X226689Y78565D02*
X231789D01*
X221689D02*
X226689D01*
X154535Y116853D02*
X160889D01*
X138189Y116100D02*
Y118200D01*
X143183Y87500D02*
Y98594D01*
X96089Y106400D02*
X101589Y111900D01*
X94261Y106400D02*
X96089D01*
X76289Y104100D02*
X78589Y106400D01*
X90717D01*
X31089Y112800D02*
X38917D01*
X30589Y114009D02*
X31089Y113509D01*
X64483Y100706D02*
Y106352D01*
X58034Y112800D02*
X64483Y106352D01*
X42461Y112800D02*
X58034D01*
X64483Y100706D02*
X71089Y94100D01*
X76289D01*
D31*
X32402Y71220D02*
D03*
Y92638D02*
D03*
X102913Y70512D02*
D03*
Y91929D02*
D03*
D32*
X32402Y114055D02*
D03*
X102913Y113347D02*
D03*
D33*
X216275Y7245D02*
D03*
Y25355D02*
D03*
X189503D02*
D03*
Y7245D02*
D03*
X256475Y7245D02*
D03*
Y25355D02*
D03*
X229703D02*
D03*
Y7245D02*
D03*
D34*
X145889Y19300D02*
D03*
X125889D02*
D03*
X60489Y19000D02*
D03*
X40489D02*
D03*
X102089Y19300D02*
D03*
X82089D02*
D03*
D35*
X247798Y34647D02*
D03*
Y44647D02*
D03*
Y54647D02*
D03*
Y64647D02*
D03*
Y74647D02*
D03*
Y84647D02*
D03*
Y94647D02*
D03*
Y104647D02*
D03*
Y114647D02*
D03*
Y124647D02*
D03*
Y134647D02*
D03*
X17798Y34647D02*
D03*
Y44647D02*
D03*
Y54647D02*
D03*
Y64647D02*
D03*
Y74647D02*
D03*
Y84647D02*
D03*
Y94647D02*
D03*
Y104647D02*
D03*
Y114647D02*
D03*
Y124647D02*
D03*
Y134647D02*
D03*
D36*
X247798Y144647D02*
D03*
X17798D02*
D03*
D37*
X198176Y81411D02*
D03*
X208018Y61726D02*
D03*
X188333Y140466D02*
D03*
Y101096D02*
D03*
X158806Y81411D02*
D03*
Y42041D02*
D03*
X148963Y61726D02*
D03*
X139120Y42041D02*
D03*
X129278Y101096D02*
D03*
X119436Y81411D02*
D03*
X99750Y120781D02*
D03*
X50538Y140466D02*
D03*
X40695Y120781D02*
D03*
X30853Y140466D02*
D03*
X21010Y120781D02*
D03*
X11168Y140466D02*
D03*
Y101096D02*
D03*
X152900Y164088D02*
D03*
X103688Y120781D02*
D03*
X9200Y136529D02*
D03*
X11168Y140466D02*
D03*
X129278Y69600D02*
D03*
X188333Y132592D02*
D03*
X38727Y164088D02*
D03*
X15105Y14482D02*
D03*
X44633Y160152D02*
D03*
X66286Y6608D02*
D03*
Y93222D02*
D03*
X78097Y6608D02*
D03*
X89908D02*
D03*
X152900Y85348D02*
D03*
X143058Y42041D02*
D03*
X19042Y164088D02*
D03*
X158806Y160152D02*
D03*
X176523Y132592D02*
D03*
X229672Y57789D02*
D03*
X145026Y69600D02*
D03*
X135184Y97159D02*
D03*
X204082Y69600D02*
D03*
X237546Y18419D02*
D03*
X52507Y152278D02*
D03*
X162743Y81411D02*
D03*
X137152Y156214D02*
D03*
X141089Y61726D02*
D03*
X143058Y73537D02*
D03*
X150932Y34167D02*
D03*
X24948Y160152D02*
D03*
X170617Y42041D02*
D03*
X141089Y38104D02*
D03*
X174554Y144404D02*
D03*
X188333Y156214D02*
D03*
X198176Y73537D02*
D03*
X115499Y89285D02*
D03*
X139121Y42041D02*
D03*
X143058Y57789D02*
D03*
X180459Y132592D02*
D03*
X143058Y49915D02*
D03*
X9200Y42041D02*
D03*
X115499Y112907D02*
D03*
X19042Y6608D02*
D03*
X89908Y164088D02*
D03*
X17074Y89285D02*
D03*
X154869D02*
D03*
X24948Y105033D02*
D03*
X213924Y18419D02*
D03*
X13137Y81411D02*
D03*
X62349Y164088D02*
D03*
X13137Y10545D02*
D03*
X56444Y136529D02*
D03*
X97782Y164088D02*
D03*
X162743Y34167D02*
D03*
X194239Y136529D02*
D03*
X174554D02*
D03*
X3294Y14482D02*
D03*
Y156214D02*
D03*
Y132592D02*
D03*
X137152Y30230D02*
D03*
X19042Y22356D02*
D03*
X211956Y148340D02*
D03*
X70223Y156214D02*
D03*
X74160Y6608D02*
D03*
X26916Y140466D02*
D03*
X11168Y101096D02*
D03*
X184397Y132592D02*
D03*
X9200Y128655D02*
D03*
X172585Y45978D02*
D03*
X64318Y160152D02*
D03*
X200145Y14482D02*
D03*
X58412Y6608D02*
D03*
X209987Y65663D02*
D03*
X5263Y105033D02*
D03*
X62349Y6608D02*
D03*
X121404Y69600D02*
D03*
X113530Y116844D02*
D03*
X141089Y22356D02*
D03*
X11168Y164088D02*
D03*
X21011Y128655D02*
D03*
X30853Y77474D02*
D03*
X103688Y105033D02*
D03*
X178491Y160152D02*
D03*
X66286Y164088D02*
D03*
X99751Y152278D02*
D03*
X24948Y120781D02*
D03*
X156837Y53852D02*
D03*
X176523Y156214D02*
D03*
X28885Y128655D02*
D03*
X117467Y69600D02*
D03*
X208019Y156214D02*
D03*
X194239Y160152D02*
D03*
X148963Y38104D02*
D03*
X26916Y6608D02*
D03*
X148963Y45978D02*
D03*
X28885Y152278D02*
D03*
X204082Y77474D02*
D03*
X209987Y57789D02*
D03*
X188333Y164088D02*
D03*
X211956Y61726D02*
D03*
X95814Y152278D02*
D03*
X208019Y148340D02*
D03*
X198176Y160152D02*
D03*
X150932Y152278D02*
D03*
X135184Y73537D02*
D03*
X42664Y164088D02*
D03*
X160774Y77474D02*
D03*
X164711Y38104D02*
D03*
X143058Y26293D02*
D03*
X158806Y34167D02*
D03*
X204082Y14482D02*
D03*
X111562Y73537D02*
D03*
X21011Y152278D02*
D03*
X91877D02*
D03*
X146995Y65663D02*
D03*
X80066Y160152D02*
D03*
X182428D02*
D03*
X196207Y132592D02*
D03*
X217861Y57789D02*
D03*
X174554Y160152D02*
D03*
X5263Y120781D02*
D03*
X146995Y42041D02*
D03*
X152900Y53852D02*
D03*
X54475Y6608D02*
D03*
X178491Y49915D02*
D03*
X7231Y45978D02*
D03*
X34790Y148340D02*
D03*
X95814Y120781D02*
D03*
X247389Y69600D02*
D03*
X5263Y152278D02*
D03*
X168649Y45978D02*
D03*
X243452Y38104D02*
D03*
X42664Y116844D02*
D03*
X154869Y160152D02*
D03*
X115499Y81411D02*
D03*
X13137Y65663D02*
D03*
X225735Y18419D02*
D03*
X22979Y164088D02*
D03*
X109593D02*
D03*
X194239Y81411D02*
D03*
X182428Y136529D02*
D03*
X22979Y140466D02*
D03*
X215893Y164088D02*
D03*
X34790D02*
D03*
Y140466D02*
D03*
X36759Y120781D02*
D03*
X141089Y45978D02*
D03*
X172585Y164088D02*
D03*
X186365Y10545D02*
D03*
X198176Y57789D02*
D03*
X139121Y26293D02*
D03*
X56444Y144404D02*
D03*
X168649Y164088D02*
D03*
X30853Y132592D02*
D03*
X200145Y156214D02*
D03*
X7231Y140466D02*
D03*
X162743Y160152D02*
D03*
X50538Y108970D02*
D03*
X64318Y81411D02*
D03*
X3294Y108970D02*
D03*
X58412Y156214D02*
D03*
X125341Y101096D02*
D03*
X48570Y152278D02*
D03*
X176523Y53852D02*
D03*
X36759Y152278D02*
D03*
X50538Y140466D02*
D03*
X3294Y148340D02*
D03*
X42664Y132592D02*
D03*
X5263Y112907D02*
D03*
X107625Y160152D02*
D03*
X38727Y6608D02*
D03*
X156837Y85348D02*
D03*
X192271Y132592D02*
D03*
X198176Y65663D02*
D03*
X225735Y57789D02*
D03*
X24948Y136529D02*
D03*
X229672Y18419D02*
D03*
X22979Y108970D02*
D03*
X66286Y77474D02*
D03*
X145026Y61726D02*
D03*
X150932Y42041D02*
D03*
X152900Y69600D02*
D03*
X44633Y152278D02*
D03*
X186365Y136529D02*
D03*
X109593Y77474D02*
D03*
X30853Y164088D02*
D03*
X213924Y57789D02*
D03*
Y160152D02*
D03*
X202113Y81411D02*
D03*
X146995Y152278D02*
D03*
X164711Y164088D02*
D03*
X11168Y148340D02*
D03*
X105656Y6608D02*
D03*
X70223D02*
D03*
X38727Y148340D02*
D03*
X133215Y77474D02*
D03*
X50538Y124718D02*
D03*
X196207Y77474D02*
D03*
X40696Y160152D02*
D03*
X105656Y164088D02*
D03*
X84003Y120781D02*
D03*
X154869Y81411D02*
D03*
X7231Y164088D02*
D03*
X190302Y136529D02*
D03*
X115499Y73537D02*
D03*
X58412Y148340D02*
D03*
X46601Y124718D02*
D03*
X66286Y85348D02*
D03*
X215893Y14482D02*
D03*
Y156214D02*
D03*
X99751Y120781D02*
D03*
X143058Y152278D02*
D03*
X40696Y128655D02*
D03*
X121404Y101096D02*
D03*
X19042Y69600D02*
D03*
X145026Y45978D02*
D03*
X146995Y57789D02*
D03*
X78097Y164088D02*
D03*
X40696Y152278D02*
D03*
X60381Y97159D02*
D03*
X44633Y120781D02*
D03*
X11168Y85348D02*
D03*
X180459Y164088D02*
D03*
X11168Y124718D02*
D03*
X7231Y148340D02*
D03*
X156837Y30230D02*
D03*
X180459Y156214D02*
D03*
X166680Y49915D02*
D03*
X42664Y124718D02*
D03*
X129278Y164088D02*
D03*
X32822Y120781D02*
D03*
X148963Y164088D02*
D03*
X13137Y89285D02*
D03*
X131247Y81411D02*
D03*
X135184D02*
D03*
X156837Y38104D02*
D03*
X209987Y10545D02*
D03*
X21011Y26293D02*
D03*
X54475Y140466D02*
D03*
X97782Y6608D02*
D03*
X146995Y34167D02*
D03*
X93845Y116844D02*
D03*
X91877Y160152D02*
D03*
X170617D02*
D03*
X235578Y14482D02*
D03*
X38727Y132592D02*
D03*
X172585Y156214D02*
D03*
X30853D02*
D03*
X119436Y73537D02*
D03*
X133215Y93222D02*
D03*
X170617Y49915D02*
D03*
X206050Y10545D02*
D03*
X46601Y132592D02*
D03*
X158806Y42041D02*
D03*
X9200Y160152D02*
D03*
X200145Y77474D02*
D03*
X13137Y152278D02*
D03*
X34790Y6608D02*
D03*
X135184Y160152D02*
D03*
X198176Y18419D02*
D03*
X127310Y73537D02*
D03*
X160774Y38104D02*
D03*
X36759Y128655D02*
D03*
X85971Y116844D02*
D03*
X129278Y77474D02*
D03*
X158806Y89285D02*
D03*
X196207Y156214D02*
D03*
X119436Y81411D02*
D03*
X21011Y49915D02*
D03*
X186365Y160152D02*
D03*
X190302Y152278D02*
D03*
X154869Y65663D02*
D03*
X127310Y81411D02*
D03*
X54475Y132592D02*
D03*
X164711Y156214D02*
D03*
X156837Y45978D02*
D03*
X46601Y164088D02*
D03*
X137152Y45978D02*
D03*
X209987Y18419D02*
D03*
X50538Y156214D02*
D03*
X13137Y128655D02*
D03*
X17074Y10545D02*
D03*
X196207Y14482D02*
D03*
X22979Y6608D02*
D03*
X32822Y144404D02*
D03*
X141089Y69600D02*
D03*
X139121Y73537D02*
D03*
X24948Y65663D02*
D03*
X113530Y101096D02*
D03*
X125341Y69600D02*
D03*
X148963Y30230D02*
D03*
X162743Y73537D02*
D03*
X117467Y101096D02*
D03*
X121404Y77474D02*
D03*
X22979Y61726D02*
D03*
X145026Y164088D02*
D03*
X156837Y77474D02*
D03*
X160774Y156214D02*
D03*
X54475Y116844D02*
D03*
X5263Y2671D02*
D03*
X34790Y124718D02*
D03*
X32822Y136529D02*
D03*
X123373Y81411D02*
D03*
X137152Y93222D02*
D03*
X190302Y18419D02*
D03*
X11168Y77474D02*
D03*
X19042Y14482D02*
D03*
X168649Y53852D02*
D03*
X160774D02*
D03*
X11168Y108970D02*
D03*
X154869Y152278D02*
D03*
X54475Y148340D02*
D03*
X190302Y97159D02*
D03*
X26916Y148340D02*
D03*
X9200Y112907D02*
D03*
X70223Y164088D02*
D03*
X113530Y69600D02*
D03*
X152900Y77474D02*
D03*
X192271Y148340D02*
D03*
X24948Y112907D02*
D03*
X97782Y156214D02*
D03*
X200145Y69600D02*
D03*
X247389Y14482D02*
D03*
X87940Y152278D02*
D03*
X166680D02*
D03*
X148963Y77474D02*
D03*
X204082Y156214D02*
D03*
X93845D02*
D03*
X172585Y53852D02*
D03*
X46601Y156214D02*
D03*
X93845Y6608D02*
D03*
X202113Y73537D02*
D03*
X209987Y152278D02*
D03*
X58412Y116844D02*
D03*
X249357Y49915D02*
D03*
X17074Y152278D02*
D03*
X82034Y6608D02*
D03*
X9200Y105033D02*
D03*
X22979Y156214D02*
D03*
X217861Y18419D02*
D03*
X5263Y160152D02*
D03*
X9200Y120781D02*
D03*
X141089Y164088D02*
D03*
X145026Y38104D02*
D03*
X56444Y120781D02*
D03*
X141089Y156214D02*
D03*
X22979Y124718D02*
D03*
X162743Y65663D02*
D03*
X32822Y152278D02*
D03*
X99751Y105033D02*
D03*
X15105Y108970D02*
D03*
X141089Y53852D02*
D03*
X139121Y65663D02*
D03*
X180459Y101096D02*
D03*
X129278D02*
D03*
X148963Y85348D02*
D03*
X206050Y65663D02*
D03*
X17074Y160152D02*
D03*
X60381D02*
D03*
X154869Y42041D02*
D03*
X7231Y132592D02*
D03*
X87940Y120781D02*
D03*
X111562Y81411D02*
D03*
X13137Y112907D02*
D03*
X243452Y69600D02*
D03*
X133215D02*
D03*
X42664Y6608D02*
D03*
X123373Y73537D02*
D03*
X103688Y160152D02*
D03*
X30853Y140466D02*
D03*
X46601Y6608D02*
D03*
X13137Y73537D02*
D03*
X117467Y77474D02*
D03*
X13137Y105033D02*
D03*
X50538Y148340D02*
D03*
X137152Y38104D02*
D03*
X139121Y152278D02*
D03*
Y160152D02*
D03*
X162743Y152278D02*
D03*
X36759Y160152D02*
D03*
X206050Y73537D02*
D03*
X85971Y156214D02*
D03*
X206050Y81411D02*
D03*
X211956Y156214D02*
D03*
X109593Y116844D02*
D03*
X34790Y132592D02*
D03*
X164711Y53852D02*
D03*
X221798Y18419D02*
D03*
X194239D02*
D03*
X52507Y136529D02*
D03*
X117467Y6608D02*
D03*
X152900Y30230D02*
D03*
X245420Y49915D02*
D03*
X192271Y164088D02*
D03*
X64318Y89285D02*
D03*
X38727Y124718D02*
D03*
X46601Y116844D02*
D03*
X68255Y152278D02*
D03*
X84003Y160152D02*
D03*
X54475Y164088D02*
D03*
X133215D02*
D03*
X28885Y144404D02*
D03*
X52507D02*
D03*
X74160Y164088D02*
D03*
X137152Y69600D02*
D03*
X150932Y49915D02*
D03*
X66286Y69600D02*
D03*
X196207D02*
D03*
X204082Y164088D02*
D03*
X84003Y152278D02*
D03*
X21011Y160152D02*
D03*
X26916Y164088D02*
D03*
X58412Y140466D02*
D03*
X26916Y156214D02*
D03*
X101719Y6608D02*
D03*
X166680Y42041D02*
D03*
X62349Y93222D02*
D03*
X158806Y73537D02*
D03*
X174554Y49915D02*
D03*
X42664Y108970D02*
D03*
X206050Y18419D02*
D03*
X30853Y148340D02*
D03*
X219830Y14482D02*
D03*
X239515D02*
D03*
X7231Y61726D02*
D03*
X176523Y101096D02*
D03*
X48570Y120781D02*
D03*
X50538Y132592D02*
D03*
X137152Y85348D02*
D03*
X146995Y26293D02*
D03*
X178491Y136529D02*
D03*
X237546Y57789D02*
D03*
X13137Y144404D02*
D03*
X11168Y69600D02*
D03*
X50538Y164088D02*
D03*
X5263Y136529D02*
D03*
X192271Y14482D02*
D03*
X24948Y152278D02*
D03*
X243452Y61726D02*
D03*
X24948Y128655D02*
D03*
X208019Y69600D02*
D03*
X156837Y156214D02*
D03*
X76129Y152278D02*
D03*
X188333Y14482D02*
D03*
X46601Y108970D02*
D03*
X202113Y10545D02*
D03*
X87940Y112907D02*
D03*
X154869Y26293D02*
D03*
X184397Y6608D02*
D03*
X22979Y77474D02*
D03*
X148963Y53852D02*
D03*
X5263Y97159D02*
D03*
X13137Y136529D02*
D03*
X56444Y152278D02*
D03*
X111562Y112907D02*
D03*
X150932Y81411D02*
D03*
X211956Y164088D02*
D03*
X146995Y73537D02*
D03*
X148963Y93222D02*
D03*
X139121Y57789D02*
D03*
X158806Y65663D02*
D03*
X5263Y144404D02*
D03*
X3294Y6608D02*
D03*
X28885Y160152D02*
D03*
X87940D02*
D03*
X137152Y61726D02*
D03*
X145026Y30230D02*
D03*
X182428Y10545D02*
D03*
X164711Y45978D02*
D03*
X160774Y164088D02*
D03*
X196207D02*
D03*
X9200Y49915D02*
D03*
X198176Y10545D02*
D03*
X3294Y124718D02*
D03*
X194239Y152278D02*
D03*
X11168Y116844D02*
D03*
X245420Y18419D02*
D03*
X50538Y6608D02*
D03*
X72192Y160152D02*
D03*
X139121Y34167D02*
D03*
X180459Y53852D02*
D03*
X113530Y6608D02*
D03*
X42664Y156214D02*
D03*
X113530D02*
D03*
X137152Y77474D02*
D03*
X19042Y156214D02*
D03*
X52507Y160152D02*
D03*
X184397Y164088D02*
D03*
X170617Y152278D02*
D03*
X152900Y38104D02*
D03*
X141089Y30230D02*
D03*
X21011Y18419D02*
D03*
X62349Y156214D02*
D03*
X150932Y160152D02*
D03*
X56444Y128655D02*
D03*
X101719Y164088D02*
D03*
X211956Y14482D02*
D03*
X58412Y164088D02*
D03*
X72192Y152278D02*
D03*
X125341Y77474D02*
D03*
X11168Y53852D02*
D03*
X22979Y69600D02*
D03*
X137152Y53852D02*
D03*
X85971Y6608D02*
D03*
X22979Y148340D02*
D03*
X145026Y156214D02*
D03*
X13137Y49915D02*
D03*
X150932Y26293D02*
D03*
X160774Y45978D02*
D03*
X186365Y18419D02*
D03*
X135184Y89285D02*
D03*
X249357Y18419D02*
D03*
X113530Y164088D02*
D03*
X131247Y89285D02*
D03*
X3294Y164088D02*
D03*
X56444Y160152D02*
D03*
X150932Y73537D02*
D03*
X152900Y156214D02*
D03*
X7231Y101096D02*
D03*
X176523Y164088D02*
D03*
X109593Y6608D02*
D03*
X5263Y128655D02*
D03*
X219830Y164088D02*
D03*
X7231Y156214D02*
D03*
X13137Y120781D02*
D03*
X21011Y10545D02*
D03*
X111562Y105033D02*
D03*
X105656Y77474D02*
D03*
X28885Y136529D02*
D03*
X32822Y128655D02*
D03*
X133215Y85348D02*
D03*
X194239Y10545D02*
D03*
X198176Y136529D02*
D03*
X143058Y65663D02*
D03*
X202113Y18419D02*
D03*
X21011Y120781D02*
D03*
X28885D02*
D03*
X192271Y140466D02*
D03*
X113530Y77474D02*
D03*
X148963Y156214D02*
D03*
X44633Y128655D02*
D03*
X38727Y156214D02*
D03*
X129278Y85348D02*
D03*
X160774Y69600D02*
D03*
X180459Y6608D02*
D03*
X154869Y34167D02*
D03*
X182428Y97159D02*
D03*
X11168Y45978D02*
D03*
X13137Y160152D02*
D03*
X48570D02*
D03*
X113530Y85348D02*
D03*
X158806Y49915D02*
D03*
X200145Y164088D02*
D03*
X194239Y73537D02*
D03*
X22979Y132592D02*
D03*
X15105Y30230D02*
D03*
X101719Y156214D02*
D03*
X162743Y42041D02*
D03*
X60381Y105033D02*
D03*
X38727Y108970D02*
D03*
X32822Y160152D02*
D03*
X76129D02*
D03*
X168649Y156214D02*
D03*
X188333Y101096D02*
D03*
X148963Y69600D02*
D03*
X7231Y53852D02*
D03*
X52507Y128655D02*
D03*
X91877Y112907D02*
D03*
X154869Y49915D02*
D03*
X111562Y152278D02*
D03*
X208019Y61726D02*
D03*
X213924Y152278D02*
D03*
X15105Y6608D02*
D03*
X133215Y101096D02*
D03*
X7231Y108970D02*
D03*
X148963Y61726D02*
D03*
X34790Y156214D02*
D03*
X231641Y14482D02*
D03*
X233609Y18419D02*
D03*
X95814Y160152D02*
D03*
X26916Y124718D02*
D03*
X54475Y156214D02*
D03*
X22979Y116844D02*
D03*
X24948Y73537D02*
D03*
X9200Y152278D02*
D03*
X26916Y77474D02*
D03*
X91877Y120781D02*
D03*
X113530Y108970D02*
D03*
X158806Y81411D02*
D03*
X202113Y160152D02*
D03*
X227704Y14482D02*
D03*
X7231Y124718D02*
D03*
X89908Y116844D02*
D03*
X82034Y156214D02*
D03*
X93845Y164088D02*
D03*
X109593Y108970D02*
D03*
X166680Y160152D02*
D03*
X209987D02*
D03*
X221798Y57789D02*
D03*
X241483Y18419D02*
D03*
X60381Y152278D02*
D03*
X99751Y160152D02*
D03*
X111562D02*
D03*
X162743Y49915D02*
D03*
X137152Y164088D02*
D03*
X139121Y49915D02*
D03*
X3294Y101096D02*
D03*
X30853Y124718D02*
D03*
X9200Y57789D02*
D03*
X184397Y156214D02*
D03*
X3294Y140466D02*
D03*
X64318Y73537D02*
D03*
X143058Y160152D02*
D03*
X146995D02*
D03*
X186365Y97159D02*
D03*
X9200Y144404D02*
D03*
X24948D02*
D03*
X38727Y116844D02*
D03*
X158806Y152278D02*
D03*
X17074Y18419D02*
D03*
X54475Y108970D02*
D03*
X30853Y6608D02*
D03*
X26916Y132592D02*
D03*
X54475Y124718D02*
D03*
X150932Y89285D02*
D03*
X190302Y144404D02*
D03*
X206050Y57789D02*
D03*
X184397Y101096D02*
D03*
X121404Y164088D02*
D03*
X176523Y6608D02*
D03*
X40696Y120781D02*
D03*
X125341Y164088D02*
D03*
X160774Y85348D02*
D03*
X89908Y156214D02*
D03*
X145026Y53852D02*
D03*
X7231Y116844D02*
D03*
X95814Y112907D02*
D03*
X217861Y160152D02*
D03*
X243452Y30230D02*
D03*
X11168D02*
D03*
X15105Y156214D02*
D03*
X78097D02*
D03*
X52507Y120781D02*
D03*
X82034Y116844D02*
D03*
X143058Y34167D02*
D03*
X206050Y160152D02*
D03*
X64318Y152278D02*
D03*
X233609Y57789D02*
D03*
X84003Y112907D02*
D03*
X196207Y61726D02*
D03*
X115499Y97159D02*
D03*
X146995Y49915D02*
D03*
X42664Y148340D02*
D03*
X178491Y10545D02*
D03*
X11168Y132592D02*
D03*
X174554Y152278D02*
D03*
X15105Y22356D02*
D03*
X58412Y132592D02*
D03*
X11168Y156214D02*
D03*
X208019Y14482D02*
D03*
X150932Y65663D02*
D03*
X115499Y105033D02*
D03*
X66286Y156214D02*
D03*
X135184Y152278D02*
D03*
X156837Y69600D02*
D03*
X85971Y164088D02*
D03*
X80066Y152278D02*
D03*
X3294Y93222D02*
D03*
X109593Y69600D02*
D03*
X46601Y148340D02*
D03*
X154869Y73537D02*
D03*
X184397Y93222D02*
D03*
X190302Y160152D02*
D03*
X28885Y65663D02*
D03*
X50538Y116844D02*
D03*
X74160Y156214D02*
D03*
X156837Y164088D02*
D03*
X184397Y14482D02*
D03*
X192271Y156214D02*
D03*
X243452Y14482D02*
D03*
X241483Y57789D02*
D03*
X15105Y164088D02*
D03*
X107625Y105033D02*
D03*
X152900Y45978D02*
D03*
X82034Y164088D02*
D03*
X15105Y69600D02*
D03*
X58412Y124718D02*
D03*
X223767Y14482D02*
D03*
X131247Y73537D02*
D03*
X117467Y164088D02*
D03*
X188333Y140466D02*
D03*
X194239Y144404D02*
D03*
X3294Y116844D02*
D03*
X198176Y81411D02*
D03*
X68255Y160152D02*
D03*
X208019Y164088D02*
D03*
X48570Y128655D02*
D03*
X229803Y165157D02*
D03*
X228268Y163622D02*
D03*
X226732Y162087D02*
D03*
X225197Y160551D02*
D03*
X223701Y158976D02*
D03*
X173789Y88675D02*
D03*
X178789D02*
D03*
X176289D02*
D03*
X171189D02*
D03*
X168789D02*
D03*
X166289D02*
D03*
D38*
X239189Y86532D02*
D03*
X206496Y90500D02*
D03*
X206535Y94809D02*
D03*
X161457Y61024D02*
D03*
X240389Y93500D02*
D03*
X82189Y99100D02*
D03*
D39*
X151089Y139200D02*
D03*
X127089D02*
D03*
D40*
X201689Y61100D02*
D03*
X190689D02*
D03*
D41*
X153189Y97940D02*
D03*
D42*
X148189D02*
D03*
X143189D02*
D03*
X138189D02*
D03*
X153189Y118940D02*
D03*
X148189D02*
D03*
X143189D02*
D03*
X138189D02*
D03*
D43*
X230705Y94146D02*
D03*
D44*
Y92178D02*
D03*
Y90209D02*
D03*
Y88241D02*
D03*
Y86272D02*
D03*
X213658Y94146D02*
D03*
Y92178D02*
D03*
Y90209D02*
D03*
Y88241D02*
D03*
Y86272D02*
D03*
D45*
X76289Y104100D02*
D03*
Y99100D02*
D03*
Y94100D02*
D03*
Y89100D02*
D03*
X55289Y104100D02*
D03*
Y99100D02*
D03*
Y94100D02*
D03*
D46*
Y89100D02*
D03*
D47*
X201089Y121294D02*
D03*
Y146491D02*
D03*
X182017D02*
D03*
Y121294D02*
D03*
D48*
X68095Y140528D02*
D03*
X42898D02*
D03*
D49*
X181289Y82900D02*
D03*
X176289D02*
D03*
X171289D02*
D03*
X166289D02*
D03*
Y61100D02*
D03*
X171289D02*
D03*
X176289D02*
D03*
X181289D02*
D03*
D50*
X97321Y131100D02*
D03*
X113857D02*
D03*
D51*
X239189Y76128D02*
D03*
Y79672D02*
D03*
X236589Y93528D02*
D03*
Y97072D02*
D03*
X210458Y75038D02*
D03*
Y78581D02*
D03*
D52*
X221689Y73053D02*
D03*
Y78565D02*
D03*
X226689Y73053D02*
D03*
Y78565D02*
D03*
X231789Y73053D02*
D03*
Y78565D02*
D03*
X216858D02*
D03*
Y73053D02*
D03*
D53*
X38917Y112800D02*
D03*
X42461D02*
D03*
X94261Y106400D02*
D03*
X90717D02*
D03*
X197533Y90685D02*
D03*
X201076D02*
D03*
X197602Y94894D02*
D03*
X201145D02*
D03*
X107861Y148100D02*
D03*
X104317D02*
D03*
X108132Y153700D02*
D03*
X104589D02*
D03*
D54*
X168389Y123547D02*
D03*
Y116853D02*
D03*
X160889Y123547D02*
D03*
Y116853D02*
D03*
X143183Y87500D02*
D03*
Y80807D02*
D03*
D55*
X7089Y18041D02*
D03*
Y23159D02*
D03*
X10389D02*
D03*
Y18041D02*
D03*
D56*
X236589Y97170D02*
X236884D01*
X256299Y165827D02*
X262835Y159291D01*
Y100945D02*
Y159291D01*
X261496Y99606D02*
X262835Y100945D01*
X239320Y99606D02*
X261496D01*
X236884Y97170D02*
X239320Y99606D01*
X245236Y165827D02*
X256299D01*
D57*
X234408Y96579D02*
X236097D01*
X231975Y94146D02*
X234408Y96579D01*
X221614Y87575D02*
Y92323D01*
X230705Y94146D02*
X231975D01*
X221614Y92323D02*
X223438Y94146D01*
X230705D01*
D58*
X128589Y139200D02*
X130289Y137500D01*
Y110047D02*
Y137500D01*
Y110047D02*
X134732Y105604D01*
X148485D01*
X153189Y100900D01*
Y97940D02*
Y100900D01*
Y97440D02*
Y97940D01*
D59*
X221689Y78565D02*
Y87500D01*
M02*
