M48
;Layer_Color=9474304
;FILE_FORMAT=2:5
INCH,LZ
;TYPE=PLATED
T1F00S00C0.01181
T2F00S00C0.02953
T3F00S00C0.03000
T4F00S00C0.03543
T5F00S00C0.05906
%
T01
X001252Y0009094
Y0018543
X0007795Y0027992
X0010158Y0032717
X0014882Y0023268
X0019606
X0017244Y0018543
X0019606Y0013819
X0014882
X0017244Y0009094
X0021969
X0069213
X0073937
X0078661
X0083386
X008811
X0137716Y0023268
X0140079Y0027992
X0144803
X0149528
X0154252
X0156614Y0032717
X015189
X0147165
X0142441
X0137716
X0135354Y0037441
X0140079
X0144803
X0149528
X0154252
X0158976
X0163701
X0147165Y0023268
X017315Y004689
X0175512Y0051614
X0170787
X0194409Y0061063
X0196772Y0065787
X0199134Y0070512
X0194409
X0192047Y0075236
X0196772
X0201496
X0203858Y0079961
X0199134
X0194409
X0203858Y0070512
X0206221Y0065787
X0208583Y0061063
X0203858
X0241653
X0239291Y0056339
X0241653Y0051614
Y0042165
Y0070512
X0187323Y0094134
X0182598
X0184961Y0098858
X0189685
X0180236
X0175512
X01756Y0088675
X01731
X01706
X017315Y0131929
X0177874
X0182598
X0187323
X0192047
X0194409Y0136653
X0189685
X0184961
X0180236
X0175512
X017315Y0141378
Y0150827
X0175512Y0155551
X0180236
X0184961
X0189685
X0194409
X0199134
X0203858
X0208583
X0213307
X0210945Y0160276
X0215669
X0220394
X0222756Y0165
X0218032
X0213307
X0208583
X0203858
X0199134
X0194409
X0189685
X0184961
X0180236
X0175512
X0170787
X017315Y0160276
X0177874
X0182598
X0187323
X0192047
X0196772
X0201496
X0206221
Y0150827
X0210945
X0192047
X0187323
X0189685Y0146102
X0187323Y0141378
X0192047
X0170787Y0155551
X0166063
X0161339
X0156614
X015189
X0147165
X0142441
X0137716
X0132992
X0135354Y0160276
X0140079
X0144803
X0149528
X0154252
X0158976
X0163701
X0168425
X0166063Y0165
X0161339
X0156614
X015189
X0147165
X0142441
X0137716
X0132992
X0128268
X0123543
X0118819
X0114094
X010937
X0104646
X0099921
X0095197
X0090472
X0085748
X0081024
X0076299
X0071575
X006685
X0062126
X0057402
X0052677
X0047953
X0043228
X0038504
X0033779
X0029055
X0024331
X0019606
X0014882
X0017244Y0160276
X0021969
X0026693
X0031417
X0036142
X0040866
X004559
X0050315
X0055039
X0059764
X0064488
X0069213
X0073937
X0078661
X0083386
X008811
X0092835
X0097559
X0102284
X0107008
X0111732
X010937Y0155551
X0111732Y0150827
X0099921Y0155551
X0095197
X0090472
X0085748
X0081024
X0076299
X0071575
X006685
X0062126
X0057402
X0052677
X0047953
X0043228
X0038504
X0033779
X0029055
X0024331
X0019606
X0014882
X0017244Y0150827
X0021969
X0026693
X0031417
X0036142
X0040866
X004559
X0050315
X0055039
X0052677Y0146102
X0047953
X0050315Y0141378
X0055039
X0052677Y0136653
X0047953
X004559Y0131929
X0050315
X0055039
X0052677Y0127205
X0047953
X0043228
X0038504
X0033779
X0029055
X0024331
X0019606
X0021969Y0131929
X0026693
X0031417
X0036142
X0040866
Y012248
X004559
X0050315
X0055039
X0052677Y0117756
X0047953
X0043228
X0038504
X0033779
X0031417Y012248
X0036142
X0026693
X0021969
X0024331Y0117756
X0019606
X0021969Y0113031
X0024331Y0108307
X0029055
X0033779
X0038504
X0043228
X0047953
X0052677
X0059764Y0094134
X0064488
X0062126Y008941
X0064488Y0084685
X0062126Y0079961
X0064488Y0075236
X0062126Y0070512
X0026693Y0075236
X0021969
X0024331Y0079961
X0019606
X0014882
Y008941
X0019606Y0108307
X0024331Y0136653
X0029055
X0033779
X0031417Y0141378
X0026693
X0021969
X0024331Y0146102
X0029055
X0033779
X0081024Y0117756
X0085748
X0090472
X0095197
X0099921
X0104646
X010937
X0107008Y0113031
X0111732
X010937Y0108307
X0104646
X0102284Y0103583
X0107008
X0111732
X0114094Y0098858
Y008941
X0118819
X0123543
X0128268
X0132992
X013063Y0094134
X0132992Y0098858
X0128268
X0125906Y0084685
X013063
X0135354
X0132992Y0079961
X0128268
X0123543
X0118819
X0114094
X010937
X0107008Y0075236
X0111732
X0116457
X0121181
X0125906
X013063
X0135354
X0140079
X0144803
X0149528
X0154252
X0158976
X0156614Y0079961
X015189
X0147165
X0149528Y0084685
X0154252
X0158976
X0156614Y008941
X015189
X0147165
X01631Y0088675
X01656
X0168
X0156614Y0070512
X015189
X0147165
X0142441
X0137716
X0132992
X0128268
X0123543
X0118819
X0114094
X010937
X0104646
X0102284Y0075236
X0111732Y0084685
X0116457
X0121181
X0135354Y0065787
X0140079
X0144803
X0149528
X0154252
X0158976
Y0056339
X0163701
X0166063Y0051614
X0161339
X0156614
X015189
X0147165
X0142441
X0137716
X0135354Y0056339
X0140079
X0137716Y0061063
X0135354Y004689
X0140079
X0144803
X0149528
X0154252
X0158976
X0163701
X0168425
X0166063Y0042165
X0161339
X0156614
X015189
X0147165
X0142441
X0137716
X0097559Y0103583
X0092835Y0113031
X008811
X0083386
X0135354Y0150827
X0026693Y0065787
X0021969
X0019606Y0070512
Y0061063
Y0051614
X0010158
X0005433
X0007795Y0056339
X0005433Y0061063
X0010158Y0070512
X0007795Y0075236
X0010158Y0079961
X0007795Y0084685
X0010158Y008941
X0005433Y0098858
X0003071Y0103583
X0007795
X0010158Y0108307
X0005433
X0003071Y0113031
X0007795
X0010158Y0117756
X0005433
X0003071Y012248
X0007795
X0010158Y0127205
X0005433
X0003071Y0131929
X0007795
X0010158Y0136653
X0005433
X0003071Y0141378
X0007795
X0010158Y0146102
X0005433
X0003071Y0150827
X0007795
X001252
X0010158Y0155551
X0005433
X0003071Y0160276
X0007795
X001252
X0010158Y0165
X0005433
X0007795Y004689
X0005433Y0042165
T02
X0186314Y0007245
Y0025355
X0213086
X0226514Y0025355
Y0007245
X0213086Y0007245
X0253286Y0007245
Y0025355
T03
X00274Y00703
Y00918
Y01133
X00984Y01119
Y00904
Y00689
T04
X0014609Y0034647
X0244609
Y0044647
Y0054647
Y0064647
Y0074647
Y0084647
Y0094647
Y0104647
Y0114647
Y0124647
Y0134647
Y0144647
X0014609
Y0134647
Y0124647
Y0114647
Y0104647
Y0094647
Y0084647
Y0074647
Y0064647
Y0054647
Y0044647
T05
X00373Y0019
X00573
X00789Y00193
X00989
X01227
X01427
M30
