G04*
G04 #@! TF.GenerationSoftware,Altium Limited,Altium NEXUS,1.1.6 (48)*
G04*
G04 Layer_Color=128*
%FSLAX25Y25*%
%MOIN*%
G70*
G01*
G75*
%ADD34R,0.09000X0.05500*%
%ADD35R,0.03000X0.06500*%
%ADD36R,0.02362X0.05984*%
%ADD37O,0.02362X0.05984*%
%ADD38R,0.03740X0.01200*%
%ADD39O,0.03740X0.01200*%
%ADD40O,0.05984X0.02362*%
%ADD41R,0.05984X0.02362*%
%ADD42R,0.09449X0.10236*%
%ADD43R,0.10236X0.09449*%
%ADD44R,0.02800X0.05400*%
%ADD45R,0.05512X0.08268*%
%ADD46R,0.02165X0.01772*%
%ADD47R,0.03543X0.02756*%
%ADD48R,0.01772X0.02165*%
%ADD49R,0.05118X0.03347*%
%ADD50R,0.01575X0.01968*%
G36*
X179500Y68100D02*
X161700D01*
Y85600D01*
X164500D01*
Y83300D01*
X166700D01*
Y85600D01*
X169500D01*
Y83300D01*
X171700D01*
Y85600D01*
X174500D01*
Y83300D01*
X176700D01*
Y85600D01*
X179500D01*
Y68100D01*
D02*
G37*
D34*
X147900Y139200D02*
D03*
X123900D02*
D03*
D35*
X198500Y61100D02*
D03*
X187500D02*
D03*
D36*
X150000Y97940D02*
D03*
D37*
X145000D02*
D03*
X140000D02*
D03*
X135000D02*
D03*
X150000Y118940D02*
D03*
X145000D02*
D03*
X140000D02*
D03*
X135000D02*
D03*
D38*
X227516Y94146D02*
D03*
D39*
Y92178D02*
D03*
Y90209D02*
D03*
Y88241D02*
D03*
Y86272D02*
D03*
X210469Y94146D02*
D03*
Y92178D02*
D03*
Y90209D02*
D03*
Y88241D02*
D03*
Y86272D02*
D03*
D40*
X73100Y104100D02*
D03*
Y99100D02*
D03*
Y94100D02*
D03*
Y89100D02*
D03*
X52100Y104100D02*
D03*
Y99100D02*
D03*
Y94100D02*
D03*
D41*
Y89100D02*
D03*
D42*
X197900Y121294D02*
D03*
Y146491D02*
D03*
X178828D02*
D03*
Y121294D02*
D03*
D43*
X64906Y140528D02*
D03*
X39709D02*
D03*
D44*
X178100Y82900D02*
D03*
X173100D02*
D03*
X168100D02*
D03*
X163100D02*
D03*
Y61100D02*
D03*
X168100D02*
D03*
X173100D02*
D03*
X178100D02*
D03*
D45*
X94132Y131100D02*
D03*
X110668D02*
D03*
D46*
X236000Y76128D02*
D03*
Y79672D02*
D03*
X233400Y93528D02*
D03*
Y97072D02*
D03*
X207269Y75038D02*
D03*
Y78581D02*
D03*
D47*
X218500Y73053D02*
D03*
Y78565D02*
D03*
X223500Y73053D02*
D03*
Y78565D02*
D03*
X228600Y73053D02*
D03*
Y78565D02*
D03*
X213669D02*
D03*
Y73053D02*
D03*
D48*
X35728Y112800D02*
D03*
X39272D02*
D03*
X91072Y106400D02*
D03*
X87528D02*
D03*
X194344Y90685D02*
D03*
X197887D02*
D03*
X194413Y94894D02*
D03*
X197956D02*
D03*
X104672Y148100D02*
D03*
X101128D02*
D03*
X104943Y153700D02*
D03*
X101400D02*
D03*
D49*
X165200Y123547D02*
D03*
Y116853D02*
D03*
X157700Y123547D02*
D03*
Y116853D02*
D03*
X139994Y87500D02*
D03*
Y80807D02*
D03*
D50*
X3900Y18041D02*
D03*
Y23159D02*
D03*
X7200D02*
D03*
Y18041D02*
D03*
M02*
