M48
;Layer_Color=9474304
;FILE_FORMAT=2:5
INCH,LZ
;TYPE=PLATED
T1F00S00C0.01181
T2F00S00C0.03543
T3F00S00C0.04331
T4F00S00C0.05906
%
T01
X02165Y-00091
X00871Y-0007
X00872Y-00322
X00986Y-00309
T02
X0014609Y-0134953
X0244609
Y-0124953
Y-0114953
Y-0104953
Y-0094953
Y-0084953
Y-0074953
Y-0064953
Y-0054953
Y-0044953
Y-0034953
Y-0024953
X0014609
Y-0034953
Y-0044953
Y-0054953
Y-0064953
Y-0074953
Y-0084953
Y-0094953
Y-0104953
Y-0114953
Y-0124953
T03
X00373Y-01506
X00573
X00789Y-01503
X00989
X01227
X01427
X00774Y-00289
T04
X00274Y-00993
Y-00778
Y-00563
X00984Y-00577
Y-00792
Y-01007
M30
