G04*
G04 #@! TF.GenerationSoftware,Altium Limited,Altium Designer,19.0.12 (326)*
G04*
G04 Layer_Color=16711935*
%FSLAX25Y25*%
%MOIN*%
G70*
G01*
G75*
%ADD23C,0.09068*%
%ADD24R,0.09068X0.09068*%
%ADD25C,0.05524*%
%ADD26C,0.08280*%
%ADD27C,0.06706*%
%ADD28R,0.06706X0.06706*%
%ADD29C,0.03162*%
%ADD60C,0.03556*%
%ADD61R,0.09800X0.06300*%
%ADD62R,0.03800X0.07300*%
%ADD63R,0.03162X0.06784*%
%ADD64O,0.03162X0.06784*%
%ADD65R,0.04540X0.02000*%
%ADD66O,0.04540X0.02000*%
%ADD67O,0.06784X0.03162*%
%ADD68R,0.06784X0.03162*%
%ADD69R,0.10249X0.11036*%
%ADD70R,0.11036X0.10249*%
%ADD71R,0.03600X0.06200*%
%ADD72R,0.06312X0.09068*%
%ADD73R,0.02965X0.02572*%
%ADD74R,0.04343X0.03556*%
%ADD75R,0.02572X0.02965*%
%ADD76R,0.05918X0.04147*%
%ADD77R,0.01968X0.02362*%
G36*
X179552Y85997D02*
X179604Y85987D01*
X179653Y85970D01*
X179700Y85947D01*
X179744Y85918D01*
X179783Y85883D01*
X179818Y85844D01*
X179847Y85800D01*
X179870Y85753D01*
X179887Y85704D01*
X179897Y85652D01*
X179901Y85600D01*
Y68100D01*
X179897Y68048D01*
X179887Y67996D01*
X179870Y67947D01*
X179847Y67900D01*
X179818Y67856D01*
X179783Y67817D01*
X179744Y67782D01*
X179700Y67753D01*
X179653Y67730D01*
X179604Y67713D01*
X179552Y67703D01*
X179500Y67699D01*
X161700D01*
X161648Y67703D01*
X161596Y67713D01*
X161547Y67730D01*
X161500Y67753D01*
X161456Y67782D01*
X161417Y67817D01*
X161382Y67856D01*
X161353Y67900D01*
X161330Y67947D01*
X161313Y67996D01*
X161303Y68048D01*
X161299Y68100D01*
Y85600D01*
X161303Y85652D01*
X161313Y85704D01*
X161330Y85753D01*
X161353Y85800D01*
X161382Y85844D01*
X161417Y85883D01*
X161456Y85918D01*
X161500Y85947D01*
X161547Y85970D01*
X161596Y85987D01*
X161648Y85997D01*
X161700Y86001D01*
X164500D01*
X164552Y85997D01*
X164604Y85987D01*
X164653Y85970D01*
X164700Y85947D01*
X164744Y85918D01*
X164783Y85883D01*
X164818Y85844D01*
X164847Y85800D01*
X164870Y85753D01*
X164887Y85704D01*
X164897Y85652D01*
X164901Y85600D01*
Y83701D01*
X166299D01*
Y85600D01*
X166303Y85652D01*
X166313Y85704D01*
X166330Y85753D01*
X166353Y85800D01*
X166382Y85844D01*
X166417Y85883D01*
X166456Y85918D01*
X166500Y85947D01*
X166547Y85970D01*
X166596Y85987D01*
X166648Y85997D01*
X166700Y86001D01*
X169500D01*
X169552Y85997D01*
X169604Y85987D01*
X169653Y85970D01*
X169700Y85947D01*
X169744Y85918D01*
X169783Y85883D01*
X169818Y85844D01*
X169847Y85800D01*
X169870Y85753D01*
X169887Y85704D01*
X169897Y85652D01*
X169901Y85600D01*
Y83701D01*
X171299D01*
Y85600D01*
X171303Y85652D01*
X171313Y85704D01*
X171330Y85753D01*
X171353Y85800D01*
X171382Y85844D01*
X171417Y85883D01*
X171456Y85918D01*
X171500Y85947D01*
X171547Y85970D01*
X171596Y85987D01*
X171648Y85997D01*
X171700Y86001D01*
X174500D01*
X174552Y85997D01*
X174604Y85987D01*
X174653Y85970D01*
X174700Y85947D01*
X174744Y85918D01*
X174783Y85883D01*
X174818Y85844D01*
X174847Y85800D01*
X174870Y85753D01*
X174887Y85704D01*
X174897Y85652D01*
X174901Y85600D01*
Y83701D01*
X176299D01*
Y85600D01*
X176303Y85652D01*
X176313Y85704D01*
X176330Y85753D01*
X176353Y85800D01*
X176382Y85844D01*
X176417Y85883D01*
X176456Y85918D01*
X176500Y85947D01*
X176547Y85970D01*
X176596Y85987D01*
X176648Y85997D01*
X176700Y86001D01*
X179500D01*
X179552Y85997D01*
D02*
G37*
D23*
X29213Y71220D02*
D03*
Y92638D02*
D03*
X99724Y70512D02*
D03*
Y91929D02*
D03*
D24*
X29213Y114055D02*
D03*
X99724Y113347D02*
D03*
D25*
X213086Y7245D02*
D03*
Y25355D02*
D03*
X186314D02*
D03*
Y7245D02*
D03*
X253286Y7245D02*
D03*
Y25355D02*
D03*
X226514D02*
D03*
Y7245D02*
D03*
D26*
X142700Y19300D02*
D03*
X122700D02*
D03*
X57300Y19000D02*
D03*
X37300D02*
D03*
X98900Y19300D02*
D03*
X78900D02*
D03*
D27*
X244609Y34647D02*
D03*
Y44647D02*
D03*
Y54647D02*
D03*
Y64647D02*
D03*
Y74647D02*
D03*
Y84647D02*
D03*
Y94647D02*
D03*
Y104647D02*
D03*
Y114647D02*
D03*
Y124647D02*
D03*
Y134647D02*
D03*
X14609Y34647D02*
D03*
Y44647D02*
D03*
Y54647D02*
D03*
Y64647D02*
D03*
Y74647D02*
D03*
Y84647D02*
D03*
Y94647D02*
D03*
Y104647D02*
D03*
Y114647D02*
D03*
Y124647D02*
D03*
Y134647D02*
D03*
D28*
X244609Y144647D02*
D03*
X14609D02*
D03*
D29*
X226614Y165157D02*
D03*
X225079Y163622D02*
D03*
X223543Y162087D02*
D03*
X222008Y160551D02*
D03*
X220512Y158976D02*
D03*
X170600Y88675D02*
D03*
X175600D02*
D03*
X173100D02*
D03*
X168000D02*
D03*
X165600D02*
D03*
X163100D02*
D03*
D60*
X236000Y86532D02*
D03*
X203307Y90500D02*
D03*
X203346Y94809D02*
D03*
X158268Y61024D02*
D03*
X237200Y93500D02*
D03*
X79000Y99100D02*
D03*
D61*
X147900Y139200D02*
D03*
X123900D02*
D03*
D62*
X198500Y61100D02*
D03*
X187500D02*
D03*
D63*
X150000Y97940D02*
D03*
D64*
X145000D02*
D03*
X140000D02*
D03*
X135000D02*
D03*
X150000Y118940D02*
D03*
X145000D02*
D03*
X140000D02*
D03*
X135000D02*
D03*
D65*
X227516Y94146D02*
D03*
D66*
Y92178D02*
D03*
Y90209D02*
D03*
Y88241D02*
D03*
Y86272D02*
D03*
X210469Y94146D02*
D03*
Y92178D02*
D03*
Y90209D02*
D03*
Y88241D02*
D03*
Y86272D02*
D03*
D67*
X73100Y104100D02*
D03*
Y99100D02*
D03*
Y94100D02*
D03*
Y89100D02*
D03*
X52100Y104100D02*
D03*
Y99100D02*
D03*
Y94100D02*
D03*
D68*
Y89100D02*
D03*
D69*
X197900Y121294D02*
D03*
Y146491D02*
D03*
X178828D02*
D03*
Y121294D02*
D03*
D70*
X64906Y140528D02*
D03*
X39709D02*
D03*
D71*
X178100Y82900D02*
D03*
X173100D02*
D03*
X168100D02*
D03*
X163100D02*
D03*
Y61100D02*
D03*
X168100D02*
D03*
X173100D02*
D03*
X178100D02*
D03*
D72*
X94132Y131100D02*
D03*
X110668D02*
D03*
D73*
X236000Y76128D02*
D03*
Y79672D02*
D03*
X233400Y93528D02*
D03*
Y97072D02*
D03*
X207269Y75038D02*
D03*
Y78581D02*
D03*
D74*
X218500Y73053D02*
D03*
Y78565D02*
D03*
X223500Y73053D02*
D03*
Y78565D02*
D03*
X228600Y73053D02*
D03*
Y78565D02*
D03*
X213669D02*
D03*
Y73053D02*
D03*
D75*
X35728Y112800D02*
D03*
X39272D02*
D03*
X91072Y106400D02*
D03*
X87528D02*
D03*
X194344Y90685D02*
D03*
X197887D02*
D03*
X194413Y94894D02*
D03*
X197956D02*
D03*
X104672Y148100D02*
D03*
X101128D02*
D03*
X104943Y153700D02*
D03*
X101400D02*
D03*
D76*
X165200Y123547D02*
D03*
Y116853D02*
D03*
X157700Y123547D02*
D03*
Y116853D02*
D03*
X139994Y87500D02*
D03*
Y80807D02*
D03*
D77*
X3900Y18041D02*
D03*
Y23159D02*
D03*
X7200D02*
D03*
Y18041D02*
D03*
M02*
