G04*
G04 #@! TF.GenerationSoftware,Altium Limited,Altium NEXUS,1.1.6 (48)*
G04*
G04 Layer_Color=8388736*
%FSLAX25Y25*%
%MOIN*%
G70*
G01*
G75*
%ADD16R,0.08800X0.14800*%
%ADD17O,0.13792X0.05800*%
%ADD18R,0.14186X0.04737*%
%ADD19R,0.14800X0.08800*%
%ADD20C,0.05524*%
%ADD21C,0.08280*%
%ADD22C,0.06800*%
%ADD23C,0.06706*%
%ADD24R,0.06706X0.06706*%
%ADD25C,0.03162*%
D16*
X102400Y50300D02*
D03*
X75400D02*
D03*
X59200Y50500D02*
D03*
X32200D02*
D03*
D17*
X226584Y95067D02*
D03*
Y106878D02*
D03*
Y118689D02*
D03*
Y130500D02*
D03*
Y142311D02*
D03*
Y154122D02*
D03*
X120600Y95067D02*
D03*
Y106878D02*
D03*
Y118689D02*
D03*
Y130500D02*
D03*
Y142311D02*
D03*
Y154122D02*
D03*
D18*
X120709Y59961D02*
D03*
X155709D02*
D03*
D19*
X223600Y72300D02*
D03*
Y45300D02*
D03*
D20*
X213086Y7245D02*
D03*
Y25355D02*
D03*
X186314D02*
D03*
Y7245D02*
D03*
X253286Y7245D02*
D03*
Y25355D02*
D03*
X226514D02*
D03*
Y7245D02*
D03*
D21*
X142700Y19300D02*
D03*
X122700D02*
D03*
X57300Y19000D02*
D03*
X37300D02*
D03*
X98900Y19300D02*
D03*
X78900D02*
D03*
D22*
X27400Y70300D02*
D03*
Y91800D02*
D03*
Y113300D02*
D03*
X98400Y68900D02*
D03*
Y90400D02*
D03*
Y111900D02*
D03*
D23*
X244609Y34647D02*
D03*
Y44647D02*
D03*
Y54647D02*
D03*
Y64647D02*
D03*
Y74647D02*
D03*
Y84647D02*
D03*
Y94647D02*
D03*
Y104647D02*
D03*
Y114647D02*
D03*
Y124647D02*
D03*
Y134647D02*
D03*
X14609Y34647D02*
D03*
Y44647D02*
D03*
Y54647D02*
D03*
Y64647D02*
D03*
Y74647D02*
D03*
Y84647D02*
D03*
Y94647D02*
D03*
Y104647D02*
D03*
Y114647D02*
D03*
Y124647D02*
D03*
Y134647D02*
D03*
D24*
X244609Y144647D02*
D03*
X14609D02*
D03*
D25*
X170600Y88675D02*
D03*
X175600D02*
D03*
X173100D02*
D03*
X168000D02*
D03*
X165600D02*
D03*
X163100D02*
D03*
M02*
