%FSTAX24Y24*%
%MOIN*%
%SFA1B1*%

%IPPOS*%
%ADD10R,0.021650X0.017720*%
%ADD11R,0.033470X0.051180*%
%ADD12R,0.020470X0.020470*%
%ADD13R,0.020470X0.020470*%
%ADD14C,0.011810*%
%ADD15C,0.059060*%
%ADD16R,0.059060X0.059060*%
%ADD17R,0.059060X0.059060*%
%ADD18C,0.047250*%
%ADD19O,0.047240X0.047250*%
%ADD20R,0.047250X0.047250*%
%LNcom_board_2018-1*%
%LPD*%
G36*
X114557Y00869D02*
X076289Y008691D01*
Y0484*
X114557*
Y00869*
G37*
%LNcom_board_2018-2*%
%LPC*%
G36*
X10215Y038493D02*
X102037Y038478D01*
X101932Y038434*
X101841Y038365*
X101772Y038274*
X101728Y038169*
X101713Y038056*
X101728Y037943*
X101772Y037838*
X101841Y037747*
X101932Y037678*
X102037Y037634*
X10215Y037619*
X102263Y037634*
X102368Y037678*
X102459Y037747*
X102528Y037838*
X102572Y037943*
X102587Y038056*
X102572Y038169*
X102528Y038274*
X102459Y038365*
X102368Y038434*
X102263Y038478*
X10215Y038493*
G37*
G36*
X08315D02*
X083037Y038478D01*
X082932Y038434*
X082841Y038365*
X082772Y038274*
X082728Y038169*
X082713Y038056*
X082728Y037943*
X082772Y037838*
X082841Y037747*
X082932Y037678*
X083037Y037634*
X08315Y037619*
X083263Y037634*
X083368Y037678*
X083459Y037747*
X083528Y037838*
X083572Y037943*
X083587Y038056*
X083572Y038169*
X083528Y038274*
X083459Y038365*
X083368Y038434*
X083263Y038478*
X08315Y038493*
G37*
G36*
X08215D02*
X082037Y038478D01*
X081932Y038434*
X081841Y038365*
X081772Y038274*
X081728Y038169*
X081713Y038056*
X081728Y037943*
X081772Y037838*
X081841Y037747*
X081932Y037678*
X082037Y037634*
X08215Y037619*
X082263Y037634*
X082368Y037678*
X082459Y037747*
X082528Y037838*
X082572Y037943*
X082587Y038056*
X082572Y038169*
X082528Y038274*
X082459Y038365*
X082368Y038434*
X082263Y038478*
X08215Y038493*
G37*
G36*
X10315D02*
X103037Y038478D01*
X102932Y038434*
X102841Y038365*
X102772Y038274*
X102728Y038169*
X102713Y038056*
X102728Y037943*
X102772Y037838*
X102841Y037747*
X102932Y037678*
X103037Y037634*
X10315Y037619*
X103213Y037628*
X103341Y0375*
X103313Y037457*
X103263Y037478*
X10315Y037493*
X103037Y037478*
X102932Y037434*
X102841Y037365*
X102772Y037274*
X102728Y037169*
X102713Y037056*
X102728Y036943*
X102749Y036893*
X102706Y036865*
X102578Y036993*
X102587Y037056*
X102572Y037169*
X102528Y037274*
X102459Y037365*
X102368Y037434*
X102263Y037478*
X10215Y037493*
X102037Y037478*
X101932Y037434*
X101841Y037365*
X101772Y037274*
X101728Y037169*
X101713Y037056*
X101728Y036943*
X101772Y036838*
X101841Y036747*
X101932Y036678*
X102037Y036634*
X10215Y036619*
X102213Y036628*
X10231Y036531*
X102308Y036513*
X102271Y036484*
X102254Y036479*
X10215Y036493*
X102037Y036478*
X101932Y036434*
X101841Y036365*
X101802Y036314*
X101784*
X101718Y036305*
X101655Y03628*
X101602Y036239*
X101234Y035871*
X101193Y035818*
X101168Y035755*
X101159Y035689*
Y03495*
X101168Y034884*
X101193Y034821*
X101234Y034768*
X101618Y034384*
X101672Y034343*
X101734Y034317*
X101747Y034315*
X101767Y034262*
X101728Y034169*
X101713Y034056*
X101728Y033943*
X101772Y033838*
X101841Y033747*
X101932Y033678*
X102037Y033634*
X10215Y033619*
X102263Y033634*
X102368Y033678*
X102459Y033747*
X102528Y033838*
X102572Y033943*
X102587Y034056*
X102572Y034169*
X102535Y034258*
X10256Y034308*
X10274*
X102765Y034258*
X102728Y034169*
X102713Y034056*
X102728Y033943*
X102772Y033838*
X102841Y033747*
X102932Y033678*
X103037Y033634*
X10315Y033619*
X103263Y033634*
X103368Y033678*
X103459Y033747*
X103528Y033838*
X103572Y033943*
X103587Y034056*
X103572Y034169*
X103543Y034239*
X103585Y034267*
X108816Y029036*
Y025954*
X108825Y025887*
X108851Y025825*
X108892Y025772*
X110273Y024391*
Y023917*
X110226*
Y023346*
Y022992*
X110836*
Y023019*
X111091*
X11117Y022916*
X111273Y022837*
X111393Y022788*
X111521Y022771*
X11165Y022788*
X111769Y022837*
X111872Y022916*
X111951Y023019*
X112001Y023139*
X112018Y023267*
X112001Y023396*
X111951Y023515*
X111872Y023618*
X111769Y023697*
X11165Y023747*
X111521Y023764*
X111393Y023747*
X111273Y023697*
X11117Y023618*
X111106Y023535*
X110836*
Y023917*
X110789*
Y024498*
X11078Y024564*
X110755Y024627*
X110714Y02468*
X109332Y026061*
Y026978*
X109379Y026998*
X110226Y02615*
Y025925*
Y02557*
X110836*
Y025598*
X111091*
X11117Y025495*
X111273Y025416*
X111393Y025367*
X111521Y02535*
X11165Y025367*
X111769Y025416*
X111872Y025495*
X111951Y025598*
X112001Y025718*
X112018Y025846*
X112001Y025974*
X111951Y026094*
X111872Y026197*
X111769Y026276*
X11165Y026325*
X111521Y026342*
X111393Y026325*
X111273Y026276*
X11117Y026197*
X111106Y026114*
X110836*
Y026496*
X110611*
X109766Y027341*
Y029543*
X109757Y02961*
X109731Y029672*
X10969Y029725*
X103594Y035822*
X10354Y035863*
X103539Y035865*
X103572Y035943*
X103587Y036056*
X103572Y036169*
X103551Y036219*
X103594Y036247*
X110273Y029568*
Y029399*
X110226*
Y028828*
Y028474*
X110836*
Y028501*
X111106*
X11117Y028418*
X111273Y028339*
X111393Y02829*
X111521Y028273*
X11165Y02829*
X111769Y028339*
X111872Y028418*
X111951Y028521*
X112001Y028641*
X112018Y028769*
X112001Y028898*
X111951Y029017*
X111872Y02912*
X111769Y029199*
X11165Y029249*
X111521Y029266*
X111393Y029249*
X111273Y029199*
X11117Y02912*
X111091Y029017*
X110836*
Y029399*
X110789*
Y029675*
X11078Y029742*
X110755Y029804*
X110714Y029857*
X103578Y036993*
X103587Y037056*
X103572Y037169*
X103551Y037219*
X103594Y037247*
X109105Y031736*
X109158Y031695*
X10922Y03167*
X109287Y031661*
X110226*
Y031279*
X110836*
Y031306*
X111106*
X11117Y031223*
X111273Y031144*
X111393Y031095*
X111521Y031078*
X11165Y031095*
X111769Y031144*
X111872Y031223*
X111951Y031326*
X112001Y031446*
X112018Y031574*
X112001Y031703*
X111951Y031823*
X111872Y031925*
X111769Y032004*
X11165Y032054*
X111521Y032071*
X111393Y032054*
X111273Y032004*
X11117Y031925*
X111091Y031823*
X110836*
Y032204*
X110226*
Y032177*
X109394*
X103578Y037993*
X103587Y038056*
X103572Y038169*
X103528Y038274*
X103459Y038365*
X103368Y038434*
X103263Y038478*
X10315Y038493*
G37*
G36*
X08315Y037493D02*
X083037Y037478D01*
X082932Y037434*
X082841Y037365*
X082772Y037274*
X082728Y037169*
X082713Y037056*
X082728Y036943*
X082772Y036838*
X082841Y036747*
X082932Y036678*
X083037Y036634*
X08315Y036619*
X083263Y036634*
X083368Y036678*
X083459Y036747*
X083528Y036838*
X083572Y036943*
X083587Y037056*
X083572Y037169*
X083528Y037274*
X083459Y037365*
X083368Y037434*
X083263Y037478*
X08315Y037493*
G37*
G36*
X08215D02*
X082037Y037478D01*
X081932Y037434*
X081841Y037365*
X081772Y037274*
X081728Y037169*
X081713Y037056*
X081728Y036943*
X081772Y036838*
X081841Y036747*
X081932Y036678*
X082037Y036634*
X08215Y036619*
X082263Y036634*
X082368Y036678*
X082459Y036747*
X082528Y036838*
X082572Y036943*
X082587Y037056*
X082572Y037169*
X082528Y037274*
X082459Y037365*
X082368Y037434*
X082263Y037478*
X08215Y037493*
G37*
G36*
X08315Y036493D02*
X083037Y036478D01*
X082932Y036434*
X082841Y036365*
X082772Y036274*
X082728Y036169*
X082713Y036056*
X082728Y035943*
X082772Y035838*
X082841Y035747*
X082932Y035678*
X083037Y035634*
X08315Y035619*
X083263Y035634*
X083368Y035678*
X083459Y035747*
X083528Y035838*
X083572Y035943*
X083587Y036056*
X083572Y036169*
X083528Y036274*
X083459Y036365*
X083368Y036434*
X083263Y036478*
X08315Y036493*
G37*
G36*
X08215D02*
X082037Y036478D01*
X081932Y036434*
X081841Y036365*
X081772Y036274*
X081728Y036169*
X081713Y036056*
X081728Y035943*
X081772Y035838*
X081841Y035747*
X081932Y035678*
X082037Y035634*
X08215Y035619*
X082263Y035634*
X082368Y035678*
X082459Y035747*
X082528Y035838*
X082572Y035943*
X082587Y036056*
X082572Y036169*
X082528Y036274*
X082459Y036365*
X082368Y036434*
X082263Y036478*
X08215Y036493*
G37*
G36*
X08315Y035493D02*
X083037Y035478D01*
X082932Y035434*
X082841Y035365*
X082772Y035274*
X082728Y035169*
X082713Y035056*
X082728Y034943*
X082772Y034838*
X082841Y034747*
X082932Y034678*
X083037Y034634*
X08315Y034619*
X083263Y034634*
X083368Y034678*
X083459Y034747*
X083528Y034838*
X083572Y034943*
X083587Y035056*
X083572Y035169*
X083528Y035274*
X083459Y035365*
X083368Y035434*
X083263Y035478*
X08315Y035493*
G37*
G36*
X08215D02*
X082037Y035478D01*
X081932Y035434*
X081841Y035365*
X081772Y035274*
X081728Y035169*
X081713Y035056*
X081728Y034943*
X081772Y034838*
X081841Y034747*
X081932Y034678*
X082037Y034634*
X08215Y034619*
X082263Y034634*
X082368Y034678*
X082459Y034747*
X082528Y034838*
X082572Y034943*
X082587Y035056*
X082572Y035169*
X082528Y035274*
X082459Y035365*
X082368Y035434*
X082263Y035478*
X08215Y035493*
G37*
G36*
X08315Y034493D02*
X083037Y034478D01*
X082932Y034434*
X082841Y034365*
X082772Y034274*
X082728Y034169*
X082713Y034056*
X082728Y033943*
X082772Y033838*
X082841Y033747*
X082932Y033678*
X083037Y033634*
X08315Y033619*
X083263Y033634*
X083368Y033678*
X083459Y033747*
X083528Y033838*
X083572Y033943*
X083587Y034056*
X083572Y034169*
X083528Y034274*
X083459Y034365*
X083368Y034434*
X083263Y034478*
X08315Y034493*
G37*
G36*
X08215D02*
X082037Y034478D01*
X081932Y034434*
X081841Y034365*
X081772Y034274*
X081728Y034169*
X081713Y034056*
X081728Y033943*
X081772Y033838*
X081841Y033747*
X081932Y033678*
X082037Y033634*
X08215Y033619*
X082263Y033634*
X082368Y033678*
X082459Y033747*
X082528Y033838*
X082572Y033943*
X082587Y034056*
X082572Y034169*
X082528Y034274*
X082459Y034365*
X082368Y034434*
X082263Y034478*
X08215Y034493*
G37*
G36*
X10315Y033493D02*
X103037Y033478D01*
X102932Y033434*
X102841Y033365*
X102772Y033274*
X102728Y033169*
X102713Y033056*
X102728Y032943*
X102772Y032838*
X102841Y032747*
X102932Y032678*
X103037Y032634*
X10315Y032619*
X103263Y032634*
X103368Y032678*
X103459Y032747*
X103528Y032838*
X103572Y032943*
X103587Y033056*
X103572Y033169*
X103528Y033274*
X103459Y033365*
X103368Y033434*
X103263Y033478*
X10315Y033493*
G37*
G36*
X10215D02*
X102037Y033478D01*
X101932Y033434*
X101841Y033365*
X101772Y033274*
X101728Y033169*
X101713Y033056*
X101728Y032943*
X101772Y032838*
X101841Y032747*
X101932Y032678*
X102037Y032634*
X10215Y032619*
X102263Y032634*
X102368Y032678*
X102459Y032747*
X102528Y032838*
X102572Y032943*
X102587Y033056*
X102572Y033169*
X102528Y033274*
X102459Y033365*
X102368Y033434*
X102263Y033478*
X10215Y033493*
G37*
G36*
X08315D02*
X083037Y033478D01*
X082932Y033434*
X082841Y033365*
X082772Y033274*
X082728Y033169*
X082713Y033056*
X082728Y032943*
X082772Y032838*
X082841Y032747*
X082932Y032678*
X083037Y032634*
X08315Y032619*
X083263Y032634*
X083368Y032678*
X083459Y032747*
X083528Y032838*
X083572Y032943*
X083587Y033056*
X083572Y033169*
X083528Y033274*
X083459Y033365*
X083368Y033434*
X083263Y033478*
X08315Y033493*
G37*
G36*
X08215D02*
X082037Y033478D01*
X081932Y033434*
X081841Y033365*
X081772Y033274*
X081728Y033169*
X081713Y033056*
X081728Y032943*
X081772Y032838*
X081841Y032747*
X081932Y032678*
X082037Y032634*
X08215Y032619*
X082263Y032634*
X082368Y032678*
X082459Y032747*
X082528Y032838*
X082572Y032943*
X082587Y033056*
X082572Y033169*
X082528Y033274*
X082459Y033365*
X082368Y033434*
X082263Y033478*
X08215Y033493*
G37*
G36*
X10315Y032493D02*
X103037Y032478D01*
X102932Y032434*
X102841Y032365*
X102772Y032274*
X102728Y032169*
X102713Y032056*
X102728Y031943*
X102772Y031838*
X102841Y031747*
X102932Y031678*
X103037Y031634*
X10315Y031619*
X103263Y031634*
X103368Y031678*
X103459Y031747*
X103528Y031838*
X103572Y031943*
X103587Y032056*
X103572Y032169*
X103528Y032274*
X103459Y032365*
X103368Y032434*
X103263Y032478*
X10315Y032493*
G37*
G36*
X10215D02*
X102037Y032478D01*
X101932Y032434*
X101841Y032365*
X101772Y032274*
X101728Y032169*
X101713Y032056*
X101728Y031943*
X101772Y031838*
X101841Y031747*
X101932Y031678*
X102037Y031634*
X10215Y031619*
X102263Y031634*
X102368Y031678*
X102459Y031747*
X102528Y031838*
X102572Y031943*
X102587Y032056*
X102572Y032169*
X102528Y032274*
X102459Y032365*
X102368Y032434*
X102263Y032478*
X10215Y032493*
G37*
G36*
X10315Y031493D02*
X103037Y031478D01*
X102932Y031434*
X102841Y031365*
X102772Y031274*
X102728Y031169*
X102713Y031056*
X102728Y030943*
X102772Y030838*
X102841Y030747*
X102932Y030678*
X103037Y030634*
X10315Y030619*
X103263Y030634*
X103368Y030678*
X103459Y030747*
X103528Y030838*
X103572Y030943*
X103587Y031056*
X103572Y031169*
X103528Y031274*
X103459Y031365*
X103368Y031434*
X103263Y031478*
X10315Y031493*
G37*
G36*
X10215D02*
X102037Y031478D01*
X101932Y031434*
X101841Y031365*
X101772Y031274*
X101728Y031169*
X101713Y031056*
X101728Y030943*
X101772Y030838*
X101841Y030747*
X101932Y030678*
X102037Y030634*
X10215Y030619*
X102263Y030634*
X102368Y030678*
X102459Y030747*
X102528Y030838*
X102572Y030943*
X102587Y031056*
X102572Y031169*
X102528Y031274*
X102459Y031365*
X102368Y031434*
X102263Y031478*
X10215Y031493*
G37*
G36*
X08315D02*
X083037Y031478D01*
X082932Y031434*
X082841Y031365*
X082772Y031274*
X082728Y031169*
X082713Y031056*
X082728Y030943*
X082772Y030838*
X082841Y030747*
X082932Y030678*
X083037Y030634*
X08315Y030619*
X083263Y030634*
X083368Y030678*
X083459Y030747*
X083528Y030838*
X083572Y030943*
X083587Y031056*
X083572Y031169*
X083528Y031274*
X083459Y031365*
X083368Y031434*
X083263Y031478*
X08315Y031493*
G37*
G36*
X08215D02*
X082037Y031478D01*
X081932Y031434*
X081841Y031365*
X081772Y031274*
X081728Y031169*
X081713Y031056*
X081728Y030943*
X081772Y030838*
X081841Y030747*
X081932Y030678*
X082037Y030634*
X08215Y030619*
X082263Y030634*
X082368Y030678*
X082459Y030747*
X082528Y030838*
X082572Y030943*
X082587Y031056*
X082572Y031169*
X082528Y031274*
X082459Y031365*
X082368Y031434*
X082263Y031478*
X08215Y031493*
G37*
G36*
X10315Y030493D02*
X103037Y030478D01*
X102932Y030434*
X102841Y030365*
X102772Y030274*
X102728Y030169*
X102713Y030056*
X102728Y029943*
X102772Y029838*
X102841Y029747*
X102932Y029678*
X103037Y029634*
X10315Y029619*
X103263Y029634*
X103368Y029678*
X103459Y029747*
X103528Y029838*
X103572Y029943*
X103587Y030056*
X103572Y030169*
X103528Y030274*
X103459Y030365*
X103368Y030434*
X103263Y030478*
X10315Y030493*
G37*
G36*
X10215D02*
X102037Y030478D01*
X101932Y030434*
X101841Y030365*
X101772Y030274*
X101728Y030169*
X101713Y030056*
X101728Y029943*
X101772Y029838*
X101841Y029747*
X101932Y029678*
X102037Y029634*
X10215Y029619*
X102263Y029634*
X102368Y029678*
X102459Y029747*
X102528Y029838*
X102572Y029943*
X102587Y030056*
X102572Y030169*
X102528Y030274*
X102459Y030365*
X102368Y030434*
X102263Y030478*
X10215Y030493*
G37*
G36*
X08315D02*
X083037Y030478D01*
X082932Y030434*
X082841Y030365*
X082772Y030274*
X082728Y030169*
X082713Y030056*
X082728Y029943*
X082772Y029838*
X082841Y029747*
X082932Y029678*
X083037Y029634*
X08315Y029619*
X083263Y029634*
X083368Y029678*
X083459Y029747*
X083528Y029838*
X083572Y029943*
X083587Y030056*
X083572Y030169*
X083528Y030274*
X083459Y030365*
X083368Y030434*
X083263Y030478*
X08315Y030493*
G37*
G36*
X08215D02*
X082037Y030478D01*
X081932Y030434*
X081841Y030365*
X081772Y030274*
X081728Y030169*
X081713Y030056*
X081728Y029943*
X081772Y029838*
X081841Y029747*
X081932Y029678*
X082037Y029634*
X08215Y029619*
X082263Y029634*
X082368Y029678*
X082459Y029747*
X082528Y029838*
X082572Y029943*
X082587Y030056*
X082572Y030169*
X082528Y030274*
X082459Y030365*
X082368Y030434*
X082263Y030478*
X08215Y030493*
G37*
G36*
X10315Y029493D02*
X103037Y029478D01*
X102932Y029434*
X102841Y029365*
X102772Y029274*
X102728Y029169*
X102713Y029056*
X102728Y028943*
X102772Y028838*
X102841Y028747*
X102932Y028678*
X103037Y028634*
X10315Y028619*
X103263Y028634*
X103368Y028678*
X103459Y028747*
X103528Y028838*
X103572Y028943*
X103587Y029056*
X103572Y029169*
X103528Y029274*
X103459Y029365*
X103368Y029434*
X103263Y029478*
X10315Y029493*
G37*
G36*
X10215D02*
X102037Y029478D01*
X101932Y029434*
X101841Y029365*
X101772Y029274*
X101728Y029169*
X101713Y029056*
X101728Y028943*
X101772Y028838*
X101841Y028747*
X101932Y028678*
X102037Y028634*
X10215Y028619*
X102263Y028634*
X102368Y028678*
X102459Y028747*
X102528Y028838*
X102572Y028943*
X102587Y029056*
X102572Y029169*
X102528Y029274*
X102459Y029365*
X102368Y029434*
X102263Y029478*
X10215Y029493*
G37*
G36*
X08315D02*
X083037Y029478D01*
X082932Y029434*
X082841Y029365*
X082772Y029274*
X082728Y029169*
X082713Y029056*
X082728Y028943*
X082772Y028838*
X082841Y028747*
X082932Y028678*
X083037Y028634*
X08315Y028619*
X083263Y028634*
X083368Y028678*
X083459Y028747*
X083528Y028838*
X083572Y028943*
X083587Y029056*
X083572Y029169*
X083528Y029274*
X083459Y029365*
X083368Y029434*
X083263Y029478*
X08315Y029493*
G37*
G36*
X08215D02*
X082037Y029478D01*
X081932Y029434*
X081841Y029365*
X081772Y029274*
X081728Y029169*
X081713Y029056*
X081728Y028943*
X081772Y028838*
X081841Y028747*
X081932Y028678*
X082037Y028634*
X08215Y028619*
X082263Y028634*
X082368Y028678*
X082459Y028747*
X082528Y028838*
X082572Y028943*
X082587Y029056*
X082572Y029169*
X082528Y029274*
X082459Y029365*
X082368Y029434*
X082263Y029478*
X08215Y029493*
G37*
G36*
X10315Y028493D02*
X103037Y028478D01*
X102932Y028434*
X102841Y028365*
X102772Y028274*
X102728Y028169*
X102713Y028056*
X102728Y027943*
X102772Y027838*
X102841Y027747*
X102932Y027678*
X103037Y027634*
X10315Y027619*
X103263Y027634*
X103368Y027678*
X103459Y027747*
X103528Y027838*
X103572Y027943*
X103587Y028056*
X103572Y028169*
X103528Y028274*
X103459Y028365*
X103368Y028434*
X103263Y028478*
X10315Y028493*
G37*
G36*
X10215D02*
X102037Y028478D01*
X101932Y028434*
X101841Y028365*
X101772Y028274*
X101728Y028169*
X101713Y028056*
X101728Y027943*
X101772Y027838*
X101841Y027747*
X101932Y027678*
X102037Y027634*
X10215Y027619*
X102263Y027634*
X102368Y027678*
X102459Y027747*
X102528Y027838*
X102572Y027943*
X102587Y028056*
X102572Y028169*
X102528Y028274*
X102459Y028365*
X102368Y028434*
X102263Y028478*
X10215Y028493*
G37*
G36*
X08315D02*
X083037Y028478D01*
X082932Y028434*
X082841Y028365*
X082772Y028274*
X082728Y028169*
X082713Y028056*
X082728Y027943*
X082772Y027838*
X082841Y027747*
X082932Y027678*
X083037Y027634*
X08315Y027619*
X083263Y027634*
X083368Y027678*
X083459Y027747*
X083528Y027838*
X083572Y027943*
X083587Y028056*
X083572Y028169*
X083528Y028274*
X083459Y028365*
X083368Y028434*
X083263Y028478*
X08315Y028493*
G37*
G36*
X08215D02*
X082037Y028478D01*
X081932Y028434*
X081841Y028365*
X081772Y028274*
X081728Y028169*
X081713Y028056*
X081728Y027943*
X081772Y027838*
X081841Y027747*
X081932Y027678*
X082037Y027634*
X08215Y027619*
X082263Y027634*
X082368Y027678*
X082459Y027747*
X082528Y027838*
X082572Y027943*
X082587Y028056*
X082572Y028169*
X082528Y028274*
X082459Y028365*
X082368Y028434*
X082263Y028478*
X08215Y028493*
G37*
G36*
X10315Y027493D02*
X103037Y027478D01*
X102932Y027434*
X102841Y027365*
X102772Y027274*
X102728Y027169*
X102713Y027056*
X102728Y026943*
X102772Y026838*
X102841Y026747*
X102932Y026678*
X103037Y026634*
X10315Y026619*
X103263Y026634*
X103368Y026678*
X103459Y026747*
X103528Y026838*
X103572Y026943*
X103587Y027056*
X103572Y027169*
X103528Y027274*
X103459Y027365*
X103368Y027434*
X103263Y027478*
X10315Y027493*
G37*
G36*
X10215D02*
X102037Y027478D01*
X101932Y027434*
X101841Y027365*
X101772Y027274*
X101728Y027169*
X101713Y027056*
X101728Y026943*
X101772Y026838*
X101841Y026747*
X101932Y026678*
X102037Y026634*
X10215Y026619*
X102263Y026634*
X102368Y026678*
X102459Y026747*
X102528Y026838*
X102572Y026943*
X102587Y027056*
X102572Y027169*
X102528Y027274*
X102459Y027365*
X102368Y027434*
X102263Y027478*
X10215Y027493*
G37*
G36*
X08315D02*
X083037Y027478D01*
X082932Y027434*
X082841Y027365*
X082772Y027274*
X082728Y027169*
X082713Y027056*
X082728Y026943*
X082772Y026838*
X082841Y026747*
X082932Y026678*
X083037Y026634*
X08315Y026619*
X083263Y026634*
X083368Y026678*
X083459Y026747*
X083528Y026838*
X083572Y026943*
X083587Y027056*
X083572Y027169*
X083528Y027274*
X083459Y027365*
X083368Y027434*
X083263Y027478*
X08315Y027493*
G37*
G36*
X08215D02*
X082037Y027478D01*
X081932Y027434*
X081841Y027365*
X081772Y027274*
X081728Y027169*
X081713Y027056*
X081728Y026943*
X081772Y026838*
X081841Y026747*
X081932Y026678*
X082037Y026634*
X08215Y026619*
X082263Y026634*
X082368Y026678*
X082459Y026747*
X082528Y026838*
X082572Y026943*
X082587Y027056*
X082572Y027169*
X082528Y027274*
X082459Y027365*
X082368Y027434*
X082263Y027478*
X08215Y027493*
G37*
G36*
X10215Y026493D02*
X102037Y026478D01*
X101932Y026434*
X101841Y026365*
X101772Y026274*
X101728Y026169*
X101713Y026056*
X101728Y025943*
X101772Y025838*
X101841Y025747*
X101932Y025678*
X102037Y025634*
X10215Y025619*
X102263Y025634*
X102368Y025678*
X102459Y025747*
X102528Y025838*
X102572Y025943*
X102587Y026056*
X102572Y026169*
X102528Y026274*
X102459Y026365*
X102368Y026434*
X102263Y026478*
X10215Y026493*
G37*
G36*
X08315D02*
X083037Y026478D01*
X082932Y026434*
X082841Y026365*
X082772Y026274*
X082728Y026169*
X082713Y026056*
X082728Y025943*
X082772Y025838*
X082841Y025747*
X082932Y025678*
X083037Y025634*
X08315Y025619*
X083263Y025634*
X083368Y025678*
X083459Y025747*
X083528Y025838*
X083572Y025943*
X083587Y026056*
X083572Y026169*
X083528Y026274*
X083459Y026365*
X083368Y026434*
X083263Y026478*
X08315Y026493*
G37*
G36*
X08215D02*
X082037Y026478D01*
X081932Y026434*
X081841Y026365*
X081772Y026274*
X081728Y026169*
X081713Y026056*
X081728Y025943*
X081772Y025838*
X081841Y025747*
X081932Y025678*
X082037Y025634*
X08215Y025619*
X082263Y025634*
X082368Y025678*
X082459Y025747*
X082528Y025838*
X082572Y025943*
X082587Y026056*
X082572Y026169*
X082528Y026274*
X082459Y026365*
X082368Y026434*
X082263Y026478*
X08215Y026493*
G37*
G36*
X095332Y047551D02*
X093507D01*
X093441Y047542*
X093378Y047516*
X093325Y047475*
X093175Y047326*
X093134Y047272*
X093108Y04721*
X0931Y047143*
Y0468*
X093007Y046729*
X092928Y046626*
X092878Y046507*
X092861Y046378*
X092878Y04625*
X092928Y04613*
X093007Y046027*
X09311Y045948*
X093217Y045904*
X093217Y045904*
Y045853*
X093217Y045853*
X09311Y045808*
X093007Y045729*
X092928Y045626*
X092878Y045507*
X092861Y045378*
X092878Y04525*
X092928Y04513*
X093007Y045027*
X09311Y044948*
X093217Y044904*
X093217Y044904*
Y044853*
X093217*
X09311Y044808*
X093007Y044729*
X092936Y044636*
X08463*
X084563Y044627*
X084501Y044602*
X084448Y044561*
X081136Y041249*
X081095Y041196*
X081069Y041133*
X08106Y041066*
Y032657*
X081069Y03259*
X081095Y032528*
X081136Y032475*
X081737Y031874*
X081766Y031851*
X081772Y031838*
X081841Y031747*
X081932Y031678*
X082037Y031634*
X08215Y031619*
X082263Y031634*
X082368Y031678*
X082459Y031747*
X082528Y031838*
X082572Y031943*
X082587Y032056*
X082572Y032169*
X082528Y032274*
X082459Y032365*
X082368Y032434*
X082263Y032478*
X08215Y032493*
X082037Y032478*
X081932Y032434*
X081917Y032423*
X081577Y032764*
Y04096*
X084737Y04412*
X086647*
X086664Y04407*
X086638Y04405*
X083715Y041127*
X083674Y041073*
X083648Y041011*
X083639Y040944*
Y032772*
X083321Y032454*
X083263Y032478*
X08315Y032493*
X083037Y032478*
X082932Y032434*
X082841Y032365*
X082772Y032274*
X082728Y032169*
X082713Y032056*
X082728Y031943*
X082772Y031838*
X082841Y031747*
X082932Y031678*
X083037Y031634*
X08315Y031619*
X083263Y031634*
X083368Y031678*
X083459Y031747*
X083528Y031838*
X083572Y031943*
X083577Y03198*
X08408Y032483*
X084121Y032536*
X084147Y032598*
X084155Y032665*
Y040838*
X086927Y04361*
X092866*
Y042886*
X093039*
Y042759*
X092988*
Y042231*
X092933*
Y041325*
X093029*
Y023994*
X086306Y017272*
X084449*
Y017313*
X083851*
Y017272*
X083529*
X083528Y017274*
X083459Y017365*
X083368Y017434*
X083263Y017478*
X08315Y017493*
X083037Y017478*
X082932Y017434*
X082841Y017365*
X082802Y017314*
X082498*
X082459Y017365*
X082368Y017434*
X082263Y017478*
X08215Y017493*
X082037Y017478*
X081932Y017434*
X081914Y017421*
X081869Y017443*
Y017669*
X081914Y017691*
X081932Y017678*
X082037Y017634*
X08215Y017619*
X082263Y017634*
X082368Y017678*
X082459Y017747*
X082528Y017838*
X082572Y017943*
X082587Y018056*
X082572Y018169*
X082528Y018274*
X082459Y018365*
X082368Y018434*
X082263Y018478*
X08215Y018493*
X082037Y018478*
X081932Y018434*
X081914Y018421*
X081869Y018443*
Y018669*
X081914Y018691*
X081932Y018678*
X082037Y018634*
X08215Y018619*
X082263Y018634*
X082368Y018678*
X082459Y018747*
X082528Y018838*
X082572Y018943*
X082587Y019056*
X082572Y019169*
X082528Y019274*
X082459Y019365*
X082368Y019434*
X082263Y019478*
X08215Y019493*
X082037Y019478*
X081932Y019434*
X081914Y019421*
X081869Y019443*
Y019669*
X081914Y019691*
X081932Y019678*
X082037Y019634*
X08215Y019619*
X082263Y019634*
X082368Y019678*
X082459Y019747*
X082528Y019838*
X082572Y019943*
X082587Y020056*
X082572Y020169*
X082528Y020274*
X082459Y020365*
X082368Y020434*
X082263Y020478*
X08215Y020493*
X082037Y020478*
X081932Y020434*
X081914Y020421*
X081869Y020443*
Y020669*
X081914Y020691*
X081932Y020678*
X082037Y020634*
X08215Y020619*
X082263Y020634*
X082368Y020678*
X082459Y020747*
X082528Y020838*
X082572Y020943*
X082587Y021056*
X082572Y021169*
X082528Y021274*
X082459Y021365*
X082368Y021434*
X082263Y021478*
X08215Y021493*
X082037Y021478*
X081932Y021434*
X081914Y021421*
X081869Y021443*
Y021669*
X081914Y021691*
X081932Y021678*
X082037Y021634*
X08215Y021619*
X082263Y021634*
X082368Y021678*
X082459Y021747*
X082528Y021838*
X082572Y021943*
X082587Y022056*
X082572Y022169*
X082528Y022274*
X082459Y022365*
X082368Y022434*
X082263Y022478*
X08215Y022493*
X082037Y022478*
X081932Y022434*
X081914Y022421*
X081869Y022443*
Y022669*
X081914Y022691*
X081932Y022678*
X082037Y022634*
X08215Y022619*
X082263Y022634*
X082368Y022678*
X082459Y022747*
X082528Y022838*
X082572Y022943*
X082587Y023056*
X082572Y023169*
X082528Y023274*
X082459Y023365*
X082368Y023434*
X082263Y023478*
X08215Y023493*
X082037Y023478*
X081932Y023434*
X081914Y023421*
X081869Y023443*
Y023669*
X081914Y023691*
X081932Y023678*
X082037Y023634*
X08215Y023619*
X082263Y023634*
X082368Y023678*
X082459Y023747*
X082528Y023838*
X082572Y023943*
X082587Y024056*
X082572Y024169*
X082528Y024274*
X082459Y024365*
X082368Y024434*
X082263Y024478*
X08215Y024493*
X082037Y024478*
X081987Y024457*
X081959Y0245*
X082086Y024628*
X08215Y024619*
X082263Y024634*
X082368Y024678*
X082459Y024747*
X082528Y024838*
X082572Y024943*
X082587Y025056*
X082572Y025169*
X082528Y025274*
X082459Y025365*
X082368Y025434*
X082263Y025478*
X08215Y025493*
X082037Y025478*
X081932Y025434*
X081841Y025365*
X081781Y025287*
X081421*
Y025328*
X080822*
Y02473*
X081389*
X081413Y02468*
X081388Y024646*
X081362Y024584*
X081353Y024517*
Y017326*
X080872*
Y016728*
X08147*
Y016769*
X081824*
X081841Y016747*
X081932Y016678*
X082037Y016634*
X08215Y016619*
X082263Y016634*
X082368Y016678*
X082459Y016747*
X082498Y016798*
X082802*
X082841Y016747*
X082932Y016678*
X083037Y016634*
X08315Y016619*
X083263Y016634*
X083368Y016678*
X083459Y016747*
X083465Y016755*
X083851*
Y016714*
X084449*
Y016755*
X086306*
X08666Y016402*
X086713Y016361*
X086776Y016335*
X086842Y016326*
X100522*
X100801Y016048*
Y015814*
X101399*
Y015855*
X101764*
X101772Y015838*
X101841Y015747*
X101932Y015678*
X102037Y015634*
X10215Y015619*
X102263Y015634*
X102368Y015678*
X102459Y015747*
X102498Y015798*
X102802*
X102841Y015747*
X102932Y015678*
X103037Y015634*
X10315Y015619*
X103263Y015634*
X103368Y015678*
X103459Y015747*
X10351Y015814*
X104041*
Y015783*
X104251*
X104273Y015774*
X10434Y015765*
X104407Y015774*
X104429Y015783*
X104639*
Y016381*
X104041*
Y016331*
X103485*
X103459Y016365*
X103368Y016434*
X103263Y016478*
X10315Y016493*
X103037Y016478*
X102932Y016434*
X102841Y016365*
X102802Y016314*
X102498*
X102459Y016365*
X102368Y016434*
X102263Y016478*
X10215Y016493*
X102037Y016478*
X101932Y016434*
X10185Y016372*
X101399*
Y016413*
X101166*
X100812Y016767*
X100758Y016808*
X100696Y016834*
X100629Y016842*
X086949*
X086778Y017014*
X093469Y023705*
X09351Y023758*
X093536Y023821*
X093545Y023887*
Y041325*
X093661*
Y042231*
X093586*
Y042759*
X093555*
Y042886*
X09385*
Y04361*
X093914Y043618*
X093976Y043644*
X09403Y043685*
X094242Y043897*
X094358Y043882*
X094486Y043899*
X094573Y043935*
X094623Y043901*
Y04237*
X094492Y042239*
X094451Y042185*
X094425Y042123*
X094417Y042056*
Y040005*
Y025738*
X094425Y025671*
X094451Y025609*
X094492Y025555*
X097691Y022356*
X097745Y022315*
X097807Y02229*
X097874Y022281*
X10172*
X101754Y022231*
X101728Y022169*
X101713Y022056*
X101728Y021943*
X101772Y021838*
X101841Y021747*
X101932Y021678*
X102037Y021634*
X10215Y021619*
X102263Y021634*
X102368Y021678*
X102459Y021747*
X102528Y021838*
X102572Y021943*
X102587Y022056*
X102572Y022169*
X102551Y022219*
X102594Y022247*
X102721Y02212*
X102713Y022056*
X102728Y021943*
X102772Y021838*
X102841Y021747*
X102932Y021678*
X103037Y021634*
X10315Y021619*
X103263Y021634*
X103368Y021678*
X103459Y021747*
X103528Y021838*
X103572Y021943*
X103587Y022056*
X103572Y022169*
X103528Y022274*
X103459Y022365*
X103368Y022434*
X103263Y022478*
X10315Y022493*
X103086Y022485*
X102959Y022612*
X102987Y022655*
X103037Y022634*
X10315Y022619*
X103263Y022634*
X103368Y022678*
X103459Y022747*
X103528Y022838*
X103572Y022943*
X103587Y023056*
X103572Y023169*
X103528Y023274*
X103459Y023365*
X103368Y023434*
X103263Y023478*
X10315Y023493*
X103086Y023485*
X102959Y023612*
X102987Y023655*
X103037Y023634*
X10315Y023619*
X103263Y023634*
X103368Y023678*
X103459Y023747*
X103528Y023838*
X103572Y023943*
X103587Y024056*
X103572Y024169*
X103528Y024274*
X103459Y024365*
X103368Y024434*
X103263Y024478*
X10315Y024493*
X103086Y024485*
X102959Y024612*
X102987Y024655*
X103037Y024634*
X10315Y024619*
X103263Y024634*
X103368Y024678*
X103459Y024747*
X103528Y024838*
X103572Y024943*
X103587Y025056*
X103572Y025169*
X103528Y025274*
X103459Y025365*
X103368Y025434*
X103263Y025478*
X10315Y025493*
X103037Y025478*
X102932Y025434*
X102841Y025365*
X102772Y025274*
X102728Y025169*
X102713Y025056*
X102728Y024943*
X102753Y024883*
X102712Y024851*
X102692Y024866*
X10263Y024892*
X102606Y024895*
X102575Y024939*
X102573Y02495*
X102587Y025056*
X102572Y025169*
X102528Y025274*
X102459Y025365*
X102368Y025434*
X102263Y025478*
X10215Y025493*
X102037Y025478*
X101932Y025434*
X101841Y025365*
X101772Y025274*
X101728Y025169*
X101713Y025056*
X101727Y024951*
X101717Y024925*
X101701Y024901*
X097333*
X095848Y026386*
Y047035*
X095839Y047102*
X095814Y047164*
X095773Y047217*
X095515Y047475*
X095461Y047516*
X095399Y047542*
X095332Y047551*
G37*
G36*
X08315Y025493D02*
X083037Y025478D01*
X082932Y025434*
X082841Y025365*
X082772Y025274*
X082728Y025169*
X082713Y025056*
X082728Y024943*
X082772Y024838*
X082841Y024747*
X082932Y024678*
X083037Y024634*
X08315Y024619*
X083263Y024634*
X083368Y024678*
X083459Y024747*
X083528Y024838*
X083572Y024943*
X083587Y025056*
X083572Y025169*
X083528Y025274*
X083459Y025365*
X083368Y025434*
X083263Y025478*
X08315Y025493*
G37*
G36*
Y024493D02*
X083037Y024478D01*
X082932Y024434*
X082841Y024365*
X082772Y024274*
X082728Y024169*
X082713Y024056*
X082728Y023943*
X082772Y023838*
X082841Y023747*
X082932Y023678*
X083037Y023634*
X08315Y023619*
X083263Y023634*
X083368Y023678*
X083459Y023747*
X083528Y023838*
X083572Y023943*
X083587Y024056*
X083572Y024169*
X083528Y024274*
X083459Y024365*
X083368Y024434*
X083263Y024478*
X08315Y024493*
G37*
G36*
Y023493D02*
X083037Y023478D01*
X082932Y023434*
X082841Y023365*
X082772Y023274*
X082728Y023169*
X082713Y023056*
X082728Y022943*
X082772Y022838*
X082841Y022747*
X082932Y022678*
X083037Y022634*
X08315Y022619*
X083263Y022634*
X083368Y022678*
X083459Y022747*
X083528Y022838*
X083572Y022943*
X083587Y023056*
X083572Y023169*
X083528Y023274*
X083459Y023365*
X083368Y023434*
X083263Y023478*
X08315Y023493*
G37*
G36*
Y022493D02*
X083037Y022478D01*
X082932Y022434*
X082841Y022365*
X082772Y022274*
X082728Y022169*
X082713Y022056*
X082728Y021943*
X082772Y021838*
X082841Y021747*
X082932Y021678*
X083037Y021634*
X08315Y021619*
X083263Y021634*
X083368Y021678*
X083459Y021747*
X083528Y021838*
X083572Y021943*
X083587Y022056*
X083572Y022169*
X083528Y022274*
X083459Y022365*
X083368Y022434*
X083263Y022478*
X08315Y022493*
G37*
G36*
X10315Y021493D02*
X103037Y021478D01*
X102932Y021434*
X102841Y021365*
X102772Y021274*
X102728Y021169*
X102713Y021056*
X102728Y020943*
X102772Y020838*
X102841Y020747*
X102932Y020678*
X103037Y020634*
X10315Y020619*
X103263Y020634*
X103368Y020678*
X103459Y020747*
X103528Y020838*
X103572Y020943*
X103587Y021056*
X103572Y021169*
X103528Y021274*
X103459Y021365*
X103368Y021434*
X103263Y021478*
X10315Y021493*
G37*
G36*
X10215D02*
X102037Y021478D01*
X101932Y021434*
X101841Y021365*
X101772Y021274*
X101728Y021169*
X101713Y021056*
X101728Y020943*
X101772Y020838*
X101841Y020747*
X101932Y020678*
X102037Y020634*
X10215Y020619*
X102263Y020634*
X102368Y020678*
X102459Y020747*
X102528Y020838*
X102572Y020943*
X102587Y021056*
X102572Y021169*
X102528Y021274*
X102459Y021365*
X102368Y021434*
X102263Y021478*
X10215Y021493*
G37*
G36*
X08315D02*
X083037Y021478D01*
X082932Y021434*
X082841Y021365*
X082772Y021274*
X082728Y021169*
X082713Y021056*
X082728Y020943*
X082772Y020838*
X082841Y020747*
X082932Y020678*
X083037Y020634*
X08315Y020619*
X083263Y020634*
X083368Y020678*
X083459Y020747*
X083528Y020838*
X083572Y020943*
X083587Y021056*
X083572Y021169*
X083528Y021274*
X083459Y021365*
X083368Y021434*
X083263Y021478*
X08315Y021493*
G37*
G36*
X10315Y020493D02*
X103037Y020478D01*
X102932Y020434*
X102841Y020365*
X102772Y020274*
X102728Y020169*
X102713Y020056*
X102728Y019943*
X102772Y019838*
X102841Y019747*
X102932Y019678*
X103037Y019634*
X10315Y019619*
X103263Y019634*
X103368Y019678*
X103459Y019747*
X103528Y019838*
X103572Y019943*
X103587Y020056*
X103572Y020169*
X103528Y020274*
X103459Y020365*
X103368Y020434*
X103263Y020478*
X10315Y020493*
G37*
G36*
X10215D02*
X102037Y020478D01*
X101932Y020434*
X101841Y020365*
X101772Y020274*
X101728Y020169*
X101713Y020056*
X101728Y019943*
X101772Y019838*
X101841Y019747*
X101932Y019678*
X102037Y019634*
X10215Y019619*
X102263Y019634*
X102368Y019678*
X102459Y019747*
X102528Y019838*
X102572Y019943*
X102587Y020056*
X102572Y020169*
X102528Y020274*
X102459Y020365*
X102368Y020434*
X102263Y020478*
X10215Y020493*
G37*
G36*
X08315D02*
X083037Y020478D01*
X082932Y020434*
X082841Y020365*
X082772Y020274*
X082728Y020169*
X082713Y020056*
X082728Y019943*
X082772Y019838*
X082841Y019747*
X082932Y019678*
X083037Y019634*
X08315Y019619*
X083263Y019634*
X083368Y019678*
X083459Y019747*
X083528Y019838*
X083572Y019943*
X083587Y020056*
X083572Y020169*
X083528Y020274*
X083459Y020365*
X083368Y020434*
X083263Y020478*
X08315Y020493*
G37*
G36*
X10315Y019493D02*
X103037Y019478D01*
X102932Y019434*
X102841Y019365*
X102772Y019274*
X102728Y019169*
X102713Y019056*
X102728Y018943*
X102772Y018838*
X102841Y018747*
X102932Y018678*
X103037Y018634*
X10315Y018619*
X103263Y018634*
X103368Y018678*
X103459Y018747*
X103528Y018838*
X103572Y018943*
X103587Y019056*
X103572Y019169*
X103528Y019274*
X103459Y019365*
X103368Y019434*
X103263Y019478*
X10315Y019493*
G37*
G36*
X10215D02*
X102037Y019478D01*
X101932Y019434*
X101841Y019365*
X101772Y019274*
X101728Y019169*
X101713Y019056*
X101728Y018943*
X101772Y018838*
X101841Y018747*
X101932Y018678*
X102037Y018634*
X10215Y018619*
X102263Y018634*
X102368Y018678*
X102459Y018747*
X102528Y018838*
X102572Y018943*
X102587Y019056*
X102572Y019169*
X102528Y019274*
X102459Y019365*
X102368Y019434*
X102263Y019478*
X10215Y019493*
G37*
G36*
X08315D02*
X083037Y019478D01*
X082932Y019434*
X082841Y019365*
X082772Y019274*
X082728Y019169*
X082713Y019056*
X082728Y018943*
X082772Y018838*
X082841Y018747*
X082932Y018678*
X083037Y018634*
X08315Y018619*
X083263Y018634*
X083368Y018678*
X083459Y018747*
X083528Y018838*
X083572Y018943*
X083587Y019056*
X083572Y019169*
X083528Y019274*
X083459Y019365*
X083368Y019434*
X083263Y019478*
X08315Y019493*
G37*
G36*
X10315Y018493D02*
X103037Y018478D01*
X102932Y018434*
X102841Y018365*
X102772Y018274*
X102728Y018169*
X102713Y018056*
X102728Y017943*
X102772Y017838*
X102841Y017747*
X102932Y017678*
X103037Y017634*
X10315Y017619*
X103263Y017634*
X103368Y017678*
X103459Y017747*
X103528Y017838*
X103572Y017943*
X103587Y018056*
X103572Y018169*
X103528Y018274*
X103459Y018365*
X103368Y018434*
X103263Y018478*
X10315Y018493*
G37*
G36*
X10215D02*
X102037Y018478D01*
X101932Y018434*
X101841Y018365*
X101772Y018274*
X101728Y018169*
X101713Y018056*
X101728Y017943*
X101772Y017838*
X101841Y017747*
X101932Y017678*
X102037Y017634*
X10215Y017619*
X102263Y017634*
X102368Y017678*
X102459Y017747*
X102528Y017838*
X102572Y017943*
X102587Y018056*
X102572Y018169*
X102528Y018274*
X102459Y018365*
X102368Y018434*
X102263Y018478*
X10215Y018493*
G37*
G36*
X08315D02*
X083037Y018478D01*
X082932Y018434*
X082841Y018365*
X082772Y018274*
X082728Y018169*
X082713Y018056*
X082728Y017943*
X082772Y017838*
X082841Y017747*
X082932Y017678*
X083037Y017634*
X08315Y017619*
X083263Y017634*
X083368Y017678*
X083459Y017747*
X083528Y017838*
X083572Y017943*
X083587Y018056*
X083572Y018169*
X083528Y018274*
X083459Y018365*
X083368Y018434*
X083263Y018478*
X08315Y018493*
G37*
G36*
X10215Y017493D02*
X102037Y017478D01*
X101932Y017434*
X101841Y017365*
X101772Y017274*
X101728Y017169*
X101713Y017056*
X101728Y016943*
X101772Y016838*
X101841Y016747*
X101932Y016678*
X102037Y016634*
X10215Y016619*
X102263Y016634*
X102368Y016678*
X102459Y016747*
X102528Y016838*
X102572Y016943*
X102587Y017056*
X102572Y017169*
X102528Y017274*
X102459Y017365*
X102368Y017434*
X102263Y017478*
X10215Y017493*
G37*
G36*
X08315Y016493D02*
X083037Y016478D01*
X082932Y016434*
X082841Y016365*
X082772Y016274*
X082728Y016169*
X082713Y016056*
X082728Y015943*
X082772Y015838*
X082841Y015747*
X082932Y015678*
X083037Y015634*
X08315Y015619*
X083263Y015634*
X083368Y015678*
X083459Y015747*
X083528Y015838*
X083572Y015943*
X083587Y016056*
X083572Y016169*
X083528Y016274*
X083459Y016365*
X083368Y016434*
X083263Y016478*
X08315Y016493*
G37*
G36*
X08215D02*
X082037Y016478D01*
X081932Y016434*
X081841Y016365*
X081772Y016274*
X081728Y016169*
X081713Y016056*
X081728Y015943*
X081772Y015838*
X081841Y015747*
X081932Y015678*
X082037Y015634*
X08215Y015619*
X082263Y015634*
X082368Y015678*
X082459Y015747*
X082528Y015838*
X082572Y015943*
X082587Y016056*
X082572Y016169*
X082528Y016274*
X082459Y016365*
X082368Y016434*
X082263Y016478*
X08215Y016493*
G37*
%LNcom_board_2018-3*%
%LPD*%
G36*
X101841Y035747D02*
X101932Y035678D01*
X102037Y035634*
X10215Y035619*
X102263Y035634*
X102368Y035678*
X102386Y035692*
X102415Y035654*
X102612Y035457*
X102666Y035416*
X102728Y03539*
X102791Y035382*
X102799Y035372*
X102815Y035331*
X102772Y035274*
X102728Y035169*
X102713Y035056*
X102728Y034943*
X102756Y034875*
X102723Y034825*
X102577*
X102544Y034875*
X102572Y034943*
X102587Y035056*
X102572Y035169*
X102528Y035274*
X102459Y035365*
X102368Y035434*
X102263Y035478*
X10215Y035493*
X102037Y035478*
X101932Y035434*
X101841Y035365*
X101772Y035274*
X101728Y035169*
X101725Y035146*
X101675Y03515*
Y035582*
X101841Y035747*
X101841*
G37*
G36*
X109241Y029445D02*
X109237Y029416D01*
X109185Y029398*
X103834Y034749*
X10378Y03479*
X103718Y034816*
X103651Y034825*
X103577*
X103544Y034875*
X103572Y034943*
X103584Y035031*
X103636Y035049*
X109241Y029445*
G37*
G36*
X101818Y024335D02*
X101772Y024274D01*
X101728Y024169*
X101713Y024056*
X101728Y023943*
X101772Y023838*
X10178Y023826*
X101758Y023781*
X097902*
X097345Y024338*
X097364Y024385*
X101793*
X101818Y024335*
G37*
G54D10*
X110531Y02621D03*
Y025856D03*
Y031919D03*
Y031565D03*
Y023277D03*
Y023631D03*
Y029114D03*
Y028759D03*
G54D11*
X093297Y041778D03*
X093966D03*
G54D12*
X08415Y017014D03*
Y016699D03*
X1011Y016114D03*
Y015799D03*
X10434Y015767D03*
Y016082D03*
X081122Y024714D03*
Y025029D03*
X081171Y016712D03*
Y017027D03*
G54D13*
X093287Y04246D03*
X093602D03*
G54D14*
X100629Y016584D02*
X1011Y016114D01*
X086842Y016584D02*
X100629D01*
X086413Y017014D02*
X086842Y016584D01*
X081712Y017027D02*
X082121D01*
X081171D02*
X081712D01*
X082123Y025029D02*
X08215Y025056D01*
X081611Y024517D02*
X082123Y025029D01*
X081611Y017128D02*
X081712Y017027D01*
X081611Y017128D02*
Y024517D01*
X093287Y041876D02*
Y042516D01*
X104291Y016072D02*
X10434Y016023D01*
X093287Y023887D02*
Y041719D01*
X086413Y017014D02*
X093287Y023887D01*
X093228Y041778D02*
X093287Y041719D01*
X093996Y047086D02*
X095116D01*
X09383Y046921D02*
X093996Y047086D01*
X095116D02*
X095275Y046927D01*
Y04183D02*
Y046927D01*
X09498Y025807D02*
Y042083D01*
Y025807D02*
X097706Y02308D01*
X09498Y042083D02*
X095078Y042181D01*
Y045658*
X094675Y042056D02*
X094881Y042263D01*
X094675Y040005D02*
Y042056D01*
X094881Y042263D02*
Y044855D01*
X094358Y045378D02*
X094881Y044855D01*
X094675Y040005D02*
Y025738D01*
X097874Y022539*
X102667D02*
X10315Y022056D01*
X097874Y022539D02*
X102667D01*
X097706Y02308D02*
X102126D01*
X095275Y04183D02*
Y026043D01*
X097795Y023523*
X09383Y045897D02*
Y046921D01*
X093358Y045425D02*
X09383Y045897D01*
X093358Y045378D02*
Y045425D01*
X08682Y043868D02*
X093847D01*
X083897Y040944D02*
X08682Y043868D01*
X08463Y044378D02*
X093358D01*
X081318Y041066D02*
X08463Y044378D01*
X093847Y043868D02*
X094358Y044378D01*
X09559Y026279D02*
Y047035D01*
X095332Y047293D02*
X09559Y047035D01*
X093507Y047293D02*
X095332D01*
X093358Y047143D02*
X093507Y047293D01*
X093358Y046378D02*
Y047143D01*
X094358Y046378D02*
X095078Y045658D01*
X101801Y034566D02*
X103651D01*
X101417Y03495D02*
X101801Y034566D01*
X101417Y03495D02*
Y035689D01*
X101784Y036056*
X10215*
X08215Y017056D02*
X08315D01*
X10215Y016056D02*
X10315D01*
X110542Y023631D02*
Y023671D01*
X103651Y034566D02*
X109074Y029143D01*
Y025954D02*
Y029143D01*
Y025954D02*
X110531Y024498D01*
X083897Y032665D02*
Y040944D01*
X083288Y032056D02*
X083897Y032665D01*
X08315Y032056D02*
X083288D01*
X081919D02*
X08215D01*
X081318Y032657D02*
X081919Y032056D01*
X081318Y032657D02*
Y041066D01*
X102795Y035639D02*
X103411D01*
X102598Y035836D02*
X102795Y035639D01*
X103411D02*
X109507Y029543D01*
X110531Y023631D02*
Y024498D01*
X10215Y037056D02*
X102598Y036608D01*
Y035836D02*
Y036608D01*
X109507Y027234D02*
Y029543D01*
X110531Y029114D02*
Y029675D01*
X10315Y037056D02*
X110531Y029675D01*
X10315Y038056D02*
X109287Y031919D01*
X110531*
Y028759D02*
X111511D01*
X110531Y025856D02*
X111511D01*
X109507Y027234D02*
X110531Y02621D01*
X08415Y017014D02*
X086413D01*
X093346Y044366D02*
X093358Y044378D01*
X093257Y041847D02*
X093287Y041876D01*
X093297Y043317D02*
X093358Y043378D01*
X093297Y042526D02*
Y043317D01*
X093287Y042516D02*
X093297Y042526D01*
X09559Y026279D02*
X097227Y024643D01*
X102126Y02308D02*
X10215Y023056D01*
X097795Y023523D02*
X102683D01*
X097227Y024643D02*
X102563D01*
X10315Y024056*
X102683Y023523D02*
X10315Y023056D01*
X093358Y043378D02*
X093449Y043287D01*
X081122Y025029D02*
X082123D01*
X103166Y016072D02*
X104291D01*
X10315Y016056D02*
X103166Y016072D01*
X110531Y023277D02*
X111423D01*
X102092Y016114D02*
X10215Y016056D01*
X1011Y016114D02*
X102092D01*
X082121Y017027D02*
X08215Y017056D01*
X08315D02*
X083192Y017014D01*
X08415*
X110531Y031565D02*
X111482D01*
G54D15*
X093358Y046378D03*
Y045378D03*
Y044378D03*
X094358D03*
Y045378D03*
Y046378D03*
X111521Y025846D03*
Y031574D03*
Y023267D03*
Y028769D03*
G54D16*
X093358Y043378D03*
X094358D03*
G54D17*
X112521Y025846D03*
Y031574D03*
Y023267D03*
Y028769D03*
G54D18*
X10215Y039056D03*
X10315D03*
X10215Y038056D03*
X10315D03*
X10215Y037056D03*
X10315D03*
X10215Y036056D03*
X10315D03*
X10215Y035056D03*
X10315D03*
X10215Y034056D03*
X10315D03*
X10215Y033056D03*
X10315D03*
X10215Y032056D03*
X10315D03*
X10215Y031056D03*
X10315D03*
X10215Y030056D03*
X10315D03*
X10215Y029056D03*
X10315D03*
X10215Y028056D03*
X10315D03*
X10215Y027056D03*
Y026056D03*
X10315D03*
X10215Y025056D03*
X10315D03*
X10215Y024056D03*
X10315D03*
X10215Y023056D03*
X10315D03*
X10215Y022056D03*
X10315D03*
X10215Y021056D03*
X10315D03*
X10215Y020056D03*
X10315D03*
X10215Y019056D03*
X10315D03*
X10215Y018056D03*
X10315D03*
X10215Y017056D03*
X10315D03*
X10215Y016056D03*
X10315D03*
X10215Y015056D03*
X08215D03*
X08315Y016056D03*
X08215D03*
X08315Y017056D03*
X08215D03*
X08315Y018056D03*
X08215D03*
X08315Y019056D03*
X08215D03*
X08315Y020056D03*
X08215D03*
X08315Y021056D03*
X08215D03*
X08315Y022056D03*
X08215D03*
X08315Y023056D03*
X08215D03*
X08315Y024056D03*
X08215D03*
X08315Y025056D03*
X08215D03*
X08315Y026056D03*
X08215D03*
X08315Y027056D03*
X08215D03*
X08315Y028056D03*
X08215D03*
X08315Y029056D03*
X08215D03*
X08315Y030056D03*
X08215D03*
X08315Y031056D03*
X08215D03*
X08315Y032056D03*
X08215D03*
X08315Y033056D03*
X08215D03*
X08315Y034056D03*
X08215D03*
X08315Y035056D03*
X08215D03*
X08315Y036056D03*
X08215D03*
X08315Y037056D03*
X08215D03*
X08315Y038056D03*
X08215D03*
X08315Y039056D03*
X08215D03*
G54D19*
X10315Y027056D03*
G54D20*
X10315Y015056D03*
X08315D03*
M02*