G04*
G04 #@! TF.GenerationSoftware,Altium Limited,Altium NEXUS,1.1.6 (48)*
G04*
G04 Layer_Color=8388736*
%FSLAX25Y25*%
%MOIN*%
G70*
G01*
G75*
%ADD14R,0.05918X0.04147*%
%ADD15R,0.02965X0.02572*%
%ADD16R,0.02847X0.02847*%
%ADD17C,0.05525*%
%ADD18O,0.05524X0.05525*%
%ADD19R,0.05525X0.05525*%
%ADD20C,0.06706*%
%ADD21R,0.06706X0.06706*%
D14*
X1204789Y85360D02*
D03*
Y92053D02*
D03*
D15*
X1167421Y370079D02*
D03*
Y366535D02*
D03*
X1165256Y338583D02*
D03*
Y342126D02*
D03*
X1166437Y281102D02*
D03*
Y284646D02*
D03*
X1166240Y309154D02*
D03*
Y312697D02*
D03*
D16*
X841504Y170140D02*
D03*
Y166990D02*
D03*
X1125228Y375262D02*
D03*
Y378412D02*
D03*
X1011004Y161140D02*
D03*
Y157990D02*
D03*
X1043406Y156496D02*
D03*
Y159646D02*
D03*
X805315Y247146D02*
D03*
Y250295D02*
D03*
X811713Y167126D02*
D03*
Y170276D02*
D03*
D17*
X1021504Y390565D02*
D03*
X1031504D02*
D03*
X1021504Y380565D02*
D03*
X1031504D02*
D03*
X1021504Y370565D02*
D03*
X1031504D02*
D03*
X1021504Y360565D02*
D03*
X1031504D02*
D03*
X1021504Y350565D02*
D03*
X1031504D02*
D03*
X1021504Y340565D02*
D03*
X1031504D02*
D03*
X1021504Y330565D02*
D03*
X1031504D02*
D03*
X1021504Y320565D02*
D03*
X1031504D02*
D03*
X1021504Y310565D02*
D03*
X1031504D02*
D03*
X1021504Y300565D02*
D03*
X1031504D02*
D03*
X1021504Y290565D02*
D03*
X1031504D02*
D03*
X1021504Y280565D02*
D03*
X1031504D02*
D03*
X1021504Y270565D02*
D03*
Y260565D02*
D03*
X1031504D02*
D03*
X1021504Y250565D02*
D03*
X1031504D02*
D03*
X1021504Y240565D02*
D03*
X1031504D02*
D03*
X1021504Y230565D02*
D03*
X1031504D02*
D03*
X1021504Y220565D02*
D03*
X1031504D02*
D03*
X1021504Y210565D02*
D03*
X1031504D02*
D03*
X1021504Y200565D02*
D03*
X1031504D02*
D03*
X1021504Y190565D02*
D03*
X1031504D02*
D03*
X1021504Y180565D02*
D03*
X1031504D02*
D03*
X1021504Y170565D02*
D03*
X1031504D02*
D03*
X1021504Y160565D02*
D03*
X1031504D02*
D03*
X1021504Y150565D02*
D03*
X821504D02*
D03*
X831504Y160565D02*
D03*
X821504D02*
D03*
X831504Y170565D02*
D03*
X821504D02*
D03*
X831504Y180565D02*
D03*
X821504D02*
D03*
X831504Y190565D02*
D03*
X821504D02*
D03*
X831504Y200565D02*
D03*
X821504D02*
D03*
X831504Y210565D02*
D03*
X821504D02*
D03*
X831504Y220565D02*
D03*
X821504D02*
D03*
X831504Y230565D02*
D03*
X821504D02*
D03*
X831504Y240565D02*
D03*
X821504D02*
D03*
X831504Y250565D02*
D03*
X821504D02*
D03*
X831504Y260565D02*
D03*
X821504D02*
D03*
X831504Y270565D02*
D03*
X821504D02*
D03*
X831504Y280565D02*
D03*
X821504D02*
D03*
X831504Y290565D02*
D03*
X821504D02*
D03*
X831504Y300565D02*
D03*
X821504D02*
D03*
X831504Y310565D02*
D03*
X821504D02*
D03*
X831504Y320565D02*
D03*
X821504D02*
D03*
X831504Y330565D02*
D03*
X821504D02*
D03*
X831504Y340565D02*
D03*
X821504D02*
D03*
X831504Y350565D02*
D03*
X821504D02*
D03*
X831504Y360565D02*
D03*
X821504D02*
D03*
X831504Y370565D02*
D03*
X821504D02*
D03*
X831504Y380565D02*
D03*
X821504D02*
D03*
X831504Y390565D02*
D03*
X821504D02*
D03*
D18*
X1031504Y270565D02*
D03*
D19*
Y150565D02*
D03*
X831504D02*
D03*
D20*
X1086228Y379837D02*
D03*
X1096228D02*
D03*
X1106228D02*
D03*
Y369837D02*
D03*
X1096228D02*
D03*
X1086228D02*
D03*
X1177323Y338484D02*
D03*
Y366437D02*
D03*
Y281201D02*
D03*
Y309252D02*
D03*
D21*
X1116228Y379837D02*
D03*
Y369837D02*
D03*
X1187323Y338484D02*
D03*
Y366437D02*
D03*
Y281201D02*
D03*
Y309252D02*
D03*
M02*
