G04*
G04 #@! TF.GenerationSoftware,Altium Limited,Altium NEXUS,1.1.6 (48)*
G04*
G04 Layer_Physical_Order=2*
G04 Layer_Color=16711680*
%FSLAX25Y25*%
%MOIN*%
G70*
G01*
G75*
%ADD15C,0.05906*%
%ADD16R,0.05906X0.05906*%
%ADD17R,0.05906X0.05906*%
%ADD18C,0.04725*%
%ADD19O,0.04724X0.04725*%
%ADD20R,0.04725X0.04725*%
G36*
X1145571Y86909D02*
X762894Y86910D01*
X762894Y484004D01*
X1145571Y484004D01*
X1145571Y86909D01*
D02*
G37*
%LPC*%
G36*
X943583Y468750D02*
X942298Y468581D01*
X941101Y468085D01*
X940073Y467296D01*
X939284Y466268D01*
X938839Y465195D01*
X938838Y465194D01*
X938327D01*
X938326Y465195D01*
X937881Y466268D01*
X937093Y467296D01*
X936065Y468085D01*
X934867Y468581D01*
X933583Y468750D01*
X932298Y468581D01*
X931101Y468085D01*
X930073Y467296D01*
X929284Y466268D01*
X928788Y465071D01*
X928619Y463786D01*
X928788Y462502D01*
X929284Y461305D01*
X930073Y460276D01*
X931101Y459488D01*
X932174Y459043D01*
X932175Y459042D01*
Y458531D01*
X932174Y458530D01*
X931101Y458085D01*
X930073Y457296D01*
X929284Y456268D01*
X928788Y455071D01*
X928619Y453786D01*
X928788Y452502D01*
X929284Y451304D01*
X930073Y450276D01*
X931101Y449488D01*
X932174Y449043D01*
X932175Y449042D01*
Y448530D01*
X932174Y448530D01*
X931101Y448085D01*
X930073Y447296D01*
X929284Y446268D01*
X928788Y445071D01*
X928619Y443786D01*
X928788Y442502D01*
X929284Y441304D01*
X930073Y440276D01*
X931101Y439488D01*
X931777Y439208D01*
X931677Y438708D01*
X928661D01*
Y428865D01*
X938504D01*
Y438708D01*
X935488D01*
X935388Y439208D01*
X936065Y439488D01*
X937093Y440276D01*
X937881Y441304D01*
X938326Y442378D01*
X938327Y442378D01*
X938838D01*
X938839Y442378D01*
X939284Y441304D01*
X940073Y440276D01*
X941101Y439488D01*
X942298Y438992D01*
X943583Y438823D01*
X944867Y438992D01*
X946064Y439488D01*
X947093Y440276D01*
X947881Y441304D01*
X948377Y442502D01*
X948546Y443786D01*
X948377Y445071D01*
X947881Y446268D01*
X947093Y447296D01*
X946064Y448085D01*
X944991Y448530D01*
X944991Y448530D01*
Y449042D01*
X944991Y449043D01*
X946064Y449488D01*
X947093Y450276D01*
X947881Y451304D01*
X948377Y452502D01*
X948546Y453786D01*
X948377Y455071D01*
X947881Y456268D01*
X947093Y457296D01*
X946064Y458085D01*
X944991Y458530D01*
X944991Y458531D01*
Y459042D01*
X944991Y459043D01*
X946064Y459488D01*
X947093Y460276D01*
X947881Y461305D01*
X948377Y462502D01*
X948546Y463786D01*
X948377Y465071D01*
X947881Y466268D01*
X947093Y467296D01*
X946064Y468085D01*
X944867Y468581D01*
X943583Y468750D01*
D02*
G37*
G36*
X1031504Y384933D02*
X1030373Y384785D01*
X1029320Y384348D01*
X1028415Y383654D01*
X1027721Y382749D01*
X1027285Y381696D01*
X1027136Y380565D01*
X1027285Y379434D01*
X1027721Y378381D01*
X1028415Y377476D01*
X1029320Y376782D01*
X1030373Y376346D01*
X1031504Y376197D01*
X1032635Y376346D01*
X1033688Y376782D01*
X1034593Y377476D01*
X1035287Y378381D01*
X1035723Y379434D01*
X1035872Y380565D01*
X1035723Y381696D01*
X1035287Y382749D01*
X1034593Y383654D01*
X1033688Y384348D01*
X1032635Y384785D01*
X1031504Y384933D01*
D02*
G37*
G36*
X1021504D02*
X1020373Y384785D01*
X1019320Y384348D01*
X1018415Y383654D01*
X1017721Y382749D01*
X1017284Y381696D01*
X1017136Y380565D01*
X1017284Y379434D01*
X1017721Y378381D01*
X1018415Y377476D01*
X1019320Y376782D01*
X1020373Y376346D01*
X1021504Y376197D01*
X1022635Y376346D01*
X1023688Y376782D01*
X1024593Y377476D01*
X1025287Y378381D01*
X1025723Y379434D01*
X1025872Y380565D01*
X1025723Y381696D01*
X1025287Y382749D01*
X1024593Y383654D01*
X1023688Y384348D01*
X1022635Y384785D01*
X1021504Y384933D01*
D02*
G37*
G36*
X831504D02*
X830373Y384785D01*
X829320Y384348D01*
X828415Y383654D01*
X827721Y382749D01*
X827285Y381696D01*
X827136Y380565D01*
X827285Y379434D01*
X827721Y378381D01*
X828415Y377476D01*
X829320Y376782D01*
X830373Y376346D01*
X831504Y376197D01*
X832635Y376346D01*
X833688Y376782D01*
X834593Y377476D01*
X835287Y378381D01*
X835723Y379434D01*
X835872Y380565D01*
X835723Y381696D01*
X835287Y382749D01*
X834593Y383654D01*
X833688Y384348D01*
X832635Y384785D01*
X831504Y384933D01*
D02*
G37*
G36*
X821504D02*
X820373Y384785D01*
X819320Y384348D01*
X818415Y383654D01*
X817721Y382749D01*
X817284Y381696D01*
X817136Y380565D01*
X817284Y379434D01*
X817721Y378381D01*
X818415Y377476D01*
X819320Y376782D01*
X820373Y376346D01*
X821504Y376197D01*
X822635Y376346D01*
X823688Y376782D01*
X824593Y377476D01*
X825287Y378381D01*
X825723Y379434D01*
X825872Y380565D01*
X825723Y381696D01*
X825287Y382749D01*
X824593Y383654D01*
X823688Y384348D01*
X822635Y384785D01*
X821504Y384933D01*
D02*
G37*
G36*
X1031504Y374934D02*
X1030373Y374785D01*
X1029320Y374348D01*
X1028415Y373654D01*
X1027721Y372749D01*
X1027285Y371696D01*
X1027136Y370565D01*
X1027285Y369434D01*
X1027721Y368381D01*
X1028415Y367476D01*
X1029320Y366782D01*
X1030373Y366346D01*
X1031504Y366197D01*
X1032635Y366346D01*
X1033688Y366782D01*
X1034593Y367476D01*
X1035287Y368381D01*
X1035723Y369434D01*
X1035872Y370565D01*
X1035723Y371696D01*
X1035287Y372749D01*
X1034593Y373654D01*
X1033688Y374348D01*
X1032635Y374785D01*
X1031504Y374934D01*
D02*
G37*
G36*
X1021504D02*
X1020373Y374785D01*
X1019320Y374348D01*
X1018415Y373654D01*
X1017721Y372749D01*
X1017284Y371696D01*
X1017136Y370565D01*
X1017284Y369434D01*
X1017721Y368381D01*
X1018415Y367476D01*
X1019320Y366782D01*
X1020373Y366346D01*
X1021504Y366197D01*
X1022635Y366346D01*
X1023688Y366782D01*
X1024593Y367476D01*
X1025287Y368381D01*
X1025723Y369434D01*
X1025872Y370565D01*
X1025723Y371696D01*
X1025287Y372749D01*
X1024593Y373654D01*
X1023688Y374348D01*
X1022635Y374785D01*
X1021504Y374934D01*
D02*
G37*
G36*
X831504D02*
X830373Y374785D01*
X829320Y374348D01*
X828415Y373654D01*
X827721Y372749D01*
X827285Y371696D01*
X827136Y370565D01*
X827285Y369434D01*
X827721Y368381D01*
X828415Y367476D01*
X829320Y366782D01*
X830373Y366346D01*
X831504Y366197D01*
X832635Y366346D01*
X833688Y366782D01*
X834593Y367476D01*
X835287Y368381D01*
X835723Y369434D01*
X835872Y370565D01*
X835723Y371696D01*
X835287Y372749D01*
X834593Y373654D01*
X833688Y374348D01*
X832635Y374785D01*
X831504Y374934D01*
D02*
G37*
G36*
X821504D02*
X820373Y374785D01*
X819320Y374348D01*
X818415Y373654D01*
X817721Y372749D01*
X817284Y371696D01*
X817136Y370565D01*
X817284Y369434D01*
X817721Y368381D01*
X818415Y367476D01*
X819320Y366782D01*
X820373Y366346D01*
X821504Y366197D01*
X822635Y366346D01*
X823688Y366782D01*
X824593Y367476D01*
X825287Y368381D01*
X825723Y369434D01*
X825872Y370565D01*
X825723Y371696D01*
X825287Y372749D01*
X824593Y373654D01*
X823688Y374348D01*
X822635Y374785D01*
X821504Y374934D01*
D02*
G37*
G36*
X1031504Y364933D02*
X1030373Y364785D01*
X1029320Y364348D01*
X1028415Y363654D01*
X1027721Y362749D01*
X1027285Y361696D01*
X1027136Y360565D01*
X1027285Y359435D01*
X1027721Y358381D01*
X1028415Y357476D01*
X1029320Y356782D01*
X1030373Y356346D01*
X1031504Y356197D01*
X1032635Y356346D01*
X1033688Y356782D01*
X1034593Y357476D01*
X1035287Y358381D01*
X1035723Y359435D01*
X1035872Y360565D01*
X1035723Y361696D01*
X1035287Y362749D01*
X1034593Y363654D01*
X1033688Y364348D01*
X1032635Y364785D01*
X1031504Y364933D01*
D02*
G37*
G36*
X1021504D02*
X1020373Y364785D01*
X1019320Y364348D01*
X1018415Y363654D01*
X1017721Y362749D01*
X1017284Y361696D01*
X1017136Y360565D01*
X1017284Y359435D01*
X1017721Y358381D01*
X1018415Y357476D01*
X1019320Y356782D01*
X1020373Y356346D01*
X1021504Y356197D01*
X1022635Y356346D01*
X1023688Y356782D01*
X1024593Y357476D01*
X1025287Y358381D01*
X1025723Y359435D01*
X1025872Y360565D01*
X1025723Y361696D01*
X1025287Y362749D01*
X1024593Y363654D01*
X1023688Y364348D01*
X1022635Y364785D01*
X1021504Y364933D01*
D02*
G37*
G36*
X831504D02*
X830373Y364785D01*
X829320Y364348D01*
X828415Y363654D01*
X827721Y362749D01*
X827285Y361696D01*
X827136Y360565D01*
X827285Y359435D01*
X827721Y358381D01*
X828415Y357476D01*
X829320Y356782D01*
X830373Y356346D01*
X831504Y356197D01*
X832635Y356346D01*
X833688Y356782D01*
X834593Y357476D01*
X835287Y358381D01*
X835723Y359435D01*
X835872Y360565D01*
X835723Y361696D01*
X835287Y362749D01*
X834593Y363654D01*
X833688Y364348D01*
X832635Y364785D01*
X831504Y364933D01*
D02*
G37*
G36*
X821504D02*
X820373Y364785D01*
X819320Y364348D01*
X818415Y363654D01*
X817721Y362749D01*
X817284Y361696D01*
X817136Y360565D01*
X817284Y359435D01*
X817721Y358381D01*
X818415Y357476D01*
X819320Y356782D01*
X820373Y356346D01*
X821504Y356197D01*
X822635Y356346D01*
X823688Y356782D01*
X824593Y357476D01*
X825287Y358381D01*
X825723Y359435D01*
X825872Y360565D01*
X825723Y361696D01*
X825287Y362749D01*
X824593Y363654D01*
X823688Y364348D01*
X822635Y364785D01*
X821504Y364933D01*
D02*
G37*
G36*
X1031504Y354934D02*
X1030373Y354785D01*
X1029320Y354348D01*
X1028415Y353654D01*
X1027721Y352749D01*
X1027285Y351696D01*
X1027136Y350565D01*
X1027285Y349434D01*
X1027721Y348381D01*
X1028415Y347476D01*
X1029320Y346782D01*
X1030373Y346346D01*
X1031504Y346197D01*
X1032635Y346346D01*
X1033688Y346782D01*
X1034593Y347476D01*
X1035287Y348381D01*
X1035723Y349434D01*
X1035872Y350565D01*
X1035723Y351696D01*
X1035287Y352749D01*
X1034593Y353654D01*
X1033688Y354348D01*
X1032635Y354785D01*
X1031504Y354934D01*
D02*
G37*
G36*
X1021504D02*
X1020373Y354785D01*
X1019320Y354348D01*
X1018415Y353654D01*
X1017721Y352749D01*
X1017284Y351696D01*
X1017136Y350565D01*
X1017284Y349434D01*
X1017721Y348381D01*
X1018415Y347476D01*
X1019320Y346782D01*
X1020373Y346346D01*
X1021504Y346197D01*
X1022635Y346346D01*
X1023688Y346782D01*
X1024593Y347476D01*
X1025287Y348381D01*
X1025723Y349434D01*
X1025872Y350565D01*
X1025723Y351696D01*
X1025287Y352749D01*
X1024593Y353654D01*
X1023688Y354348D01*
X1022635Y354785D01*
X1021504Y354934D01*
D02*
G37*
G36*
X831504D02*
X830373Y354785D01*
X829320Y354348D01*
X828415Y353654D01*
X827721Y352749D01*
X827285Y351696D01*
X827136Y350565D01*
X827285Y349434D01*
X827721Y348381D01*
X828415Y347476D01*
X829320Y346782D01*
X830373Y346346D01*
X831504Y346197D01*
X832635Y346346D01*
X833688Y346782D01*
X834593Y347476D01*
X835287Y348381D01*
X835723Y349434D01*
X835872Y350565D01*
X835723Y351696D01*
X835287Y352749D01*
X834593Y353654D01*
X833688Y354348D01*
X832635Y354785D01*
X831504Y354934D01*
D02*
G37*
G36*
X821504D02*
X820373Y354785D01*
X819320Y354348D01*
X818415Y353654D01*
X817721Y352749D01*
X817284Y351696D01*
X817136Y350565D01*
X817284Y349434D01*
X817721Y348381D01*
X818415Y347476D01*
X819320Y346782D01*
X820373Y346346D01*
X821504Y346197D01*
X822635Y346346D01*
X823688Y346782D01*
X824593Y347476D01*
X825287Y348381D01*
X825723Y349434D01*
X825872Y350565D01*
X825723Y351696D01*
X825287Y352749D01*
X824593Y353654D01*
X823688Y354348D01*
X822635Y354785D01*
X821504Y354934D01*
D02*
G37*
G36*
X1031504Y344934D02*
X1030373Y344785D01*
X1029320Y344348D01*
X1028415Y343654D01*
X1027721Y342749D01*
X1027285Y341696D01*
X1027136Y340565D01*
X1027285Y339435D01*
X1027721Y338381D01*
X1028415Y337476D01*
X1029320Y336782D01*
X1030373Y336346D01*
X1031504Y336197D01*
X1032635Y336346D01*
X1033688Y336782D01*
X1034593Y337476D01*
X1035287Y338381D01*
X1035723Y339435D01*
X1035872Y340565D01*
X1035723Y341696D01*
X1035287Y342749D01*
X1034593Y343654D01*
X1033688Y344348D01*
X1032635Y344785D01*
X1031504Y344934D01*
D02*
G37*
G36*
X1021504D02*
X1020373Y344785D01*
X1019320Y344348D01*
X1018415Y343654D01*
X1017721Y342749D01*
X1017284Y341696D01*
X1017136Y340565D01*
X1017284Y339435D01*
X1017721Y338381D01*
X1018415Y337476D01*
X1019320Y336782D01*
X1020373Y336346D01*
X1021504Y336197D01*
X1022635Y336346D01*
X1023688Y336782D01*
X1024593Y337476D01*
X1025287Y338381D01*
X1025723Y339435D01*
X1025872Y340565D01*
X1025723Y341696D01*
X1025287Y342749D01*
X1024593Y343654D01*
X1023688Y344348D01*
X1022635Y344785D01*
X1021504Y344934D01*
D02*
G37*
G36*
X831504D02*
X830373Y344785D01*
X829320Y344348D01*
X828415Y343654D01*
X827721Y342749D01*
X827285Y341696D01*
X827136Y340565D01*
X827285Y339435D01*
X827721Y338381D01*
X828415Y337476D01*
X829320Y336782D01*
X830373Y336346D01*
X831504Y336197D01*
X832635Y336346D01*
X833688Y336782D01*
X834593Y337476D01*
X835287Y338381D01*
X835723Y339435D01*
X835872Y340565D01*
X835723Y341696D01*
X835287Y342749D01*
X834593Y343654D01*
X833688Y344348D01*
X832635Y344785D01*
X831504Y344934D01*
D02*
G37*
G36*
X821504D02*
X820373Y344785D01*
X819320Y344348D01*
X818415Y343654D01*
X817721Y342749D01*
X817284Y341696D01*
X817136Y340565D01*
X817284Y339435D01*
X817721Y338381D01*
X818415Y337476D01*
X819320Y336782D01*
X820373Y336346D01*
X821504Y336197D01*
X822635Y336346D01*
X823688Y336782D01*
X824593Y337476D01*
X825287Y338381D01*
X825723Y339435D01*
X825872Y340565D01*
X825723Y341696D01*
X825287Y342749D01*
X824593Y343654D01*
X823688Y344348D01*
X822635Y344785D01*
X821504Y344934D01*
D02*
G37*
G36*
X1031504Y334933D02*
X1030373Y334785D01*
X1029320Y334348D01*
X1028415Y333654D01*
X1027721Y332749D01*
X1027285Y331696D01*
X1027136Y330565D01*
X1027285Y329434D01*
X1027721Y328381D01*
X1028415Y327476D01*
X1029320Y326782D01*
X1030373Y326346D01*
X1031504Y326197D01*
X1032635Y326346D01*
X1033688Y326782D01*
X1034593Y327476D01*
X1035287Y328381D01*
X1035723Y329434D01*
X1035872Y330565D01*
X1035723Y331696D01*
X1035287Y332749D01*
X1034593Y333654D01*
X1033688Y334348D01*
X1032635Y334785D01*
X1031504Y334933D01*
D02*
G37*
G36*
X1021504D02*
X1020373Y334785D01*
X1019320Y334348D01*
X1018415Y333654D01*
X1017721Y332749D01*
X1017284Y331696D01*
X1017136Y330565D01*
X1017284Y329434D01*
X1017721Y328381D01*
X1018415Y327476D01*
X1019320Y326782D01*
X1020373Y326346D01*
X1021504Y326197D01*
X1022635Y326346D01*
X1023688Y326782D01*
X1024593Y327476D01*
X1025287Y328381D01*
X1025723Y329434D01*
X1025872Y330565D01*
X1025723Y331696D01*
X1025287Y332749D01*
X1024593Y333654D01*
X1023688Y334348D01*
X1022635Y334785D01*
X1021504Y334933D01*
D02*
G37*
G36*
X831504D02*
X830373Y334785D01*
X829320Y334348D01*
X828415Y333654D01*
X827721Y332749D01*
X827285Y331696D01*
X827136Y330565D01*
X827285Y329434D01*
X827721Y328381D01*
X828415Y327476D01*
X829320Y326782D01*
X830373Y326346D01*
X831504Y326197D01*
X832635Y326346D01*
X833688Y326782D01*
X834593Y327476D01*
X835287Y328381D01*
X835723Y329434D01*
X835872Y330565D01*
X835723Y331696D01*
X835287Y332749D01*
X834593Y333654D01*
X833688Y334348D01*
X832635Y334785D01*
X831504Y334933D01*
D02*
G37*
G36*
X821504D02*
X820373Y334785D01*
X819320Y334348D01*
X818415Y333654D01*
X817721Y332749D01*
X817284Y331696D01*
X817136Y330565D01*
X817284Y329434D01*
X817721Y328381D01*
X818415Y327476D01*
X819320Y326782D01*
X820373Y326346D01*
X821504Y326197D01*
X822635Y326346D01*
X823688Y326782D01*
X824593Y327476D01*
X825287Y328381D01*
X825723Y329434D01*
X825872Y330565D01*
X825723Y331696D01*
X825287Y332749D01*
X824593Y333654D01*
X823688Y334348D01*
X822635Y334785D01*
X821504Y334933D01*
D02*
G37*
G36*
X1031504Y324934D02*
X1030373Y324785D01*
X1029320Y324348D01*
X1028415Y323654D01*
X1027721Y322749D01*
X1027285Y321696D01*
X1027136Y320565D01*
X1027285Y319434D01*
X1027721Y318381D01*
X1028415Y317476D01*
X1029320Y316782D01*
X1030373Y316346D01*
X1031504Y316197D01*
X1032635Y316346D01*
X1033688Y316782D01*
X1034593Y317476D01*
X1035287Y318381D01*
X1035723Y319434D01*
X1035872Y320565D01*
X1035723Y321696D01*
X1035287Y322749D01*
X1034593Y323654D01*
X1033688Y324348D01*
X1032635Y324785D01*
X1031504Y324934D01*
D02*
G37*
G36*
X1021504D02*
X1020373Y324785D01*
X1019320Y324348D01*
X1018415Y323654D01*
X1017721Y322749D01*
X1017284Y321696D01*
X1017136Y320565D01*
X1017284Y319434D01*
X1017721Y318381D01*
X1018415Y317476D01*
X1019320Y316782D01*
X1020373Y316346D01*
X1021504Y316197D01*
X1022635Y316346D01*
X1023688Y316782D01*
X1024593Y317476D01*
X1025287Y318381D01*
X1025723Y319434D01*
X1025872Y320565D01*
X1025723Y321696D01*
X1025287Y322749D01*
X1024593Y323654D01*
X1023688Y324348D01*
X1022635Y324785D01*
X1021504Y324934D01*
D02*
G37*
G36*
X831504D02*
X830373Y324785D01*
X829320Y324348D01*
X828415Y323654D01*
X827721Y322749D01*
X827285Y321696D01*
X827136Y320565D01*
X827285Y319434D01*
X827721Y318381D01*
X828415Y317476D01*
X829320Y316782D01*
X830373Y316346D01*
X831504Y316197D01*
X832635Y316346D01*
X833688Y316782D01*
X834593Y317476D01*
X835287Y318381D01*
X835723Y319434D01*
X835872Y320565D01*
X835723Y321696D01*
X835287Y322749D01*
X834593Y323654D01*
X833688Y324348D01*
X832635Y324785D01*
X831504Y324934D01*
D02*
G37*
G36*
X821504D02*
X820373Y324785D01*
X819320Y324348D01*
X818415Y323654D01*
X817721Y322749D01*
X817284Y321696D01*
X817136Y320565D01*
X817284Y319434D01*
X817721Y318381D01*
X818415Y317476D01*
X819320Y316782D01*
X820373Y316346D01*
X821504Y316197D01*
X822635Y316346D01*
X823688Y316782D01*
X824593Y317476D01*
X825287Y318381D01*
X825723Y319434D01*
X825872Y320565D01*
X825723Y321696D01*
X825287Y322749D01*
X824593Y323654D01*
X823688Y324348D01*
X822635Y324785D01*
X821504Y324934D01*
D02*
G37*
G36*
X1115217Y320712D02*
X1113932Y320543D01*
X1112735Y320047D01*
X1111707Y319258D01*
X1110918Y318230D01*
X1110422Y317033D01*
X1110253Y315748D01*
X1110422Y314463D01*
X1110918Y313266D01*
X1111707Y312238D01*
X1112735Y311449D01*
X1113932Y310953D01*
X1115217Y310784D01*
X1116501Y310953D01*
X1117698Y311449D01*
X1118726Y312238D01*
X1119515Y313266D01*
X1120011Y314463D01*
X1120180Y315748D01*
X1120011Y317033D01*
X1119515Y318230D01*
X1118726Y319258D01*
X1117698Y320047D01*
X1116501Y320543D01*
X1115217Y320712D01*
D02*
G37*
G36*
X1031504Y314933D02*
X1030373Y314785D01*
X1029320Y314348D01*
X1028415Y313654D01*
X1027721Y312749D01*
X1027285Y311696D01*
X1027136Y310565D01*
X1027285Y309435D01*
X1027721Y308381D01*
X1028415Y307476D01*
X1029320Y306782D01*
X1030373Y306346D01*
X1031504Y306197D01*
X1032635Y306346D01*
X1033688Y306782D01*
X1034593Y307476D01*
X1035287Y308381D01*
X1035723Y309435D01*
X1035872Y310565D01*
X1035723Y311696D01*
X1035287Y312749D01*
X1034593Y313654D01*
X1033688Y314348D01*
X1032635Y314785D01*
X1031504Y314933D01*
D02*
G37*
G36*
X1021504D02*
X1020373Y314785D01*
X1019320Y314348D01*
X1018415Y313654D01*
X1017721Y312749D01*
X1017284Y311696D01*
X1017136Y310565D01*
X1017284Y309435D01*
X1017721Y308381D01*
X1018415Y307476D01*
X1019320Y306782D01*
X1020373Y306346D01*
X1021504Y306197D01*
X1022635Y306346D01*
X1023688Y306782D01*
X1024593Y307476D01*
X1025287Y308381D01*
X1025723Y309435D01*
X1025872Y310565D01*
X1025723Y311696D01*
X1025287Y312749D01*
X1024593Y313654D01*
X1023688Y314348D01*
X1022635Y314785D01*
X1021504Y314933D01*
D02*
G37*
G36*
X831504D02*
X830373Y314785D01*
X829320Y314348D01*
X828415Y313654D01*
X827721Y312749D01*
X827285Y311696D01*
X827136Y310565D01*
X827285Y309435D01*
X827721Y308381D01*
X828415Y307476D01*
X829320Y306782D01*
X830373Y306346D01*
X831504Y306197D01*
X832635Y306346D01*
X833688Y306782D01*
X834593Y307476D01*
X835287Y308381D01*
X835723Y309435D01*
X835872Y310565D01*
X835723Y311696D01*
X835287Y312749D01*
X834593Y313654D01*
X833688Y314348D01*
X832635Y314785D01*
X831504Y314933D01*
D02*
G37*
G36*
X821504D02*
X820373Y314785D01*
X819320Y314348D01*
X818415Y313654D01*
X817721Y312749D01*
X817284Y311696D01*
X817136Y310565D01*
X817284Y309435D01*
X817721Y308381D01*
X818415Y307476D01*
X819320Y306782D01*
X820373Y306346D01*
X821504Y306197D01*
X822635Y306346D01*
X823688Y306782D01*
X824593Y307476D01*
X825287Y308381D01*
X825723Y309435D01*
X825872Y310565D01*
X825723Y311696D01*
X825287Y312749D01*
X824593Y313654D01*
X823688Y314348D01*
X822635Y314785D01*
X821504Y314933D01*
D02*
G37*
G36*
X1031504Y304934D02*
X1030373Y304785D01*
X1029320Y304348D01*
X1028415Y303654D01*
X1027721Y302749D01*
X1027285Y301696D01*
X1027136Y300565D01*
X1027285Y299434D01*
X1027721Y298381D01*
X1028415Y297476D01*
X1029320Y296782D01*
X1030373Y296346D01*
X1031504Y296197D01*
X1032635Y296346D01*
X1033688Y296782D01*
X1034593Y297476D01*
X1035287Y298381D01*
X1035723Y299434D01*
X1035872Y300565D01*
X1035723Y301696D01*
X1035287Y302749D01*
X1034593Y303654D01*
X1033688Y304348D01*
X1032635Y304785D01*
X1031504Y304934D01*
D02*
G37*
G36*
X1021504D02*
X1020373Y304785D01*
X1019320Y304348D01*
X1018415Y303654D01*
X1017721Y302749D01*
X1017284Y301696D01*
X1017136Y300565D01*
X1017284Y299434D01*
X1017721Y298381D01*
X1018415Y297476D01*
X1019320Y296782D01*
X1020373Y296346D01*
X1021504Y296197D01*
X1022635Y296346D01*
X1023688Y296782D01*
X1024593Y297476D01*
X1025287Y298381D01*
X1025723Y299434D01*
X1025872Y300565D01*
X1025723Y301696D01*
X1025287Y302749D01*
X1024593Y303654D01*
X1023688Y304348D01*
X1022635Y304785D01*
X1021504Y304934D01*
D02*
G37*
G36*
X831504D02*
X830373Y304785D01*
X829320Y304348D01*
X828415Y303654D01*
X827721Y302749D01*
X827285Y301696D01*
X827136Y300565D01*
X827285Y299434D01*
X827721Y298381D01*
X828415Y297476D01*
X829320Y296782D01*
X830373Y296346D01*
X831504Y296197D01*
X832635Y296346D01*
X833688Y296782D01*
X834593Y297476D01*
X835287Y298381D01*
X835723Y299434D01*
X835872Y300565D01*
X835723Y301696D01*
X835287Y302749D01*
X834593Y303654D01*
X833688Y304348D01*
X832635Y304785D01*
X831504Y304934D01*
D02*
G37*
G36*
X821504D02*
X820373Y304785D01*
X819320Y304348D01*
X818415Y303654D01*
X817721Y302749D01*
X817284Y301696D01*
X817136Y300565D01*
X817284Y299434D01*
X817721Y298381D01*
X818415Y297476D01*
X819320Y296782D01*
X820373Y296346D01*
X821504Y296197D01*
X822635Y296346D01*
X823688Y296782D01*
X824593Y297476D01*
X825287Y298381D01*
X825723Y299434D01*
X825872Y300565D01*
X825723Y301696D01*
X825287Y302749D01*
X824593Y303654D01*
X823688Y304348D01*
X822635Y304785D01*
X821504Y304934D01*
D02*
G37*
G36*
X1031504Y294934D02*
X1030373Y294785D01*
X1029320Y294348D01*
X1028415Y293654D01*
X1027721Y292749D01*
X1027285Y291696D01*
X1027136Y290565D01*
X1027285Y289435D01*
X1027721Y288381D01*
X1028415Y287476D01*
X1029320Y286782D01*
X1030373Y286346D01*
X1031504Y286197D01*
X1032635Y286346D01*
X1033688Y286782D01*
X1034593Y287476D01*
X1035287Y288381D01*
X1035723Y289435D01*
X1035872Y290565D01*
X1035723Y291696D01*
X1035287Y292749D01*
X1034593Y293654D01*
X1033688Y294348D01*
X1032635Y294785D01*
X1031504Y294934D01*
D02*
G37*
G36*
X1021504D02*
X1020373Y294785D01*
X1019320Y294348D01*
X1018415Y293654D01*
X1017721Y292749D01*
X1017284Y291696D01*
X1017136Y290565D01*
X1017284Y289435D01*
X1017721Y288381D01*
X1018415Y287476D01*
X1019320Y286782D01*
X1020373Y286346D01*
X1021504Y286197D01*
X1022635Y286346D01*
X1023688Y286782D01*
X1024593Y287476D01*
X1025287Y288381D01*
X1025723Y289435D01*
X1025872Y290565D01*
X1025723Y291696D01*
X1025287Y292749D01*
X1024593Y293654D01*
X1023688Y294348D01*
X1022635Y294785D01*
X1021504Y294934D01*
D02*
G37*
G36*
X831504D02*
X830373Y294785D01*
X829320Y294348D01*
X828415Y293654D01*
X827721Y292749D01*
X827285Y291696D01*
X827136Y290565D01*
X827285Y289435D01*
X827721Y288381D01*
X828415Y287476D01*
X829320Y286782D01*
X830373Y286346D01*
X831504Y286197D01*
X832635Y286346D01*
X833688Y286782D01*
X834593Y287476D01*
X835287Y288381D01*
X835723Y289435D01*
X835872Y290565D01*
X835723Y291696D01*
X835287Y292749D01*
X834593Y293654D01*
X833688Y294348D01*
X832635Y294785D01*
X831504Y294934D01*
D02*
G37*
G36*
X821504D02*
X820373Y294785D01*
X819320Y294348D01*
X818415Y293654D01*
X817721Y292749D01*
X817284Y291696D01*
X817136Y290565D01*
X817284Y289435D01*
X817721Y288381D01*
X818415Y287476D01*
X819320Y286782D01*
X820373Y286346D01*
X821504Y286197D01*
X822635Y286346D01*
X823688Y286782D01*
X824593Y287476D01*
X825287Y288381D01*
X825723Y289435D01*
X825872Y290565D01*
X825723Y291696D01*
X825287Y292749D01*
X824593Y293654D01*
X823688Y294348D01*
X822635Y294785D01*
X821504Y294934D01*
D02*
G37*
G36*
X1115217Y292661D02*
X1113932Y292491D01*
X1112735Y291996D01*
X1111707Y291207D01*
X1110918Y290179D01*
X1110422Y288982D01*
X1110253Y287697D01*
X1110422Y286412D01*
X1110918Y285215D01*
X1111707Y284187D01*
X1112735Y283398D01*
X1113932Y282902D01*
X1115217Y282733D01*
X1116501Y282902D01*
X1117698Y283398D01*
X1118726Y284187D01*
X1119515Y285215D01*
X1120011Y286412D01*
X1120180Y287697D01*
X1120011Y288982D01*
X1119515Y290179D01*
X1118726Y291207D01*
X1117698Y291996D01*
X1116501Y292491D01*
X1115217Y292661D01*
D02*
G37*
G36*
X1031504Y284933D02*
X1030373Y284785D01*
X1029320Y284348D01*
X1028415Y283654D01*
X1027721Y282749D01*
X1027285Y281696D01*
X1027136Y280565D01*
X1027285Y279434D01*
X1027721Y278381D01*
X1028415Y277476D01*
X1029320Y276782D01*
X1030373Y276346D01*
X1031504Y276197D01*
X1032635Y276346D01*
X1033688Y276782D01*
X1034593Y277476D01*
X1035287Y278381D01*
X1035723Y279434D01*
X1035872Y280565D01*
X1035723Y281696D01*
X1035287Y282749D01*
X1034593Y283654D01*
X1033688Y284348D01*
X1032635Y284785D01*
X1031504Y284933D01*
D02*
G37*
G36*
X1021504D02*
X1020373Y284785D01*
X1019320Y284348D01*
X1018415Y283654D01*
X1017721Y282749D01*
X1017284Y281696D01*
X1017136Y280565D01*
X1017284Y279434D01*
X1017721Y278381D01*
X1018415Y277476D01*
X1019320Y276782D01*
X1020373Y276346D01*
X1021504Y276197D01*
X1022635Y276346D01*
X1023688Y276782D01*
X1024593Y277476D01*
X1025287Y278381D01*
X1025723Y279434D01*
X1025872Y280565D01*
X1025723Y281696D01*
X1025287Y282749D01*
X1024593Y283654D01*
X1023688Y284348D01*
X1022635Y284785D01*
X1021504Y284933D01*
D02*
G37*
G36*
X831504D02*
X830373Y284785D01*
X829320Y284348D01*
X828415Y283654D01*
X827721Y282749D01*
X827285Y281696D01*
X827136Y280565D01*
X827285Y279434D01*
X827721Y278381D01*
X828415Y277476D01*
X829320Y276782D01*
X830373Y276346D01*
X831504Y276197D01*
X832635Y276346D01*
X833688Y276782D01*
X834593Y277476D01*
X835287Y278381D01*
X835723Y279434D01*
X835872Y280565D01*
X835723Y281696D01*
X835287Y282749D01*
X834593Y283654D01*
X833688Y284348D01*
X832635Y284785D01*
X831504Y284933D01*
D02*
G37*
G36*
X821504D02*
X820373Y284785D01*
X819320Y284348D01*
X818415Y283654D01*
X817721Y282749D01*
X817284Y281696D01*
X817136Y280565D01*
X817284Y279434D01*
X817721Y278381D01*
X818415Y277476D01*
X819320Y276782D01*
X820373Y276346D01*
X821504Y276197D01*
X822635Y276346D01*
X823688Y276782D01*
X824593Y277476D01*
X825287Y278381D01*
X825723Y279434D01*
X825872Y280565D01*
X825723Y281696D01*
X825287Y282749D01*
X824593Y283654D01*
X823688Y284348D01*
X822635Y284785D01*
X821504Y284933D01*
D02*
G37*
G36*
X1031504Y274934D02*
X1030373Y274785D01*
X1029320Y274348D01*
X1028415Y273654D01*
X1027721Y272749D01*
X1027285Y271696D01*
X1027136Y270565D01*
Y270565D01*
X1027285Y269434D01*
X1027721Y268381D01*
X1028415Y267476D01*
X1029320Y266782D01*
X1030373Y266346D01*
X1031504Y266197D01*
X1032635Y266346D01*
X1033688Y266782D01*
X1034593Y267476D01*
X1035287Y268381D01*
X1035723Y269434D01*
X1035872Y270565D01*
Y270565D01*
X1035723Y271696D01*
X1035287Y272749D01*
X1034593Y273654D01*
X1033688Y274348D01*
X1032635Y274785D01*
X1031504Y274934D01*
D02*
G37*
G36*
X1021504D02*
X1020373Y274785D01*
X1019320Y274348D01*
X1018415Y273654D01*
X1017721Y272749D01*
X1017284Y271696D01*
X1017136Y270565D01*
X1017284Y269434D01*
X1017721Y268381D01*
X1018415Y267476D01*
X1019320Y266782D01*
X1020373Y266346D01*
X1021504Y266197D01*
X1022635Y266346D01*
X1023688Y266782D01*
X1024593Y267476D01*
X1025287Y268381D01*
X1025723Y269434D01*
X1025872Y270565D01*
X1025723Y271696D01*
X1025287Y272749D01*
X1024593Y273654D01*
X1023688Y274348D01*
X1022635Y274785D01*
X1021504Y274934D01*
D02*
G37*
G36*
X831504D02*
X830373Y274785D01*
X829320Y274348D01*
X828415Y273654D01*
X827721Y272749D01*
X827285Y271696D01*
X827136Y270565D01*
X827285Y269434D01*
X827721Y268381D01*
X828415Y267476D01*
X829320Y266782D01*
X830373Y266346D01*
X831504Y266197D01*
X832635Y266346D01*
X833688Y266782D01*
X834593Y267476D01*
X835287Y268381D01*
X835723Y269434D01*
X835872Y270565D01*
X835723Y271696D01*
X835287Y272749D01*
X834593Y273654D01*
X833688Y274348D01*
X832635Y274785D01*
X831504Y274934D01*
D02*
G37*
G36*
X821504D02*
X820373Y274785D01*
X819320Y274348D01*
X818415Y273654D01*
X817721Y272749D01*
X817284Y271696D01*
X817136Y270565D01*
X817284Y269434D01*
X817721Y268381D01*
X818415Y267476D01*
X819320Y266782D01*
X820373Y266346D01*
X821504Y266197D01*
X822635Y266346D01*
X823688Y266782D01*
X824593Y267476D01*
X825287Y268381D01*
X825723Y269434D01*
X825872Y270565D01*
X825723Y271696D01*
X825287Y272749D01*
X824593Y273654D01*
X823688Y274348D01*
X822635Y274785D01*
X821504Y274934D01*
D02*
G37*
G36*
X1021504Y264933D02*
X1020373Y264785D01*
X1019320Y264348D01*
X1018415Y263654D01*
X1017721Y262749D01*
X1017284Y261696D01*
X1017136Y260565D01*
X1017284Y259435D01*
X1017721Y258381D01*
X1018415Y257476D01*
X1019320Y256782D01*
X1020373Y256346D01*
X1021504Y256197D01*
X1022635Y256346D01*
X1023688Y256782D01*
X1024593Y257476D01*
X1025287Y258381D01*
X1025723Y259435D01*
X1025872Y260565D01*
X1025723Y261696D01*
X1025287Y262749D01*
X1024593Y263654D01*
X1023688Y264348D01*
X1022635Y264785D01*
X1021504Y264933D01*
D02*
G37*
G36*
X831504D02*
X830373Y264785D01*
X829320Y264348D01*
X828415Y263654D01*
X827721Y262749D01*
X827285Y261696D01*
X827136Y260565D01*
X827285Y259435D01*
X827721Y258381D01*
X828415Y257476D01*
X829320Y256782D01*
X830373Y256346D01*
X831504Y256197D01*
X832635Y256346D01*
X833688Y256782D01*
X834593Y257476D01*
X835287Y258381D01*
X835723Y259435D01*
X835872Y260565D01*
X835723Y261696D01*
X835287Y262749D01*
X834593Y263654D01*
X833688Y264348D01*
X832635Y264785D01*
X831504Y264933D01*
D02*
G37*
G36*
X821504D02*
X820373Y264785D01*
X819320Y264348D01*
X818415Y263654D01*
X817721Y262749D01*
X817284Y261696D01*
X817136Y260565D01*
X817284Y259435D01*
X817721Y258381D01*
X818415Y257476D01*
X819320Y256782D01*
X820373Y256346D01*
X821504Y256197D01*
X822635Y256346D01*
X823688Y256782D01*
X824593Y257476D01*
X825287Y258381D01*
X825723Y259435D01*
X825872Y260565D01*
X825723Y261696D01*
X825287Y262749D01*
X824593Y263654D01*
X823688Y264348D01*
X822635Y264785D01*
X821504Y264933D01*
D02*
G37*
G36*
X1115217Y263428D02*
X1113932Y263259D01*
X1112735Y262763D01*
X1111707Y261974D01*
X1110918Y260946D01*
X1110422Y259749D01*
X1110253Y258465D01*
X1110422Y257180D01*
X1110918Y255983D01*
X1111707Y254955D01*
X1112735Y254166D01*
X1113932Y253670D01*
X1115217Y253501D01*
X1116501Y253670D01*
X1117698Y254166D01*
X1118726Y254955D01*
X1119515Y255983D01*
X1120011Y257180D01*
X1120180Y258465D01*
X1120011Y259749D01*
X1119515Y260946D01*
X1118726Y261974D01*
X1117698Y262763D01*
X1116501Y263259D01*
X1115217Y263428D01*
D02*
G37*
G36*
X1031504Y254934D02*
X1030373Y254785D01*
X1029320Y254348D01*
X1028415Y253654D01*
X1027721Y252749D01*
X1027285Y251696D01*
X1027136Y250565D01*
X1027285Y249434D01*
X1027721Y248381D01*
X1028415Y247476D01*
X1029320Y246782D01*
X1030373Y246346D01*
X1031504Y246197D01*
X1032635Y246346D01*
X1033688Y246782D01*
X1034593Y247476D01*
X1035287Y248381D01*
X1035723Y249434D01*
X1035872Y250565D01*
X1035723Y251696D01*
X1035287Y252749D01*
X1034593Y253654D01*
X1033688Y254348D01*
X1032635Y254785D01*
X1031504Y254934D01*
D02*
G37*
G36*
X1021504D02*
X1020373Y254785D01*
X1019320Y254348D01*
X1018415Y253654D01*
X1017721Y252749D01*
X1017284Y251696D01*
X1017136Y250565D01*
X1017284Y249434D01*
X1017721Y248381D01*
X1018415Y247476D01*
X1019320Y246782D01*
X1020373Y246346D01*
X1021504Y246197D01*
X1022635Y246346D01*
X1023688Y246782D01*
X1024593Y247476D01*
X1025287Y248381D01*
X1025723Y249434D01*
X1025872Y250565D01*
X1025723Y251696D01*
X1025287Y252749D01*
X1024593Y253654D01*
X1023688Y254348D01*
X1022635Y254785D01*
X1021504Y254934D01*
D02*
G37*
G36*
X831504D02*
X830373Y254785D01*
X829320Y254348D01*
X828415Y253654D01*
X827721Y252749D01*
X827285Y251696D01*
X827136Y250565D01*
X827285Y249434D01*
X827721Y248381D01*
X828415Y247476D01*
X829320Y246782D01*
X830373Y246346D01*
X831504Y246197D01*
X832635Y246346D01*
X833688Y246782D01*
X834593Y247476D01*
X835287Y248381D01*
X835723Y249434D01*
X835872Y250565D01*
X835723Y251696D01*
X835287Y252749D01*
X834593Y253654D01*
X833688Y254348D01*
X832635Y254785D01*
X831504Y254934D01*
D02*
G37*
G36*
X821504D02*
X820373Y254785D01*
X819320Y254348D01*
X818415Y253654D01*
X817721Y252749D01*
X817284Y251696D01*
X817136Y250565D01*
X817284Y249434D01*
X817721Y248381D01*
X818415Y247476D01*
X819320Y246782D01*
X820373Y246346D01*
X821504Y246197D01*
X822635Y246346D01*
X823688Y246782D01*
X824593Y247476D01*
X825287Y248381D01*
X825723Y249434D01*
X825872Y250565D01*
X825723Y251696D01*
X825287Y252749D01*
X824593Y253654D01*
X823688Y254348D01*
X822635Y254785D01*
X821504Y254934D01*
D02*
G37*
G36*
X1031504Y244934D02*
X1030373Y244785D01*
X1029320Y244348D01*
X1028415Y243654D01*
X1027721Y242749D01*
X1027285Y241696D01*
X1027136Y240565D01*
X1027285Y239435D01*
X1027721Y238381D01*
X1028415Y237476D01*
X1029320Y236782D01*
X1030373Y236346D01*
X1031504Y236197D01*
X1032635Y236346D01*
X1033688Y236782D01*
X1034593Y237476D01*
X1035287Y238381D01*
X1035723Y239435D01*
X1035872Y240565D01*
X1035723Y241696D01*
X1035287Y242749D01*
X1034593Y243654D01*
X1033688Y244348D01*
X1032635Y244785D01*
X1031504Y244934D01*
D02*
G37*
G36*
X1021504D02*
X1020373Y244785D01*
X1019320Y244348D01*
X1018415Y243654D01*
X1017721Y242749D01*
X1017284Y241696D01*
X1017136Y240565D01*
X1017284Y239435D01*
X1017721Y238381D01*
X1018415Y237476D01*
X1019320Y236782D01*
X1020373Y236346D01*
X1021504Y236197D01*
X1022635Y236346D01*
X1023688Y236782D01*
X1024593Y237476D01*
X1025287Y238381D01*
X1025723Y239435D01*
X1025872Y240565D01*
X1025723Y241696D01*
X1025287Y242749D01*
X1024593Y243654D01*
X1023688Y244348D01*
X1022635Y244785D01*
X1021504Y244934D01*
D02*
G37*
G36*
X831504D02*
X830373Y244785D01*
X829320Y244348D01*
X828415Y243654D01*
X827721Y242749D01*
X827285Y241696D01*
X827136Y240565D01*
X827285Y239435D01*
X827721Y238381D01*
X828415Y237476D01*
X829320Y236782D01*
X830373Y236346D01*
X831504Y236197D01*
X832635Y236346D01*
X833688Y236782D01*
X834593Y237476D01*
X835287Y238381D01*
X835723Y239435D01*
X835872Y240565D01*
X835723Y241696D01*
X835287Y242749D01*
X834593Y243654D01*
X833688Y244348D01*
X832635Y244785D01*
X831504Y244934D01*
D02*
G37*
G36*
X821504D02*
X820373Y244785D01*
X819320Y244348D01*
X818415Y243654D01*
X817721Y242749D01*
X817284Y241696D01*
X817136Y240565D01*
X817284Y239435D01*
X817721Y238381D01*
X818415Y237476D01*
X819320Y236782D01*
X820373Y236346D01*
X821504Y236197D01*
X822635Y236346D01*
X823688Y236782D01*
X824593Y237476D01*
X825287Y238381D01*
X825723Y239435D01*
X825872Y240565D01*
X825723Y241696D01*
X825287Y242749D01*
X824593Y243654D01*
X823688Y244348D01*
X822635Y244785D01*
X821504Y244934D01*
D02*
G37*
G36*
X1115217Y237641D02*
X1113932Y237472D01*
X1112735Y236976D01*
X1111707Y236187D01*
X1110918Y235159D01*
X1110422Y233962D01*
X1110253Y232677D01*
X1110422Y231393D01*
X1110918Y230195D01*
X1111707Y229167D01*
X1112735Y228379D01*
X1113932Y227883D01*
X1115217Y227713D01*
X1116501Y227883D01*
X1117698Y228379D01*
X1118726Y229167D01*
X1119515Y230195D01*
X1120011Y231393D01*
X1120180Y232677D01*
X1120011Y233962D01*
X1119515Y235159D01*
X1118726Y236187D01*
X1117698Y236976D01*
X1116501Y237472D01*
X1115217Y237641D01*
D02*
G37*
G36*
X1031504Y234933D02*
X1030373Y234785D01*
X1029320Y234348D01*
X1028415Y233654D01*
X1027721Y232749D01*
X1027285Y231696D01*
X1027136Y230565D01*
X1027285Y229434D01*
X1027721Y228381D01*
X1028415Y227476D01*
X1029320Y226782D01*
X1030373Y226346D01*
X1031504Y226197D01*
X1032635Y226346D01*
X1033688Y226782D01*
X1034593Y227476D01*
X1035287Y228381D01*
X1035723Y229434D01*
X1035872Y230565D01*
X1035723Y231696D01*
X1035287Y232749D01*
X1034593Y233654D01*
X1033688Y234348D01*
X1032635Y234785D01*
X1031504Y234933D01*
D02*
G37*
G36*
X1021504D02*
X1020373Y234785D01*
X1019320Y234348D01*
X1018415Y233654D01*
X1017721Y232749D01*
X1017284Y231696D01*
X1017136Y230565D01*
X1017284Y229434D01*
X1017721Y228381D01*
X1018415Y227476D01*
X1019320Y226782D01*
X1020373Y226346D01*
X1021504Y226197D01*
X1022635Y226346D01*
X1023688Y226782D01*
X1024593Y227476D01*
X1025287Y228381D01*
X1025723Y229434D01*
X1025872Y230565D01*
X1025723Y231696D01*
X1025287Y232749D01*
X1024593Y233654D01*
X1023688Y234348D01*
X1022635Y234785D01*
X1021504Y234933D01*
D02*
G37*
G36*
X831504D02*
X830373Y234785D01*
X829320Y234348D01*
X828415Y233654D01*
X827721Y232749D01*
X827285Y231696D01*
X827136Y230565D01*
X827285Y229434D01*
X827721Y228381D01*
X828415Y227476D01*
X829320Y226782D01*
X830373Y226346D01*
X831504Y226197D01*
X832635Y226346D01*
X833688Y226782D01*
X834593Y227476D01*
X835287Y228381D01*
X835723Y229434D01*
X835872Y230565D01*
X835723Y231696D01*
X835287Y232749D01*
X834593Y233654D01*
X833688Y234348D01*
X832635Y234785D01*
X831504Y234933D01*
D02*
G37*
G36*
X821504D02*
X820373Y234785D01*
X819320Y234348D01*
X818415Y233654D01*
X817721Y232749D01*
X817284Y231696D01*
X817136Y230565D01*
X817284Y229434D01*
X817721Y228381D01*
X818415Y227476D01*
X819320Y226782D01*
X820373Y226346D01*
X821504Y226197D01*
X822635Y226346D01*
X823688Y226782D01*
X824593Y227476D01*
X825287Y228381D01*
X825723Y229434D01*
X825872Y230565D01*
X825723Y231696D01*
X825287Y232749D01*
X824593Y233654D01*
X823688Y234348D01*
X822635Y234785D01*
X821504Y234933D01*
D02*
G37*
G36*
X1031504Y224934D02*
X1030373Y224785D01*
X1029320Y224348D01*
X1028415Y223654D01*
X1027721Y222749D01*
X1027285Y221696D01*
X1027136Y220565D01*
X1027285Y219434D01*
X1027721Y218381D01*
X1028415Y217476D01*
X1029320Y216782D01*
X1030373Y216346D01*
X1031504Y216197D01*
X1032635Y216346D01*
X1033688Y216782D01*
X1034593Y217476D01*
X1035287Y218381D01*
X1035723Y219434D01*
X1035872Y220565D01*
X1035723Y221696D01*
X1035287Y222749D01*
X1034593Y223654D01*
X1033688Y224348D01*
X1032635Y224785D01*
X1031504Y224934D01*
D02*
G37*
G36*
X1021504D02*
X1020373Y224785D01*
X1019320Y224348D01*
X1018415Y223654D01*
X1017721Y222749D01*
X1017284Y221696D01*
X1017136Y220565D01*
X1017284Y219434D01*
X1017721Y218381D01*
X1018415Y217476D01*
X1019320Y216782D01*
X1020373Y216346D01*
X1021504Y216197D01*
X1022635Y216346D01*
X1023688Y216782D01*
X1024593Y217476D01*
X1025287Y218381D01*
X1025723Y219434D01*
X1025872Y220565D01*
X1025723Y221696D01*
X1025287Y222749D01*
X1024593Y223654D01*
X1023688Y224348D01*
X1022635Y224785D01*
X1021504Y224934D01*
D02*
G37*
G36*
X831504D02*
X830373Y224785D01*
X829320Y224348D01*
X828415Y223654D01*
X827721Y222749D01*
X827285Y221696D01*
X827136Y220565D01*
X827285Y219434D01*
X827721Y218381D01*
X828415Y217476D01*
X829320Y216782D01*
X830373Y216346D01*
X831504Y216197D01*
X832635Y216346D01*
X833688Y216782D01*
X834593Y217476D01*
X835287Y218381D01*
X835723Y219434D01*
X835872Y220565D01*
X835723Y221696D01*
X835287Y222749D01*
X834593Y223654D01*
X833688Y224348D01*
X832635Y224785D01*
X831504Y224934D01*
D02*
G37*
G36*
X821504D02*
X820373Y224785D01*
X819320Y224348D01*
X818415Y223654D01*
X817721Y222749D01*
X817284Y221696D01*
X817136Y220565D01*
X817284Y219434D01*
X817721Y218381D01*
X818415Y217476D01*
X819320Y216782D01*
X820373Y216346D01*
X821504Y216197D01*
X822635Y216346D01*
X823688Y216782D01*
X824593Y217476D01*
X825287Y218381D01*
X825723Y219434D01*
X825872Y220565D01*
X825723Y221696D01*
X825287Y222749D01*
X824593Y223654D01*
X823688Y224348D01*
X822635Y224785D01*
X821504Y224934D01*
D02*
G37*
G36*
X1031504Y214933D02*
X1030373Y214785D01*
X1029320Y214348D01*
X1028415Y213654D01*
X1027721Y212749D01*
X1027285Y211696D01*
X1027136Y210565D01*
X1027285Y209435D01*
X1027721Y208381D01*
X1028415Y207476D01*
X1029320Y206782D01*
X1030373Y206346D01*
X1031504Y206197D01*
X1032635Y206346D01*
X1033688Y206782D01*
X1034593Y207476D01*
X1035287Y208381D01*
X1035723Y209435D01*
X1035872Y210565D01*
X1035723Y211696D01*
X1035287Y212749D01*
X1034593Y213654D01*
X1033688Y214348D01*
X1032635Y214785D01*
X1031504Y214933D01*
D02*
G37*
G36*
X1021504D02*
X1020373Y214785D01*
X1019320Y214348D01*
X1018415Y213654D01*
X1017721Y212749D01*
X1017284Y211696D01*
X1017136Y210565D01*
X1017284Y209435D01*
X1017721Y208381D01*
X1018415Y207476D01*
X1019320Y206782D01*
X1020373Y206346D01*
X1021504Y206197D01*
X1022635Y206346D01*
X1023688Y206782D01*
X1024593Y207476D01*
X1025287Y208381D01*
X1025723Y209435D01*
X1025872Y210565D01*
X1025723Y211696D01*
X1025287Y212749D01*
X1024593Y213654D01*
X1023688Y214348D01*
X1022635Y214785D01*
X1021504Y214933D01*
D02*
G37*
G36*
X831504D02*
X830373Y214785D01*
X829320Y214348D01*
X828415Y213654D01*
X827721Y212749D01*
X827285Y211696D01*
X827136Y210565D01*
X827285Y209435D01*
X827721Y208381D01*
X828415Y207476D01*
X829320Y206782D01*
X830373Y206346D01*
X831504Y206197D01*
X832635Y206346D01*
X833688Y206782D01*
X834593Y207476D01*
X835287Y208381D01*
X835723Y209435D01*
X835872Y210565D01*
X835723Y211696D01*
X835287Y212749D01*
X834593Y213654D01*
X833688Y214348D01*
X832635Y214785D01*
X831504Y214933D01*
D02*
G37*
G36*
X821504D02*
X820373Y214785D01*
X819320Y214348D01*
X818415Y213654D01*
X817721Y212749D01*
X817284Y211696D01*
X817136Y210565D01*
X817284Y209435D01*
X817721Y208381D01*
X818415Y207476D01*
X819320Y206782D01*
X820373Y206346D01*
X821504Y206197D01*
X822635Y206346D01*
X823688Y206782D01*
X824593Y207476D01*
X825287Y208381D01*
X825723Y209435D01*
X825872Y210565D01*
X825723Y211696D01*
X825287Y212749D01*
X824593Y213654D01*
X823688Y214348D01*
X822635Y214785D01*
X821504Y214933D01*
D02*
G37*
G36*
X1031504Y204934D02*
X1030373Y204785D01*
X1029320Y204348D01*
X1028415Y203654D01*
X1027721Y202749D01*
X1027285Y201696D01*
X1027136Y200565D01*
X1027285Y199434D01*
X1027721Y198381D01*
X1028415Y197476D01*
X1029320Y196782D01*
X1030373Y196346D01*
X1031504Y196197D01*
X1032635Y196346D01*
X1033688Y196782D01*
X1034593Y197476D01*
X1035287Y198381D01*
X1035723Y199434D01*
X1035872Y200565D01*
X1035723Y201696D01*
X1035287Y202749D01*
X1034593Y203654D01*
X1033688Y204348D01*
X1032635Y204785D01*
X1031504Y204934D01*
D02*
G37*
G36*
X1021504D02*
X1020373Y204785D01*
X1019320Y204348D01*
X1018415Y203654D01*
X1017721Y202749D01*
X1017284Y201696D01*
X1017136Y200565D01*
X1017284Y199434D01*
X1017721Y198381D01*
X1018415Y197476D01*
X1019320Y196782D01*
X1020373Y196346D01*
X1021504Y196197D01*
X1022635Y196346D01*
X1023688Y196782D01*
X1024593Y197476D01*
X1025287Y198381D01*
X1025723Y199434D01*
X1025872Y200565D01*
X1025723Y201696D01*
X1025287Y202749D01*
X1024593Y203654D01*
X1023688Y204348D01*
X1022635Y204785D01*
X1021504Y204934D01*
D02*
G37*
G36*
X831504D02*
X830373Y204785D01*
X829320Y204348D01*
X828415Y203654D01*
X827721Y202749D01*
X827285Y201696D01*
X827136Y200565D01*
X827285Y199434D01*
X827721Y198381D01*
X828415Y197476D01*
X829320Y196782D01*
X830373Y196346D01*
X831504Y196197D01*
X832635Y196346D01*
X833688Y196782D01*
X834593Y197476D01*
X835287Y198381D01*
X835723Y199434D01*
X835872Y200565D01*
X835723Y201696D01*
X835287Y202749D01*
X834593Y203654D01*
X833688Y204348D01*
X832635Y204785D01*
X831504Y204934D01*
D02*
G37*
G36*
X821504D02*
X820373Y204785D01*
X819320Y204348D01*
X818415Y203654D01*
X817721Y202749D01*
X817284Y201696D01*
X817136Y200565D01*
X817284Y199434D01*
X817721Y198381D01*
X818415Y197476D01*
X819320Y196782D01*
X820373Y196346D01*
X821504Y196197D01*
X822635Y196346D01*
X823688Y196782D01*
X824593Y197476D01*
X825287Y198381D01*
X825723Y199434D01*
X825872Y200565D01*
X825723Y201696D01*
X825287Y202749D01*
X824593Y203654D01*
X823688Y204348D01*
X822635Y204785D01*
X821504Y204934D01*
D02*
G37*
G36*
X1031504Y194933D02*
X1030373Y194785D01*
X1029320Y194348D01*
X1028415Y193654D01*
X1027721Y192749D01*
X1027285Y191696D01*
X1027136Y190565D01*
X1027285Y189435D01*
X1027721Y188381D01*
X1028415Y187476D01*
X1029320Y186782D01*
X1030373Y186346D01*
X1031504Y186197D01*
X1032635Y186346D01*
X1033688Y186782D01*
X1034593Y187476D01*
X1035287Y188381D01*
X1035723Y189435D01*
X1035872Y190565D01*
X1035723Y191696D01*
X1035287Y192749D01*
X1034593Y193654D01*
X1033688Y194348D01*
X1032635Y194785D01*
X1031504Y194933D01*
D02*
G37*
G36*
X1021504D02*
X1020373Y194785D01*
X1019320Y194348D01*
X1018415Y193654D01*
X1017721Y192749D01*
X1017284Y191696D01*
X1017136Y190565D01*
X1017284Y189435D01*
X1017721Y188381D01*
X1018415Y187476D01*
X1019320Y186782D01*
X1020373Y186346D01*
X1021504Y186197D01*
X1022635Y186346D01*
X1023688Y186782D01*
X1024593Y187476D01*
X1025287Y188381D01*
X1025723Y189435D01*
X1025872Y190565D01*
X1025723Y191696D01*
X1025287Y192749D01*
X1024593Y193654D01*
X1023688Y194348D01*
X1022635Y194785D01*
X1021504Y194933D01*
D02*
G37*
G36*
X831504D02*
X830373Y194785D01*
X829320Y194348D01*
X828415Y193654D01*
X827721Y192749D01*
X827285Y191696D01*
X827136Y190565D01*
X827285Y189435D01*
X827721Y188381D01*
X828415Y187476D01*
X829320Y186782D01*
X830373Y186346D01*
X831504Y186197D01*
X832635Y186346D01*
X833688Y186782D01*
X834593Y187476D01*
X835287Y188381D01*
X835723Y189435D01*
X835872Y190565D01*
X835723Y191696D01*
X835287Y192749D01*
X834593Y193654D01*
X833688Y194348D01*
X832635Y194785D01*
X831504Y194933D01*
D02*
G37*
G36*
X821504D02*
X820373Y194785D01*
X819320Y194348D01*
X818415Y193654D01*
X817721Y192749D01*
X817284Y191696D01*
X817136Y190565D01*
X817284Y189435D01*
X817721Y188381D01*
X818415Y187476D01*
X819320Y186782D01*
X820373Y186346D01*
X821504Y186197D01*
X822635Y186346D01*
X823688Y186782D01*
X824593Y187476D01*
X825287Y188381D01*
X825723Y189435D01*
X825872Y190565D01*
X825723Y191696D01*
X825287Y192749D01*
X824593Y193654D01*
X823688Y194348D01*
X822635Y194785D01*
X821504Y194933D01*
D02*
G37*
G36*
X1031504Y184933D02*
X1030373Y184785D01*
X1029320Y184348D01*
X1028415Y183654D01*
X1027721Y182749D01*
X1027285Y181696D01*
X1027136Y180565D01*
X1027285Y179435D01*
X1027721Y178381D01*
X1028415Y177476D01*
X1029320Y176782D01*
X1030373Y176346D01*
X1031504Y176197D01*
X1032635Y176346D01*
X1033688Y176782D01*
X1034593Y177476D01*
X1035287Y178381D01*
X1035723Y179435D01*
X1035872Y180565D01*
X1035723Y181696D01*
X1035287Y182749D01*
X1034593Y183654D01*
X1033688Y184348D01*
X1032635Y184785D01*
X1031504Y184933D01*
D02*
G37*
G36*
X1021504D02*
X1020373Y184785D01*
X1019320Y184348D01*
X1018415Y183654D01*
X1017721Y182749D01*
X1017284Y181696D01*
X1017136Y180565D01*
X1017284Y179435D01*
X1017721Y178381D01*
X1018415Y177476D01*
X1019320Y176782D01*
X1020373Y176346D01*
X1021504Y176197D01*
X1022635Y176346D01*
X1023688Y176782D01*
X1024593Y177476D01*
X1025287Y178381D01*
X1025723Y179435D01*
X1025872Y180565D01*
X1025723Y181696D01*
X1025287Y182749D01*
X1024593Y183654D01*
X1023688Y184348D01*
X1022635Y184785D01*
X1021504Y184933D01*
D02*
G37*
G36*
X831504D02*
X830373Y184785D01*
X829320Y184348D01*
X828415Y183654D01*
X827721Y182749D01*
X827285Y181696D01*
X827136Y180565D01*
X827285Y179435D01*
X827721Y178381D01*
X828415Y177476D01*
X829320Y176782D01*
X830373Y176346D01*
X831504Y176197D01*
X832635Y176346D01*
X833688Y176782D01*
X834593Y177476D01*
X835287Y178381D01*
X835723Y179435D01*
X835872Y180565D01*
X835723Y181696D01*
X835287Y182749D01*
X834593Y183654D01*
X833688Y184348D01*
X832635Y184785D01*
X831504Y184933D01*
D02*
G37*
G36*
X821504D02*
X820373Y184785D01*
X819320Y184348D01*
X818415Y183654D01*
X817721Y182749D01*
X817284Y181696D01*
X817136Y180565D01*
X817284Y179435D01*
X817721Y178381D01*
X818415Y177476D01*
X819320Y176782D01*
X820373Y176346D01*
X821504Y176197D01*
X822635Y176346D01*
X823688Y176782D01*
X824593Y177476D01*
X825287Y178381D01*
X825723Y179435D01*
X825872Y180565D01*
X825723Y181696D01*
X825287Y182749D01*
X824593Y183654D01*
X823688Y184348D01*
X822635Y184785D01*
X821504Y184933D01*
D02*
G37*
G36*
X1021504Y174934D02*
X1020373Y174785D01*
X1019320Y174348D01*
X1018415Y173654D01*
X1017721Y172749D01*
X1017284Y171696D01*
X1017136Y170565D01*
X1017284Y169434D01*
X1017721Y168381D01*
X1018415Y167476D01*
X1019320Y166782D01*
X1020373Y166346D01*
X1021504Y166197D01*
X1022635Y166346D01*
X1023688Y166782D01*
X1024593Y167476D01*
X1025287Y168381D01*
X1025723Y169434D01*
X1025872Y170565D01*
X1025723Y171696D01*
X1025287Y172749D01*
X1024593Y173654D01*
X1023688Y174348D01*
X1022635Y174785D01*
X1021504Y174934D01*
D02*
G37*
G36*
X831504D02*
X830373Y174785D01*
X829320Y174348D01*
X828415Y173654D01*
X827721Y172749D01*
X827285Y171696D01*
X827136Y170565D01*
X827285Y169434D01*
X827721Y168381D01*
X828415Y167476D01*
X829320Y166782D01*
X830373Y166346D01*
X831504Y166197D01*
X832635Y166346D01*
X833688Y166782D01*
X834593Y167476D01*
X835287Y168381D01*
X835723Y169434D01*
X835872Y170565D01*
X835723Y171696D01*
X835287Y172749D01*
X834593Y173654D01*
X833688Y174348D01*
X832635Y174785D01*
X831504Y174934D01*
D02*
G37*
G36*
X821504D02*
X820373Y174785D01*
X819320Y174348D01*
X818415Y173654D01*
X817721Y172749D01*
X817284Y171696D01*
X817136Y170565D01*
X817284Y169434D01*
X817721Y168381D01*
X818415Y167476D01*
X819320Y166782D01*
X820373Y166346D01*
X821504Y166197D01*
X822635Y166346D01*
X823688Y166782D01*
X824593Y167476D01*
X825287Y168381D01*
X825723Y169434D01*
X825872Y170565D01*
X825723Y171696D01*
X825287Y172749D01*
X824593Y173654D01*
X823688Y174348D01*
X822635Y174785D01*
X821504Y174934D01*
D02*
G37*
G36*
X1031504Y164934D02*
X1030373Y164785D01*
X1029320Y164348D01*
X1028415Y163654D01*
X1027721Y162749D01*
X1027285Y161696D01*
X1027136Y160565D01*
X1027285Y159434D01*
X1027721Y158381D01*
X1028415Y157476D01*
X1029320Y156782D01*
X1030373Y156346D01*
X1031504Y156197D01*
X1032635Y156346D01*
X1033688Y156782D01*
X1034593Y157476D01*
X1035287Y158381D01*
X1035723Y159434D01*
X1035872Y160565D01*
X1035723Y161696D01*
X1035287Y162749D01*
X1034593Y163654D01*
X1033688Y164348D01*
X1032635Y164785D01*
X1031504Y164934D01*
D02*
G37*
G36*
X1021504D02*
X1020373Y164785D01*
X1019320Y164348D01*
X1018415Y163654D01*
X1017721Y162749D01*
X1017284Y161696D01*
X1017136Y160565D01*
X1017284Y159434D01*
X1017721Y158381D01*
X1018415Y157476D01*
X1019320Y156782D01*
X1020373Y156346D01*
X1021504Y156197D01*
X1022635Y156346D01*
X1023688Y156782D01*
X1024593Y157476D01*
X1025287Y158381D01*
X1025723Y159434D01*
X1025872Y160565D01*
X1025723Y161696D01*
X1025287Y162749D01*
X1024593Y163654D01*
X1023688Y164348D01*
X1022635Y164785D01*
X1021504Y164934D01*
D02*
G37*
G36*
X831504D02*
X830373Y164785D01*
X829320Y164348D01*
X828415Y163654D01*
X827721Y162749D01*
X827285Y161696D01*
X827136Y160565D01*
X827285Y159434D01*
X827721Y158381D01*
X828415Y157476D01*
X829320Y156782D01*
X830373Y156346D01*
X831504Y156197D01*
X832635Y156346D01*
X833688Y156782D01*
X834593Y157476D01*
X835287Y158381D01*
X835723Y159434D01*
X835872Y160565D01*
X835723Y161696D01*
X835287Y162749D01*
X834593Y163654D01*
X833688Y164348D01*
X832635Y164785D01*
X831504Y164934D01*
D02*
G37*
G36*
X821504D02*
X820373Y164785D01*
X819320Y164348D01*
X818415Y163654D01*
X817721Y162749D01*
X817284Y161696D01*
X817136Y160565D01*
X817284Y159434D01*
X817721Y158381D01*
X818415Y157476D01*
X819320Y156782D01*
X820373Y156346D01*
X821504Y156197D01*
X822635Y156346D01*
X823688Y156782D01*
X824593Y157476D01*
X825287Y158381D01*
X825723Y159434D01*
X825872Y160565D01*
X825723Y161696D01*
X825287Y162749D01*
X824593Y163654D01*
X823688Y164348D01*
X822635Y164785D01*
X821504Y164934D01*
D02*
G37*
%LPD*%
D15*
X933583Y463786D02*
D03*
Y453786D02*
D03*
Y443786D02*
D03*
X943583D02*
D03*
Y453786D02*
D03*
Y463786D02*
D03*
X1115217Y258465D02*
D03*
Y315748D02*
D03*
Y232677D02*
D03*
Y287697D02*
D03*
D16*
X933583Y433786D02*
D03*
X943583D02*
D03*
D17*
X1125216Y258465D02*
D03*
Y315748D02*
D03*
Y232677D02*
D03*
Y287697D02*
D03*
D18*
X1021504Y390565D02*
D03*
X1031504D02*
D03*
X1021504Y380565D02*
D03*
X1031504D02*
D03*
X1021504Y370565D02*
D03*
X1031504D02*
D03*
X1021504Y360565D02*
D03*
X1031504D02*
D03*
X1021504Y350565D02*
D03*
X1031504D02*
D03*
X1021504Y340565D02*
D03*
X1031504D02*
D03*
X1021504Y330565D02*
D03*
X1031504D02*
D03*
X1021504Y320565D02*
D03*
X1031504D02*
D03*
X1021504Y310565D02*
D03*
X1031504D02*
D03*
X1021504Y300565D02*
D03*
X1031504D02*
D03*
X1021504Y290565D02*
D03*
X1031504D02*
D03*
X1021504Y280565D02*
D03*
X1031504D02*
D03*
X1021504Y270565D02*
D03*
Y260565D02*
D03*
X1031504D02*
D03*
X1021504Y250565D02*
D03*
X1031504D02*
D03*
X1021504Y240565D02*
D03*
X1031504D02*
D03*
X1021504Y230565D02*
D03*
X1031504D02*
D03*
X1021504Y220565D02*
D03*
X1031504D02*
D03*
X1021504Y210565D02*
D03*
X1031504D02*
D03*
X1021504Y200565D02*
D03*
X1031504D02*
D03*
X1021504Y190565D02*
D03*
X1031504D02*
D03*
X1021504Y180565D02*
D03*
X1031504D02*
D03*
X1021504Y170565D02*
D03*
X1031504D02*
D03*
X1021504Y160565D02*
D03*
X1031504D02*
D03*
X1021504Y150565D02*
D03*
X821504D02*
D03*
X831504Y160565D02*
D03*
X821504D02*
D03*
X831504Y170565D02*
D03*
X821504D02*
D03*
X831504Y180565D02*
D03*
X821504D02*
D03*
X831504Y190565D02*
D03*
X821504D02*
D03*
X831504Y200565D02*
D03*
X821504D02*
D03*
X831504Y210565D02*
D03*
X821504D02*
D03*
X831504Y220565D02*
D03*
X821504D02*
D03*
X831504Y230565D02*
D03*
X821504D02*
D03*
X831504Y240565D02*
D03*
X821504D02*
D03*
X831504Y250565D02*
D03*
X821504D02*
D03*
X831504Y260565D02*
D03*
X821504D02*
D03*
X831504Y270565D02*
D03*
X821504D02*
D03*
X831504Y280565D02*
D03*
X821504D02*
D03*
X831504Y290565D02*
D03*
X821504D02*
D03*
X831504Y300565D02*
D03*
X821504D02*
D03*
X831504Y310565D02*
D03*
X821504D02*
D03*
X831504Y320565D02*
D03*
X821504D02*
D03*
X831504Y330565D02*
D03*
X821504D02*
D03*
X831504Y340565D02*
D03*
X821504D02*
D03*
X831504Y350565D02*
D03*
X821504D02*
D03*
X831504Y360565D02*
D03*
X821504D02*
D03*
X831504Y370565D02*
D03*
X821504D02*
D03*
X831504Y380565D02*
D03*
X821504D02*
D03*
X831504Y390565D02*
D03*
X821504D02*
D03*
D19*
X1031504Y270565D02*
D03*
D20*
Y150565D02*
D03*
X831504D02*
D03*
M02*
