G04*
G04 #@! TF.GenerationSoftware,Altium Limited,Altium NEXUS,1.1.6 (48)*
G04*
G04 Layer_Physical_Order=1*
G04 Layer_Color=255*
%FSLAX25Y25*%
%MOIN*%
G70*
G01*
G75*
%ADD11R,0.05118X0.03347*%
%ADD12R,0.02165X0.01772*%
%ADD13R,0.02047X0.02047*%
%ADD22C,0.01181*%
%ADD23C,0.04725*%
%ADD24O,0.04724X0.04725*%
%ADD25R,0.04725X0.04725*%
%ADD26C,0.05906*%
%ADD27R,0.05906X0.05906*%
G36*
X1196653Y480804D02*
X1196654Y86910D01*
X762894Y86910D01*
X762894Y483649D01*
X763249Y484002D01*
X1196653Y480804D01*
D02*
G37*
%LPC*%
G36*
X831504Y384933D02*
X830373Y384785D01*
X829320Y384348D01*
X828415Y383654D01*
X827721Y382749D01*
X827285Y381696D01*
X827136Y380565D01*
X827285Y379434D01*
X827721Y378381D01*
X828415Y377476D01*
X829320Y376782D01*
X830373Y376346D01*
X831504Y376197D01*
X832635Y376346D01*
X833688Y376782D01*
X834593Y377476D01*
X835287Y378381D01*
X835723Y379434D01*
X835872Y380565D01*
X835723Y381696D01*
X835287Y382749D01*
X834593Y383654D01*
X833688Y384348D01*
X832635Y384785D01*
X831504Y384933D01*
D02*
G37*
G36*
X821504D02*
X820373Y384785D01*
X819320Y384348D01*
X818415Y383654D01*
X817721Y382749D01*
X817284Y381696D01*
X817136Y380565D01*
X817284Y379434D01*
X817721Y378381D01*
X818415Y377476D01*
X819320Y376782D01*
X820373Y376346D01*
X821504Y376197D01*
X822635Y376346D01*
X823688Y376782D01*
X824593Y377476D01*
X825287Y378381D01*
X825723Y379434D01*
X825872Y380565D01*
X825723Y381696D01*
X825287Y382749D01*
X824593Y383654D01*
X823688Y384348D01*
X822635Y384785D01*
X821504Y384933D01*
D02*
G37*
G36*
X1037008Y401006D02*
X1011811D01*
X1011143Y400918D01*
X1010520Y400661D01*
X1009986Y400250D01*
X1003883Y394148D01*
X1003473Y393613D01*
X1003216Y392991D01*
X1003127Y392323D01*
Y376361D01*
X1003216Y375692D01*
X1003473Y375070D01*
X1003883Y374535D01*
X1017219Y361200D01*
X1017136Y360565D01*
X1017284Y359435D01*
X1017721Y358381D01*
X1018415Y357476D01*
X1019320Y356782D01*
X1020373Y356346D01*
X1021504Y356197D01*
X1022635Y356346D01*
X1023688Y356782D01*
X1024593Y357476D01*
X1025287Y358381D01*
X1025723Y359435D01*
X1025872Y360565D01*
X1025723Y361696D01*
X1025287Y362749D01*
X1024593Y363654D01*
X1023688Y364348D01*
X1022635Y364785D01*
X1021504Y364933D01*
X1020870Y364850D01*
X1019591Y366128D01*
X1019874Y366552D01*
X1020373Y366346D01*
X1021504Y366197D01*
X1022635Y366346D01*
X1023688Y366782D01*
X1024593Y367476D01*
X1025287Y368381D01*
X1025723Y369434D01*
X1025872Y370565D01*
X1025723Y371696D01*
X1025287Y372749D01*
X1024823Y373355D01*
X1027463Y375996D01*
X1027874Y376530D01*
X1028105Y377089D01*
X1028336Y377207D01*
X1028654Y377293D01*
X1029320Y376782D01*
X1030373Y376346D01*
X1031504Y376197D01*
X1032139Y376280D01*
X1033417Y375002D01*
X1033134Y374578D01*
X1032635Y374785D01*
X1031504Y374934D01*
X1030373Y374785D01*
X1029320Y374348D01*
X1028415Y373654D01*
X1027721Y372749D01*
X1027285Y371696D01*
X1027136Y370565D01*
X1027285Y369434D01*
X1027721Y368381D01*
X1028415Y367476D01*
X1029320Y366782D01*
X1030373Y366346D01*
X1031504Y366197D01*
X1032139Y366280D01*
X1033417Y365002D01*
X1033134Y364578D01*
X1032635Y364785D01*
X1031504Y364933D01*
X1030373Y364785D01*
X1029320Y364348D01*
X1028415Y363654D01*
X1027721Y362749D01*
X1027285Y361696D01*
X1027136Y360565D01*
X1027285Y359435D01*
X1027721Y358381D01*
X1028415Y357476D01*
X1029320Y356782D01*
X1030373Y356346D01*
X1031504Y356197D01*
X1032635Y356346D01*
X1033688Y356782D01*
X1034593Y357476D01*
X1035287Y358381D01*
X1035723Y359435D01*
X1035872Y360565D01*
X1035723Y361696D01*
X1035517Y362195D01*
X1035941Y362478D01*
X1115598Y282821D01*
X1116133Y282410D01*
X1116755Y282153D01*
X1117424Y282065D01*
X1163386D01*
Y278248D01*
X1169488D01*
Y278521D01*
X1173176D01*
X1173813Y277691D01*
X1174841Y276902D01*
X1176038Y276406D01*
X1177323Y276237D01*
X1178607Y276406D01*
X1179805Y276902D01*
X1180833Y277691D01*
X1181621Y278719D01*
X1182117Y279916D01*
X1182286Y281201D01*
X1182117Y282486D01*
X1181621Y283683D01*
X1180833Y284711D01*
X1179805Y285500D01*
X1178607Y285995D01*
X1177323Y286164D01*
X1176038Y285995D01*
X1174841Y285500D01*
X1173813Y284711D01*
X1173025Y283683D01*
X1169488D01*
Y287500D01*
X1163386D01*
Y287227D01*
X1118493D01*
X1035789Y369931D01*
X1035872Y370565D01*
X1035723Y371696D01*
X1035517Y372195D01*
X1035941Y372478D01*
X1097547Y310872D01*
X1098082Y310461D01*
X1098704Y310204D01*
X1099372Y310116D01*
X1163189D01*
Y306299D01*
X1169291D01*
Y306572D01*
X1173176D01*
X1173813Y305742D01*
X1174841Y304953D01*
X1176038Y304457D01*
X1177323Y304288D01*
X1178607Y304457D01*
X1179805Y304953D01*
X1180833Y305742D01*
X1181621Y306770D01*
X1182117Y307967D01*
X1182286Y309252D01*
X1182117Y310537D01*
X1181621Y311734D01*
X1180833Y312762D01*
X1179805Y313551D01*
X1178607Y314047D01*
X1177323Y314216D01*
X1176038Y314047D01*
X1174841Y313551D01*
X1173813Y312762D01*
X1173025Y311735D01*
X1169291D01*
Y315551D01*
X1163189D01*
Y315278D01*
X1100441D01*
X1076637Y339083D01*
X1076828Y339545D01*
X1162205D01*
Y335728D01*
X1168307D01*
Y336001D01*
X1173025D01*
X1173813Y334974D01*
X1174841Y334186D01*
X1176038Y333690D01*
X1177323Y333521D01*
X1178607Y333690D01*
X1179805Y334186D01*
X1180833Y334974D01*
X1181621Y336002D01*
X1182117Y337199D01*
X1182286Y338484D01*
X1182117Y339769D01*
X1181621Y340966D01*
X1180833Y341994D01*
X1179805Y342783D01*
X1178607Y343279D01*
X1177323Y343448D01*
X1176038Y343279D01*
X1174841Y342783D01*
X1173813Y341994D01*
X1173176Y341164D01*
X1168307D01*
Y344980D01*
X1162205D01*
Y344707D01*
X1126877D01*
X1126716Y345207D01*
X1127120Y345517D01*
X1149101Y367498D01*
X1164370D01*
Y363681D01*
X1170472D01*
Y363954D01*
X1173025D01*
X1173813Y362927D01*
X1174841Y362138D01*
X1176038Y361642D01*
X1177323Y361473D01*
X1178607Y361642D01*
X1179805Y362138D01*
X1180833Y362927D01*
X1181621Y363955D01*
X1182117Y365152D01*
X1182286Y366437D01*
X1182117Y367722D01*
X1181621Y368919D01*
X1180833Y369947D01*
X1179805Y370736D01*
X1178607Y371232D01*
X1177323Y371401D01*
X1176038Y371232D01*
X1174841Y370736D01*
X1173813Y369947D01*
X1173176Y369117D01*
X1170472D01*
Y372933D01*
X1164370D01*
Y372660D01*
X1148032D01*
X1147363Y372572D01*
X1146741Y372314D01*
X1146206Y371904D01*
X1124226Y349924D01*
X1081384D01*
X1043132Y388175D01*
Y394882D01*
X1043044Y395550D01*
X1042787Y396172D01*
X1042376Y396707D01*
X1038833Y400250D01*
X1038298Y400661D01*
X1037676Y400918D01*
X1037008Y401006D01*
D02*
G37*
G36*
X831504Y374934D02*
X830373Y374785D01*
X829320Y374348D01*
X828415Y373654D01*
X827721Y372749D01*
X827285Y371696D01*
X827136Y370565D01*
X827285Y369434D01*
X827721Y368381D01*
X828415Y367476D01*
X829320Y366782D01*
X830373Y366346D01*
X831504Y366197D01*
X832635Y366346D01*
X833688Y366782D01*
X834593Y367476D01*
X835287Y368381D01*
X835723Y369434D01*
X835872Y370565D01*
X835723Y371696D01*
X835287Y372749D01*
X834593Y373654D01*
X833688Y374348D01*
X832635Y374785D01*
X831504Y374934D01*
D02*
G37*
G36*
X821504D02*
X820373Y374785D01*
X819320Y374348D01*
X818415Y373654D01*
X817721Y372749D01*
X817284Y371696D01*
X817136Y370565D01*
X817284Y369434D01*
X817721Y368381D01*
X818415Y367476D01*
X819320Y366782D01*
X820373Y366346D01*
X821504Y366197D01*
X822635Y366346D01*
X823688Y366782D01*
X824593Y367476D01*
X825287Y368381D01*
X825723Y369434D01*
X825872Y370565D01*
X825723Y371696D01*
X825287Y372749D01*
X824593Y373654D01*
X823688Y374348D01*
X822635Y374785D01*
X821504Y374934D01*
D02*
G37*
G36*
X1103937Y437817D02*
X837402D01*
X836734Y437729D01*
X836111Y437472D01*
X835576Y437061D01*
X808846Y410331D01*
X808436Y409797D01*
X808178Y409174D01*
X808090Y408506D01*
Y331398D01*
X808178Y330730D01*
X808436Y330107D01*
X808846Y329573D01*
X817219Y321200D01*
X817136Y320565D01*
X817284Y319434D01*
X817721Y318381D01*
X818415Y317476D01*
X819320Y316782D01*
X820373Y316346D01*
X821504Y316197D01*
X822635Y316346D01*
X823688Y316782D01*
X824593Y317476D01*
X825287Y318381D01*
X825723Y319434D01*
X825872Y320565D01*
X825723Y321696D01*
X825287Y322749D01*
X824593Y323654D01*
X823688Y324348D01*
X822635Y324785D01*
X821504Y324934D01*
X820870Y324850D01*
X819591Y326129D01*
X819874Y326552D01*
X820373Y326346D01*
X821504Y326197D01*
X822635Y326346D01*
X823688Y326782D01*
X824593Y327476D01*
X825287Y328381D01*
X825723Y329434D01*
X825872Y330565D01*
X825723Y331696D01*
X825287Y332749D01*
X824593Y333654D01*
X823688Y334348D01*
X822635Y334785D01*
X821504Y334933D01*
X820373Y334785D01*
X819320Y334348D01*
X818415Y333654D01*
X817721Y332749D01*
X817284Y331696D01*
X817136Y330565D01*
X817284Y329434D01*
X817491Y328935D01*
X817067Y328652D01*
X813253Y332467D01*
Y407437D01*
X838471Y432655D01*
X872446D01*
X872637Y432193D01*
X866876Y426431D01*
X866465Y425897D01*
X866208Y425274D01*
X866120Y424606D01*
Y337683D01*
X851583Y323146D01*
X834983D01*
X834593Y323654D01*
X833688Y324348D01*
X832635Y324785D01*
X831504Y324934D01*
X830373Y324785D01*
X829320Y324348D01*
X828415Y323654D01*
X827721Y322749D01*
X827285Y321696D01*
X827136Y320565D01*
X827285Y319434D01*
X827721Y318381D01*
X828415Y317476D01*
X829320Y316782D01*
X830373Y316346D01*
X831504Y316197D01*
X832635Y316346D01*
X833688Y316782D01*
X834593Y317476D01*
X834983Y317984D01*
X852652D01*
X853320Y318072D01*
X853942Y318330D01*
X854477Y318740D01*
X870526Y334789D01*
X870936Y335324D01*
X871194Y335946D01*
X871282Y336614D01*
Y423537D01*
X878431Y430687D01*
X1000497D01*
X1000689Y430225D01*
X982328Y411865D01*
X981918Y411330D01*
X981660Y410707D01*
X981572Y410039D01*
Y357480D01*
X981660Y356812D01*
X981918Y356190D01*
X982328Y355655D01*
X994171Y343813D01*
Y242028D01*
X994259Y241359D01*
X994517Y240737D01*
X994927Y240202D01*
X1010970Y224159D01*
X1011505Y223749D01*
X1012127Y223491D01*
X1012795Y223403D01*
X1017657D01*
X1017879Y222955D01*
X1017721Y222749D01*
X1017284Y221696D01*
X1017136Y220565D01*
X1017284Y219434D01*
X1017721Y218381D01*
X1018415Y217476D01*
X1019320Y216782D01*
X1020373Y216346D01*
X1021504Y216197D01*
X1022635Y216346D01*
X1023688Y216782D01*
X1024593Y217476D01*
X1025287Y218381D01*
X1025723Y219434D01*
X1025872Y220565D01*
X1025723Y221696D01*
X1025517Y222195D01*
X1025941Y222478D01*
X1027219Y221200D01*
X1027136Y220565D01*
X1027285Y219434D01*
X1027721Y218381D01*
X1028415Y217476D01*
X1029320Y216782D01*
X1030373Y216346D01*
X1031504Y216197D01*
X1032635Y216346D01*
X1033688Y216782D01*
X1034593Y217476D01*
X1035287Y218381D01*
X1035723Y219434D01*
X1035872Y220565D01*
X1035723Y221696D01*
X1035287Y222749D01*
X1034593Y223654D01*
X1033688Y224348D01*
X1032635Y224785D01*
X1031504Y224934D01*
X1030869Y224850D01*
X1029591Y226129D01*
X1029874Y226552D01*
X1030373Y226346D01*
X1031504Y226197D01*
X1032635Y226346D01*
X1033688Y226782D01*
X1034593Y227476D01*
X1035287Y228381D01*
X1035723Y229434D01*
X1035872Y230565D01*
X1035723Y231696D01*
X1035287Y232749D01*
X1034593Y233654D01*
X1033688Y234348D01*
X1032635Y234785D01*
X1031504Y234933D01*
X1030869Y234850D01*
X1029591Y236128D01*
X1029874Y236552D01*
X1030373Y236346D01*
X1031504Y236197D01*
X1032635Y236346D01*
X1033688Y236782D01*
X1034593Y237476D01*
X1035287Y238381D01*
X1035723Y239435D01*
X1035872Y240565D01*
X1035723Y241696D01*
X1035287Y242749D01*
X1034593Y243654D01*
X1033688Y244348D01*
X1032635Y244785D01*
X1031504Y244934D01*
X1030869Y244850D01*
X1029591Y246129D01*
X1029874Y246552D01*
X1030373Y246346D01*
X1031504Y246197D01*
X1032635Y246346D01*
X1033688Y246782D01*
X1034593Y247476D01*
X1035287Y248381D01*
X1035723Y249434D01*
X1035872Y250565D01*
X1035723Y251696D01*
X1035287Y252749D01*
X1034593Y253654D01*
X1033688Y254348D01*
X1032635Y254785D01*
X1031504Y254934D01*
X1030373Y254785D01*
X1029320Y254348D01*
X1028415Y253654D01*
X1027721Y252749D01*
X1027285Y251696D01*
X1027136Y250565D01*
X1027285Y249434D01*
X1027534Y248832D01*
X1027123Y248517D01*
X1026929Y248666D01*
X1026306Y248924D01*
X1026066Y248956D01*
X1025755Y249390D01*
X1025733Y249504D01*
X1025872Y250565D01*
X1025723Y251696D01*
X1025287Y252749D01*
X1024593Y253654D01*
X1023688Y254348D01*
X1022635Y254785D01*
X1021504Y254934D01*
X1020373Y254785D01*
X1019320Y254348D01*
X1018415Y253654D01*
X1017721Y252749D01*
X1017284Y251696D01*
X1017136Y250565D01*
X1017252Y249683D01*
X1016915Y249211D01*
X1016573Y249184D01*
X1012674Y253082D01*
Y355753D01*
X1012586Y356421D01*
X1012328Y357044D01*
X1011918Y357578D01*
X1002089Y367408D01*
Y408352D01*
X1005723Y411986D01*
X1040429D01*
X1081417Y370997D01*
X1081265Y369837D01*
X1081434Y368552D01*
X1081930Y367355D01*
X1082719Y366327D01*
X1083747Y365538D01*
X1084944Y365042D01*
X1086228Y364873D01*
X1087513Y365042D01*
X1088710Y365538D01*
X1089738Y366327D01*
X1090527Y367355D01*
X1090972Y368428D01*
X1090973Y368429D01*
X1091484D01*
X1091485Y368428D01*
X1091930Y367355D01*
X1092719Y366327D01*
X1093747Y365538D01*
X1094944Y365042D01*
X1096228Y364873D01*
X1097513Y365042D01*
X1098710Y365538D01*
X1099738Y366327D01*
X1100527Y367355D01*
X1100972Y368428D01*
X1100973Y368429D01*
X1101484D01*
X1101485Y368428D01*
X1101930Y367355D01*
X1102719Y366327D01*
X1103647Y365614D01*
Y362768D01*
X1103735Y362100D01*
X1103993Y361477D01*
X1104403Y360943D01*
X1106639Y358706D01*
X1107174Y358296D01*
X1107796Y358038D01*
X1108465Y357950D01*
X1129134D01*
X1129802Y358038D01*
X1130424Y358296D01*
X1130959Y358706D01*
X1139916Y367663D01*
X1140326Y368198D01*
X1140584Y368820D01*
X1140672Y369488D01*
Y423327D01*
X1140584Y423995D01*
X1140326Y424617D01*
X1139916Y425152D01*
X1128105Y436963D01*
X1127570Y437373D01*
X1126948Y437631D01*
X1126280Y437719D01*
X1104630D01*
X1104605Y437729D01*
X1103937Y437817D01*
D02*
G37*
G36*
X831504Y364933D02*
X830373Y364785D01*
X829320Y364348D01*
X828415Y363654D01*
X827721Y362749D01*
X827285Y361696D01*
X827136Y360565D01*
X827285Y359435D01*
X827721Y358381D01*
X828415Y357476D01*
X829320Y356782D01*
X830373Y356346D01*
X831504Y356197D01*
X832635Y356346D01*
X833688Y356782D01*
X834593Y357476D01*
X835287Y358381D01*
X835723Y359435D01*
X835872Y360565D01*
X835723Y361696D01*
X835287Y362749D01*
X834593Y363654D01*
X833688Y364348D01*
X832635Y364785D01*
X831504Y364933D01*
D02*
G37*
G36*
X821504D02*
X820373Y364785D01*
X819320Y364348D01*
X818415Y363654D01*
X817721Y362749D01*
X817284Y361696D01*
X817136Y360565D01*
X817284Y359435D01*
X817721Y358381D01*
X818415Y357476D01*
X819320Y356782D01*
X820373Y356346D01*
X821504Y356197D01*
X822635Y356346D01*
X823688Y356782D01*
X824593Y357476D01*
X825287Y358381D01*
X825723Y359435D01*
X825872Y360565D01*
X825723Y361696D01*
X825287Y362749D01*
X824593Y363654D01*
X823688Y364348D01*
X822635Y364785D01*
X821504Y364933D01*
D02*
G37*
G36*
X1031504Y354934D02*
X1030373Y354785D01*
X1029320Y354348D01*
X1028415Y353654D01*
X1027721Y352749D01*
X1027285Y351696D01*
X1027136Y350565D01*
X1027285Y349434D01*
X1027721Y348381D01*
X1028415Y347476D01*
X1029320Y346782D01*
X1030373Y346346D01*
X1031504Y346197D01*
X1032635Y346346D01*
X1033688Y346782D01*
X1034593Y347476D01*
X1035287Y348381D01*
X1035723Y349434D01*
X1035872Y350565D01*
X1035723Y351696D01*
X1035287Y352749D01*
X1034593Y353654D01*
X1033688Y354348D01*
X1032635Y354785D01*
X1031504Y354934D01*
D02*
G37*
G36*
X1021504D02*
X1020373Y354785D01*
X1019320Y354348D01*
X1018415Y353654D01*
X1017721Y352749D01*
X1017284Y351696D01*
X1017136Y350565D01*
X1017284Y349434D01*
X1017721Y348381D01*
X1018415Y347476D01*
X1019320Y346782D01*
X1020373Y346346D01*
X1021504Y346197D01*
X1022635Y346346D01*
X1023688Y346782D01*
X1024593Y347476D01*
X1025287Y348381D01*
X1025723Y349434D01*
X1025872Y350565D01*
X1025723Y351696D01*
X1025287Y352749D01*
X1024593Y353654D01*
X1023688Y354348D01*
X1022635Y354785D01*
X1021504Y354934D01*
D02*
G37*
G36*
X831504D02*
X830373Y354785D01*
X829320Y354348D01*
X828415Y353654D01*
X827721Y352749D01*
X827285Y351696D01*
X827136Y350565D01*
X827285Y349434D01*
X827721Y348381D01*
X828415Y347476D01*
X829320Y346782D01*
X830373Y346346D01*
X831504Y346197D01*
X832635Y346346D01*
X833688Y346782D01*
X834593Y347476D01*
X835287Y348381D01*
X835723Y349434D01*
X835872Y350565D01*
X835723Y351696D01*
X835287Y352749D01*
X834593Y353654D01*
X833688Y354348D01*
X832635Y354785D01*
X831504Y354934D01*
D02*
G37*
G36*
X821504D02*
X820373Y354785D01*
X819320Y354348D01*
X818415Y353654D01*
X817721Y352749D01*
X817284Y351696D01*
X817136Y350565D01*
X817284Y349434D01*
X817721Y348381D01*
X818415Y347476D01*
X819320Y346782D01*
X820373Y346346D01*
X821504Y346197D01*
X822635Y346346D01*
X823688Y346782D01*
X824593Y347476D01*
X825287Y348381D01*
X825723Y349434D01*
X825872Y350565D01*
X825723Y351696D01*
X825287Y352749D01*
X824593Y353654D01*
X823688Y354348D01*
X822635Y354785D01*
X821504Y354934D01*
D02*
G37*
G36*
X1031504Y344934D02*
X1030373Y344785D01*
X1029320Y344348D01*
X1028415Y343654D01*
X1027721Y342749D01*
X1027285Y341696D01*
X1027136Y340565D01*
X1027285Y339435D01*
X1027721Y338381D01*
X1028415Y337476D01*
X1029320Y336782D01*
X1030373Y336346D01*
X1031504Y336197D01*
X1032635Y336346D01*
X1033688Y336782D01*
X1034593Y337476D01*
X1035287Y338381D01*
X1035723Y339435D01*
X1035872Y340565D01*
X1035723Y341696D01*
X1035287Y342749D01*
X1034593Y343654D01*
X1033688Y344348D01*
X1032635Y344785D01*
X1031504Y344934D01*
D02*
G37*
G36*
X1021504D02*
X1020373Y344785D01*
X1019320Y344348D01*
X1018415Y343654D01*
X1017721Y342749D01*
X1017284Y341696D01*
X1017136Y340565D01*
X1017284Y339435D01*
X1017721Y338381D01*
X1018415Y337476D01*
X1019320Y336782D01*
X1020373Y336346D01*
X1021504Y336197D01*
X1022635Y336346D01*
X1023688Y336782D01*
X1024593Y337476D01*
X1025287Y338381D01*
X1025723Y339435D01*
X1025872Y340565D01*
X1025723Y341696D01*
X1025287Y342749D01*
X1024593Y343654D01*
X1023688Y344348D01*
X1022635Y344785D01*
X1021504Y344934D01*
D02*
G37*
G36*
X831504D02*
X830373Y344785D01*
X829320Y344348D01*
X828415Y343654D01*
X827721Y342749D01*
X827285Y341696D01*
X827136Y340565D01*
X827285Y339435D01*
X827721Y338381D01*
X828415Y337476D01*
X829320Y336782D01*
X830373Y336346D01*
X831504Y336197D01*
X832635Y336346D01*
X833688Y336782D01*
X834593Y337476D01*
X835287Y338381D01*
X835723Y339435D01*
X835872Y340565D01*
X835723Y341696D01*
X835287Y342749D01*
X834593Y343654D01*
X833688Y344348D01*
X832635Y344785D01*
X831504Y344934D01*
D02*
G37*
G36*
X821504D02*
X820373Y344785D01*
X819320Y344348D01*
X818415Y343654D01*
X817721Y342749D01*
X817284Y341696D01*
X817136Y340565D01*
X817284Y339435D01*
X817721Y338381D01*
X818415Y337476D01*
X819320Y336782D01*
X820373Y336346D01*
X821504Y336197D01*
X822635Y336346D01*
X823688Y336782D01*
X824593Y337476D01*
X825287Y338381D01*
X825723Y339435D01*
X825872Y340565D01*
X825723Y341696D01*
X825287Y342749D01*
X824593Y343654D01*
X823688Y344348D01*
X822635Y344785D01*
X821504Y344934D01*
D02*
G37*
G36*
X1031504Y334933D02*
X1030373Y334785D01*
X1029320Y334348D01*
X1028415Y333654D01*
X1027721Y332749D01*
X1027285Y331696D01*
X1027136Y330565D01*
X1027285Y329434D01*
X1027721Y328381D01*
X1028415Y327476D01*
X1029320Y326782D01*
X1030373Y326346D01*
X1031504Y326197D01*
X1032635Y326346D01*
X1033688Y326782D01*
X1034593Y327476D01*
X1035287Y328381D01*
X1035723Y329434D01*
X1035872Y330565D01*
X1035723Y331696D01*
X1035287Y332749D01*
X1034593Y333654D01*
X1033688Y334348D01*
X1032635Y334785D01*
X1031504Y334933D01*
D02*
G37*
G36*
X1021504D02*
X1020373Y334785D01*
X1019320Y334348D01*
X1018415Y333654D01*
X1017721Y332749D01*
X1017284Y331696D01*
X1017136Y330565D01*
X1017284Y329434D01*
X1017721Y328381D01*
X1018415Y327476D01*
X1019320Y326782D01*
X1020373Y326346D01*
X1021504Y326197D01*
X1022635Y326346D01*
X1023688Y326782D01*
X1024593Y327476D01*
X1025287Y328381D01*
X1025723Y329434D01*
X1025872Y330565D01*
X1025723Y331696D01*
X1025287Y332749D01*
X1024593Y333654D01*
X1023688Y334348D01*
X1022635Y334785D01*
X1021504Y334933D01*
D02*
G37*
G36*
X831504D02*
X830373Y334785D01*
X829320Y334348D01*
X828415Y333654D01*
X827721Y332749D01*
X827285Y331696D01*
X827136Y330565D01*
X827285Y329434D01*
X827721Y328381D01*
X828415Y327476D01*
X829320Y326782D01*
X830373Y326346D01*
X831504Y326197D01*
X832635Y326346D01*
X833688Y326782D01*
X834593Y327476D01*
X835287Y328381D01*
X835723Y329434D01*
X835872Y330565D01*
X835723Y331696D01*
X835287Y332749D01*
X834593Y333654D01*
X833688Y334348D01*
X832635Y334785D01*
X831504Y334933D01*
D02*
G37*
G36*
X1031504Y324934D02*
X1030373Y324785D01*
X1029320Y324348D01*
X1028415Y323654D01*
X1027721Y322749D01*
X1027285Y321696D01*
X1027136Y320565D01*
X1027285Y319434D01*
X1027721Y318381D01*
X1028415Y317476D01*
X1029320Y316782D01*
X1030373Y316346D01*
X1031504Y316197D01*
X1032635Y316346D01*
X1033688Y316782D01*
X1034593Y317476D01*
X1035287Y318381D01*
X1035723Y319434D01*
X1035872Y320565D01*
X1035723Y321696D01*
X1035287Y322749D01*
X1034593Y323654D01*
X1033688Y324348D01*
X1032635Y324785D01*
X1031504Y324934D01*
D02*
G37*
G36*
X1021504D02*
X1020373Y324785D01*
X1019320Y324348D01*
X1018415Y323654D01*
X1017721Y322749D01*
X1017284Y321696D01*
X1017136Y320565D01*
X1017284Y319434D01*
X1017721Y318381D01*
X1018415Y317476D01*
X1019320Y316782D01*
X1020373Y316346D01*
X1021504Y316197D01*
X1022635Y316346D01*
X1023688Y316782D01*
X1024593Y317476D01*
X1025287Y318381D01*
X1025723Y319434D01*
X1025872Y320565D01*
X1025723Y321696D01*
X1025287Y322749D01*
X1024593Y323654D01*
X1023688Y324348D01*
X1022635Y324785D01*
X1021504Y324934D01*
D02*
G37*
G36*
X1031504Y314933D02*
X1030373Y314785D01*
X1029320Y314348D01*
X1028415Y313654D01*
X1027721Y312749D01*
X1027285Y311696D01*
X1027136Y310565D01*
X1027285Y309435D01*
X1027721Y308381D01*
X1028415Y307476D01*
X1029320Y306782D01*
X1030373Y306346D01*
X1031504Y306197D01*
X1032635Y306346D01*
X1033688Y306782D01*
X1034593Y307476D01*
X1035287Y308381D01*
X1035723Y309435D01*
X1035872Y310565D01*
X1035723Y311696D01*
X1035287Y312749D01*
X1034593Y313654D01*
X1033688Y314348D01*
X1032635Y314785D01*
X1031504Y314933D01*
D02*
G37*
G36*
X1021504D02*
X1020373Y314785D01*
X1019320Y314348D01*
X1018415Y313654D01*
X1017721Y312749D01*
X1017284Y311696D01*
X1017136Y310565D01*
X1017284Y309435D01*
X1017721Y308381D01*
X1018415Y307476D01*
X1019320Y306782D01*
X1020373Y306346D01*
X1021504Y306197D01*
X1022635Y306346D01*
X1023688Y306782D01*
X1024593Y307476D01*
X1025287Y308381D01*
X1025723Y309435D01*
X1025872Y310565D01*
X1025723Y311696D01*
X1025287Y312749D01*
X1024593Y313654D01*
X1023688Y314348D01*
X1022635Y314785D01*
X1021504Y314933D01*
D02*
G37*
G36*
X831504D02*
X830373Y314785D01*
X829320Y314348D01*
X828415Y313654D01*
X827721Y312749D01*
X827285Y311696D01*
X827136Y310565D01*
X827285Y309435D01*
X827721Y308381D01*
X828415Y307476D01*
X829320Y306782D01*
X830373Y306346D01*
X831504Y306197D01*
X832635Y306346D01*
X833688Y306782D01*
X834593Y307476D01*
X835287Y308381D01*
X835723Y309435D01*
X835872Y310565D01*
X835723Y311696D01*
X835287Y312749D01*
X834593Y313654D01*
X833688Y314348D01*
X832635Y314785D01*
X831504Y314933D01*
D02*
G37*
G36*
X821504D02*
X820373Y314785D01*
X819320Y314348D01*
X818415Y313654D01*
X817721Y312749D01*
X817284Y311696D01*
X817136Y310565D01*
X817284Y309435D01*
X817721Y308381D01*
X818415Y307476D01*
X819320Y306782D01*
X820373Y306346D01*
X821504Y306197D01*
X822635Y306346D01*
X823688Y306782D01*
X824593Y307476D01*
X825287Y308381D01*
X825723Y309435D01*
X825872Y310565D01*
X825723Y311696D01*
X825287Y312749D01*
X824593Y313654D01*
X823688Y314348D01*
X822635Y314785D01*
X821504Y314933D01*
D02*
G37*
G36*
X1031504Y304934D02*
X1030373Y304785D01*
X1029320Y304348D01*
X1028415Y303654D01*
X1027721Y302749D01*
X1027285Y301696D01*
X1027136Y300565D01*
X1027285Y299434D01*
X1027721Y298381D01*
X1028415Y297476D01*
X1029320Y296782D01*
X1030373Y296346D01*
X1031504Y296197D01*
X1032635Y296346D01*
X1033688Y296782D01*
X1034593Y297476D01*
X1035287Y298381D01*
X1035723Y299434D01*
X1035872Y300565D01*
X1035723Y301696D01*
X1035287Y302749D01*
X1034593Y303654D01*
X1033688Y304348D01*
X1032635Y304785D01*
X1031504Y304934D01*
D02*
G37*
G36*
X1021504D02*
X1020373Y304785D01*
X1019320Y304348D01*
X1018415Y303654D01*
X1017721Y302749D01*
X1017284Y301696D01*
X1017136Y300565D01*
X1017284Y299434D01*
X1017721Y298381D01*
X1018415Y297476D01*
X1019320Y296782D01*
X1020373Y296346D01*
X1021504Y296197D01*
X1022635Y296346D01*
X1023688Y296782D01*
X1024593Y297476D01*
X1025287Y298381D01*
X1025723Y299434D01*
X1025872Y300565D01*
X1025723Y301696D01*
X1025287Y302749D01*
X1024593Y303654D01*
X1023688Y304348D01*
X1022635Y304785D01*
X1021504Y304934D01*
D02*
G37*
G36*
X831504D02*
X830373Y304785D01*
X829320Y304348D01*
X828415Y303654D01*
X827721Y302749D01*
X827285Y301696D01*
X827136Y300565D01*
X827285Y299434D01*
X827721Y298381D01*
X828415Y297476D01*
X829320Y296782D01*
X830373Y296346D01*
X831504Y296197D01*
X832635Y296346D01*
X833688Y296782D01*
X834593Y297476D01*
X835287Y298381D01*
X835723Y299434D01*
X835872Y300565D01*
X835723Y301696D01*
X835287Y302749D01*
X834593Y303654D01*
X833688Y304348D01*
X832635Y304785D01*
X831504Y304934D01*
D02*
G37*
G36*
X821504D02*
X820373Y304785D01*
X819320Y304348D01*
X818415Y303654D01*
X817721Y302749D01*
X817284Y301696D01*
X817136Y300565D01*
X817284Y299434D01*
X817721Y298381D01*
X818415Y297476D01*
X819320Y296782D01*
X820373Y296346D01*
X821504Y296197D01*
X822635Y296346D01*
X823688Y296782D01*
X824593Y297476D01*
X825287Y298381D01*
X825723Y299434D01*
X825872Y300565D01*
X825723Y301696D01*
X825287Y302749D01*
X824593Y303654D01*
X823688Y304348D01*
X822635Y304785D01*
X821504Y304934D01*
D02*
G37*
G36*
X1031504Y294934D02*
X1030373Y294785D01*
X1029320Y294348D01*
X1028415Y293654D01*
X1027721Y292749D01*
X1027285Y291696D01*
X1027136Y290565D01*
X1027285Y289435D01*
X1027721Y288381D01*
X1028415Y287476D01*
X1029320Y286782D01*
X1030373Y286346D01*
X1031504Y286197D01*
X1032635Y286346D01*
X1033688Y286782D01*
X1034593Y287476D01*
X1035287Y288381D01*
X1035723Y289435D01*
X1035872Y290565D01*
X1035723Y291696D01*
X1035287Y292749D01*
X1034593Y293654D01*
X1033688Y294348D01*
X1032635Y294785D01*
X1031504Y294934D01*
D02*
G37*
G36*
X1021504D02*
X1020373Y294785D01*
X1019320Y294348D01*
X1018415Y293654D01*
X1017721Y292749D01*
X1017284Y291696D01*
X1017136Y290565D01*
X1017284Y289435D01*
X1017721Y288381D01*
X1018415Y287476D01*
X1019320Y286782D01*
X1020373Y286346D01*
X1021504Y286197D01*
X1022635Y286346D01*
X1023688Y286782D01*
X1024593Y287476D01*
X1025287Y288381D01*
X1025723Y289435D01*
X1025872Y290565D01*
X1025723Y291696D01*
X1025287Y292749D01*
X1024593Y293654D01*
X1023688Y294348D01*
X1022635Y294785D01*
X1021504Y294934D01*
D02*
G37*
G36*
X831504D02*
X830373Y294785D01*
X829320Y294348D01*
X828415Y293654D01*
X827721Y292749D01*
X827285Y291696D01*
X827136Y290565D01*
X827285Y289435D01*
X827721Y288381D01*
X828415Y287476D01*
X829320Y286782D01*
X830373Y286346D01*
X831504Y286197D01*
X832635Y286346D01*
X833688Y286782D01*
X834593Y287476D01*
X835287Y288381D01*
X835723Y289435D01*
X835872Y290565D01*
X835723Y291696D01*
X835287Y292749D01*
X834593Y293654D01*
X833688Y294348D01*
X832635Y294785D01*
X831504Y294934D01*
D02*
G37*
G36*
X821504D02*
X820373Y294785D01*
X819320Y294348D01*
X818415Y293654D01*
X817721Y292749D01*
X817284Y291696D01*
X817136Y290565D01*
X817284Y289435D01*
X817721Y288381D01*
X818415Y287476D01*
X819320Y286782D01*
X820373Y286346D01*
X821504Y286197D01*
X822635Y286346D01*
X823688Y286782D01*
X824593Y287476D01*
X825287Y288381D01*
X825723Y289435D01*
X825872Y290565D01*
X825723Y291696D01*
X825287Y292749D01*
X824593Y293654D01*
X823688Y294348D01*
X822635Y294785D01*
X821504Y294934D01*
D02*
G37*
G36*
X1031504Y284933D02*
X1030373Y284785D01*
X1029320Y284348D01*
X1028415Y283654D01*
X1027721Y282749D01*
X1027285Y281696D01*
X1027136Y280565D01*
X1027285Y279434D01*
X1027721Y278381D01*
X1028415Y277476D01*
X1029320Y276782D01*
X1030373Y276346D01*
X1031504Y276197D01*
X1032635Y276346D01*
X1033688Y276782D01*
X1034593Y277476D01*
X1035287Y278381D01*
X1035723Y279434D01*
X1035872Y280565D01*
X1035723Y281696D01*
X1035287Y282749D01*
X1034593Y283654D01*
X1033688Y284348D01*
X1032635Y284785D01*
X1031504Y284933D01*
D02*
G37*
G36*
X1021504D02*
X1020373Y284785D01*
X1019320Y284348D01*
X1018415Y283654D01*
X1017721Y282749D01*
X1017284Y281696D01*
X1017136Y280565D01*
X1017284Y279434D01*
X1017721Y278381D01*
X1018415Y277476D01*
X1019320Y276782D01*
X1020373Y276346D01*
X1021504Y276197D01*
X1022635Y276346D01*
X1023688Y276782D01*
X1024593Y277476D01*
X1025287Y278381D01*
X1025723Y279434D01*
X1025872Y280565D01*
X1025723Y281696D01*
X1025287Y282749D01*
X1024593Y283654D01*
X1023688Y284348D01*
X1022635Y284785D01*
X1021504Y284933D01*
D02*
G37*
G36*
X831504D02*
X830373Y284785D01*
X829320Y284348D01*
X828415Y283654D01*
X827721Y282749D01*
X827285Y281696D01*
X827136Y280565D01*
X827285Y279434D01*
X827721Y278381D01*
X828415Y277476D01*
X829320Y276782D01*
X830373Y276346D01*
X831504Y276197D01*
X832635Y276346D01*
X833688Y276782D01*
X834593Y277476D01*
X835287Y278381D01*
X835723Y279434D01*
X835872Y280565D01*
X835723Y281696D01*
X835287Y282749D01*
X834593Y283654D01*
X833688Y284348D01*
X832635Y284785D01*
X831504Y284933D01*
D02*
G37*
G36*
X821504D02*
X820373Y284785D01*
X819320Y284348D01*
X818415Y283654D01*
X817721Y282749D01*
X817284Y281696D01*
X817136Y280565D01*
X817284Y279434D01*
X817721Y278381D01*
X818415Y277476D01*
X819320Y276782D01*
X820373Y276346D01*
X821504Y276197D01*
X822635Y276346D01*
X823688Y276782D01*
X824593Y277476D01*
X825287Y278381D01*
X825723Y279434D01*
X825872Y280565D01*
X825723Y281696D01*
X825287Y282749D01*
X824593Y283654D01*
X823688Y284348D01*
X822635Y284785D01*
X821504Y284933D01*
D02*
G37*
G36*
X1031504Y274934D02*
X1030373Y274785D01*
X1029320Y274348D01*
X1028415Y273654D01*
X1027721Y272749D01*
X1027285Y271696D01*
X1027136Y270565D01*
X1027285Y269434D01*
X1027721Y268381D01*
X1028415Y267476D01*
X1029320Y266782D01*
X1030373Y266346D01*
X1031504Y266197D01*
X1032635Y266346D01*
X1033688Y266782D01*
X1034593Y267476D01*
X1035287Y268381D01*
X1035723Y269434D01*
X1035872Y270565D01*
X1035723Y271696D01*
X1035287Y272749D01*
X1034593Y273654D01*
X1033688Y274348D01*
X1032635Y274785D01*
X1031504Y274934D01*
D02*
G37*
G36*
X1021504D02*
X1020373Y274785D01*
X1019320Y274348D01*
X1018415Y273654D01*
X1017721Y272749D01*
X1017284Y271696D01*
X1017136Y270565D01*
X1017284Y269434D01*
X1017721Y268381D01*
X1018415Y267476D01*
X1019320Y266782D01*
X1020373Y266346D01*
X1021504Y266197D01*
X1022635Y266346D01*
X1023688Y266782D01*
X1024593Y267476D01*
X1025287Y268381D01*
X1025723Y269434D01*
X1025872Y270565D01*
X1025723Y271696D01*
X1025287Y272749D01*
X1024593Y273654D01*
X1023688Y274348D01*
X1022635Y274785D01*
X1021504Y274934D01*
D02*
G37*
G36*
X831504D02*
X830373Y274785D01*
X829320Y274348D01*
X828415Y273654D01*
X827721Y272749D01*
X827285Y271696D01*
X827136Y270565D01*
X827285Y269434D01*
X827721Y268381D01*
X828415Y267476D01*
X829320Y266782D01*
X830373Y266346D01*
X831504Y266197D01*
X832635Y266346D01*
X833688Y266782D01*
X834593Y267476D01*
X835287Y268381D01*
X835723Y269434D01*
X835872Y270565D01*
X835723Y271696D01*
X835287Y272749D01*
X834593Y273654D01*
X833688Y274348D01*
X832635Y274785D01*
X831504Y274934D01*
D02*
G37*
G36*
X821504D02*
X820373Y274785D01*
X819320Y274348D01*
X818415Y273654D01*
X817721Y272749D01*
X817284Y271696D01*
X817136Y270565D01*
X817284Y269434D01*
X817721Y268381D01*
X818415Y267476D01*
X819320Y266782D01*
X820373Y266346D01*
X821504Y266197D01*
X822635Y266346D01*
X823688Y266782D01*
X824593Y267476D01*
X825287Y268381D01*
X825723Y269434D01*
X825872Y270565D01*
X825723Y271696D01*
X825287Y272749D01*
X824593Y273654D01*
X823688Y274348D01*
X822635Y274785D01*
X821504Y274934D01*
D02*
G37*
G36*
X1021504Y264933D02*
X1020373Y264785D01*
X1019320Y264348D01*
X1018415Y263654D01*
X1017721Y262749D01*
X1017284Y261696D01*
X1017136Y260565D01*
X1017284Y259435D01*
X1017721Y258381D01*
X1018415Y257476D01*
X1019320Y256782D01*
X1020373Y256346D01*
X1021504Y256197D01*
X1022635Y256346D01*
X1023688Y256782D01*
X1024593Y257476D01*
X1025287Y258381D01*
X1025723Y259435D01*
X1025872Y260565D01*
X1025723Y261696D01*
X1025287Y262749D01*
X1024593Y263654D01*
X1023688Y264348D01*
X1022635Y264785D01*
X1021504Y264933D01*
D02*
G37*
G36*
X831504D02*
X830373Y264785D01*
X829320Y264348D01*
X828415Y263654D01*
X827721Y262749D01*
X827285Y261696D01*
X827136Y260565D01*
X827285Y259435D01*
X827721Y258381D01*
X828415Y257476D01*
X829320Y256782D01*
X830373Y256346D01*
X831504Y256197D01*
X832635Y256346D01*
X833688Y256782D01*
X834593Y257476D01*
X835287Y258381D01*
X835723Y259435D01*
X835872Y260565D01*
X835723Y261696D01*
X835287Y262749D01*
X834593Y263654D01*
X833688Y264348D01*
X832635Y264785D01*
X831504Y264933D01*
D02*
G37*
G36*
X821504D02*
X820373Y264785D01*
X819320Y264348D01*
X818415Y263654D01*
X817721Y262749D01*
X817284Y261696D01*
X817136Y260565D01*
X817284Y259435D01*
X817721Y258381D01*
X818415Y257476D01*
X819320Y256782D01*
X820373Y256346D01*
X821504Y256197D01*
X822635Y256346D01*
X823688Y256782D01*
X824593Y257476D01*
X825287Y258381D01*
X825723Y259435D01*
X825872Y260565D01*
X825723Y261696D01*
X825287Y262749D01*
X824593Y263654D01*
X823688Y264348D01*
X822635Y264785D01*
X821504Y264933D01*
D02*
G37*
G36*
Y254934D02*
X820373Y254785D01*
X819320Y254348D01*
X818415Y253654D01*
X817819Y252876D01*
X808307D01*
Y253287D01*
X802323D01*
Y247303D01*
X808307D01*
Y247714D01*
X818233D01*
X818415Y247476D01*
X819320Y246782D01*
X820373Y246346D01*
X821504Y246197D01*
X822635Y246346D01*
X823688Y246782D01*
X824593Y247476D01*
X825287Y248381D01*
X825723Y249434D01*
X825872Y250565D01*
X825723Y251696D01*
X825287Y252749D01*
X824593Y253654D01*
X823688Y254348D01*
X822635Y254785D01*
X821504Y254934D01*
D02*
G37*
G36*
X831504D02*
X830373Y254785D01*
X829320Y254348D01*
X828415Y253654D01*
X827721Y252749D01*
X827285Y251696D01*
X827136Y250565D01*
X827285Y249434D01*
X827721Y248381D01*
X828415Y247476D01*
X829320Y246782D01*
X830373Y246346D01*
X831504Y246197D01*
X832635Y246346D01*
X833688Y246782D01*
X834593Y247476D01*
X835287Y248381D01*
X835723Y249434D01*
X835872Y250565D01*
X835723Y251696D01*
X835287Y252749D01*
X834593Y253654D01*
X833688Y254348D01*
X832635Y254785D01*
X831504Y254934D01*
D02*
G37*
G36*
Y244934D02*
X830373Y244785D01*
X829320Y244348D01*
X828415Y243654D01*
X827721Y242749D01*
X827285Y241696D01*
X827136Y240565D01*
X827285Y239435D01*
X827721Y238381D01*
X828415Y237476D01*
X829320Y236782D01*
X830373Y236346D01*
X831504Y236197D01*
X832635Y236346D01*
X833688Y236782D01*
X834593Y237476D01*
X835287Y238381D01*
X835723Y239435D01*
X835872Y240565D01*
X835723Y241696D01*
X835287Y242749D01*
X834593Y243654D01*
X833688Y244348D01*
X832635Y244785D01*
X831504Y244934D01*
D02*
G37*
G36*
X821504D02*
X820373Y244785D01*
X819320Y244348D01*
X818415Y243654D01*
X817721Y242749D01*
X817284Y241696D01*
X817136Y240565D01*
X817284Y239435D01*
X817721Y238381D01*
X818415Y237476D01*
X819320Y236782D01*
X820373Y236346D01*
X821504Y236197D01*
X822635Y236346D01*
X823688Y236782D01*
X824593Y237476D01*
X825287Y238381D01*
X825723Y239435D01*
X825872Y240565D01*
X825723Y241696D01*
X825287Y242749D01*
X824593Y243654D01*
X823688Y244348D01*
X822635Y244785D01*
X821504Y244934D01*
D02*
G37*
G36*
X831504Y234933D02*
X830373Y234785D01*
X829320Y234348D01*
X828415Y233654D01*
X827721Y232749D01*
X827285Y231696D01*
X827136Y230565D01*
X827285Y229434D01*
X827721Y228381D01*
X828415Y227476D01*
X829320Y226782D01*
X830373Y226346D01*
X831504Y226197D01*
X832635Y226346D01*
X833688Y226782D01*
X834593Y227476D01*
X835287Y228381D01*
X835723Y229434D01*
X835872Y230565D01*
X835723Y231696D01*
X835287Y232749D01*
X834593Y233654D01*
X833688Y234348D01*
X832635Y234785D01*
X831504Y234933D01*
D02*
G37*
G36*
X821504D02*
X820373Y234785D01*
X819320Y234348D01*
X818415Y233654D01*
X817721Y232749D01*
X817284Y231696D01*
X817136Y230565D01*
X817284Y229434D01*
X817721Y228381D01*
X818415Y227476D01*
X819320Y226782D01*
X820373Y226346D01*
X821504Y226197D01*
X822635Y226346D01*
X823688Y226782D01*
X824593Y227476D01*
X825287Y228381D01*
X825723Y229434D01*
X825872Y230565D01*
X825723Y231696D01*
X825287Y232749D01*
X824593Y233654D01*
X823688Y234348D01*
X822635Y234785D01*
X821504Y234933D01*
D02*
G37*
G36*
X831504Y224934D02*
X830373Y224785D01*
X829320Y224348D01*
X828415Y223654D01*
X827721Y222749D01*
X827285Y221696D01*
X827136Y220565D01*
X827285Y219434D01*
X827721Y218381D01*
X828415Y217476D01*
X829320Y216782D01*
X830373Y216346D01*
X831504Y216197D01*
X832635Y216346D01*
X833688Y216782D01*
X834593Y217476D01*
X835287Y218381D01*
X835723Y219434D01*
X835872Y220565D01*
X835723Y221696D01*
X835287Y222749D01*
X834593Y223654D01*
X833688Y224348D01*
X832635Y224785D01*
X831504Y224934D01*
D02*
G37*
G36*
X821504D02*
X820373Y224785D01*
X819320Y224348D01*
X818415Y223654D01*
X817721Y222749D01*
X817284Y221696D01*
X817136Y220565D01*
X817284Y219434D01*
X817721Y218381D01*
X818415Y217476D01*
X819320Y216782D01*
X820373Y216346D01*
X821504Y216197D01*
X822635Y216346D01*
X823688Y216782D01*
X824593Y217476D01*
X825287Y218381D01*
X825723Y219434D01*
X825872Y220565D01*
X825723Y221696D01*
X825287Y222749D01*
X824593Y223654D01*
X823688Y224348D01*
X822635Y224785D01*
X821504Y224934D01*
D02*
G37*
G36*
X1031504Y214933D02*
X1030373Y214785D01*
X1029320Y214348D01*
X1028415Y213654D01*
X1027721Y212749D01*
X1027285Y211696D01*
X1027136Y210565D01*
X1027285Y209435D01*
X1027721Y208381D01*
X1028415Y207476D01*
X1029320Y206782D01*
X1030373Y206346D01*
X1031504Y206197D01*
X1032635Y206346D01*
X1033688Y206782D01*
X1034593Y207476D01*
X1035287Y208381D01*
X1035723Y209435D01*
X1035872Y210565D01*
X1035723Y211696D01*
X1035287Y212749D01*
X1034593Y213654D01*
X1033688Y214348D01*
X1032635Y214785D01*
X1031504Y214933D01*
D02*
G37*
G36*
X1021504D02*
X1020373Y214785D01*
X1019320Y214348D01*
X1018415Y213654D01*
X1017721Y212749D01*
X1017284Y211696D01*
X1017136Y210565D01*
X1017284Y209435D01*
X1017721Y208381D01*
X1018415Y207476D01*
X1019320Y206782D01*
X1020373Y206346D01*
X1021504Y206197D01*
X1022635Y206346D01*
X1023688Y206782D01*
X1024593Y207476D01*
X1025287Y208381D01*
X1025723Y209435D01*
X1025872Y210565D01*
X1025723Y211696D01*
X1025287Y212749D01*
X1024593Y213654D01*
X1023688Y214348D01*
X1022635Y214785D01*
X1021504Y214933D01*
D02*
G37*
G36*
X831504D02*
X830373Y214785D01*
X829320Y214348D01*
X828415Y213654D01*
X827721Y212749D01*
X827285Y211696D01*
X827136Y210565D01*
X827285Y209435D01*
X827721Y208381D01*
X828415Y207476D01*
X829320Y206782D01*
X830373Y206346D01*
X831504Y206197D01*
X832635Y206346D01*
X833688Y206782D01*
X834593Y207476D01*
X835287Y208381D01*
X835723Y209435D01*
X835872Y210565D01*
X835723Y211696D01*
X835287Y212749D01*
X834593Y213654D01*
X833688Y214348D01*
X832635Y214785D01*
X831504Y214933D01*
D02*
G37*
G36*
X821504D02*
X820373Y214785D01*
X819320Y214348D01*
X818415Y213654D01*
X817721Y212749D01*
X817284Y211696D01*
X817136Y210565D01*
X817284Y209435D01*
X817721Y208381D01*
X818415Y207476D01*
X819320Y206782D01*
X820373Y206346D01*
X821504Y206197D01*
X822635Y206346D01*
X823688Y206782D01*
X824593Y207476D01*
X825287Y208381D01*
X825723Y209435D01*
X825872Y210565D01*
X825723Y211696D01*
X825287Y212749D01*
X824593Y213654D01*
X823688Y214348D01*
X822635Y214785D01*
X821504Y214933D01*
D02*
G37*
G36*
X1031504Y204934D02*
X1030373Y204785D01*
X1029320Y204348D01*
X1028415Y203654D01*
X1027721Y202749D01*
X1027285Y201696D01*
X1027136Y200565D01*
X1027285Y199434D01*
X1027721Y198381D01*
X1028415Y197476D01*
X1029320Y196782D01*
X1030373Y196346D01*
X1031504Y196197D01*
X1032635Y196346D01*
X1033688Y196782D01*
X1034593Y197476D01*
X1035287Y198381D01*
X1035723Y199434D01*
X1035872Y200565D01*
X1035723Y201696D01*
X1035287Y202749D01*
X1034593Y203654D01*
X1033688Y204348D01*
X1032635Y204785D01*
X1031504Y204934D01*
D02*
G37*
G36*
X1021504D02*
X1020373Y204785D01*
X1019320Y204348D01*
X1018415Y203654D01*
X1017721Y202749D01*
X1017284Y201696D01*
X1017136Y200565D01*
X1017284Y199434D01*
X1017721Y198381D01*
X1018415Y197476D01*
X1019320Y196782D01*
X1020373Y196346D01*
X1021504Y196197D01*
X1022635Y196346D01*
X1023688Y196782D01*
X1024593Y197476D01*
X1025287Y198381D01*
X1025723Y199434D01*
X1025872Y200565D01*
X1025723Y201696D01*
X1025287Y202749D01*
X1024593Y203654D01*
X1023688Y204348D01*
X1022635Y204785D01*
X1021504Y204934D01*
D02*
G37*
G36*
X831504D02*
X830373Y204785D01*
X829320Y204348D01*
X828415Y203654D01*
X827721Y202749D01*
X827285Y201696D01*
X827136Y200565D01*
X827285Y199434D01*
X827721Y198381D01*
X828415Y197476D01*
X829320Y196782D01*
X830373Y196346D01*
X831504Y196197D01*
X832635Y196346D01*
X833688Y196782D01*
X834593Y197476D01*
X835287Y198381D01*
X835723Y199434D01*
X835872Y200565D01*
X835723Y201696D01*
X835287Y202749D01*
X834593Y203654D01*
X833688Y204348D01*
X832635Y204785D01*
X831504Y204934D01*
D02*
G37*
G36*
X821504D02*
X820373Y204785D01*
X819320Y204348D01*
X818415Y203654D01*
X817721Y202749D01*
X817284Y201696D01*
X817136Y200565D01*
X817284Y199434D01*
X817721Y198381D01*
X818415Y197476D01*
X819320Y196782D01*
X820373Y196346D01*
X821504Y196197D01*
X822635Y196346D01*
X823688Y196782D01*
X824593Y197476D01*
X825287Y198381D01*
X825723Y199434D01*
X825872Y200565D01*
X825723Y201696D01*
X825287Y202749D01*
X824593Y203654D01*
X823688Y204348D01*
X822635Y204785D01*
X821504Y204934D01*
D02*
G37*
G36*
X1031504Y194933D02*
X1030373Y194785D01*
X1029320Y194348D01*
X1028415Y193654D01*
X1027721Y192749D01*
X1027285Y191696D01*
X1027136Y190565D01*
X1027285Y189435D01*
X1027721Y188381D01*
X1028415Y187476D01*
X1029320Y186782D01*
X1030373Y186346D01*
X1031504Y186197D01*
X1032635Y186346D01*
X1033688Y186782D01*
X1034593Y187476D01*
X1035287Y188381D01*
X1035723Y189435D01*
X1035872Y190565D01*
X1035723Y191696D01*
X1035287Y192749D01*
X1034593Y193654D01*
X1033688Y194348D01*
X1032635Y194785D01*
X1031504Y194933D01*
D02*
G37*
G36*
X1021504D02*
X1020373Y194785D01*
X1019320Y194348D01*
X1018415Y193654D01*
X1017721Y192749D01*
X1017284Y191696D01*
X1017136Y190565D01*
X1017284Y189435D01*
X1017721Y188381D01*
X1018415Y187476D01*
X1019320Y186782D01*
X1020373Y186346D01*
X1021504Y186197D01*
X1022635Y186346D01*
X1023688Y186782D01*
X1024593Y187476D01*
X1025287Y188381D01*
X1025723Y189435D01*
X1025872Y190565D01*
X1025723Y191696D01*
X1025287Y192749D01*
X1024593Y193654D01*
X1023688Y194348D01*
X1022635Y194785D01*
X1021504Y194933D01*
D02*
G37*
G36*
X831504D02*
X830373Y194785D01*
X829320Y194348D01*
X828415Y193654D01*
X827721Y192749D01*
X827285Y191696D01*
X827136Y190565D01*
X827285Y189435D01*
X827721Y188381D01*
X828415Y187476D01*
X829320Y186782D01*
X830373Y186346D01*
X831504Y186197D01*
X832635Y186346D01*
X833688Y186782D01*
X834593Y187476D01*
X835287Y188381D01*
X835723Y189435D01*
X835872Y190565D01*
X835723Y191696D01*
X835287Y192749D01*
X834593Y193654D01*
X833688Y194348D01*
X832635Y194785D01*
X831504Y194933D01*
D02*
G37*
G36*
X821504D02*
X820373Y194785D01*
X819320Y194348D01*
X818415Y193654D01*
X817721Y192749D01*
X817284Y191696D01*
X817136Y190565D01*
X817284Y189435D01*
X817721Y188381D01*
X818415Y187476D01*
X819320Y186782D01*
X820373Y186346D01*
X821504Y186197D01*
X822635Y186346D01*
X823688Y186782D01*
X824593Y187476D01*
X825287Y188381D01*
X825723Y189435D01*
X825872Y190565D01*
X825723Y191696D01*
X825287Y192749D01*
X824593Y193654D01*
X823688Y194348D01*
X822635Y194785D01*
X821504Y194933D01*
D02*
G37*
G36*
X1031504Y184933D02*
X1030373Y184785D01*
X1029320Y184348D01*
X1028415Y183654D01*
X1027721Y182749D01*
X1027285Y181696D01*
X1027136Y180565D01*
X1027285Y179435D01*
X1027721Y178381D01*
X1028415Y177476D01*
X1029320Y176782D01*
X1030373Y176346D01*
X1031504Y176197D01*
X1032635Y176346D01*
X1033688Y176782D01*
X1034593Y177476D01*
X1035287Y178381D01*
X1035723Y179435D01*
X1035872Y180565D01*
X1035723Y181696D01*
X1035287Y182749D01*
X1034593Y183654D01*
X1033688Y184348D01*
X1032635Y184785D01*
X1031504Y184933D01*
D02*
G37*
G36*
X1021504D02*
X1020373Y184785D01*
X1019320Y184348D01*
X1018415Y183654D01*
X1017721Y182749D01*
X1017284Y181696D01*
X1017136Y180565D01*
X1017284Y179435D01*
X1017721Y178381D01*
X1018415Y177476D01*
X1019320Y176782D01*
X1020373Y176346D01*
X1021504Y176197D01*
X1022635Y176346D01*
X1023688Y176782D01*
X1024593Y177476D01*
X1025287Y178381D01*
X1025723Y179435D01*
X1025872Y180565D01*
X1025723Y181696D01*
X1025287Y182749D01*
X1024593Y183654D01*
X1023688Y184348D01*
X1022635Y184785D01*
X1021504Y184933D01*
D02*
G37*
G36*
X831504D02*
X830373Y184785D01*
X829320Y184348D01*
X828415Y183654D01*
X827721Y182749D01*
X827285Y181696D01*
X827136Y180565D01*
X827285Y179435D01*
X827721Y178381D01*
X828415Y177476D01*
X829320Y176782D01*
X830373Y176346D01*
X831504Y176197D01*
X832635Y176346D01*
X833688Y176782D01*
X834593Y177476D01*
X835287Y178381D01*
X835723Y179435D01*
X835872Y180565D01*
X835723Y181696D01*
X835287Y182749D01*
X834593Y183654D01*
X833688Y184348D01*
X832635Y184785D01*
X831504Y184933D01*
D02*
G37*
G36*
X821504D02*
X820373Y184785D01*
X819320Y184348D01*
X818415Y183654D01*
X817721Y182749D01*
X817284Y181696D01*
X817136Y180565D01*
X817284Y179435D01*
X817721Y178381D01*
X818415Y177476D01*
X819320Y176782D01*
X820373Y176346D01*
X821504Y176197D01*
X822635Y176346D01*
X823688Y176782D01*
X824593Y177476D01*
X825287Y178381D01*
X825723Y179435D01*
X825872Y180565D01*
X825723Y181696D01*
X825287Y182749D01*
X824593Y183654D01*
X823688Y184348D01*
X822635Y184785D01*
X821504Y184933D01*
D02*
G37*
G36*
Y174934D02*
X820373Y174785D01*
X819320Y174348D01*
X818415Y173654D01*
X817803Y172857D01*
X814705D01*
Y173268D01*
X808720D01*
Y167283D01*
X814705D01*
Y167694D01*
X818248D01*
X818415Y167476D01*
X819320Y166782D01*
X820373Y166346D01*
X821504Y166197D01*
X822635Y166346D01*
X823688Y166782D01*
X824593Y167476D01*
X825287Y168381D01*
X825723Y169434D01*
X825872Y170565D01*
X825723Y171696D01*
X825287Y172749D01*
X824593Y173654D01*
X823688Y174348D01*
X822635Y174785D01*
X821504Y174934D01*
D02*
G37*
G36*
X831504D02*
X830373Y174785D01*
X829320Y174348D01*
X828415Y173654D01*
X827721Y172749D01*
X827285Y171696D01*
X827136Y170565D01*
X827285Y169434D01*
X827721Y168381D01*
X828415Y167476D01*
X829320Y166782D01*
X830373Y166346D01*
X831504Y166197D01*
X832635Y166346D01*
X833688Y166782D01*
X834593Y167476D01*
X834656Y167559D01*
X838512D01*
Y167148D01*
X844496D01*
Y173132D01*
X838512D01*
Y172721D01*
X835299D01*
X835287Y172749D01*
X834593Y173654D01*
X833688Y174348D01*
X832635Y174785D01*
X831504Y174934D01*
D02*
G37*
G36*
X1021504D02*
X1020373Y174785D01*
X1019320Y174348D01*
X1018415Y173654D01*
X1017721Y172749D01*
X1017284Y171696D01*
X1017136Y170565D01*
X1017284Y169434D01*
X1017721Y168381D01*
X1018415Y167476D01*
X1019320Y166782D01*
X1020373Y166346D01*
X1021504Y166197D01*
X1022635Y166346D01*
X1023688Y166782D01*
X1024593Y167476D01*
X1025287Y168381D01*
X1025723Y169434D01*
X1025872Y170565D01*
X1025723Y171696D01*
X1025287Y172749D01*
X1024593Y173654D01*
X1023688Y174348D01*
X1022635Y174785D01*
X1021504Y174934D01*
D02*
G37*
G36*
Y164934D02*
X1020373Y164785D01*
X1019320Y164348D01*
X1018503Y163721D01*
X1013996D01*
Y164132D01*
X1008012D01*
Y158148D01*
X1013996D01*
Y158559D01*
X1017647D01*
X1017721Y158381D01*
X1018415Y157476D01*
X1019320Y156782D01*
X1020373Y156346D01*
X1021504Y156197D01*
X1022635Y156346D01*
X1023688Y156782D01*
X1024593Y157476D01*
X1025287Y158381D01*
X1025723Y159434D01*
X1025872Y160565D01*
X1025723Y161696D01*
X1025287Y162749D01*
X1024593Y163654D01*
X1023688Y164348D01*
X1022635Y164785D01*
X1021504Y164934D01*
D02*
G37*
G36*
X1031504D02*
X1030373Y164785D01*
X1029320Y164348D01*
X1028415Y163654D01*
X1027721Y162749D01*
X1027285Y161696D01*
X1027136Y160565D01*
X1027285Y159434D01*
X1027721Y158381D01*
X1028415Y157476D01*
X1029320Y156782D01*
X1030373Y156346D01*
X1031504Y156197D01*
X1032635Y156346D01*
X1033688Y156782D01*
X1034056Y157065D01*
X1040413D01*
Y156654D01*
X1046398D01*
Y162638D01*
X1040413D01*
Y162227D01*
X1035503D01*
X1035287Y162749D01*
X1034593Y163654D01*
X1033688Y164348D01*
X1032635Y164785D01*
X1031504Y164934D01*
D02*
G37*
G36*
X831504D02*
X830373Y164785D01*
X829320Y164348D01*
X828415Y163654D01*
X827721Y162749D01*
X827285Y161696D01*
X827136Y160565D01*
X827285Y159434D01*
X827721Y158381D01*
X828415Y157476D01*
X829320Y156782D01*
X830373Y156346D01*
X831504Y156197D01*
X832635Y156346D01*
X833688Y156782D01*
X834593Y157476D01*
X835287Y158381D01*
X835723Y159434D01*
X835872Y160565D01*
X835723Y161696D01*
X835287Y162749D01*
X834593Y163654D01*
X833688Y164348D01*
X832635Y164785D01*
X831504Y164934D01*
D02*
G37*
G36*
X821504D02*
X820373Y164785D01*
X819320Y164348D01*
X818415Y163654D01*
X817721Y162749D01*
X817284Y161696D01*
X817136Y160565D01*
X817284Y159434D01*
X817721Y158381D01*
X818415Y157476D01*
X819320Y156782D01*
X820373Y156346D01*
X821504Y156197D01*
X822635Y156346D01*
X823688Y156782D01*
X824593Y157476D01*
X825287Y158381D01*
X825723Y159434D01*
X825872Y160565D01*
X825723Y161696D01*
X825287Y162749D01*
X824593Y163654D01*
X823688Y164348D01*
X822635Y164785D01*
X821504Y164934D01*
D02*
G37*
%LPD*%
G36*
X1037970Y393813D02*
Y387106D01*
X1038058Y386438D01*
X1038316Y385816D01*
X1038726Y385281D01*
X1078490Y345517D01*
X1078894Y345207D01*
X1078733Y344707D01*
X1076859D01*
X1034800Y386766D01*
X1034265Y387176D01*
X1033643Y387434D01*
X1032975Y387522D01*
X1028248D01*
X1027580Y387434D01*
X1026958Y387176D01*
X1026423Y386766D01*
X1023868Y384211D01*
X1023688Y384348D01*
X1022635Y384785D01*
X1021504Y384933D01*
X1020373Y384785D01*
X1019320Y384348D01*
X1018415Y383654D01*
X1017721Y382749D01*
X1017284Y381696D01*
X1017136Y380565D01*
X1017284Y379434D01*
X1017721Y378381D01*
X1018415Y377476D01*
X1019320Y376782D01*
X1019972Y376512D01*
X1020089Y375922D01*
X1019679Y375512D01*
X1019269Y374977D01*
X1019011Y374355D01*
X1018975Y374084D01*
X1018415Y373654D01*
X1017721Y372749D01*
X1017284Y371696D01*
X1017136Y370565D01*
X1017284Y369434D01*
X1017491Y368935D01*
X1017067Y368652D01*
X1008290Y377430D01*
Y391254D01*
X1012880Y395844D01*
X1035939D01*
X1037970Y393813D01*
D02*
G37*
G36*
X1038090Y417610D02*
X1037899Y417148D01*
X1008755D01*
X1008563Y417610D01*
X1012388Y421435D01*
X1034266D01*
X1038090Y417610D01*
D02*
G37*
G36*
X1087244Y385171D02*
X1087010Y384698D01*
X1086228Y384801D01*
X1085068Y384648D01*
X1041906Y427809D01*
X1041372Y428220D01*
X1041475Y428718D01*
X1043697D01*
X1087244Y385171D01*
D02*
G37*
G36*
X1096101Y385288D02*
X1095922Y384760D01*
X1095068Y384648D01*
X1049491Y430225D01*
X1049682Y430687D01*
X1050702D01*
X1096101Y385288D01*
D02*
G37*
G36*
X1103367Y432645D02*
X1104035Y432557D01*
X1125210D01*
X1135509Y422258D01*
Y370557D01*
X1128065Y363113D01*
X1109534D01*
X1108810Y363837D01*
Y365614D01*
X1109738Y366327D01*
X1110527Y367355D01*
X1110807Y368031D01*
X1111307Y367932D01*
Y364915D01*
X1121150D01*
Y367644D01*
X1121628Y368012D01*
X1125887Y372270D01*
X1128221D01*
Y378254D01*
X1122236D01*
Y375920D01*
X1121074Y374758D01*
X1111307D01*
Y371742D01*
X1110807Y371643D01*
X1110527Y372319D01*
X1109738Y373347D01*
X1108710Y374135D01*
X1107637Y374580D01*
X1107637Y374581D01*
Y375093D01*
X1107637Y375093D01*
X1108710Y375538D01*
X1109738Y376327D01*
X1110527Y377355D01*
X1111023Y378552D01*
X1111192Y379837D01*
X1111023Y381121D01*
X1110527Y382319D01*
X1109738Y383347D01*
X1108710Y384136D01*
X1107513Y384631D01*
X1106228Y384801D01*
X1104944Y384631D01*
X1104318Y384372D01*
X1056497Y432193D01*
X1056688Y432655D01*
X1103342D01*
X1103367Y432645D01*
D02*
G37*
G36*
X992202Y407136D02*
Y361019D01*
X991740Y360827D01*
X988703Y363864D01*
Y404344D01*
X991702Y407343D01*
X992202Y407136D01*
D02*
G37*
G36*
X1007512Y354684D02*
Y252013D01*
X1007600Y251345D01*
X1007858Y250723D01*
X1008268Y250188D01*
X1013850Y244606D01*
X1014385Y244196D01*
X1015007Y243938D01*
X1015675Y243850D01*
X1017935D01*
X1018182Y243350D01*
X1017721Y242749D01*
X1017284Y241696D01*
X1017182Y240916D01*
X1016654Y240737D01*
X1003270Y254120D01*
Y351012D01*
X1003182Y351680D01*
X1002924Y352303D01*
X1002514Y352837D01*
X997365Y357987D01*
Y364124D01*
X997865Y364332D01*
X1007512Y354684D01*
D02*
G37*
D11*
X1204789Y85360D02*
D03*
Y92053D02*
D03*
D12*
X1167421Y370079D02*
D03*
Y366535D02*
D03*
X1165256Y338583D02*
D03*
Y342126D02*
D03*
X1166437Y281102D02*
D03*
Y284646D02*
D03*
X1166240Y309154D02*
D03*
Y312697D02*
D03*
D13*
X841504Y170140D02*
D03*
Y166990D02*
D03*
X1125228Y375262D02*
D03*
Y378412D02*
D03*
X1011004Y161140D02*
D03*
Y157990D02*
D03*
X1043406Y156496D02*
D03*
Y159646D02*
D03*
X805315Y247146D02*
D03*
Y250295D02*
D03*
X811713Y167126D02*
D03*
Y170276D02*
D03*
D22*
X1119803Y369837D02*
X1125228Y375262D01*
X1021504Y370565D02*
Y373687D01*
X1025638Y377821D01*
X1028317Y384941D02*
X1032975D01*
X1025638Y382262D02*
X1028317Y384941D01*
X1025638Y377821D02*
Y382262D01*
X1010093Y252013D02*
Y355753D01*
Y252013D02*
X1015675Y246431D01*
X1025638D01*
X1138091Y369488D02*
Y423327D01*
X1126280Y435138D02*
X1138091Y423327D01*
X1104035Y435138D02*
X1126280D01*
X1103937Y435236D02*
X1104035Y435138D01*
X1129134Y360531D02*
X1138091Y369488D01*
X1108465Y360531D02*
X1129134D01*
X1106228Y362768D02*
X1108465Y360531D01*
X837402Y435236D02*
X1103937D01*
X1005709Y376361D02*
X1021504Y360565D01*
X1005709Y376361D02*
Y392323D01*
X1011811Y398425D01*
X1037008D01*
X1040551Y394882D01*
Y387106D02*
Y394882D01*
Y387106D02*
X1080315Y347342D01*
X1032975Y384941D02*
X1075790Y342126D01*
X1080315Y347342D02*
X1125295D01*
X1148032Y370079D01*
X1167421D01*
X1075790Y342126D02*
X1165256D01*
X1031504Y380565D02*
X1099372Y312697D01*
X1166240D01*
X1031504Y370565D02*
X1117424Y284646D01*
X1166437D01*
X999508Y366339D02*
Y409421D01*
X1004654Y414567D01*
X999508Y366339D02*
X1010093Y355753D01*
X1044766Y431299D02*
X1096228Y379837D01*
X1040081Y425984D02*
X1086228Y379837D01*
X1006693Y425984D02*
X1040081D01*
X986122Y405413D02*
X1006693Y425984D01*
X986122Y362795D02*
Y405413D01*
X1051378Y407972D02*
Y411150D01*
X1050225Y412303D02*
X1051378Y411150D01*
X1047047Y412303D02*
X1050225D01*
X1035335Y424016D02*
X1047047Y412303D01*
X1011319Y424016D02*
X1035335D01*
X994783Y407480D02*
X1011319Y424016D01*
X1051772Y433268D02*
X1105203Y379837D01*
X1051378Y407972D02*
X1084646Y374705D01*
X877362Y433268D02*
X1051772D01*
X1005413Y431299D02*
X1044766D01*
X984153Y410039D02*
X1005413Y431299D01*
X1167421Y366535D02*
X1176339D01*
X1105203Y379837D02*
X1106228D01*
X1041498Y414567D02*
X1086228Y369837D01*
X1004654Y414567D02*
X1041498D01*
X1025638Y246431D02*
X1031504Y240565D01*
X986122Y362795D02*
X992913Y356004D01*
X994783Y356918D02*
X1000689Y351012D01*
Y253051D02*
Y351012D01*
X994783Y356918D02*
Y407480D01*
X1000689Y253051D02*
X1018406Y235335D01*
X992913Y351504D02*
Y356004D01*
Y351504D02*
X998720Y345697D01*
Y248819D02*
Y345697D01*
Y248819D02*
X1016974Y230565D01*
X1026735Y235335D02*
X1031504Y230565D01*
X1018406Y235335D02*
X1026735D01*
X1084646Y374705D02*
X1091360D01*
X1096228Y369837D01*
X868701Y424606D02*
X877362Y433268D01*
X868701Y336614D02*
Y424606D01*
X852652Y320565D02*
X868701Y336614D01*
X831504Y320565D02*
X852652D01*
X984153Y357480D02*
Y410039D01*
Y357480D02*
X996752Y344882D01*
Y242028D02*
Y344882D01*
Y242028D02*
X1012795Y225984D01*
X1026085D01*
X1031504Y220565D01*
X1016974Y230565D02*
X1021504D01*
X810672Y331398D02*
X821504Y320565D01*
X810672Y408506D02*
X837402Y435236D01*
X810672Y331398D02*
Y408506D01*
X821234Y250295D02*
X821504Y250565D01*
X805315Y250295D02*
X821234D01*
X1031504Y160565D02*
X1032423Y159646D01*
X1043406D01*
X1020929Y161140D02*
X1021504Y160565D01*
X1011004Y161140D02*
X1020929D01*
X821214Y170276D02*
X821504Y170565D01*
X811713Y170276D02*
X821214D01*
X831504Y170565D02*
X831929Y170140D01*
X841504D01*
X1106228Y362768D02*
Y369837D01*
X1175748Y309154D02*
X1175846Y309252D01*
X1166240Y309154D02*
X1175748D01*
X1176339Y366535D02*
X1176437Y366437D01*
X1177224Y281102D02*
X1177323Y281201D01*
X1166437Y281102D02*
X1177224D01*
X1176634Y338583D02*
X1176732Y338484D01*
X1165256Y338583D02*
X1176634D01*
X1116228Y369837D02*
X1119803D01*
D23*
X1021504Y390565D02*
D03*
X1031504D02*
D03*
X1021504Y380565D02*
D03*
X1031504D02*
D03*
X1021504Y370565D02*
D03*
X1031504D02*
D03*
X1021504Y360565D02*
D03*
X1031504D02*
D03*
X1021504Y350565D02*
D03*
X1031504D02*
D03*
X1021504Y340565D02*
D03*
X1031504D02*
D03*
X1021504Y330565D02*
D03*
X1031504D02*
D03*
X1021504Y320565D02*
D03*
X1031504D02*
D03*
X1021504Y310565D02*
D03*
X1031504D02*
D03*
X1021504Y300565D02*
D03*
X1031504D02*
D03*
X1021504Y290565D02*
D03*
X1031504D02*
D03*
X1021504Y280565D02*
D03*
X1031504D02*
D03*
X1021504Y270565D02*
D03*
Y260565D02*
D03*
X1031504D02*
D03*
X1021504Y250565D02*
D03*
X1031504D02*
D03*
X1021504Y240565D02*
D03*
X1031504D02*
D03*
X1021504Y230565D02*
D03*
X1031504D02*
D03*
X1021504Y220565D02*
D03*
X1031504D02*
D03*
X1021504Y210565D02*
D03*
X1031504D02*
D03*
X1021504Y200565D02*
D03*
X1031504D02*
D03*
X1021504Y190565D02*
D03*
X1031504D02*
D03*
X1021504Y180565D02*
D03*
X1031504D02*
D03*
X1021504Y170565D02*
D03*
X1031504D02*
D03*
X1021504Y160565D02*
D03*
X1031504D02*
D03*
X1021504Y150565D02*
D03*
X821504D02*
D03*
X831504Y160565D02*
D03*
X821504D02*
D03*
X831504Y170565D02*
D03*
X821504D02*
D03*
X831504Y180565D02*
D03*
X821504D02*
D03*
X831504Y190565D02*
D03*
X821504D02*
D03*
X831504Y200565D02*
D03*
X821504D02*
D03*
X831504Y210565D02*
D03*
X821504D02*
D03*
X831504Y220565D02*
D03*
X821504D02*
D03*
X831504Y230565D02*
D03*
X821504D02*
D03*
X831504Y240565D02*
D03*
X821504D02*
D03*
X831504Y250565D02*
D03*
X821504D02*
D03*
X831504Y260565D02*
D03*
X821504D02*
D03*
X831504Y270565D02*
D03*
X821504D02*
D03*
X831504Y280565D02*
D03*
X821504D02*
D03*
X831504Y290565D02*
D03*
X821504D02*
D03*
X831504Y300565D02*
D03*
X821504D02*
D03*
X831504Y310565D02*
D03*
X821504D02*
D03*
X831504Y320565D02*
D03*
X821504D02*
D03*
X831504Y330565D02*
D03*
X821504D02*
D03*
X831504Y340565D02*
D03*
X821504D02*
D03*
X831504Y350565D02*
D03*
X821504D02*
D03*
X831504Y360565D02*
D03*
X821504D02*
D03*
X831504Y370565D02*
D03*
X821504D02*
D03*
X831504Y380565D02*
D03*
X821504D02*
D03*
X831504Y390565D02*
D03*
X821504D02*
D03*
D24*
X1031504Y270565D02*
D03*
D25*
Y150565D02*
D03*
X831504D02*
D03*
D26*
X1086228Y379837D02*
D03*
X1096228D02*
D03*
X1106228D02*
D03*
Y369837D02*
D03*
X1096228D02*
D03*
X1086228D02*
D03*
X1177323Y338484D02*
D03*
Y366437D02*
D03*
Y281201D02*
D03*
Y309252D02*
D03*
D27*
X1116228Y379837D02*
D03*
Y369837D02*
D03*
X1187323Y338484D02*
D03*
Y366437D02*
D03*
Y281201D02*
D03*
Y309252D02*
D03*
M02*
