M48
;Layer_Color=9474304
;FILE_FORMAT=2:5
INCH,LZ
;TYPE=PLATED
T1F00S00C0.03150
T2F00S00C0.03543
T3F00S00C0.03937
%
T01
X0821504Y0150565
X0831504
X1021504
X1031504
Y0160565
Y0170565
Y0180565
Y0190565
Y0200565
Y0210565
Y0220565
Y0230565
Y0240565
Y0250565
Y0260565
Y0270565
Y0280565
Y0290565
Y0300565
Y0310565
X1021504
Y0300565
Y0290565
Y0280565
Y0270565
Y0260565
Y0250565
Y0240565
Y0230565
Y0220565
Y0210565
Y0200565
Y0190565
Y0180565
Y0170565
Y0160565
X0831504
X0821504
Y0170565
X0831504
Y0180565
X0821504
Y0190565
X0831504
Y0200565
X0821504
Y0210565
X0831504
Y0220565
X0821504
Y0230565
X0831504
Y0240565
X0821504
Y0250565
X0831504
Y0260565
X0821504
Y0270565
X0831504
Y0280565
X0821504
Y0290565
X0831504
Y0300565
X0821504
Y0310565
X0831504
Y0320565
X0821504
Y0330565
X0831504
Y0340565
X0821504
Y0350565
X0831504
Y0360565
X0821504
Y0370565
X0831504
Y0380565
X0821504
Y0390565
X0831504
X1021504
X1031504
Y0380565
X1021504
Y0370565
X1031504
Y0360565
X1021504
Y0350565
X1031504
Y0340565
X1021504
Y0330565
X1031504
Y0320565
X1021504
T02
X0933583Y0433786
Y0443786
Y0453786
Y0463786
X0943583
Y0453786
Y0443786
Y0433786
T03
X1115217Y0232677
X1125216
Y0258465
X1115217
Y0287697
X1125216
Y0315748
X1115217
M30
