G04*
G04 #@! TF.GenerationSoftware,Altium Limited,Altium NEXUS,1.1.9 (86)*
G04*
G04 Layer_Color=8421504*
%FSLAX25Y25*%
%MOIN*%
G70*
G01*
G75*
%ADD10R,0.02047X0.02047*%
%ADD11R,0.01772X0.02165*%
%ADD12R,0.07008X0.02835*%
D10*
X55925Y22500D02*
D03*
X59075D02*
D03*
X55925Y47500D02*
D03*
X59075D02*
D03*
D11*
X59272Y7500D02*
D03*
X55728D02*
D03*
X19272Y12500D02*
D03*
X15728D02*
D03*
X59272Y17500D02*
D03*
X55728D02*
D03*
X19272Y22500D02*
D03*
X15728D02*
D03*
X19272Y17500D02*
D03*
X15728D02*
D03*
X59272Y32500D02*
D03*
X55728D02*
D03*
X19272D02*
D03*
X15728D02*
D03*
X59272Y42500D02*
D03*
X55728D02*
D03*
X19272D02*
D03*
X15728D02*
D03*
X19272Y37500D02*
D03*
X15728D02*
D03*
D12*
X26535Y22500D02*
D03*
Y17500D02*
D03*
Y12500D02*
D03*
Y7500D02*
D03*
X48465Y22500D02*
D03*
Y17500D02*
D03*
Y12500D02*
D03*
Y7500D02*
D03*
X66535Y22500D02*
D03*
Y17500D02*
D03*
Y12500D02*
D03*
Y7500D02*
D03*
X88465Y22500D02*
D03*
Y17500D02*
D03*
Y12500D02*
D03*
Y7500D02*
D03*
X26535Y47500D02*
D03*
Y42500D02*
D03*
Y37500D02*
D03*
Y32500D02*
D03*
X48465Y47500D02*
D03*
Y42500D02*
D03*
Y37500D02*
D03*
Y32500D02*
D03*
X66535Y47500D02*
D03*
Y42500D02*
D03*
Y37500D02*
D03*
Y32500D02*
D03*
X88465Y47500D02*
D03*
Y42500D02*
D03*
Y37500D02*
D03*
Y32500D02*
D03*
M02*
